<svg width="50" height="59" viewBox="0 0 50 59" fill="none" xmlns="http://www.w3.org/2000/svg">
<g clip-path="url(#clip0_428:3809)">
<path d="M1.00918 0.0059637C0.87367 0.0059637 0.739541 0.0413602 0.634812 0.130847C0.529163 0.222804 0.463936 0.355093 0.457046 0.496086C0.452453 0.582398 0 9.18823 0 20.2262C0 31.713 0.764806 37.8664 2.82128 42.9293C4.9067 48.0693 8.12669 50.6071 14.5543 54.3517C20.7081 57.936 23.2827 58.4192 24.9998 58.4192C26.7177 58.4192 29.2923 57.936 35.4438 54.3517C41.8737 50.6071 45.0923 48.0693 47.18 42.9293C49.2355 37.8664 49.9994 31.713 49.9994 20.2262C49.9994 9.18823 49.5479 0.582398 49.5433 0.496086C49.5355 0.355093 49.4721 0.222804 49.3632 0.130847C49.2599 0.0390083 49.123 0.0059637 48.9829 0.0059637C48.9829 0.0059637 1.14376 0.0059637 1.00918 0.0059637V0.0059637ZM48.4468 1.1359C48.5502 3.33487 48.8726 10.9314 48.8726 20.2262C48.8726 31.5514 48.1309 37.5893 46.1364 42.5053C45.1718 44.8828 43.9485 46.6812 42.1709 48.3403C40.5737 49.8309 38.4607 51.2902 34.8765 53.3784C32.1356 54.9755 29.9468 56.0504 28.1876 56.6659C26.5982 57.2217 25.6483 57.2929 24.9998 57.2929C24.3507 57.2929 23.4022 57.2217 21.8128 56.6659C20.0526 56.0504 17.8638 54.9755 15.1216 53.3793C11.5387 51.2902 9.42572 49.8309 7.82812 48.3403C6.05183 46.6812 4.82999 44.8828 3.86537 42.5053C1.86952 37.5903 1.12631 31.5514 1.12631 20.2262C1.12631 10.936 1.44922 3.34863 1.55349 1.14143L48.4468 1.1359" fill="#100F0D"/>
<path d="M37.644 26.3859C30.9734 23.1957 26.4912 20.9335 24.8743 20.9335C23.2598 20.9335 19.0352 23.1957 12.3655 26.3859C5.69447 29.576 3.41751 30.259 3.41751 31.6546C3.41751 33.05 5.05507 32.3858 5.55207 32.237C6.05046 32.0872 23.0714 26.5797 24.8743 26.5797C26.6772 26.5797 43.9577 32.0872 44.4561 32.237C44.9545 32.3858 46.5911 33.05 46.5911 31.6546C46.5911 30.259 44.3137 29.576 37.644 26.3859" fill="#100F0D"/>
<path d="M41.4786 36.8116C38.5857 37.7836 36.289 39.8984 33.085 39.2957C30.2762 38.7675 27.9451 36.3421 24.9952 36.3788C21.766 36.4202 19.3291 39.2002 16.1606 39.4656C13.0462 39.7251 10.6232 37.2094 7.72018 36.614C6.40784 36.3453 5.25581 36.5258 4.16028 36.9026C4.38306 37.9834 4.64029 38.9788 4.93795 39.9149C5.80243 39.7068 6.71423 39.6471 7.72018 39.8538C10.6232 40.4496 13.0462 42.9644 16.1606 42.7049C19.3291 42.4399 21.766 39.66 24.9952 39.6181C27.9451 39.5814 30.2762 42.0068 33.085 42.5355C36.289 43.1381 38.5857 41.0229 41.4786 40.0513C42.7716 39.6172 43.9256 39.6549 45.0248 39.9287C45.321 38.9935 45.5791 38.0003 45.801 36.9219C44.469 36.4607 43.0795 36.2742 41.4786 36.8116Z" fill="#100F0D"/>
<path d="M41.4786 43.2906C38.5857 44.2621 36.289 46.3774 33.085 45.7748C30.2762 45.2465 27.9451 42.8212 24.9952 42.8579C21.766 42.8993 19.3291 45.6792 16.1606 45.9447C13.0462 46.2042 10.6232 43.6893 7.72016 43.0931C7.17034 42.981 6.64898 42.9475 6.14691 42.9736C6.80378 44.2933 7.62141 45.4372 8.62508 46.4661C8.65631 46.4996 8.68846 46.5221 8.72843 46.5432C9.05593 46.7003 10.7403 47.5179 11.5832 47.9405C13.0163 48.6608 14.5139 49.3222 16.1606 49.1844C19.3291 48.9203 21.766 46.1385 24.9952 46.0977C27.9451 46.0604 30.2762 48.4858 33.085 49.0154C35.0455 49.3838 36.6968 48.72 38.3229 47.9382C39.1681 47.5317 40.9734 46.636 41.311 46.4683C41.3523 46.4476 41.3822 46.4233 41.413 46.3917C42.3675 45.3926 43.186 44.2474 43.819 42.9764C43.0803 42.9282 42.3077 43.0127 41.4786 43.2906Z" fill="#100F0D"/>
<path d="M17.0402 52.2859C18.3287 53.0117 19.4738 53.6029 20.4913 54.0696C21.9207 53.325 23.3562 52.5983 24.9952 52.5776C26.6327 52.557 28.0806 53.2956 29.5242 54.0462C30.5509 53.5744 31.7061 52.9736 33.0069 52.2386C30.2339 51.6805 27.9175 49.3002 24.9952 49.3379C22.0714 49.3751 19.7963 51.6576 17.0402 52.2859Z" fill="#100F0D"/>
<path d="M35.43 32.8084C32.0125 31.7648 29.6758 31.0826 28.0782 30.638C26.5592 30.2146 25.8482 30.0537 25.3787 29.9344C25.2395 29.899 25.0044 29.8539 24.9249 29.8402C24.8206 29.8599 24.6769 29.8884 24.4807 29.9344C24.0856 30.0239 23.4793 30.1764 22.5455 30.4341C20.9631 30.87 18.4403 31.6072 14.4266 32.8511C13.1382 33.2508 11.6958 33.7019 10.0826 34.2118C12.0541 35.1516 13.9433 36.4133 16.1951 36.225C19.3636 35.9609 21.8005 33.1805 25.0296 33.1392C27.9795 33.1015 30.3107 35.5277 33.1195 36.056C35.7286 36.548 37.7373 35.2338 39.9559 34.2062C38.2688 33.6802 36.7667 33.2163 35.43 32.8084" fill="#100F0D"/>
<path d="M33.0107 11.3135C33.0107 12.2345 32.2642 12.9814 31.3442 12.9814C30.4232 12.9814 29.6767 12.2345 29.6767 11.3135C29.6767 10.3925 30.4232 9.64608 31.3442 9.64608C32.2642 9.64608 33.0107 10.3925 33.0107 11.3135Z" fill="#100F0D"/>
<path d="M39.9614 5.9368C39.9614 6.85789 39.2149 7.60425 38.2954 7.60425C37.3744 7.60425 36.6279 6.85789 36.6279 5.9368C36.6279 5.01582 37.3744 4.26946 38.2954 4.26946C39.2149 4.26946 39.9614 5.01582 39.9614 5.9368Z" fill="#100F0D"/>
<path d="M45.848 12.1026C45.848 13.0235 45.1015 13.77 44.1805 13.77C43.2595 13.77 42.5131 13.0235 42.5131 12.1026C42.5131 11.1816 43.2595 10.4351 44.1805 10.4351C45.1015 10.4351 45.848 11.1816 45.848 12.1026Z" fill="#100F0D"/>
<path d="M39.2692 21.1471C39.2692 22.0681 38.5228 22.8146 37.6018 22.8146C36.6809 22.8146 35.9344 22.0681 35.9344 21.1471C35.9344 20.2261 36.6809 19.4797 37.6018 19.4797C38.5228 19.4797 39.2692 20.2261 39.2692 21.1471Z" fill="#100F0D"/>
<path d="M40.1566 14.5923C40.1566 15.2707 39.6068 15.821 38.9279 15.821C38.2504 15.821 37.7005 15.2707 37.7005 14.5923C37.7005 13.9135 38.2504 13.3636 38.9279 13.3636C39.6068 13.3636 40.1566 13.9135 40.1566 14.5923Z" fill="#100F0D"/>
</g>
<defs>
<clipPath id="clip0_428:3809">
<rect width="50" height="58.4196" fill="white"/>
</clipPath>
</defs>
</svg>
