<svg width="100" height="117" viewBox="0 0 100 117" fill="none" xmlns="http://www.w3.org/2000/svg">
<g clip-path="url(#clip0_431:4346)">
<path d="M90.5068 25.795L90.7457 29.0857L88.325 26.8469L85.9024 29.0857L86.1411 25.795L82.8798 25.2971L85.6037 23.434L83.9593 20.5741L87.1122 21.5386L88.325 18.4702L89.5357 21.5386L92.6886 20.5741L91.047 23.434L93.7681 25.2971L90.5068 25.795ZM88.913 64.4744C87.9144 64.1748 53.3551 53.1597 49.7493 53.1597C46.1434 53.1597 12.1016 64.1748 11.1048 64.4744C10.1108 64.7719 6.83569 66.1005 6.83569 63.3096C6.83569 60.5184 11.3896 59.1525 24.7288 52.7722C38.071 46.3919 46.5183 41.8674 49.7493 41.8674C52.9812 41.8674 61.9475 46.3919 75.2888 52.7722C88.6282 59.1525 93.183 60.5184 93.183 63.3096C93.183 66.1005 89.9097 64.7719 88.913 64.4744V64.4744ZM20.1658 68.4239C23.3922 67.4041 26.2768 66.5019 28.8539 65.7025C36.8812 63.2148 41.9266 61.7404 45.0915 60.8686C46.9565 60.3531 48.1719 60.048 48.9593 59.8691C49.3525 59.7771 49.6418 59.7202 49.8504 59.6807C50.0094 59.7082 50.4798 59.7983 50.758 59.8691C51.6968 60.1078 53.1164 60.4295 56.1571 61.2764C59.3523 62.1656 64.0256 63.5299 70.8608 65.6172C73.5341 66.433 76.5364 67.3608 79.9125 68.4128C75.4753 70.4678 71.4579 73.0962 66.238 72.1122C60.6202 71.0558 55.9579 66.2033 50.0597 66.2787C43.6016 66.3613 38.7251 71.9222 32.3909 72.4504C27.8873 72.827 24.107 70.3034 20.1658 68.4239V68.4239ZM90.0475 79.8578C87.8518 79.3103 85.5414 79.2348 82.9579 80.1031C77.1721 82.0461 72.5769 86.2766 66.1691 85.0713C60.5531 84.0139 55.8906 79.1633 49.991 79.2366C43.5327 79.3204 38.659 84.8801 32.322 85.4102C26.0931 85.9293 21.2471 80.8996 15.441 79.708C13.4273 79.2945 11.6055 79.414 9.87654 79.8302C9.28122 77.958 8.76492 75.9671 8.3212 73.8056C10.5123 73.052 12.8163 72.691 15.441 73.2284C21.2471 74.4191 26.0931 79.4507 32.322 78.929C38.659 78.4008 43.5327 72.8408 49.991 72.758C55.8906 72.6847 60.5531 77.5353 66.1691 78.5918C72.5769 79.7971 77.1721 75.5675 82.9579 73.6235C86.1597 72.5487 88.9386 72.9217 91.6028 73.8441C91.159 76.001 90.6427 77.9874 90.0475 79.8578V79.8578ZM82.8267 92.7837C82.765 92.8469 82.7025 92.8956 82.6227 92.937C81.9447 93.2724 78.337 95.0638 76.6465 95.8769C73.3944 97.4405 70.0917 98.768 66.1691 98.0312C60.5531 96.9719 55.8906 92.1212 49.991 92.1957C43.5327 92.2773 38.659 97.841 32.322 98.3692C29.0266 98.6449 26.0334 97.3219 23.1653 95.8814C21.4814 95.0363 18.1098 93.401 17.4575 93.0868C17.3748 93.0445 17.3133 92.9996 17.249 92.9326C15.2435 90.8728 13.6082 88.5871 12.2945 85.9476C13.2959 85.8954 14.3414 85.9624 15.441 86.1866C21.2471 87.3789 26.0931 92.4088 32.322 91.8898C38.659 91.3587 43.5327 85.799 49.991 85.7162C55.8906 85.6428 60.5531 90.4935 66.1691 91.5499C72.5769 92.7552 77.1721 88.5245 82.9579 86.5817C84.6162 86.0257 86.1613 85.8568 87.6387 85.9532C86.3709 88.4951 84.7356 90.7856 82.8267 92.7837ZM59.0491 108.093C56.1599 106.591 53.266 105.114 49.991 105.156C46.7131 105.197 43.8422 106.65 40.9833 108.139C38.9457 107.206 36.658 106.024 34.0811 104.572C39.5934 103.315 44.1409 98.7505 49.991 98.6743C55.8356 98.6008 60.4659 103.361 66.0146 104.478C63.413 105.947 61.1025 107.149 59.0491 108.093V108.093ZM58.2867 18.9279L61.4395 19.8942L62.6505 16.8258L63.8631 19.8942L67.016 18.9279L65.3716 21.7896L68.0955 23.6517L64.8342 24.1506L65.0729 27.4422L62.6505 25.2023L60.2269 27.4422L60.4685 24.1506L57.2072 23.6517L59.9283 21.7896L58.2867 18.9279ZM70.801 38.6731L73.9548 39.6367L75.1674 36.5683L76.3775 39.6367L79.5331 38.6731L77.8887 41.532L80.6108 43.397L77.3495 43.8959L77.5901 47.1837L75.1674 44.945L72.7441 47.1837L72.9828 43.8959L69.7243 43.397L72.4454 41.532L70.801 38.6731ZM72.1881 8.2343L75.3419 9.20067L76.552 6.13223L77.7646 9.20067L80.9184 8.2343L79.274 11.0932L81.9979 12.9582L78.7366 13.457L78.9755 16.7458L76.552 14.5062L74.1293 16.7458L74.3702 13.457L71.1086 12.9582L73.8309 11.0932L72.1881 8.2343ZM80.4546 32.8992L77.8107 31.0911L75.1905 32.8992L76.0955 29.8509L73.5597 27.8895L76.7523 27.7628L77.8198 24.7936L78.9019 27.8143L82.0825 27.8895L79.5468 29.8161L80.4546 32.8992ZM99.0872 0.992294C99.0717 0.710309 98.945 0.44573 98.7272 0.261817C98.5204 0.0781388 98.2467 0.0120495 97.9666 0.0120495C97.9666 0.0120495 2.2882 0.0120495 2.01719 0.0120495C1.74617 0.0120495 1.47975 0.0828424 1.27029 0.261817C1.059 0.44573 0.928544 0.710309 0.912008 0.992294C0.905576 1.16492 0.000671387 18.3766 0.000671387 40.4525C0.000671387 63.4262 1.53028 75.7329 5.6414 85.8587C9.81408 96.1387 16.2541 101.214 29.1091 108.704C41.4151 115.872 46.5661 116.839 50.0002 116.839C53.436 116.839 58.5825 115.872 70.8883 108.704C83.7453 101.214 90.1853 96.1387 94.3608 85.8587C98.4699 75.7329 99.9995 63.4262 99.9995 40.4525C99.9995 18.3766 99.0948 1.16492 99.0872 0.992294" fill="#100F0D"/>
</g>
<defs>
<clipPath id="clip0_431:4346">
<rect width="100" height="116.839" fill="white"/>
</clipPath>
</defs>
</svg>
