<svg width="100" height="117" viewBox="0 0 100 117" fill="none" xmlns="http://www.w3.org/2000/svg">
<g clip-path="url(#clip0_431:4345)">
<path d="M90.5067 25.7956L90.7457 29.0863L88.3249 26.8473L85.9023 29.0863L86.141 25.7956L82.8797 25.2968L85.6036 23.4346L83.9592 20.5729L87.1121 21.5393L88.3249 18.4708L89.5357 21.5393L92.6885 20.5729L91.047 23.4346L93.768 25.2968L90.5067 25.7956ZM88.9129 64.4741C87.9143 64.1754 53.3551 53.1604 49.7492 53.1604C46.1434 53.1604 12.1015 64.1754 11.1048 64.4741C10.1107 64.7726 6.83563 66.1002 6.83563 63.3102C6.83563 60.519 11.3896 59.1531 24.7288 52.77C38.071 46.3925 46.5183 41.868 49.7492 41.868C52.9811 41.868 61.9475 46.3925 75.2887 52.77C88.6281 59.1531 93.1829 60.519 93.1829 63.3102C93.1829 66.1002 89.9096 64.7726 88.9129 64.4741ZM20.1658 68.4245C23.3922 67.4047 26.2767 66.4997 28.8539 65.7032C36.8812 63.2154 41.9265 61.741 45.0914 60.8683C46.9564 60.3537 48.1718 60.0487 48.9592 59.8669C49.3525 59.7777 49.6417 59.718 49.8503 59.6813C50.0093 59.7088 50.4797 59.798 50.7579 59.8697C51.6968 60.1058 53.1163 60.4273 56.157 61.2751C59.3522 62.1663 64.0256 63.5306 70.8607 65.6159C73.534 66.4337 76.5364 67.3586 79.9124 68.4134C75.4752 70.4685 71.4578 73.0941 66.2379 72.1129C60.6201 71.0564 55.9578 66.2039 50.0597 66.2794C43.6015 66.36 38.725 71.9228 32.3908 72.4511C27.8873 72.8276 24.1069 70.3031 20.1658 68.4245V68.4245ZM90.0474 79.8575C87.8518 79.3109 85.5413 79.2354 82.9578 80.1037C77.1721 82.0465 72.5768 86.2773 66.169 85.071C60.5531 84.0146 55.8906 79.162 49.991 79.2373C43.5326 79.3182 38.6589 84.8807 32.3219 85.409C26.0931 85.9299 21.2471 80.8984 15.441 79.7086C13.4272 79.2951 11.6055 79.4146 9.87648 79.8299C9.28116 77.9558 8.76486 75.9649 8.32114 73.8059C10.5122 73.0527 12.8163 72.6898 15.441 73.229C21.2471 74.4188 26.0931 79.4513 32.3219 78.9297C38.6589 78.4012 43.5326 72.8386 49.991 72.7587C55.8906 72.6825 60.5531 77.536 66.169 78.5924C72.5768 79.7977 77.1721 75.5672 82.9578 73.6242C86.1596 72.5494 88.9385 72.9214 91.6027 73.8445C91.1589 75.999 90.6427 77.988 90.0474 79.8575V79.8575ZM82.8266 92.7815C82.765 92.8476 82.7024 92.8963 82.6227 92.9348C81.9447 93.273 78.3369 95.0644 76.6464 95.8775C73.3943 97.4411 70.0916 98.7667 66.169 98.029C60.5531 96.9725 55.8906 92.1218 49.991 92.1954C43.5326 92.278 38.6589 97.8389 32.3219 98.3689C29.0265 98.6427 26.0333 97.3216 23.1653 95.8821C21.4813 95.0341 18.1097 93.4016 17.4575 93.0846C17.3748 93.0451 17.3132 92.9974 17.2489 92.9332C15.2434 90.8725 13.6082 88.5877 12.2944 85.9482C13.2958 85.896 14.3413 85.9621 15.441 86.1872C21.2471 87.377 26.0931 92.4094 32.3219 91.8876C38.6589 91.3593 43.5326 85.7996 49.991 85.7168C55.8906 85.6432 60.5531 90.4939 66.169 91.5505C72.5768 92.7559 77.1721 88.5251 82.9578 86.5823C84.6161 86.0263 86.1613 85.8565 87.6387 85.9511C86.3708 88.4932 84.7356 90.7834 82.8266 92.7815V92.7815ZM59.0491 108.093C56.1598 106.591 53.2659 105.112 49.991 105.153C46.713 105.195 43.8421 106.649 40.9832 108.139C38.9456 107.207 36.658 106.024 34.0811 104.57C39.5933 103.316 44.1408 98.7484 49.991 98.6749C55.8355 98.6014 60.4658 103.362 66.0145 104.476C63.4129 105.948 61.1025 107.147 59.0491 108.093V108.093ZM58.2866 18.9285L61.4395 19.8948L62.6504 16.8264L63.863 19.8948L67.0159 18.9285L65.3715 21.7874L68.0954 23.6524L64.8341 24.1512L65.0728 27.44L62.6504 25.2003L60.2269 27.44L60.4684 24.1512L57.2071 23.6524L59.9282 21.7874L58.2866 18.9285ZM70.801 38.6728L73.9548 39.6373L75.1674 36.5689L76.3774 39.6373L79.5331 38.6728L77.8887 41.5327L80.6107 43.3948L77.3494 43.8937L77.59 47.1844L75.1674 44.9456L72.744 47.1844L72.9828 43.8937L69.7243 43.3948L72.4454 41.5327L70.801 38.6728ZM72.1881 8.23492L75.3419 9.19941L76.5519 6.1312L77.7645 9.19941L80.9183 8.23492L79.2739 11.0938L81.9978 12.9588L78.7365 13.4548L78.9755 16.7464L76.5519 14.5068L74.1293 16.7464L74.3701 13.4548L71.1086 12.9588L73.8308 11.0938L72.1881 8.23492ZM80.4545 32.8988L77.8106 31.0917L75.1904 32.8988L76.0954 29.8516L73.5597 27.8901L76.7523 27.7634L77.8198 24.7914L78.9019 27.8139L82.0825 27.8901L79.5467 29.8165L80.4545 32.8988ZM99.0872 0.992918C99.0717 0.710933 98.9449 0.446356 98.7271 0.261501C98.5204 0.0787638 98.2466 0.0107935 97.9665 0.0107935C97.9665 0.0107935 2.28814 0.0107935 2.01713 0.0107935C1.74611 0.0107935 1.47969 0.0834674 1.27023 0.261501C1.05894 0.446356 0.928483 0.710933 0.911947 0.992918C0.905515 1.16554 0.000610352 18.3744 0.000610352 40.4532C0.000610352 63.4268 1.53022 75.7326 5.64134 85.8591C9.81401 96.1393 16.254 101.215 29.1091 108.704C41.415 115.873 46.566 116.839 50.0002 116.839C53.436 116.839 58.5825 115.873 70.8882 108.704C83.7452 101.215 90.1852 96.1393 94.3607 85.8591C98.4698 75.7326 99.9995 63.4268 99.9995 40.4532C99.9995 18.3744 99.0947 1.16554 99.0872 0.992918" fill="white"/>
</g>
<defs>
<clipPath id="clip0_431:4345">
<rect width="100" height="116.839" fill="white"/>
</clipPath>
</defs>
</svg>
