<svg width="50" height="59" viewBox="0 0 50 59" fill="none" xmlns="http://www.w3.org/2000/svg">
<g clip-path="url(#clip0_431:4348)">
<path d="M44.4558 32.2371C43.9574 32.0873 26.6782 26.5798 24.8739 26.5798C23.071 26.5798 6.05009 32.0873 5.55309 32.2371C5.0547 32.3859 3.41806 33.0502 3.41806 31.6547C3.41806 30.2591 5.69548 29.5762 12.3651 26.386C19.0357 23.1959 23.2594 20.9336 24.8739 20.9336C26.4908 20.9336 30.9732 23.1959 37.6437 26.386C44.3134 29.5762 46.5917 30.2591 46.5917 31.6547C46.5917 33.0502 44.9541 32.3859 44.4558 32.2371V32.2371ZM10.0831 34.2119C11.6968 33.702 13.1391 33.2509 14.4275 32.8512C18.4408 31.6073 20.9627 30.8701 22.5464 30.4342C23.4789 30.1765 24.0862 30.024 24.4803 29.9345C24.6765 29.8885 24.8202 29.86 24.9259 29.8403C25.004 29.854 25.2392 29.8991 25.3792 29.9345C25.8491 30.0538 26.5588 30.2147 28.0792 30.6381C29.6764 31.0827 32.0135 31.7649 35.4311 32.8085C36.7663 33.2165 38.2684 33.6804 39.9555 34.2063C37.7369 35.2353 35.7296 36.5481 33.1192 36.0561C30.3103 35.5278 27.9792 33.1016 25.0293 33.1393C21.8001 33.1806 19.3632 35.961 16.1947 36.2252C13.9439 36.4134 12.0537 35.1517 10.0831 34.2119V34.2119ZM45.0244 39.9288C43.9266 39.6551 42.7714 39.6183 41.4782 40.0515C38.5853 41.023 36.2887 43.1383 33.0848 42.5356C30.2758 42.0069 27.9447 39.5816 24.9957 39.6183C21.7666 39.6601 19.3288 42.44 16.1617 42.705C13.0458 42.9646 10.6228 40.4498 7.7198 39.8539C6.71385 39.6472 5.80205 39.7069 4.93849 39.9151C4.6413 38.9789 4.38268 37.9835 4.16128 36.9027C5.25681 36.526 6.40838 36.3454 7.7198 36.6141C10.6228 37.2095 13.0458 39.7253 16.1617 39.4645C19.3288 39.2003 21.7666 36.4204 24.9957 36.379C27.9447 36.3423 30.2758 38.7676 33.0848 39.2958C36.2887 39.8985 38.5853 37.7837 41.4782 36.8117C43.0791 36.2743 44.4695 36.4608 45.8016 36.922C45.5789 38.0004 45.3216 38.9936 45.0244 39.9288V39.9288ZM41.414 46.3918C41.3827 46.4234 41.3519 46.4478 41.3116 46.4684C40.973 46.6361 39.1678 47.5319 38.3235 47.9384C36.6974 48.7202 35.0461 49.3839 33.0848 49.0155C30.2758 48.4859 27.9447 46.0605 24.9957 46.0978C21.7666 46.1386 19.3288 48.9204 16.1617 49.1846C14.5135 49.3224 13.0161 48.6609 11.5829 47.9407C10.7414 47.5181 9.05557 46.7004 8.72944 46.5434C8.6881 46.5222 8.65687 46.4997 8.62472 46.4662C7.62105 45.4373 6.80342 44.2935 6.14655 42.9737C6.64862 42.9476 7.16998 42.9812 7.7198 43.0932C10.6228 43.6894 13.0458 46.2043 16.1617 45.9448C19.3288 45.6793 21.7666 42.8994 24.9957 42.858C27.9447 42.8213 30.2758 45.2467 33.0848 45.7749C36.2887 46.3776 38.5853 44.2622 41.4782 43.2908C42.3083 43.0128 43.0813 42.9284 43.8186 42.9766C43.1857 44.2475 42.3671 45.3927 41.414 46.3918V46.3918ZM29.5248 54.0462C28.0802 53.2957 26.6332 52.5571 24.9957 52.5777C23.3558 52.5984 21.9218 53.3251 20.4909 54.0697C19.4735 53.603 18.3297 53.0118 17.0398 52.286C19.796 51.6577 22.071 49.3752 24.9957 49.338C27.9171 49.3003 30.2335 51.6806 33.008 52.2387C31.7067 52.9737 30.5505 53.5745 29.5248 54.0462V54.0462ZM31.3438 9.64613C32.2648 9.64613 33.0113 10.3926 33.0113 11.3136C33.0113 12.2346 32.2648 12.9815 31.3438 12.9815C30.4228 12.9815 29.6764 12.2346 29.6764 11.3136C29.6764 10.3926 30.4228 9.64613 31.3438 9.64613ZM37.6024 19.4797C38.5224 19.4797 39.2688 20.2262 39.2688 21.1472C39.2688 22.0682 38.5224 22.8146 37.6024 22.8146C36.6814 22.8146 35.9349 22.0682 35.9349 21.1472C35.9349 20.2262 36.6814 19.4797 37.6024 19.4797ZM40.1577 14.5924C40.1577 15.2708 39.6073 15.8211 38.929 15.8211C38.25 15.8211 37.7002 15.2708 37.7002 14.5924C37.7002 13.9135 38.25 13.3637 38.929 13.3637C39.6073 13.3637 40.1577 13.9135 40.1577 14.5924ZM38.295 4.2696C39.216 4.2696 39.9625 5.01596 39.9625 5.93694C39.9625 6.85803 39.216 7.60439 38.295 7.60439C37.374 7.60439 36.6276 6.85803 36.6276 5.93694C36.6276 5.01596 37.374 4.2696 38.295 4.2696ZM44.1801 10.4353C45.1011 10.4353 45.8476 11.1818 45.8476 12.1027C45.8476 13.0237 45.1011 13.7702 44.1801 13.7702C43.2591 13.7702 42.5127 13.0237 42.5127 12.1027C42.5127 11.1818 43.2591 10.4353 44.1801 10.4353ZM49.543 0.496086C49.5361 0.355093 49.4718 0.222804 49.3638 0.130847C49.2595 0.0390083 49.124 0.0059637 48.984 0.0059637C48.984 0.0059637 1.14432 0.0059637 1.00881 0.0059637C0.873303 0.0059637 0.739176 0.0413602 0.635823 0.130847C0.530174 0.222804 0.46357 0.355093 0.456679 0.496086C0.453005 0.582398 -0.000366211 9.18823 -0.000366211 20.2262C-0.000366211 31.713 0.764439 37.8664 2.82092 42.9293C4.90771 48.0693 8.1277 50.6071 14.5548 54.3517C20.7078 57.936 23.2823 58.4192 24.9994 58.4192C26.7182 58.4192 29.292 57.936 35.4448 54.3517C41.8733 50.6071 45.0933 48.0693 47.1811 42.9293C49.2352 37.8664 50 31.713 50 20.2262C50 9.18823 49.5476 0.582398 49.543 0.496086" fill="#100F0D"/>
</g>
<defs>
<clipPath id="clip0_431:4348">
<rect width="50" height="58.4196" fill="white"/>
</clipPath>
</defs>
</svg>
