<svg width="50" height="59" viewBox="0 0 50 59" fill="none" xmlns="http://www.w3.org/2000/svg">
<g clip-path="url(#clip0_431:4350)">
<path d="M44.4558 32.2365C43.9574 32.0881 26.6782 26.5806 24.8739 26.5806C23.071 26.5806 6.05009 32.0881 5.55309 32.2365C5.0547 32.3867 3.41806 33.0505 3.41806 31.6545C3.41806 30.2599 5.69548 29.576 12.3651 26.3858C19.0357 23.1962 23.2594 20.9335 24.8739 20.9335C26.4908 20.9335 30.9732 23.1962 37.6437 26.3858C44.3134 29.576 46.5917 30.2599 46.5917 31.6545C46.5917 33.0505 44.9541 32.3867 44.4558 32.2365V32.2365ZM10.0831 34.2126C11.6968 33.7018 13.1391 33.2503 14.4275 32.851C18.4408 31.6071 20.9627 30.87 22.5464 30.4336C23.4789 30.1772 24.0862 30.0242 24.4803 29.9338C24.6765 29.8888 24.8202 29.8594 24.9259 29.8401C25.004 29.8543 25.2392 29.8984 25.3792 29.9343C25.8491 30.0536 26.5588 30.214 28.0792 30.6375C29.6764 31.083 32.0135 31.7647 35.4311 32.8079C36.7663 33.2163 38.2684 33.6797 39.9555 34.2062C37.7369 35.2346 35.7296 36.5469 33.1192 36.0559C30.3103 35.5277 27.9792 33.1019 25.0293 33.1391C21.8001 33.1799 19.3632 35.9609 16.1947 36.2254C13.9439 36.4132 12.0537 35.151 10.0831 34.2126V34.2126ZM45.0244 39.9282C43.9266 39.6549 42.7714 39.6176 41.4782 40.0518C38.5853 41.0228 36.2887 43.1381 33.0848 42.5359C30.2758 42.0077 27.9447 39.5809 24.9957 39.6181C21.7666 39.659 19.3288 42.4403 16.1617 42.7044C13.0458 42.9644 10.6228 40.4491 7.7198 39.8542C6.71385 39.6475 5.80205 39.7067 4.93849 39.9153C4.6413 38.9783 4.38268 37.9828 4.16128 36.9025C5.25681 36.5262 6.40838 36.3448 7.7198 36.614C10.6228 37.2098 13.0458 39.7251 16.1617 39.4651C19.3288 39.201 21.7666 36.4192 24.9957 36.3788C27.9447 36.3411 30.2758 38.7674 33.0848 39.2961C36.2887 39.8983 38.5853 37.7831 41.4782 36.8125C43.0791 36.2751 44.4695 36.4602 45.8016 36.9218C45.5789 38.0003 45.3216 38.9934 45.0244 39.9282V39.9282ZM41.414 46.3911C41.3827 46.4242 41.3519 46.4476 41.3116 46.4678C40.973 46.636 39.1678 47.5321 38.3235 47.9382C36.6974 48.72 35.0461 49.3837 33.0848 49.0149C30.2758 48.4866 27.9447 46.0603 24.9957 46.0981C21.7666 46.1384 19.3288 48.9193 16.1617 49.1839C14.5135 49.3213 13.0161 48.6612 11.5829 47.9405C10.7414 47.517 9.05557 46.7007 8.72944 46.5422C8.6881 46.5225 8.65687 46.4986 8.62472 46.4665C7.62105 45.4366 6.80342 44.2938 6.14655 42.9736C6.64862 42.9475 7.16998 42.9805 7.7198 43.094C10.6228 43.6887 13.0458 46.2042 16.1617 45.9446C19.3288 45.6796 21.7666 42.8992 24.9957 42.8583C27.9447 42.8212 30.2758 45.2468 33.0848 45.7752C36.2887 46.3783 38.5853 44.262 41.4782 43.2915C42.3083 43.0126 43.0813 42.9286 43.8186 42.9754C43.1857 44.247 42.3671 45.3916 41.414 46.3911V46.3911ZM29.5248 54.047C28.0802 53.295 26.6332 52.5564 24.9957 52.5771C23.3558 52.5978 21.9218 53.3244 20.4909 54.0699C19.4735 53.6028 18.3297 53.0116 17.0398 52.2859C19.796 51.6584 22.071 49.3741 24.9957 49.3373C27.9171 49.3006 30.2335 51.6804 33.008 52.2381C31.7067 52.9735 30.5505 53.5734 29.5248 54.047V54.047ZM31.3438 9.64689C32.2648 9.64689 33.0113 10.3934 33.0113 11.3143C33.0113 12.2344 32.2648 12.9808 31.3438 12.9808C30.4228 12.9808 29.6764 12.2344 29.6764 11.3143C29.6764 10.3934 30.4228 9.64689 31.3438 9.64689ZM37.6024 19.48C38.5224 19.48 39.2688 20.2265 39.2688 21.147C39.2688 22.068 38.5224 22.8145 37.6024 22.8145C36.6814 22.8145 35.9349 22.068 35.9349 21.147C35.9349 20.2265 36.6814 19.48 37.6024 19.48ZM40.1577 14.5922C40.1577 15.2706 39.6073 15.8209 38.929 15.8209C38.25 15.8209 37.7002 15.2706 37.7002 14.5922C37.7002 13.9142 38.25 13.364 38.929 13.364C39.6073 13.364 40.1577 13.9142 40.1577 14.5922ZM38.295 4.26942C39.216 4.26942 39.9625 5.01578 39.9625 5.93676C39.9625 6.85738 39.216 7.60373 38.295 7.60373C37.374 7.60373 36.6276 6.85738 36.6276 5.93676C36.6276 5.01578 37.374 4.26942 38.295 4.26942ZM44.1801 10.4351C45.1011 10.4351 45.8476 11.1816 45.8476 12.1026C45.8476 13.0231 45.1011 13.7695 44.1801 13.7695C43.2591 13.7695 42.5127 13.0231 42.5127 12.1026C42.5127 11.1816 43.2591 10.4351 44.1801 10.4351ZM49.543 0.496844C49.5361 0.355381 49.4718 0.223562 49.3638 0.130665C49.2595 0.0397665 49.124 0.00578114 48.984 0.00578114C48.984 0.00578114 1.14432 0.00531103 1.00881 0.00531103C0.873303 0.00531103 0.739176 0.0411776 0.635823 0.130665C0.530174 0.223562 0.46357 0.355381 0.456679 0.496844C0.453005 0.582215 -0.000366211 9.18805 -0.000366211 20.226C-0.000366211 31.7129 0.764439 37.8657 2.82092 42.9295C4.90771 48.0691 8.1277 50.607 14.5548 54.352C20.7078 57.9358 23.2823 58.4199 24.9994 58.4199C26.7182 58.4199 29.292 57.9358 35.4448 54.352C41.8733 50.607 45.0933 48.0691 47.1811 42.9295C49.2352 37.8657 50 31.7129 50 20.226C50 9.18805 49.5476 0.582215 49.543 0.496844" fill="#B97D1C"/>
</g>
<defs>
<clipPath id="clip0_431:4350">
<rect width="50" height="58.4196" fill="white"/>
</clipPath>
</defs>
</svg>
