<svg width="250" height="88" viewBox="0 0 250 88" fill="none" xmlns="http://www.w3.org/2000/svg">
<g clip-path="url(#clip0_428:3772)">
<path d="M111.035 14.6882H118.886L114.984 3.6332L111.035 14.6882ZM105.007 23.6665L113.303 0.730221H116.618L124.915 23.6665H121.917L119.664 17.385H110.289L107.989 23.6665H105.007" fill="white"/>
<path d="M133.464 23.9835C132.607 23.9729 131.8 23.8493 131.044 23.611C130.288 23.3725 129.62 23.0221 129.038 22.5563C128.457 22.091 127.999 21.5117 127.667 20.8195C127.333 20.1269 127.166 19.3202 127.166 18.4001V7.26525H130.101V18.0989C130.101 19.1673 130.432 20.0346 131.092 20.7006C131.752 21.3666 132.749 21.6996 134.083 21.6996C135.287 21.6996 136.258 21.385 136.993 20.7556C137.728 20.1269 138.095 19.1888 138.095 17.9404V7.26525H141.014V23.6665H138.683L138.382 20.5255C138.18 21.3505 137.839 22.017 137.358 22.5246C136.877 23.0322 136.301 23.4047 135.628 23.6431C134.958 23.8802 134.234 23.9941 133.464 23.9835" fill="white"/>
<path d="M151.102 23.9836C149.96 23.9836 148.901 23.8067 147.921 23.4525C146.944 23.0984 146.132 22.5431 145.488 21.787C144.842 21.0308 144.436 20.0662 144.266 18.8927H146.931C147.079 19.5371 147.345 20.0737 147.732 20.5017C148.117 20.9308 148.602 21.2537 149.183 21.4696C149.764 21.6864 150.399 21.7947 151.087 21.7947C152.186 21.7947 153.075 21.5889 153.751 21.1765C154.429 20.7636 154.766 20.1292 154.766 19.273C154.766 18.6703 154.59 18.1867 154.235 17.8214C153.881 17.4563 153.334 17.1894 152.594 17.0208L149.199 16.1802C147.876 15.8623 146.819 15.3654 146.027 14.6883C145.234 14.0126 144.837 13.0659 144.837 11.849C144.827 10.8872 145.054 10.0411 145.52 9.31117C145.984 8.58175 146.682 8.00531 147.613 7.58221C148.542 7.15959 149.703 6.94793 151.087 6.94793C152.863 6.94793 154.299 7.3475 155.393 8.14536C156.488 8.94416 157.056 10.1155 157.098 11.6589H154.512C154.407 10.8771 154.055 10.2552 153.457 9.79529C152.861 9.33504 152.06 9.10491 151.055 9.10491C150.007 9.10491 149.157 9.31399 148.502 9.73191C147.846 10.15 147.518 10.7972 147.518 11.675C147.518 12.256 147.749 12.7136 148.215 13.0466C148.681 13.3806 149.367 13.6575 150.279 13.8798L153.561 14.7048C154.323 14.9055 154.95 15.1701 155.441 15.4972C155.933 15.8256 156.324 16.1903 156.615 16.5918C156.906 16.9942 157.111 17.4144 157.233 17.8532C157.353 18.2923 157.415 18.7122 157.415 19.1141C157.415 20.119 157.164 20.9836 156.662 21.7075C156.161 22.4323 155.441 22.9923 154.505 23.3896C153.569 23.7856 152.435 23.9836 151.102 23.9836Z" fill="white"/>
<path d="M169.17 9.40632H165.473V19.606C165.473 20.188 165.535 20.6134 165.655 20.8826C165.779 21.1526 165.984 21.3249 166.274 21.3984C166.565 21.4728 166.964 21.5096 167.472 21.5096H169.264V23.476C169.063 23.5509 168.759 23.6138 168.353 23.6666C167.946 23.7191 167.441 23.7461 166.838 23.7461C165.706 23.7461 164.828 23.5926 164.204 23.2863C163.58 22.9795 163.143 22.5247 162.896 21.922C162.647 21.319 162.522 20.579 162.522 19.7012V9.40632H159.858V7.26531H162.602L163.316 2.49083H165.473V7.2492H169.17V9.40632" fill="white"/>
<path d="M173.072 23.6665V7.26524H175.863V10.4214C176.138 9.63955 176.523 8.99137 177.02 8.47832C177.519 7.96574 178.086 7.58215 178.725 7.32863C179.366 7.07463 180.03 6.94787 180.716 6.94787C180.961 6.94787 181.198 6.96386 181.43 6.99561C181.662 7.02677 181.843 7.08051 181.97 7.154V9.99326C181.811 9.91976 181.608 9.8692 181.359 9.84263C181.11 9.81641 180.901 9.80312 180.733 9.80312C180.078 9.76078 179.464 9.80076 178.892 9.92212C178.322 10.0438 177.82 10.2528 177.386 10.5486C176.951 10.8449 176.61 11.2335 176.363 11.714C176.115 12.1958 175.989 12.7801 175.989 13.4668V23.6665H173.072" fill="white"/>
<path d="M190.059 21.8742C190.609 21.8742 191.157 21.7741 191.699 21.5729C192.245 21.3722 192.745 21.0998 193.2 20.7557C193.655 20.413 194.017 20.0263 194.287 19.5982C194.555 19.1696 194.695 18.7286 194.707 18.2734V15.4664L192.264 15.5132C191.016 15.5353 189.973 15.6621 189.131 15.8941C188.291 16.1264 187.661 16.4917 187.242 16.9891C186.825 17.4857 186.617 18.1361 186.617 18.9395C186.617 19.86 186.937 20.5789 187.578 21.0966C188.216 21.6152 189.044 21.8742 190.059 21.8742V21.8742ZM189.171 23.9836C188.114 23.9836 187.177 23.7961 186.363 23.4204C185.549 23.0456 184.912 22.5036 184.451 21.7947C183.992 21.0865 183.762 20.2303 183.762 19.2257C183.762 17.4067 184.397 16.0529 185.666 15.165C186.934 14.2767 188.97 13.7999 191.772 13.737L194.707 13.6575V12.3731C194.707 11.3677 194.405 10.5721 193.804 9.98603C193.2 9.39889 192.264 9.10491 190.995 9.10491C190.053 9.11596 189.226 9.33739 188.512 9.77142C187.799 10.2051 187.337 10.9138 187.125 11.8969H184.539C184.602 10.8293 184.904 9.92759 185.443 9.19264C185.983 8.45733 186.736 7.8996 187.703 7.51931C188.671 7.13854 189.817 6.94793 191.137 6.94793C192.566 6.94793 193.752 7.14948 194.698 7.55058C195.644 7.95251 196.353 8.54506 196.825 9.32728C197.294 10.11 197.529 11.0723 197.529 12.2143V23.6666H195.025L194.819 20.5889C194.184 21.8692 193.376 22.7547 192.399 23.2458C191.419 23.7378 190.344 23.9836 189.171 23.9836" fill="white"/>
<path d="M206.111 23.8727C205.223 23.8727 204.507 23.751 203.962 23.5076C203.417 23.2646 203 22.9371 202.709 22.5246C202.419 22.1117 202.224 21.6385 202.123 21.1052C202.023 20.5705 201.972 20.018 201.972 19.447V0.0952803H204.859V19.1618C204.859 19.9867 205.02 20.605 205.342 21.0175C205.664 21.4305 206.116 21.6578 206.698 21.6996L207.586 21.7158V23.6192C207.344 23.6927 207.09 23.7534 206.825 23.8016C206.562 23.8493 206.323 23.8727 206.111 23.8727" fill="white"/>
<path d="M214.106 7.2652V23.6664H211.268V7.2652H214.106ZM214.171 0.745207V3.79072H211.172V0.745207H214.171Z" fill="white"/>
<path d="M224.37 21.8742C224.919 21.8742 225.466 21.7741 226.01 21.5729C226.556 21.3722 227.054 21.0998 227.511 20.7557C227.964 20.413 228.327 20.0263 228.596 19.5982C228.866 19.1696 229.006 18.7286 229.017 18.2734V15.4664L226.573 15.5132C225.326 15.5353 224.282 15.6621 223.442 15.8941C222.601 16.1264 221.972 16.4917 221.553 16.9891C221.136 17.4857 220.928 18.1361 220.928 18.9395C220.928 19.86 221.245 20.5789 221.886 21.0966C222.526 21.6152 223.354 21.8742 224.37 21.8742V21.8742ZM223.481 23.9836C222.422 23.9836 221.488 23.7961 220.674 23.4204C219.859 23.0456 219.223 22.5036 218.762 21.7947C218.303 21.0865 218.072 20.2303 218.072 19.2257C218.072 17.4067 218.705 16.0529 219.974 15.165C221.244 14.2767 223.281 13.7999 226.082 13.737L229.017 13.6575V12.3731C229.017 11.3677 228.715 10.5721 228.113 9.98603C227.511 9.39889 226.573 9.10491 225.305 9.10491C224.364 9.11596 223.537 9.33739 222.822 9.77142C222.11 10.2051 221.646 10.9138 221.436 11.8969H218.848C218.912 10.8293 219.213 9.92759 219.754 9.19264C220.293 8.45733 221.047 7.8996 222.014 7.51931C222.982 7.13854 224.126 6.94793 225.448 6.94793C226.876 6.94793 228.062 7.14948 229.009 7.55058C229.955 7.95251 230.663 8.54506 231.135 9.32728C231.604 10.11 231.84 11.0723 231.84 12.2143V23.6666H229.333L229.129 20.5889C228.495 21.8692 227.687 22.7547 226.709 23.2458C225.73 23.7378 224.654 23.9836 223.481 23.9836" fill="white"/>
<path d="M236.154 23.6664V7.26522H238.993V9.64457C239.257 9.18985 239.624 8.76169 240.096 8.35976C240.566 7.95831 241.137 7.6354 241.809 7.39199C242.48 7.14939 243.255 7.02674 244.132 7.02674C245.169 7.02674 246.123 7.23347 246.995 7.64598C247.868 8.05802 248.566 8.70067 249.09 9.57343C249.613 10.4453 249.874 11.5692 249.874 12.9441V23.6664H246.939V13.2294C246.939 11.9501 246.604 11.001 245.934 10.3819C245.261 9.76358 244.391 9.45395 243.324 9.45395C242.582 9.45395 241.89 9.57343 241.244 9.81037C240.6 10.0489 240.076 10.4084 239.674 10.8894C239.273 11.3713 239.072 11.9757 239.072 12.7056V23.6664H236.154" fill="white"/>
<path d="M120.377 30.2237H123.313V53.161H120.695L108.386 35.078V53.161H105.451V30.2237H108.259L120.377 48.054V30.2237Z" fill="white"/>
<path d="M133.766 51.369C134.314 51.369 134.864 51.2685 135.407 51.0673C135.951 50.8661 136.451 50.5946 136.906 50.2511C137.36 49.9065 137.723 49.5216 137.994 49.0921C138.262 48.664 138.402 48.223 138.415 47.7678V44.9603L135.97 45.0072C134.723 45.0292 133.679 45.156 132.838 45.388C131.997 45.6204 131.369 45.9856 130.95 46.4836C130.532 46.9805 130.325 47.6314 130.325 48.4343C130.325 49.3545 130.643 50.0738 131.284 50.5919C131.923 51.11 132.75 51.369 133.766 51.369V51.369ZM132.876 53.4793C131.82 53.4793 130.882 53.2905 130.071 52.9162C129.256 52.5399 128.618 51.9984 128.159 51.2892C127.698 50.5813 127.468 49.7242 127.468 48.72C127.468 46.901 128.102 45.5469 129.372 44.6585C130.641 43.7706 132.676 43.2942 135.477 43.2309L138.415 43.1515V41.8671C138.415 40.8621 138.112 40.0665 137.509 39.4794C136.906 38.8929 135.97 38.5994 134.701 38.5994C133.759 38.6103 132.932 38.8317 132.219 39.2654C131.506 39.699 131.042 40.4074 130.831 41.3912H128.246C128.309 40.3233 128.61 39.4216 129.15 38.6866C129.688 37.9512 130.442 37.3936 131.409 37.0127C132.379 36.6324 133.522 36.4423 134.844 36.4423C136.272 36.4423 137.46 36.643 138.404 37.0449C139.352 37.4469 140.06 38.0389 140.532 38.8216C141.001 39.6044 141.237 40.5658 141.237 41.7082V53.161H138.731L138.525 50.0843C137.889 51.364 137.083 52.2487 136.105 52.7406C135.127 53.2322 134.051 53.4793 132.876 53.4793" fill="white"/>
<path d="M153.181 38.9006H149.484V49.1003C149.484 49.6824 149.546 50.1073 149.666 50.3783C149.788 50.6475 149.995 50.8193 150.286 50.8933C150.577 50.9668 150.976 51.0039 151.483 51.0039H153.276V52.9704C153.075 53.0452 152.77 53.1081 152.364 53.161C151.957 53.2148 151.451 53.2409 150.848 53.2409C149.717 53.2409 148.839 53.0875 148.215 52.7806C147.592 52.4738 147.156 52.0191 146.907 51.4164C146.658 50.8133 146.535 50.0738 146.535 49.1959V38.9006H143.87V36.7592H146.615L147.327 31.9848H149.484V36.7435H153.181V38.9006" fill="white"/>
<path d="M160.254 36.7592V53.161H157.416V36.7592H160.254ZM160.319 30.2398V33.2852H157.32V30.2398H160.319Z" fill="white"/>
<path d="M171.612 51.1624C172.594 51.1624 173.424 50.9143 174.102 50.4164C174.779 49.9198 175.292 49.207 175.64 48.2754C175.989 47.3457 176.165 46.2396 176.165 44.9603C176.165 43.7858 176.011 42.7311 175.704 41.7959C175.398 40.8597 174.907 40.117 174.237 39.5662C173.565 39.0173 172.689 38.7418 171.612 38.7418C170.617 38.7418 169.777 38.9874 169.09 39.4794C168.402 39.9719 167.882 40.6824 167.527 41.6131C167.173 42.5442 166.996 43.659 166.996 44.9603C166.996 46.1123 167.153 47.1597 167.472 48.1013C167.789 49.0425 168.286 49.7885 168.964 50.3379C169.64 50.8882 170.522 51.1624 171.612 51.1624V51.1624ZM171.612 53.4793C170.099 53.4793 168.777 53.1531 167.646 52.5027C166.515 51.8528 165.637 50.8987 165.013 49.6396C164.389 48.3815 164.077 46.8427 164.077 45.0237C164.077 43.3103 164.367 41.8093 164.949 40.5185C165.532 39.2286 166.385 38.2264 167.512 37.5125C168.638 36.7996 170.004 36.4423 171.612 36.4423C173.124 36.4423 174.438 36.7725 175.553 37.4339C176.669 38.0946 177.534 39.0647 178.147 40.3443C178.761 41.6236 179.066 43.1836 179.066 45.0237C179.066 46.6948 178.783 48.1651 178.219 49.4343C177.652 50.703 176.817 51.6943 175.711 52.4085C174.606 53.1215 173.24 53.4793 171.612 53.4793" fill="white"/>
<path d="M182.604 53.161V36.7592H185.443V39.1387C185.708 38.6838 186.075 38.2563 186.546 37.8534C187.016 37.4524 187.587 37.1295 188.259 36.886C188.93 36.643 189.705 36.5208 190.582 36.5208C191.619 36.5208 192.573 36.7276 193.446 37.14C194.318 37.5525 195.017 38.1951 195.54 39.0674C196.063 39.9397 196.324 41.0633 196.324 42.4376V53.161H193.39V42.7233C193.39 41.444 193.054 40.4946 192.384 39.8758C191.711 39.258 190.841 38.9484 189.774 38.9484C189.033 38.9484 188.341 39.0674 187.695 39.3049C187.051 39.5428 186.526 39.903 186.125 40.3835C185.722 40.8653 185.523 41.4703 185.523 42.2002V53.161H182.604" fill="white"/>
<path d="M205.969 51.369C206.519 51.369 207.067 51.2685 207.611 51.0673C208.156 50.8661 208.654 50.5946 209.11 50.2511C209.565 49.9065 209.927 49.5216 210.196 49.0921C210.466 48.664 210.607 48.223 210.617 47.7678V44.9603L208.174 45.0072C206.927 45.0292 205.882 45.156 205.041 45.388C204.2 45.6204 203.571 45.9856 203.154 46.4836C202.735 46.9805 202.527 47.6314 202.527 48.4343C202.527 49.3545 202.847 50.0738 203.487 50.5919C204.126 51.11 204.954 51.369 205.969 51.369V51.369ZM205.081 53.4793C204.024 53.4793 203.087 53.2905 202.274 52.9162C201.459 52.5399 200.822 51.9984 200.362 51.2892C199.902 50.5813 199.672 49.7242 199.672 48.72C199.672 46.901 200.307 45.5469 201.576 44.6585C202.845 43.7706 204.88 43.2942 207.681 43.2309L210.617 43.1515V41.8671C210.617 40.8621 210.315 40.0665 209.713 39.4794C209.11 38.8929 208.174 38.5994 206.905 38.5994C205.963 38.6103 205.136 38.8317 204.423 39.2654C203.709 39.699 203.247 40.4074 203.035 41.3912H200.449C200.514 40.3233 200.814 39.4216 201.354 38.6866C201.892 37.9512 202.646 37.3936 203.614 37.0127C204.583 36.6324 205.727 36.4423 207.047 36.4423C208.476 36.4423 209.663 36.643 210.609 37.0449C211.555 37.4469 212.264 38.0389 212.734 38.8216C213.206 39.6044 213.441 40.5658 213.441 41.7082V53.161H210.934L210.728 50.0843C210.094 51.364 209.287 52.2487 208.309 52.7406C207.33 53.2322 206.254 53.4793 205.081 53.4793" fill="white"/>
<path d="M222.023 53.3676C221.135 53.3676 220.416 53.2459 219.872 53.0034C219.328 52.76 218.91 52.4316 218.618 52.019C218.329 51.607 218.132 51.133 218.032 50.5992C217.932 50.0663 217.882 49.5128 217.882 48.9419V29.5893H220.769V48.6561C220.769 49.4812 220.93 50.1003 221.252 50.5123C221.576 50.9239 222.027 51.1527 222.608 51.194L223.497 51.2106V53.1141C223.253 53.188 223 53.2482 222.735 53.2964C222.472 53.3437 222.233 53.3676 222.023 53.3676" fill="white"/>
<path d="M122.218 74.723C122.218 76.4897 121.927 77.9858 121.345 79.2122C120.763 80.4386 119.857 81.3716 118.625 82.0114C117.393 82.6518 115.794 82.9719 113.827 82.9719C111.839 82.9719 110.229 82.6435 108.997 81.9885C107.765 81.3321 106.866 80.3697 106.3 79.101C105.734 77.8319 105.451 76.2719 105.451 74.4216V59.7176H108.497V74.8664C108.497 76.717 108.957 78.102 109.877 79.0216C110.797 79.9421 112.114 80.4014 113.827 80.4014C114.979 80.4014 115.961 80.2012 116.769 79.7983C117.578 79.3969 118.197 78.7868 118.625 77.9674C119.054 77.1479 119.268 76.1134 119.268 74.8664V59.7176H122.218V74.723Z" fill="white"/>
<path d="M126.5 82.6545V66.2532H129.339V68.6316C129.604 68.1769 129.971 67.7492 130.442 67.3468C130.911 66.9454 131.484 66.6234 132.154 66.38C132.826 66.1361 133.602 66.0152 134.479 66.0152C135.516 66.0152 136.469 66.221 137.34 66.6335C138.214 67.046 138.912 67.6877 139.437 68.56C139.959 69.4328 140.22 70.5572 140.22 71.9311V82.6545H137.286V72.2177C137.286 70.9376 136.95 69.9885 136.279 69.3702C135.608 68.7511 134.738 68.4419 133.669 68.4419C132.929 68.4419 132.237 68.56 131.591 68.7984C130.948 69.0367 130.423 69.3964 130.022 69.8779C129.62 70.3583 129.419 70.9642 129.419 71.6941V82.6545H126.5Z" fill="white"/>
<path d="M147.565 66.2532V82.6545H144.726V66.2532H147.565ZM147.629 59.7332V62.7787H144.631V59.7332H147.629Z" fill="white"/>
<path d="M165.219 66.2532L159.304 82.6545H156.638L150.706 66.2532H153.467L157.828 78.9738H158.097L162.475 66.2532H165.219" fill="white"/>
<path d="M169.565 73.1529H178.478C178.478 72.2114 178.321 71.3625 178.003 70.6064C177.686 69.8507 177.203 69.2531 176.552 68.814C175.901 68.3753 175.085 68.1562 174.102 68.1562C173.076 68.1562 172.227 68.4025 171.556 68.8935C170.883 69.3859 170.382 70.0143 170.048 70.7813C169.714 71.548 169.553 72.3381 169.565 73.1529V73.1529ZM169.55 75.136C169.55 76.1713 169.721 77.1107 170.064 77.9508C170.407 78.7919 170.931 79.4616 171.636 79.9582C172.338 80.4547 173.219 80.7032 174.276 80.7032C175.322 80.7032 176.223 80.4593 176.98 79.9738C177.735 79.4869 178.221 78.7832 178.431 77.8636H181.209C181.007 78.9738 180.563 79.9099 179.875 80.6711C179.188 81.4327 178.357 82.0064 177.386 82.3922C176.412 82.7785 175.396 82.9719 174.339 82.9719C172.806 82.9719 171.458 82.6384 170.294 81.9724C169.131 81.3059 168.222 80.3495 167.566 79.101C166.91 77.8535 166.582 76.3565 166.582 74.6124C166.582 72.8884 166.878 71.3762 167.471 70.0758C168.063 68.774 168.922 67.7589 170.048 67.0304C171.175 66.3005 172.531 65.9353 174.117 65.9353C175.661 65.9353 176.967 66.2692 178.035 66.9353C179.103 67.6005 179.914 68.5398 180.47 69.7511C181.025 70.962 181.303 72.3974 181.303 74.0565V75.136H169.55" fill="white"/>
<path d="M184.999 82.6545V66.2533H187.79V69.4089C188.067 68.6266 188.452 67.9789 188.949 67.4668C189.446 66.9528 190.014 66.5702 190.654 66.3162C191.295 66.0626 191.958 65.9353 192.643 65.9353C192.888 65.9353 193.126 65.9509 193.358 65.9827C193.59 66.0152 193.77 66.068 193.898 66.142V68.9808C193.739 68.9073 193.536 68.8563 193.287 68.8302C193.037 68.8049 192.828 68.7916 192.661 68.7916C192.005 68.7488 191.392 68.7888 190.82 68.9095C190.25 69.0314 189.747 69.2403 189.313 69.5357C188.879 69.8329 188.538 70.2206 188.291 70.702C188.042 71.1828 187.917 71.7681 187.917 72.4553V82.6545H184.999" fill="white"/>
<path d="M202.685 82.9719C201.543 82.9719 200.482 82.7946 199.504 82.4405C198.525 82.0858 197.714 81.53 197.07 80.7753C196.424 80.0183 196.017 79.0537 195.848 77.8796H198.512C198.661 78.5246 198.928 79.0611 199.314 79.4901C199.699 79.9177 200.183 80.2407 200.764 80.457C201.348 80.6747 201.981 80.7822 202.669 80.7822C203.769 80.7822 204.657 80.5764 205.334 80.1635C206.01 79.7515 206.349 79.1171 206.349 78.2604C206.349 77.6578 206.171 77.1732 205.816 76.8089C205.463 76.4437 204.915 76.1778 204.176 76.0083L200.781 75.1672C199.459 74.8498 198.402 74.3528 197.609 73.6762C196.816 72.9991 196.419 72.0529 196.419 70.8374C196.409 69.8751 196.636 69.028 197.101 68.2996C197.567 67.5697 198.264 66.9932 199.196 66.5701C200.126 66.1466 201.284 65.9353 202.669 65.9353C204.445 65.9353 205.881 66.334 206.976 67.1333C208.069 67.9321 208.638 69.1034 208.681 70.6459H206.096C205.989 69.8646 205.637 69.2435 205.04 68.7827C204.443 68.3225 203.642 68.0928 202.638 68.0928C201.59 68.0928 200.738 68.3018 200.083 68.7198C199.427 69.1365 199.099 69.7846 199.099 70.662C199.099 71.2444 199.332 71.7015 199.797 72.035C200.263 72.3675 200.95 72.6454 201.86 72.8678L205.142 73.6914C205.906 73.8934 206.531 74.1571 207.024 74.4855C207.515 74.8135 207.906 75.1782 208.197 75.5792C208.488 75.9821 208.694 76.4024 208.815 76.8415C208.937 77.2802 208.997 77.7005 208.997 78.102C208.997 79.1061 208.747 79.9715 208.244 80.6954C207.742 81.4189 207.024 81.9797 206.087 82.3762C205.152 82.7726 204.017 82.9719 202.685 82.9719" fill="white"/>
<path d="M215.947 66.2532V82.6545H213.108V66.2532H215.947ZM216.009 59.7332V62.7787H213.011V59.7332H216.009Z" fill="white"/>
<path d="M229.016 68.3937H225.319V78.5934C225.319 79.175 225.381 79.6003 225.502 79.8709C225.623 80.1405 225.83 80.3119 226.121 80.3858C226.411 80.4593 226.811 80.4965 227.319 80.4965H229.11V82.4634C228.91 82.5378 228.604 82.6012 228.2 82.6545C227.792 82.7073 227.286 82.7335 226.683 82.7335C225.553 82.7335 224.674 82.5806 224.05 82.2737C223.427 81.9664 222.99 81.5126 222.742 80.909C222.493 80.3059 222.369 79.5663 222.369 78.689V68.3937H219.705V66.2532H222.449L223.161 61.4783H225.319V66.2362H229.016V68.3937" fill="white"/>
<path d="M234.646 87.8882C233.685 87.8882 232.843 87.7504 232.124 87.4762V85.5732L233.789 85.6039C234.404 85.626 234.912 85.5837 235.312 85.4772C235.715 85.372 236.037 85.2296 236.281 85.0495C236.524 84.8694 236.711 84.6687 236.844 84.4464C236.974 84.2241 237.084 84.0123 237.168 83.812L237.739 82.2576L231.332 66.2532H234.297L239.135 78.9104L243.941 66.2532H246.813L239.897 83.892C239.473 84.9278 239.001 85.7371 238.477 86.3182C237.954 86.8997 237.372 87.3072 236.732 87.5401C236.091 87.772 235.397 87.8882 234.646 87.8882Z" fill="white"/>
<path d="M1.55673 0.867004C1.3661 0.867004 1.17776 0.917451 1.03124 1.04339C0.882411 1.17333 0.790083 1.35842 0.779977 1.55786C0.774006 1.67862 0.137817 13.7791 0.137817 29.3012C0.137817 45.4545 1.21314 54.1062 4.1047 61.2269C7.03806 68.4537 11.5663 72.0229 20.6043 77.2893C29.2574 82.3283 32.8779 83.009 35.2927 83.009C37.7088 83.009 41.3279 82.3283 49.9792 77.2893C59.0195 72.0229 63.5477 68.4537 66.4829 61.2269C69.3721 54.1062 70.447 45.4545 70.447 29.3012C70.447 13.7791 69.8113 1.67862 69.8058 1.55786C69.7952 1.35842 69.7052 1.17333 69.5531 1.04339C69.4066 0.914746 69.215 0.867004 69.0185 0.867004C69.0185 0.867004 1.74644 0.867004 1.55673 0.867004V0.867004ZM68.2634 2.45579C68.4085 5.54857 68.8627 16.2306 68.8627 29.3012C68.8627 45.2266 67.8196 53.7181 65.0154 60.6307C63.658 63.9724 61.9382 66.5025 59.4394 68.8351C57.1932 70.932 54.2213 72.9848 49.1818 75.9205C45.327 78.1661 42.2499 79.6778 39.7744 80.5433C37.5402 81.3241 36.2054 81.4243 35.2927 81.4243C34.3795 81.4243 33.0456 81.3241 30.8104 80.5433C28.335 79.6778 25.2574 78.1652 21.4022 75.9205C16.3636 72.9839 13.3922 70.9315 11.1464 68.8351C8.64806 66.5025 6.9292 63.9724 5.57321 60.6307C2.76571 53.7185 1.72254 45.2271 1.72254 29.3012C1.72254 16.2379 2.17546 5.56833 2.32199 2.46461L68.2634 2.45579Z" fill="#B97D1C"/>
<path d="M55.6132 20.4153L54.8542 18.2909L54.1019 20.3794L51.8575 20.4685L53.6402 21.8471L53.0035 23.9903L54.8469 22.7194L56.7059 23.9903L56.0679 21.8236L57.8497 20.4685L55.6132 20.4153" fill="#B97D1C"/>
<path d="M52.9879 32.4602L54.6912 34.0338L54.5221 31.721L56.8156 31.3711L54.9021 30.06L56.0573 28.0496L53.8396 28.7284L52.9879 26.5713L52.1358 28.7284L49.9186 28.0496L51.0743 30.06L49.1608 31.3711L51.4533 31.721L51.2842 34.0338L52.9879 32.4602" fill="#B97D1C"/>
<path d="M62.2386 19.7354L63.9424 21.309L63.7733 18.9963L66.0658 18.6458L64.1523 17.3354L65.3084 15.3243L63.0906 16.0036L62.2386 13.8466L61.387 16.0036L59.1698 15.3243L60.325 17.3354L58.4113 18.6458L60.704 18.9963L60.5358 21.309L62.2386 19.7354Z" fill="#B97D1C"/>
<path d="M53.9623 11.0593L55.6655 12.633L55.4974 10.3202L57.7899 9.97028L55.8764 8.65924L57.0316 6.64877L54.8139 7.32763L53.9623 5.17052L53.1101 7.32763L50.8929 6.64877L52.0486 8.65924L50.1351 9.97028L52.4276 10.3202L52.259 12.633L53.9623 11.0593" fill="#B97D1C"/>
<path d="M44.1874 18.5783L45.8911 20.1525L45.7224 17.8392L48.015 17.4892L46.1014 16.1787L47.2571 14.1672L45.0399 14.8465L44.1874 12.6895L43.3361 14.8465L41.1185 14.1672L42.2737 16.1787L40.3601 17.4892L42.6536 17.8392L42.4845 20.1525L44.1874 18.5783" fill="#B97D1C"/>
<path d="M53.0729 37.9627C43.6927 33.4776 37.3895 30.2962 35.1163 30.2962C32.8452 30.2962 26.9051 33.4776 17.5248 37.9627C8.14595 42.4491 4.94342 43.4105 4.94342 45.3718C4.94342 47.3342 7.2461 46.4007 7.94568 46.1904C8.64617 45.9814 32.5806 38.2365 35.1163 38.2365C37.6518 38.2365 61.951 45.9814 62.652 46.1904C63.353 46.4007 65.6547 47.3342 65.6547 45.3718C65.6547 43.4105 62.4517 42.4491 53.0729 37.9627" fill="#B97D1C"/>
<path d="M58.4648 52.6244C54.3973 53.99 51.1676 56.9652 46.662 56.1177C42.7121 55.3745 39.4342 51.963 35.2863 52.0158C30.7457 52.0733 27.3181 55.9832 22.8634 56.3553C18.4836 56.7204 15.0771 53.1834 10.9944 52.3465C9.14834 51.968 7.52962 52.223 5.98853 52.7516C6.30133 54.2712 6.66376 55.6704 7.08176 56.9873C8.29764 56.6951 9.5792 56.612 10.9944 56.9018C15.0771 57.7392 18.4836 61.2766 22.8634 60.911C27.3181 60.5389 30.7457 56.6285 35.2863 56.5712C39.4342 56.5182 42.7121 59.9303 46.662 60.673C51.1676 61.5206 54.3973 58.5459 58.4648 57.1802C60.2824 56.5702 61.9066 56.6221 63.4514 57.0071C63.8689 55.6919 64.2318 54.295 64.5441 52.7793C62.6704 52.1306 60.7159 51.8688 58.4648 52.6244" fill="#B97D1C"/>
<path d="M58.4647 61.7361C54.3972 63.1012 51.1676 66.0764 46.6619 65.2289C42.712 64.4856 39.4342 61.0742 35.2862 61.127C30.7457 61.1843 27.3181 65.0943 22.8634 65.4664C18.4836 65.8321 15.0771 62.2947 10.9944 61.4576C10.2204 61.2992 9.48732 61.2518 8.78223 61.2891C9.70551 63.1448 10.8548 64.7521 12.2664 66.2004C12.3108 66.2463 12.3549 66.2799 12.412 66.3075C12.8722 66.5297 15.2419 67.6786 16.4262 68.2734C18.4422 69.2863 20.5468 70.2156 22.8634 70.0221C27.3181 69.6501 30.7457 65.7396 35.2862 65.6823C39.4342 65.6299 42.712 69.0415 46.6619 69.7842C49.4189 70.3028 51.7418 69.3699 54.0279 68.2702C55.2158 67.6988 57.7546 66.4384 58.23 66.2027C58.2865 66.1743 58.3296 66.1407 58.3737 66.0948C59.7146 64.6897 60.8657 63.0796 61.7559 61.2923C60.7182 61.2248 59.6313 61.3443 58.4647 61.7361" fill="#B97D1C"/>
<path d="M24.0998 74.3835C25.9124 75.4047 27.5215 76.2361 28.9523 76.8925C30.9634 75.8447 32.9813 74.8227 35.2862 74.7933C37.5889 74.7639 39.6243 75.8033 41.655 76.8598C43.0983 76.1947 44.7234 75.3509 46.5535 74.3169C42.6523 73.5323 39.3959 70.186 35.2862 70.2379C31.1741 70.2899 27.9757 73.5015 24.0998 74.3835" fill="#B97D1C"/>
<path d="M49.9604 46.9942C45.1543 45.5267 41.8682 44.568 39.6224 43.9419C37.4847 43.3467 36.486 43.1206 35.826 42.953C35.6294 42.9029 35.2987 42.8409 35.1879 42.8207C35.0405 42.8478 34.8384 42.8891 34.5614 42.952C34.0074 43.0793 33.1536 43.2939 31.8421 43.6558C29.6161 44.2689 26.0695 45.3057 20.4246 47.0549C18.6135 47.6162 16.585 48.2515 14.3159 48.9689C17.0876 50.2891 19.7453 52.0641 22.9116 51.7998C27.3668 51.4278 30.7939 47.5174 35.3344 47.46C39.4824 47.4072 42.7602 50.8192 46.7101 51.5615C50.3803 52.2523 53.2038 50.4063 56.3237 48.9598C53.9512 48.2198 51.8396 47.568 49.9604 46.9942" fill="#B97D1C"/>
</g>
<defs>
<clipPath id="clip0_428:3772">
<rect width="250" height="87.8882" fill="white"/>
</clipPath>
</defs>
</svg>
