<svg width="250" height="88" viewBox="0 0 250 88" fill="none" xmlns="http://www.w3.org/2000/svg">
<g clip-path="url(#clip0_428:3773)">
<path d="M111.035 14.6887H118.887L114.985 3.63314L111.035 14.6887ZM105.008 23.6664L113.303 0.730161H116.619L124.915 23.6664H121.917L119.664 17.3849H110.289L107.989 23.6664H105.008" fill="white"/>
<path d="M133.464 23.9834C132.607 23.9729 131.8 23.8488 131.044 23.6114C130.288 23.3724 129.62 23.022 129.038 22.5558C128.457 22.0909 127.999 21.5121 127.667 20.8194C127.333 20.1273 127.166 19.3198 127.166 18.4001V7.26566H130.101V18.0993C130.101 19.1672 130.432 20.034 131.093 20.7001C131.752 21.3661 132.749 21.6991 134.083 21.6991C135.287 21.6991 136.258 21.3844 136.993 20.7552C137.728 20.1273 138.095 19.1888 138.095 17.9408V7.26566H141.014V23.6664H138.683L138.382 20.5254C138.18 21.35 137.839 22.0174 137.358 22.525C136.877 23.0326 136.301 23.4047 135.628 23.6435C134.958 23.8801 134.235 23.9936 133.464 23.9834Z" fill="white"/>
<path d="M151.102 23.9835C149.96 23.9835 148.901 23.8067 147.921 23.453C146.944 23.0978 146.133 22.5435 145.488 21.7864C144.843 21.0308 144.436 20.0662 144.266 18.8926H146.931C147.079 19.537 147.345 20.0731 147.732 20.5016C148.117 20.9312 148.602 21.2536 149.183 21.4695C149.764 21.6867 150.399 21.7947 151.087 21.7947C152.186 21.7947 153.075 21.5889 153.751 21.1768C154.429 20.7635 154.766 20.1296 154.766 19.2729C154.766 18.6698 154.59 18.1866 154.235 17.8214C153.881 17.4562 153.334 17.1898 152.594 17.0208L149.199 16.1801C147.876 15.8623 146.819 15.3649 146.027 14.6887C145.234 14.0121 144.837 13.0658 144.837 11.8485C144.827 10.8876 145.054 10.041 145.52 9.31065C145.984 8.5817 146.682 8.00526 147.613 7.58263C148.542 7.15872 149.703 6.94741 151.087 6.94741C152.863 6.94741 154.299 7.34698 155.393 8.14532C156.488 8.94459 157.056 10.1159 157.098 11.6593H154.512C154.407 10.8771 154.055 10.2547 153.457 9.79525C152.861 9.33499 152.06 9.10534 151.055 9.10534C150.007 9.10534 149.157 9.31441 148.502 9.73233C147.846 10.1504 147.518 10.7967 147.518 11.6754C147.518 12.2564 147.749 12.7135 148.215 13.0465C148.681 13.3805 149.367 13.6574 150.279 13.8803L153.561 14.7047C154.323 14.9054 154.95 15.1697 155.441 15.4972C155.933 15.8256 156.324 16.1907 156.615 16.5912C156.906 16.9946 157.111 17.4148 157.233 17.8536C157.353 18.2922 157.415 18.7125 157.415 19.1144C157.415 20.119 157.164 20.984 156.662 21.7074C156.161 22.4318 155.441 22.9922 154.505 23.3896C153.569 23.786 152.435 23.9835 151.102 23.9835" fill="white"/>
<path d="M169.17 9.40625H165.473V19.606C165.473 20.1879 165.535 20.6129 165.655 20.8829C165.778 21.1525 165.984 21.3248 166.273 21.3983C166.565 21.4732 166.964 21.51 167.472 21.51H169.264V23.4759C169.063 23.5503 168.759 23.6137 168.352 23.6665C167.946 23.7194 167.441 23.7455 166.838 23.7455C165.706 23.7455 164.828 23.593 164.204 23.2862C163.58 22.9799 163.143 22.5251 162.896 21.9211C162.647 21.3193 162.522 20.5784 162.522 19.7011V9.40625H159.858V7.26572H162.602L163.316 2.49078H165.473V7.24961H169.17V9.40625" fill="white"/>
<path d="M173.072 23.6665V7.26574H175.863V10.4214C176.138 9.63909 176.523 8.99139 177.02 8.47834C177.519 7.96623 178.086 7.58264 178.725 7.32865C179.366 7.07512 180.029 6.94741 180.716 6.94741C180.961 6.94741 181.198 6.96341 181.43 6.99563C181.662 7.02679 181.843 7.08053 181.97 7.15402V9.99281C181.811 9.91931 181.608 9.86875 181.359 9.84264C181.11 9.81595 180.901 9.8036 180.733 9.8036C180.078 9.7608 179.464 9.80125 178.892 9.92167C178.322 10.0434 177.82 10.2523 177.386 10.5487C176.951 10.8449 176.61 11.233 176.363 11.7145C176.115 12.1954 175.989 12.7801 175.989 13.4668V23.6665H173.072" fill="white"/>
<path d="M190.059 21.8737C190.609 21.8737 191.157 21.7741 191.699 21.5729C192.245 21.3722 192.745 21.0997 193.2 20.7553C193.655 20.413 194.017 20.0262 194.288 19.5977C194.556 19.1695 194.696 18.7286 194.707 18.2739V15.4659L192.264 15.5131C191.016 15.5348 189.973 15.6625 189.131 15.8945C188.291 16.1264 187.661 16.4916 187.243 16.9886C186.825 17.4861 186.617 18.136 186.617 18.9399C186.617 19.8595 186.937 20.5784 187.578 21.0965C188.216 21.6156 189.044 21.8737 190.059 21.8737V21.8737ZM189.171 23.9835C188.114 23.9835 187.177 23.7961 186.363 23.4208C185.549 23.045 184.912 22.503 184.451 21.7947C183.992 21.0859 183.762 20.2307 183.762 19.2256C183.762 17.4066 184.397 16.0529 185.666 15.165C186.934 14.2762 188.97 13.7998 191.772 13.7365L194.707 13.6574V12.3736C194.707 11.3677 194.405 10.5716 193.804 9.98598C193.2 9.39932 192.264 9.10534 190.995 9.10534C190.053 9.11545 189.226 9.33734 188.513 9.77138C187.799 10.2055 187.337 10.9138 187.125 11.8968H184.539C184.603 10.8288 184.904 9.92754 185.443 9.19259C185.983 8.45764 186.736 7.89955 187.704 7.51926C188.671 7.13803 189.817 6.94741 191.137 6.94741C192.566 6.94741 193.752 7.14943 194.698 7.55054C195.645 7.95247 196.354 8.54501 196.825 9.32676C197.294 10.1099 197.53 11.0723 197.53 12.2138V23.6665H195.025L194.819 20.5889C194.184 21.8691 193.376 22.7547 192.399 23.2462C191.419 23.7378 190.345 23.9835 189.171 23.9835" fill="white"/>
<path d="M206.111 23.8732C205.223 23.8732 204.507 23.7515 203.962 23.508C203.417 23.2645 203 22.937 202.709 22.525C202.419 22.1116 202.224 21.6384 202.123 21.1056C202.023 20.5705 201.972 20.0179 201.972 19.4474V0.0952428H204.859V19.1613C204.859 19.9871 205.02 20.6049 205.342 21.017C205.664 21.4304 206.116 21.6577 206.698 21.6991L207.586 21.7152V23.6192C207.344 23.6927 207.09 23.7538 206.825 23.8006C206.562 23.8488 206.323 23.8732 206.111 23.8732" fill="white"/>
<path d="M214.107 7.26567V23.6664H211.268V7.26567H214.107ZM214.171 0.745205V3.79071H211.172V0.745205H214.171Z" fill="white"/>
<path d="M224.37 21.8737C224.919 21.8737 225.466 21.7741 226.01 21.5729C226.556 21.3722 227.055 21.0997 227.511 20.7553C227.965 20.413 228.327 20.0262 228.596 19.5977C228.867 19.1695 229.007 18.7286 229.017 18.2739V15.4659L226.574 15.5131C225.326 15.5348 224.282 15.6625 223.442 15.8945C222.601 16.1264 221.972 16.4916 221.554 16.9886C221.136 17.4861 220.928 18.136 220.928 18.9399C220.928 19.8595 221.246 20.5784 221.886 21.0965C222.526 21.6156 223.354 21.8737 224.37 21.8737V21.8737ZM223.481 23.9835C222.423 23.9835 221.488 23.7961 220.674 23.4208C219.859 23.045 219.223 22.503 218.762 21.7947C218.303 21.0859 218.072 20.2307 218.072 19.2256C218.072 17.4066 218.706 16.0529 219.974 15.165C221.244 14.2762 223.281 13.7998 226.082 13.7365L229.017 13.6574V12.3736C229.017 11.3677 228.715 10.5716 228.113 9.98598C227.511 9.39932 226.574 9.10534 225.305 9.10534C224.364 9.11545 223.537 9.33734 222.822 9.77138C222.11 10.2055 221.647 10.9138 221.436 11.8968H218.848C218.913 10.8288 219.214 9.92754 219.755 9.19259C220.293 8.45764 221.047 7.89955 222.015 7.51926C222.982 7.13803 224.127 6.94741 225.448 6.94741C226.876 6.94741 228.062 7.14943 229.009 7.55054C229.956 7.95247 230.663 8.54501 231.135 9.32676C231.604 10.1099 231.841 11.0723 231.841 12.2138V23.6665H229.333L229.129 20.5889C228.495 21.8691 227.687 22.7547 226.709 23.2462C225.73 23.7378 224.655 23.9835 223.481 23.9835" fill="white"/>
<path d="M236.154 23.6664V7.26568H238.994V9.64503C239.257 9.1903 239.624 8.76168 240.097 8.35975C240.566 7.95782 241.137 7.63539 241.809 7.39197C242.48 7.14938 243.255 7.02673 244.132 7.02673C245.169 7.02673 246.123 7.23346 246.996 7.6455C247.868 8.05801 248.567 8.70112 249.09 9.57389C249.613 10.4452 249.874 11.5697 249.874 12.9441V23.6664H246.939V13.2289C246.939 11.9496 246.604 11.001 245.934 10.3823C245.261 9.76309 244.391 9.45441 243.324 9.45441C242.582 9.45441 241.89 9.57389 241.244 9.81036C240.6 10.0493 240.077 10.4084 239.674 10.8899C239.273 11.3708 239.072 11.9762 239.072 12.7052V23.6664H236.154" fill="white"/>
<path d="M120.378 30.2237H123.313V53.161H120.695L108.386 35.0775V53.161H105.451V30.2237H108.259L120.378 48.054V30.2237Z" fill="white"/>
<path d="M133.766 51.3695C134.314 51.3695 134.864 51.2685 135.407 51.0673C135.951 50.8665 136.451 50.5942 136.906 50.2511C137.36 49.9065 137.723 49.5215 137.994 49.0921C138.262 48.6639 138.402 48.223 138.415 47.7682V44.9602L135.97 45.0076C134.722 45.0292 133.679 45.1556 132.837 45.3875C131.997 45.6209 131.369 45.986 130.95 46.4831C130.532 46.9805 130.325 47.6313 130.325 48.4343C130.325 49.354 130.643 50.0742 131.284 50.5918C131.923 51.11 132.75 51.3695 133.766 51.3695V51.3695ZM132.876 53.4789C131.82 53.4789 130.882 53.2905 130.071 52.9162C129.256 52.5395 128.618 51.9988 128.159 51.2892C127.698 50.5817 127.468 49.7237 127.468 48.72C127.468 46.901 128.102 45.5474 129.372 44.6585C130.641 43.7706 132.676 43.2942 135.477 43.2308L138.415 43.1518V41.8666C138.415 40.862 138.111 40.0659 137.509 39.4794C136.906 38.8924 135.97 38.5998 134.701 38.5998C133.759 38.6098 132.932 38.8317 132.219 39.2658C131.506 39.6985 131.042 40.4073 130.831 41.3912H128.246C128.309 40.3232 128.61 39.422 129.15 38.6871C129.688 37.9507 130.442 37.394 131.409 37.0127C132.379 36.6324 133.522 36.4418 134.844 36.4418C136.272 36.4418 137.46 36.643 138.404 37.0449C139.352 37.4468 140.06 38.0394 140.531 38.8211C141.001 39.6044 141.237 40.5657 141.237 41.7081V53.161H138.731L138.525 50.0843C137.889 51.3636 137.082 52.2492 136.105 52.7406C135.127 53.2321 134.051 53.4789 132.876 53.4789" fill="white"/>
<path d="M153.181 38.9006H149.484V49.1003C149.484 49.6824 149.546 50.1073 149.666 50.3783C149.788 50.647 149.995 50.8193 150.286 50.8928C150.577 50.9663 150.976 51.0044 151.483 51.0044H153.276V52.9704C153.075 53.0447 152.77 53.1081 152.364 53.161C151.957 53.2148 151.451 53.2413 150.848 53.2413C149.717 53.2413 148.839 53.0875 148.215 52.7806C147.592 52.4743 147.156 52.0196 146.907 51.4164C146.658 50.8138 146.535 50.0742 146.535 49.1955V38.9006H143.87V36.7587H146.615L147.327 31.9853H149.484V36.744H153.181V38.9006" fill="white"/>
<path d="M160.254 36.7587V53.161H157.416V36.7587H160.254ZM160.319 30.2398V33.2852H157.32V30.2398H160.319Z" fill="white"/>
<path d="M171.612 51.1628C172.594 51.1628 173.424 50.9148 174.102 50.4164C174.779 49.9203 175.292 49.207 175.64 48.2759C175.989 47.3457 176.166 46.2395 176.166 44.9602C176.166 43.7857 176.011 42.7315 175.705 41.7954C175.398 40.8597 174.907 40.1165 174.237 39.5666C173.566 39.0177 172.69 38.7421 171.612 38.7421C170.618 38.7421 169.777 38.9879 169.09 39.4794C168.402 39.9719 167.882 40.6828 167.527 41.6131C167.173 42.5442 166.996 43.6594 166.996 44.9602C166.996 46.1123 167.153 47.1597 167.472 48.1012C167.789 49.0429 168.286 49.788 168.964 50.3383C169.64 50.8882 170.522 51.1628 171.612 51.1628V51.1628ZM171.612 53.4789C170.099 53.4789 168.777 53.1527 167.646 52.5027C166.515 51.8528 165.638 50.8986 165.013 49.6401C164.389 48.3815 164.077 46.8427 164.077 45.0236C164.077 43.3103 164.368 41.8092 164.95 40.5184C165.532 39.229 166.385 38.2263 167.512 37.5121C168.639 36.7991 170.004 36.4418 171.612 36.4418C173.125 36.4418 174.438 36.7724 175.553 37.4339C176.669 38.0945 177.534 39.0646 178.147 40.3439C178.761 41.6231 179.066 43.184 179.066 45.0236C179.066 46.6943 178.783 48.1656 178.219 49.4343C177.652 50.7034 176.817 51.6943 175.712 52.4085C174.606 53.122 173.24 53.4789 171.612 53.4789" fill="white"/>
<path d="M182.603 53.161V36.7587H185.443V39.1382C185.708 38.6833 186.075 38.2563 186.546 37.8534C187.016 37.4524 187.587 37.13 188.258 36.8864C188.93 36.643 189.705 36.5213 190.582 36.5213C191.619 36.5213 192.573 36.728 193.446 37.14C194.318 37.5525 195.017 38.1956 195.54 39.0669C196.063 39.9397 196.324 41.0628 196.324 42.4376V53.161H193.39V42.7233C193.39 41.444 193.054 40.4946 192.384 39.8754C191.711 39.2575 190.841 38.9489 189.774 38.9489C189.033 38.9489 188.341 39.0669 187.695 39.3049C187.051 39.5424 186.526 39.903 186.125 40.383C185.722 40.8653 185.523 41.4707 185.523 42.1997V53.161H182.603" fill="white"/>
<path d="M205.969 51.3695C206.519 51.3695 207.067 51.2685 207.611 51.0673C208.156 50.8665 208.654 50.5942 209.11 50.2511C209.565 49.9065 209.927 49.5215 210.196 49.0921C210.466 48.6639 210.607 48.223 210.617 47.7682V44.9602L208.174 45.0076C206.927 45.0292 205.882 45.1556 205.041 45.3875C204.2 45.6209 203.571 45.986 203.154 46.4831C202.735 46.9805 202.527 47.6313 202.527 48.4343C202.527 49.354 202.847 50.0742 203.487 50.5918C204.126 51.11 204.954 51.3695 205.969 51.3695V51.3695ZM205.081 53.4789C204.024 53.4789 203.087 53.2905 202.274 52.9162C201.459 52.5395 200.822 51.9988 200.362 51.2892C199.902 50.5817 199.672 49.7237 199.672 48.72C199.672 46.901 200.307 45.5474 201.576 44.6585C202.845 43.7706 204.88 43.2942 207.681 43.2308L210.617 43.1518V41.8666C210.617 40.862 210.315 40.0659 209.713 39.4794C209.11 38.8924 208.174 38.5998 206.905 38.5998C205.963 38.6098 205.136 38.8317 204.423 39.2658C203.709 39.6985 203.247 40.4073 203.035 41.3912H200.449C200.514 40.3232 200.814 39.422 201.354 38.6871C201.892 37.9507 202.646 37.394 203.614 37.0127C204.583 36.6324 205.727 36.4418 207.047 36.4418C208.476 36.4418 209.663 36.643 210.609 37.0449C211.555 37.4468 212.264 38.0394 212.734 38.8211C213.206 39.6044 213.441 40.5657 213.441 41.7081V53.161H210.934L210.728 50.0843C210.094 51.3636 209.287 52.2492 208.309 52.7406C207.33 53.2321 206.254 53.4789 205.081 53.4789" fill="white"/>
<path d="M222.023 53.3676C221.135 53.3676 220.416 53.2459 219.872 53.0034C219.329 52.76 218.91 52.4316 218.618 52.0195C218.329 51.607 218.133 51.133 218.033 50.5988C217.933 50.0659 217.882 49.5124 217.882 48.9419V29.5897H220.769V48.6557C220.769 49.4817 220.93 50.1003 221.252 50.5128C221.576 50.9239 222.027 51.1523 222.608 51.1936L223.497 51.2111V53.1136C223.253 53.1885 223 53.2483 222.735 53.2965C222.472 53.3433 222.233 53.3676 222.023 53.3676" fill="white"/>
<path d="M122.218 74.7226C122.218 76.4897 121.928 77.9862 121.345 79.2127C120.763 80.4391 119.857 81.3716 118.626 82.011C117.394 82.6518 115.794 82.9724 113.827 82.9724C111.839 82.9724 110.229 82.6439 108.997 81.988C107.765 81.3325 106.866 80.3702 106.3 79.101C105.734 77.8323 105.451 76.2715 105.451 74.4216V59.718H108.497V74.8659C108.497 76.717 108.957 78.1019 109.877 79.022C110.797 79.9416 112.114 80.401 113.827 80.401C114.979 80.401 115.961 80.2012 116.769 79.7983C117.578 79.3973 118.198 78.7864 118.626 77.9678C119.054 77.1479 119.268 76.113 119.268 74.8659V59.718H122.218V74.7226Z" fill="white"/>
<path d="M126.5 82.6541V66.2532H129.339V68.6317C129.604 68.1769 129.971 67.7497 130.442 67.3464C130.911 66.9459 131.484 66.623 132.154 66.3795C132.826 66.1361 133.602 66.0157 134.479 66.0157C135.516 66.0157 136.469 66.221 137.34 66.6335C138.214 67.0456 138.912 67.6877 139.437 68.5605C139.959 69.4333 140.22 70.5572 140.22 71.9307V82.6541H137.286V72.2178C137.286 70.9376 136.95 69.989 136.279 69.3699C135.608 68.7511 134.738 68.442 133.669 68.442C132.929 68.442 132.237 68.5605 131.591 68.7979C130.948 69.0368 130.423 69.3965 130.022 69.8774C129.62 70.3589 129.419 70.9637 129.419 71.6941V82.6541H126.5Z" fill="white"/>
<path d="M147.565 66.2533V82.6541H144.726V66.2533H147.565ZM147.629 59.7328V62.7783H144.631V59.7328H147.629Z" fill="white"/>
<path d="M165.219 66.2533L159.304 82.6541H156.638L150.706 66.2533H153.467L157.828 78.9738H158.097L162.475 66.2533H165.219" fill="white"/>
<path d="M169.565 73.1525H178.479C178.479 72.2109 178.321 71.3625 178.004 70.6068C177.686 69.8512 177.203 69.2526 176.553 68.814C175.901 68.3753 175.085 68.1562 174.102 68.1562C173.077 68.1562 172.228 68.402 171.556 68.8935C170.884 69.3859 170.383 70.0143 170.049 70.7813C169.715 71.5485 169.554 72.3386 169.565 73.1525V73.1525ZM169.55 75.136C169.55 76.1718 169.722 77.1112 170.064 77.9504C170.407 78.7923 170.932 79.4616 171.636 79.9577C172.338 80.4552 173.219 80.7032 174.276 80.7032C175.323 80.7032 176.223 80.4598 176.981 79.9738C177.736 79.4869 178.221 78.7832 178.432 77.8631H181.209C181.007 78.9738 180.564 79.9095 179.876 80.6711C179.188 81.4322 178.358 82.0064 177.386 82.3922C176.413 82.7781 175.397 82.9724 174.34 82.9724C172.806 82.9724 171.459 82.638 170.294 81.9719C169.131 81.3059 168.222 80.3495 167.566 79.101C166.91 77.8539 166.582 76.3564 166.582 74.6124C166.582 72.8884 166.878 71.3762 167.471 70.0763C168.064 68.774 168.922 67.7589 170.049 67.0309C171.175 66.3005 172.531 65.9352 174.117 65.9352C175.661 65.9352 176.968 66.2692 178.035 66.9353C179.103 67.6005 179.915 68.5398 180.471 69.7511C181.026 70.9615 181.303 72.3969 181.303 74.0565V75.136H169.55" fill="white"/>
<path d="M184.999 82.6541V66.2532H187.791V69.4089C188.067 68.6271 188.453 67.9794 188.949 67.4672C189.446 66.9528 190.014 66.5701 190.654 66.3166C191.295 66.0626 191.958 65.9353 192.644 65.9353C192.888 65.9353 193.126 65.9514 193.359 65.9822C193.59 66.0157 193.77 66.0685 193.898 66.142V68.9808C193.74 68.9073 193.536 68.8567 193.287 68.8301C193.038 68.8049 192.828 68.7911 192.661 68.7911C192.005 68.7488 191.393 68.7887 190.82 68.9095C190.251 69.0313 189.747 69.2403 189.313 69.5352C188.88 69.8329 188.539 70.221 188.292 70.702C188.042 71.1833 187.918 71.7676 187.918 72.4557V82.6541H184.999" fill="white"/>
<path d="M202.685 82.9724C201.543 82.9724 200.482 82.7942 199.504 82.4405C198.525 82.0858 197.714 81.53 197.07 80.7753C196.424 80.0188 196.017 79.0542 195.848 77.8792H198.512C198.661 78.5246 198.928 79.0611 199.314 79.4905C199.699 79.9177 200.183 80.2402 200.764 80.4575C201.348 80.6743 201.981 80.7822 202.669 80.7822C203.769 80.7822 204.657 80.5769 205.334 80.1635C206.01 79.751 206.349 79.1171 206.349 78.2604C206.349 77.6578 206.171 77.1732 205.816 76.8089C205.463 76.4437 204.915 76.1773 204.176 76.0088L200.781 75.1667C199.459 74.8498 198.402 74.3528 197.609 73.6762C196.816 72.9987 196.419 72.0524 196.419 70.8374C196.409 69.8751 196.636 69.0276 197.101 68.2996C197.567 67.5692 198.264 66.9928 199.196 66.5701C200.126 66.1466 201.284 65.9352 202.669 65.9352C204.445 65.9352 205.881 66.3335 206.976 67.1328C208.069 67.9321 208.638 69.1034 208.681 70.6459H206.096C205.989 69.8649 205.637 69.2435 205.04 68.7832C204.443 68.3225 203.642 68.0928 202.638 68.0928C201.59 68.0928 200.738 68.3018 200.083 68.7198C199.427 69.1369 199.099 69.7846 199.099 70.662C199.099 71.2439 199.332 71.701 199.797 72.0353C200.263 72.3671 200.95 72.6449 201.86 72.8678L205.142 73.6914C205.905 73.8934 206.531 74.1575 207.024 74.486C207.515 74.8131 207.906 75.1782 208.197 75.5792C208.488 75.9821 208.694 76.4024 208.815 76.8411C208.937 77.2797 208.997 77.7 208.997 78.102C208.997 79.1056 208.746 79.9715 208.244 80.695C207.742 81.4184 207.024 81.9802 206.087 82.3762C205.152 82.7726 204.017 82.9724 202.685 82.9724Z" fill="white"/>
<path d="M215.947 66.2533V82.6541H213.108V66.2533H215.947ZM216.009 59.7328V62.7783H213.012V59.7328H216.009Z" fill="white"/>
<path d="M229.016 68.3938H225.319V78.5934C225.319 79.1745 225.381 79.6008 225.502 79.8704C225.624 80.1405 225.83 80.3114 226.121 80.3863C226.411 80.4598 226.811 80.4965 227.319 80.4965H229.11V82.4634C228.91 82.5383 228.604 82.6012 228.2 82.6541C227.792 82.7069 227.286 82.7335 226.683 82.7335C225.553 82.7335 224.675 82.5806 224.05 82.2742C223.427 81.9664 222.991 81.5126 222.743 80.9085C222.493 80.3059 222.37 79.5663 222.37 78.689V68.3938H219.705V66.2532H222.45L223.161 61.4783H225.319V66.2362H229.016V68.3938" fill="white"/>
<path d="M234.646 87.8882C233.685 87.8882 232.843 87.7504 232.124 87.4762V85.5732L233.789 85.6044C234.404 85.626 234.912 85.5837 235.312 85.4767C235.715 85.3724 236.037 85.23 236.281 85.0495C236.524 84.8694 236.711 84.6683 236.844 84.4468C236.975 84.2241 237.084 84.0128 237.169 83.8116L237.739 82.2581L231.332 66.2532H234.297L239.135 78.9104L243.941 66.2532H246.813L239.897 83.892C239.473 84.9278 239.001 85.7376 238.477 86.3187C237.954 86.8997 237.372 87.3072 236.732 87.5405C236.091 87.7725 235.398 87.8882 234.646 87.8882Z" fill="white"/>
<path d="M1.55685 0.867004C1.36622 0.867004 1.17789 0.917447 1.03136 1.04386C0.882533 1.17333 0.790205 1.35842 0.780099 1.55832C0.774128 1.67862 0.137939 13.7791 0.137939 29.3012C0.137939 45.4541 1.21326 54.1058 4.10483 61.2269C7.03818 68.4534 11.5664 72.0224 20.6044 77.2888C29.2575 82.3278 32.8781 83.009 35.2928 83.009C37.709 83.009 41.3281 82.3278 49.9793 77.2888C59.0196 72.0224 63.5478 68.4534 66.483 61.2269C69.3723 54.1058 70.4472 45.4541 70.4472 29.3012C70.4472 13.7791 69.8115 1.67862 69.8059 1.55832C69.7954 1.35842 69.7053 1.17333 69.5532 1.04386C69.4067 0.915213 69.2152 0.867004 69.0187 0.867004C69.0187 0.867004 1.74656 0.867004 1.55685 0.867004V0.867004ZM68.2635 2.45625C68.4086 5.54857 68.8629 16.2306 68.8629 29.3012C68.8629 45.2266 67.8197 53.7176 65.0155 60.6307C63.6581 63.9724 61.9384 66.5025 59.4395 68.8346C57.1933 70.9315 54.2214 72.9848 49.1819 75.92C45.3271 78.1661 42.25 79.6774 39.7746 80.5433C37.5403 81.3241 36.2055 81.4243 35.2928 81.4243C34.3796 81.4243 33.0457 81.3241 30.8106 80.5433C28.3351 79.6774 25.2575 78.1652 21.4023 75.92C16.3637 72.9839 13.3923 70.9315 11.1465 68.8346C8.64818 66.5025 6.92932 63.9724 5.57333 60.6307C2.76583 53.719 1.72267 45.2266 1.72267 29.3012C1.72267 16.2376 2.17558 5.56832 2.32211 2.46413L68.2635 2.45625Z" fill="white"/>
<path d="M55.6133 20.4153L54.8544 18.2909L54.102 20.3799L51.8577 20.4681L53.6404 21.8476L53.0037 23.9903L54.8471 22.7189L56.7061 23.9903L56.0681 21.8232L57.8498 20.4681L55.6133 20.4153Z" fill="white"/>
<path d="M52.9879 32.4607L54.6912 34.0338L54.5221 31.721L56.8156 31.3706L54.9021 30.0605L56.0573 28.0496L53.8396 28.7284L52.9879 26.5718L52.1358 28.7284L49.9186 28.0496L51.0743 30.0605L49.1608 31.3706L51.4533 31.721L51.2842 34.0338L52.9879 32.4607" fill="white"/>
<path d="M62.2388 19.7355L63.9426 21.3087L63.7735 18.9959L66.066 18.6459L64.1525 17.3354L65.3086 15.3248L63.0908 16.0032L62.2388 13.8467L61.3872 16.0032L59.17 15.3248L60.3252 17.3354L58.4115 18.6459L60.7042 18.9959L60.536 21.3087L62.2388 19.7355Z" fill="white"/>
<path d="M53.9624 11.0598L55.6656 12.633L55.4974 10.3202L57.79 9.9698L55.8764 8.65971L57.0317 6.64877L54.814 7.32763L53.9624 5.17099L53.1102 7.32763L50.893 6.64877L52.0487 8.65971L50.1351 9.9698L52.4277 10.3202L52.2591 12.633L53.9624 11.0598" fill="white"/>
<path d="M44.1874 18.5779L45.891 20.1526L45.7224 17.8398L48.015 17.4892L46.1014 16.1792L47.2571 14.1673L45.0399 14.8471L44.1874 12.6891L43.3361 14.8471L41.1185 14.1673L42.2737 16.1792L40.3601 17.4892L42.6536 17.8398L42.4845 20.1526L44.1874 18.5779" fill="white"/>
<path d="M53.073 37.9622C43.6929 33.4781 37.3897 30.2957 35.1164 30.2957C32.8454 30.2957 26.9053 33.4781 17.525 37.9622C8.14613 42.4491 4.9436 43.41 4.9436 45.3714C4.9436 47.3342 7.24628 46.4003 7.94586 46.1904C8.64635 45.9814 32.5808 38.2369 35.1164 38.2369C37.652 38.2369 61.9512 45.9814 62.6522 46.1904C63.3532 46.4003 65.6549 47.3342 65.6549 45.3714C65.6549 43.41 62.4519 42.4491 53.073 37.9622" fill="white"/>
<path d="M58.465 52.6244C54.3975 53.99 51.1679 56.9652 46.6622 56.1177C42.7123 55.375 39.4345 51.963 35.2865 52.0158C30.746 52.0733 27.3184 55.9837 22.8637 56.3557C18.4839 56.7208 15.0773 53.1839 10.9947 52.3465C9.14859 51.9675 7.52987 52.2225 5.98877 52.7521C6.30158 54.2712 6.664 55.6699 7.08201 56.9873C8.29788 56.6956 9.57944 56.6115 10.9947 56.9023C15.0773 57.7392 18.4839 61.2761 22.8637 60.911C27.3184 60.5389 30.746 56.629 35.2865 56.5716C39.4345 56.5187 42.7123 59.9303 46.6622 60.6734C51.1679 61.5209 54.3975 58.5454 58.465 57.1801C60.2826 56.5702 61.9068 56.6221 63.4516 57.0066C63.8692 55.6919 64.2321 54.2955 64.5444 52.7796C62.6707 52.1306 60.7162 51.8688 58.465 52.6244Z" fill="white"/>
<path d="M58.4649 61.7356C54.3974 63.1012 51.1677 66.0764 46.6621 65.2289C42.7122 64.4861 39.4343 61.0741 35.2864 61.1269C30.7458 61.1843 27.3183 65.0947 22.8635 65.4668C18.4837 65.832 15.0772 62.295 10.9945 61.4576C10.2206 61.2992 9.48744 61.2523 8.78235 61.2891C9.70563 63.1448 10.8549 64.7525 12.2665 66.2003C12.311 66.2463 12.3551 66.2798 12.4121 66.3074C12.8724 66.5302 15.2421 67.6786 16.4263 68.2734C18.4423 69.2863 20.547 70.215 22.8635 70.0221C27.3183 69.65 30.7458 65.7401 35.2864 65.6827C39.4343 65.6299 42.7122 69.0415 46.6621 69.7846C49.419 70.3023 51.7419 69.3699 54.028 68.2697C55.2159 67.6991 57.7547 66.4383 58.2302 66.2027C58.2866 66.1742 58.3298 66.1407 58.3739 66.0947C59.7148 64.6891 60.8659 63.0791 61.756 61.2922C60.7184 61.2247 59.6315 61.3442 58.4649 61.7356" fill="white"/>
<path d="M24.0997 74.3835C25.9123 75.4047 27.5214 76.2361 28.9523 76.8929C30.9633 75.8442 32.9812 74.8222 35.2861 74.7938C37.5888 74.7639 39.6242 75.8029 41.6549 76.8594C43.0982 76.1947 44.7233 75.3505 46.5534 74.3169C42.6522 73.5328 39.3958 70.1851 35.2861 70.2379C31.174 70.2899 27.9757 73.5016 24.0997 74.3835" fill="white"/>
<path d="M49.9605 46.9942C45.1545 45.5267 41.8684 44.5676 39.6226 43.9419C37.4849 43.3471 36.4862 43.1206 35.8261 42.9529C35.6295 42.9024 35.2989 42.8404 35.1881 42.8211C35.0406 42.8473 34.8386 42.8886 34.5616 42.952C34.0076 43.0792 33.1538 43.2942 31.8423 43.6558C29.6162 44.2689 26.0697 45.3062 20.4248 47.0549C18.6137 47.6166 16.5852 48.2515 14.316 48.9694C17.0878 50.2887 19.7455 52.0641 22.9118 51.7998C27.3669 51.4278 30.794 47.5178 35.3346 47.4605C39.4825 47.4077 42.7604 50.8192 46.7103 51.561C50.3805 52.2523 53.2039 50.4058 56.3239 48.9602C53.9514 48.2193 51.8398 47.5684 49.9605 46.9942" fill="white"/>
</g>
<defs>
<clipPath id="clip0_428:3773">
<rect width="250" height="87.8882" fill="white"/>
</clipPath>
</defs>
</svg>
