<svg xmlns="http://www.w3.org/2000/svg" viewBox="0 0 85 85"><defs><style>.cls-1,.cls-2,.cls-3{fill:none;}.cls-2,.cls-3{stroke:#bf872b;stroke-linejoin:round;stroke-width:1.5px;}.cls-2{stroke-linecap:round;}</style></defs><g id="Layer_2" data-name="Layer 2"><g id="Icons"><path class="cls-1" d="M42.5,0c.7,0,1.39,0,2.09.05L46.67.2c.69.07,1.38.16,2.07.26s1.37.22,2,.36,1.36.28,2,.45,1.34.36,2,.56,1.32.42,2,.65,1.3.49,1.94.76,1.28.54,1.91.84,1.25.61,1.86.94,1.22.67,1.82,1,1.18.73,1.76,1.11,1.15.79,1.71,1.2,1.1.85,1.64,1.29S70.53,10.54,71,11s1,1,1.51,1.44,1,1,1.44,1.51.92,1,1.36,1.58.87,1.08,1.29,1.64.81,1.13,1.2,1.71.76,1.16,1.11,1.76.7,1.2,1,1.82.64,1.23.94,1.86.58,1.26.84,1.91.52,1.29.76,1.94.45,1.32.65,2,.39,1.34.56,2,.32,1.36.45,2,.26,1.37.36,2,.19,1.38.26,2.07.11,1.39.15,2.08,0,1.39,0,2.09,0,1.39,0,2.09-.09,1.38-.15,2.08-.16,1.38-.26,2.07-.22,1.37-.36,2-.28,1.36-.45,2-.36,1.34-.56,2-.42,1.32-.65,2-.49,1.3-.76,1.94-.54,1.28-.84,1.91-.61,1.25-.94,1.86-.67,1.22-1,1.82-.73,1.18-1.11,1.76-.79,1.15-1.2,1.71-.85,1.1-1.29,1.64S74.46,70.53,74,71s-.95,1-1.44,1.51-1,1-1.51,1.44-1,.92-1.58,1.36-1.08.87-1.64,1.29-1.13.81-1.71,1.2S65,78.6,64.35,79s-1.2.7-1.82,1-1.23.64-1.86.94-1.26.58-1.91.84-1.29.52-1.94.76-1.32.45-2,.65-1.34.39-2,.56-1.36.32-2,.45-1.37.26-2,.36-1.38.19-2.07.26L44.59,85c-.7,0-1.39,0-2.09,0s-1.39,0-2.09,0l-2.08-.15c-.69-.07-1.38-.16-2.07-.26s-1.37-.22-2-.36-1.36-.28-2-.45-1.34-.36-2-.56-1.32-.42-2-.65-1.3-.49-1.94-.76-1.28-.54-1.91-.84-1.25-.61-1.86-.94-1.22-.67-1.82-1-1.18-.73-1.76-1.11-1.15-.79-1.71-1.2-1.1-.85-1.64-1.29S14.47,74.46,14,74s-1-.95-1.51-1.44-1-1-1.44-1.51-.92-1-1.36-1.58-.87-1.08-1.29-1.64-.81-1.13-1.2-1.71S6.4,65,6.05,64.35s-.7-1.2-1-1.82-.64-1.23-.94-1.86-.58-1.26-.84-1.91-.52-1.29-.76-1.94-.45-1.32-.65-2-.39-1.34-.56-2-.32-1.36-.45-2-.26-1.37-.36-2S.27,47.36.2,46.67.09,45.28.05,44.59,0,43.2,0,42.5s0-1.39.05-2.09S.14,39,.2,38.33.36,37,.46,36.26s.22-1.37.36-2,.28-1.36.45-2,.36-1.34.56-2,.42-1.32.65-2,.49-1.3.76-1.94.54-1.28.84-1.91.61-1.25.94-1.86.67-1.22,1-1.82.73-1.18,1.11-1.76.79-1.15,1.2-1.71.85-1.1,1.29-1.64S10.54,14.47,11,14s1-1,1.44-1.51,1-1,1.51-1.44,1-.92,1.58-1.36,1.08-.87,1.64-1.29,1.13-.81,1.71-1.2,1.16-.76,1.76-1.11,1.2-.7,1.82-1,1.23-.64,1.86-.94,1.26-.58,1.91-.84,1.29-.52,1.94-.76,1.32-.45,2-.65,1.34-.39,2-.56,1.36-.32,2-.45,1.37-.26,2-.36S37.64.27,38.33.2L40.41.05C41.11,0,41.8,0,42.5,0Z"/><path class="cls-2" d="M67.21,49.36a6.68,6.68,0,0,0,.12,9.3l.2.18"/><path class="cls-3" d="M51.08,57l-5.72,1.05A1.92,1.92,0,0,1,47.27,60v6.33l2.86-2.86L53,65.38V59A1.91,1.91,0,0,0,51.08,57Z"/><polyline class="cls-2" points="52.99 61.52 68.24 58.71 66.34 57.38"/><path class="cls-2" d="M22.48,41.26l-1.78.36a4.78,4.78,0,0,0-3.87,5.52,4.7,4.7,0,0,0,1.58,2.75L33.64,63.24"/><line class="cls-2" x1="16.76" y1="28.2" x2="16.76" y2="37.73"/><path class="cls-2" d="M17.61,29.51l23.06,9.76a4.71,4.71,0,0,0,3.66,0l23.06-9.76a1.38,1.38,0,0,0,.85-1.28,1.4,1.4,0,0,0-.93-1.31L44.35,19a5.68,5.68,0,0,0-3.7,0l-23,7.94a1.4,1.4,0,0,0-.93,1.31A1.38,1.38,0,0,0,17.61,29.51Z"/><path class="cls-3" d="M26.29,33.19v8.88a2.89,2.89,0,0,0,1.2,2.33,26,26,0,0,0,30,0,2.89,2.89,0,0,0,1.2-2.33V33.19"/><path class="cls-2" d="M61.94,44.76l6.3,4.41L36,55a4.77,4.77,0,0,0,1.66,9.39l9.66-1.78"/></g></g></svg>