<svg width="146" height="188" viewBox="0 0 146 188" fill="none" xmlns="http://www.w3.org/2000/svg">
<g clip-path="url(#clip0_431:4332)">
<path d="M6.06338 114.361H13.9628L10.0367 103.238L6.06338 114.361ZM0.000488281 123.392L8.34617 100.318H11.6813L20.0265 123.392H17.011L14.7452 117.073H5.3136L2.99958 123.392H0.000488281Z" fill="#100F0D"/>
<path d="M28.628 123.712C27.7658 123.701 26.9545 123.576 26.1935 123.336C25.4326 123.096 24.76 122.743 24.1754 122.275C23.5907 121.808 23.1297 121.225 22.7963 120.528C22.4603 119.832 22.292 119.02 22.292 118.095V106.893H25.2442V117.791C25.2442 118.866 25.5776 119.739 26.2426 120.408C26.9067 121.079 27.9095 121.413 29.2507 121.413C30.4623 121.413 31.4388 121.097 32.1784 120.464C32.9169 119.832 33.2865 118.887 33.2865 117.632V106.893H36.2231V123.392H33.8778L33.5752 120.233C33.3722 121.063 33.0285 121.733 32.5456 122.244C32.0614 122.755 31.4812 123.13 30.8046 123.369C30.1312 123.608 29.4037 123.722 28.628 123.712" fill="#100F0D"/>
<path d="M46.3726 123.712C45.2234 123.712 44.1567 123.534 43.1727 123.177C42.1887 122.821 41.3719 122.262 40.7238 121.501C40.0746 120.741 39.6648 119.77 39.4944 118.589H42.1753C42.3247 119.238 42.5925 119.778 42.9808 120.209C43.3691 120.64 43.8568 120.965 44.4415 121.183C45.0262 121.401 45.6644 121.509 46.3561 121.509C47.4629 121.509 48.3564 121.302 49.037 120.886C49.7176 120.472 50.0589 119.833 50.0589 118.973C50.0589 118.365 49.8796 117.88 49.5235 117.513C49.1678 117.145 48.6165 116.876 47.8722 116.706L44.4571 115.861C43.1272 115.542 42.0637 115.042 41.2662 114.361C40.4681 113.68 40.0701 112.728 40.0701 111.504C40.0589 110.536 40.2874 109.685 40.7551 108.95C41.2237 108.217 41.9253 107.637 42.8625 107.212C43.7975 106.786 44.9637 106.573 46.3561 106.573C48.1435 106.573 49.5881 106.975 50.6882 107.778C51.7897 108.582 52.361 109.76 52.4043 111.313H49.8033C49.6967 110.526 49.3427 109.901 48.7415 109.437C48.1412 108.975 47.3358 108.743 46.3249 108.743C45.2702 108.743 44.4147 108.954 43.7564 109.374C43.0959 109.794 42.7665 110.445 42.7665 111.329C42.7665 111.914 42.9999 112.373 43.4672 112.709C43.9359 113.044 44.6276 113.324 45.5425 113.547L48.845 114.377C49.6127 114.579 50.242 114.845 50.7374 115.174C51.2314 115.504 51.6246 115.871 51.9178 116.275C52.2102 116.68 52.4167 117.103 52.5404 117.544C52.6623 117.986 52.7234 118.409 52.7234 118.812C52.7234 119.823 52.4703 120.694 51.9647 121.422C51.4604 122.15 50.7374 122.714 49.7948 123.113C48.8541 123.512 47.7137 123.712 46.3726 123.712" fill="#100F0D"/>
<path d="M64.5478 109.047H60.8293V119.308C60.8293 119.893 60.8918 120.321 61.0131 120.592C61.136 120.863 61.3434 121.036 61.6349 121.111C61.9281 121.185 62.3298 121.223 62.8399 121.223H64.6429V123.201C64.4407 123.275 64.135 123.34 63.7266 123.392C63.3161 123.446 62.8086 123.472 62.2017 123.472C61.0636 123.472 60.1808 123.318 59.5529 123.009C58.9259 122.701 58.4863 122.244 58.2372 121.637C57.9864 121.031 57.8614 120.286 57.8614 119.403V109.047H55.1802V106.893H57.9418L58.659 102.089H60.8293V106.876H64.5478V109.047" fill="#100F0D"/>
<path d="M68.473 123.392V106.893H71.2815V110.068C71.5583 109.281 71.9466 108.629 72.4464 108.113C72.9471 107.598 73.5183 107.212 74.161 106.956C74.806 106.701 75.4732 106.573 76.1641 106.573C76.4095 106.573 76.6492 106.589 76.8826 106.621C77.1155 106.652 77.2977 106.706 77.4248 106.78V109.637C77.265 109.563 77.061 109.512 76.8112 109.485C76.5599 109.459 76.3502 109.445 76.1805 109.445C75.5214 109.403 74.9041 109.443 74.3293 109.565C73.755 109.687 73.2497 109.898 72.8133 110.196C72.3772 110.494 72.0335 110.885 71.7846 111.368C71.5346 111.853 71.4088 112.44 71.4088 113.132V123.392H68.473Z" fill="#100F0D"/>
<path d="M85.5627 121.589C86.1162 121.589 86.6673 121.489 87.214 121.285C87.763 121.084 88.2651 120.81 88.7234 120.464C89.18 120.119 89.5446 119.731 89.816 119.3C90.0869 118.869 90.2288 118.425 90.2386 117.968V115.143L87.7808 115.19C86.5254 115.212 85.4758 115.34 84.63 115.573C83.7843 115.807 83.1515 116.174 82.7297 116.674C82.3093 117.175 82.1005 117.829 82.1005 118.637C82.1005 119.562 82.4218 120.286 83.0658 120.808C83.7094 121.329 84.5417 121.589 85.5627 121.589ZM84.6702 123.712C83.6058 123.712 82.6641 123.522 81.8451 123.146C81.0262 122.767 80.3844 122.222 79.9216 121.509C79.4597 120.796 79.2277 119.935 79.2277 118.925C79.2277 117.095 79.8654 115.733 81.1423 114.839C82.4196 113.946 84.468 113.467 87.2863 113.403L90.2386 113.324V112.031C90.2386 111.02 89.9351 110.22 89.3295 109.629C88.7234 109.039 87.7808 108.743 86.5045 108.743C85.557 108.754 84.726 108.977 84.007 109.414C83.2898 109.85 82.8235 110.563 82.6114 111.552H80.0096C80.0743 110.478 80.3769 109.571 80.9201 108.832C81.4623 108.092 82.2201 107.531 83.1939 107.147C84.1668 106.765 85.3183 106.573 86.6473 106.573C88.0844 106.573 89.2782 106.776 90.231 107.18C91.1825 107.584 91.8943 108.18 92.3688 108.967C92.8418 109.754 93.0792 110.722 93.0792 111.871V123.392H90.5577L90.3515 120.296C89.7133 121.584 88.901 122.476 87.917 122.969C86.9316 123.464 85.8507 123.712 84.6702 123.712" fill="#100F0D"/>
<path d="M101.713 123.6C100.819 123.6 100.099 123.478 99.5497 123.232C99.0025 122.988 98.5821 122.659 98.2885 122.244C97.9975 121.828 97.8003 121.353 97.6998 120.816C97.598 120.279 97.5468 119.723 97.5468 119.148V99.68H100.452V118.86C100.452 119.69 100.614 120.313 100.939 120.728C101.262 121.143 101.717 121.371 102.302 121.413L103.196 121.429V123.344C102.951 123.418 102.696 123.48 102.43 123.528C102.165 123.576 101.925 123.6 101.713 123.6" fill="#100F0D"/>
<path d="M109.755 106.893V123.392H106.899V106.893H109.755ZM109.82 100.334V103.398H106.803V100.334H109.82Z" fill="#100F0D"/>
<path d="M120.079 121.589C120.632 121.589 121.184 121.489 121.73 121.285C122.279 121.084 122.781 120.81 123.24 120.464C123.696 120.119 124.061 119.731 124.333 119.3C124.603 118.869 124.745 118.425 124.755 117.968V115.143L122.297 115.19C121.042 115.212 119.992 115.34 119.147 115.573C118.3 115.807 117.668 116.174 117.247 116.674C116.825 117.175 116.617 117.829 116.617 118.637C116.617 119.562 116.938 120.286 117.581 120.808C118.226 121.329 119.058 121.589 120.079 121.589ZM119.187 123.712C118.122 123.712 117.18 123.522 116.361 123.146C115.542 122.767 114.901 122.222 114.438 121.509C113.976 120.796 113.744 119.935 113.744 118.925C113.744 117.095 114.382 115.733 115.659 114.839C116.936 113.946 118.984 113.467 121.803 113.403L124.755 113.324V112.031C124.755 111.02 124.451 110.22 123.846 109.629C123.24 109.039 122.297 108.743 121.02 108.743C120.073 108.754 119.243 108.977 118.524 109.414C117.807 109.85 117.34 110.563 117.128 111.552H114.526C114.59 110.478 114.893 109.571 115.437 108.832C115.979 108.092 116.736 107.531 117.711 107.147C118.683 106.765 119.835 106.573 121.163 106.573C122.601 106.573 123.796 106.776 124.747 107.18C125.699 107.584 126.411 108.18 126.885 108.967C127.358 109.754 127.596 110.722 127.596 111.871V123.392H125.074L124.867 120.296C124.23 121.584 123.417 122.476 122.434 122.969C121.448 123.464 120.367 123.712 119.187 123.712Z" fill="#100F0D"/>
<path d="M131.935 123.392V106.893H134.792V109.286C135.056 108.828 135.426 108.398 135.9 107.993C136.373 107.59 136.949 107.265 137.623 107.02C138.299 106.776 139.079 106.652 139.961 106.652C141.004 106.652 141.964 106.861 142.841 107.275C143.719 107.691 144.422 108.337 144.949 109.214C145.476 110.092 145.737 111.222 145.737 112.606V123.392H142.785V112.892C142.785 111.605 142.447 110.65 141.773 110.028C141.097 109.406 140.221 109.095 139.147 109.095C138.403 109.095 137.707 109.214 137.057 109.454C136.409 109.693 135.881 110.055 135.478 110.539C135.072 111.023 134.87 111.632 134.87 112.366V123.392H131.935" fill="#100F0D"/>
<path d="M15.4623 129.989H18.4146V153.064H15.7814L3.399 134.873V153.064H0.446777V129.989H3.27092L15.4623 147.926V129.989Z" fill="#100F0D"/>
<path d="M28.9315 151.262C29.484 151.262 30.0361 151.16 30.5828 150.958C31.1295 150.756 31.6329 150.482 32.0899 150.136C32.5478 149.79 32.9124 149.403 33.1846 148.971C33.4546 148.54 33.5952 148.096 33.6077 147.639V144.814L31.1496 144.861C29.8945 144.883 28.8445 145.011 27.9979 145.245C27.1521 145.478 26.5192 145.846 26.0989 146.347C25.678 146.847 25.4696 147.502 25.4696 148.309C25.4696 149.235 25.7896 149.958 26.4345 150.48C27.0762 151.001 27.9104 151.262 28.9315 151.262V151.262ZM28.0367 153.384C26.9745 153.384 26.0306 153.194 25.2139 152.817C24.3941 152.439 23.7536 151.894 23.2904 151.181C22.8276 150.469 22.5963 149.607 22.5963 148.596C22.5963 146.767 23.2345 145.404 24.5109 144.511C25.7873 143.617 27.8349 143.138 30.6533 143.074L33.6077 142.994V141.702C33.6077 140.691 33.3038 139.891 32.6982 139.301C32.0899 138.71 31.1496 138.415 29.8732 138.415C28.9248 138.425 28.0925 138.649 27.3752 139.086C26.6576 139.521 26.1912 140.234 25.9793 141.223H23.3773C23.4421 140.149 23.7456 139.242 24.2878 138.503C24.83 137.763 25.5888 137.202 26.5608 136.819C27.536 136.436 28.686 136.244 30.016 136.244C31.453 136.244 32.6469 136.448 33.5974 136.852C34.5516 137.256 35.2634 137.852 35.7375 138.638C36.2097 139.425 36.4484 140.394 36.4484 141.542V153.064H33.9268L33.7193 149.969C33.0797 151.257 32.2675 152.147 31.2857 152.642C30.3007 153.137 29.2184 153.384 28.0367 153.384" fill="#100F0D"/>
<path d="M48.4635 138.718H44.745V148.98C44.745 149.563 44.8061 149.992 44.9279 150.264C45.0507 150.536 45.2582 150.709 45.5505 150.783C45.8437 150.857 46.2445 150.895 46.7554 150.895H48.5585V152.872C48.3563 152.948 48.0498 153.011 47.6413 153.064C47.2316 153.118 46.7242 153.144 46.1172 153.144C44.9793 153.144 44.0965 152.99 43.4672 152.682C42.8402 152.372 42.4019 151.916 42.1519 151.309C41.902 150.703 41.7771 149.958 41.7771 149.076V138.718H39.0957V136.564H41.8574L42.5737 131.761H44.745V136.548H48.4635V138.718" fill="#100F0D"/>
<path d="M55.5796 136.564V153.064H52.7233V136.564H55.5796ZM55.6433 130.005V133.069H52.6273V130.005H55.6433Z" fill="#100F0D"/>
<path d="M67.0059 151.054C67.9931 151.054 68.8291 150.805 69.5097 150.303C70.1911 149.804 70.708 149.086 71.057 148.149C71.4087 147.214 71.585 146.101 71.585 144.814C71.585 143.633 71.431 142.571 71.1217 141.631C70.8129 140.688 70.3205 139.941 69.6458 139.388C68.9696 138.836 68.0905 138.558 67.0059 138.558C66.0049 138.558 65.1584 138.806 64.4675 139.301C63.7757 139.795 63.2526 140.51 62.8956 141.446C62.5395 142.383 62.3609 143.505 62.3609 144.814C62.3609 145.973 62.5207 147.027 62.8399 147.973C63.159 148.92 63.6596 149.671 64.3402 150.224C65.0208 150.777 65.909 151.054 67.0059 151.054V151.054ZM67.0059 153.384C65.4827 153.384 64.1528 153.056 63.0148 152.402C61.8767 151.748 60.9944 150.789 60.3669 149.522C59.739 148.255 59.4243 146.709 59.4243 144.878C59.4243 143.154 59.7179 141.644 60.3027 140.346C60.8873 139.048 61.7473 138.04 62.88 137.322C64.0131 136.604 65.3868 136.244 67.0059 136.244C68.5265 136.244 69.8476 136.577 70.97 137.242C72.0924 137.907 72.9626 138.882 73.5785 140.17C74.1966 141.457 74.5045 143.027 74.5045 144.878C74.5045 146.559 74.2203 148.038 73.6513 149.314C73.0818 150.592 72.2419 151.588 71.1297 152.307C70.0185 153.024 68.6425 153.384 67.0059 153.384" fill="#100F0D"/>
<path d="M78.0629 153.064V136.564H80.9201V138.958C81.1842 138.499 81.5551 138.069 82.0291 137.664C82.5021 137.261 83.077 136.937 83.7518 136.691C84.4279 136.448 85.2066 136.324 86.0895 136.324C87.1325 136.324 88.0919 136.532 88.9703 136.947C89.8472 137.362 90.5502 138.008 91.0763 138.886C91.6033 139.763 91.8653 140.894 91.8653 142.277V153.064H88.9144V142.563C88.9144 141.277 88.5761 140.322 87.9014 139.699C87.2252 139.078 86.3492 138.766 85.2759 138.766C84.5305 138.766 83.8343 138.886 83.185 139.125C82.5369 139.364 82.009 139.727 81.6064 140.21C81.2012 140.694 80.9995 141.303 80.9995 142.038V153.064H78.0629" fill="#100F0D"/>
<path d="M101.569 151.262C102.123 151.262 102.672 151.16 103.22 150.958C103.768 150.756 104.27 150.482 104.729 150.136C105.186 149.79 105.551 149.403 105.822 148.971C106.093 148.54 106.234 148.096 106.245 147.639V144.814L103.787 144.861C102.532 144.883 101.482 145.011 100.635 145.245C99.7907 145.478 99.1569 145.846 98.736 146.347C98.3156 146.847 98.1067 147.502 98.1067 148.309C98.1067 149.235 98.4272 149.958 99.0722 150.48C99.7148 151.001 100.548 151.262 101.569 151.262ZM100.675 153.384C99.6121 153.384 98.6691 153.194 97.8515 152.817C97.0312 152.439 96.3908 151.894 95.928 151.181C95.4656 150.469 95.234 149.607 95.234 148.596C95.234 146.767 95.8722 145.404 97.1486 144.511C98.4249 143.617 100.473 143.138 103.292 143.074L106.245 142.994V141.702C106.245 140.691 105.941 139.891 105.336 139.301C104.729 138.71 103.787 138.415 102.509 138.415C101.563 138.425 100.731 138.649 100.012 139.086C99.2953 139.521 98.8297 140.234 98.6169 141.223H96.015C96.0797 140.149 96.3819 139.242 96.9263 138.503C97.4685 137.763 98.225 137.202 99.1993 136.819C100.173 136.436 101.324 136.244 102.654 136.244C104.091 136.244 105.285 136.448 106.236 136.852C107.189 137.256 107.901 137.852 108.375 138.638C108.848 139.425 109.085 140.394 109.085 141.542V153.064H106.563L106.356 149.969C105.718 151.257 104.906 152.147 103.923 152.642C102.938 153.137 101.856 153.384 100.675 153.384" fill="#100F0D"/>
<path d="M117.719 153.272C116.824 153.272 116.104 153.15 115.556 152.905C115.009 152.661 114.587 152.33 114.296 151.916C114.003 151.501 113.807 151.024 113.705 150.487C113.604 149.951 113.553 149.395 113.553 148.82V129.352H116.457V148.532C116.457 149.363 116.619 149.985 116.944 150.399C117.268 150.814 117.723 151.043 118.308 151.085L119.202 151.103V153.016C118.958 153.09 118.702 153.152 118.436 153.2C118.171 153.248 117.931 153.272 117.719 153.272Z" fill="#100F0D"/>
<path d="M17.3131 174.755C17.3131 176.533 17.0212 178.038 16.4365 179.272C15.8505 180.506 14.9379 181.444 13.6994 182.088C12.4601 182.732 10.8512 183.054 8.87279 183.054C6.8725 183.054 5.25246 182.724 4.014 182.065C2.7742 181.404 1.86956 180.437 1.30053 179.16C0.731511 177.884 0.446777 176.314 0.446777 174.453V159.66H3.51058V174.9C3.51058 176.761 3.97384 178.155 4.89855 179.079C5.82461 180.006 7.1492 180.468 8.87279 180.468C10.0323 180.468 11.0186 180.266 11.8318 179.862C12.6463 179.458 13.2688 178.844 13.6994 178.02C14.1301 177.195 14.3457 176.154 14.3457 174.9V159.66H17.3131V174.755Z" fill="#100F0D"/>
<path d="M21.6226 182.734V166.235H24.4788V168.628C24.7444 168.171 25.1148 167.74 25.5888 167.335C26.0596 166.932 26.6367 166.607 27.3101 166.363C27.9853 166.117 28.7663 165.995 29.6491 165.995C30.6921 165.995 31.6507 166.202 32.5277 166.618C33.4056 167.033 34.1085 167.678 34.6364 168.557C35.1618 169.434 35.4242 170.564 35.4242 171.946V182.734H32.4719V172.236C32.4719 170.948 32.1336 169.993 31.4611 169.37C30.7849 168.747 29.9088 168.437 28.8347 168.437C28.0902 168.437 27.3931 168.557 26.7437 168.796C26.0962 169.034 25.5687 169.398 25.1648 169.881C24.76 170.365 24.5587 170.974 24.5587 171.709V182.734H21.6226" fill="#100F0D"/>
<path d="M42.8133 166.235V182.734H39.9571V166.235H42.8133ZM42.8781 159.676V162.74H39.8612V159.676H42.8781Z" fill="#100F0D"/>
<path d="M60.5736 166.235L54.6223 182.734H51.9409L45.9731 166.235H48.7504L53.1384 179.033H53.4097L57.8146 166.235H60.5736" fill="#100F0D"/>
<path d="M64.9463 173.176H73.9133C73.9133 172.229 73.7539 171.375 73.4348 170.614C73.1153 169.855 72.6293 169.253 71.9741 168.812C71.3203 168.369 70.4982 168.15 69.5097 168.15C68.4774 168.15 67.6241 168.397 66.948 168.892C66.2719 169.386 65.7676 170.019 65.4328 170.79C65.0968 171.562 64.9351 172.357 64.9463 173.176V173.176ZM64.9294 175.172C64.9294 176.213 65.1025 177.158 65.4485 178.003C65.7929 178.848 66.3209 179.523 67.0283 180.022C67.7343 180.522 68.6216 180.772 69.6847 180.772C70.7379 180.772 71.6452 180.527 72.4061 180.038C73.1658 179.548 73.653 178.84 73.8664 177.915H76.6593C76.4562 179.033 76.0095 179.974 75.3181 180.739C74.6265 181.505 73.7905 182.083 72.8132 182.471C71.8335 182.86 70.8115 183.054 69.7484 183.054C68.2065 183.054 66.8498 182.718 65.6805 182.049C64.5085 181.378 63.594 180.416 62.9345 179.16C62.2753 177.906 61.9451 176.399 61.9451 174.645C61.9451 172.91 62.2427 171.389 62.8385 170.081C63.4343 168.771 64.2988 167.75 65.4328 167.017C66.565 166.282 67.9298 165.915 69.5253 165.915C71.0779 165.915 72.3927 166.251 73.4669 166.921C74.5403 167.59 75.3584 168.535 75.9162 169.753C76.4749 170.972 76.7539 172.416 76.7539 174.086V175.172H64.9294" fill="#100F0D"/>
<path d="M80.473 182.734V166.235H83.2811V169.41C83.5591 168.623 83.946 167.971 84.4459 167.455C84.9471 166.939 85.5183 166.554 86.1619 166.298C86.8058 166.043 87.4731 165.915 88.1635 165.915C88.409 165.915 88.6486 165.931 88.882 165.962C89.1154 165.995 89.2971 166.049 89.4242 166.123V168.98C89.2659 168.905 89.0606 168.854 88.8106 168.828C88.5598 168.801 88.35 168.789 88.1813 168.789C87.5208 168.746 86.9041 168.786 86.3292 168.908C85.7558 169.031 85.2492 169.241 84.8132 169.537C84.3767 169.836 84.0343 170.226 83.7845 170.71C83.5345 171.195 83.4096 171.783 83.4096 172.474V182.734H80.473Z" fill="#100F0D"/>
<path d="M98.2643 183.054C97.116 183.054 96.0494 182.876 95.0644 182.52C94.0812 182.163 93.2636 181.604 92.6165 180.845C91.9667 180.082 91.5574 179.113 91.387 177.931H94.0679C94.2173 178.58 94.4851 179.121 94.8734 179.552C95.2617 179.982 95.7495 180.306 96.3341 180.525C96.9188 180.743 97.557 180.851 98.2488 180.851C99.3555 180.851 100.249 180.645 100.93 180.229C101.61 179.815 101.951 179.175 101.951 178.314C101.951 177.708 101.772 177.22 101.416 176.854C101.059 176.487 100.509 176.22 99.7647 176.049L96.3497 175.203C95.0198 174.883 93.9553 174.384 93.1588 173.703C92.3607 173.021 91.9613 172.07 91.9613 170.846C91.9515 169.879 92.1792 169.026 92.6473 168.294C93.1164 167.559 93.817 166.979 94.7543 166.554C95.6892 166.129 96.8549 165.915 98.2488 165.915C100.036 165.915 101.481 166.316 102.581 167.121C103.682 167.924 104.254 169.102 104.296 170.654H101.695C101.589 169.867 101.234 169.243 100.634 168.78C100.034 168.317 99.227 168.085 98.217 168.085C97.1629 168.085 96.3073 168.295 95.6477 168.717C94.9885 169.136 94.6583 169.787 94.6583 170.67C94.6583 171.256 94.8926 171.716 95.3598 172.052C95.8285 172.386 96.5203 172.665 97.4351 172.889L100.738 173.719C101.504 173.921 102.135 174.186 102.629 174.517C103.124 174.846 103.517 175.214 103.809 175.618C104.103 176.022 104.309 176.446 104.432 176.887C104.553 177.328 104.616 177.75 104.616 178.155C104.616 179.165 104.363 180.035 103.857 180.765C103.353 181.492 102.629 182.055 101.687 182.455C100.746 182.854 99.6055 183.054 98.2643 183.054" fill="#100F0D"/>
<path d="M111.605 166.235V182.734H108.75V166.235H111.605ZM111.67 159.676V162.74H108.654V159.676H111.67Z" fill="#100F0D"/>
<path d="M124.754 168.389H121.035V178.65C121.035 179.235 121.098 179.662 121.218 179.934C121.341 180.206 121.549 180.378 121.841 180.453C122.134 180.527 122.535 180.564 123.046 180.564H124.849V182.542C124.647 182.618 124.341 182.682 123.933 182.734C123.523 182.788 123.014 182.814 122.407 182.814C121.27 182.814 120.387 182.661 119.759 182.351C119.131 182.043 118.692 181.586 118.443 180.979C118.193 180.372 118.067 179.628 118.067 178.746V168.389H115.387V166.235H118.148L118.866 161.432H121.035V166.218H124.754V168.389Z" fill="#100F0D"/>
<path d="M130.419 188C129.451 188 128.604 187.862 127.881 187.585V185.67L129.556 185.702C130.174 185.724 130.685 185.682 131.088 185.574C131.493 185.47 131.816 185.325 132.062 185.145C132.306 184.963 132.495 184.761 132.628 184.537C132.762 184.313 132.871 184.101 132.956 183.899L133.53 182.337L127.084 166.235H130.067L134.934 178.968L139.769 166.235H142.658L135.701 183.979C135.274 185.021 134.799 185.836 134.272 186.421C133.747 187.006 133.16 187.415 132.518 187.651C131.872 187.884 131.174 188 130.419 188Z" fill="#100F0D"/>
<path d="M1.67631 -0.00111462C1.48574 -0.00111462 1.29473 0.050305 1.14879 0.177124C0.999284 0.30737 0.905563 0.493587 0.895298 0.693526C0.889942 0.815775 0.249512 12.9881 0.249512 28.6039C0.249512 44.8538 1.33178 53.5586 4.24027 60.7221C7.1916 67.9919 11.7469 71.5828 20.8392 76.8811C29.5442 81.9501 33.1869 82.6347 35.6147 82.6347C38.0461 82.6347 41.6878 81.9501 50.3906 76.8811C59.486 71.5828 64.0404 67.9919 66.9935 60.7221C69.9003 53.5586 70.9811 44.8538 70.9811 28.6039C70.9811 12.9881 70.3421 0.815775 70.3363 0.693526C70.3251 0.493587 70.2358 0.30737 70.0818 0.177124C69.9346 0.0468775 69.7418 -0.00111462 69.5441 -0.00111462C69.5441 -0.00111462 1.86822 -0.00111462 1.67631 -0.00111462V-0.00111462ZM68.7845 1.59726C68.9318 4.70831 69.3879 15.4548 69.3879 28.6039C69.3879 44.6253 68.3382 53.1679 65.5162 60.1212C64.1515 63.4836 62.4213 66.0291 59.9078 68.3758C57.6481 70.4849 54.658 72.5505 49.5881 75.5034C45.7098 77.7626 42.6148 79.2835 40.1244 80.1538C37.8765 80.9401 36.5341 81.0405 35.6147 81.0405C34.6975 81.0405 33.3555 80.9401 31.1072 80.1538C28.6159 79.283 25.5195 77.7626 21.6412 75.5034C16.5727 72.5494 13.5835 70.4849 11.3243 68.3758C8.81164 66.0291 7.08226 63.4836 5.7175 60.1223C2.8938 53.1679 1.84367 44.6253 1.84367 28.6039C1.84367 15.4628 2.30023 4.72888 2.44617 1.6064L68.7845 1.59726" fill="#B97D1C"/>
<path d="M56.0585 19.6649L55.294 17.5273L54.5376 19.6284L52.2806 19.7186L54.0734 21.1045L53.433 23.2615L55.2873 21.9831L57.1572 23.2615L56.5155 21.0816L58.3078 19.7186L56.0585 19.6649" fill="#B97D1C"/>
<path d="M53.4174 31.7824L55.1312 33.3659L54.9616 31.0386L57.268 30.6867L55.3423 29.3683L56.5048 27.3449L54.2743 28.0281L53.4174 25.8573L52.5605 28.0281L50.3291 27.3449L51.4917 29.3683L49.5673 30.6867L51.8732 31.0386L51.7036 33.3659L53.4174 31.7824Z" fill="#B97D1C"/>
<path d="M62.7234 18.9805L64.4372 20.564L64.2681 18.2367L66.574 17.8848L64.6496 16.5664L65.8122 14.543L63.5803 15.2262L62.7234 13.0555L61.8666 15.2262L59.6365 14.543L60.799 16.5664L58.8733 17.8848L61.1797 18.2367L61.0097 20.564L62.7234 18.9805" fill="#B97D1C"/>
<path d="M54.3969 10.2518L56.1107 11.8364L55.9411 9.50913L58.2484 9.1561L56.3227 7.83879L57.4852 5.81426L55.2538 6.49862L54.3969 4.32786L53.5414 6.49862L51.3099 5.81426L52.4725 7.83879L50.5468 9.1561L52.8541 9.50913L52.6845 11.8364L54.3969 10.2518Z" fill="#B97D1C"/>
<path d="M44.5641 17.8175L46.2779 19.3998L46.1082 17.0737L48.4143 16.7206L46.4898 15.4022L47.6524 13.38L45.421 14.0632L44.5641 11.8924L43.7072 14.0632L41.4766 13.38L42.6392 15.4022L40.7135 16.7206L43.0194 17.0737L42.8503 19.3998L44.5641 17.8175" fill="#B97D1C"/>
<path d="M53.5034 37.3179C44.0665 32.8061 37.7247 29.6048 35.4384 29.6048C33.1534 29.6048 27.1775 32.8061 17.7415 37.3179C8.30597 41.8308 5.08374 42.7985 5.08374 44.7716C5.08374 46.7458 7.4 45.8067 8.10425 45.5953C8.8094 45.384 32.8877 37.5932 35.4384 37.5932C37.9889 37.5932 62.4346 45.384 63.1398 45.5953C63.845 45.8067 66.1603 46.7458 66.1603 44.7716C66.1603 42.7985 62.9376 41.8308 53.5034 37.3179" fill="#B97D1C"/>
<path d="M58.9268 52.0676C54.8351 53.4409 51.5853 56.4343 47.0531 55.5808C43.0802 54.8347 39.7821 51.4026 35.6093 51.4541C31.0414 51.5123 27.5939 55.446 23.1117 55.8207C18.706 56.1886 15.2785 52.6297 11.1712 51.7877C9.3146 51.4072 7.68563 51.6631 6.13477 52.1955C6.4494 53.7242 6.81447 55.1318 7.23488 56.4571C8.45772 56.1624 9.74751 56.0789 11.1712 56.3703C15.2785 57.2135 18.706 60.7712 23.1117 60.4045C27.5939 60.0297 31.0414 56.0949 35.6093 56.0378C39.7821 55.9853 43.0802 59.4162 47.0531 60.1646C51.5853 61.0169 54.8351 58.0246 58.9268 56.6502C60.7556 56.0367 62.39 56.0892 63.9431 56.4765C64.3639 55.1535 64.7286 53.7482 65.0432 52.223C63.1576 51.5706 61.1917 51.3067 58.9268 52.0676Z" fill="#B97D1C"/>
<path d="M58.9268 61.2328C54.8352 62.6073 51.5853 65.5995 47.0532 64.7472C43.0802 64 39.7821 60.5679 35.6093 60.6204C31.0415 60.6787 27.594 64.6124 23.1118 64.986C18.706 65.3539 15.2785 61.7949 11.1712 60.9541C10.3924 60.7941 9.65516 60.7473 8.94556 60.7838C9.87474 62.6518 11.0306 64.2685 12.4511 65.7252C12.4958 65.7709 12.5405 65.804 12.5971 65.8326C13.0604 66.0565 15.4445 67.2127 16.6352 67.8103C18.6635 68.8305 20.7813 69.7639 23.1118 69.5697C27.594 69.195 31.0415 65.2613 35.6093 65.2042C39.7821 65.1505 43.0802 68.5826 47.0532 69.3298C49.8269 69.8519 52.1632 68.9128 54.4638 67.8068C55.6586 67.2321 58.2128 65.9651 58.6902 65.7275C58.7483 65.6989 58.792 65.6646 58.8353 65.6189C60.1844 64.2045 61.3426 62.5856 62.2383 60.7872C61.1939 60.7198 60.1005 60.8398 58.9268 61.2328" fill="#B97D1C"/>
<path d="M24.3561 73.957C26.1792 74.9848 27.7979 75.8212 29.2371 76.4808C31.2602 75.427 33.2908 74.3988 35.6093 74.3694C37.9265 74.3404 39.9727 75.3851 42.0154 76.4487C43.4686 75.7796 45.1029 74.9308 46.9438 73.89C43.0195 73.1012 39.7442 69.7342 35.6093 69.7868C31.4722 69.8394 28.2544 73.0692 24.3561 73.957" fill="#B97D1C"/>
<path d="M50.3713 46.4042C45.537 44.927 42.2309 43.9627 39.9717 43.3332C37.8206 42.7345 36.8164 42.506 36.1524 42.338C35.9551 42.2878 35.6213 42.2249 35.5098 42.2044C35.3616 42.2318 35.1584 42.2741 34.8805 42.3369C34.3226 42.4649 33.4635 42.6808 32.1447 43.0453C29.9056 43.6622 26.3362 44.7042 20.6584 46.4648C18.8362 47.0292 16.7958 47.6678 14.5129 48.3899C17.301 49.7175 19.9756 51.5032 23.1599 51.237C27.6416 50.8634 31.0892 46.9298 35.657 46.8715C39.8298 46.819 43.1279 50.2511 47.1013 50.9983C50.7944 51.6929 53.635 49.8363 56.7733 48.3808C54.3857 47.637 52.2613 46.9812 50.3713 46.4042" fill="#B97D1C"/>
</g>
<defs>
<clipPath id="clip0_431:4332">
<rect width="145.739" height="188" fill="white"/>
</clipPath>
</defs>
</svg>
