<svg width="50" height="59" viewBox="0 0 50 59" fill="none" xmlns="http://www.w3.org/2000/svg">
<g clip-path="url(#clip0_431:4349)">
<path d="M44.4558 32.2371C43.9574 32.0877 26.6782 26.5802 24.8739 26.5802C23.071 26.5802 6.05009 32.0877 5.55309 32.2371C5.0547 32.3863 3.41806 33.0501 3.41806 31.6551C3.41806 30.2595 5.69548 29.5765 12.3651 26.385C19.0357 23.1962 23.2594 20.934 24.8739 20.934C26.4908 20.934 30.9732 23.1962 37.6437 26.385C44.3134 29.5765 46.5917 30.2595 46.5917 31.6551C46.5917 33.0501 44.9541 32.3863 44.4558 32.2371ZM10.0831 34.2122C11.6968 33.7024 13.1391 33.2499 14.4275 32.8516C18.4408 31.6077 20.9627 30.8705 22.5464 30.4341C23.4789 30.1768 24.0862 30.0243 24.4803 29.9334C24.6765 29.8889 24.8202 29.859 24.9259 29.8407C25.004 29.8544 25.2392 29.899 25.3792 29.9348C25.8491 30.0529 26.5588 30.2137 28.0792 30.6376C29.6764 31.0831 32.0135 31.7653 35.4311 32.808C36.7663 33.2168 38.2684 33.6793 39.9555 34.2067C37.7369 35.2342 35.7296 36.547 33.1192 36.0564C30.3103 35.5282 27.9792 33.1019 25.0293 33.1397C21.8001 33.18 19.3632 35.9614 16.1947 36.2255C13.9439 36.4138 12.0537 35.1516 10.0831 34.2122V34.2122ZM45.0244 39.9287C43.9266 39.6554 42.7714 39.6177 41.4782 40.0518C38.5853 41.0233 36.2887 43.1386 33.0848 42.5355C30.2758 42.0073 27.9447 39.581 24.9957 39.6186C21.7666 39.6591 19.3288 42.4404 16.1617 42.7045C13.0458 42.9649 10.6228 40.4492 7.7198 39.8543C6.71385 39.6476 5.80205 39.7073 4.93849 39.915C4.6413 38.9779 4.38268 37.9825 4.16128 36.903C5.25681 36.5263 6.40838 36.3449 7.7198 36.6145C10.6228 37.2094 13.0458 39.7256 16.1617 39.4648C19.3288 39.2006 21.7666 36.4193 24.9957 36.3793C27.9447 36.3412 30.2758 38.768 33.0848 39.2962C36.2887 39.8989 38.5853 37.7836 41.4782 36.8121C43.0791 36.2747 44.4695 36.4607 45.8016 36.9223C45.5789 37.9995 45.3216 38.994 45.0244 39.9287V39.9287ZM41.414 46.3907C41.3827 46.4238 41.3519 46.4481 41.3116 46.4674C40.973 46.6365 39.1678 47.5322 38.3235 47.9387C36.6974 48.7205 35.0461 49.3834 33.0848 49.0145C30.2758 48.4863 27.9447 46.0609 24.9957 46.0977C21.7666 46.139 19.3288 48.9194 16.1617 49.1845C14.5135 49.3214 13.0161 48.6608 11.5829 47.941C10.7414 47.5171 9.05557 46.7008 8.72944 46.5423C8.6881 46.5226 8.65687 46.4987 8.62472 46.4666C7.62105 45.4363 6.80342 44.2938 6.14655 42.9741C6.64862 42.948 7.16998 42.9811 7.7198 43.0936C10.6228 43.6885 13.0458 46.2047 16.1617 45.9438C19.3288 45.6797 21.7666 42.8998 24.9957 42.8584C27.9447 42.8216 30.2758 45.2469 33.0848 45.7753C36.2887 46.3779 38.5853 44.2626 41.4782 43.2911C42.3083 43.0132 43.0813 42.9283 43.8186 42.9755C43.1857 44.2466 42.3671 45.3917 41.414 46.3907ZM29.5248 54.0466C28.0802 53.2956 26.6332 52.556 24.9957 52.5767C23.3558 52.5974 21.9218 53.3245 20.4909 54.0696C19.4735 53.6034 18.3297 53.0122 17.0398 52.285C19.796 51.658 22.071 49.3742 24.9957 49.3374C27.9171 49.3007 30.2335 51.681 33.008 52.2382C31.7067 52.974 30.5505 53.5735 29.5248 54.0466V54.0466ZM31.3438 9.64651C32.2648 9.64651 33.0113 10.393 33.0113 11.314C33.0113 12.2349 32.2648 12.9814 31.3438 12.9814C30.4228 12.9814 29.6764 12.2349 29.6764 11.314C29.6764 10.393 30.4228 9.64651 31.3438 9.64651ZM37.6024 19.4801C38.5224 19.4801 39.2688 20.2266 39.2688 21.1476C39.2688 22.0685 38.5224 22.815 37.6024 22.815C36.6814 22.815 35.9349 22.0685 35.9349 21.1476C35.9349 20.2266 36.6814 19.4801 37.6024 19.4801ZM40.1577 14.5928C40.1577 15.2712 39.6073 15.8201 38.929 15.8201C38.25 15.8201 37.7002 15.2712 37.7002 14.5928C37.7002 13.9138 38.25 13.3641 38.929 13.3641C39.6073 13.3641 40.1577 13.9138 40.1577 14.5928ZM38.295 4.26998C39.216 4.26998 39.9625 5.01633 39.9625 5.93731C39.9625 6.85747 39.216 7.60382 38.295 7.60382C37.374 7.60382 36.6276 6.85747 36.6276 5.93731C36.6276 5.01633 37.374 4.26998 38.295 4.26998ZM44.1801 10.4357C45.1011 10.4357 45.8476 11.1821 45.8476 12.1031C45.8476 13.0227 45.1011 13.7692 44.1801 13.7692C43.2591 13.7692 42.5127 13.0227 42.5127 12.1031C42.5127 11.1821 43.2591 10.4357 44.1801 10.4357ZM49.543 0.496459C49.5361 0.355467 49.4718 0.223178 49.3638 0.130751C49.2595 0.0393819 49.124 0.00539676 48.984 0.00539676C48.984 0.00539676 1.14432 0.00539676 1.00881 0.00539676C0.873303 0.00539676 0.739176 0.0417337 0.635823 0.130751C0.530174 0.223178 0.46357 0.355467 0.456679 0.496459C0.453005 0.582772 -0.000366211 9.18719 -0.000366211 20.2266C-0.000366211 31.7134 0.764439 37.8663 2.82092 42.9296C4.90771 48.0696 8.1277 50.6075 14.5548 54.3521C20.7078 57.9363 23.2823 58.4196 24.9994 58.4196C26.7182 58.4196 29.292 57.9363 35.4448 54.3521C41.8733 50.6075 45.0933 48.0696 47.1811 42.9296C49.2352 37.8663 50 31.7134 50 20.2266C50 9.18719 49.5476 0.582772 49.543 0.496459" fill="white"/>
</g>
<defs>
<clipPath id="clip0_431:4349">
<rect width="50" height="58.4196" fill="white"/>
</clipPath>
</defs>
</svg>
