<svg width="100" height="117" viewBox="0 0 100 117" fill="none" xmlns="http://www.w3.org/2000/svg">
<g clip-path="url(#clip0_428:3778)">
<path d="M2.01857 0.0106221C1.74756 0.0106221 1.47838 0.0823552 1.27168 0.26133C1.06038 0.447125 0.927171 0.710761 0.91339 0.993687C0.904203 1.16443 -0.000701904 18.3761 -0.000701904 40.4521C-0.000701904 63.4257 1.52891 75.7314 5.64279 85.8589C9.81362 96.1382 16.2554 101.214 29.1105 108.705C41.4165 115.872 46.5647 116.84 49.9988 116.84C53.4346 116.84 58.5839 115.872 70.8869 108.705C83.7467 101.214 90.1867 96.1382 94.3622 85.8589C98.4713 75.7314 99.9981 63.4257 99.9981 40.4521C99.9981 18.3761 99.0959 1.16443 99.0868 0.993687C99.0731 0.710761 98.9445 0.447125 98.7276 0.26133C98.519 0.079533 98.2453 0.0115623 97.968 0.0115623C97.968 0.0115623 2.28958 0.0115628 2.01857 0.0106221V0.0106221ZM96.893 2.27144C97.0997 6.66937 97.7455 21.8615 97.7455 40.4521C97.7455 63.1023 96.262 75.1792 92.2749 85.0101C90.3429 89.7634 87.8972 93.3628 84.3438 96.6802C81.1496 99.6623 76.9207 102.582 69.7552 106.757C64.2704 109.951 59.8958 112.101 56.3744 113.331C53.1959 114.443 51.2987 114.585 49.9988 114.585C48.7006 114.585 46.8045 114.443 43.6249 113.331C40.1044 112.101 35.7269 109.951 30.2453 106.757C23.0767 102.582 18.8507 99.6613 15.6583 96.6802C12.1057 93.3628 9.65927 89.7634 7.73004 85.012C3.73834 75.1802 2.25467 63.1033 2.25467 40.4521C2.25467 21.8726 2.89775 6.69689 3.1072 2.28249L96.893 2.27144" fill="#B97D1C"/>
<path d="M78.9003 27.8131L77.821 24.7924L76.7507 27.7625L73.5609 27.8893L76.0967 29.8507L75.1889 32.8998L77.8116 31.0908L80.4558 32.8998L79.548 29.8175L82.0818 27.8893L78.9003 27.8131" fill="#B97D1C"/>
<path d="M75.1658 44.9457L77.5884 47.1835L77.3507 43.8937L80.6119 43.3958L77.8899 41.5318L79.5325 38.6719L76.3786 39.6383L75.1658 36.5699L73.956 39.6383L70.8022 38.6719L72.4438 41.5318L69.7227 43.3958L72.984 43.8937L72.7453 47.1835L75.1658 44.9457" fill="#B97D1C"/>
<path d="M88.3243 26.8467L90.7467 29.0854L90.5079 25.7956L93.7674 25.2978L91.0453 23.4337L92.6897 20.5729L89.5369 21.5402L88.3243 18.4718L87.1133 21.5402L83.9576 20.5729L85.602 23.4337L82.88 25.2978L86.1422 25.7956L85.9007 29.0854L88.3243 26.8467Z" fill="#B97D1C"/>
<path d="M76.5531 14.5077L78.9767 16.7465L78.7349 13.4567L81.9962 12.9579L79.2742 11.0948L80.9195 8.23399L77.7638 9.19942L76.5531 6.13122L75.3405 9.19942L72.1874 8.23399L73.832 11.0948L71.1098 12.9579L74.3694 13.4567L74.1296 16.7465L76.5531 14.5077Z" fill="#B97D1C"/>
<path d="M62.6517 25.2011L65.074 27.4401L64.8334 24.1503L68.0938 23.6515L65.3727 21.7884L67.0171 18.9285L63.8614 19.894L62.6517 16.8255L61.4407 19.894L58.285 18.9285L59.9294 21.7884L57.2074 23.6515L60.4687 24.1503L60.2281 27.4401L62.6517 25.2011" fill="#B97D1C"/>
<path d="M75.2872 52.7719C61.9462 46.3925 52.9824 41.8671 49.7486 41.8671C46.5195 41.8671 38.0694 46.3925 24.73 52.7719C11.389 59.1522 6.83411 60.5181 6.83411 63.3093C6.83411 66.1011 10.1092 64.7716 11.1041 64.4732C12.1009 64.1764 46.1428 53.1613 49.7486 53.1613C53.3563 53.1613 87.9153 64.1764 88.9123 64.4732C89.9081 64.7716 93.1842 66.1011 93.1842 63.3093C93.1842 60.5181 88.6275 59.1522 75.2872 52.7719" fill="#B97D1C"/>
<path d="M82.9563 73.6251C77.1714 75.5663 72.5781 79.7968 66.17 78.5924C60.5524 77.535 55.8902 72.6825 49.9894 72.7578C43.531 72.8396 38.6573 78.4022 32.3213 78.9304C26.0924 79.4504 21.2464 74.4198 15.4403 73.2281C12.8147 72.6898 10.5134 73.0527 8.32053 73.8053C8.76608 75.9659 9.2824 77.9567 9.87495 79.829C11.6048 79.4137 13.4284 79.2951 15.4403 79.7077C21.2464 80.8984 26.0924 85.929 32.3213 85.409C38.6573 84.8807 43.531 79.3191 49.9894 79.2364C55.8902 79.162 60.5524 84.0155 66.17 85.072C72.5781 86.2763 77.1714 82.0458 82.9563 80.1037C85.5426 79.2354 87.853 79.31 90.0487 79.8565C90.643 77.9871 91.1583 76.0007 91.603 73.8438C88.9398 72.9205 86.158 72.5503 82.9563 73.6251" fill="#B97D1C"/>
<path d="M82.9562 86.5833C77.1714 88.5242 72.5781 92.7568 66.17 91.5506C60.5524 90.4939 55.8901 85.6425 49.9894 85.7169C43.531 85.7987 38.6573 91.3603 32.3212 91.8895C26.0924 92.4085 21.2464 87.3777 15.4403 86.1882C14.3398 85.9612 13.297 85.8951 12.2938 85.9473C13.6076 88.5877 15.2428 90.8735 17.2501 92.9332C17.3144 92.9974 17.376 93.0452 17.4569 93.0847C18.1109 93.4016 21.4825 95.0351 23.1665 95.8812C26.0327 97.3226 29.0277 98.6427 32.3212 98.3681C38.6573 97.8389 43.531 92.2771 49.9894 92.1964C55.8901 92.1209 60.5524 96.9735 66.17 98.03C70.0919 98.7677 73.3946 97.4402 76.6477 95.8766C78.3353 95.0645 81.9459 93.2721 82.6237 92.9358C82.7036 92.8954 82.7662 92.8486 82.8278 92.7825C84.734 90.7834 86.372 88.4941 87.6371 85.9511C86.1625 85.8575 84.6164 86.0254 82.9562 86.5833Z" fill="#B97D1C"/>
<path d="M34.0795 104.572C36.6592 106.023 38.9469 107.206 40.9817 108.14C43.8434 106.649 46.7114 105.196 49.9894 105.154C53.2662 105.113 56.1611 106.59 59.0475 108.094C61.1009 107.147 63.4142 105.947 66.0158 104.476C60.4668 103.361 55.834 98.6014 49.9894 98.6749C44.1418 98.7493 39.5927 103.317 34.0795 104.572Z" fill="#B97D1C"/>
<path d="M70.8619 65.6169C64.0268 63.5297 59.3506 62.1654 56.1583 61.2752C53.1173 60.4293 51.698 60.1075 50.7582 59.8688C50.4791 59.7971 50.0077 59.7089 49.8516 59.6804C49.6402 59.719 49.3537 59.7778 48.9605 59.8679C48.1721 60.0478 46.9577 60.3528 45.0926 60.8674C41.9261 61.7402 36.8824 63.2145 28.8532 65.7023C26.278 66.5017 23.3934 67.4039 20.1642 68.4255C24.1082 70.3023 27.8876 72.8267 32.3902 72.4511C38.7262 71.922 43.5999 66.3601 50.0583 66.2785C55.9591 66.204 60.6213 71.0556 66.2389 72.112C71.4591 73.0941 75.4736 70.4695 79.9109 68.4126C76.5376 67.3597 73.5324 66.4328 70.8619 65.6169" fill="#B97D1C"/>
</g>
<defs>
<clipPath id="clip0_428:3778">
<rect width="100" height="116.839" fill="white"/>
</clipPath>
</defs>
</svg>
