<?xml version="1.0" standalone="no"?>
<!DOCTYPE svg PUBLIC "-//W3C//DTD SVG 20010904//EN"
 "http://www.w3.org/TR/2001/REC-SVG-20010904/DTD/svg10.dtd">
<svg version="1.0" xmlns="http://www.w3.org/2000/svg"
 width="260.000000pt" height="260.000000pt" viewBox="0 0 260.000000 260.000000"
 preserveAspectRatio="xMidYMid meet">
<metadata>
Created by potrace 1.14, written by Peter Selinger 2001-2017
</metadata>
<g transform="translate(0.000000,260.000000) scale(0.100000,-0.100000)"
fill="#000000" stroke="none">
<path d="M270 2562 c-14 -2 -29 -7 -33 -12 -14 -13 -19 -207 -21 -735 -1 -468
3 -665 14 -665 3 0 5 -20 4 -45 0 -25 2 -45 5 -45 4 0 8 -12 9 -28 4 -57 25
-167 33 -178 6 -7 9 -16 8 -20 -1 -5 0 -11 1 -14 1 -3 3 -12 5 -20 8 -42 69
-177 102 -227 21 -31 43 -63 48 -72 22 -33 143 -142 184 -165 9 -5 18 -12 21
-16 3 -4 21 -15 40 -26 19 -10 37 -21 40 -24 12 -12 87 -60 94 -60 4 0 32 -16
62 -35 30 -19 56 -35 59 -35 3 0 28 -11 55 -25 47 -24 143 -64 165 -70 6 -1
18 -6 28 -10 36 -15 167 -10 232 9 57 17 268 116 273 129 2 4 8 7 13 7 6 0 35
16 65 35 30 19 58 35 63 35 4 0 16 9 26 20 10 11 23 20 30 20 6 0 21 9 33 20
12 12 22 17 22 13 0 -4 4 -3 8 2 4 6 30 28 57 50 85 67 167 159 192 215 4 8 9
17 13 20 10 8 69 161 76 197 4 18 9 31 13 29 3 -2 7 10 8 27 1 18 9 66 18 107
18 89 24 141 28 232 1 38 4 68 7 68 3 0 6 39 7 88 1 48 2 110 3 137 1 28 1 55
0 60 -1 6 -1 15 0 20 4 25 2 104 -4 114 -4 6 -4 11 1 11 7 0 9 145 3 175 -1 6
-1 15 0 20 1 6 1 33 0 60 -1 28 -3 113 -4 190 -1 77 -5 146 -10 153 -4 6 -3
12 2 12 5 0 6 19 3 43 -3 23 -6 74 -6 112 0 45 -5 75 -13 84 -13 13 -102 22
-102 10 0 -6 -67 -2 -79 5 -4 3 -22 1 -39 -3 -17 -5 -33 -6 -36 -3 -8 8 -86 9
-86 1 0 -6 -67 -2 -79 5 -4 3 -22 1 -39 -3 -17 -5 -33 -6 -36 -3 -8 8 -86 9
-86 1 0 -6 -67 -2 -79 5 -4 3 -22 1 -39 -3 -17 -5 -33 -6 -36 -3 -8 8 -86 9
-86 1 0 -6 -67 -2 -79 5 -4 3 -22 1 -39 -3 -17 -5 -33 -6 -36 -3 -8 8 -86 9
-86 1 0 -6 -67 -2 -79 5 -4 3 -22 1 -39 -3 -17 -5 -33 -6 -36 -3 -8 8 -86 9
-86 1 0 -6 -67 -2 -79 5 -4 3 -22 1 -39 -3 -17 -5 -33 -6 -36 -3 -8 8 -86 9
-86 1 0 -6 -67 -2 -79 5 -4 3 -22 1 -39 -3 -17 -5 -33 -6 -36 -3 -8 8 -86 9
-86 1 0 -6 -67 -2 -79 5 -4 3 -22 1 -39 -3 -17 -5 -33 -7 -36 -4 -9 9 -66 12
-66 4 0 -8 -30 -8 -45 0 -6 3 -21 3 -35 1z m1661 -225 c44 -55 -45 -136 -99
-90 -23 19 -40 83 -22 83 5 0 10 7 10 15 0 8 5 16 10 16 6 1 14 2 19 3 5 0 13
4 16 8 10 10 46 -9 66 -35z m-312 -221 c56 -51 -4 -140 -73 -111 -50 21 -60
72 -21 111 28 28 63 28 94 0z m541 -21 c17 -9 30 -21 31 -28 0 -6 2 -21 4 -32
5 -25 -24 -63 -50 -65 -39 -4 -66 0 -61 9 3 5 -1 11 -9 15 -21 8 -19 69 3 88
14 13 32 23 50 27 2 1 16 -6 32 -14z m-253 -112 c-4 -3 3 -11 15 -17 29 -15
34 -40 14 -71 -15 -23 -20 -24 -64 -10 -32 11 -27 63 8 87 25 18 39 24 27 11z
m-5 -311 c17 -29 14 -45 -11 -78 -18 -23 -70 -26 -95 -5 -23 20 -28 61 -11 88
32 49 87 47 117 -5z m-549 -39 c6 -4 17 -8 22 -8 21 -1 115 -40 115 -47 0 -5
6 -8 13 -8 7 0 32 -9 55 -20 22 -11 46 -20 52 -20 5 0 10 -4 10 -10 0 -5 5
-10 10 -10 15 0 159 -70 165 -81 3 -4 12 -6 20 -2 8 3 15 0 15 -6 0 -6 7 -11
15 -11 18 0 57 -20 67 -35 4 -5 8 -7 8 -3 0 3 32 -9 70 -28 39 -19 75 -34 80
-34 6 0 10 -4 10 -10 0 -5 7 -7 15 -4 8 4 15 1 15 -4 0 -6 10 -14 23 -18 25
-8 106 -64 91 -64 -5 0 -2 -5 6 -10 8 -5 10 -10 4 -10 -7 0 -11 -8 -10 -17 1
-13 -7 -18 -29 -19 -16 0 -35 3 -41 8 -7 5 -16 8 -20 7 -5 -1 -16 0 -24 4 -8
3 -55 17 -105 32 -49 15 -97 29 -105 33 -8 3 -18 6 -22 6 -3 1 -9 4 -13 8 -4
4 -13 4 -21 1 -8 -3 -14 -1 -14 4 0 5 -9 9 -20 10 -11 1 -34 8 -50 17 -17 8
-30 10 -30 5 0 -5 -11 -2 -25 7 -13 8 -29 13 -34 10 -5 -4 -12 -2 -15 3 -3 4
-20 12 -38 16 -18 4 -37 9 -43 11 -5 2 -39 11 -75 20 -36 9 -72 19 -80 22 -8
3 -18 6 -22 7 -5 2 -9 3 -10 5 -8 6 -60 11 -108 11 -72 -1 -80 -2 -80 -14 0
-6 -3 -8 -6 -4 -3 3 -23 -1 -45 -8 -22 -8 -42 -14 -44 -14 -11 1 -71 -14 -80
-19 -5 -4 -15 -7 -22 -8 -6 -1 -58 -17 -115 -34 -57 -18 -109 -33 -115 -33 -7
0 -13 -5 -13 -10 0 -6 -3 -8 -6 -5 -3 4 -36 -4 -74 -17 -38 -13 -71 -21 -74
-17 -3 3 -6 -1 -6 -8 0 -7 -3 -11 -6 -7 -4 3 -23 0 -43 -8 -34 -13 -107 -35
-141 -41 -51 -10 -64 36 -22 76 15 14 48 36 72 47 178 85 282 132 299 138 12
3 21 11 21 16 0 5 3 8 8 7 4 -1 28 8 54 20 26 12 52 22 57 22 6 0 11 4 11 8 0
5 18 15 40 22 22 7 40 17 40 22 0 4 5 8 10 8 6 0 41 14 78 31 112 52 126 58
162 67 37 10 93 8 113 -5z m-28 -380 c38 -5 54 -9 61 -16 4 -4 17 -7 29 -7 12
0 54 -11 93 -24 40 -14 72 -23 72 -21 0 2 16 -3 35 -11 19 -8 35 -11 35 -8 0
4 7 1 15 -6 8 -7 15 -9 15 -6 0 4 10 2 21 -5 12 -6 36 -13 53 -16 17 -3 33 -8
36 -11 6 -8 26 -13 57 -16 13 0 23 -4 23 -8 0 -5 8 -8 18 -8 9 0 24 -4 32 -10
11 -7 -3 -17 -55 -40 -84 -38 -105 -43 -170 -44 -68 0 -78 3 -170 50 -194 99
-245 100 -435 7 -95 -46 -127 -57 -180 -60 -40 -3 -77 0 -95 8 -16 7 -32 13
-35 13 -13 3 -120 57 -120 61 0 4 82 28 88 26 1 -1 16 6 32 14 17 9 30 13 30
11 0 -3 19 2 43 10 23 9 49 17 57 19 17 3 117 34 140 42 8 4 20 7 26 8 6 2 38
11 70 20 57 16 68 19 115 30 12 2 24 7 27 10 3 3 8 2 11 -2 3 -5 15 -9 26 -10z
m-720 -303 c24 -10 46 -16 49 -13 3 3 8 -2 12 -11 3 -9 12 -16 20 -16 7 0 28
-8 46 -18 51 -29 105 -44 158 -45 53 0 140 21 140 34 0 5 5 9 10 9 6 0 45 17
88 37 89 43 90 43 161 48 52 3 140 -18 152 -37 3 -6 9 -9 13 -8 4 1 40 -15 81
-35 41 -20 97 -39 125 -42 52 -6 170 13 170 28 0 5 6 9 14 9 7 0 40 13 72 30
32 16 65 30 72 30 6 0 12 4 12 9 0 4 11 7 25 6 14 -2 25 0 25 5 0 4 21 6 48 4
67 -5 85 -9 90 -23 5 -15 -18 -111 -26 -112 -4 -1 -34 -2 -67 -3 -66 -2 -137
-24 -128 -39 3 -6 1 -7 -6 -3 -6 4 -46 -9 -88 -29 -42 -20 -86 -39 -97 -41
-65 -14 -106 -15 -146 -4 -25 7 -47 11 -49 10 -2 -1 -7 2 -10 7 -5 7 -54 34
-71 38 -3 1 -30 13 -60 27 -80 37 -120 49 -120 35 0 -9 -2 -9 -8 -1 -15 22
-115 -6 -224 -64 -31 -17 -59 -28 -62 -24 -3 3 -6 -1 -6 -8 0 -7 -3 -11 -6 -8
-3 4 -17 0 -32 -8 -36 -18 -180 -14 -192 6 -6 8 -10 12 -10 7 0 -4 -31 8 -69
28 -99 52 -164 72 -223 70 -48 -1 -90 16 -75 31 2 3 -1 25 -9 50 -7 24 -10 44
-6 45 20 2 56 10 59 13 9 9 109 -7 148 -24z m-101 -262 c-5 -10 -4 -10 6 -1
10 9 17 10 27 2 7 -7 13 -9 13 -5 0 7 112 -34 120 -43 6 -8 113 -55 150 -67
64 -20 168 -1 254 46 29 16 56 27 60 23 3 -3 6 -1 6 5 0 5 29 20 65 32 48 16
76 20 112 15 26 -4 56 -7 66 -8 9 -1 17 -4 17 -8 0 -4 14 -10 30 -14 17 -4 30
-11 30 -16 0 -5 3 -8 8 -7 4 1 27 -9 52 -21 25 -13 47 -24 50 -23 3 0 11 -5
18 -10 24 -20 153 -22 202 -3 25 9 53 17 62 18 9 1 15 4 12 8 -2 4 6 10 19 14
26 9 21 6 77 33 25 12 53 22 63 22 9 0 17 6 17 13 0 9 3 8 9 -2 5 -8 11 -9 15
-3 3 6 15 8 25 5 19 -5 19 -7 -7 -47 -15 -22 -35 -50 -44 -60 -10 -11 -18 -23
-18 -27 0 -4 -25 -17 -55 -30 -30 -12 -55 -26 -55 -30 0 -4 -10 -10 -22 -14
-13 -4 -25 -8 -28 -9 -3 -1 -14 -7 -25 -13 -11 -6 -24 -12 -30 -12 -5 -1 -28
-6 -50 -12 -36 -10 -85 -8 -141 4 -11 3 -67 28 -125 56 -57 28 -116 53 -131
55 -15 3 -32 7 -37 10 -5 4 -12 3 -15 -2 -3 -5 -19 -7 -36 -6 -30 2 -124 -28
-147 -48 -7 -6 -13 -7 -13 -2 0 5 -4 4 -8 -2 -4 -6 -34 -24 -67 -40 -51 -25
-72 -29 -140 -29 -67 0 -91 5 -145 29 -36 16 -72 35 -80 42 -8 7 -19 13 -25
14 -33 7 -57 24 -89 62 -20 24 -36 47 -36 51 1 4 -6 15 -15 23 -17 18 -20 44
-4 44 5 0 7 -6 3 -12z m884 -288 c19 -5 40 -14 48 -21 8 -6 14 -8 14 -4 0 5 8
1 18 -7 19 -16 133 -68 150 -68 6 0 9 -7 6 -15 -3 -8 -9 -14 -12 -13 -10 2
-62 -23 -94 -45 -16 -10 -28 -14 -28 -8 0 6 -3 10 -7 9 -5 0 -26 7 -48 17 -22
10 -46 18 -52 18 -7 0 -13 4 -13 8 0 4 -8 6 -17 4 -10 -1 -26 2 -35 7 -13 6
-18 5 -18 -4 0 -9 -3 -9 -10 2 -7 11 -10 11 -10 2 0 -7 -5 -10 -10 -7 -12 7
-104 -21 -136 -42 -22 -14 -84 -8 -84 8 0 5 -7 9 -15 9 -8 0 -15 5 -15 11 0 5
-3 8 -8 5 -4 -2 -18 2 -32 9 l-25 13 28 7 c15 4 27 12 27 18 0 6 3 8 6 5 3 -3
38 11 77 31 40 20 92 43 117 50 25 7 50 15 55 17 14 4 84 -4 123 -16z"/>
</g>
</svg>
