<svg width="500" height="161" viewBox="0 0 500 161" fill="none" xmlns="http://www.w3.org/2000/svg">
<g clip-path="url(#clip0_428:3775)">
<path d="M245.839 26.712H260.213L253.069 6.47281L245.839 26.712ZM234.806 43.1487L249.991 1.15861H256.061L271.246 43.1487H265.76L261.635 31.649H244.475L240.263 43.1487H234.806Z" fill="white"/>
<path d="M286.898 43.7284C285.331 43.7077 283.853 43.4821 282.469 43.0462C281.084 42.6096 279.86 41.9669 278.796 41.1143C277.731 40.2643 276.895 39.2031 276.284 37.9353C275.676 36.6684 275.369 35.1913 275.369 33.5075V13.1227H280.742V32.9545C280.742 34.9113 281.349 36.4979 282.557 37.7175C283.765 38.9379 285.591 39.5469 288.032 39.5469C290.237 39.5469 292.014 38.9707 293.359 37.8191C294.704 36.6684 295.376 34.9501 295.376 32.6652V13.1227H300.719V43.1487H296.452L295.901 37.398C295.531 38.9077 294.907 40.1283 294.027 41.0574C293.147 41.9868 292.091 42.669 290.861 43.104C289.632 43.5388 288.31 43.7465 286.898 43.7284" fill="white"/>
<path d="M319.189 43.7285C317.097 43.7285 315.158 43.4046 313.366 42.7561C311.576 42.1074 310.089 41.0912 308.91 39.7063C307.728 38.323 306.983 36.5564 306.672 34.4075H311.551C311.822 35.5885 312.31 36.5703 313.018 37.355C313.723 38.1386 314.612 38.7304 315.674 39.1258C316.739 39.522 317.901 39.72 319.16 39.72C321.173 39.72 322.798 39.3436 324.037 38.5891C325.277 37.8337 325.896 36.6728 325.896 35.1052C325.896 34.0003 325.572 33.1157 324.922 32.4483C324.273 31.7789 323.272 31.2907 321.919 30.9805L315.703 29.4424C313.282 28.8618 311.348 27.9506 309.895 26.7121C308.445 25.4736 307.719 23.7406 307.719 21.5143C307.699 19.7528 308.116 18.2043 308.967 16.8684C309.818 15.5327 311.095 14.4777 312.801 13.7033C314.504 12.929 316.625 12.5413 319.16 12.5413C322.412 12.5413 325.041 13.2727 327.043 14.7343C329.047 16.1968 330.088 18.3404 330.165 21.1655H325.431C325.237 19.7341 324.593 18.5962 323.499 17.7548C322.408 16.9125 320.942 16.4905 319.103 16.4905C317.185 16.4905 315.626 16.8737 314.429 17.6386C313.227 18.4032 312.627 19.5875 312.627 21.1955C312.627 22.2602 313.051 23.0965 313.904 23.7071C314.755 24.3178 316.014 24.824 317.679 25.2315L323.689 26.7423C325.085 27.1092 326.231 27.5932 327.131 28.1935C328.03 28.7937 328.745 29.4613 329.278 30.1969C329.812 30.9333 330.187 31.7024 330.412 32.505C330.632 33.3095 330.745 34.0777 330.745 34.8132C330.745 36.653 330.286 38.237 329.364 39.5606C328.447 40.887 327.131 41.9136 325.416 42.6397C323.705 43.3657 321.63 43.7285 319.189 43.7285" fill="white"/>
<path d="M352.264 17.0425H345.495V35.7141C345.495 36.7786 345.608 37.558 345.831 38.0517C346.053 38.5443 346.433 38.8605 346.962 38.9947C347.495 39.1317 348.225 39.198 349.156 39.198H352.436V42.7999C352.068 42.9351 351.51 43.0513 350.767 43.1487C350.022 43.2442 349.098 43.2925 347.994 43.2925C345.923 43.2925 344.316 43.0127 343.174 42.4511C342.032 41.8895 341.233 41.0574 340.779 39.9525C340.323 38.8501 340.096 37.4952 340.096 35.8872V17.0425H335.216V13.1227H340.241L341.547 4.3817H345.495V13.0934H352.264V17.0425" fill="white"/>
<path d="M359.404 43.1487V13.1227H364.515V18.901C365.02 17.4688 365.725 16.2828 366.636 15.3439C367.546 14.4053 368.587 13.7033 369.756 13.2383C370.929 12.7739 372.144 12.5413 373.4 12.5413C373.848 12.5413 374.282 12.5706 374.708 12.6284C375.133 12.687 375.462 12.7834 375.696 12.9194V18.1174C375.405 17.9812 375.032 17.8899 374.578 17.8418C374.121 17.7935 373.738 17.7684 373.431 17.7684C372.23 17.691 371.109 17.7642 370.062 17.9856C369.017 18.2087 368.098 18.591 367.302 19.1337C366.51 19.6754 365.884 20.3867 365.432 21.2671C364.976 22.1491 364.748 23.2178 364.748 24.477V43.1487H359.404" fill="white"/>
<path d="M390.504 39.8664C391.511 39.8664 392.515 39.6829 393.509 39.3143C394.506 38.9474 395.421 38.4486 396.254 37.8192C397.085 37.1912 397.751 36.4841 398.243 35.7005C398.737 34.9158 398.995 34.1079 399.012 33.2751V28.1358L394.539 28.222C392.257 28.2623 390.345 28.4932 388.806 28.9187C387.267 29.3449 386.116 30.0126 385.351 30.9238C384.584 31.8325 384.204 33.0235 384.204 34.4946C384.204 36.1785 384.789 37.4953 385.959 38.4436C387.13 39.3919 388.647 39.8664 390.504 39.8664ZM388.879 43.7285C386.943 43.7285 385.227 43.3838 383.739 42.6974C382.249 42.0102 381.082 41.0189 380.24 39.72C379.398 38.4237 378.974 36.8563 378.974 35.0183C378.974 31.6876 380.136 29.2098 382.46 27.5837C384.784 25.9567 388.51 25.086 393.639 24.9698L399.012 24.8241V22.4728C399.012 20.6332 398.459 19.1767 397.359 18.1018C396.254 17.0287 394.539 16.4905 392.217 16.4905C390.495 16.511 388.98 16.9167 387.673 17.7118C386.367 18.504 385.521 19.802 385.133 21.6012H380.399C380.516 19.647 381.067 17.9969 382.055 16.6506C383.042 15.3054 384.42 14.2839 386.193 13.5871C387.966 12.8902 390.06 12.5413 392.477 12.5413C395.092 12.5413 397.266 12.91 398.997 13.6464C400.73 14.3811 402.026 15.4654 402.888 16.8977C403.751 18.33 404.183 20.0915 404.183 22.1826V43.1488H399.592L399.217 37.5142C398.055 39.8569 396.578 41.4788 394.788 42.3771C392.995 43.2789 391.026 43.7285 388.879 43.7285" fill="white"/>
<path d="M419.892 43.5251C418.265 43.5251 416.953 43.302 415.954 42.8568C414.96 42.4115 414.195 41.8111 413.661 41.0574C413.13 40.3014 412.773 39.4349 412.588 38.4581C412.405 37.4807 412.312 36.4687 412.312 35.424V-0.00310945H417.597V34.9012C417.597 36.4109 417.89 37.5435 418.481 38.298C419.072 39.0543 419.899 39.4693 420.964 39.5469L422.591 39.5762V43.0601C422.146 43.1953 421.681 43.3073 421.195 43.3951C420.715 43.4821 420.278 43.5251 419.892 43.5251" fill="white"/>
<path d="M434.526 13.1227V43.1487H429.329V13.1227H434.526ZM434.643 1.18794V6.76298H429.155V1.18794H434.643Z" fill="white"/>
<path d="M453.314 39.8664C454.319 39.8664 455.323 39.6829 456.319 39.3143C457.316 38.9474 458.229 38.4486 459.064 37.8192C459.896 37.1912 460.559 36.4841 461.053 35.7005C461.547 34.9158 461.803 34.1079 461.823 33.2751V28.1358L457.349 28.222C455.067 28.2623 453.153 28.4932 451.614 28.9187C450.077 29.3449 448.924 30.0126 448.159 30.9238C447.394 31.8325 447.012 33.0235 447.012 34.4946C447.012 36.1785 447.597 37.4953 448.77 38.4436C449.938 39.3919 451.455 39.8664 453.314 39.8664V39.8664ZM451.687 43.7285C449.753 43.7285 448.038 43.3838 446.547 42.6974C445.057 42.0102 443.89 41.0189 443.048 39.72C442.208 38.4237 441.785 36.8563 441.785 35.0183C441.785 31.6876 442.947 29.2098 445.268 27.5837C447.592 25.9567 451.321 25.086 456.449 24.9698L461.823 24.8241V22.4728C461.823 20.6332 461.269 19.1767 460.169 18.1018C459.064 17.0287 457.349 16.4905 455.027 16.4905C453.303 16.511 451.788 16.9167 450.483 17.7118C449.175 18.504 448.329 19.802 447.943 21.6012H443.207C443.324 19.647 443.875 17.9969 444.865 16.6506C445.85 15.3054 447.229 14.2839 449.001 13.5871C450.774 12.8902 452.869 12.5413 455.287 12.5413C457.902 12.5413 460.074 12.91 461.807 13.6464C463.538 14.3811 464.837 15.4654 465.699 16.8977C466.559 18.33 466.991 20.0915 466.991 22.1826V43.1488H462.403L462.025 37.5142C460.866 39.8569 459.386 41.4788 457.598 42.3771C455.805 43.2789 453.837 43.7285 451.687 43.7285" fill="white"/>
<path d="M474.886 43.1487V13.1227H480.086V17.4791C480.568 16.6455 481.241 15.8625 482.103 15.1252C482.965 14.3914 484.01 13.7996 485.238 13.3545C486.469 12.91 487.886 12.687 489.492 12.687C491.39 12.687 493.136 13.065 494.733 13.8195C496.331 14.5749 497.61 15.7505 498.569 17.3482C499.526 18.9443 500.005 21.0019 500.005 23.5185V43.1487H494.631V24.0404C494.631 21.6995 494.018 19.9605 492.79 18.8278C491.558 17.6961 489.966 17.1303 488.012 17.1303C486.656 17.1303 485.388 17.3482 484.207 17.7823C483.027 18.2182 482.068 18.877 481.334 19.7572C480.597 20.6383 480.229 21.7467 480.229 23.0826V43.1487H474.886" fill="white"/>
<path d="M262.941 55.1523H268.314V97.1407H263.523L240.989 64.0382V97.1407H235.618V55.1523H240.757L262.941 87.7916V55.1523" fill="white"/>
<path d="M287.452 93.8592C288.455 93.8592 289.461 93.6766 290.455 93.3071C291.452 92.9402 292.369 92.4414 293.2 91.8137C294.032 91.1831 294.695 90.4769 295.191 89.6915C295.683 88.9077 295.939 88.1007 295.961 87.267V82.1286L291.487 82.2148C289.205 82.2542 287.293 82.4877 285.752 82.9115C284.213 83.3377 283.062 84.0062 282.297 84.9173C281.532 85.8268 281.151 87.0163 281.151 88.4883C281.151 90.1719 281.735 91.4889 282.908 92.4372C284.076 93.3864 285.593 93.8592 287.452 93.8592V93.8592ZM285.823 97.7221C283.889 97.7221 282.174 97.3775 280.685 96.692C279.193 96.0038 278.026 95.0125 277.184 93.7145C276.344 92.4183 275.923 90.8491 275.923 89.0102C275.923 85.6804 277.085 83.2034 279.409 81.5765C281.73 79.9504 285.457 79.0788 290.585 78.9626L295.961 78.8177V76.4656C295.961 74.6267 295.407 73.1695 294.307 72.0955C293.2 71.0215 291.487 70.4839 289.165 70.4839C287.439 70.5038 285.926 70.9095 284.619 71.7037C283.316 72.4977 282.465 73.7948 282.081 75.5948H277.345C277.46 73.6398 278.013 71.9897 279.001 70.6451C279.986 69.2982 281.367 68.2775 283.137 67.5806C284.912 66.8829 287.005 66.535 289.426 66.535C292.041 66.535 294.212 66.9037 295.943 67.6383C297.678 68.3739 298.975 69.4582 299.837 70.8914C300.695 72.3228 301.129 74.0843 301.129 76.1754V97.1407H296.541L296.164 91.5079C294.999 93.8506 293.522 95.4698 291.736 96.3707C289.944 97.2708 287.972 97.7221 285.823 97.7221" fill="white"/>
<path d="M322.995 71.0352H316.226V89.707C316.226 90.7715 316.338 91.55 316.561 92.0452C316.784 92.5398 317.163 92.8524 317.692 92.9885C318.226 93.1228 318.955 93.1918 319.886 93.1918H323.167V96.791C322.798 96.9288 322.241 97.0441 321.498 97.1407C320.752 97.2379 319.828 97.2871 318.724 97.2871C316.653 97.2871 315.046 97.0062 313.904 96.444C312.762 95.8824 311.961 95.0503 311.509 93.9463C311.053 92.8421 310.826 91.4889 310.826 89.8827V71.0352H305.947V67.1156H310.971L312.277 58.3752H316.226V67.0862H322.995V71.0352" fill="white"/>
<path d="M335.942 67.1156V97.1407H330.745V67.1156H335.942ZM336.061 55.1817V60.7558H330.571V55.1817H336.061Z" fill="white"/>
<path d="M356.736 93.481C358.533 93.481 360.052 93.0281 361.291 92.116C362.53 91.2074 363.472 89.9016 364.109 88.1962C364.748 86.4944 365.068 84.4704 365.068 82.1286C365.068 79.9797 364.788 78.0487 364.226 76.3355C363.664 74.6225 362.768 73.2634 361.54 72.2549C360.31 71.2497 358.709 70.745 356.736 70.745C354.915 70.745 353.373 71.1946 352.117 72.0955C350.858 72.9955 349.905 74.2977 349.257 76.0014C348.609 77.7049 348.282 79.7471 348.282 82.1286C348.282 84.2377 348.573 86.1542 349.156 87.8776C349.735 89.6011 350.646 90.967 351.885 91.9729C353.124 92.9799 354.738 93.481 356.736 93.481V93.481ZM356.736 97.7221C353.964 97.7221 351.543 97.1259 349.473 95.9348C347.403 94.7446 345.797 92.9988 344.655 90.6941C343.511 88.3908 342.94 85.5746 342.94 82.2448C342.94 79.109 343.474 76.3606 344.538 73.9972C345.601 71.6364 347.167 69.802 349.228 68.4945C351.29 67.1888 353.79 66.535 356.736 66.535C359.503 66.535 361.906 67.1405 363.948 68.3507C365.992 69.5608 367.575 71.3359 368.697 73.6786C369.822 76.0204 370.38 78.8764 370.38 82.2448C370.38 85.3023 369.864 87.9946 368.827 90.3177C367.793 92.6405 366.263 94.4543 364.239 95.7626C362.217 97.0675 359.715 97.7221 356.736 97.7221" fill="white"/>
<path d="M376.855 97.1407V67.1155H382.055V71.4719C382.537 70.6392 383.21 69.8553 384.072 69.1189C384.934 68.3851 385.979 67.7933 387.207 67.3482C388.438 66.9037 389.855 66.6799 391.463 66.6799C393.361 66.6799 395.105 67.0587 396.704 67.8123C398.3 68.5677 399.579 69.7433 400.538 71.341C401.495 72.9377 401.973 74.9953 401.973 77.5113V97.1407H396.602V78.0332C396.602 75.6914 395.987 73.9542 394.759 72.8215C393.529 71.6898 391.935 71.124 389.983 71.124C388.625 71.124 387.36 71.341 386.178 71.776C384.998 72.2117 384.037 72.8698 383.303 73.7509C382.566 74.6329 382.198 75.7386 382.198 77.0754V97.1407H376.855" fill="white"/>
<path d="M419.63 93.8592C420.635 93.8592 421.639 93.6766 422.635 93.3071C423.632 92.9402 424.547 92.4414 425.38 91.8137C426.211 91.1831 426.875 90.4769 427.369 89.6915C427.863 88.9077 428.119 88.1007 428.139 87.267V82.1286L423.665 82.2148C421.383 82.2542 419.471 82.4877 417.93 82.9115C416.393 83.3377 415.24 84.0062 414.475 84.9173C413.71 85.8268 413.328 87.0163 413.328 88.4883C413.328 90.1719 413.913 91.4889 415.086 92.4372C416.256 93.3864 417.771 93.8592 419.63 93.8592V93.8592ZM418.005 97.7221C416.069 97.7221 414.354 97.3775 412.865 96.692C411.373 96.0038 410.206 95.0125 409.364 93.7145C408.524 92.4183 408.101 90.8491 408.101 89.0102C408.101 85.6804 409.263 83.2034 411.586 81.5765C413.908 79.9504 417.637 79.0788 422.765 78.9626L428.139 78.8177V76.4656C428.139 74.6267 427.585 73.1695 426.485 72.0955C425.38 71.0215 423.665 70.4839 421.343 70.4839C419.619 70.5038 418.106 70.9095 416.799 71.7037C415.494 72.4977 414.647 73.7948 414.259 75.5948H409.523C409.642 73.6398 410.193 71.9897 411.181 70.6451C412.169 69.2982 413.547 68.2775 415.317 67.5806C417.09 66.8829 419.185 66.535 421.603 66.535C424.218 66.535 426.39 66.9037 428.123 67.6383C429.856 68.3739 431.153 69.4582 432.015 70.8914C432.875 72.3228 433.307 74.0843 433.307 76.1754V97.1407H428.718L428.344 91.5079C427.182 93.8506 425.702 95.4698 423.914 96.3707C422.121 97.2708 420.152 97.7221 418.005 97.7221" fill="white"/>
<path d="M449.019 97.5188C447.392 97.5188 446.08 97.2957 445.081 96.8512C444.087 96.4069 443.321 95.8047 442.788 95.0502C442.256 94.2951 441.899 93.4285 441.714 92.45C441.531 91.4744 441.438 90.4614 441.438 89.4176V53.9905H446.724V88.8931C446.724 90.4045 447.017 91.5372 447.608 92.2908C448.199 93.0453 449.025 93.4638 450.09 93.5388L451.718 93.5699V97.0545C451.272 97.189 450.807 97.3001 450.322 97.3887C449.841 97.4747 449.405 97.5188 449.019 97.5188" fill="white"/>
<path d="M266.31 136.612C266.31 139.846 265.778 142.585 264.713 144.831C263.648 147.077 261.988 148.784 259.735 149.954C257.479 151.126 254.551 151.714 250.95 151.714C247.31 151.714 244.362 151.112 242.109 149.912C239.853 148.711 238.206 146.949 237.17 144.627C236.136 142.304 235.618 139.448 235.618 136.061V109.142H241.194V136.875C241.194 140.261 242.036 142.797 243.721 144.481C245.403 146.167 247.815 147.008 250.95 147.008C253.06 147.008 254.855 146.641 256.335 145.903C257.816 145.169 258.95 144.051 259.735 142.552C260.517 141.052 260.91 139.158 260.91 136.875V109.142H266.31V136.612" fill="white"/>
<path d="M274.148 151.131V121.107H279.347V125.462C279.832 124.629 280.504 123.845 281.366 123.109C282.226 122.375 283.276 121.784 284.5 121.339C285.73 120.893 287.15 120.672 288.757 120.672C290.656 120.672 292.398 121.048 293.996 121.804C295.595 122.558 296.873 123.733 297.833 125.33C298.787 126.928 299.266 128.986 299.266 131.501V151.131H293.895V132.026C293.895 129.682 293.279 127.945 292.054 126.813C290.823 125.68 289.231 125.114 287.276 125.114C285.92 125.114 284.652 125.33 283.47 125.767C282.293 126.203 281.331 126.862 280.597 127.742C279.861 128.623 279.492 129.731 279.492 131.068V151.131H274.148" fill="white"/>
<path d="M312.713 121.107V151.131H307.516V121.107H312.713ZM312.83 109.172V114.746H307.342V109.172H312.83Z" fill="white"/>
<path d="M345.03 121.107L334.202 151.131H329.323L318.464 121.107H323.515L331.501 144.395H331.993L340.01 121.107H345.03Z" fill="white"/>
<path d="M352.988 133.737H369.306C369.306 132.014 369.015 130.462 368.433 129.076C367.853 127.694 366.969 126.599 365.776 125.795C364.587 124.993 363.09 124.592 361.291 124.592C359.413 124.592 357.86 125.041 356.63 125.942C355.402 126.842 354.482 127.992 353.872 129.396C353.261 130.799 352.968 132.246 352.988 133.737V133.737ZM352.959 137.367C352.959 139.265 353.272 140.983 353.9 142.521C354.529 144.061 355.49 145.286 356.778 146.196C358.063 147.104 359.675 147.561 361.611 147.561C363.527 147.561 365.178 147.115 366.563 146.224C367.943 145.333 368.832 144.045 369.22 142.361H374.3C373.932 144.395 373.12 146.108 371.861 147.5C370.602 148.895 369.083 149.946 367.302 150.651C365.52 151.359 363.661 151.714 361.726 151.714C358.921 151.714 356.451 151.103 354.324 149.884C352.192 148.662 350.527 146.913 349.327 144.627C348.126 142.344 347.526 139.603 347.526 136.411C347.526 133.253 348.069 130.485 349.153 128.104C350.236 125.722 351.81 123.864 353.872 122.53C355.933 121.195 358.416 120.525 361.322 120.525C364.146 120.525 366.537 121.136 368.495 122.354C370.446 123.574 371.934 125.292 372.951 127.509C373.967 129.727 374.474 132.355 374.474 135.393V137.367H352.959" fill="white"/>
<path d="M381.241 151.131V121.107H386.352V126.884C386.857 125.452 387.562 124.267 388.471 123.329C389.383 122.388 390.422 121.687 391.593 121.222C392.766 120.758 393.981 120.525 395.235 120.525C395.683 120.525 396.119 120.555 396.545 120.611C396.968 120.672 397.299 120.769 397.53 120.903V126.1C397.242 125.966 396.869 125.873 396.415 125.825C395.958 125.777 395.575 125.753 395.268 125.753C394.066 125.676 392.944 125.749 391.897 125.97C390.854 126.194 389.935 126.576 389.139 127.117C388.345 127.66 387.721 128.371 387.267 129.252C386.812 130.132 386.583 131.203 386.583 132.462V151.131H381.241" fill="white"/>
<path d="M413.617 151.714C411.527 151.714 409.587 151.388 407.794 150.741C406.004 150.092 404.518 149.074 403.338 147.692C402.156 146.306 401.411 144.541 401.103 142.391H405.98C406.253 143.572 406.738 144.554 407.448 145.339C408.152 146.122 409.04 146.714 410.105 147.109C411.168 147.507 412.33 147.705 413.589 147.705C415.602 147.705 417.229 147.329 418.466 146.572C419.705 145.817 420.325 144.656 420.325 143.088C420.325 141.986 420.001 141.099 419.35 140.43C418.702 139.762 417.701 139.275 416.347 138.965L410.132 137.426C407.713 136.844 405.777 135.935 404.324 134.696C402.873 133.456 402.148 131.724 402.148 129.499C402.128 127.737 402.545 126.187 403.396 124.852C404.247 123.516 405.523 122.461 407.23 121.687C408.932 120.913 411.053 120.525 413.589 120.525C416.841 120.525 419.469 121.256 421.471 122.717C423.475 124.181 424.516 126.324 424.593 129.149H419.859C419.665 127.719 419.022 126.58 417.928 125.738C416.837 124.895 415.37 124.474 413.531 124.474C411.613 124.474 410.057 124.858 408.857 125.623C407.655 126.386 407.056 127.572 407.056 129.179C407.056 130.244 407.481 131.08 408.332 131.691C409.183 132.3 410.442 132.809 412.109 133.215L418.118 134.725C419.513 135.094 420.66 135.576 421.559 136.178C422.461 136.777 423.173 137.445 423.709 138.181C424.241 138.917 424.618 139.687 424.84 140.49C425.061 141.293 425.175 142.063 425.175 142.797C425.175 144.636 424.715 146.22 423.795 147.545C422.876 148.87 421.559 149.897 419.846 150.623C418.133 151.349 416.058 151.714 413.617 151.714" fill="white"/>
<path d="M437.893 121.107V151.131H432.696V121.107H437.893ZM438.01 109.172V114.746H432.522V109.172H438.01Z" fill="white"/>
<path d="M461.82 125.026H455.051V143.698C455.051 144.762 455.166 145.54 455.387 146.036C455.609 146.53 455.988 146.844 456.52 146.979C457.053 147.115 457.783 147.183 458.711 147.183H461.992V150.782C461.626 150.919 461.068 151.034 460.323 151.131C459.58 151.229 458.654 151.277 457.552 151.277C455.479 151.277 453.874 150.997 452.73 150.435C451.587 149.873 450.789 149.041 450.335 147.937C449.881 146.833 449.652 145.479 449.652 143.873V125.026H444.774V121.107H449.799L451.102 112.367H455.051V121.076H461.82V125.026Z" fill="white"/>
<path d="M472.128 160.714C470.366 160.714 468.827 160.462 467.511 159.958V156.474L470.56 156.533C471.683 156.572 472.613 156.494 473.347 156.3C474.084 156.107 474.673 155.846 475.118 155.517C475.563 155.187 475.907 154.819 476.15 154.412C476.392 154.005 476.591 153.619 476.745 153.251L477.788 150.406L466.06 121.107H471.489L480.346 144.278L489.143 121.107H494.4L481.737 153.398C480.963 155.293 480.099 156.776 479.142 157.839C478.183 158.903 477.118 159.648 475.947 160.077C474.774 160.501 473.502 160.714 472.128 160.714" fill="white"/>
<path d="M184.84 138.937C181.356 134.958 174.136 130.686 164.258 130.686C151.51 130.686 121.006 152.683 96.1489 152.683C71.2907 152.683 40.7928 130.686 28.0425 130.686C18.1652 130.686 10.9468 134.958 7.46123 138.937C7.40094 131.389 6.03152 128.211 2.63376 122.332C6.90743 118.324 15.0896 111.118 26.1725 111.118C44.5711 111.118 80.7562 133.851 96.1489 133.851C111.541 133.851 147.73 111.118 166.127 111.118C177.213 111.118 185.391 118.324 189.666 122.332C186.27 128.211 184.902 131.389 184.84 138.937ZM174.25 149.265C165.595 149.292 163.165 143.06 163.165 140.691C163.165 138.025 164.059 134.78 164.642 132.889C179.113 133.283 184.986 141.715 184.986 143.741C184.972 146.357 179.528 149.248 174.25 149.265ZM161.274 142.709C158.816 140.903 155.483 138.675 151.463 136.507C155.825 134.627 159.525 133.447 162.312 133.044C161.319 136.418 160.519 140.169 161.274 142.709V142.709ZM31.0301 142.709C31.7822 140.169 30.9829 136.418 29.9889 133.044C32.7759 133.447 36.4777 134.627 40.8385 136.507C36.8196 138.675 33.4848 140.903 31.0301 142.709V142.709ZM18.0533 149.265C12.7728 149.248 7.32946 146.357 7.31654 143.741C7.31654 141.715 13.1896 133.283 27.6582 132.889C28.2422 134.78 29.1363 138.025 29.1363 140.691C29.1363 143.06 26.7039 149.292 18.0533 149.265V149.265ZM13.1991 89.2867C13.1991 86.8466 14.7141 85.4386 16.8802 85.4039C19.3839 85.3695 23.494 87.8622 26.4353 91.2391L22.0728 93.8817C21.035 96.1829 23.1607 102.267 27.7805 102.267C30.2731 102.267 31.5193 100.533 35.216 98.4939L40.7368 111.617C35.4855 109.979 30.5366 108.927 26.1725 108.927C24.3061 108.927 22.7102 109.065 21.203 109.328C20.5553 108.001 19.9076 106.689 19.2737 105.412C15.1766 97.1734 13.1991 92.5887 13.1991 89.2867V89.2867ZM28.746 99.9347C26.9907 100.654 23.6989 98.2346 24.0201 95.2622L27.7977 92.9731C29.9303 95.7179 30.2731 99.3103 28.746 99.9347ZM26.729 77.127C28.6109 76.0738 30.7002 76.0127 32.9397 76.9418C37.3329 78.7703 41.2966 84.0905 42.0915 86.9465C43.1613 90.781 41.6988 91.8825 41.6843 91.892L31.8252 98.0227C32.521 93.0306 23.3071 82.9596 16.6881 83.2337C18.9912 81.4076 26.729 77.127 26.729 77.127ZM157.089 98.4939C160.782 100.533 162.028 102.267 164.521 102.267C169.141 102.267 171.266 96.1829 170.227 93.8817L165.864 91.2391C168.807 87.8622 172.917 85.3695 175.422 85.4039C177.586 85.4386 179.102 86.8466 179.102 89.2867C179.102 92.5887 177.123 97.1734 173.03 105.412C172.396 106.689 171.746 108.001 171.098 109.328C169.594 109.065 167.995 108.927 166.127 108.927C161.766 108.927 156.816 109.979 151.563 111.617L157.089 98.4939ZM168.281 95.2622C168.602 98.2346 165.312 100.654 163.556 99.9347C162.028 99.3103 162.368 95.7179 164.504 92.9731L168.281 95.2622ZM150.616 91.892C150.602 91.8825 149.142 90.781 150.211 86.9465C151.006 84.0905 154.97 78.7703 159.365 76.9418C161.598 76.0127 163.69 76.0738 165.573 77.127C165.573 77.127 173.312 81.4076 175.614 83.2337C168.994 82.9596 159.78 93.0306 160.474 98.0227L150.616 91.892ZM191.827 121.365C187.034 116.572 180.938 111.925 173.303 109.813C173.868 108.656 181.273 95.3019 181.273 89.2892C181.273 87.2626 180.409 84.7039 177.859 82.269C175.739 80.2406 166.643 75.215 166.643 75.215C164.178 73.8369 161.369 73.7362 158.521 74.9222C153.253 77.1116 149.015 83.0751 148.1 86.3609C146.577 91.8223 149.152 93.5655 149.44 93.7377L155.203 97.3215L148.811 112.515C138.997 115.588 107.034 131.661 96.1489 131.661C85.265 131.661 53.3046 115.588 43.4912 112.515L37.0979 97.3215L42.8623 93.7377C43.1501 93.5655 45.7262 91.8223 44.2018 86.3609C43.2861 83.0751 39.047 77.1116 33.7802 74.9222C30.9293 73.7362 28.1216 73.8369 25.6601 75.215C25.6601 75.215 16.5615 80.2406 14.4419 82.269C11.8908 84.7039 11.0278 87.2626 11.0278 89.2892C11.0278 95.3019 18.4348 108.656 18.9998 109.813C11.3654 111.925 5.26755 116.572 0.476256 121.365C0.118824 121.722 0.0507826 122.277 0.313474 122.709C0.344479 122.762 3.51485 128.035 4.51738 131.669C5.6112 135.63 5.13579 143.832 5.13579 143.844C5.23999 147.586 11.2035 151.469 18.2531 151.469C28.0976 151.469 28.6109 144.868 43.3827 137.643C46.466 139.132 76.4781 154.872 96.1489 154.872C115.819 154.872 145.835 139.132 148.92 137.643C163.69 144.868 164.204 151.469 174.05 151.469C181.1 151.469 187.062 147.586 187.165 143.844C187.167 143.832 186.689 135.63 187.78 131.669C188.787 128.035 191.954 122.762 191.989 122.709C192.253 122.277 192.185 121.722 191.827 121.365Z" fill="#B97D1C"/>
<path d="M10.7565 129.603C11.0451 129.438 11.2052 129.339 11.2423 129.302C11.2638 129.277 11.2785 129.246 11.2836 129.21C11.2879 129.174 11.2784 129.111 11.2483 129.023C11.2087 128.901 11.0933 128.62 10.8986 128.177C10.7875 127.926 10.6351 127.602 10.4387 127.208L9.73332 125.777L9.0779 124.492C8.96593 124.278 8.89099 124.14 8.84449 124.08C8.80057 124.021 8.75836 123.982 8.7196 123.964C8.67998 123.942 8.6283 123.939 8.5637 123.949C8.49912 123.958 8.32943 124.017 8.05382 124.127L7.86865 123.753C8.19938 123.616 8.44141 123.51 8.59214 123.436L9.13388 123.15L9.47409 122.961C10.387 123.504 11.4723 124.113 12.7245 124.792C13.628 125.28 14.3584 125.648 14.9174 125.901L14.4118 124.87C13.6237 123.275 13.1457 122.343 12.9743 122.075C12.9106 121.971 12.8529 121.91 12.8021 121.894C12.7194 121.872 12.5058 121.94 12.169 122.097L11.983 121.725C12.3017 121.592 12.5876 121.464 12.8468 121.337C13.0958 121.214 13.4127 121.044 13.7943 120.829L13.9794 121.205C13.6771 121.364 13.5074 121.481 13.4695 121.554C13.4575 121.579 13.454 121.608 13.4618 121.641C13.4962 121.81 13.641 122.161 13.8924 122.696C14.1414 123.229 14.3283 123.625 14.4531 123.878C15.4255 125.852 16.0327 127.04 16.2739 127.446L16.2437 127.51C16.0112 127.574 15.7769 127.643 15.5427 127.714C14.1973 127.044 12.2483 126.005 9.6937 124.597L10.7875 126.814C11.0123 127.276 11.2569 127.749 11.5222 128.241C11.7031 128.58 11.8194 128.783 11.8796 128.845C11.9063 128.876 11.9365 128.896 11.9718 128.907C12.0062 128.918 12.0562 128.913 12.1208 128.891C12.2973 128.834 12.4222 128.788 12.498 128.75C12.5135 128.742 12.5385 128.728 12.573 128.709L12.7504 129.068C12.2672 129.295 11.9925 129.426 11.9253 129.459C11.6798 129.579 11.3525 129.755 10.9417 129.982L10.7565 129.603" fill="#B97D1C"/>
<path d="M17.5882 124.269C17.8465 124.203 18.1368 124.126 18.4598 124.034C18.7716 123.946 19.0497 123.863 19.2918 123.783L17.7199 121.563L17.5882 124.269ZM16.5357 127.361L16.4229 126.963C16.6356 126.883 16.7613 126.828 16.7992 126.802C16.838 126.776 16.8681 126.744 16.8879 126.707C16.9095 126.665 16.9267 126.609 16.9379 126.535C16.9525 126.462 16.9741 126.193 17.0094 125.729C17.024 125.512 17.0481 125.081 17.0826 124.442L17.2669 121.065L17.3125 119.879L17.8896 119.715L21.1237 124.185L21.5621 124.766L21.8498 125.159C21.892 125.209 21.9307 125.244 21.9626 125.262C21.9936 125.281 22.0263 125.293 22.0626 125.296C22.0961 125.3 22.1779 125.288 22.3098 125.262C22.3501 125.256 22.4114 125.247 22.4948 125.234L22.6077 125.631L21.4699 125.919L20.0549 126.358L19.9412 125.963C20.2659 125.852 20.4433 125.777 20.4778 125.739C20.5113 125.699 20.52 125.649 20.5027 125.585C20.4795 125.506 20.4106 125.385 20.2969 125.221L19.6501 124.274L17.558 124.872L17.5434 125.491C17.5339 125.967 17.5434 126.261 17.5735 126.368C17.5951 126.444 17.633 126.494 17.6846 126.513C17.7621 126.536 17.9645 126.512 18.2892 126.433L18.4021 126.829L17.4572 127.063L16.5357 127.361" fill="#B97D1C"/>
<path d="M22.8178 125.499L22.768 125.093C23.1029 125.042 23.2985 124.994 23.3587 124.946C23.4164 124.898 23.4493 124.827 23.4612 124.734C23.4751 124.59 23.4407 124.163 23.3587 123.449L23.0134 120.498C22.9177 119.692 22.861 119.244 22.8421 119.149L22.2426 119.22C21.9411 119.254 21.675 119.296 21.4484 119.348C21.3589 119.367 21.308 119.387 21.2951 119.406C21.2788 119.426 21.2684 119.487 21.2676 119.582C21.2555 119.817 21.2676 120.076 21.2943 120.365L20.9455 120.404C20.855 119.732 20.8042 119.352 20.7913 119.268C20.7654 119.124 20.7336 118.971 20.6948 118.805L20.7258 118.751C20.8593 118.751 21.0006 118.748 21.1479 118.736C21.389 118.718 21.8532 118.668 22.5362 118.59L24.2287 118.391C24.9323 118.309 25.4026 118.247 25.6367 118.211C25.7677 118.189 25.8943 118.161 26.0226 118.131L26.0718 118.173C26.0691 118.379 26.0744 118.556 26.0872 118.708C26.0872 118.734 26.1227 119.096 26.1968 119.79L25.8478 119.83C25.8134 119.575 25.7677 119.331 25.7075 119.103C25.6773 118.986 25.6498 118.916 25.6281 118.897C25.6101 118.883 25.5635 118.878 25.4921 118.878C25.2597 118.879 24.9806 118.899 24.6611 118.935L24.0607 119.006C24.0667 119.121 24.1149 119.572 24.2071 120.359L24.5533 123.311C24.6368 124.021 24.7023 124.446 24.7488 124.586C24.7791 124.671 24.8289 124.731 24.8979 124.764C24.9667 124.799 25.1691 124.801 25.5069 124.773L25.5534 125.18C25.0099 125.212 24.5508 125.251 24.1804 125.296C23.7824 125.341 23.3304 125.41 22.8178 125.499" fill="#B97D1C"/>
<path d="M26.6316 118.537L26.6653 118.129L28.0295 118.279L28.597 118.315L29.1672 118.345L29.3231 118.353L29.2887 118.763C28.9855 118.739 28.7917 118.754 28.7031 118.81C28.659 118.834 28.6272 118.891 28.6039 118.974C28.5481 119.176 28.4912 119.624 28.4308 120.32L28.3353 121.468L28.2897 122.049C28.2378 122.648 28.212 123.025 28.2112 123.165C28.2112 123.478 28.2568 123.733 28.3448 123.933C28.4385 124.132 28.5867 124.299 28.7968 124.435C29.008 124.571 29.2827 124.652 29.6221 124.68C30.0103 124.714 30.3283 124.662 30.5719 124.527C30.8167 124.389 30.9984 124.199 31.1181 123.957C31.2378 123.712 31.3282 123.241 31.3851 122.539L31.4711 121.529C31.5452 120.658 31.5899 120.127 31.6012 119.937C31.6296 119.52 31.6305 119.268 31.608 119.18C31.5926 119.125 31.5624 119.083 31.5194 119.052C31.4325 118.988 31.2334 118.939 30.9243 118.901L30.9578 118.492C31.4634 118.557 31.7632 118.596 31.8596 118.602C31.8845 118.605 31.9233 118.607 31.9733 118.608L32.9087 118.657L32.8743 119.068C32.6132 119.044 32.4487 119.056 32.3782 119.1C32.3411 119.125 32.3074 119.172 32.2816 119.244C32.2549 119.317 32.2057 119.649 32.1369 120.24C32.0679 120.833 32.0146 121.3 31.987 121.643L31.8898 122.807C31.8655 123.102 31.8192 123.408 31.7553 123.721C31.6942 124.034 31.5961 124.299 31.4678 124.515C31.3368 124.729 31.1637 124.918 30.9465 125.083C30.7296 125.245 30.4773 125.363 30.1947 125.432C29.9072 125.501 29.5841 125.518 29.2181 125.488C28.7917 125.452 28.3999 125.351 28.0416 125.185C27.7806 125.063 27.5731 124.913 27.4137 124.731C27.2578 124.551 27.1431 124.352 27.0708 124.137C26.9976 123.923 26.9606 123.722 26.9581 123.529C26.9528 123.41 26.9744 123.089 27.0183 122.568L27.1028 121.617L27.2086 120.361C27.2492 119.9 27.2759 119.482 27.2939 119.112C27.2966 118.966 27.288 118.86 27.269 118.791C27.2578 118.754 27.2276 118.708 27.176 118.654L26.6316 118.537" fill="#B97D1C"/>
<path d="M33.427 119.177L33.5295 118.784C33.5932 118.798 33.8086 118.862 34.1782 118.972C34.3599 119.028 34.6156 119.098 34.9516 119.184C35.2359 119.257 35.483 119.314 35.6914 119.353C36.0325 119.421 36.3158 119.485 36.5372 119.542C36.966 119.653 37.2754 119.77 37.4692 119.898C37.6628 120.025 37.805 120.222 37.8963 120.488C37.9893 120.754 37.9919 121.052 37.9057 121.38C37.8067 121.768 37.612 122.092 37.327 122.358C37.0419 122.622 36.6628 122.794 36.1892 122.87C36.2201 123.032 36.2589 123.197 36.3081 123.37C36.3573 123.543 36.3848 123.646 36.3916 123.682C36.3994 123.716 36.4062 123.75 36.4148 123.784L36.7618 125.058C36.854 125.398 36.9041 125.58 36.9135 125.609C37.035 125.977 37.1109 126.197 37.1435 126.268C37.1761 126.336 37.2099 126.386 37.2487 126.42C37.2855 126.454 37.3691 126.489 37.4967 126.524L37.3865 126.95C36.9713 126.826 36.669 126.743 36.4794 126.695C36.2624 126.638 36.0437 126.589 35.8257 126.546C35.8301 126.472 35.8215 126.372 35.7981 126.246L35.3606 124.325C35.2359 123.771 35.123 123.336 35.0187 123.012C34.9688 122.846 34.9111 122.721 34.8474 122.629L34.9342 122.483C35.2572 122.579 35.5148 122.601 35.7035 122.554C35.8929 122.505 36.0772 122.379 36.2503 122.17C36.4269 121.965 36.5517 121.716 36.6267 121.422C36.7025 121.127 36.7061 120.867 36.6388 120.64C36.5665 120.413 36.4545 120.239 36.2968 120.114C36.1943 120.038 35.9963 119.963 35.7035 119.886C35.5725 119.852 35.4383 119.83 35.3046 119.823C35.2658 119.938 35.1918 120.195 35.0791 120.598C34.8293 121.5 34.6648 122.103 34.5845 122.41C34.4633 122.889 34.3341 123.402 34.2022 123.943C34.0454 124.606 33.955 124.985 33.937 125.074C33.9008 125.257 33.8862 125.379 33.894 125.436C33.8982 125.467 33.9094 125.495 33.9284 125.523C33.9464 125.548 33.9844 125.576 34.0333 125.602C34.0842 125.629 34.2401 125.679 34.4985 125.755L34.3916 126.177C33.931 126.034 33.4616 125.902 32.986 125.779C32.5607 125.669 32.1653 125.579 31.7949 125.507L31.9052 125.085C32.2187 125.152 32.4066 125.182 32.4712 125.174C32.5073 125.173 32.534 125.161 32.553 125.144C32.5743 125.126 32.5986 125.084 32.6235 125.018C32.676 124.899 32.7373 124.713 32.8096 124.463L33.2049 123.064L33.6658 121.278L33.9068 120.258C34.0042 119.856 34.0507 119.612 34.0454 119.524C34.0404 119.485 34.0274 119.453 34.0042 119.428C33.95 119.373 33.7577 119.288 33.427 119.177" fill="#B97D1C"/>
<path d="M40.239 125.167C40.4844 125.267 40.7636 125.378 41.078 125.495C41.3829 125.611 41.6559 125.706 41.8978 125.787L41.9514 123.068L40.239 125.167ZM37.5562 127.032L37.699 126.646C37.9213 126.708 38.0549 126.738 38.0997 126.741C38.1462 126.741 38.1883 126.732 38.2289 126.713C38.2692 126.696 38.3175 126.659 38.3693 126.608C38.4244 126.554 38.6044 126.352 38.9066 125.999C39.0453 125.833 39.3183 125.502 39.7266 125.008L41.8764 122.398L42.6188 121.471L43.1804 121.682L43.1356 127.195L43.1415 127.926L43.1398 128.413C43.1451 128.479 43.157 128.528 43.1682 128.561C43.1837 128.595 43.2053 128.621 43.2302 128.647C43.2544 128.672 43.3276 128.711 43.45 128.766C43.4862 128.788 43.5413 128.815 43.6154 128.856L43.4714 129.241L42.3837 128.797L40.9841 128.313L41.1287 127.926C41.4535 128.031 41.642 128.076 41.6912 128.065C41.7419 128.053 41.7789 128.018 41.8032 127.956C41.8307 127.879 41.8488 127.74 41.853 127.542L41.8936 126.397L39.8567 125.634L39.4751 126.125C39.1849 126.502 39.0195 126.745 38.9807 126.849C38.9523 126.923 38.954 126.987 38.9851 127.031C39.0323 127.099 39.2098 127.195 39.5181 127.325L39.3743 127.712L38.4743 127.339L37.5562 127.032" fill="#B97D1C"/>
<path d="M43.5603 129.284L43.7343 128.897C44.0357 129.004 44.2165 129.056 44.2828 129.056C44.3172 129.06 44.3516 129.049 44.3854 129.026C44.4248 128.999 44.4663 128.947 44.5066 128.875C44.6006 128.711 44.7858 128.341 45.0605 127.767C45.1924 127.49 45.412 127.01 45.7202 126.323C45.9949 125.712 46.2337 125.166 46.4368 124.69C46.6436 124.214 46.753 123.923 46.7675 123.823C46.7761 123.776 46.7746 123.736 46.7633 123.704C46.7503 123.671 46.7186 123.636 46.6626 123.595C46.5076 123.487 46.3612 123.399 46.2293 123.331L46.4015 122.945C46.9192 123.203 47.281 123.378 47.4808 123.469C47.7452 123.587 48.0157 123.695 48.2913 123.793L48.23 124.842L48.1938 125.641L48.088 129.163C48.6159 128.686 49.0189 128.31 49.298 128.042L50.3679 127.013C50.9663 126.441 51.329 126.087 51.4659 125.953C51.6002 125.818 51.7655 125.647 51.9551 125.435C52.2832 125.609 52.4934 125.714 52.5882 125.757L53.7526 126.24L53.5804 126.625L53.527 126.6C53.2659 126.481 53.0816 126.441 52.9782 126.485C52.8774 126.527 52.7758 126.655 52.683 126.864C52.571 127.116 52.483 127.306 52.4219 127.434L51.8363 128.699L51.1257 130.291C50.9499 130.678 50.8501 130.906 50.8234 130.972C50.6726 131.364 50.5866 131.607 50.5599 131.702C50.5495 131.749 50.5487 131.788 50.5564 131.825C50.5659 131.858 50.5875 131.892 50.621 131.922C50.6545 131.952 50.8079 132.045 51.0836 132.193L50.9147 132.581L49.6969 131.996L48.4781 131.488L48.652 131.104C48.9759 131.234 49.1662 131.293 49.2257 131.281C49.2859 131.269 49.3496 131.212 49.4187 131.109C49.4874 131.005 49.6658 130.636 49.95 129.998L51.4306 126.701L49.5849 128.423L48.684 129.289C48.4454 129.516 48.1061 129.848 47.6625 130.284C47.3928 130.548 47.18 130.761 47.02 130.927L46.758 130.808C46.7796 130.514 46.8021 130.107 46.8235 129.589C46.8659 128.699 46.8916 128.034 46.9038 127.594L46.9829 124.706L45.9839 126.931C45.8185 127.303 45.6256 127.745 45.4051 128.262C45.1838 128.778 45.0631 129.072 45.0433 129.145C45.0235 129.218 45.0175 129.274 45.027 129.313C45.0329 129.355 45.0605 129.396 45.1053 129.443C45.1518 129.489 45.3017 129.579 45.5524 129.712L45.38 130.098C45.1011 129.949 44.8125 129.806 44.511 129.67C44.1184 129.497 43.8013 129.366 43.5603 129.284" fill="#B97D1C"/>
<path d="M55.9771 127.779L56.1537 127.406L57.269 127.972L58.9916 128.737C59.3257 128.895 59.5695 129.06 59.7236 129.231C59.8804 129.404 59.9761 129.628 60.014 129.905C60.0517 130.184 59.9915 130.493 59.8321 130.831C59.6729 131.17 59.4566 131.453 59.1872 131.678C58.9149 131.906 58.5936 132.047 58.2226 132.099C57.8504 132.152 57.5033 132.103 57.1794 131.949C57.0985 131.91 57.02 131.868 56.9486 131.823C56.8771 131.775 56.8066 131.722 56.7393 131.665C56.7548 131.569 56.7574 131.441 56.7539 131.281L56.8798 131.22C56.9254 131.269 56.972 131.308 57.0176 131.341C57.0606 131.375 57.1027 131.402 57.145 131.42C57.3904 131.539 57.6444 131.532 57.9004 131.402C58.158 131.276 58.3776 131.013 58.5626 130.621C58.7572 130.21 58.8201 129.863 58.7504 129.576C58.679 129.291 58.4938 129.078 58.1932 128.937C58.0501 128.868 57.883 128.811 57.691 128.769C57.5887 128.95 57.4509 129.218 57.2802 129.576L56.8522 130.45L56.0486 132.152C55.8506 132.569 55.6523 133.007 55.4535 133.462C55.3364 133.726 55.2727 133.895 55.2605 133.974C55.2579 134.009 55.2605 134.045 55.276 134.077C55.2881 134.111 55.3242 134.149 55.3811 134.192L55.8746 134.473L55.6894 134.869C55.0469 134.541 54.562 134.3 54.2348 134.144C53.873 133.973 53.5233 133.819 53.1875 133.687L53.3725 133.291C53.6567 133.419 53.8463 133.478 53.9411 133.468C53.9711 133.462 54.0013 133.451 54.0271 133.425C54.065 133.391 54.1296 133.289 54.2245 133.116C54.4793 132.652 54.7437 132.125 55.022 131.539L55.7703 129.954L56.1493 129.102C56.3173 128.737 56.4172 128.509 56.4516 128.416C56.4895 128.323 56.5085 128.253 56.5094 128.205C56.512 128.177 56.5034 128.149 56.4862 128.119C56.4697 128.091 56.4353 128.05 56.3793 128.008L55.9771 127.779" fill="#B97D1C"/>
<path d="M60.604 129.968L60.7747 129.598C60.8349 129.626 61.034 129.726 61.3775 129.899C61.5455 129.985 61.7874 130.101 62.1018 130.244C62.3706 130.372 62.6023 130.468 62.8003 130.542C63.1242 130.673 63.3903 130.784 63.5978 130.88C63.9984 131.065 64.2844 131.235 64.4531 131.395C64.6202 131.556 64.7254 131.774 64.7684 132.053C64.8114 132.331 64.7606 132.624 64.6202 132.931C64.4531 133.294 64.2035 133.581 63.8769 133.792C63.5471 134.003 63.1431 134.103 62.6634 134.095C62.666 134.257 62.6755 134.428 62.6936 134.606C62.709 134.784 62.7203 134.892 62.7203 134.927C62.7211 134.963 62.722 135 62.7253 135.032L62.8391 136.35C62.8702 136.7 62.8856 136.889 62.8891 136.915C62.9458 137.302 62.9813 137.53 62.9994 137.604C63.0183 137.678 63.0442 137.736 63.075 137.775C63.107 137.815 63.1802 137.865 63.3008 137.922L63.1191 138.319C62.7315 138.127 62.4464 137.99 62.2707 137.906C62.0683 137.814 61.8608 137.727 61.6531 137.646C61.6712 137.574 61.6798 137.474 61.6798 137.345L61.5929 135.378C61.5669 134.812 61.5307 134.36 61.4868 134.024C61.4679 133.853 61.4335 133.719 61.3861 133.617L61.4981 133.487C61.7995 133.64 62.0475 133.709 62.2414 133.697C62.4378 133.681 62.6411 133.587 62.8486 133.417C63.0587 133.245 63.2258 133.022 63.3524 132.746C63.479 132.469 63.5308 132.212 63.5032 131.976C63.473 131.743 63.3938 131.549 63.2602 131.401C63.1734 131.308 62.9941 131.197 62.7167 131.07C62.5928 131.013 62.4671 130.968 62.3379 130.938C62.2784 131.042 62.1596 131.284 61.977 131.657C61.5695 132.501 61.3016 133.067 61.1691 133.354C60.9623 133.805 60.7453 134.288 60.5204 134.795C60.2448 135.42 60.0916 135.777 60.0572 135.863C59.9873 136.034 59.9503 136.151 59.9478 136.211C59.9478 136.241 59.9538 136.27 59.9692 136.3C59.9831 136.332 60.0107 136.363 60.0572 136.398C60.1028 136.434 60.2466 136.512 60.4905 136.63L60.3079 137.027C59.8806 136.805 59.444 136.591 58.996 136.386C58.5974 136.203 58.2227 136.044 57.873 135.908L58.0556 135.512C58.3517 135.632 58.5327 135.695 58.5965 135.699C58.63 135.705 58.6602 135.699 58.6825 135.683C58.7058 135.671 58.7385 135.634 58.774 135.574C58.8463 135.463 58.94 135.291 59.0588 135.058L59.6936 133.756L60.4629 132.079L60.8823 131.118C61.0503 130.74 61.1389 130.508 61.1475 130.42C61.151 130.381 61.1433 130.346 61.1259 130.316C61.0811 130.252 60.9063 130.135 60.604 129.968" fill="#B97D1C"/>
<path d="M68.6871 133.16L68.514 133.56C68.2478 133.456 68.0878 133.397 68.0335 133.391C67.9766 133.382 67.9361 133.383 67.9059 133.395C67.8759 133.406 67.8507 133.425 67.8302 133.451C67.7905 133.496 67.7319 133.587 67.6622 133.731C67.6217 133.806 67.5555 133.954 67.4581 134.17C67.1205 134.913 66.9412 135.313 66.9163 135.371L66.1162 137.205L65.7665 138.043C65.6296 138.356 65.553 138.564 65.5391 138.671C65.5314 138.716 65.535 138.756 65.5486 138.79C65.5632 138.823 65.5952 138.86 65.6417 138.896C65.6864 138.933 65.8372 139.011 66.0904 139.127L65.9164 139.527C65.5048 139.322 65.0602 139.118 64.5822 138.908C64.1679 138.728 63.7942 138.578 63.4575 138.456L63.6324 138.057C63.9071 138.159 64.0663 138.219 64.1119 138.228C64.1706 138.239 64.2153 138.237 64.2429 138.225C64.2722 138.213 64.2947 138.193 64.311 138.167C64.3333 138.134 64.4074 137.996 64.5298 137.754C64.7072 137.399 64.8656 137.068 65.0009 136.756L65.8286 134.855C66.0912 134.25 66.2584 133.861 66.3307 133.687C66.4822 133.294 66.5737 133.047 66.5977 132.942C66.6072 132.9 66.6072 132.862 66.5995 132.833C66.5924 132.805 66.5684 132.774 66.5305 132.742C66.4917 132.707 66.3325 132.625 66.0586 132.49L66.2317 132.091C66.5477 132.252 66.9163 132.426 67.3359 132.608C67.8086 132.814 68.2573 132.998 68.6871 133.16" fill="#B97D1C"/>
<path d="M66.5122 139.842L66.6663 139.447C66.9713 139.537 67.1574 139.579 67.222 139.576C67.2581 139.576 67.2907 139.564 67.321 139.542C67.3589 139.511 67.3986 139.458 67.4347 139.383C67.5225 139.214 67.687 138.836 67.9299 138.25C68.0497 137.965 68.2459 137.474 68.5173 136.772C68.7585 136.146 68.9695 135.588 69.1503 135.103C69.3278 134.618 69.4224 134.323 69.4319 134.22C69.4372 134.174 69.4354 134.133 69.4215 134.101C69.4096 134.071 69.3717 134.036 69.3148 133.999C69.1548 133.898 69.0057 133.817 68.8679 133.757L69.0211 133.364C69.5534 133.594 69.9221 133.749 70.1262 133.828C70.395 133.934 70.6722 134.028 70.9548 134.112L70.9445 135.163L70.9513 135.965L71.0245 139.485C71.5283 138.981 71.9115 138.586 72.1776 138.301L73.195 137.221C73.759 136.617 74.1054 136.245 74.2346 136.105C74.3629 135.965 74.517 135.784 74.6945 135.562C75.0312 135.717 75.2499 135.815 75.3447 135.851L76.5332 136.276L76.3808 136.667L76.3257 136.645C76.0587 136.539 75.8743 136.509 75.7718 136.557C75.6719 136.605 75.5807 136.737 75.4962 136.953C75.3963 137.208 75.3214 137.402 75.2671 137.534L74.747 138.83L74.1164 140.454C73.9649 140.85 73.8763 141.081 73.8529 141.15C73.7211 141.552 73.6472 141.798 73.6291 141.892C73.6203 141.941 73.6212 141.982 73.6315 142.014C73.6428 142.048 73.6653 142.081 73.6988 142.109C73.7323 142.141 73.8926 142.223 74.1768 142.357L74.0251 142.751L72.7789 142.231L71.5387 141.785L71.691 141.395C72.0211 141.506 72.214 141.557 72.2742 141.541C72.3311 141.525 72.3913 141.468 72.4559 141.361C72.5205 141.254 72.6782 140.876 72.9313 140.224L74.2361 136.854L72.4835 138.671L71.6273 139.579C71.4035 139.82 71.0796 140.169 70.6618 140.627C70.4051 140.903 70.2021 141.129 70.0513 141.303L69.7834 141.198C69.7893 140.902 69.7902 140.493 69.7878 139.976C69.7816 139.086 69.7721 138.42 69.7635 137.982L69.6912 135.093L68.8101 137.367C68.6637 137.745 68.4915 138.198 68.2995 138.726C68.1066 139.251 68.0014 139.55 67.9851 139.624C67.967 139.7 67.9661 139.756 67.9765 139.795C67.9851 139.837 68.0159 139.873 68.0651 139.92C68.1099 139.964 68.2649 140.046 68.5233 140.167L68.3709 140.56C68.0841 140.424 67.7895 140.296 67.4812 140.177C67.0806 140.023 66.7569 139.91 66.5122 139.842" fill="#B97D1C"/>
<path d="M76.7261 136.759L76.8442 136.363L78.1506 136.789L78.6985 136.941L79.2498 137.088L79.3979 137.126L79.2815 137.521C78.9905 137.435 78.7975 137.409 78.7019 137.447C78.6529 137.462 78.6088 137.51 78.5702 137.586C78.4736 137.771 78.3246 138.201 78.1257 138.869L77.7959 139.972L77.634 140.531C77.4616 141.112 77.3591 141.471 77.3291 141.612C77.2636 141.918 77.255 142.175 77.3033 142.388C77.3522 142.602 77.466 142.795 77.6426 142.972C77.8199 143.149 78.0715 143.285 78.3987 143.382C78.7726 143.494 79.0939 143.507 79.3624 143.422C79.6286 143.339 79.8449 143.19 80.0129 142.977C80.1791 142.765 80.3641 142.32 80.5641 141.646L80.8525 140.674C81.1032 139.838 81.2573 139.328 81.3091 139.142C81.4176 138.74 81.4727 138.494 81.4683 138.401C81.4641 138.344 81.4416 138.299 81.409 138.261C81.3358 138.18 81.1506 138.09 80.8534 137.991L80.9722 137.594C81.4546 137.763 81.7397 137.861 81.831 137.888C81.8559 137.896 81.8912 137.906 81.9421 137.917L82.8472 138.155L82.731 138.552C82.4795 138.474 82.3159 138.453 82.2374 138.482C82.1953 138.498 82.1556 138.536 82.1152 138.604C82.072 138.667 81.9549 138.982 81.7664 139.547C81.5768 140.112 81.4339 140.56 81.3358 140.89L81.0033 142.008C80.918 142.295 80.8095 142.584 80.6854 142.878C80.5597 143.172 80.4098 143.411 80.2393 143.595C80.0689 143.78 79.8603 143.929 79.6131 144.044C79.3695 144.161 79.0981 144.225 78.8053 144.232C78.5125 144.242 78.1894 144.195 77.838 144.092C77.4281 143.968 77.0654 143.788 76.7486 143.552C76.5186 143.378 76.3437 143.187 76.2284 142.979C76.1111 142.77 76.0406 142.554 76.0148 142.329C75.9863 142.106 75.9899 141.898 76.026 141.708C76.0474 141.592 76.1336 141.281 76.2827 140.781L76.5598 139.867L76.919 138.66C77.0535 138.216 77.1662 137.815 77.2577 137.454C77.2912 137.312 77.3066 137.207 77.2998 137.138C77.2962 137.098 77.2773 137.046 77.2352 136.982L76.7261 136.759" fill="#B97D1C"/>
<path d="M81.6753 145.072L81.7518 144.658C82.0697 144.691 82.2591 144.699 82.3237 144.683C82.3581 144.677 82.3866 144.658 82.415 144.63C82.4452 144.592 82.4746 144.533 82.4968 144.453C82.5528 144.27 82.6441 143.869 82.7724 143.248C82.8362 142.946 82.9378 142.426 83.0739 141.687C83.198 141.028 83.3014 140.441 83.3874 139.93C83.4745 139.419 83.5124 139.112 83.5038 139.011C83.5003 138.961 83.4908 138.924 83.4701 138.895C83.4502 138.866 83.4099 138.839 83.3461 138.815C83.1695 138.744 83.0092 138.692 82.8637 138.659L82.9405 138.244C83.5053 138.374 83.8965 138.456 84.1134 138.498C84.3968 138.549 84.6863 138.592 84.9773 138.623L85.1634 139.657L85.3175 140.441L86.0445 143.889C86.4433 143.3 86.7489 142.84 86.9558 142.513L87.7559 141.263C88.1986 140.563 88.469 140.135 88.5706 139.972C88.6714 139.809 88.7884 139.603 88.9229 139.355C89.283 139.443 89.513 139.498 89.6153 139.516L90.8617 139.713L90.7867 140.128L90.7263 140.115C90.4439 140.061 90.2571 140.067 90.1674 140.131C90.077 140.199 90.0091 140.345 89.9685 140.572C89.9184 140.842 89.8781 141.047 89.8514 141.187L89.58 142.555L89.2596 144.268C89.1847 144.684 89.1408 144.929 89.1304 145.001C89.0744 145.418 89.0477 145.676 89.0477 145.774C89.0477 145.821 89.0563 145.86 89.072 145.892C89.091 145.924 89.1168 145.951 89.158 145.972C89.1968 145.996 89.369 146.048 89.6722 146.127L89.5957 146.542L88.276 146.262L86.9721 146.056L87.0506 145.64C87.3941 145.691 87.5965 145.704 87.6516 145.679C87.7067 145.652 87.7559 145.583 87.798 145.465C87.8404 145.35 87.9246 144.949 88.0529 144.261L88.7111 140.708L87.3244 142.819L86.6517 143.87C86.4751 144.148 86.2253 144.551 85.8963 145.079C85.6974 145.398 85.5407 145.656 85.4227 145.854L85.1403 145.803C85.0911 145.51 85.0179 145.11 84.9171 144.601C84.7465 143.726 84.6157 143.074 84.5251 142.642L83.9188 139.82L83.4745 142.216C83.4013 142.616 83.3186 143.093 83.2247 143.646C83.1334 144.199 83.0833 144.514 83.0818 144.589C83.0783 144.665 83.086 144.722 83.1049 144.757C83.1221 144.794 83.1574 144.83 83.2134 144.863C83.2685 144.898 83.4357 144.951 83.7113 145.02L83.633 145.436C83.3281 145.355 83.0137 145.287 82.6898 145.226C82.2644 145.148 81.9284 145.098 81.6753 145.072" fill="#B97D1C"/>
<path d="M98.6131 145.967L98.4107 146.466C98.0568 146.678 97.7406 146.824 97.4582 146.9C97.1764 146.978 96.8252 147.013 96.4074 147.005C95.8123 146.996 95.286 146.876 94.8304 146.65C94.473 146.464 94.1714 146.222 93.926 145.924C93.678 145.626 93.4919 145.303 93.3629 144.959C93.1647 144.436 93.0707 143.869 93.0811 143.262C93.0965 142.218 93.4136 141.372 94.0303 140.721C94.6461 140.07 95.5065 139.752 96.6107 139.771C96.9897 139.775 97.3332 139.813 97.6339 139.884C97.9345 139.956 98.2833 140.079 98.6804 140.253L98.7018 140.317C98.6519 140.474 98.6166 140.666 98.5856 140.902C98.539 141.276 98.5055 141.621 98.4907 141.939L98.16 141.934C98.16 141.571 98.1514 141.28 98.1333 141.061C97.9472 140.825 97.7406 140.65 97.5056 140.531C97.2721 140.415 96.9725 140.351 96.6062 140.345C95.9457 140.336 95.4134 140.572 95.0086 141.058C94.6038 141.545 94.3972 142.227 94.3833 143.107C94.3756 143.64 94.4342 144.106 94.5625 144.503C94.69 144.904 94.8604 145.235 95.0802 145.5C95.299 145.762 95.5186 145.954 95.7424 146.077C96.0455 146.24 96.416 146.327 96.8536 146.333C97.1403 146.336 97.4117 146.302 97.6683 146.23C97.9259 146.159 98.2065 146.032 98.5097 145.853L98.6131 145.967Z" fill="#B97D1C"/>
<path d="M100.393 143.016C100.48 143.782 100.641 144.408 100.877 144.887C101.113 145.369 101.385 145.698 101.687 145.874C101.989 146.049 102.331 146.116 102.711 146.073C103.064 146.03 103.369 145.897 103.624 145.668C103.879 145.437 104.058 145.079 104.162 144.589C104.267 144.103 104.282 143.523 104.205 142.85C104.15 142.391 104.062 141.974 103.933 141.601C103.804 141.23 103.645 140.918 103.453 140.669C103.263 140.418 103.053 140.237 102.82 140.119C102.588 140.001 102.293 139.964 101.933 140.002C101.528 140.05 101.191 140.203 100.933 140.462C100.671 140.72 100.499 141.077 100.421 141.531C100.34 141.988 100.331 142.482 100.393 143.016V143.016ZM99.1359 143.456C99.0644 142.854 99.0843 142.322 99.1883 141.857C99.2909 141.392 99.4701 140.988 99.7224 140.642C99.9757 140.296 100.262 140.036 100.584 139.859C100.997 139.634 101.46 139.492 101.972 139.434C102.48 139.377 102.951 139.41 103.384 139.529C103.707 139.622 103.999 139.777 104.263 139.99C104.525 140.205 104.734 140.433 104.886 140.672C105.038 140.91 105.161 141.178 105.26 141.473C105.357 141.769 105.427 142.098 105.467 142.464C105.539 143.082 105.514 143.666 105.393 144.217C105.303 144.627 105.146 145 104.924 145.334C104.7 145.67 104.431 145.939 104.12 146.14C103.694 146.413 103.186 146.583 102.608 146.648C101.979 146.719 101.423 146.648 100.941 146.431C100.459 146.213 100.059 145.86 99.7431 145.366C99.4263 144.872 99.223 144.235 99.1359 143.456" fill="#B97D1C"/>
<path d="M111.301 139.743L110.972 139.824C110.948 139.722 110.906 139.568 110.843 139.37C110.802 139.23 110.759 139.113 110.716 139.019C110.625 138.939 110.529 138.878 110.437 138.836C110.223 138.739 109.991 138.676 109.741 138.653C109.488 138.631 109.218 138.655 108.924 138.726C108.242 138.895 107.756 139.275 107.467 139.873C107.179 140.475 107.141 141.208 107.355 142.079C107.587 143.032 107.991 143.734 108.559 144.189C109.129 144.645 109.728 144.796 110.356 144.643C110.537 144.597 110.713 144.531 110.873 144.443C111.036 144.356 111.189 144.247 111.336 144.122C111.321 144.032 111.288 143.863 111.231 143.614C111.178 143.365 111.143 143.215 111.13 143.163C111.053 142.854 111.001 142.675 110.963 142.623C110.938 142.587 110.895 142.569 110.833 142.568C110.73 142.559 110.462 142.591 110.032 142.667L109.936 142.275L111.166 141.995L112.396 141.674L112.471 141.992C112.325 142.068 112.234 142.148 112.199 142.227C112.184 142.264 112.19 142.357 112.22 142.504C112.297 142.875 112.356 143.142 112.393 143.304C112.453 143.549 112.527 143.796 112.616 144.047C112.161 144.39 111.756 144.652 111.4 144.835C111.043 145.019 110.675 145.157 110.299 145.248C109.685 145.4 109.112 145.41 108.576 145.283C108.205 145.19 107.869 145.035 107.566 144.819C107.263 144.604 107.014 144.354 106.81 144.068C106.5 143.628 106.27 143.108 106.122 142.509C105.998 142.005 105.954 141.549 105.989 141.142C106.022 140.734 106.121 140.363 106.278 140.026C106.437 139.689 106.638 139.398 106.881 139.152C107.129 138.905 107.401 138.709 107.697 138.555C107.992 138.401 108.332 138.279 108.71 138.186C109.172 138.072 109.618 138.017 110.042 138.017C110.466 138.02 110.806 138.052 111.058 138.116L111.114 138.201C111.118 138.499 111.179 139.013 111.301 139.743" fill="#B97D1C"/>
<path d="M113.848 143.702C114.154 143.571 114.327 143.49 114.366 143.459C114.39 143.435 114.408 143.407 114.419 143.371C114.428 143.335 114.424 143.272 114.406 143.18C114.379 143.057 114.292 142.763 114.152 142.301C114.069 142.038 113.952 141.699 113.802 141.286L113.263 139.787L112.753 138.435C112.667 138.21 112.607 138.063 112.569 138.001C112.531 137.936 112.492 137.891 112.457 137.869C112.421 137.846 112.37 137.834 112.305 137.837C112.241 137.84 112.066 137.879 111.779 137.959L111.637 137.564C111.98 137.467 112.23 137.387 112.389 137.331L112.96 137.107L113.319 136.96C114.167 137.602 115.177 138.327 116.345 139.142C117.186 139.728 117.871 140.177 118.4 140.49L118.011 139.411C117.408 137.736 117.035 136.755 116.9 136.472C116.848 136.36 116.795 136.294 116.745 136.274C116.665 136.24 116.448 136.282 116.093 136.402L115.951 136.01C116.281 135.915 116.584 135.821 116.854 135.723C117.115 135.627 117.449 135.497 117.852 135.325L117.995 135.717C117.676 135.843 117.492 135.94 117.449 136.01C117.434 136.031 117.427 136.062 117.432 136.096C117.447 136.264 117.55 136.63 117.74 137.189C117.926 137.749 118.068 138.163 118.163 138.427C118.909 140.497 119.38 141.747 119.576 142.177L119.539 142.237C119.3 142.274 119.059 142.316 118.814 142.361C117.556 141.545 115.735 140.295 113.354 138.61L114.193 140.933C114.366 141.417 114.557 141.918 114.764 142.434C114.904 142.791 114.999 143.004 115.049 143.075C115.072 143.108 115.102 143.133 115.136 143.146C115.17 143.16 115.219 143.161 115.286 143.149C115.467 143.111 115.597 143.078 115.678 143.049C115.694 143.043 115.717 143.032 115.754 143.016L115.889 143.395C115.384 143.567 115.097 143.665 115.027 143.689C114.77 143.782 114.424 143.919 113.991 144.1L113.848 143.702" fill="#B97D1C"/>
<path d="M120.214 137.812C120.526 138.517 120.869 139.064 121.238 139.454C121.608 139.842 121.962 140.075 122.304 140.151C122.645 140.23 122.992 140.19 123.342 140.033C123.665 139.89 123.915 139.67 124.092 139.377C124.265 139.081 124.329 138.684 124.284 138.188C124.238 137.691 124.076 137.132 123.804 136.514C123.615 136.09 123.403 135.721 123.168 135.405C122.936 135.087 122.69 134.838 122.434 134.657C122.179 134.473 121.922 134.363 121.664 134.321C121.409 134.278 121.116 134.33 120.786 134.476C120.41 134.643 120.136 134.889 119.964 135.213C119.791 135.536 119.739 135.928 119.798 136.388C119.856 136.846 119.998 137.32 120.214 137.812V137.812ZM119.144 138.607C118.901 138.054 118.756 137.54 118.717 137.065C118.677 136.591 118.726 136.151 118.864 135.746C119.001 135.34 119.198 135.005 119.454 134.74C119.779 134.402 120.18 134.131 120.649 133.922C121.117 133.716 121.577 133.604 122.025 133.59C122.361 133.582 122.688 133.642 123.003 133.767C123.319 133.895 123.586 134.049 123.8 134.231C124.017 134.415 124.216 134.632 124.398 134.886C124.579 135.139 124.746 135.433 124.891 135.769C125.145 136.337 125.294 136.902 125.345 137.462C125.381 137.879 125.345 138.283 125.231 138.668C125.117 139.056 124.945 139.392 124.706 139.678C124.381 140.066 123.949 140.376 123.414 140.616C122.836 140.872 122.283 140.968 121.758 140.906C121.234 140.845 120.744 140.625 120.296 140.247C119.847 139.871 119.463 139.325 119.144 138.607" fill="#B97D1C"/>
<path d="M128.204 132.475L127.886 132.631C127.712 132.29 127.58 132.054 127.49 131.919C127.348 131.828 127.156 131.78 126.912 131.774C126.669 131.765 126.428 131.823 126.19 131.936C125.847 132.106 125.631 132.339 125.544 132.634C125.455 132.931 125.478 133.215 125.613 133.49C125.713 133.687 125.818 133.83 125.93 133.926C126.044 134.023 126.167 134.082 126.299 134.105C126.432 134.128 126.611 134.122 126.831 134.088C126.995 134.052 127.221 133.997 127.511 133.922C127.798 133.847 127.983 133.801 128.072 133.784C128.308 133.746 128.508 133.741 128.679 133.766C128.848 133.792 128.997 133.843 129.13 133.922C129.257 133.999 129.391 134.112 129.523 134.265C129.656 134.415 129.777 134.598 129.884 134.817C130.07 135.195 130.168 135.562 130.173 135.916C130.179 136.183 130.136 136.449 130.046 136.719C129.953 136.986 129.836 137.21 129.691 137.393C129.457 137.685 129.13 137.934 128.705 138.142C128.394 138.295 128.101 138.396 127.823 138.446C127.549 138.498 127.225 138.511 126.853 138.487C126.764 138.108 126.552 137.574 126.215 136.88L126.531 136.724C126.633 136.941 126.779 137.201 126.968 137.504C127.153 137.642 127.397 137.724 127.699 137.749C128 137.775 128.288 137.721 128.562 137.585C128.803 137.469 128.993 137.315 129.131 137.123C129.272 136.93 129.339 136.724 129.339 136.508C129.337 136.291 129.282 136.07 129.173 135.848C129.079 135.661 128.972 135.516 128.848 135.408C128.723 135.304 128.576 135.243 128.412 135.226C128.245 135.207 127.982 135.231 127.62 135.301C127.109 135.413 126.767 135.479 126.6 135.498C126.344 135.528 126.114 135.502 125.911 135.423C125.707 135.34 125.522 135.213 125.352 135.038C125.187 134.865 125.045 134.661 124.929 134.42C124.765 134.088 124.674 133.753 124.654 133.414C124.634 133.073 124.684 132.78 124.804 132.531C124.921 132.279 125.086 132.061 125.3 131.873C125.513 131.687 125.746 131.532 126.004 131.402C126.271 131.272 126.546 131.173 126.824 131.106C127.103 131.039 127.361 131.015 127.599 131.03L127.68 131.122C127.741 131.333 127.806 131.534 127.883 131.726C127.954 131.92 128.063 132.169 128.204 132.475" fill="#B97D1C"/>
<path d="M136.03 133.258L136.081 133.793C135.868 134.148 135.654 134.425 135.441 134.624C135.226 134.822 134.933 135.016 134.56 135.207C134.029 135.475 133.508 135.616 132.999 135.625C132.597 135.627 132.219 135.554 131.86 135.407C131.504 135.257 131.189 135.059 130.914 134.812C130.495 134.443 130.146 133.986 129.871 133.443C129.4 132.513 129.285 131.616 129.527 130.753C129.769 129.89 130.383 129.21 131.367 128.709C131.707 128.537 132.026 128.413 132.326 128.333C132.625 128.255 132.993 128.203 133.424 128.172L133.473 128.22C133.504 128.378 133.559 128.569 133.644 128.792C133.775 129.142 133.907 129.463 134.042 129.755L133.749 129.901C133.576 129.579 133.433 129.325 133.314 129.14C133.043 129.02 132.775 128.961 132.515 128.965C132.254 128.972 131.959 129.055 131.633 129.222C131.044 129.519 130.683 129.977 130.552 130.597C130.42 131.213 130.552 131.914 130.952 132.699C131.195 133.176 131.461 133.56 131.763 133.853C132.061 134.146 132.367 134.36 132.683 134.491C132.999 134.624 133.284 134.691 133.538 134.692C133.885 134.696 134.252 134.6 134.64 134.402C134.897 134.273 135.122 134.115 135.317 133.933C135.509 133.749 135.697 133.507 135.882 133.206L136.03 133.258" fill="#B97D1C"/>
<path d="M136.856 133.84L136.736 133.599C136.847 133.444 136.926 133.296 136.978 133.16C136.931 133.026 136.845 132.818 136.718 132.536C136.484 132.015 136.31 131.639 136.195 131.409L135.203 129.408C135.162 129.33 135.015 129.042 134.758 128.546C134.586 128.216 134.468 128.018 134.401 127.958C134.374 127.936 134.346 127.923 134.313 127.921C134.229 127.918 134.032 127.981 133.729 128.111L133.559 127.767L134.432 127.325C134.606 127.236 134.771 127.156 134.929 127.077C135.275 126.903 135.659 126.711 136.074 126.49L136.834 126.087C136.923 126.041 137.111 125.957 137.394 125.829C137.42 125.818 137.465 125.807 137.532 125.796L137.586 125.839L137.834 126.515C137.853 126.562 137.945 126.782 138.115 127.174L137.818 127.323C137.641 126.975 137.521 126.765 137.463 126.696C137.433 126.659 137.404 126.635 137.374 126.627C137.329 126.617 137.216 126.643 137.039 126.708C136.772 126.798 136.521 126.902 136.28 127.021C136.057 127.131 135.835 127.255 135.611 127.391C135.743 127.747 135.939 128.186 136.195 128.706L136.652 129.626C136.832 129.555 137.013 129.472 137.198 129.379C137.256 129.354 137.463 129.244 137.814 129.054C137.951 128.985 138.025 128.931 138.041 128.901C138.055 128.873 138.057 128.834 138.048 128.783C138.023 128.654 137.945 128.458 137.819 128.192L138.127 128.038L138.594 129.026L139.095 129.991L138.789 130.145C138.621 129.8 138.498 129.596 138.417 129.536C138.356 129.493 138.283 129.481 138.196 129.504C138.005 129.562 137.771 129.655 137.496 129.793C137.249 129.915 137.05 130.025 136.9 130.127L137.827 131.991C137.93 132.2 138.023 132.376 138.105 132.522C138.318 132.441 138.565 132.332 138.843 132.193C139.116 132.061 139.362 131.924 139.582 131.789C139.801 131.655 139.928 131.556 139.961 131.491C139.974 131.47 139.976 131.433 139.971 131.384C139.948 131.221 139.86 130.927 139.712 130.505L140.023 130.353C140.258 130.967 140.471 131.463 140.658 131.843L140.638 131.924C140.488 132.027 140.264 132.148 139.967 132.296L139.351 132.585C138.747 132.871 138.329 133.071 138.101 133.185C138.042 133.214 137.627 133.431 136.856 133.84" fill="#B97D1C"/>
<path d="M138.592 125.671L138.424 125.303C138.483 125.275 138.692 125.188 139.048 125.045C139.222 124.971 139.468 124.864 139.782 124.722C140.051 124.599 140.279 124.489 140.465 124.389C140.775 124.227 141.034 124.098 141.242 124.005C141.642 123.823 141.96 123.719 142.189 123.696C142.422 123.673 142.655 123.737 142.894 123.888C143.131 124.037 143.321 124.266 143.459 124.575C143.627 124.94 143.681 125.317 143.625 125.702C143.568 126.087 143.38 126.459 143.059 126.814C143.186 126.92 143.321 127.025 143.467 127.13C143.613 127.233 143.698 127.295 143.729 127.319C143.756 127.342 143.782 127.364 143.81 127.384L144.88 128.159C145.165 128.363 145.319 128.475 145.342 128.49C145.669 128.702 145.867 128.823 145.934 128.857C146.004 128.891 146.063 128.909 146.113 128.913C146.163 128.916 146.249 128.891 146.373 128.84L146.554 129.237C146.151 129.404 145.863 129.528 145.686 129.608C145.483 129.701 145.28 129.8 145.085 129.903C145.043 129.843 144.973 129.771 144.876 129.688L143.33 128.468C142.885 128.116 142.523 127.846 142.238 127.657C142.097 127.564 141.972 127.497 141.865 127.467L141.839 127.299C142.153 127.172 142.365 127.03 142.484 126.872C142.602 126.716 142.663 126.502 142.669 126.23C142.676 125.961 142.616 125.687 142.491 125.411C142.365 125.136 142.204 124.929 142.009 124.797C141.815 124.665 141.616 124.599 141.416 124.602C141.288 124.605 141.084 124.668 140.809 124.796C140.686 124.853 140.57 124.92 140.458 124.998C140.501 125.11 140.604 125.357 140.768 125.742C141.141 126.6 141.393 127.174 141.525 127.461C141.728 127.914 141.951 128.392 142.189 128.895C142.481 129.512 142.649 129.86 142.693 129.942C142.777 130.107 142.839 130.21 142.885 130.254C142.908 130.273 142.932 130.288 142.965 130.296C142.995 130.307 143.041 130.307 143.096 130.292C143.154 130.281 143.307 130.223 143.555 130.12L143.737 130.518C143.289 130.695 142.839 130.885 142.392 131.088C141.994 131.271 141.627 131.45 141.298 131.626L141.116 131.227C141.401 131.082 141.568 130.987 141.611 130.942C141.64 130.919 141.655 130.893 141.657 130.864C141.663 130.837 141.655 130.791 141.633 130.725C141.598 130.598 141.53 130.415 141.43 130.173L140.861 128.838L140.099 127.16L139.644 126.214C139.468 125.839 139.351 125.621 139.289 125.557C139.264 125.529 139.233 125.512 139.198 125.506C139.121 125.497 138.919 125.553 138.592 125.671" fill="#B97D1C"/>
<path d="M146.711 129.184L146.614 128.937C146.739 128.788 146.834 128.651 146.896 128.518C146.864 128.38 146.793 128.167 146.693 127.872C146.507 127.334 146.369 126.944 146.278 126.704L145.47 124.619C145.44 124.538 145.322 124.239 145.109 123.721C144.967 123.374 144.867 123.169 144.807 123.102C144.782 123.078 144.755 123.062 144.722 123.057C144.636 123.048 144.438 123.092 144.123 123.191L143.985 122.837L144.896 122.475C145.077 122.403 145.25 122.336 145.417 122.272C145.774 122.133 146.173 121.975 146.61 121.794L147.402 121.463C147.497 121.427 147.689 121.359 147.983 121.26C148.009 121.249 148.054 121.242 148.122 121.238L148.175 121.287L148.359 121.983C148.374 122.03 148.445 122.256 148.575 122.665L148.269 122.784C148.122 122.42 148.024 122.2 147.975 122.125C147.946 122.086 147.917 122.061 147.89 122.052C147.843 122.036 147.731 122.052 147.548 122.097C147.274 122.164 147.013 122.246 146.766 122.342C146.53 122.431 146.3 122.535 146.063 122.648C146.162 123.017 146.317 123.469 146.525 124.012L146.896 124.969C147.081 124.915 147.269 124.852 147.462 124.778C147.523 124.752 147.738 124.665 148.107 124.506C148.247 124.448 148.325 124.404 148.343 124.375C148.361 124.348 148.368 124.309 148.363 124.257C148.348 124.128 148.291 123.926 148.191 123.649L148.511 123.525L148.883 124.552L149.293 125.559L148.977 125.68C148.841 125.324 148.734 125.11 148.66 125.043C148.605 124.994 148.533 124.976 148.445 124.994C148.249 125.03 148.009 125.103 147.722 125.212C147.464 125.313 147.257 125.406 147.097 125.491L147.847 127.434C147.933 127.651 148.009 127.836 148.076 127.986C148.296 127.928 148.552 127.84 148.845 127.729C149.125 127.62 149.383 127.508 149.613 127.394C149.845 127.278 149.98 127.191 150.02 127.13C150.035 127.11 150.04 127.077 150.038 127.028C150.029 126.859 149.971 126.561 149.862 126.127L150.185 126.002C150.365 126.635 150.53 127.15 150.682 127.544L150.654 127.625C150.495 127.712 150.262 127.814 149.95 127.934L149.312 128.163C148.682 128.393 148.249 128.554 148.014 128.646C147.95 128.669 147.516 128.849 146.711 129.184" fill="#B97D1C"/>
<path d="M151.636 120.433L151.537 120.038C151.602 120.023 151.821 119.977 152.2 119.9C152.383 119.862 152.648 119.802 152.983 119.72C153.269 119.65 153.511 119.582 153.715 119.519C154.05 119.418 154.328 119.341 154.548 119.285C154.979 119.182 155.31 119.14 155.537 119.159C155.77 119.18 155.987 119.285 156.194 119.478C156.4 119.668 156.542 119.93 156.623 120.258C156.719 120.648 156.705 121.027 156.575 121.397C156.448 121.764 156.194 122.093 155.814 122.385C155.918 122.513 156.033 122.641 156.155 122.769C156.279 122.897 156.353 122.975 156.377 123.004C156.398 123.032 156.422 123.06 156.446 123.085L157.356 124.043C157.596 124.298 157.725 124.436 157.746 124.455C158.029 124.724 158.201 124.879 158.26 124.925C158.32 124.971 158.375 125.003 158.427 125.013C158.475 125.026 158.564 125.019 158.694 124.989L158.797 125.411C158.372 125.503 158.067 125.571 157.878 125.617C157.662 125.671 157.443 125.729 157.231 125.796C157.197 125.729 157.143 125.644 157.064 125.547L155.774 124.058C155.399 123.632 155.095 123.297 154.85 123.062C154.728 122.94 154.618 122.857 154.518 122.807L154.525 122.635C154.857 122.568 155.095 122.466 155.237 122.336C155.382 122.202 155.483 122.004 155.541 121.74C155.596 121.473 155.589 121.196 155.517 120.902C155.444 120.606 155.324 120.374 155.155 120.207C154.988 120.041 154.805 119.939 154.609 119.907C154.48 119.885 154.271 119.912 153.975 119.983C153.845 120.017 153.717 120.062 153.596 120.118C153.617 120.236 153.67 120.498 153.761 120.906C153.971 121.819 154.112 122.43 154.183 122.735C154.303 123.218 154.431 123.728 154.572 124.268C154.745 124.928 154.845 125.303 154.871 125.39C154.926 125.57 154.97 125.684 155.004 125.732C155.021 125.755 155.044 125.775 155.074 125.788C155.104 125.804 155.149 125.812 155.204 125.812C155.263 125.811 155.422 125.781 155.688 125.723L155.792 126.148C155.32 126.24 154.844 126.342 154.366 126.462C153.938 126.565 153.549 126.673 153.188 126.782L153.085 126.36C153.394 126.27 153.575 126.209 153.626 126.174C153.656 126.154 153.677 126.132 153.685 126.106C153.695 126.081 153.695 126.032 153.687 125.962C153.677 125.832 153.643 125.637 153.591 125.382L153.276 123.965L152.841 122.174L152.57 121.163C152.467 120.76 152.39 120.523 152.344 120.45C152.32 120.417 152.294 120.395 152.261 120.382C152.189 120.36 151.977 120.376 151.636 120.433" fill="#B97D1C"/>
<path d="M158.989 125.423L158.956 125.155C159.113 125.045 159.238 124.933 159.332 124.821C159.332 124.68 159.319 124.455 159.293 124.145C159.246 123.577 159.21 123.165 159.18 122.909L158.913 120.691C158.902 120.606 158.858 120.286 158.781 119.732C158.729 119.361 158.682 119.137 158.642 119.059C158.625 119.026 158.601 119.004 158.571 118.992C158.489 118.962 158.285 118.957 157.957 118.977L157.911 118.596L158.881 118.47C159.074 118.445 159.258 118.424 159.434 118.404C159.817 118.358 160.241 118.299 160.71 118.234L161.558 118.107C161.661 118.095 161.864 118.077 162.171 118.053C162.201 118.05 162.247 118.054 162.312 118.065L162.35 118.126L162.356 118.846C162.358 118.896 162.373 119.134 162.4 119.561L162.074 119.601C162.022 119.214 161.98 118.977 161.949 118.891C161.932 118.844 161.915 118.815 161.887 118.798C161.848 118.773 161.734 118.759 161.543 118.758C161.265 118.754 160.99 118.77 160.727 118.802C160.477 118.831 160.226 118.875 159.97 118.929C159.977 119.308 160.012 119.784 160.082 120.361L160.205 121.38C160.397 121.374 160.597 121.359 160.801 121.332C160.866 121.324 161.096 121.291 161.493 121.23C161.645 121.208 161.731 121.187 161.755 121.164C161.778 121.14 161.794 121.105 161.803 121.052C161.823 120.923 161.816 120.713 161.786 120.42L162.124 120.378L162.234 121.464L162.387 122.543L162.048 122.583C162.005 122.2 161.952 121.97 161.898 121.886C161.857 121.825 161.79 121.791 161.702 121.785C161.503 121.773 161.25 121.785 160.946 121.821C160.672 121.853 160.447 121.892 160.272 121.94L160.521 124.003C160.55 124.236 160.578 124.431 160.605 124.597C160.835 124.593 161.102 124.572 161.411 124.536C161.715 124.498 161.99 124.455 162.242 124.4C162.498 124.345 162.649 124.292 162.701 124.245C162.718 124.229 162.734 124.198 162.744 124.15C162.778 123.986 162.793 123.68 162.796 123.233L163.138 123.191C163.157 123.851 163.191 124.389 163.242 124.809L163.195 124.879C163.018 124.925 162.765 124.967 162.434 125.007L161.76 125.069C161.094 125.14 160.636 125.188 160.383 125.219C160.317 125.227 159.85 125.296 158.989 125.423" fill="#B97D1C"/>
<path d="M163.783 118.29L163.792 117.884C163.855 117.884 164.081 117.897 164.465 117.92C164.653 117.933 164.92 117.943 165.268 117.95C165.563 117.956 165.814 117.956 166.027 117.946C166.377 117.936 166.663 117.933 166.893 117.939C167.333 117.948 167.662 117.995 167.881 118.073C168.099 118.152 168.284 118.312 168.434 118.551C168.581 118.788 168.652 119.077 168.644 119.414C168.634 119.817 168.521 120.178 168.303 120.503C168.084 120.827 167.754 121.076 167.31 121.26C167.378 121.41 167.454 121.562 167.539 121.718C167.627 121.875 167.677 121.97 167.694 122.002C167.708 122.036 167.724 122.067 167.739 122.097L168.366 123.262C168.534 123.57 168.626 123.736 168.639 123.759C168.843 124.091 168.968 124.288 169.013 124.348C169.06 124.409 169.104 124.454 169.151 124.476C169.194 124.498 169.283 124.515 169.416 124.52L169.405 124.956C168.971 124.935 168.659 124.92 168.465 124.917C168.239 124.911 168.017 124.914 167.794 124.921C167.782 124.849 167.747 124.752 167.7 124.635L166.835 122.865C166.587 122.354 166.377 121.954 166.205 121.664C166.116 121.514 166.033 121.404 165.95 121.329L166.001 121.166C166.337 121.187 166.593 121.153 166.769 121.062C166.941 120.971 167.089 120.804 167.213 120.563C167.337 120.323 167.402 120.052 167.41 119.75C167.416 119.446 167.359 119.19 167.24 118.985C167.119 118.78 166.971 118.635 166.788 118.555C166.674 118.5 166.463 118.47 166.157 118.463C166.023 118.46 165.889 118.47 165.757 118.495C165.747 118.612 165.732 118.88 165.714 119.298C165.675 120.234 165.653 120.859 165.646 121.175C165.634 121.673 165.628 122.196 165.623 122.753C165.618 123.439 165.618 123.826 165.623 123.918C165.625 124.103 165.638 124.225 165.659 124.282C165.671 124.309 165.688 124.334 165.714 124.356C165.738 124.375 165.777 124.394 165.834 124.409C165.891 124.425 166.053 124.437 166.322 124.45L166.313 124.887C165.832 124.853 165.348 124.831 164.853 124.819C164.415 124.809 164.009 124.813 163.633 124.826L163.644 124.391C163.965 124.386 164.155 124.37 164.215 124.348C164.25 124.34 164.273 124.325 164.289 124.3C164.306 124.279 164.317 124.232 164.328 124.163C164.352 124.034 164.369 123.839 164.385 123.577L164.449 122.127L164.492 120.286L164.494 119.236C164.499 118.822 164.488 118.574 164.461 118.487C164.448 118.452 164.426 118.424 164.4 118.404C164.335 118.363 164.129 118.324 163.783 118.29" fill="#B97D1C"/>
<path d="M170.093 118.482L170.188 118.079L171.518 118.415L172.075 118.528L172.635 118.635L172.787 118.664L172.698 119.067C172.401 118.999 172.205 118.988 172.114 119.033C172.066 119.051 172.026 119.101 171.992 119.182C171.911 119.376 171.79 119.81 171.637 120.493L171.385 121.617L171.261 122.185C171.13 122.776 171.054 123.142 171.032 123.281C170.99 123.591 170.999 123.851 171.062 124.059C171.126 124.269 171.251 124.455 171.44 124.616C171.631 124.782 171.891 124.899 172.223 124.975C172.605 125.06 172.928 125.051 173.187 124.948C173.45 124.847 173.652 124.683 173.806 124.459C173.957 124.236 174.108 123.78 174.263 123.092L174.483 122.103C174.676 121.251 174.792 120.73 174.831 120.542C174.916 120.133 174.952 119.885 174.942 119.793C174.933 119.739 174.911 119.693 174.868 119.655C174.793 119.58 174.602 119.504 174.298 119.426L174.39 119.022C174.882 119.158 175.175 119.236 175.266 119.257C175.291 119.263 175.33 119.268 175.381 119.278L176.301 119.453L176.21 119.855C175.956 119.798 175.79 119.786 175.713 119.819C175.674 119.838 175.633 119.882 175.599 119.95C175.562 120.017 175.468 120.34 175.319 120.917C175.171 121.493 175.056 121.951 174.98 122.287L174.727 123.425C174.659 123.715 174.576 124.012 174.469 124.313C174.365 124.615 174.232 124.864 174.076 125.059C173.915 125.253 173.719 125.419 173.483 125.553C173.245 125.686 172.979 125.765 172.689 125.796C172.396 125.825 172.073 125.8 171.713 125.721C171.296 125.627 170.924 125.472 170.589 125.258C170.349 125.103 170.162 124.925 170.03 124.724C169.9 124.523 169.813 124.31 169.771 124.09C169.728 123.87 169.72 123.662 169.739 123.47C169.752 123.351 169.817 123.036 169.934 122.527L170.144 121.596L170.422 120.368C170.521 119.916 170.607 119.506 170.676 119.142C170.7 118.997 170.704 118.891 170.693 118.82C170.689 118.781 170.662 118.732 170.618 118.671L170.093 118.482Z" fill="#B97D1C"/>
<path d="M174.206 125.95L174.386 125.566C174.683 125.68 174.867 125.735 174.933 125.736C174.967 125.74 175 125.729 175.03 125.708C175.073 125.68 175.116 125.631 175.159 125.559C175.258 125.396 175.447 125.033 175.732 124.465C175.872 124.19 176.102 123.711 176.421 123.032C176.71 122.423 176.959 121.886 177.173 121.413C177.388 120.941 177.501 120.654 177.518 120.553C177.527 120.506 177.527 120.465 177.517 120.433C177.506 120.402 177.474 120.364 177.419 120.323C177.264 120.213 177.121 120.12 176.99 120.051L177.171 119.668C177.686 119.937 178.042 120.118 178.241 120.213C178.503 120.335 178.77 120.45 179.046 120.554L178.961 121.601L178.91 122.399L178.732 125.919C179.27 125.451 179.681 125.085 179.965 124.821L181.057 123.814C181.665 123.251 182.038 122.907 182.174 122.776C182.311 122.644 182.479 122.476 182.671 122.268C182.995 122.445 183.207 122.558 183.299 122.6L184.454 123.108L184.274 123.49L184.223 123.466C183.962 123.339 183.783 123.297 183.678 123.337C183.573 123.378 183.47 123.503 183.372 123.711C183.257 123.961 183.164 124.15 183.101 124.276L182.492 125.531L181.747 127.105C181.567 127.488 181.461 127.714 181.432 127.781C181.273 128.171 181.181 128.413 181.154 128.507C181.144 128.552 181.141 128.593 181.15 128.627C181.156 128.664 181.179 128.696 181.212 128.727C181.242 128.759 181.395 128.852 181.671 129.007L181.492 129.388L180.284 128.782L179.078 128.249L179.258 127.868C179.58 128.005 179.771 128.07 179.827 128.056C179.888 128.048 179.955 127.992 180.025 127.89C180.096 127.789 180.28 127.422 180.579 126.79L182.121 123.522L180.244 125.21L179.326 126.056C179.083 126.279 178.736 126.603 178.284 127.031C178.013 127.289 177.794 127.497 177.63 127.66L177.371 127.539C177.399 127.241 177.427 126.836 177.462 126.317C177.518 125.43 177.558 124.767 177.58 124.326L177.713 121.442L176.674 123.647C176.501 124.013 176.299 124.454 176.067 124.965C175.837 125.476 175.71 125.769 175.688 125.839C175.667 125.913 175.661 125.968 175.667 126.01C175.675 126.049 175.702 126.093 175.748 126.139C175.792 126.187 175.937 126.279 176.187 126.419L176.006 126.799C175.732 126.644 175.444 126.496 175.149 126.355C174.759 126.174 174.443 126.037 174.206 125.95" fill="#B97D1C"/>
<path d="M44.9355 1.49644C44.6487 1.49644 44.3636 1.57294 44.144 1.76256C43.92 1.9588 43.7797 2.23882 43.765 2.53758C43.7564 2.71948 42.7961 20.9648 42.7961 44.3665C42.7961 68.7209 44.4187 81.765 48.7778 92.501C53.2003 103.397 60.0268 108.777 73.6532 116.718C86.6999 124.317 92.1594 125.342 95.7992 125.342C99.4416 125.342 104.899 124.317 117.943 116.718C131.573 108.777 138.399 103.397 142.825 92.501C147.181 81.765 148.802 68.7209 148.802 44.3665C148.802 20.9648 147.843 2.71948 147.835 2.53758C147.818 2.23882 147.684 1.9588 147.454 1.76256C147.232 1.56875 146.944 1.49644 146.647 1.49644C146.647 1.49644 45.2224 1.49644 44.9355 1.49644ZM145.509 3.89248C145.729 8.55447 146.413 24.6596 146.413 44.3665C146.413 68.3783 144.84 81.1803 140.612 91.6018C138.565 96.6402 135.973 100.456 132.205 103.971C128.818 107.132 124.338 110.228 116.74 114.654C110.928 118.04 106.289 120.32 102.557 121.624C99.1883 122.802 97.1748 122.953 95.7992 122.953C94.4229 122.953 92.4109 122.802 89.0417 121.624C85.3097 120.319 80.67 118.04 74.8573 114.655C67.2599 110.228 62.7794 107.132 59.3947 103.971C55.6283 100.456 53.0358 96.6402 50.9912 91.6027C46.7587 81.1811 45.1862 68.3783 45.1862 44.3665C45.1862 24.6717 45.8682 8.58467 46.0896 3.90614L145.509 3.89248Z" fill="#B97D1C"/>
<path d="M126.436 30.9694L125.291 27.767L124.158 30.9158L120.774 31.0494L123.463 33.1286L122.503 36.3601L125.282 34.4428L128.084 36.3601L127.123 33.0923L129.808 31.0494L126.436 30.9694" fill="#B97D1C"/>
<path d="M122.478 49.1295L125.046 51.5024L124.791 48.0158L128.249 47.4871L125.363 45.5113L127.106 42.4796L123.762 43.5035L122.478 40.2513L121.194 43.5035L117.851 42.4796L119.593 45.5113L116.708 47.4871L120.165 48.0158L119.911 51.5024L122.478 49.1295" fill="#B97D1C"/>
<path d="M136.426 29.9436L138.994 32.3173L138.74 28.8292L142.196 28.302L139.311 26.3262L141.054 23.2945L137.71 24.3187L136.426 21.0665L135.143 24.3187L131.798 23.2945L133.541 26.3262L130.655 28.302L134.113 28.8292L133.859 32.3173L136.426 29.9436" fill="#B97D1C"/>
<path d="M123.948 16.8642L126.516 19.2371L126.262 15.7496L129.718 15.2209L126.833 13.246L128.575 10.2143L125.231 11.2373L123.948 7.98512L122.663 11.2373L119.32 10.2143L121.062 13.246L118.177 15.2209L121.633 15.7496L121.379 19.2371L123.948 16.8642" fill="#B97D1C"/>
<path d="M109.21 28.1995L111.779 30.5732L111.525 27.0849L114.981 26.5579L112.095 24.5822L113.839 21.5504L110.494 22.5744L109.21 19.3206L107.927 22.5744L104.583 21.5504L106.325 24.5822L103.44 26.5579L106.897 27.0849L106.643 30.5732L109.21 28.1995Z" fill="#B97D1C"/>
<path d="M122.607 57.4262C108.465 50.6643 98.961 45.867 95.5331 45.867C92.1096 45.867 83.1532 50.6643 69.0109 57.4262C54.8703 64.189 50.043 65.6394 50.043 68.5962C50.043 71.5555 53.5139 70.1482 54.5689 69.832C55.6248 69.5151 91.7116 57.8388 95.5331 57.8388C99.3564 57.8388 135.992 69.5151 137.049 69.832C138.106 70.1482 141.576 71.5555 141.576 68.5962C141.576 65.6394 136.748 64.189 122.607 57.4262" fill="#B97D1C"/>
<path d="M130.736 79.5319C124.604 81.5904 119.733 86.0758 112.94 84.7976C106.987 83.6771 102.044 78.5335 95.7897 78.6138C88.9436 78.6998 83.7766 84.5952 77.0595 85.1559C70.4561 85.7071 65.3194 80.3742 59.1647 79.1123C56.3819 78.5413 53.9411 78.9256 51.6172 79.724C52.0884 82.0131 52.6363 84.1234 53.2658 86.1104C55.0994 85.6685 57.0304 85.5426 59.1647 85.9812C65.3194 87.2428 70.4561 92.576 77.0595 92.0248C83.7766 91.4641 88.9436 85.5684 95.7897 85.4816C102.044 85.4024 106.987 90.5459 112.94 91.6665C119.733 92.9429 124.604 88.459 130.736 86.3997C133.477 85.4798 135.926 85.5592 138.253 86.1386C138.884 84.156 139.431 82.0501 139.901 79.7643C137.077 78.786 134.131 78.3916 130.736 79.5319" fill="#B97D1C"/>
<path d="M130.736 93.2683C124.604 95.3267 119.733 99.8114 112.94 98.5342C106.987 97.4145 102.044 92.2719 95.7897 92.3501C88.9436 92.4364 83.7767 98.3326 77.0595 98.8925C70.4561 99.4437 65.3194 94.1116 59.1647 92.8498C57.9986 92.6094 56.8917 92.538 55.8298 92.5958C57.2216 95.3931 58.9546 97.8158 61.0819 99.9993C61.15 100.068 61.2164 100.12 61.3023 100.16C61.9958 100.496 65.5692 102.227 67.3545 103.126C70.3933 104.652 73.567 106.053 77.0595 105.761C83.7767 105.201 88.9436 99.305 95.7897 99.219C102.044 99.1387 106.987 104.283 112.94 105.403C117.098 106.185 120.599 104.778 124.047 103.121C125.837 102.259 129.665 100.358 130.381 100.003C130.468 99.9605 130.532 99.9096 130.599 99.8399C132.62 97.7212 134.355 95.2941 135.698 92.5982C134.134 92.4983 132.495 92.6785 130.736 93.2683" fill="#B97D1C"/>
<path d="M78.9243 112.337C81.6573 113.876 84.0826 115.131 86.2401 116.121C89.2718 114.539 92.3148 112.999 95.7899 112.955C99.2617 112.911 102.33 114.477 105.391 116.072C107.568 115.068 110.018 113.796 112.777 112.237C106.896 111.055 101.985 106.008 95.7899 106.088C89.5904 106.165 84.7672 111.007 78.9243 112.337" fill="#B97D1C"/>
<path d="M117.913 71.0431C110.668 68.8303 105.713 67.3844 102.328 66.4411C99.1041 65.5428 97.5993 65.2026 96.6038 64.9495C96.3074 64.8737 95.8087 64.7806 95.6409 64.7506C95.4195 64.791 95.1146 64.8538 94.6976 64.9486C93.8622 65.1398 92.5746 65.4646 90.5972 66.0089C87.2416 66.9339 81.8939 68.4972 73.3835 71.1335C70.6517 71.9809 67.594 72.9378 64.1731 74.0197C68.352 76.0109 72.3596 78.6861 77.1318 78.2872C83.849 77.7265 89.0159 71.8311 95.8629 71.7449C102.116 71.6658 107.058 76.8093 113.013 77.9289C118.546 78.9703 122.805 76.1867 127.508 74.0058C123.93 72.8904 120.747 71.9085 117.913 71.0431" fill="#B97D1C"/>
</g>
<defs>
<clipPath id="clip0_428:3775">
<rect width="500" height="160.714" fill="white"/>
</clipPath>
</defs>
</svg>
