<svg width="500" height="161" viewBox="0 0 500 161" fill="none" xmlns="http://www.w3.org/2000/svg">
<g clip-path="url(#clip0_428:3774)">
<path d="M245.839 26.7111H260.213L253.069 6.47369L245.839 26.7111ZM234.806 43.147L249.991 1.15949H256.061L271.246 43.147H265.76L261.635 31.649H244.475L240.263 43.147H234.806Z" fill="white"/>
<path d="M286.899 43.7284C285.331 43.7086 283.854 43.4828 282.469 43.0454C281.084 42.6103 279.861 41.9669 278.796 41.1143C277.731 40.2635 276.895 39.2023 276.284 37.9362C275.676 36.6675 275.369 35.1905 275.369 33.5066V13.1227H280.743V32.9554C280.743 34.9107 281.349 36.498 282.557 37.7184C283.766 38.937 285.591 39.5469 288.032 39.5469C290.237 39.5469 292.014 38.9716 293.359 37.82C294.704 36.6675 295.376 34.9493 295.376 32.6652V13.1227H300.719V43.147H296.452L295.901 37.398C295.531 38.907 294.907 40.1283 294.027 41.0559C293.147 41.9859 292.091 42.669 290.861 43.104C289.633 43.5388 288.31 43.7474 286.899 43.7284Z" fill="white"/>
<path d="M319.189 43.7285C317.097 43.7285 315.158 43.4054 313.366 42.757C311.576 42.1065 310.089 41.0903 308.91 39.7063C307.728 38.3239 306.983 36.5558 306.672 34.4067H311.551C311.822 35.5894 312.31 36.5712 313.018 37.355C313.723 38.1386 314.612 38.7304 315.674 39.1266C316.739 39.5229 317.901 39.7209 319.16 39.7209C321.173 39.7209 322.798 39.3445 324.037 38.5882C325.277 37.8328 325.896 36.672 325.896 35.1043C325.896 34.0003 325.572 33.1148 324.922 32.4474C324.273 31.7798 323.272 31.2916 321.919 30.9814L315.703 29.4415C313.282 28.8601 311.348 27.9514 309.895 26.7112C308.445 25.4736 307.719 23.7399 307.719 21.5134C307.699 19.7522 308.116 18.2043 308.967 16.8693C309.818 15.5318 311.095 14.4768 312.801 13.7042C314.504 12.929 316.625 12.5413 319.16 12.5413C322.412 12.5413 325.041 13.2736 327.043 14.7352C329.047 16.1975 330.088 18.3395 330.165 21.1646H325.431C325.237 19.7348 324.593 18.5961 323.499 17.7539C322.408 16.9125 320.942 16.4905 319.103 16.4905C317.185 16.4905 315.626 16.8737 314.429 17.6377C313.227 18.4041 312.627 19.5883 312.627 21.1948C312.627 22.2585 313.051 23.0965 313.904 23.7053C314.755 24.3169 316.014 24.8249 317.679 25.2324L323.689 26.7414C325.085 27.1101 326.231 27.594 327.131 28.1927C328.03 28.7937 328.745 29.4614 329.278 30.1978C329.812 30.934 330.187 31.7024 330.412 32.5058C330.632 33.3086 330.745 34.0777 330.745 34.8141C330.745 36.653 330.286 38.2352 329.364 39.5614C328.447 40.8879 327.131 41.9127 325.416 42.6406C323.705 43.3666 321.63 43.7285 319.189 43.7285" fill="white"/>
<path d="M352.264 17.0432H345.495V35.7141C345.495 36.7795 345.608 37.559 345.831 38.0526C346.053 38.5452 346.433 38.8596 346.962 38.9956C347.495 39.1308 348.225 39.1981 349.156 39.1981H352.436V42.7999C352.068 42.936 351.51 43.0522 350.767 43.147C350.022 43.2436 349.098 43.2934 347.994 43.2934C345.923 43.2934 344.316 43.0136 343.174 42.4511C342.032 41.8895 341.233 41.0559 340.779 39.9534C340.323 38.851 340.096 37.4943 340.096 35.8881V17.0432H335.216V13.1227H340.241L341.547 4.3826H345.495V13.0943H352.264V17.0432" fill="white"/>
<path d="M359.404 43.147V13.1227H364.515V18.9019C365.02 17.4679 365.725 16.2836 366.636 15.3448C367.546 14.406 368.587 13.7041 369.756 13.2391C370.929 12.7739 372.144 12.5413 373.4 12.5413C373.848 12.5413 374.282 12.5715 374.708 12.6293C375.133 12.6879 375.462 12.7843 375.696 12.9177V18.1181C375.405 17.982 375.032 17.8899 374.578 17.8425C374.121 17.7926 373.738 17.7693 373.431 17.7693C372.23 17.6919 371.109 17.7651 370.062 17.9865C369.017 18.2087 368.098 18.5919 367.302 19.1345C366.51 19.6745 365.884 20.3876 365.432 21.268C364.976 22.149 364.748 23.2186 364.748 24.4761V43.147H359.404" fill="white"/>
<path d="M390.504 39.8673C391.511 39.8673 392.515 39.6821 393.509 39.3143C394.506 38.9483 395.421 38.4487 396.254 37.82C397.085 37.1912 397.751 36.485 398.243 35.6987C398.737 34.9149 398.995 34.1079 399.012 33.2742V28.1349L394.539 28.2229C392.257 28.2615 390.345 28.4941 388.806 28.9187C387.267 29.3449 386.116 30.0126 385.351 30.923C384.584 31.8316 384.204 33.0244 384.204 34.4929C384.204 36.1792 384.789 37.4944 385.959 38.4445C387.13 39.3919 388.647 39.8673 390.504 39.8673ZM388.879 43.7285C386.943 43.7285 385.227 43.3838 383.739 42.6966C382.249 42.0102 381.082 41.0198 380.24 39.7209C379.398 38.4246 378.974 36.8572 378.974 35.0165C378.974 31.6876 380.136 29.2089 382.46 27.5837C384.784 25.9576 388.51 25.086 393.639 24.9698L399.012 24.8249V22.4736C399.012 20.6332 398.459 19.1776 397.359 18.1027C396.254 17.0287 394.539 16.4905 392.217 16.4905C390.495 16.5119 388.98 16.9167 387.673 17.7109C386.367 18.5033 385.521 19.802 385.133 21.6021H380.399C380.516 19.647 381.067 17.9977 382.055 16.6514C383.042 15.3062 384.42 14.283 386.193 13.588C387.966 12.8901 390.06 12.5413 392.477 12.5413C395.092 12.5413 397.266 12.9091 398.997 13.6455C400.73 14.382 402.026 15.4654 402.888 16.8969C403.751 18.3309 404.183 20.0924 404.183 22.1835V43.147H399.592L399.217 37.5142C398.055 39.8569 396.578 41.4779 394.788 42.378C392.995 43.278 391.026 43.7285 388.879 43.7285" fill="white"/>
<path d="M419.892 43.526C418.265 43.526 416.953 43.302 415.954 42.8559C414.96 42.4123 414.195 41.8119 413.661 41.0559C413.13 40.3022 412.773 39.4348 412.588 38.459C412.405 37.4815 412.312 36.4677 412.312 35.4231V-0.00313264H417.597V34.9021C417.597 36.4117 417.89 37.5444 418.481 38.298C419.072 39.0534 419.899 39.4692 420.964 39.5469L422.591 39.5771V43.0608C422.146 43.1962 421.681 43.3064 421.195 43.3941C420.715 43.4828 420.278 43.526 419.892 43.526" fill="white"/>
<path d="M434.526 13.1227V43.147H429.329V13.1227H434.526ZM434.643 1.18706V6.76231H429.155V1.18706H434.643Z" fill="white"/>
<path d="M453.314 39.8673C454.319 39.8673 455.323 39.6821 456.319 39.3143C457.316 38.9483 458.229 38.4487 459.064 37.82C459.896 37.1912 460.559 36.485 461.053 35.6987C461.547 34.9149 461.803 34.1079 461.823 33.2742V28.1349L457.349 28.2229C455.067 28.2615 453.153 28.4941 451.614 28.9187C450.077 29.3449 448.924 30.0126 448.159 30.923C447.394 31.8316 447.012 33.0244 447.012 34.4929C447.012 36.1792 447.597 37.4944 448.77 38.4445C449.938 39.3919 451.455 39.8673 453.314 39.8673V39.8673ZM451.687 43.7285C449.753 43.7285 448.038 43.3838 446.547 42.6966C445.057 42.0102 443.89 41.0198 443.048 39.7209C442.208 38.4246 441.785 36.8572 441.785 35.0165C441.785 31.6876 442.947 29.2089 445.268 27.5837C447.592 25.9576 451.321 25.086 456.449 24.9698L461.823 24.8249V22.4736C461.823 20.6332 461.269 19.1776 460.169 18.1027C459.064 17.0287 457.349 16.4905 455.027 16.4905C453.303 16.5119 451.788 16.9167 450.483 17.7109C449.175 18.5033 448.329 19.802 447.943 21.6021H443.207C443.324 19.647 443.875 17.9977 444.865 16.6514C445.85 15.3062 447.229 14.283 449.001 13.588C450.774 12.8901 452.869 12.5413 455.287 12.5413C457.902 12.5413 460.074 12.9091 461.807 13.6455C463.538 14.382 464.837 15.4654 465.699 16.8969C466.559 18.3309 466.991 20.0924 466.991 22.1835V43.147H462.403L462.025 37.5142C460.866 39.8569 459.386 41.4779 457.598 42.378C455.805 43.278 453.837 43.7285 451.687 43.7285" fill="white"/>
<path d="M474.886 43.147V13.1227H480.086V17.4782C480.568 16.6454 481.241 15.8634 482.103 15.1252C482.965 14.3905 484.01 13.8005 485.238 13.3553C486.469 12.9091 487.886 12.6879 489.492 12.6879C491.39 12.6879 493.136 13.0643 494.733 13.8203C496.331 14.5757 497.61 15.7514 498.569 17.3473C499.526 18.9449 500.005 21.001 500.005 23.5185V43.147H494.631V24.0413C494.631 21.6986 494.018 19.9614 492.79 18.8287C491.558 17.6961 489.966 17.1294 488.012 17.1294C486.656 17.1294 485.388 17.3473 484.207 17.7823C483.027 18.2188 482.068 18.8761 481.334 19.7563C480.597 20.6391 480.229 21.746 480.229 23.0835V43.147H474.886" fill="white"/>
<path d="M262.941 55.1532H268.314V97.1407H263.523L240.989 64.0373V97.1407H235.618V55.1532H240.757L262.941 87.7916V55.1532" fill="white"/>
<path d="M287.452 93.8592C288.455 93.8592 289.461 93.6757 290.455 93.3079C291.452 92.9393 292.369 92.4423 293.2 91.8137C294.032 91.1822 294.695 90.476 295.191 89.6924C295.683 88.9086 295.939 88.1016 295.961 87.2679V82.1286L291.487 82.2148C289.205 82.2551 287.293 82.4877 285.752 82.9124C284.213 83.3386 283.062 84.0062 282.297 84.9164C281.532 85.8277 281.151 87.0163 281.151 88.4892C281.151 90.1728 281.735 91.488 282.908 92.4381C284.076 93.3871 285.593 93.8592 287.452 93.8592V93.8592ZM285.823 97.7221C283.889 97.7221 282.174 97.3775 280.685 96.6929C279.193 96.0038 278.026 95.0132 277.184 93.7145C276.344 92.4183 275.923 90.8491 275.923 89.0102C275.923 85.6813 277.085 83.2026 279.409 81.5773C281.73 79.9512 285.457 79.0797 290.585 78.9632L295.961 78.8186V76.4656C295.961 74.6267 295.407 73.1686 294.307 72.0964C293.2 71.0224 291.487 70.4839 289.165 70.4839C287.439 70.5029 285.926 70.9104 284.619 71.7046C283.316 72.4968 282.465 73.7957 282.081 75.5957H277.345C277.46 73.6407 278.013 71.9888 279.001 70.6451C279.986 69.2973 281.367 68.2766 283.137 67.579C284.912 66.8838 287.005 66.535 289.426 66.535C292.041 66.535 294.212 66.9028 295.943 67.6392C297.678 68.3739 298.975 69.4591 299.837 70.8905C300.695 72.3228 301.129 74.0843 301.129 76.1745V97.1407H296.541L296.164 91.5079C294.999 93.8506 293.522 95.4698 291.736 96.3716C289.944 97.2717 287.972 97.7221 285.823 97.7221" fill="white"/>
<path d="M322.995 71.0352H316.226V89.7078C316.226 90.7715 316.338 91.5509 316.561 92.0461C316.784 92.5389 317.163 92.8533 317.692 92.9894C318.226 93.1228 318.955 93.1918 319.886 93.1918H323.167V96.7919C322.798 96.9297 322.241 97.0432 321.498 97.1407C320.752 97.2371 319.828 97.2871 318.724 97.2871C316.653 97.2871 315.046 97.0071 313.904 96.4448C312.762 95.8833 311.961 95.0494 311.509 93.9454C311.053 92.843 310.826 91.4881 310.826 89.8818V71.0352H305.947V67.1165H310.971L312.277 58.3761H316.226V67.0862H322.995V71.0352" fill="white"/>
<path d="M335.942 67.1164V97.1407H330.745V67.1164H335.942ZM336.061 55.1808V60.7558H330.571V55.1808H336.061Z" fill="white"/>
<path d="M356.736 93.4819C358.533 93.4819 360.052 93.0281 361.291 92.1169C362.53 91.2065 363.472 89.9016 364.109 88.1962C364.748 86.4953 365.068 84.4712 365.068 82.1286C365.068 79.9797 364.788 78.0478 364.226 76.3364C363.664 74.6225 362.768 73.2634 361.54 72.2558C360.31 71.2506 358.709 70.7441 356.736 70.7441C354.915 70.7441 353.373 71.1946 352.117 72.0964C350.858 72.9964 349.905 74.2968 349.257 76.0023C348.609 77.7058 348.282 79.7471 348.282 82.1286C348.282 84.2386 348.573 86.1551 349.156 87.8776C349.735 89.6018 350.646 90.9653 351.885 91.9729C353.124 92.9781 354.738 93.4819 356.736 93.4819V93.4819ZM356.736 97.7221C353.964 97.7221 351.543 97.1252 349.473 95.9348C347.403 94.7438 345.797 92.9997 344.655 90.6941C343.511 88.39 342.94 85.5754 342.94 82.2448C342.94 79.1099 343.474 76.3597 344.538 73.9981C345.601 71.6356 347.167 69.8011 349.228 68.4945C351.29 67.1896 353.79 66.535 356.736 66.535C359.503 66.535 361.906 67.1396 363.948 68.3498C365.992 69.5599 367.575 71.3368 368.697 73.6795C369.822 76.0195 370.38 78.8772 370.38 82.2448C370.38 85.3023 369.864 87.9955 368.827 90.3168C367.793 92.6405 366.263 94.4551 364.239 95.7626C362.217 97.0675 359.715 97.7221 356.736 97.7221" fill="white"/>
<path d="M376.855 97.1407V67.1164H382.055V71.4719C382.537 70.6392 383.21 69.8553 384.072 69.1189C384.934 68.3842 385.979 67.7942 387.207 67.349C388.438 66.9028 389.855 66.679 391.463 66.679C393.361 66.679 395.105 67.0578 396.704 67.8114C398.3 68.5677 399.579 69.7433 400.538 71.341C401.495 72.9386 401.973 74.9945 401.973 77.512V97.1407H396.602V78.0332C396.602 75.6923 395.987 73.9551 394.759 72.8224C393.529 71.6898 391.935 71.1231 389.983 71.1231C388.625 71.1231 387.36 71.341 386.178 71.776C384.998 72.2126 384.037 72.8698 383.303 73.75C382.566 74.6329 382.198 75.7395 382.198 77.0745V97.1407H376.855" fill="white"/>
<path d="M419.63 93.8592C420.635 93.8592 421.639 93.6757 422.635 93.3079C423.632 92.9393 424.547 92.4423 425.38 91.8137C426.211 91.1822 426.875 90.476 427.369 89.6924C427.863 88.9086 428.119 88.1016 428.139 87.2679V82.1286L423.665 82.2148C421.383 82.2551 419.471 82.4877 417.93 82.9124C416.393 83.3386 415.24 84.0062 414.475 84.9164C413.71 85.8277 413.328 87.0163 413.328 88.4892C413.328 90.1728 413.913 91.488 415.086 92.4381C416.256 93.3871 417.771 93.8592 419.63 93.8592V93.8592ZM418.005 97.7221C416.069 97.7221 414.354 97.3775 412.865 96.6929C411.373 96.0038 410.206 95.0132 409.364 93.7145C408.524 92.4183 408.101 90.8491 408.101 89.0102C408.101 85.6813 409.263 83.2026 411.586 81.5773C413.908 79.9512 417.637 79.0797 422.765 78.9632L428.139 78.8186V76.4656C428.139 74.6267 427.585 73.1686 426.485 72.0964C425.38 71.0224 423.665 70.4839 421.343 70.4839C419.619 70.5029 418.106 70.9104 416.799 71.7046C415.494 72.4968 414.647 73.7957 414.259 75.5957H409.523C409.642 73.6407 410.193 71.9888 411.181 70.6451C412.169 69.2973 413.547 68.2766 415.317 67.579C417.09 66.8838 419.185 66.535 421.603 66.535C424.218 66.535 426.39 66.9028 428.123 67.6392C429.856 68.3739 431.153 69.4591 432.015 70.8905C432.875 72.3228 433.307 74.0843 433.307 76.1745V97.1407H428.718L428.344 91.5079C427.182 93.8506 425.702 95.4698 423.914 96.3716C422.121 97.2717 420.152 97.7221 418.005 97.7221" fill="white"/>
<path d="M449.019 97.5197C447.392 97.5197 446.08 97.2957 445.081 96.8521C444.087 96.406 443.321 95.8056 442.788 95.0494C442.256 94.296 441.899 93.4286 441.714 92.4509C441.531 91.4753 441.438 90.4615 441.438 89.4168V53.9906H446.724V88.894C446.724 90.4028 447.017 91.5381 447.608 92.2917C448.199 93.0454 449.025 93.4647 450.09 93.5379L451.718 93.5706V97.0545C451.272 97.1899 450.807 97.3001 450.322 97.3879C449.841 97.4741 449.405 97.5197 449.019 97.5197" fill="white"/>
<path d="M266.31 136.613C266.31 139.847 265.778 142.586 264.713 144.831C263.648 147.075 261.988 148.785 259.735 149.954C257.479 151.127 254.551 151.713 250.95 151.713C247.31 151.713 244.362 151.113 242.109 149.913C239.853 148.712 238.206 146.95 237.17 144.627C236.136 142.304 235.618 139.449 235.618 136.062V109.143H241.194V136.876C241.194 140.262 242.036 142.797 243.721 144.481C245.403 146.166 247.815 147.009 250.95 147.009C253.06 147.009 254.855 146.64 256.335 145.904C257.816 145.17 258.95 144.052 259.735 142.552C260.517 141.053 260.91 139.158 260.91 136.876V109.143H266.31V136.613" fill="white"/>
<path d="M274.148 151.132V121.107H279.347V125.461C279.832 124.63 280.504 123.846 281.366 123.11C282.226 122.376 283.276 121.783 284.5 121.34C285.73 120.892 287.15 120.671 288.757 120.671C290.656 120.671 292.398 121.047 293.996 121.805C295.595 122.559 296.873 123.734 297.833 125.33C298.787 126.928 299.266 128.986 299.266 131.501V151.132H293.895V132.027C293.895 129.682 293.279 127.946 292.054 126.813C290.823 125.681 289.231 125.115 287.276 125.115C285.92 125.115 284.652 125.33 283.47 125.767C282.293 126.202 281.331 126.861 280.597 127.742C279.861 128.622 279.492 129.731 279.492 131.068V151.132H274.148" fill="white"/>
<path d="M312.713 121.107V151.132H307.516V121.107H312.713ZM312.83 109.173V114.747H307.342V109.173H312.83Z" fill="white"/>
<path d="M345.03 121.107L334.202 151.132H329.323L318.464 121.107H323.515L331.501 144.395H331.993L340.01 121.107H345.03Z" fill="white"/>
<path d="M352.988 133.738H369.306C369.306 132.014 369.015 130.461 368.433 129.077C367.853 127.695 366.969 126.598 365.776 125.796C364.587 124.992 363.09 124.591 361.291 124.591C359.413 124.591 357.86 125.042 356.63 125.942C355.402 126.842 354.482 127.992 353.872 129.397C353.261 130.8 352.968 132.247 352.988 133.738V133.738ZM352.959 137.368C352.959 139.263 353.272 140.984 353.9 142.522C354.529 144.061 355.49 145.286 356.778 146.197C358.063 147.105 359.675 147.562 361.611 147.562C363.527 147.562 365.178 147.114 366.563 146.225C367.943 145.334 368.832 144.046 369.22 142.362H374.3C373.932 144.395 373.12 146.106 371.861 147.501C370.602 148.895 369.083 149.946 367.302 150.652C365.52 151.36 363.661 151.713 361.726 151.713C358.921 151.713 356.451 151.104 354.324 149.883C352.192 148.662 350.527 146.911 349.327 144.627C348.126 142.345 347.526 139.604 347.526 136.411C347.526 133.254 348.069 130.485 349.153 128.105C350.236 125.722 351.81 123.864 353.872 122.531C355.933 121.194 358.416 120.526 361.322 120.526C364.146 120.526 366.537 121.136 368.495 122.355C370.446 123.575 371.934 125.293 372.951 127.509C373.967 129.727 374.474 132.356 374.474 135.392V137.368H352.959" fill="white"/>
<path d="M381.241 151.132V121.107H386.352V126.885C386.857 125.453 387.562 124.267 388.471 123.328C389.383 122.389 390.422 121.687 391.593 121.222C392.766 120.759 393.981 120.526 395.235 120.526C395.683 120.526 396.119 120.554 396.545 120.612C396.968 120.671 397.299 120.77 397.53 120.903V126.101C397.242 125.965 396.869 125.873 396.415 125.823C395.958 125.778 395.575 125.754 395.268 125.754C394.067 125.677 392.944 125.75 391.897 125.969C390.854 126.193 389.935 126.577 389.139 127.118C388.345 127.66 387.721 128.371 387.267 129.251C386.812 130.132 386.583 131.202 386.583 132.462V151.132H381.241" fill="white"/>
<path d="M413.617 151.713C411.527 151.713 409.587 151.388 407.794 150.74C406.004 150.092 404.518 149.073 403.338 147.691C402.156 146.307 401.411 144.541 401.103 142.39H405.98C406.253 143.572 406.738 144.554 407.448 145.34C408.152 146.123 409.04 146.713 410.105 147.11C411.168 147.508 412.33 147.704 413.589 147.704C415.602 147.704 417.229 147.329 418.466 146.571C419.705 145.818 420.325 144.655 420.325 143.087C420.325 141.985 420.001 141.098 419.35 140.43C418.702 139.763 417.701 139.276 416.347 138.966L410.132 137.427C407.713 136.843 405.777 135.934 404.324 134.697C402.873 133.457 402.148 131.725 402.148 129.499C402.128 127.738 402.545 126.187 403.396 124.852C404.247 123.517 405.523 122.462 407.23 121.687C408.932 120.912 411.053 120.526 413.589 120.526C416.841 120.526 419.469 121.257 421.471 122.718C423.475 124.181 424.516 126.325 424.593 129.15H419.859C419.665 127.718 419.022 126.581 417.928 125.737C416.837 124.896 415.37 124.475 413.531 124.475C411.613 124.475 410.057 124.857 408.857 125.623C407.655 126.386 407.056 127.571 407.056 129.178C407.056 130.244 407.481 131.081 408.332 131.691C409.183 132.3 410.442 132.808 412.109 133.215L418.118 134.724C419.513 135.095 420.66 135.577 421.559 136.178C422.461 136.778 423.173 137.446 423.709 138.181C424.241 138.917 424.618 139.688 424.84 140.491C425.061 141.294 425.175 142.063 425.175 142.797C425.175 144.636 424.715 146.221 423.795 147.545C422.876 148.871 421.559 149.898 419.846 150.624C418.133 151.35 416.058 151.713 413.617 151.713" fill="white"/>
<path d="M437.893 121.107V151.132H432.696V121.107H437.893ZM438.01 109.173V114.747H432.522V109.173H438.01Z" fill="white"/>
<path d="M461.82 125.026H455.051V143.699C455.051 144.763 455.166 145.54 455.387 146.037C455.609 146.531 455.988 146.845 456.52 146.979C457.053 147.114 457.783 147.183 458.711 147.183H461.992V150.783C461.626 150.919 461.068 151.035 460.323 151.132C459.58 151.229 458.654 151.278 457.552 151.278C455.479 151.278 453.874 150.997 452.73 150.434C451.587 149.873 450.789 149.041 450.335 147.936C449.881 146.832 449.652 145.48 449.652 143.874V125.026H444.774V121.108H449.799L451.102 112.366H455.051V121.077H461.82V125.026" fill="white"/>
<path d="M472.128 160.714C470.366 160.714 468.827 160.462 467.511 159.96V156.474L470.56 156.532C471.683 156.571 472.613 156.493 473.347 156.299C474.084 156.108 474.673 155.846 475.118 155.516C475.563 155.187 475.907 154.821 476.15 154.413C476.392 154.007 476.591 153.619 476.745 153.25L477.788 150.407L466.06 121.108H471.489L480.346 144.279L489.143 121.108H494.4L481.737 153.397C480.963 155.294 480.099 156.776 479.142 157.839C478.183 158.903 477.118 159.65 475.947 160.076C474.774 160.501 473.502 160.714 472.128 160.714Z" fill="white"/>
<path d="M184.84 138.936C181.356 134.957 174.136 130.685 164.258 130.685C151.51 130.685 121.006 152.682 96.1489 152.682C71.2907 152.682 40.7928 130.685 28.0425 130.685C18.1652 130.685 10.9468 134.957 7.46123 138.936C7.40095 131.39 6.03152 128.211 2.63376 122.333C6.90743 118.324 15.0896 111.119 26.1725 111.119C44.5711 111.119 80.7562 133.85 96.1489 133.85C111.541 133.85 147.73 111.119 166.127 111.119C177.213 111.119 185.391 118.324 189.666 122.333C186.27 128.211 184.902 131.39 184.84 138.936V138.936ZM174.25 149.265C165.595 149.293 163.165 143.06 163.165 140.691C163.165 138.026 164.059 134.78 164.642 132.888C179.113 133.282 184.986 141.714 184.986 143.742C184.972 146.356 179.528 149.248 174.25 149.265ZM161.274 142.708C158.816 140.904 155.483 138.676 151.463 136.506C155.825 134.628 159.525 133.448 162.312 133.045C161.319 136.419 160.519 140.168 161.274 142.708ZM31.0301 142.708C31.7822 140.168 30.9829 136.419 29.9889 133.045C32.7759 133.448 36.4777 134.628 40.8385 136.506C36.8196 138.676 33.4848 140.904 31.0301 142.708V142.708ZM18.0533 149.265C12.7728 149.248 7.32946 146.356 7.31654 143.742C7.31654 141.714 13.1896 133.282 27.6582 132.888C28.2422 134.78 29.1363 138.026 29.1363 140.691C29.1363 143.06 26.7039 149.293 18.0533 149.265V149.265ZM13.1991 89.2876C13.1991 86.8457 14.7141 85.4377 16.8802 85.4031C19.3839 85.3687 23.494 87.8622 26.4353 91.2383L22.0728 93.8826C21.035 96.182 23.1607 102.265 27.7805 102.265C30.2732 102.265 31.5193 100.534 35.216 98.4945L40.7368 111.616C35.4855 109.98 30.5366 108.927 26.1725 108.927C24.3061 108.927 22.7102 109.065 21.203 109.328C20.5553 108.002 19.9076 106.69 19.2737 105.413C15.1766 97.1725 13.1991 92.5888 13.1991 89.2876V89.2876ZM28.7461 99.9356C26.9907 100.652 23.6989 98.2346 24.0201 95.2631L27.7977 92.9737C29.9303 95.717 30.2731 99.3112 28.7461 99.9356ZM26.729 77.1262C28.6109 76.0738 30.7002 76.0136 32.9397 76.9412C37.3329 78.7712 41.2967 84.0896 42.0915 86.9474C43.1613 90.7819 41.6988 91.8825 41.6843 91.8929L31.8252 98.0236C32.521 93.0297 23.3071 82.9596 16.6881 83.2328C18.9912 81.4067 26.729 77.1262 26.729 77.1262V77.1262ZM157.089 98.4945C160.782 100.534 162.028 102.265 164.521 102.265C169.141 102.265 171.266 96.182 170.227 93.8826L165.865 91.2383C168.807 87.8622 172.917 85.3687 175.422 85.4031C177.587 85.4377 179.102 86.8457 179.102 89.2876C179.102 92.5888 177.123 97.1725 173.03 105.413C172.396 106.69 171.746 108.002 171.098 109.328C169.594 109.065 167.995 108.927 166.127 108.927C161.766 108.927 156.816 109.98 151.563 111.616L157.089 98.4945ZM168.281 95.2631C168.603 98.2346 165.312 100.652 163.556 99.9356C162.028 99.3112 162.368 95.717 164.504 92.9737L168.281 95.2631ZM150.616 91.8929C150.602 91.8825 149.142 90.7819 150.211 86.9474C151.006 84.0896 154.97 78.7712 159.365 76.9412C161.598 76.0136 163.69 76.0738 165.573 77.1262C165.573 77.1262 173.312 81.4067 175.614 83.2328C168.994 82.9596 159.78 93.0297 160.474 98.0236L150.616 91.8929ZM191.827 121.366C187.034 116.571 180.938 111.925 173.303 109.812C173.868 108.656 181.273 95.3019 181.273 89.29C181.273 87.2635 180.409 84.7039 177.859 82.2682C175.739 80.2399 166.643 75.2143 166.643 75.2143C164.178 73.8363 161.369 73.7371 158.521 74.9213C153.253 77.1116 149.015 83.076 148.1 86.3617C146.577 91.8223 149.152 93.5638 149.44 93.7386L155.203 97.3215L148.811 112.516C138.997 115.589 107.034 131.661 96.1489 131.661C85.265 131.661 53.3046 115.589 43.4912 112.516L37.0979 97.3215L42.8623 93.7386C43.1501 93.5638 45.7263 91.8223 44.2018 86.3617C43.2861 83.076 39.047 77.1116 33.7802 74.9213C30.9293 73.7371 28.1216 73.8363 25.6601 75.2143C25.6601 75.2143 16.5615 80.2399 14.4419 82.2682C11.8908 84.7039 11.0278 87.2635 11.0278 89.29C11.0278 95.3019 18.4348 108.656 18.9998 109.812C11.3654 111.925 5.26755 116.571 0.476256 121.366C0.118824 121.722 0.0507826 122.277 0.313474 122.71C0.344479 122.761 3.51485 128.035 4.51739 131.669C5.6112 135.629 5.13579 143.832 5.13579 143.844C5.23999 147.586 11.2035 151.468 18.2531 151.468C28.0976 151.468 28.6109 144.869 43.3827 137.644C46.466 139.132 76.4781 154.872 96.1489 154.872C115.819 154.872 145.835 139.132 148.92 137.644C163.69 144.869 164.204 151.468 174.05 151.468C181.1 151.468 187.062 147.586 187.165 143.844C187.167 143.832 186.689 135.629 187.781 131.669C188.787 128.035 191.954 122.761 191.989 122.71C192.253 122.277 192.185 121.722 191.827 121.366" fill="white"/>
<path d="M10.7565 129.604C11.0451 129.439 11.2052 129.34 11.2423 129.303C11.2638 129.277 11.2785 129.247 11.2836 129.21C11.2879 129.173 11.2784 129.111 11.2483 129.023C11.2087 128.902 11.0933 128.618 10.8986 128.177C10.7875 127.927 10.6351 127.602 10.4387 127.208L9.73332 125.778L9.0779 124.492C8.96593 124.277 8.89099 124.139 8.84449 124.079C8.80057 124.021 8.75836 123.982 8.7196 123.965C8.67998 123.941 8.6283 123.939 8.5637 123.95C8.49912 123.958 8.32943 124.017 8.05382 124.126L7.86865 123.752C8.19938 123.616 8.44141 123.511 8.59214 123.436L9.13388 123.149L9.47409 122.962C10.387 123.504 11.4723 124.113 12.7245 124.792C13.628 125.28 14.3584 125.649 14.9174 125.9L14.4118 124.871C13.6237 123.274 13.1457 122.344 12.9743 122.075C12.9106 121.971 12.8529 121.911 12.8021 121.894C12.7194 121.872 12.5058 121.939 12.169 122.098L11.983 121.726C12.3017 121.592 12.5876 121.465 12.8468 121.336C13.0958 121.214 13.4127 121.043 13.7943 120.828L13.9794 121.205C13.6771 121.364 13.5074 121.482 13.4695 121.555C13.4575 121.58 13.454 121.607 13.4618 121.642C13.4962 121.81 13.641 122.161 13.8924 122.697C14.1414 123.229 14.3283 123.625 14.4531 123.877C15.4255 125.853 16.0327 127.04 16.2739 127.447L16.2437 127.511C16.0112 127.574 15.7769 127.643 15.5427 127.714C14.1973 127.044 12.2483 126.004 9.6937 124.598L10.7875 126.814C11.0123 127.277 11.2569 127.748 11.5222 128.242C11.7031 128.579 11.8194 128.782 11.8796 128.846C11.9063 128.876 11.9365 128.896 11.9718 128.906C12.0062 128.918 12.0562 128.913 12.1208 128.892C12.2973 128.833 12.4222 128.788 12.498 128.75C12.5135 128.743 12.5385 128.728 12.573 128.708L12.7504 129.068C12.2672 129.294 11.9925 129.426 11.9253 129.458C11.6798 129.578 11.3525 129.753 10.9417 129.983L10.7565 129.604" fill="white"/>
<path d="M17.5882 124.268C17.8465 124.204 18.1368 124.126 18.4598 124.034C18.7716 123.945 19.0497 123.864 19.2918 123.782L17.7199 121.564L17.5882 124.268ZM16.5357 127.36L16.4229 126.964C16.6356 126.882 16.7613 126.829 16.7992 126.803C16.838 126.775 16.8681 126.745 16.8879 126.706C16.9095 126.665 16.9267 126.609 16.9379 126.536C16.9525 126.46 16.9741 126.193 17.0094 125.728C17.024 125.511 17.0481 125.081 17.0826 124.443L17.2669 121.065L17.3125 119.88L17.8896 119.715L21.1237 124.185L21.5621 124.766L21.8498 125.16C21.892 125.21 21.9307 125.244 21.9626 125.263C21.9936 125.28 22.0263 125.292 22.0626 125.296C22.0961 125.3 22.1779 125.289 22.3098 125.262C22.3501 125.257 22.4114 125.246 22.4948 125.233L22.6077 125.632L21.4699 125.918L20.0549 126.357L19.9412 125.961C20.2659 125.852 20.4433 125.778 20.4778 125.74C20.5113 125.698 20.52 125.649 20.5027 125.585C20.4795 125.507 20.4106 125.384 20.2969 125.22L19.6501 124.273L17.558 124.871L17.5434 125.492C17.5339 125.968 17.5434 126.261 17.5735 126.368C17.5951 126.443 17.633 126.495 17.6846 126.512C17.7621 126.536 17.9645 126.512 18.2892 126.433L18.4021 126.829L17.4572 127.063L16.5357 127.36" fill="white"/>
<path d="M22.8178 125.5L22.768 125.093C23.1029 125.042 23.2985 124.994 23.3587 124.944C23.4164 124.897 23.4493 124.828 23.4612 124.733C23.4751 124.59 23.4407 124.163 23.3587 123.45L23.0134 120.496C22.9177 119.693 22.861 119.243 22.8421 119.148L22.2426 119.22C21.9411 119.254 21.675 119.297 21.4484 119.349C21.3589 119.366 21.308 119.387 21.2951 119.406C21.2788 119.426 21.2684 119.487 21.2676 119.583C21.2555 119.818 21.2676 120.077 21.2943 120.365L20.9455 120.404C20.855 119.732 20.8042 119.353 20.7913 119.269C20.7654 119.125 20.7336 118.972 20.6948 118.804L20.7258 118.752C20.8593 118.752 21.0006 118.748 21.1479 118.737C21.389 118.717 21.8532 118.668 22.5362 118.591L24.2287 118.39C24.9323 118.308 25.4026 118.248 25.6367 118.209C25.7677 118.188 25.8943 118.162 26.0226 118.132L26.0718 118.173C26.0691 118.38 26.0744 118.556 26.0872 118.709C26.0872 118.735 26.1227 119.096 26.1968 119.79L25.8478 119.831C25.8134 119.574 25.7677 119.331 25.7075 119.103C25.6773 118.987 25.6498 118.916 25.6281 118.897C25.6101 118.884 25.5635 118.877 25.4921 118.877C25.2597 118.879 24.9806 118.898 24.6611 118.935L24.0607 119.006C24.0667 119.122 24.1149 119.573 24.2071 120.358L24.5533 123.311C24.6368 124.021 24.7023 124.445 24.7488 124.587C24.779 124.671 24.8289 124.732 24.8979 124.764C24.9667 124.798 25.1691 124.801 25.5069 124.772L25.5534 125.18C25.0099 125.211 24.5508 125.25 24.1804 125.296C23.7824 125.341 23.3304 125.41 22.8178 125.5" fill="white"/>
<path d="M26.6316 118.537L26.6653 118.13L28.0295 118.278L28.597 118.315L29.1672 118.345L29.3231 118.354L29.2887 118.763C28.9855 118.739 28.7917 118.754 28.7031 118.81C28.659 118.834 28.6272 118.892 28.6039 118.974C28.5481 119.176 28.4912 119.624 28.4308 120.319L28.3353 121.468L28.2897 122.049C28.2378 122.649 28.212 123.024 28.2112 123.166C28.2112 123.479 28.2568 123.734 28.3448 123.933C28.4385 124.131 28.5867 124.299 28.7968 124.435C29.008 124.57 29.2827 124.652 29.6221 124.68C30.0103 124.714 30.3283 124.663 30.5719 124.527C30.8167 124.389 30.9983 124.198 31.1181 123.957C31.2378 123.713 31.3282 123.242 31.3851 122.54L31.4711 121.53C31.5452 120.658 31.5899 120.128 31.6012 119.936C31.6296 119.521 31.6305 119.269 31.608 119.181C31.5926 119.125 31.5624 119.082 31.5194 119.052C31.4325 118.989 31.2334 118.94 30.9243 118.901L30.9578 118.492C31.4634 118.558 31.7632 118.597 31.8596 118.601C31.8845 118.604 31.9233 118.608 31.9733 118.608L32.9086 118.657L32.8743 119.069C32.6132 119.045 32.4487 119.056 32.3782 119.099C32.3411 119.125 32.3074 119.172 32.2816 119.243C32.2549 119.316 32.2057 119.648 32.1369 120.24C32.0679 120.832 32.0146 121.3 31.987 121.642L31.8898 122.807C31.8655 123.101 31.8192 123.407 31.7553 123.722C31.6942 124.034 31.5961 124.299 31.4678 124.514C31.3368 124.727 31.1637 124.919 30.9465 125.082C30.7296 125.246 30.4773 125.362 30.1947 125.431C29.9072 125.5 29.5841 125.517 29.2181 125.487C28.7917 125.453 28.3999 125.352 28.0416 125.186C27.7806 125.063 27.5731 124.913 27.4137 124.732C27.2578 124.551 27.1431 124.353 27.0708 124.137C26.9976 123.924 26.9606 123.722 26.9581 123.53C26.9528 123.41 26.9744 123.088 27.0183 122.567L27.1028 121.616L27.2086 120.361C27.2492 119.9 27.2759 119.482 27.2939 119.112C27.2966 118.967 27.288 118.86 27.269 118.791C27.2578 118.754 27.2276 118.709 27.176 118.653L26.6316 118.537" fill="white"/>
<path d="M33.427 119.178L33.5295 118.785C33.5932 118.798 33.8086 118.862 34.1782 118.972C34.3599 119.027 34.6156 119.099 34.9516 119.185C35.2359 119.258 35.483 119.314 35.6914 119.353C36.0325 119.422 36.3158 119.484 36.5372 119.542C36.966 119.652 37.2754 119.771 37.4692 119.897C37.6628 120.025 37.805 120.223 37.8963 120.487C37.9893 120.754 37.9919 121.051 37.9057 121.379C37.8067 121.769 37.612 122.092 37.327 122.359C37.0419 122.623 36.6628 122.794 36.1892 122.871C36.2201 123.033 36.2589 123.196 36.3081 123.371C36.3573 123.543 36.3848 123.647 36.3916 123.683C36.3994 123.717 36.4062 123.75 36.4148 123.784L36.7618 125.059C36.854 125.399 36.9041 125.58 36.9135 125.608C37.035 125.978 37.1109 126.198 37.1435 126.269C37.1761 126.335 37.2099 126.387 37.2487 126.42C37.2855 126.454 37.3691 126.489 37.4967 126.525L37.3865 126.95C36.9713 126.826 36.669 126.743 36.4794 126.696C36.2624 126.637 36.0437 126.588 35.8257 126.546C35.8301 126.473 35.8215 126.373 35.7981 126.245L35.3606 124.324C35.2359 123.771 35.123 123.336 35.0187 123.011C34.9688 122.847 34.9111 122.722 34.8474 122.628L34.9342 122.484C35.2572 122.579 35.5148 122.602 35.7035 122.555C35.8929 122.505 36.0772 122.378 36.2503 122.171C36.4269 121.965 36.5517 121.715 36.6267 121.422C36.7025 121.127 36.7061 120.866 36.6388 120.641C36.5665 120.414 36.4545 120.238 36.2968 120.115C36.1943 120.038 35.9963 119.962 35.7035 119.887C35.5725 119.853 35.4383 119.831 35.3046 119.824C35.2658 119.939 35.1918 120.194 35.0791 120.598C34.8293 121.499 34.6648 122.102 34.5845 122.408C34.4633 122.89 34.3341 123.403 34.2022 123.944C34.0454 124.607 33.955 124.986 33.937 125.074C33.9008 125.257 33.8862 125.379 33.894 125.435C33.8982 125.466 33.9094 125.496 33.9284 125.524C33.9464 125.547 33.9844 125.576 34.0333 125.602C34.0842 125.629 34.2401 125.679 34.4985 125.754L34.3916 126.176C33.931 126.034 33.4616 125.903 32.986 125.778C32.5607 125.668 32.1653 125.58 31.7949 125.507L31.9052 125.085C32.2187 125.151 32.4066 125.181 32.4712 125.175C32.5073 125.173 32.534 125.16 32.553 125.143C32.5743 125.125 32.5986 125.085 32.6235 125.018C32.676 124.9 32.7373 124.712 32.8096 124.462L33.2049 123.065L33.6658 121.278L33.9068 120.259C34.0042 119.857 34.0507 119.611 34.0454 119.525C34.0404 119.484 34.0274 119.454 34.0042 119.428C33.95 119.372 33.7577 119.288 33.427 119.178" fill="white"/>
<path d="M40.239 125.167C40.4844 125.267 40.7636 125.378 41.078 125.496C41.3829 125.612 41.6559 125.707 41.8978 125.787L41.9514 123.067L40.239 125.167ZM37.5562 127.033L37.699 126.645C37.9213 126.708 38.0549 126.739 38.0997 126.74C38.1462 126.74 38.1883 126.732 38.2289 126.713C38.2692 126.696 38.3175 126.658 38.3693 126.607C38.4244 126.555 38.6044 126.353 38.9066 126C39.0453 125.832 39.3183 125.503 39.7266 125.007L41.8764 122.398L42.6188 121.472L43.1804 121.683L43.1356 127.195L43.1415 127.927L43.1398 128.414C43.1451 128.48 43.157 128.527 43.1682 128.562C43.1837 128.596 43.2053 128.622 43.2302 128.646C43.2544 128.672 43.3276 128.711 43.45 128.767C43.4862 128.788 43.5413 128.816 43.6154 128.855L43.4714 129.241L42.3837 128.797L40.9841 128.312L41.1287 127.927C41.4535 128.031 41.642 128.075 41.6912 128.065C41.7419 128.054 41.7789 128.018 41.8032 127.957C41.8307 127.88 41.8488 127.739 41.853 127.541L41.8936 126.396L39.8567 125.633L39.4751 126.124C39.1849 126.502 39.0195 126.744 38.9807 126.848C38.9523 126.924 38.954 126.986 38.9851 127.031C39.0323 127.098 39.2098 127.195 39.5181 127.326L39.3743 127.712L38.4743 127.339L37.5562 127.033" fill="white"/>
<path d="M43.5601 129.284L43.734 128.898C44.0354 129.004 44.2162 129.057 44.2826 129.057C44.317 129.06 44.3514 129.049 44.3851 129.027C44.4246 128.999 44.466 128.948 44.5064 128.876C44.6003 128.711 44.7855 128.341 45.0603 127.768C45.1921 127.49 45.4117 127.01 45.72 126.322C45.9947 125.711 46.2335 125.167 46.4365 124.69C46.6434 124.215 46.7527 123.924 46.7673 123.823C46.7759 123.776 46.7743 123.737 46.7631 123.704C46.7501 123.67 46.7183 123.635 46.6623 123.595C46.5073 123.487 46.3609 123.399 46.2291 123.332L46.4013 122.946C46.919 123.203 47.2808 123.377 47.4805 123.47C47.7449 123.586 48.0155 123.696 48.2911 123.793L48.2298 124.841L48.1936 125.642L48.0878 129.163C48.6156 128.687 49.0187 128.31 49.2978 128.041L50.3676 127.014C50.966 126.439 51.3287 126.086 51.4656 125.952C51.5999 125.819 51.7653 125.646 51.9549 125.435C52.283 125.608 52.4931 125.714 52.5879 125.757L53.7523 126.241L53.5801 126.624L53.5268 126.601C53.2657 126.482 53.0814 126.441 52.978 126.485C52.8772 126.528 52.7756 126.654 52.6827 126.865C52.5707 127.115 52.4828 127.307 52.4217 127.434L51.8361 128.7L51.1254 130.291C50.9497 130.679 50.8498 130.905 50.8231 130.972C50.6723 131.364 50.5863 131.606 50.5597 131.701C50.5493 131.747 50.5484 131.788 50.5561 131.825C50.5656 131.859 50.5872 131.891 50.6207 131.921C50.6542 131.951 50.8077 132.046 51.0833 132.192L50.9144 132.58L49.6967 131.994L48.4778 131.489L48.6518 131.103C48.9757 131.235 49.166 131.292 49.2255 131.282C49.2857 131.269 49.3494 131.213 49.4184 131.11C49.4872 131.006 49.6656 130.636 49.9498 129.998L51.4304 126.702L49.5847 128.422L48.6837 129.29C48.4452 129.516 48.1059 129.848 47.6622 130.284C47.3926 130.547 47.1798 130.761 47.0197 130.926L46.7578 130.808C46.7794 130.515 46.8019 130.108 46.8233 129.589C46.8656 128.7 46.8914 128.035 46.9035 127.593L46.9827 124.706L45.9837 126.932C45.8183 127.303 45.6254 127.746 45.4049 128.263C45.1835 128.777 45.0629 129.073 45.0431 129.146C45.0232 129.219 45.0173 129.275 45.0267 129.314C45.0327 129.354 45.0603 129.396 45.105 129.443C45.1515 129.488 45.3015 129.578 45.5522 129.712L45.3797 130.098C45.1008 129.949 44.8122 129.806 44.5108 129.671C44.1181 129.496 43.8011 129.367 43.5601 129.284" fill="white"/>
<path d="M55.9771 127.778L56.1537 127.406L57.269 127.972L58.9916 128.737C59.3257 128.894 59.5695 129.06 59.7236 129.229C59.8804 129.404 59.9761 129.628 60.014 129.905C60.0517 130.184 59.9915 130.494 59.8321 130.831C59.6729 131.17 59.4566 131.454 59.1872 131.678C58.9149 131.906 58.5936 132.046 58.2226 132.1C57.8504 132.152 57.5033 132.102 57.1794 131.949C57.0985 131.911 57.02 131.868 56.9486 131.822C56.8771 131.774 56.8066 131.723 56.7393 131.665C56.7548 131.57 56.7574 131.441 56.7539 131.282L56.8798 131.219C56.9254 131.269 56.972 131.308 57.0176 131.342C57.0606 131.374 57.1027 131.402 57.145 131.42C57.3904 131.54 57.6444 131.533 57.9004 131.402C58.158 131.275 58.3776 131.012 58.5626 130.62C58.7573 130.211 58.8201 129.862 58.7504 129.576C58.679 129.292 58.4938 129.079 58.1932 128.937C58.0501 128.868 57.883 128.812 57.691 128.769C57.5887 128.949 57.4509 129.219 57.2802 129.576L56.8522 130.451L56.0486 132.152C55.8506 132.569 55.6523 133.006 55.4535 133.461C55.3364 133.725 55.2727 133.896 55.2605 133.975C55.2579 134.01 55.2605 134.044 55.276 134.078C55.2881 134.111 55.3242 134.15 55.3811 134.193L55.8746 134.473L55.6894 134.869C55.0469 134.539 54.562 134.301 54.2348 134.143C53.873 133.971 53.5233 133.82 53.1875 133.685L53.3725 133.29C53.6567 133.42 53.8463 133.478 53.9411 133.467C53.9711 133.461 54.0013 133.45 54.0271 133.424C54.065 133.392 54.1296 133.289 54.2245 133.116C54.4793 132.653 54.7437 132.126 55.022 131.54L55.7703 129.953L56.1493 129.103C56.3173 128.737 56.4172 128.51 56.4516 128.416C56.4895 128.323 56.5085 128.252 56.5094 128.205C56.512 128.177 56.5034 128.149 56.4862 128.118C56.4697 128.091 56.4353 128.049 56.3793 128.009L55.9771 127.778" fill="white"/>
<path d="M60.6038 129.968L60.7744 129.598C60.8346 129.626 61.0337 129.725 61.3772 129.899C61.5452 129.986 61.7871 130.102 62.1015 130.244C62.3703 130.371 62.602 130.468 62.8 130.543C63.1239 130.672 63.3901 130.784 63.5976 130.879C63.9982 131.064 64.2842 131.234 64.4528 131.395C64.62 131.555 64.7251 131.774 64.7681 132.053C64.8111 132.33 64.7604 132.623 64.62 132.931C64.4528 133.295 64.2032 133.581 63.8767 133.792C63.5468 134.003 63.1429 134.103 62.6631 134.096C62.6658 134.258 62.6752 134.427 62.6933 134.606C62.7088 134.785 62.72 134.892 62.72 134.927C62.7209 134.964 62.7218 135 62.7251 135.033L62.8389 136.35C62.8699 136.701 62.8854 136.889 62.8889 136.914C62.9456 137.302 62.9811 137.53 62.9991 137.605C63.0181 137.678 63.0439 137.737 63.0748 137.776C63.1067 137.816 63.1799 137.864 63.3006 137.922L63.1189 138.32C62.7313 138.126 62.4462 137.991 62.2704 137.907C62.068 137.815 61.8605 137.726 61.6528 137.644C61.6709 137.573 61.6795 137.474 61.6795 137.345L61.5927 135.377C61.5666 134.813 61.5305 134.361 61.4866 134.025C61.4676 133.853 61.4332 133.719 61.3858 133.618L61.4978 133.487C61.7993 133.639 62.0473 133.708 62.2411 133.695C62.4376 133.682 62.6409 133.588 62.8483 133.415C63.0585 133.246 63.2256 133.022 63.3521 132.746C63.4787 132.468 63.5305 132.212 63.503 131.977C63.4728 131.742 63.3936 131.549 63.26 131.4C63.1731 131.308 62.9939 131.197 62.7165 131.071C62.5926 131.012 62.4669 130.969 62.3377 130.939C62.2781 131.042 62.1593 131.283 61.9767 131.658C61.5693 132.502 61.3014 133.066 61.1689 133.355C60.9621 133.805 60.7451 134.288 60.5202 134.796C60.2446 135.42 60.0914 135.778 60.057 135.864C59.9871 136.033 59.95 136.15 59.9476 136.21C59.9476 136.24 59.9536 136.269 59.969 136.3C59.9829 136.331 60.0104 136.363 60.057 136.398C60.1026 136.434 60.2464 136.511 60.4902 136.63L60.3076 137.026C59.8803 136.804 59.4438 136.592 58.9958 136.387C58.5971 136.201 58.2225 136.045 57.8728 135.909L58.0554 135.512C58.3515 135.633 58.5325 135.696 58.5962 135.698C58.6297 135.706 58.6599 135.698 58.6822 135.683C58.7056 135.672 58.7382 135.633 58.7737 135.573C58.846 135.463 58.9397 135.291 59.0586 135.059L59.6934 133.755L60.4627 132.08L60.882 131.118C61.05 130.741 61.1387 130.508 61.1473 130.42C61.1508 130.382 61.1431 130.347 61.1257 130.317C61.0809 130.253 60.9061 130.136 60.6038 129.968" fill="white"/>
<path d="M68.687 133.161L68.514 133.56C68.2478 133.457 68.0878 133.398 68.0335 133.392C67.9766 133.383 67.9361 133.383 67.9059 133.394C67.8759 133.405 67.8507 133.424 67.8302 133.452C67.7905 133.497 67.7319 133.588 67.6622 133.73C67.6216 133.807 67.5555 133.954 67.458 134.171C67.1205 134.914 66.9412 135.313 66.9163 135.37L66.1162 137.205L65.7665 138.043C65.6295 138.355 65.553 138.564 65.5391 138.672C65.5314 138.716 65.535 138.755 65.5486 138.79C65.5632 138.824 65.5951 138.861 65.6417 138.897C65.6864 138.934 65.8372 139.009 66.0904 139.128L65.9164 139.526C65.5047 139.322 65.0602 139.117 64.5822 138.908C64.1679 138.728 63.7942 138.579 63.4575 138.456L63.6324 138.058C63.9071 138.159 64.0663 138.219 64.1119 138.228C64.1706 138.238 64.2153 138.238 64.2429 138.224C64.2722 138.213 64.2947 138.194 64.311 138.168C64.3333 138.135 64.4074 137.997 64.5298 137.754C64.7072 137.399 64.8656 137.067 65.0009 136.757L65.8286 134.854C66.0912 134.251 66.2584 133.861 66.3307 133.685C66.4822 133.295 66.5737 133.047 66.5977 132.942C66.6072 132.899 66.6072 132.862 66.5995 132.834C66.5924 132.806 66.5684 132.774 66.5305 132.742C66.4916 132.707 66.3325 132.625 66.0586 132.489L66.2317 132.091C66.5476 132.252 66.9163 132.425 67.3359 132.608C67.8086 132.815 68.2573 132.998 68.687 133.161" fill="white"/>
<path d="M66.5122 139.84L66.6663 139.447C66.9713 139.537 67.1574 139.58 67.222 139.576C67.2581 139.576 67.2907 139.565 67.321 139.541C67.3589 139.511 67.3986 139.457 67.4347 139.384C67.5225 139.214 67.687 138.837 67.9299 138.25C68.0497 137.965 68.2459 137.474 68.5173 136.772C68.7585 136.145 68.9695 135.588 69.1503 135.102C69.3278 134.617 69.4224 134.324 69.4319 134.219C69.4372 134.173 69.4354 134.134 69.4215 134.1C69.4096 134.07 69.3717 134.035 69.3148 133.999C69.1548 133.898 69.0057 133.816 68.8679 133.758L69.0211 133.364C69.5534 133.594 69.922 133.749 70.1262 133.829C70.395 133.935 70.6721 134.027 70.9548 134.113L70.9445 135.164L70.9513 135.965L71.0245 139.485C71.5283 138.982 71.9115 138.587 72.1776 138.301L73.195 137.222C73.759 136.617 74.1054 136.244 74.2346 136.105C74.3629 135.965 74.517 135.784 74.6945 135.562C75.0312 135.717 75.2499 135.814 75.3447 135.851L76.5332 136.275L76.3808 136.666L76.3257 136.645C76.0587 136.537 75.8743 136.51 75.7718 136.557C75.6719 136.606 75.5806 136.738 75.4962 136.953C75.3963 137.209 75.3214 137.403 75.2671 137.535L74.747 138.831L74.1164 140.454C73.9649 140.851 73.8763 141.081 73.8529 141.149C73.7211 141.553 73.6472 141.798 73.6291 141.893C73.6203 141.942 73.6212 141.981 73.6315 142.015C73.6428 142.048 73.6653 142.082 73.6988 142.11C73.7323 142.14 73.8926 142.222 74.1768 142.358L74.0251 142.751L72.7789 142.23L71.5387 141.785L71.691 141.395C72.0211 141.507 72.214 141.557 72.2742 141.541C72.3311 141.524 72.3913 141.468 72.4559 141.36C72.5205 141.253 72.6781 140.876 72.9313 140.224L74.2361 136.854L72.4835 138.672L71.6273 139.58C71.4035 139.819 71.0796 140.168 70.6618 140.627C70.4051 140.904 70.2021 141.128 70.0513 141.303L69.7834 141.197C69.7893 140.902 69.7902 140.493 69.7878 139.976C69.7816 139.087 69.7721 138.419 69.7635 137.982L69.6912 135.093L68.8101 137.367C68.6637 137.746 68.4915 138.198 68.2995 138.725C68.1066 139.25 68.0014 139.55 67.9851 139.625C67.967 139.701 67.9661 139.757 67.9765 139.796C67.9851 139.836 68.0159 139.873 68.0651 139.92C68.1099 139.963 68.2649 140.047 68.5233 140.166L68.3709 140.559C68.0841 140.424 67.7895 140.297 67.4812 140.176C67.0806 140.024 66.7569 139.909 66.5122 139.84" fill="white"/>
<path d="M76.7261 136.757L76.8442 136.363L78.1506 136.79L78.6985 136.942L79.2498 137.089L79.3979 137.126L79.2815 137.522C78.9905 137.436 78.7976 137.41 78.7019 137.446C78.6529 137.463 78.6088 137.511 78.5702 137.586C78.4737 137.772 78.3246 138.2 78.1257 138.87L77.7959 139.972L77.634 140.532C77.4616 141.111 77.3591 141.471 77.3291 141.613C77.2636 141.919 77.255 142.174 77.3033 142.388C77.3522 142.601 77.466 142.795 77.6426 142.971C77.8199 143.148 78.0715 143.285 78.3987 143.383C78.7726 143.492 79.0939 143.508 79.3624 143.423C79.6286 143.34 79.8449 143.191 80.0129 142.975C80.1791 142.764 80.3641 142.321 80.5641 141.645L80.8525 140.674C81.1032 139.839 81.2573 139.328 81.3091 139.143C81.4176 138.74 81.4727 138.493 81.4683 138.402C81.4641 138.344 81.4416 138.299 81.409 138.26C81.3358 138.178 81.1506 138.09 80.8534 137.991L80.9722 137.595C81.4547 137.763 81.7397 137.862 81.831 137.888C81.8559 137.897 81.8912 137.907 81.9421 137.915L82.8473 138.155L82.7311 138.553C82.4795 138.475 82.3159 138.454 82.2374 138.482C82.1953 138.497 82.1556 138.535 82.1152 138.605C82.072 138.667 81.9549 138.982 81.7664 139.548C81.5768 140.112 81.4339 140.56 81.3358 140.891L81.0033 142.009C80.918 142.295 80.8095 142.584 80.6854 142.879C80.5597 143.172 80.4098 143.41 80.2393 143.596C80.0689 143.779 79.8603 143.93 79.6131 144.043C79.3695 144.162 79.0981 144.224 78.8053 144.233C78.5125 144.242 78.1894 144.194 77.838 144.091C77.4281 143.968 77.0654 143.788 76.7486 143.552C76.5186 143.379 76.3437 143.186 76.2284 142.98C76.1111 142.771 76.0406 142.553 76.0148 142.329C75.9863 142.106 75.9899 141.899 76.026 141.709C76.0474 141.593 76.1336 141.281 76.2827 140.782L76.5598 139.866L76.919 138.66C77.0535 138.217 77.1662 137.816 77.2577 137.455C77.2912 137.312 77.3066 137.208 77.2998 137.138C77.2962 137.097 77.2773 137.045 77.2352 136.981L76.7261 136.757" fill="white"/>
<path d="M81.6753 145.073L81.7518 144.659C82.0697 144.692 82.2591 144.698 82.3237 144.683C82.3581 144.676 82.3866 144.659 82.415 144.629C82.4452 144.593 82.4746 144.534 82.4968 144.453C82.5528 144.27 82.6441 143.869 82.7724 143.249C82.8362 142.945 82.9378 142.424 83.0738 141.688C83.198 141.029 83.3014 140.442 83.3874 139.931C83.4745 139.418 83.5124 139.113 83.5038 139.009C83.5003 138.962 83.4908 138.923 83.4701 138.896C83.4502 138.867 83.4099 138.84 83.3461 138.815C83.1695 138.745 83.0092 138.693 82.8637 138.659L82.9405 138.243C83.5053 138.375 83.8965 138.456 84.1134 138.497C84.3968 138.549 84.6863 138.592 84.9773 138.622L85.1634 139.658L85.3175 140.442L86.0445 143.888C86.4433 143.301 86.7489 142.84 86.9557 142.513L87.7559 141.261C88.1986 140.564 88.469 140.133 88.5706 139.972C88.6714 139.81 88.7884 139.604 88.9229 139.354C89.283 139.444 89.513 139.498 89.6153 139.517L90.8617 139.714L90.7867 140.127L90.7263 140.116C90.4439 140.06 90.2571 140.067 90.1674 140.131C90.077 140.198 90.0091 140.344 89.9685 140.572C89.9184 140.842 89.8781 141.046 89.8514 141.187L89.58 142.556L89.2596 144.267C89.1847 144.685 89.1408 144.929 89.1304 145.002C89.0744 145.417 89.0477 145.676 89.0477 145.773C89.0477 145.822 89.0563 145.861 89.072 145.891C89.0909 145.924 89.1167 145.951 89.158 145.973C89.1968 145.997 89.369 146.048 89.6722 146.128L89.5956 146.541L88.276 146.261L86.9721 146.057L87.0506 145.641C87.3941 145.691 87.5965 145.704 87.6516 145.68C87.7067 145.652 87.7559 145.583 87.798 145.465C87.8403 145.351 87.9246 144.948 88.0529 144.261L88.711 140.706L87.3244 142.819L86.6517 143.871C86.4751 144.149 86.2253 144.552 85.8963 145.08C85.6974 145.398 85.5407 145.657 85.4227 145.855L85.1403 145.803C85.0911 145.51 85.0179 145.11 84.9171 144.599C84.7465 143.725 84.6157 143.074 84.5251 142.642L83.9188 139.819L83.4745 142.216C83.4013 142.616 83.3186 143.094 83.2247 143.647C83.1334 144.198 83.0833 144.513 83.0818 144.59C83.0783 144.666 83.086 144.722 83.1049 144.758C83.1221 144.795 83.1574 144.83 83.2134 144.864C83.2685 144.896 83.4357 144.952 83.7113 145.021L83.633 145.437C83.3281 145.355 83.0137 145.288 82.6898 145.226C82.2644 145.148 81.9284 145.098 81.6753 145.073" fill="white"/>
<path d="M98.6131 145.968L98.4107 146.466C98.0568 146.679 97.7406 146.824 97.4582 146.901C97.1764 146.979 96.8252 147.013 96.4074 147.006C95.8123 146.996 95.286 146.877 94.8304 146.649C94.473 146.464 94.1714 146.222 93.926 145.925C93.678 145.626 93.4919 145.303 93.3629 144.959C93.1647 144.435 93.0707 143.869 93.0811 143.262C93.0965 142.218 93.4136 141.372 94.0303 140.721C94.6461 140.071 95.5065 139.753 96.6107 139.771C96.9897 139.776 97.3332 139.813 97.6339 139.883C97.9345 139.957 98.2833 140.08 98.6804 140.254L98.7018 140.318C98.6519 140.473 98.6166 140.667 98.5856 140.902C98.539 141.274 98.5055 141.622 98.4907 141.94L98.16 141.933C98.16 141.57 98.1514 141.279 98.1333 141.062C97.9472 140.825 97.7406 140.65 97.5056 140.532C97.2721 140.413 96.9725 140.351 96.6062 140.344C95.9457 140.336 95.4134 140.572 95.0086 141.059C94.6038 141.544 94.3972 142.226 94.3833 143.107C94.3756 143.641 94.4342 144.106 94.5625 144.504C94.69 144.903 94.8604 145.236 95.0802 145.499C95.299 145.762 95.5186 145.954 95.7424 146.076C96.0455 146.24 96.416 146.326 96.8536 146.333C97.1403 146.334 97.4117 146.303 97.6683 146.231C97.9259 146.158 98.2065 146.031 98.5097 145.852L98.6131 145.968Z" fill="white"/>
<path d="M100.393 143.014C100.48 143.783 100.641 144.408 100.877 144.887C101.113 145.37 101.385 145.697 101.687 145.874C101.989 146.048 102.331 146.115 102.711 146.072C103.064 146.029 103.369 145.898 103.624 145.667C103.879 145.437 104.058 145.08 104.162 144.59C104.267 144.104 104.282 143.522 104.205 142.851C104.15 142.39 104.062 141.975 103.933 141.602C103.804 141.23 103.645 140.917 103.453 140.67C103.263 140.417 103.053 140.237 102.82 140.119C102.588 140.002 102.293 139.963 101.933 140.002C101.528 140.05 101.191 140.202 100.933 140.463C100.671 140.719 100.499 141.076 100.421 141.531C100.34 141.988 100.331 142.483 100.393 143.014V143.014ZM99.1359 143.456C99.0644 142.855 99.0843 142.321 99.1883 141.856C99.2909 141.393 99.4701 140.986 99.7224 140.641C99.9757 140.297 100.262 140.037 100.584 139.858C100.997 139.634 101.46 139.492 101.972 139.434C102.48 139.378 102.951 139.41 103.384 139.53C103.707 139.621 103.999 139.776 104.263 139.991C104.525 140.205 104.734 140.433 104.886 140.671C105.038 140.911 105.161 141.178 105.26 141.472C105.357 141.77 105.427 142.097 105.467 142.463C105.539 143.083 105.514 143.667 105.393 144.218C105.303 144.627 105.146 144.999 104.924 145.335C104.7 145.671 104.431 145.938 104.12 146.141C103.694 146.412 103.186 146.582 102.608 146.649C101.979 146.72 101.423 146.649 100.941 146.432C100.459 146.214 100.059 145.861 99.7431 145.365C99.4263 144.873 99.223 144.235 99.1359 143.456" fill="white"/>
<path d="M111.301 139.744L110.972 139.823C110.948 139.722 110.906 139.569 110.843 139.371C110.802 139.229 110.759 139.113 110.716 139.018C110.625 138.94 110.529 138.878 110.437 138.837C110.223 138.738 109.991 138.676 109.741 138.654C109.488 138.63 109.218 138.656 108.924 138.725C108.242 138.896 107.756 139.276 107.467 139.873C107.179 140.476 107.141 141.208 107.355 142.08C107.587 143.031 107.991 143.733 108.559 144.19C109.129 144.645 109.728 144.797 110.356 144.642C110.537 144.597 110.713 144.53 110.873 144.444C111.036 144.356 111.189 144.248 111.336 144.121C111.321 144.033 111.288 143.863 111.231 143.613C111.178 143.366 111.143 143.215 111.13 143.163C111.053 142.855 111.001 142.674 110.963 142.622C110.938 142.588 110.895 142.569 110.833 142.569C110.73 142.558 110.462 142.592 110.032 142.665L109.936 142.276L111.166 141.996L112.396 141.675L112.471 141.992C112.325 142.069 112.234 142.149 112.199 142.226C112.184 142.265 112.19 142.358 112.22 142.504C112.297 142.876 112.356 143.143 112.393 143.305C112.453 143.548 112.527 143.796 112.616 144.048C112.161 144.39 111.756 144.653 111.4 144.836C111.043 145.019 110.675 145.157 110.299 145.249C109.685 145.4 109.112 145.411 108.576 145.284C108.205 145.189 107.869 145.034 107.566 144.819C107.263 144.603 107.014 144.353 106.81 144.069C106.5 143.628 106.27 143.109 106.122 142.51C105.998 142.005 105.954 141.548 105.989 141.141C106.022 140.734 106.121 140.364 106.278 140.026C106.437 139.69 106.638 139.399 106.881 139.151C107.129 138.906 107.401 138.708 107.697 138.555C107.992 138.402 108.332 138.28 108.71 138.185C109.172 138.073 109.618 138.017 110.042 138.017C110.466 138.021 110.806 138.053 111.058 138.116L111.114 138.2C111.118 138.499 111.179 139.014 111.301 139.744" fill="white"/>
<path d="M113.848 143.703C114.154 143.572 114.327 143.49 114.366 143.458C114.39 143.436 114.408 143.406 114.419 143.372C114.428 143.335 114.424 143.273 114.406 143.18C114.379 143.057 114.292 142.763 114.152 142.302C114.069 142.039 113.952 141.699 113.802 141.286L113.263 139.787L112.753 138.435C112.667 138.211 112.607 138.062 112.569 138.001C112.531 137.937 112.492 137.892 112.457 137.868C112.421 137.846 112.37 137.833 112.305 137.838C112.241 137.841 112.066 137.879 111.779 137.958L111.637 137.565C111.98 137.467 112.23 137.386 112.389 137.33L112.96 137.106L113.319 136.959C114.167 137.601 115.177 138.327 116.345 139.143C117.186 139.728 117.871 140.176 118.4 140.491L118.011 139.41C117.408 137.737 117.035 136.755 116.9 136.471C116.848 136.361 116.795 136.294 116.745 136.275C116.665 136.24 116.448 136.283 116.093 136.402L115.951 136.01C116.281 135.915 116.584 135.821 116.854 135.723C117.115 135.627 117.449 135.498 117.852 135.325L117.995 135.717C117.676 135.844 117.492 135.939 117.449 136.01C117.434 136.032 117.427 136.062 117.432 136.096C117.447 136.264 117.55 136.63 117.74 137.19C117.926 137.75 118.068 138.161 118.163 138.426C118.909 140.498 119.38 141.748 119.576 142.177L119.539 142.237C119.3 142.273 119.059 142.317 118.814 142.362C117.556 141.546 115.735 140.295 113.354 138.611L114.193 140.934C114.366 141.416 114.557 141.919 114.764 142.433C114.904 142.79 114.999 143.004 115.049 143.074C115.072 143.109 115.102 143.133 115.136 143.146C115.17 143.161 115.219 143.161 115.286 143.148C115.467 143.111 115.597 143.079 115.678 143.049C115.694 143.043 115.717 143.031 115.754 143.014L115.889 143.396C115.384 143.568 115.097 143.664 115.027 143.689C114.77 143.783 114.424 143.918 113.991 144.099L113.848 143.703" fill="white"/>
<path d="M120.214 137.812C120.526 138.517 120.869 139.065 121.238 139.453C121.608 139.84 121.962 140.075 122.304 140.15C122.645 140.231 122.992 140.189 123.342 140.034C123.665 139.89 123.915 139.671 124.092 139.378C124.265 139.081 124.329 138.685 124.284 138.189C124.238 137.691 124.076 137.132 123.804 136.514C123.615 136.089 123.402 135.722 123.168 135.403C122.936 135.086 122.69 134.836 122.434 134.658C122.179 134.473 121.922 134.363 121.664 134.322C121.409 134.279 121.116 134.331 120.786 134.477C120.41 134.643 120.136 134.888 119.964 135.214C119.791 135.536 119.739 135.926 119.798 136.387C119.856 136.846 119.998 137.321 120.214 137.812V137.812ZM119.144 138.607C118.901 138.053 118.756 137.541 118.717 137.065C118.677 136.592 118.726 136.15 118.864 135.745C119.001 135.34 119.198 135.004 119.454 134.74C119.779 134.401 120.18 134.13 120.649 133.923C121.117 133.717 121.577 133.605 122.025 133.59C122.361 133.583 122.688 133.642 123.003 133.768C123.319 133.896 123.586 134.048 123.8 134.232C124.017 134.414 124.216 134.632 124.398 134.886C124.579 135.138 124.746 135.433 124.891 135.769C125.145 136.337 125.294 136.902 125.345 137.463C125.381 137.879 125.345 138.284 125.231 138.669C125.117 139.055 124.945 139.392 124.706 139.679C124.381 140.067 123.949 140.377 123.414 140.616C122.836 140.872 122.283 140.969 121.758 140.907C121.234 140.844 120.744 140.624 120.296 140.248C119.847 139.87 119.463 139.324 119.144 138.607" fill="white"/>
<path d="M128.204 132.475L127.886 132.632C127.712 132.29 127.58 132.055 127.49 131.919C127.348 131.829 127.156 131.779 126.912 131.774C126.669 131.764 126.428 131.822 126.19 131.936C125.847 132.106 125.631 132.339 125.544 132.634C125.455 132.931 125.478 133.215 125.613 133.491C125.713 133.685 125.818 133.831 125.93 133.926C126.044 134.022 126.167 134.083 126.299 134.104C126.432 134.128 126.611 134.122 126.831 134.087C126.995 134.053 127.221 133.997 127.511 133.922C127.798 133.846 127.983 133.801 128.072 133.784C128.308 133.747 128.508 133.741 128.679 133.767C128.848 133.792 128.997 133.844 129.13 133.922C129.257 133.999 129.391 134.113 129.523 134.264C129.656 134.414 129.777 134.598 129.884 134.815C130.07 135.194 130.168 135.562 130.173 135.915C130.179 136.184 130.136 136.449 130.046 136.718C129.953 136.985 129.836 137.209 129.691 137.393C129.457 137.686 129.13 137.935 128.705 138.142C128.394 138.294 128.101 138.396 127.823 138.445C127.549 138.497 127.225 138.51 126.853 138.486C126.764 138.109 126.552 137.574 126.215 136.88L126.531 136.725C126.633 136.942 126.779 137.2 126.968 137.505C127.153 137.642 127.397 137.724 127.699 137.75C128 137.776 128.288 137.722 128.562 137.586C128.803 137.47 128.993 137.315 129.131 137.123C129.272 136.929 129.339 136.725 129.339 136.507C129.337 136.292 129.282 136.07 129.173 135.848C129.079 135.661 128.972 135.517 128.848 135.409C128.723 135.304 128.576 135.244 128.412 135.226C128.245 135.207 127.982 135.231 127.62 135.301C127.109 135.413 126.767 135.478 126.6 135.498C126.344 135.528 126.114 135.502 125.911 135.422C125.707 135.34 125.522 135.214 125.352 135.039C125.187 134.865 125.045 134.66 124.929 134.421C124.765 134.087 124.674 133.754 124.654 133.414C124.634 133.073 124.684 132.78 124.804 132.531C124.921 132.278 125.086 132.061 125.3 131.873C125.513 131.687 125.746 131.532 126.004 131.402C126.271 131.273 126.546 131.174 126.824 131.107C127.103 131.038 127.361 131.015 127.599 131.029L127.68 131.122C127.741 131.334 127.806 131.533 127.883 131.725C127.954 131.921 128.063 132.169 128.204 132.475" fill="white"/>
<path d="M136.03 133.258L136.081 133.794C135.868 134.147 135.654 134.425 135.441 134.624C135.226 134.823 134.933 135.017 134.56 135.207C134.029 135.476 133.508 135.616 132.999 135.624C132.597 135.627 132.219 135.554 131.86 135.407C131.504 135.257 131.189 135.06 130.914 134.813C130.495 134.443 130.146 133.986 129.871 133.444C129.4 132.514 129.285 131.615 129.527 130.754C129.769 129.891 130.383 129.21 131.367 128.708C131.707 128.536 132.026 128.414 132.326 128.334C132.625 128.256 132.993 128.203 133.424 128.173L133.473 128.22C133.504 128.377 133.559 128.569 133.644 128.793C133.775 129.142 133.907 129.462 134.042 129.753L133.749 129.901C133.576 129.578 133.433 129.324 133.314 129.139C133.043 129.021 132.775 128.961 132.515 128.965C132.254 128.971 131.959 129.055 131.633 129.223C131.044 129.52 130.683 129.977 130.552 130.597C130.42 131.213 130.552 131.915 130.952 132.7C131.195 133.174 131.461 133.56 131.763 133.853C132.061 134.146 132.367 134.361 132.683 134.492C132.999 134.624 133.284 134.69 133.538 134.692C133.885 134.697 134.252 134.599 134.64 134.401C134.897 134.272 135.122 134.115 135.317 133.932C135.509 133.749 135.697 133.508 135.882 133.207L136.03 133.258" fill="white"/>
<path d="M136.856 133.84L136.736 133.599C136.847 133.444 136.926 133.297 136.978 133.161C136.931 133.026 136.845 132.819 136.718 132.537C136.484 132.016 136.31 131.639 136.195 131.409L135.203 129.409C135.162 129.331 135.015 129.042 134.758 128.547C134.586 128.216 134.468 128.018 134.401 127.959C134.374 127.936 134.346 127.923 134.313 127.92C134.229 127.919 134.032 127.981 133.729 128.11L133.559 127.768L134.432 127.326C134.606 127.236 134.771 127.156 134.929 127.076C135.275 126.904 135.659 126.71 136.074 126.491L136.834 126.086C136.923 126.041 137.111 125.957 137.394 125.83C137.42 125.819 137.465 125.806 137.532 125.797L137.586 125.839L137.834 126.516C137.853 126.562 137.945 126.782 138.115 127.175L137.818 127.322C137.641 126.973 137.521 126.766 137.463 126.696C137.433 126.659 137.404 126.635 137.374 126.628C137.329 126.618 137.216 126.644 137.039 126.708C136.772 126.799 136.521 126.902 136.28 127.02C136.057 127.132 135.835 127.255 135.611 127.391C135.743 127.748 135.939 128.186 136.195 128.707L136.652 129.626C136.832 129.555 137.013 129.471 137.198 129.38C137.256 129.354 137.463 129.242 137.814 129.053C137.951 128.984 138.025 128.932 138.041 128.902C138.055 128.872 138.057 128.833 138.048 128.782C138.023 128.652 137.945 128.459 137.819 128.192L138.127 128.039L138.594 129.027L139.095 129.992L138.789 130.145C138.621 129.798 138.498 129.595 138.417 129.535C138.356 129.492 138.283 129.482 138.196 129.505C138.005 129.561 137.771 129.656 137.496 129.792C137.249 129.914 137.05 130.026 136.9 130.128L137.827 131.992C137.93 132.201 138.023 132.377 138.105 132.522C138.318 132.442 138.565 132.33 138.843 132.192C139.116 132.061 139.362 131.925 139.582 131.79C139.801 131.654 139.928 131.555 139.961 131.49C139.974 131.471 139.976 131.433 139.971 131.385C139.948 131.219 139.86 130.926 139.712 130.504L140.023 130.353C140.258 130.968 140.471 131.463 140.658 131.843L140.638 131.925C140.488 132.027 140.264 132.149 139.967 132.296L139.351 132.584C138.747 132.871 138.329 133.071 138.101 133.185C138.042 133.213 137.627 133.431 136.856 133.84" fill="white"/>
<path d="M138.592 125.672L138.424 125.302C138.483 125.275 138.692 125.188 139.048 125.044C139.222 124.97 139.468 124.865 139.782 124.721C140.051 124.6 140.279 124.488 140.465 124.389C140.775 124.228 141.034 124.099 141.242 124.006C141.642 123.823 141.96 123.72 142.189 123.696C142.422 123.674 142.655 123.737 142.894 123.888C143.131 124.036 143.321 124.267 143.459 124.574C143.627 124.94 143.681 125.318 143.625 125.702C143.568 126.086 143.38 126.459 143.059 126.814C143.186 126.921 143.321 127.025 143.467 127.13C143.613 127.231 143.698 127.296 143.729 127.32C143.756 127.343 143.782 127.365 143.81 127.385L144.88 128.16C145.165 128.364 145.319 128.476 145.342 128.491C145.669 128.702 145.867 128.823 145.934 128.857C146.004 128.892 146.063 128.909 146.113 128.913C146.163 128.915 146.249 128.892 146.373 128.84L146.554 129.236C146.151 129.404 145.863 129.527 145.686 129.608C145.483 129.701 145.28 129.798 145.085 129.904C145.043 129.843 144.973 129.77 144.876 129.688L143.33 128.467C142.885 128.117 142.523 127.847 142.239 127.658C142.097 127.563 141.972 127.498 141.865 127.468L141.839 127.3C142.153 127.171 142.365 127.029 142.484 126.872C142.602 126.715 142.663 126.502 142.669 126.23C142.676 125.961 142.616 125.688 142.491 125.412C142.365 125.137 142.204 124.93 142.009 124.798C141.815 124.665 141.616 124.6 141.416 124.603C141.288 124.604 141.084 124.669 140.809 124.797C140.686 124.854 140.57 124.921 140.458 124.996C140.501 125.111 140.604 125.358 140.768 125.741C141.141 126.601 141.393 127.175 141.525 127.462C141.728 127.914 141.951 128.392 142.189 128.894C142.481 129.512 142.649 129.861 142.693 129.942C142.777 130.108 142.839 130.211 142.885 130.254C142.908 130.274 142.932 130.287 142.965 130.296C142.995 130.306 143.041 130.306 143.096 130.293C143.154 130.28 143.307 130.224 143.555 130.121L143.737 130.517C143.289 130.696 142.839 130.886 142.392 131.088C141.994 131.271 141.627 131.45 141.298 131.626L141.116 131.228C141.401 131.081 141.568 130.986 141.611 130.942C141.64 130.92 141.655 130.892 141.657 130.864C141.663 130.838 141.655 130.791 141.633 130.726C141.598 130.599 141.53 130.414 141.43 130.172L140.861 128.838L140.099 127.161L139.644 126.215C139.468 125.839 139.351 125.621 139.289 125.556C139.264 125.529 139.233 125.513 139.198 125.507C139.121 125.498 138.919 125.552 138.592 125.672" fill="white"/>
<path d="M146.711 129.185L146.614 128.937C146.739 128.788 146.834 128.651 146.896 128.519C146.864 128.381 146.793 128.168 146.693 127.873C146.507 127.335 146.369 126.945 146.278 126.704L145.47 124.62C145.44 124.538 145.322 124.238 145.109 123.722C144.967 123.375 144.867 123.169 144.807 123.101C144.782 123.078 144.755 123.063 144.722 123.057C144.636 123.048 144.438 123.093 144.123 123.192L143.985 122.837L144.896 122.475C145.077 122.404 145.25 122.335 145.417 122.273C145.774 122.133 146.173 121.973 146.61 121.795L147.402 121.463C147.497 121.426 147.689 121.36 147.983 121.261C148.009 121.25 148.054 121.241 148.122 121.237L148.175 121.287L148.359 121.982C148.374 122.029 148.445 122.257 148.575 122.665L148.269 122.783C148.122 122.421 148.024 122.2 147.975 122.124C147.946 122.085 147.917 122.062 147.89 122.053C147.843 122.036 147.731 122.053 147.548 122.098C147.274 122.165 147.013 122.247 146.766 122.342C146.53 122.432 146.3 122.536 146.063 122.649C146.162 123.018 146.317 123.47 146.525 124.013L146.896 124.969C147.081 124.914 147.269 124.852 147.462 124.777C147.523 124.753 147.738 124.665 148.107 124.505C148.247 124.448 148.325 124.405 148.343 124.376C148.361 124.349 148.368 124.31 148.363 124.258C148.348 124.129 148.291 123.926 148.191 123.648L148.511 123.526L148.884 124.553L149.293 125.559L148.977 125.681C148.841 125.324 148.734 125.111 148.66 125.044C148.605 124.995 148.533 124.977 148.445 124.995C148.249 125.029 148.009 125.104 147.722 125.211C147.464 125.313 147.257 125.405 147.097 125.492L147.847 127.434C147.933 127.652 148.009 127.837 148.077 127.987C148.296 127.929 148.552 127.841 148.845 127.729C149.125 127.619 149.383 127.507 149.613 127.395C149.845 127.277 149.98 127.191 150.02 127.13C150.035 127.111 150.04 127.076 150.038 127.029C150.029 126.859 149.971 126.562 149.862 126.127L150.185 126.002C150.365 126.635 150.53 127.149 150.682 127.544L150.654 127.626C150.495 127.712 150.262 127.815 149.95 127.933L149.312 128.164C148.682 128.394 148.249 128.553 148.014 128.646C147.95 128.67 147.516 128.849 146.711 129.185" fill="white"/>
<path d="M151.636 120.434L151.537 120.038C151.602 120.022 151.821 119.977 152.2 119.9C152.383 119.863 152.648 119.803 152.983 119.721C153.269 119.65 153.511 119.583 153.715 119.518C154.05 119.418 154.328 119.342 154.548 119.286C154.979 119.183 155.31 119.139 155.537 119.159C155.77 119.181 155.987 119.286 156.194 119.478C156.4 119.669 156.542 119.93 156.623 120.259C156.719 120.647 156.705 121.028 156.575 121.396C156.448 121.765 156.194 122.094 155.814 122.385C155.918 122.514 156.033 122.641 156.155 122.77C156.279 122.897 156.353 122.975 156.377 123.005C156.398 123.031 156.422 123.058 156.446 123.084L157.356 124.043C157.596 124.299 157.725 124.435 157.746 124.454C158.029 124.725 158.201 124.88 158.26 124.925C158.32 124.97 158.375 125.003 158.427 125.012C158.475 125.025 158.564 125.018 158.694 124.988L158.797 125.412C158.372 125.503 158.067 125.569 157.878 125.616C157.662 125.672 157.443 125.728 157.231 125.797C157.197 125.728 157.143 125.645 157.064 125.546L155.774 124.057C155.399 123.631 155.095 123.298 154.85 123.063C154.728 122.94 154.618 122.856 154.518 122.807L154.525 122.635C154.857 122.567 155.095 122.467 155.237 122.335C155.382 122.201 155.483 122.003 155.541 121.74C155.596 121.473 155.589 121.196 155.517 120.903C155.444 120.606 155.324 120.374 155.155 120.207C154.988 120.042 154.805 119.939 154.609 119.906C154.48 119.884 154.271 119.913 153.975 119.983C153.845 120.018 153.717 120.061 153.596 120.117C153.617 120.236 153.67 120.496 153.761 120.905C153.971 121.818 154.112 122.43 154.183 122.735C154.303 123.218 154.431 123.728 154.572 124.268C154.745 124.927 154.845 125.302 154.871 125.391C154.926 125.569 154.97 125.683 155.004 125.733C155.021 125.754 155.044 125.776 155.074 125.789C155.104 125.804 155.149 125.813 155.204 125.813C155.263 125.81 155.422 125.78 155.688 125.724L155.792 126.148C155.32 126.241 154.844 126.342 154.366 126.463C153.938 126.566 153.549 126.674 153.188 126.783L153.085 126.359C153.394 126.271 153.575 126.209 153.626 126.174C153.656 126.153 153.677 126.131 153.685 126.105C153.695 126.081 153.695 126.032 153.687 125.961C153.677 125.832 153.643 125.638 153.591 125.382L153.276 123.965L152.841 122.174L152.57 121.163C152.467 120.759 152.39 120.522 152.344 120.451C152.32 120.417 152.294 120.395 152.261 120.382C152.189 120.361 151.977 120.375 151.636 120.434" fill="white"/>
<path d="M158.989 125.422L158.956 125.155C159.113 125.044 159.238 124.932 159.332 124.82C159.332 124.68 159.319 124.456 159.293 124.146C159.246 123.578 159.21 123.166 159.18 122.91L158.913 120.692C158.902 120.606 158.858 120.285 158.781 119.732C158.729 119.362 158.682 119.138 158.642 119.058C158.625 119.026 158.601 119.004 158.571 118.993C158.489 118.963 158.285 118.957 157.957 118.976L157.911 118.597L158.881 118.47C159.074 118.446 159.258 118.425 159.434 118.403C159.817 118.358 160.241 118.3 160.71 118.233L161.558 118.106C161.661 118.096 161.864 118.076 162.171 118.053C162.201 118.05 162.247 118.054 162.312 118.065L162.35 118.126L162.356 118.845C162.358 118.897 162.373 119.135 162.4 119.561L162.074 119.6C162.022 119.213 161.98 118.976 161.949 118.89C161.932 118.845 161.915 118.815 161.887 118.798C161.848 118.773 161.734 118.759 161.543 118.759C161.265 118.754 160.99 118.769 160.727 118.802C160.477 118.829 160.226 118.875 159.97 118.928C159.977 119.307 160.012 119.784 160.082 120.361L160.205 121.379C160.397 121.373 160.597 121.36 160.801 121.331C160.866 121.325 161.096 121.291 161.493 121.231C161.645 121.209 161.731 121.188 161.755 121.163C161.778 121.14 161.794 121.103 161.803 121.051C161.823 120.922 161.816 120.714 161.786 120.421L162.124 120.378L162.234 121.465L162.387 122.544L162.048 122.583C162.005 122.2 161.952 121.969 161.898 121.885C161.857 121.825 161.79 121.792 161.702 121.786C161.503 121.773 161.25 121.786 160.946 121.822C160.672 121.853 160.447 121.891 160.272 121.939L160.521 124.004C160.55 124.236 160.578 124.432 160.605 124.596C160.835 124.594 161.102 124.572 161.411 124.535C161.715 124.499 161.99 124.454 162.242 124.4C162.498 124.346 162.648 124.292 162.701 124.245C162.718 124.23 162.734 124.198 162.744 124.15C162.778 123.987 162.793 123.681 162.796 123.233L163.138 123.192C163.156 123.851 163.191 124.389 163.242 124.809L163.195 124.88C163.018 124.925 162.765 124.966 162.434 125.007L161.76 125.069C161.094 125.141 160.636 125.188 160.383 125.218C160.317 125.227 159.85 125.296 158.989 125.422" fill="white"/>
<path d="M163.783 118.289L163.792 117.885C163.855 117.885 164.081 117.897 164.465 117.921C164.653 117.934 164.92 117.942 165.268 117.951C165.563 117.955 165.814 117.955 166.027 117.947C166.377 117.936 166.663 117.934 166.893 117.938C167.333 117.947 167.662 117.994 167.881 118.074C168.099 118.152 168.284 118.313 168.434 118.552C168.581 118.789 168.652 119.077 168.644 119.413C168.634 119.816 168.521 120.177 168.303 120.503C168.084 120.828 167.754 121.076 167.31 121.261C167.378 121.409 167.454 121.562 167.539 121.719C167.627 121.874 167.677 121.969 167.694 122.003C167.708 122.036 167.724 122.068 167.739 122.098L168.366 123.261C168.534 123.569 168.626 123.737 168.639 123.76C168.843 124.092 168.968 124.288 169.013 124.348C169.06 124.409 169.104 124.452 169.151 124.475C169.194 124.499 169.283 124.514 169.416 124.521L169.405 124.956C168.971 124.936 168.659 124.921 168.465 124.917C168.239 124.91 168.017 124.914 167.794 124.921C167.782 124.85 167.747 124.753 167.7 124.634L166.835 122.865C166.587 122.355 166.377 121.954 166.205 121.663C166.116 121.515 166.033 121.405 165.95 121.327L166.001 121.166C166.337 121.188 166.593 121.153 166.769 121.063C166.941 120.972 167.089 120.804 167.213 120.563C167.337 120.324 167.402 120.052 167.41 119.751C167.416 119.445 167.359 119.191 167.24 118.984C167.119 118.78 166.971 118.636 166.788 118.554C166.674 118.5 166.463 118.47 166.157 118.463C166.023 118.459 165.889 118.47 165.757 118.496C165.747 118.612 165.732 118.879 165.714 119.299C165.675 120.233 165.653 120.86 165.646 121.175C165.634 121.674 165.628 122.197 165.623 122.753C165.618 123.44 165.618 123.825 165.623 123.918C165.625 124.103 165.638 124.225 165.659 124.281C165.671 124.31 165.688 124.333 165.714 124.355C165.738 124.376 165.777 124.393 165.834 124.409C165.891 124.423 166.053 124.436 166.322 124.449L166.313 124.887C165.832 124.854 165.348 124.831 164.853 124.82C164.415 124.809 164.009 124.814 163.633 124.826L163.644 124.389C163.965 124.385 164.155 124.37 164.215 124.348C164.25 124.34 164.273 124.324 164.289 124.299C164.306 124.28 164.317 124.232 164.328 124.163C164.352 124.034 164.369 123.838 164.385 123.578L164.449 122.128L164.492 120.285L164.494 119.237C164.499 118.821 164.488 118.574 164.461 118.487C164.448 118.453 164.426 118.425 164.4 118.403C164.335 118.363 164.129 118.324 163.783 118.289" fill="white"/>
<path d="M170.093 118.483L170.188 118.08L171.518 118.416L172.075 118.528L172.635 118.636L172.787 118.664L172.698 119.066C172.401 119 172.205 118.989 172.114 119.032C172.066 119.052 172.026 119.101 171.992 119.183C171.911 119.375 171.79 119.811 171.637 120.492L171.385 121.616L171.261 122.184C171.13 122.777 171.054 123.143 171.032 123.282C170.99 123.591 170.999 123.851 171.062 124.06C171.126 124.268 171.251 124.456 171.44 124.617C171.631 124.781 171.891 124.9 172.223 124.975C172.605 125.061 172.928 125.052 173.187 124.949C173.45 124.848 173.652 124.682 173.806 124.458C173.957 124.236 174.108 123.78 174.263 123.093L174.483 122.102C174.676 121.25 174.792 120.731 174.831 120.542C174.916 120.134 174.952 119.884 174.942 119.794C174.933 119.738 174.911 119.693 174.868 119.656C174.793 119.581 174.602 119.504 174.298 119.426L174.39 119.023C174.882 119.159 175.175 119.237 175.266 119.256C175.291 119.263 175.33 119.269 175.381 119.277L176.301 119.452L176.21 119.854C175.956 119.799 175.79 119.785 175.713 119.82C175.674 119.837 175.633 119.883 175.599 119.949C175.562 120.018 175.468 120.341 175.319 120.918C175.171 121.493 175.056 121.952 174.98 122.288L174.727 123.424C174.659 123.715 174.576 124.013 174.469 124.314C174.365 124.616 174.232 124.865 174.076 125.059C173.915 125.253 173.719 125.418 173.483 125.552C173.245 125.685 172.979 125.765 172.689 125.797C172.396 125.826 172.073 125.8 171.713 125.72C171.296 125.628 170.924 125.473 170.589 125.259C170.349 125.104 170.162 124.926 170.03 124.725C169.9 124.522 169.813 124.311 169.771 124.09C169.728 123.868 169.72 123.661 169.739 123.47C169.752 123.349 169.817 123.035 169.934 122.527L170.144 121.597L170.422 120.367C170.521 119.915 170.607 119.505 170.676 119.142C170.7 118.997 170.704 118.892 170.693 118.821C170.689 118.782 170.662 118.733 170.618 118.67L170.093 118.483" fill="white"/>
<path d="M174.206 125.951L174.386 125.567C174.683 125.681 174.867 125.735 174.933 125.737C174.967 125.74 175 125.728 175.03 125.709C175.073 125.681 175.116 125.632 175.159 125.559C175.258 125.397 175.447 125.033 175.732 124.465C175.872 124.191 176.102 123.711 176.421 123.031C176.71 122.424 176.959 121.885 177.173 121.413C177.388 120.942 177.501 120.655 177.518 120.552C177.527 120.505 177.527 120.466 177.517 120.434C177.506 120.401 177.474 120.365 177.419 120.324C177.264 120.212 177.121 120.12 176.99 120.051L177.171 119.667C177.686 119.936 178.042 120.117 178.241 120.212C178.503 120.335 178.77 120.451 179.046 120.555L178.961 121.601L178.91 122.399L178.732 125.92C179.27 125.451 179.681 125.085 179.965 124.82L181.057 123.814C181.665 123.252 182.038 122.908 182.174 122.777C182.311 122.645 182.479 122.475 182.671 122.269C182.995 122.445 183.207 122.559 183.299 122.6L184.454 123.108L184.274 123.489L184.223 123.466C183.962 123.338 183.783 123.295 183.678 123.338C183.573 123.377 183.47 123.502 183.372 123.711C183.257 123.961 183.164 124.148 183.101 124.277L182.492 125.53L181.747 127.106C181.567 127.488 181.461 127.714 181.432 127.781C181.273 128.17 181.181 128.414 181.154 128.506C181.144 128.552 181.141 128.592 181.15 128.627C181.156 128.664 181.179 128.695 181.212 128.728C181.242 128.76 181.395 128.853 181.671 129.008L181.492 129.389L180.284 128.782L179.078 128.25L179.258 127.869C179.58 128.005 179.771 128.069 179.827 128.056C179.888 128.048 179.955 127.992 180.025 127.89C180.096 127.789 180.28 127.421 180.579 126.79L182.121 123.522L180.244 125.21L179.326 126.055C179.083 126.279 178.736 126.602 178.284 127.031C178.013 127.287 177.794 127.498 177.63 127.66L177.371 127.54C177.399 127.242 177.427 126.835 177.462 126.317C177.518 125.431 177.558 124.768 177.58 124.327L177.713 121.442L176.674 123.647C176.501 124.013 176.299 124.452 176.067 124.966C175.837 125.477 175.71 125.77 175.688 125.838C175.667 125.913 175.661 125.968 175.667 126.011C175.675 126.05 175.702 126.093 175.748 126.14C175.792 126.187 175.937 126.279 176.187 126.417L176.006 126.799C175.732 126.644 175.444 126.497 175.149 126.355C174.759 126.175 174.443 126.037 174.206 125.951" fill="white"/>
<path d="M44.9355 1.49734C44.6487 1.49734 44.3636 1.57297 44.144 1.76259C43.92 1.95794 43.7797 2.23796 43.765 2.53761C43.7564 2.72017 42.7961 20.9649 42.7961 44.3674C42.7961 68.7201 44.4187 81.7644 48.7778 92.5001C53.2003 103.398 60.0268 108.778 73.6532 116.719C86.6999 124.316 92.1594 125.341 95.7992 125.341C99.4416 125.341 104.899 124.316 117.943 116.719C131.573 108.778 138.399 103.398 142.825 92.5001C147.181 81.7644 148.802 68.7201 148.802 44.3674C148.802 20.9649 147.843 2.72017 147.835 2.53761C147.818 2.23796 147.684 1.95794 147.454 1.76259C147.232 1.56878 146.944 1.49734 146.647 1.49734C146.647 1.49734 45.2224 1.49734 44.9355 1.49734ZM145.509 3.89162C145.729 8.55538 146.413 24.6596 146.413 44.3674C146.413 68.3783 144.841 81.1812 140.612 91.6028C138.565 96.6411 135.973 100.457 132.205 103.972C128.818 107.133 124.338 110.228 116.74 114.655C110.928 118.04 106.289 120.32 102.557 121.624C99.1883 122.803 97.1748 122.953 95.7992 122.953C94.4229 122.953 92.411 122.803 89.0417 121.624C85.3097 120.32 80.67 118.04 74.8573 114.655C67.2599 110.228 62.7794 107.133 59.3947 103.972C55.6283 100.454 53.0358 96.6411 50.9912 91.6028C46.7587 81.1812 45.1862 68.3783 45.1862 44.3674C45.1862 24.6726 45.8682 8.58559 46.0896 3.90463L145.509 3.89162" fill="white"/>
<path d="M126.436 30.9701L125.291 27.7662L124.158 30.9168L120.774 31.0504L123.463 33.1278L122.503 36.3602L125.282 34.4437L128.084 36.3602L127.123 33.0932L129.808 31.0504L126.436 30.9701Z" fill="white"/>
<path d="M122.478 49.1304L125.046 51.5031L124.792 48.0149L128.249 47.488L125.364 45.5113L127.106 42.4796L123.763 43.5044L122.478 40.2505L121.194 43.5044L117.852 42.4796L119.593 45.5113L116.708 47.488L120.165 48.0149L119.911 51.5031L122.478 49.1304" fill="white"/>
<path d="M136.426 29.9435L138.994 32.3182L138.74 28.8298L142.196 28.3029L139.311 26.3262L141.054 23.2945L137.71 24.3193L136.426 21.0656L135.143 24.3193L131.798 23.2945L133.541 26.3262L130.655 28.3029L134.113 28.8298L133.859 32.3182L136.426 29.9435" fill="white"/>
<path d="M123.948 16.8624L126.516 19.238L126.262 15.7496L129.718 15.2218L126.833 13.2451L128.575 10.2134L125.231 11.2382L123.948 7.98516L122.663 11.2382L119.32 10.2134L121.062 13.2451L118.177 15.2218L121.633 15.7496L121.379 19.238L123.948 16.8624" fill="white"/>
<path d="M109.21 28.1995L111.779 30.5742L111.525 27.0858L114.981 26.5589L112.095 24.5822L113.839 21.5505L110.494 22.5753L109.21 19.3213L107.927 22.5753L104.583 21.5505L106.325 24.5822L103.44 26.5589L106.897 27.0858L106.643 30.5742L109.21 28.1995Z" fill="white"/>
<path d="M122.607 57.4271C108.465 50.6634 98.961 45.8661 95.5331 45.8661C92.1096 45.8661 83.1532 50.6634 69.0109 57.4271C54.8703 64.1899 50.043 65.6394 50.043 68.5953C50.043 71.5564 53.5139 70.1482 54.5689 69.8311C55.6248 69.5152 91.7116 57.8379 95.5331 57.8379C99.3564 57.8379 135.992 69.5152 137.049 69.8311C138.106 70.1482 141.576 71.5564 141.576 68.5953C141.576 65.6394 136.748 64.1899 122.607 57.4271" fill="white"/>
<path d="M130.736 79.5319C124.604 81.5904 119.733 86.0749 112.94 84.7985C106.987 83.6762 102.044 78.5344 95.7897 78.612C88.9436 78.7007 83.7766 84.5961 77.0595 85.1559C70.4561 85.7071 65.3194 80.3733 59.1647 79.1114C56.3819 78.5413 53.9411 78.9262 51.6172 79.7231C52.0884 82.0139 52.6363 84.1242 53.2658 86.1095C55.0994 85.6685 57.0304 85.5435 59.1647 85.9803C65.3194 87.2419 70.4561 92.576 77.0595 92.0248C83.7766 91.4649 88.9436 85.5693 95.7897 85.4807C102.044 85.4031 106.987 90.5451 112.94 91.6674C119.733 92.9438 124.604 88.459 130.736 86.4006C133.477 85.4807 135.926 85.5583 138.253 86.138C138.884 84.1569 139.431 82.051 139.901 79.7643C137.077 78.7869 134.131 78.3924 130.736 79.5319" fill="white"/>
<path d="M130.736 93.2692C124.604 95.3276 119.733 99.8124 112.94 98.5333C106.986 97.4137 102.044 92.2701 95.7897 92.3493C88.9436 92.4355 83.7766 98.3335 77.0595 98.8934C70.4561 99.4446 65.3194 94.1108 59.1647 92.8489C57.9986 92.6103 56.8917 92.5389 55.8298 92.5949C57.2216 95.394 58.9546 97.8167 61.0819 100C61.15 100.069 61.2163 100.118 61.3023 100.161C61.9958 100.497 65.5692 102.228 67.3545 103.124C70.3933 104.653 73.567 106.052 77.0595 105.762C83.7766 105.2 88.9436 99.3041 95.7897 99.2181C102.044 99.1388 106.986 104.282 112.94 105.402C117.098 106.184 120.599 104.778 124.047 103.12C125.837 102.258 129.665 100.359 130.381 100.002C130.468 99.9614 130.532 99.9096 130.599 99.8408C132.62 97.7221 134.355 95.295 135.698 92.5991C134.134 92.4983 132.495 92.6767 130.736 93.2692Z" fill="white"/>
<path d="M78.9243 112.338C81.6573 113.877 84.0826 115.13 86.2401 116.121C89.2718 114.54 92.3147 112.999 95.7899 112.955C99.2617 112.911 102.33 114.478 105.391 116.072C107.568 115.068 110.018 113.795 112.777 112.236C106.896 111.055 101.985 106.009 95.7899 106.087C89.5904 106.164 84.7672 111.007 78.9243 112.338" fill="white"/>
<path d="M117.913 71.0438C110.668 68.8303 105.713 67.3853 102.328 66.442C99.1041 65.542 97.5993 65.2018 96.6037 64.9504C96.3074 64.8746 95.8087 64.7797 95.6409 64.7498C95.4195 64.791 95.1146 64.853 94.6976 64.9478C93.8622 65.1398 92.5746 65.4646 90.5972 66.0096C87.2416 66.933 81.8939 68.4963 73.3835 71.1344C70.6517 71.9802 67.594 72.9387 64.1731 74.0197C68.352 76.011 72.3596 78.6853 77.1318 78.2873C83.849 77.7275 89.0159 71.8321 95.8629 71.7458C102.116 71.6658 107.058 76.8102 113.013 77.9299C118.546 78.9695 122.805 76.1876 127.508 74.0067C123.93 72.8913 120.747 71.907 117.913 71.0438" fill="white"/>
</g>
<defs>
<clipPath id="clip0_428:3774">
<rect width="500" height="160.714" fill="white"/>
</clipPath>
</defs>
</svg>
