<svg width="100" height="117" viewBox="0 0 100 117" fill="none" xmlns="http://www.w3.org/2000/svg">
<g clip-path="url(#clip0_431:4347)">
<path d="M90.5068 25.7954L90.7457 29.0852L88.325 26.8464L85.9024 29.0852L86.1411 25.7954L82.8798 25.2975L85.6037 23.4335L83.9593 20.5727L87.1122 21.54L88.325 18.4716L89.5357 21.54L92.6886 20.5727L91.047 23.4335L93.7681 25.2975L90.5068 25.7954ZM88.913 64.473C87.9144 64.1762 53.3551 53.1611 49.7493 53.1611C46.1434 53.1611 12.1016 64.1762 11.1048 64.473C10.1108 64.7714 6.83569 66.1009 6.83569 63.3091C6.83569 60.5179 11.3896 59.152 24.7288 52.7717C38.071 46.3923 46.5183 41.8669 49.7493 41.8669C52.9812 41.8669 61.9475 46.3923 75.2888 52.7717C88.6282 59.152 93.183 60.5179 93.183 63.3091C93.183 66.1009 89.9097 64.7714 88.913 64.473V64.473ZM20.1658 68.4252C23.3922 67.4036 26.2768 66.5014 28.8539 65.702C36.8812 63.2143 41.9266 61.7399 45.0915 60.8671C46.9565 60.3526 48.1719 60.0485 48.9593 59.8676C49.3525 59.7775 49.6418 59.7187 49.8504 59.6802C50.0094 59.7086 50.4798 59.7968 50.758 59.8686C51.6968 60.1073 53.1164 60.429 56.1571 61.275C59.3523 62.1661 64.0256 63.5294 70.8608 65.6157C73.5341 66.4325 76.5364 67.3594 79.9125 68.4123C75.4753 70.4692 71.4579 73.0939 66.238 72.1117C60.6202 71.0553 55.9579 66.2037 50.0597 66.2782C43.6016 66.3599 38.7251 71.9217 32.3909 72.4509C27.8873 72.8265 24.107 70.302 20.1658 68.4252V68.4252ZM90.0475 79.8563C87.8518 79.3098 85.5414 79.2352 82.9579 80.1035C77.1721 82.0456 72.5769 86.2761 66.1691 85.0718C60.5531 84.0153 55.8906 79.1618 49.991 79.2362C43.5327 79.3189 38.659 84.8806 32.322 85.4088C26.0931 85.9288 21.2471 80.8982 15.441 79.7075C13.4273 79.2949 11.6055 79.4135 9.87654 79.8307C9.28122 77.9565 8.76492 75.9657 8.3212 73.8051C10.5123 73.0525 12.8163 72.6896 15.441 73.2279C21.2471 74.4196 26.0931 79.4502 32.322 78.9302C38.659 78.402 43.5327 72.8385 49.991 72.7575C55.8906 72.6823 60.5531 77.5348 66.1691 78.5922C72.5769 79.7966 77.1721 75.5661 82.9579 73.6249C86.1597 72.5501 88.9386 72.9203 91.6028 73.8436C91.159 76.0005 90.6427 77.9869 90.0475 79.8563V79.8563ZM82.8267 92.7822C82.765 92.8483 82.7025 92.8951 82.6227 92.9356C81.9447 93.2719 78.337 95.0643 76.6465 95.8764C73.3944 97.44 70.0917 98.7675 66.1691 98.0298C60.5531 96.9733 55.8906 92.1207 49.991 92.1962C43.5327 92.2768 38.659 97.8387 32.322 98.3678C29.0266 98.6425 26.0334 97.3224 23.1653 95.881C21.4814 95.0339 18.1098 93.4014 17.4575 93.0845C17.3748 93.0449 17.3133 92.9972 17.249 92.933C15.2435 90.8733 13.6082 88.5866 12.2945 85.9471C13.2959 85.8949 14.3414 85.961 15.441 86.1879C21.2471 87.3775 26.0931 92.4083 32.322 91.8893C38.659 91.3592 43.5327 85.7985 49.991 85.7166C55.8906 85.6423 60.5531 90.4937 66.1691 91.5504C72.5769 92.7566 77.1721 88.524 82.9579 86.583C84.6162 86.0252 86.1613 85.8573 87.6387 85.9509C86.3709 88.4939 84.7356 90.7832 82.8267 92.7822V92.7822ZM59.0491 108.094C56.1599 106.59 53.266 105.113 49.991 105.154C46.7131 105.196 43.8422 106.649 40.9833 108.14C38.9457 107.206 36.658 106.023 34.0811 104.572C39.5934 103.317 44.1409 98.7491 49.991 98.6747C55.8356 98.6012 60.4659 103.361 66.0146 104.476C63.413 105.947 61.1025 107.147 59.0491 108.094ZM58.2867 18.9283L61.4395 19.8937L62.6505 16.8253L63.8631 19.8937L67.016 18.9283L65.3716 21.7881L68.0955 23.6512L64.8342 24.1501L65.0729 27.4398L62.6505 25.2018L60.2269 27.4398L60.4685 24.1501L57.2072 23.6512L59.9283 21.7881L58.2867 18.9283ZM70.801 38.6717L73.9548 39.6381L75.1674 36.5696L76.3775 39.6381L79.5331 38.6717L77.8887 41.5315L80.6108 43.3956L77.3495 43.8935L77.5901 47.1832L75.1674 44.9445L72.7441 47.1832L72.9828 43.8935L69.7243 43.3956L72.4454 41.5315L70.801 38.6717ZM72.1881 8.2338L75.3419 9.19923L76.552 6.13102L77.7646 9.19923L80.9184 8.2338L79.274 11.0946L81.9979 12.9577L78.7366 13.4565L78.9755 16.7463L76.552 14.5075L74.1293 16.7463L74.3702 13.4565L71.1086 12.9577L73.8309 11.0946L72.1881 8.2338ZM80.4546 32.8996L77.8107 31.0906L75.1905 32.8996L76.0955 29.8504L73.5597 27.889L76.7523 27.7623L77.8198 24.7921L78.9019 27.8128L82.0825 27.889L79.5468 29.8173L80.4546 32.8996ZM99.0872 0.993672C99.0717 0.710747 98.945 0.44711 98.7272 0.261315C98.5204 0.0795182 98.2467 0.0115475 97.9666 0.0115475C97.9666 0.0115475 2.2882 0.0115475 2.01719 0.0115475C1.74617 0.0115475 1.47975 0.0823404 1.27029 0.261315C1.059 0.44711 0.928544 0.710747 0.912008 0.993672C0.905576 1.16442 0.000671387 18.3761 0.000671387 40.452C0.000671387 63.4257 1.53028 75.7314 5.6414 85.8589C9.81408 96.1382 16.2541 101.214 29.1091 108.704C41.4151 115.872 46.5661 116.84 50.0002 116.84C53.436 116.84 58.5825 115.872 70.8883 108.704C83.7453 101.214 90.1853 96.1382 94.3608 85.8589C98.4699 75.7314 99.9995 63.4257 99.9995 40.452C99.9995 18.3761 99.0948 1.16442 99.0872 0.993672" fill="#B97D1C"/>
</g>
<defs>
<clipPath id="clip0_431:4347">
<rect width="100" height="116.839" fill="white"/>
</clipPath>
</defs>
</svg>
