<svg xmlns="http://www.w3.org/2000/svg" viewBox="0 0 85 85"><defs><style>.cls-1,.cls-2,.cls-3{fill:none;}.cls-2,.cls-3{stroke:#bf872b;stroke-linejoin:round;stroke-width:1.5px;}.cls-3{stroke-linecap:round;}</style></defs><g id="Layer_2" data-name="Layer 2"><g id="Icons"><path class="cls-1" d="M42.5,0c.7,0,1.39,0,2.09.05L46.67.2c.69.07,1.38.16,2.07.26s1.37.22,2,.36,1.36.28,2,.45,1.34.36,2,.56,1.32.42,2,.65,1.3.49,1.94.76,1.28.54,1.91.84,1.25.61,1.86.94,1.22.67,1.82,1,1.18.73,1.76,1.11,1.15.79,1.71,1.2,1.1.85,1.64,1.29S70.53,10.54,71,11s1,1,1.51,1.44,1,1,1.44,1.51.92,1,1.36,1.58.87,1.08,1.29,1.64.81,1.13,1.2,1.71.76,1.16,1.11,1.76.7,1.2,1,1.82.64,1.23.94,1.86.58,1.26.84,1.91.52,1.29.76,1.94.45,1.32.65,2,.39,1.34.56,2,.32,1.36.45,2,.26,1.37.36,2,.19,1.38.26,2.07.11,1.39.15,2.08,0,1.39,0,2.09,0,1.39,0,2.09-.09,1.38-.15,2.08-.16,1.38-.26,2.07-.22,1.37-.36,2-.28,1.36-.45,2-.36,1.34-.56,2-.42,1.32-.65,2-.49,1.3-.76,1.94-.54,1.28-.84,1.91-.61,1.25-.94,1.86-.67,1.22-1,1.82-.73,1.18-1.11,1.76-.79,1.15-1.2,1.71-.85,1.1-1.29,1.64S74.46,70.53,74,71s-.95,1-1.44,1.51-1,1-1.51,1.44-1,.92-1.58,1.36-1.08.87-1.64,1.29-1.13.81-1.71,1.2S65,78.6,64.35,79s-1.2.7-1.82,1-1.23.64-1.86.94-1.26.58-1.91.84-1.29.52-1.94.76-1.32.45-2,.65-1.34.39-2,.56-1.36.32-2,.45-1.37.26-2,.36-1.38.19-2.07.26L44.59,85c-.7,0-1.39,0-2.09,0s-1.39,0-2.09,0l-2.08-.15c-.69-.07-1.38-.16-2.07-.26s-1.37-.22-2-.36-1.36-.28-2-.45-1.34-.36-2-.56-1.32-.42-2-.65-1.3-.49-1.94-.76-1.28-.54-1.91-.84-1.25-.61-1.86-.94-1.22-.67-1.82-1-1.18-.73-1.76-1.11-1.15-.79-1.71-1.2-1.1-.85-1.64-1.29S14.47,74.46,14,74s-1-.95-1.51-1.44-1-1-1.44-1.51-.92-1-1.36-1.58-.87-1.08-1.29-1.64-.81-1.13-1.2-1.71S6.4,65,6.05,64.35s-.7-1.2-1-1.82-.64-1.23-.94-1.86-.58-1.26-.84-1.91-.52-1.29-.76-1.94-.45-1.32-.65-2-.39-1.34-.56-2-.32-1.36-.45-2-.26-1.37-.36-2S.27,47.36.2,46.67.09,45.28.05,44.59,0,43.2,0,42.5s0-1.39.05-2.09S.14,39,.2,38.33.36,37,.46,36.26s.22-1.37.36-2,.28-1.36.45-2,.36-1.34.56-2,.42-1.32.65-2,.49-1.3.76-1.94.54-1.28.84-1.91.61-1.25.94-1.86.67-1.22,1-1.82.73-1.18,1.11-1.76.79-1.15,1.2-1.71.85-1.1,1.29-1.64S10.54,14.47,11,14s1-1,1.44-1.51,1-1,1.51-1.44,1-.92,1.58-1.36,1.08-.87,1.64-1.29,1.13-.81,1.71-1.2,1.16-.76,1.76-1.11,1.2-.7,1.82-1,1.23-.64,1.86-.94,1.26-.58,1.91-.84,1.29-.52,1.94-.76,1.32-.45,2-.65,1.34-.39,2-.56,1.36-.32,2-.45,1.37-.26,2-.36S37.64.27,38.33.2L40.41.05C41.11,0,41.8,0,42.5,0Z"/><path class="cls-2" d="M60.61,38.36V35.2a.71.71,0,0,0-.71-.71H58.09a.72.72,0,0,1-.69-.55,11.61,11.61,0,0,0-1.25-3,.72.72,0,0,1,.1-.87l1.16-1.16a.77.77,0,0,0,.13-1.14l-2.23-2.23a.73.73,0,0,0-1,0L53,26.84a.72.72,0,0,1-.88.1,11.11,11.11,0,0,0-3-1.24A.72.72,0,0,1,48.6,25V23.37c0-.57-.32-.89-.71-.89H44.74a.71.71,0,0,0-.71.71V25a.72.72,0,0,1-.55.69,11.11,11.11,0,0,0-3,1.24.71.71,0,0,1-.88-.1l-1.16-1.16a.78.78,0,0,0-1.13-.13l-2.23,2.23a.71.71,0,0,0,0,1l1.28,1.29a.7.7,0,0,1,.1.87,11.24,11.24,0,0,0-1.24,3,.72.72,0,0,1-.69.55H32.91c-.58,0-.9.32-.9.71v3.16a.71.71,0,0,0,.71.71h1.82a.72.72,0,0,1,.69.55,11.24,11.24,0,0,0,1.24,3,.71.71,0,0,1-.09.87l-1.16,1.16a.77.77,0,0,0-.13,1.14L37.32,48a.72.72,0,0,0,1,0l1.29-1.29a.72.72,0,0,1,.88-.1,11.11,11.11,0,0,0,3,1.24.72.72,0,0,1,.55.69v1.77c0,.51.25.76.57.76h3.29a.71.71,0,0,0,.71-.71V48.55a.72.72,0,0,1,.55-.69,11.11,11.11,0,0,0,3-1.24.71.71,0,0,1,.88.1l1.15,1.16a.79.79,0,0,0,1.14.13l2.23-2.23a.71.71,0,0,0,0-1l-1.29-1.29a.72.72,0,0,1-.1-.87,11.61,11.61,0,0,0,1.25-3,.7.7,0,0,1,.68-.55h1.64C60.3,39.07,60.61,38.75,60.61,38.36Z"/><path class="cls-3" d="M46.31,32a4.08,4.08,0,0,1,.93.1,4.67,4.67,0,0,1,.9.27,4.32,4.32,0,0,1,.82.44,4.52,4.52,0,0,1,.72.59,4.59,4.59,0,0,1,.6.72,5.06,5.06,0,0,1,.44.83,4.57,4.57,0,0,1,.27.89,4.85,4.85,0,0,1,0,1.86,4.37,4.37,0,0,1-.27.89,5.06,5.06,0,0,1-.44.83,4.59,4.59,0,0,1-.6.72,4.52,4.52,0,0,1-.72.59,4.32,4.32,0,0,1-.82.44,5.53,5.53,0,0,1-.9.28,4.73,4.73,0,0,1-.93.09,4.88,4.88,0,0,1-.93-.09,5.73,5.73,0,0,1-.89-.28,4.32,4.32,0,0,1-.82-.44,4.19,4.19,0,0,1-.73-.59,4.52,4.52,0,0,1-.59-.72,5.06,5.06,0,0,1-.44-.83,4.37,4.37,0,0,1-.27-.89,4.85,4.85,0,0,1,0-1.86,4.57,4.57,0,0,1,.27-.89,5.06,5.06,0,0,1,.44-.83,4.52,4.52,0,0,1,.59-.72,4.19,4.19,0,0,1,.73-.59,4.32,4.32,0,0,1,.82-.44,4.79,4.79,0,0,1,.89-.27A4.2,4.2,0,0,1,46.31,32Z"/><path class="cls-3" d="M60.61,68.24V50.76a20,20,0,1,0-34.32-14l-7,7.12a2,2,0,0,0,1.39,3.37h3.76V58.71a3.81,3.81,0,0,0,3.81,3.81h7.63v5.72"/></g></g></svg>