<svg width="265" height="356" viewBox="0 0 265 356" fill="none" xmlns="http://www.w3.org/2000/svg">
<g clip-path="url(#clip0_431:4336)">
<path d="M11.0171 222.206H25.3685L18.2354 202L11.0171 222.206ZM0.000732422 238.616L15.1638 196.693H21.2225L36.3848 238.616H30.9068L26.7892 227.136H9.65402L5.45052 238.616H0.000732422" fill="#100F0D"/>
<path d="M52.0132 239.197C50.4466 239.176 48.9734 238.95 47.591 238.514C46.2083 238.078 44.9856 237.439 43.9234 236.587C42.8596 235.737 42.0243 234.678 41.4138 233.412C40.8072 232.148 40.5015 230.671 40.5015 228.99V208.639H45.8653V228.44C45.8653 230.391 46.4702 231.977 47.6792 233.195C48.885 234.414 50.7069 235.022 53.1446 235.022C55.3468 235.022 57.1201 234.446 58.4638 233.298C59.8064 232.148 60.4771 230.43 60.4771 228.149V208.639H65.8117V238.616H61.5507L61.0008 232.876C60.6328 234.383 60.0092 235.601 59.1301 236.53C58.2504 237.457 57.1971 238.138 55.9687 238.574C54.7435 239.007 53.4217 239.215 52.0132 239.197" fill="#100F0D"/>
<path d="M84.2532 239.197C82.1643 239.197 80.228 238.873 78.4384 238.225C76.6514 237.578 75.1674 236.563 73.9894 235.18C72.8103 233.799 72.0659 232.035 71.7562 229.889H76.6277C76.8994 231.067 77.3852 232.05 78.0914 232.832C78.7969 233.615 79.6823 234.205 80.7445 234.601C81.8069 234.997 82.9664 235.195 84.2231 235.195C86.2341 235.195 87.8566 234.819 89.0948 234.065C90.3313 233.312 90.9493 232.152 90.9493 230.586C90.9493 229.484 90.6249 228.6 89.9787 227.934C89.3308 227.265 88.3301 226.777 86.9785 226.47L80.7729 224.932C78.3567 224.353 76.4243 223.444 74.9746 222.206C73.5263 220.969 72.8014 219.24 72.8014 217.017C72.7811 215.257 73.1962 213.712 74.0469 212.377C74.8975 211.045 76.1721 209.99 77.8749 209.218C79.5745 208.444 81.6925 208.059 84.2231 208.059C87.4707 208.059 90.0953 208.788 92.0933 210.246C94.0954 211.707 95.1333 213.849 95.2103 216.668H90.4862C90.2917 215.238 89.6494 214.104 88.5572 213.262C87.4665 212.421 86.0023 212.002 84.1664 212.002C82.2511 212.002 80.6959 212.384 79.499 213.147C78.299 213.911 77.7013 215.093 77.7013 216.699C77.7013 217.76 78.1246 218.596 78.9752 219.207C79.8259 219.815 81.0826 220.324 82.7457 220.728L88.7452 222.237C90.1391 222.603 91.2841 223.086 92.1834 223.686C93.0818 224.284 93.7946 224.951 94.3281 225.685C94.8599 226.421 95.2346 227.188 95.4584 227.989C95.679 228.793 95.7926 229.561 95.7926 230.294C95.7926 232.133 95.332 233.713 94.414 235.037C93.4961 236.359 92.1834 237.382 90.4708 238.109C88.7616 238.836 86.6881 239.197 84.2532 239.197" fill="#100F0D"/>
<path d="M117.276 212.554H110.518V231.195C110.518 232.26 110.632 233.035 110.853 233.528C111.076 234.02 111.453 234.335 111.983 234.47C112.516 234.607 113.245 234.674 114.172 234.674H117.448V238.269C117.082 238.406 116.525 238.52 115.783 238.616C115.038 238.713 114.115 238.763 113.013 238.763C110.945 238.763 109.342 238.483 108.199 237.92C107.06 237.361 106.262 236.529 105.81 235.427C105.354 234.327 105.127 232.971 105.127 231.367V212.554H100.256V208.639H105.272L106.576 199.912H110.518V208.607H117.276V212.554Z" fill="#100F0D"/>
<path d="M124.407 238.616V208.639H129.509V214.408C130.012 212.977 130.717 211.792 131.625 210.856C132.536 209.92 133.574 209.218 134.742 208.753C135.912 208.29 137.126 208.059 138.381 208.059C138.826 208.059 139.262 208.087 139.686 208.145C140.11 208.203 140.439 208.3 140.671 208.433V213.625C140.382 213.49 140.01 213.399 139.555 213.349C139.1 213.301 138.719 213.276 138.411 213.276C137.212 213.199 136.092 213.272 135.047 213.494C134.004 213.716 133.086 214.098 132.293 214.638C131.499 215.179 130.876 215.891 130.424 216.77C129.969 217.652 129.741 218.716 129.741 219.975V238.616H124.407Z" fill="#100F0D"/>
<path d="M155.457 235.34C156.463 235.34 157.463 235.158 158.457 234.788C159.454 234.422 160.366 233.924 161.198 233.298C162.029 232.668 162.693 231.963 163.185 231.18C163.678 230.398 163.934 229.592 163.953 228.76V223.628L159.486 223.713C157.207 223.753 155.298 223.985 153.762 224.409C152.226 224.836 151.075 225.503 150.311 226.41C149.546 227.319 149.167 228.508 149.167 229.976C149.167 231.659 149.75 232.971 150.92 233.92C152.09 234.869 153.603 235.34 155.457 235.34ZM153.834 239.197C151.901 239.197 150.19 238.852 148.703 238.168C147.214 237.48 146.05 236.49 145.208 235.195C144.369 233.902 143.947 232.337 143.947 230.499C143.947 227.174 145.107 224.699 147.426 223.076C149.745 221.452 153.468 220.583 158.587 220.466L163.953 220.324V217.974C163.953 216.136 163.401 214.683 162.301 213.611C161.198 212.537 159.486 212.002 157.167 212.002C155.447 212.022 153.936 212.425 152.631 213.22C151.328 214.011 150.481 215.306 150.095 217.104H145.368C145.485 215.15 146.034 213.504 147.022 212.161C148.007 210.819 149.383 209.797 151.152 209.1C152.922 208.404 155.014 208.059 157.428 208.059C160.039 208.059 162.208 208.425 163.938 209.16C165.668 209.894 166.962 210.978 167.823 212.406C168.682 213.838 169.114 215.595 169.114 217.684V238.616H164.532L164.157 232.99C162.997 235.33 161.522 236.949 159.735 237.847C157.945 238.748 155.979 239.197 153.834 239.197" fill="#100F0D"/>
<path d="M184.8 238.993C183.176 238.993 181.866 238.772 180.87 238.327C179.875 237.883 179.112 237.283 178.579 236.53C178.049 235.774 177.691 234.91 177.508 233.935C177.325 232.959 177.231 231.948 177.231 230.904V195.533H182.509V230.381C182.509 231.89 182.803 233.021 183.391 233.775C183.982 234.528 184.808 234.945 185.871 235.022L187.494 235.049V238.528C187.051 238.665 186.586 238.776 186.103 238.862C185.62 238.95 185.186 238.993 184.8 238.993" fill="#100F0D"/>
<path d="M199.412 208.639V238.616H194.223V208.639H199.412ZM199.529 196.721V202.287H194.049V196.721H199.529Z" fill="#100F0D"/>
<path d="M218.169 235.34C219.176 235.34 220.176 235.158 221.171 234.788C222.167 234.422 223.078 233.924 223.911 233.298C224.741 232.668 225.405 231.963 225.897 231.18C226.389 230.398 226.646 229.592 226.665 228.76V223.628L222.198 223.713C219.919 223.753 218.011 223.985 216.473 224.409C214.939 224.836 213.787 225.503 213.023 226.41C212.259 227.319 211.879 228.508 211.879 229.976C211.879 231.659 212.463 232.971 213.633 233.92C214.802 234.869 216.315 235.34 218.169 235.34V235.34ZM216.548 239.197C214.613 239.197 212.903 238.852 211.414 238.168C209.926 237.48 208.761 236.49 207.921 235.195C207.081 233.902 206.659 232.337 206.659 230.499C206.659 227.174 207.819 224.699 210.138 223.076C212.458 221.452 216.18 220.583 221.299 220.466L226.665 220.324V217.974C226.665 216.136 226.113 214.683 225.013 213.611C223.911 212.537 222.198 212.002 219.879 212.002C218.159 212.022 216.647 212.425 215.342 213.22C214.04 214.011 213.193 215.306 212.807 217.104H208.078C208.197 215.15 208.747 213.504 209.733 212.161C210.719 210.819 212.095 209.797 213.866 209.1C215.634 208.404 217.725 208.059 220.141 208.059C222.75 208.059 224.919 208.425 226.651 209.16C228.38 209.894 229.673 210.978 230.534 212.406C231.394 213.838 231.826 215.595 231.826 217.684V238.616H227.244L226.869 232.99C225.708 235.33 224.234 236.949 222.447 237.847C220.658 238.748 218.692 239.197 216.548 239.197" fill="#100F0D"/>
<path d="M239.709 238.616V208.639H244.901V212.988C245.383 212.155 246.053 211.373 246.915 210.638C247.774 209.905 248.818 209.315 250.045 208.869C251.274 208.425 252.689 208.203 254.292 208.203C256.187 208.203 257.931 208.578 259.525 209.334C261.121 210.087 262.396 211.261 263.353 212.857C264.31 214.451 264.787 216.506 264.787 219.018V238.616H259.423V219.539C259.423 217.202 258.809 215.466 257.584 214.335C256.355 213.206 254.765 212.641 252.814 212.641C251.461 212.641 250.196 212.857 249.015 213.291C247.838 213.726 246.879 214.383 246.147 215.263C245.41 216.143 245.044 217.247 245.044 218.582V238.616H239.709" fill="#100F0D"/>
<path d="M28.093 250.604H33.4577V292.526H28.6736L6.17541 259.475V292.526H0.812378V250.604H5.94269L28.093 283.191V250.604Z" fill="#100F0D"/>
<path d="M52.5655 289.251C53.5679 289.251 54.5718 289.066 55.565 288.696C56.5591 288.331 57.4729 287.833 58.3041 287.206C59.1344 286.577 59.7976 285.873 60.2914 285.089C60.7828 284.306 61.0391 283.499 61.0609 282.668V277.537L56.5949 277.622C54.3146 277.664 52.4067 277.894 50.8685 278.32C49.331 278.743 48.1829 279.411 47.4184 280.32C46.6545 281.23 46.2742 282.419 46.2742 283.887C46.2742 285.566 46.8571 286.882 48.0272 287.829C49.194 288.777 50.7095 289.251 52.5655 289.251ZM50.9397 293.106C49.0092 293.106 47.2951 292.761 45.8104 292.078C44.3192 291.391 43.1555 290.401 42.3131 289.103C41.4739 287.807 41.0546 286.245 41.0546 284.408C41.0546 281.082 42.2141 278.61 44.534 276.987C46.8531 275.362 50.5725 274.492 55.6931 274.377L61.0609 274.23V271.885C61.0609 270.047 60.5088 268.593 59.4084 267.519C58.3041 266.445 56.5949 265.91 54.2758 265.91C52.5526 265.929 51.0413 266.336 49.7372 267.129C48.4343 267.92 47.5853 269.215 47.2018 271.015H42.4744C42.5896 269.061 43.1426 267.413 44.127 266.07C45.1121 264.725 46.4898 263.706 48.2576 263.011C50.0293 262.315 52.1196 261.966 54.5361 261.966C57.147 261.966 59.316 262.336 61.0431 263.068C62.7751 263.804 64.0692 264.885 64.9313 266.317C65.7875 267.745 66.2214 269.506 66.2214 271.594V292.526H61.6399L61.2637 286.903C60.1025 289.242 58.6269 290.857 56.8413 291.758C55.0525 292.655 53.0861 293.106 50.9397 293.106" fill="#100F0D"/>
<path d="M88.0521 266.46H81.2943V285.105C81.2943 286.165 81.4079 286.942 81.6283 287.439C81.8515 287.93 82.2285 288.244 82.7588 288.381C83.2923 288.514 84.0205 288.582 84.948 288.582H88.224V292.177C87.8566 292.313 87.3005 292.429 86.5584 292.526C85.814 292.624 84.8905 292.672 83.7886 292.672C81.7209 292.672 80.1178 292.389 78.9753 291.831C77.8361 291.268 77.0381 290.438 76.5848 289.336C76.13 288.236 75.9029 286.882 75.9029 285.279V266.46H71.032V262.548H76.0488L77.3511 253.821H81.2943V262.518H88.0521V266.46" fill="#100F0D"/>
<path d="M100.981 262.548V292.526H95.7925V262.548H100.981ZM101.097 250.63V256.198H95.6173V250.63H101.097Z" fill="#100F0D"/>
<path d="M121.741 288.873C123.536 288.873 125.054 288.418 126.291 287.509C127.527 286.6 128.467 285.296 129.103 283.594C129.741 281.896 130.061 279.874 130.061 277.537C130.061 275.39 129.781 273.462 129.22 271.753C128.658 270.043 127.765 268.686 126.538 267.679C125.31 266.674 123.711 266.172 121.741 266.172C119.923 266.172 118.385 266.621 117.13 267.519C115.874 268.42 114.922 269.72 114.274 271.419C113.628 273.12 113.301 275.16 113.301 277.537C113.301 279.644 113.592 281.557 114.172 283.276C114.751 284.997 115.662 286.361 116.898 287.366C118.136 288.37 119.749 288.873 121.741 288.873V288.873ZM121.741 293.106C118.975 293.106 116.559 292.51 114.491 291.322C112.423 290.135 110.819 288.391 109.679 286.089C108.538 283.789 107.968 280.976 107.968 277.653C107.968 274.521 108.5 271.779 109.563 269.418C110.625 267.06 112.187 265.229 114.245 263.926C116.304 262.62 118.801 261.966 121.741 261.966C124.503 261.966 126.905 262.57 128.944 263.778C130.982 264.987 132.563 266.762 133.684 269.101C134.805 271.438 135.366 274.29 135.366 277.653C135.366 280.707 134.848 283.392 133.815 285.713C132.781 288.032 131.255 289.844 129.233 291.15C127.214 292.454 124.716 293.106 121.741 293.106" fill="#100F0D"/>
<path d="M141.831 292.526V262.548H147.022V266.896C147.503 266.066 148.175 265.283 149.037 264.546C149.896 263.813 150.941 263.224 152.167 262.779C153.395 262.336 154.811 262.114 156.414 262.114C158.31 262.114 160.052 262.489 161.647 263.242C163.241 263.998 164.519 265.171 165.475 266.767C166.432 268.36 166.909 270.414 166.909 272.928V292.526H161.546V273.447C161.546 271.11 160.932 269.377 159.705 268.245C158.478 267.114 156.887 266.547 154.937 266.547C153.583 266.547 152.317 266.767 151.137 267.201C149.96 267.635 149.001 268.293 148.268 269.171C147.533 270.051 147.165 271.158 147.165 272.493V292.526H141.831" fill="#100F0D"/>
<path d="M184.539 289.251C185.543 289.251 186.544 289.066 187.538 288.696C188.535 288.331 189.447 287.833 190.28 287.206C191.11 286.577 191.773 285.873 192.266 285.089C192.759 284.306 193.015 283.499 193.034 282.668V277.537L188.568 277.622C186.289 277.664 184.38 277.894 182.842 278.32C181.307 278.743 180.156 279.411 179.392 280.32C178.628 281.23 178.248 282.419 178.248 283.887C178.248 285.566 178.83 286.882 180.001 287.829C181.17 288.777 182.684 289.251 184.539 289.251V289.251ZM182.915 293.106C180.982 293.106 179.271 292.761 177.783 292.078C176.295 291.391 175.131 290.401 174.289 289.103C173.449 287.807 173.028 286.245 173.028 284.408C173.028 281.082 174.187 278.61 176.506 276.987C178.826 275.362 182.548 274.492 187.669 274.377L193.034 274.23V271.885C193.034 270.047 192.483 268.593 191.382 267.519C190.28 266.445 188.568 265.91 186.248 265.91C184.527 265.929 183.017 266.336 181.711 267.129C180.408 267.92 179.562 269.215 179.175 271.015H174.448C174.565 269.061 175.115 267.413 176.103 266.07C177.089 264.725 178.464 263.706 180.233 263.011C182.003 262.315 184.095 261.966 186.509 261.966C189.12 261.966 191.289 262.336 193.019 263.068C194.749 263.804 196.043 264.885 196.904 266.317C197.763 267.745 198.194 269.506 198.194 271.594V292.526H193.612L193.238 286.903C192.078 289.242 190.602 290.857 188.815 291.758C187.026 292.655 185.06 293.106 182.915 293.106" fill="#100F0D"/>
<path d="M213.88 292.904C212.257 292.904 210.947 292.68 209.951 292.235C208.957 291.791 208.193 291.191 207.659 290.438C207.129 289.686 206.772 288.819 206.589 287.843C206.405 286.868 206.313 285.857 206.313 284.814V249.443H211.589V284.292C211.589 285.8 211.883 286.932 212.473 287.683C213.062 288.437 213.889 288.854 214.951 288.929L216.575 288.96V292.439C216.13 292.574 215.668 292.684 215.184 292.773C214.702 292.858 214.266 292.904 213.88 292.904Z" fill="#100F0D"/>
<path d="M31.4564 331.935C31.4564 335.165 30.9246 337.899 29.8614 340.141C28.7992 342.382 27.141 344.089 24.8908 345.258C22.6384 346.429 19.7144 347.014 16.119 347.014C12.4855 347.014 9.54211 346.414 7.29196 345.216C5.04021 344.016 3.39578 342.258 2.36193 339.939C1.32809 337.621 0.812378 334.769 0.812378 331.387V304.508H6.37894V332.199C6.37894 335.58 7.21898 338.112 8.90071 339.793C10.5824 341.476 12.9883 342.314 16.119 342.314C18.2264 342.314 20.0192 341.949 21.4975 341.214C22.9765 340.479 24.1076 339.363 24.8908 337.868C25.6726 336.369 26.0643 334.478 26.0643 332.199V304.508H31.4564V331.935Z" fill="#100F0D"/>
<path d="M39.282 346.433V316.453H44.474V320.803C44.9572 319.973 45.6294 319.19 46.4898 318.455C47.3477 317.723 48.3945 317.131 49.618 316.689C50.8465 316.242 52.2638 316.02 53.8686 316.02C55.7636 316.02 57.5044 316.396 59.0986 317.152C60.6945 317.903 61.9699 319.077 62.9291 320.672C63.8844 322.266 64.3612 324.321 64.3612 326.832V346.433H58.9973V327.356C58.9973 325.016 58.3835 323.283 57.1598 322.152C55.9314 321.02 54.3413 320.456 52.388 320.456C51.037 320.456 49.7689 320.672 48.5891 321.105C47.4133 321.542 46.4557 322.202 45.722 323.08C44.9857 323.958 44.6168 325.066 44.6168 326.399V346.433H39.282Z" fill="#100F0D"/>
<path d="M77.7872 316.453V346.433H72.5977V316.453H77.7872ZM77.9041 304.539V310.106H72.4236V304.539H77.9041Z" fill="#100F0D"/>
<path d="M110.056 316.453L99.2428 346.433H94.3711L83.5283 316.453H88.5725L96.5459 339.705H97.0381L105.041 316.453H110.056Z" fill="#100F0D"/>
<path d="M117.999 329.064H134.292C134.292 327.346 134.002 325.795 133.421 324.411C132.842 323.031 131.959 321.938 130.769 321.135C129.579 320.334 128.087 319.935 126.291 319.935C124.416 319.935 122.865 320.383 121.636 321.28C120.408 322.181 119.492 323.329 118.882 324.732C118.273 326.131 117.979 327.578 117.999 329.064V329.064ZM117.97 332.693C117.97 334.584 118.283 336.301 118.911 337.834C119.539 339.373 120.497 340.598 121.782 341.505C123.066 342.412 124.676 342.868 126.609 342.868C128.522 342.868 130.17 342.422 131.552 341.534C132.933 340.643 133.819 339.356 134.206 337.677H139.28C138.911 339.705 138.1 341.418 136.843 342.808C135.586 344.199 134.069 345.247 132.293 345.954C130.513 346.661 128.657 347.014 126.724 347.014C123.923 347.014 121.458 346.404 119.333 345.187C117.205 343.967 115.542 342.219 114.345 339.939C113.146 337.658 112.547 334.923 112.547 331.736C112.547 328.582 113.088 325.82 114.171 323.441C115.253 321.062 116.823 319.206 118.882 317.876C120.941 316.541 123.419 315.875 126.319 315.875C129.14 315.875 131.528 316.485 133.481 317.702C135.432 318.918 136.916 320.634 137.93 322.847C138.947 325.063 139.453 327.684 139.453 330.717V332.693H117.97" fill="#100F0D"/>
<path d="M146.209 346.433V316.453H151.312V322.224C151.816 320.794 152.52 319.609 153.427 318.673C154.338 317.732 155.376 317.035 156.546 316.57C157.716 316.105 158.928 315.875 160.183 315.875C160.629 315.875 161.064 315.904 161.488 315.96C161.912 316.02 162.242 316.118 162.474 316.253V321.442C162.183 321.305 161.813 321.214 161.357 321.166C160.902 321.118 160.52 321.096 160.213 321.096C159.014 321.016 157.894 321.091 156.85 321.311C155.808 321.535 154.888 321.916 154.095 322.455C153.302 322.999 152.679 323.707 152.226 324.587C151.771 325.465 151.543 326.536 151.543 327.792V346.433H146.209" fill="#100F0D"/>
<path d="M178.534 347.014C176.448 347.014 174.51 346.69 172.72 346.043C170.934 345.395 169.449 344.378 168.272 342.997C167.092 341.615 166.348 339.853 166.038 337.706H170.91C171.181 338.885 171.666 339.867 172.374 340.651C173.078 341.43 173.964 342.022 175.027 342.416C176.09 342.815 177.249 343.012 178.506 343.012C180.516 343.012 182.14 342.636 183.377 341.881C184.614 341.127 185.232 339.967 185.232 338.401C185.232 337.302 184.908 336.415 184.26 335.749C183.613 335.082 182.612 334.597 181.26 334.285L175.056 332.749C172.639 332.168 170.705 331.258 169.257 330.022C167.808 328.786 167.083 327.057 167.083 324.834C167.064 323.076 167.478 321.527 168.329 320.195C169.18 318.859 170.454 317.808 172.157 317.035C173.856 316.261 175.974 315.875 178.506 315.875C181.753 315.875 184.377 316.604 186.377 318.065C188.377 319.524 189.416 321.664 189.493 324.484H184.768C184.574 323.055 183.931 321.92 182.84 321.079C181.749 320.238 180.284 319.817 178.448 319.817C176.534 319.817 174.978 320.199 173.781 320.963C172.582 321.724 171.983 322.91 171.983 324.514C171.983 325.579 172.408 326.413 173.258 327.021C174.109 327.63 175.366 328.139 177.029 328.543L183.028 330.05C184.421 330.42 185.565 330.902 186.464 331.501C187.364 332.102 188.077 332.77 188.609 333.5C189.142 334.237 189.517 335.008 189.741 335.806C189.962 336.61 190.074 337.378 190.074 338.112C190.074 339.948 189.615 341.528 188.696 342.852C187.78 344.176 186.464 345.199 184.753 345.926C183.043 346.648 180.971 347.014 178.534 347.014" fill="#100F0D"/>
<path d="M202.773 316.453V346.433H197.585V316.453H202.773ZM202.891 304.539V310.106H197.41V304.539H202.891Z" fill="#100F0D"/>
<path d="M226.663 320.367H219.906V339.009C219.906 340.072 220.018 340.851 220.238 341.345C220.463 341.839 220.84 342.152 221.37 342.288C221.903 342.422 222.632 342.489 223.56 342.489H226.835V346.084C226.468 346.221 225.912 346.335 225.17 346.433C224.425 346.53 223.502 346.578 222.399 346.578C220.332 346.578 218.729 346.298 217.588 345.737C216.446 345.175 215.649 344.346 215.196 343.244C214.742 342.14 214.513 340.788 214.513 339.184V320.367H209.644V316.454H214.659L215.962 307.727H219.906V316.425H226.663V320.367Z" fill="#100F0D"/>
<path d="M236.955 356C235.197 356 233.658 355.749 232.344 355.247V351.767L235.388 351.823C236.511 351.865 237.438 351.788 238.171 351.593C238.908 351.4 239.496 351.141 239.942 350.81C240.384 350.482 240.727 350.115 240.971 349.709C241.21 349.301 241.409 348.916 241.565 348.548L242.607 345.708L230.896 316.453H236.315L245.158 339.591L253.943 316.453H259.191L246.551 348.695C245.777 350.588 244.913 352.068 243.956 353.13C243.002 354.192 241.937 354.937 240.768 355.363C239.597 355.786 238.327 356 236.955 356Z" fill="#100F0D"/>
<path d="M185.433 137.341C181.951 133.364 174.735 129.096 164.866 129.096C152.128 129.096 121.647 151.075 96.8077 151.075C71.9678 151.075 41.4925 129.096 28.7523 129.096C18.8825 129.096 11.6699 133.364 8.1864 137.341C8.12558 129.798 6.75686 126.622 3.36178 120.749C7.63258 116.743 15.8093 109.542 26.8833 109.542C45.2686 109.542 81.4258 132.26 96.8077 132.26C112.188 132.26 148.35 109.542 166.734 109.542C177.811 109.542 185.984 116.743 190.255 120.749C186.861 126.622 185.494 129.798 185.433 137.341V137.341ZM174.85 147.662C166.202 147.689 163.774 141.462 163.774 139.095C163.774 136.43 164.667 133.188 165.249 131.299C179.709 131.691 185.577 140.117 185.577 142.143C185.564 144.754 180.124 147.646 174.85 147.662V147.662ZM161.883 141.111C159.427 139.305 156.096 137.08 152.08 134.913C156.438 133.034 160.135 131.855 162.921 131.452C161.929 134.825 161.129 138.572 161.883 141.111ZM31.7379 141.111C32.4888 138.572 31.69 134.825 30.6975 131.452C33.482 131.855 37.1811 133.034 41.5386 134.913C37.5234 137.08 34.189 139.305 31.7379 141.111ZM18.7698 147.662C13.4935 147.646 8.05505 144.754 8.04207 142.143C8.04207 140.117 13.9111 131.691 28.367 131.299C28.9526 133.188 29.8452 136.43 29.8452 139.095C29.8452 141.462 27.4151 147.689 18.7698 147.662V147.662ZM13.92 87.7276C13.92 85.2885 15.4331 83.8811 17.598 83.85C20.1004 83.8147 24.2065 86.3036 27.1458 89.6788L22.7867 92.3213C21.7496 94.6192 23.8742 100.699 28.4912 100.699C30.9813 100.699 32.2268 98.968 35.9194 96.9296L41.4373 110.042C36.1903 108.407 31.2449 107.354 26.8833 107.354C25.0181 107.354 23.4241 107.491 21.9167 107.753C21.2713 106.428 20.6234 105.119 19.9893 103.842C15.8961 95.6094 13.92 91.0281 13.92 87.7276V87.7276ZM29.4552 98.366C27.7013 99.0863 24.4118 96.6701 24.7327 93.6996L28.5082 91.4121C30.6392 94.1542 30.9813 97.7433 29.4552 98.366ZM27.4402 75.5758C29.3198 74.5255 31.4079 74.4632 33.645 75.3931C38.0365 77.2198 41.9961 82.536 42.7916 85.3902C43.8586 89.2221 42.3982 90.3223 42.3829 90.3306L32.5326 96.4584C33.2273 91.4682 24.0209 81.4067 17.4067 81.6807C19.7071 79.8561 27.4402 75.5758 27.4402 75.5758V75.5758ZM157.703 96.9296C161.392 98.968 162.637 100.699 165.128 100.699C169.745 100.699 171.867 94.6192 170.83 92.3213L166.471 89.6788C169.412 86.3036 173.518 83.8147 176.021 83.85C178.184 83.8811 179.698 85.2885 179.698 87.7276C179.698 91.0281 177.72 95.6094 173.631 103.842C172.998 105.119 172.349 106.428 171.701 107.753C170.197 107.491 168.6 107.354 166.734 107.354C162.375 107.354 157.429 108.407 152.181 110.042L157.703 96.9296ZM168.887 93.6996C169.207 96.6701 165.919 99.0863 164.164 98.366C162.637 97.7433 162.977 94.1542 165.111 91.4121L168.887 93.6996ZM151.234 90.3306C151.219 90.3223 149.76 89.2221 150.829 85.3902C151.624 82.536 155.585 77.2198 159.977 75.3931C162.209 74.4632 164.297 74.5255 166.181 75.5758C166.181 75.5758 173.913 79.8561 176.214 81.6807C169.598 81.4067 160.391 91.4682 161.086 96.4584L151.234 90.3306ZM192.414 119.784C187.624 114.991 181.533 110.35 173.904 108.241C174.468 107.084 181.869 93.7391 181.869 87.7317C181.869 85.7057 181.005 83.1504 178.457 80.7155C176.337 78.6874 167.248 73.6661 167.248 73.6661C164.786 72.2898 161.98 72.1902 159.133 73.3755C153.87 75.5634 149.635 81.523 148.719 84.8048C147.198 90.2621 149.772 92.0037 150.059 92.176L155.818 95.7568L149.429 110.941C139.622 114.011 107.684 130.072 96.8077 130.072C85.9317 130.072 53.9951 114.011 44.1894 110.941L37.8007 95.7568L43.5611 92.176C43.8488 92.0037 46.4234 90.2621 44.8989 84.8048C43.9835 81.523 39.7491 75.5634 34.4851 73.3755C31.6373 72.1902 28.8318 72.2898 26.3707 73.6661C26.3707 73.6661 17.2802 78.6874 15.1614 80.7155C12.6121 83.1504 11.751 85.7057 11.751 87.7317C11.751 93.7391 19.1509 107.084 19.7168 108.241C12.0875 110.35 5.99465 114.991 1.20652 119.784C0.848926 120.139 0.781627 120.695 1.04434 121.127C1.07597 121.177 4.24319 126.447 5.2446 130.08C6.33846 134.037 5.86329 142.234 5.86329 142.242C5.96627 145.983 11.9253 149.863 18.9708 149.863C28.8073 149.863 29.3198 143.27 44.0807 136.05C47.162 137.536 77.1517 153.265 96.8077 153.265C116.462 153.265 146.457 137.536 149.54 136.05C164.297 143.27 164.812 149.863 174.649 149.863C181.695 149.863 187.653 145.983 187.756 142.242C187.758 142.234 187.279 134.037 188.372 130.08C189.377 126.447 192.542 121.177 192.576 121.127C192.84 120.695 192.772 120.139 192.414 119.784" fill="#100F0D"/>
<path d="M11.4784 128.015C11.7671 127.851 11.9284 127.751 11.9649 127.712C11.986 127.687 12.0014 127.658 12.0063 127.62C12.0112 127.587 12.0014 127.525 11.9706 127.436C11.9309 127.313 11.8158 127.031 11.6211 126.589C11.5092 126.337 11.3576 126.016 11.1622 125.623L10.4567 124.191L9.80158 122.906C9.69049 122.694 9.61426 122.555 9.56723 122.495C9.52426 122.437 9.4821 122.398 9.44399 122.379C9.40425 122.358 9.35155 122.354 9.28668 122.364C9.22424 122.373 9.05396 122.431 8.77908 122.541L8.59338 122.169C8.92422 122.032 9.16587 121.924 9.31587 121.852L9.85753 121.567L10.1981 121.378C11.1103 121.918 12.1944 122.528 13.4456 123.207C14.3473 123.695 15.0795 124.062 15.6365 124.314L15.1313 123.284C14.3432 121.69 13.8664 120.76 13.6961 120.492C13.6321 120.388 13.5729 120.328 13.5226 120.311C13.4391 120.289 13.2267 120.355 12.8901 120.515L12.7044 120.143C13.0231 120.01 13.3085 119.882 13.568 119.755C13.8161 119.633 14.1324 119.462 14.5151 119.246L14.7 119.622C14.3975 119.782 14.2281 119.9 14.1908 119.973C14.1786 119.998 14.1754 120.025 14.1826 120.058C14.2167 120.228 14.361 120.579 14.6124 121.113C14.8605 121.646 15.0486 122.041 15.1727 122.294C16.1449 124.266 16.7514 125.453 16.9931 125.86L16.9623 125.924C16.7304 125.987 16.496 126.057 16.2609 126.128C14.9173 125.455 12.9704 124.417 10.417 123.014L11.5092 125.227C11.7355 125.69 11.9795 126.161 12.2447 126.653C12.4247 126.993 12.5415 127.193 12.5998 127.259C12.6274 127.288 12.6582 127.309 12.6931 127.319C12.728 127.33 12.7774 127.326 12.8423 127.303C13.0191 127.247 13.1431 127.199 13.2193 127.162C13.2347 127.155 13.2591 127.141 13.2931 127.12L13.4707 127.479C12.9882 127.705 12.7134 127.838 12.6469 127.871C12.4012 127.99 12.0744 128.164 11.6649 128.395L11.4784 128.015" fill="#100F0D"/>
<path d="M18.306 122.684C18.5638 122.618 18.8533 122.541 19.176 122.449C19.4882 122.362 19.7655 122.277 20.0071 122.198L18.4373 119.981L18.306 122.684ZM17.2535 125.775L17.1407 125.376C17.354 125.297 17.4797 125.241 17.5178 125.214C17.5567 125.19 17.5859 125.158 17.6054 125.119C17.6273 125.08 17.6435 125.023 17.6573 124.949C17.6702 124.874 17.6921 124.608 17.7278 124.143C17.7424 123.925 17.7667 123.496 17.8008 122.858L17.984 119.483L18.0311 118.298L18.6068 118.134L21.8389 122.601L22.2766 123.182L22.5637 123.575C22.6059 123.624 22.6449 123.658 22.6756 123.676C22.7074 123.697 22.7398 123.707 22.7763 123.712C22.8103 123.716 22.8921 123.703 23.0235 123.676C23.064 123.67 23.1256 123.662 23.2085 123.647L23.3212 124.046L22.1843 124.332L20.7711 124.77L20.6574 124.376C20.9809 124.266 21.1586 124.191 21.1935 124.154C21.2267 124.112 21.2356 124.062 21.2178 124C21.1943 123.919 21.126 123.801 21.0127 123.637L20.3664 122.69L18.276 123.288L18.2597 123.907C18.2508 124.382 18.2614 124.675 18.2914 124.783C18.3125 124.857 18.3505 124.907 18.4016 124.926C18.4787 124.949 18.6814 124.926 19.0057 124.847L19.1184 125.241L18.1746 125.476L17.2535 125.775" fill="#100F0D"/>
<path d="M23.5301 123.915L23.4807 123.508C23.8164 123.458 24.0119 123.408 24.0719 123.361C24.1294 123.313 24.1626 123.242 24.1749 123.149C24.1886 123.006 24.1537 122.578 24.0719 121.866L23.7265 118.914C23.6316 118.113 23.5739 117.663 23.5561 117.567L22.957 117.64C22.6546 117.675 22.3893 117.717 22.1632 117.766C22.0731 117.785 22.0221 117.806 22.009 117.825C21.9928 117.845 21.9839 117.906 21.9816 118.003C21.971 118.236 21.9816 118.495 22.0082 118.784L21.6605 118.823C21.5704 118.15 21.5193 117.773 21.5062 117.688C21.4803 117.542 21.4471 117.391 21.4099 117.225L21.4406 117.171C21.5745 117.171 21.7138 117.169 21.8622 117.156C22.103 117.14 22.567 117.088 23.2497 117.009L24.9411 116.812C25.6433 116.729 26.1145 116.668 26.348 116.631C26.4778 116.608 26.6059 116.581 26.7339 116.552L26.7833 116.594C26.7794 116.797 26.785 116.978 26.7981 117.129C26.7981 117.152 26.8338 117.513 26.9075 118.209L26.5587 118.25C26.5247 117.995 26.4778 117.752 26.4192 117.521C26.3885 117.407 26.3609 117.335 26.34 117.316C26.3221 117.301 26.275 117.297 26.2036 117.297C25.97 117.297 25.6927 117.32 25.3724 117.353L24.7742 117.424C24.7781 117.54 24.8269 117.991 24.9201 118.777L25.2655 121.727C25.349 122.437 25.4148 122.86 25.4608 123.002C25.4909 123.087 25.5404 123.145 25.6101 123.18C25.6782 123.213 25.881 123.215 26.2175 123.188L26.2644 123.595C25.7203 123.628 25.2639 123.666 24.8925 123.711C24.4952 123.755 24.0435 123.826 23.5301 123.915" fill="#100F0D"/>
<path d="M27.343 116.957L27.3762 116.548L28.7392 116.699L29.3061 116.735L29.8769 116.764L30.0318 116.772L29.9969 117.183C29.6945 117.16 29.5006 117.173 29.4122 117.231C29.3684 117.254 29.336 117.312 29.3142 117.395C29.2573 117.594 29.2006 118.043 29.1398 118.738L29.0441 119.886L28.9995 120.465C28.9468 121.065 28.9217 121.441 28.9208 121.582C28.9208 121.895 28.9663 122.151 29.0547 122.35C29.1479 122.547 29.2972 122.713 29.5056 122.85C29.7163 122.985 29.9911 123.068 30.3293 123.097C30.7185 123.128 31.0365 123.076 31.2804 122.941C31.5245 122.804 31.7061 122.613 31.8253 122.373C31.9447 122.128 32.0354 121.656 32.0922 120.957L32.1782 119.946C32.2519 119.076 32.2973 118.545 32.3079 118.354C32.3361 117.939 32.337 117.688 32.3152 117.598C32.2998 117.544 32.2697 117.501 32.2268 117.472C32.14 117.409 31.9413 117.358 31.6324 117.32L31.664 116.911C32.1715 116.98 32.47 117.015 32.5666 117.021C32.5908 117.023 32.6305 117.027 32.6801 117.027L33.615 117.075L33.5802 117.488C33.3199 117.463 33.1544 117.476 33.0839 117.519C33.0481 117.544 33.0149 117.59 32.9882 117.663C32.9614 117.737 32.912 118.067 32.8422 118.659C32.7733 119.249 32.7214 119.718 32.693 120.06L32.5965 121.223C32.5713 121.517 32.5253 121.823 32.4636 122.136C32.4011 122.449 32.3029 122.713 32.1757 122.931C32.0435 123.143 31.8708 123.334 31.6542 123.498C31.4361 123.66 31.1847 123.778 30.9018 123.846C30.6147 123.915 30.2921 123.932 29.9272 123.902C29.5006 123.867 29.1089 123.765 28.7514 123.599C28.4911 123.477 28.2819 123.327 28.1229 123.145C27.968 122.966 27.8539 122.769 27.7816 122.553C27.7086 122.339 27.6714 122.138 27.6689 121.945C27.6641 121.827 27.6851 121.505 27.7289 120.984L27.8132 120.033L27.9195 118.779C27.9599 118.319 27.9859 117.901 28.0046 117.532C28.0062 117.387 27.9981 117.279 27.9803 117.212C27.968 117.175 27.9373 117.129 27.8863 117.075L27.343 116.957" fill="#100F0D"/>
<path d="M34.134 117.598L34.2353 117.204C34.2984 117.218 34.5135 117.281 34.8823 117.393C35.064 117.447 35.3201 117.517 35.656 117.603C35.9398 117.675 36.1862 117.733 36.3962 117.773C36.7369 117.841 37.019 117.903 37.2403 117.962C37.6693 118.072 37.9782 118.19 38.1721 118.317C38.3649 118.445 38.5069 118.64 38.5993 118.906C38.691 119.172 38.6933 119.471 38.6082 119.797C38.5094 120.185 38.3147 120.511 38.0293 120.776C37.7447 121.04 37.366 121.212 36.8926 121.287C36.9241 121.449 36.9623 121.613 37.0109 121.785C37.0594 121.96 37.0879 122.061 37.0943 122.099C37.1024 122.132 37.1097 122.167 37.1186 122.198L37.4649 123.473C37.5574 123.811 37.606 123.994 37.6166 124.023C37.7382 124.392 37.8136 124.61 37.846 124.681C37.8786 124.75 37.9126 124.799 37.9506 124.833C37.988 124.868 38.0714 124.903 38.1989 124.936L38.0884 125.364C37.6749 125.239 37.3716 125.156 37.1836 125.109C36.9654 125.05 36.7464 125.003 36.5299 124.959C36.5332 124.887 36.526 124.785 36.5017 124.66L36.0653 122.74C35.9398 122.188 35.827 121.75 35.7233 121.428C35.673 121.264 35.6161 121.138 35.5528 121.044L35.639 120.899C35.9616 120.996 36.2185 121.019 36.4085 120.972C36.5965 120.922 36.7798 120.797 36.954 120.588C37.1292 120.382 37.2558 120.133 37.3295 119.84C37.4049 119.545 37.4082 119.286 37.3418 119.058C37.2704 118.831 37.1585 118.657 36.9995 118.535C36.8973 118.458 36.7003 118.381 36.4085 118.304C36.2763 118.271 36.1432 118.25 36.0095 118.244C35.9697 118.358 35.896 118.613 35.7841 119.016C35.5344 119.919 35.3689 120.521 35.2902 120.826C35.1678 121.308 35.0397 121.818 34.9083 122.358C34.7493 123.022 34.6611 123.398 34.6416 123.489C34.6067 123.672 34.5905 123.795 34.5986 123.851C34.6025 123.882 34.6148 123.911 34.6335 123.938C34.6513 123.963 34.6901 123.992 34.7389 124.017C34.7883 124.044 34.9457 124.094 35.2043 124.17L35.0964 124.59C34.6366 124.449 34.1681 124.318 33.6921 124.193C33.2672 124.085 32.8713 123.992 32.5024 123.921L32.6118 123.5C32.924 123.566 33.1131 123.597 33.1779 123.589C33.2136 123.587 33.2404 123.575 33.2599 123.558C33.2809 123.541 33.3052 123.498 33.3296 123.433C33.3815 123.313 33.443 123.128 33.5152 122.877L33.9109 121.482L34.3707 119.697L34.6115 118.678C34.7105 118.277 34.7559 118.032 34.7493 117.943C34.7462 117.904 34.7314 117.872 34.7105 117.845C34.6553 117.791 34.463 117.706 34.134 117.598" fill="#100F0D"/>
<path d="M40.9395 123.581C41.1842 123.682 41.4624 123.793 41.7771 123.911C42.082 124.025 42.3544 124.12 42.5968 124.201L42.6495 121.482L40.9395 123.581ZM38.2588 125.445L38.4031 125.061C38.6229 125.119 38.7566 125.15 38.802 125.154C38.8489 125.154 38.8905 125.144 38.9318 125.127C38.9706 125.109 39.0194 125.073 39.0704 125.021C39.1254 124.967 39.3048 124.766 39.6081 124.413C39.7467 124.247 40.0207 123.915 40.427 123.423L42.5756 120.814L43.3177 119.888L43.8788 120.1L43.8334 125.609L43.8398 126.337L43.8375 126.825C43.8423 126.892 43.8545 126.939 43.8666 126.975C43.8819 127.01 43.9031 127.033 43.9282 127.06C43.9525 127.085 44.0264 127.122 44.1481 127.176C44.1844 127.199 44.2396 127.228 44.3127 127.267L44.169 127.651L43.0834 127.209L41.6847 126.726L41.8273 126.337C42.1532 126.443 42.3415 126.489 42.3901 126.479C42.442 126.466 42.4785 126.431 42.5028 126.369C42.5304 126.292 42.5482 126.153 42.5522 125.956L42.5935 124.81L40.5575 124.048L40.1756 124.538C39.8868 124.916 39.7208 125.158 39.6818 125.262C39.6541 125.337 39.6541 125.399 39.6859 125.445C39.7336 125.511 39.9113 125.609 40.2194 125.738L40.0751 126.126L39.1759 125.752L38.2588 125.445" fill="#100F0D"/>
<path d="M44.2592 127.695L44.4319 127.309C44.7326 127.415 44.9126 127.469 44.9807 127.469C45.0156 127.471 45.0496 127.463 45.083 127.44C45.1219 127.411 45.1623 127.359 45.2039 127.288C45.2979 127.122 45.4826 126.753 45.7577 126.18C45.8889 125.906 46.1087 125.424 46.4159 124.737C46.691 124.127 46.9301 123.581 47.1329 123.105C47.3396 122.628 47.4474 122.339 47.4627 122.238C47.471 122.192 47.4694 122.153 47.4588 122.119C47.4457 122.086 47.4133 122.051 47.3575 122.013C47.2026 121.903 47.0565 121.816 46.9253 121.746L47.0972 121.362C47.6153 121.619 47.9761 121.793 48.1756 121.885C48.4398 122.001 48.7107 122.111 48.9856 122.209L48.9241 123.257L48.8884 124.054L48.7821 127.575C49.31 127.099 49.7121 126.724 49.9911 126.454L51.0605 125.426C51.6581 124.855 52.0214 124.502 52.1578 124.367C52.2931 124.233 52.4569 124.062 52.6466 123.849C52.9734 124.023 53.1851 124.129 53.2791 124.17L54.4426 124.654L54.2708 125.038L54.2166 125.015C53.9571 124.895 53.773 124.855 53.6692 124.899C53.5679 124.94 53.4672 125.067 53.3732 125.279C53.2621 125.53 53.1745 125.719 53.1137 125.848L52.5283 127.11L51.8172 128.702C51.642 129.088 51.5431 129.316 51.5164 129.383C51.3646 129.775 51.2779 130.018 51.2527 130.113C51.243 130.157 51.2415 130.198 51.2496 130.234C51.2594 130.267 51.2804 130.3 51.3127 130.331C51.3468 130.362 51.501 130.456 51.7767 130.601L51.6063 130.989L50.3917 130.404L49.173 129.897L49.3457 129.515C49.6691 129.642 49.8588 129.702 49.9188 129.692C49.9797 129.679 50.0421 129.623 50.1127 129.52C50.18 129.416 50.3599 129.046 50.6439 128.411L52.1229 125.115L50.279 126.836L49.3773 127.701C49.1398 127.927 48.8 128.26 48.3572 128.696C48.088 128.959 47.8756 129.173 47.7141 129.337L47.4538 129.219C47.475 128.924 47.4976 128.517 47.5196 128C47.5609 127.11 47.5869 126.447 47.5991 126.005L47.6778 123.12L46.6795 125.345C46.5133 125.715 46.3219 126.157 46.1006 126.674C45.8808 127.191 45.76 127.483 45.7398 127.556C45.7195 127.629 45.7139 127.687 45.7228 127.724C45.7301 127.768 45.7577 127.807 45.8021 127.855C45.8484 127.901 45.9976 127.99 46.2482 128.125L46.0763 128.509C45.7982 128.361 45.5094 128.218 45.2078 128.081C44.8155 127.907 44.4991 127.778 44.2592 127.695" fill="#100F0D"/>
<path d="M56.6652 126.192L56.8412 125.818L57.9561 126.385L59.6776 127.149C60.0124 127.307 60.2557 127.471 60.4099 127.641C60.5656 127.815 60.6619 128.04 60.6993 128.318C60.7383 128.594 60.6775 128.905 60.5168 129.241C60.3587 129.58 60.143 129.864 59.8731 130.088C59.6014 130.317 59.2811 130.456 58.9097 130.508C58.5376 130.56 58.1905 130.512 57.8677 130.36C57.7867 130.319 57.7081 130.277 57.6375 130.232C57.5646 130.184 57.4949 130.13 57.4266 130.076C57.443 129.978 57.4453 129.852 57.4422 129.692L57.5686 129.63C57.6132 129.679 57.6595 129.717 57.7047 129.752C57.7485 129.785 57.7907 129.812 57.8328 129.831C58.0769 129.949 58.3316 129.943 58.587 129.812C58.8448 129.686 59.0646 129.424 59.2504 129.03C59.4432 128.621 59.5065 128.274 59.436 127.988C59.3662 127.703 59.1798 127.489 58.8796 127.348C58.7379 127.28 58.5699 127.224 58.3786 127.182C58.2764 127.361 58.1378 127.629 57.9692 127.986L57.5401 128.86L56.7374 130.56C56.5396 130.979 56.3409 131.417 56.1423 131.869C56.0254 132.133 55.9623 132.303 55.9509 132.382C55.947 132.417 55.9509 132.451 55.9646 132.486C55.9768 132.519 56.0134 132.556 56.0701 132.6L56.5639 132.882L56.3775 133.277C55.7361 132.949 55.2511 132.708 54.9252 132.55C54.5643 132.38 54.2132 132.226 53.8784 132.094L54.0623 131.699C54.3471 131.828 54.5369 131.886 54.6309 131.876C54.6616 131.869 54.6909 131.857 54.7177 131.834C54.7548 131.799 54.8198 131.699 54.9147 131.525C55.1692 131.06 55.4336 130.535 55.7118 129.949L56.4593 128.365L56.8381 127.514C57.0058 127.149 57.1063 126.923 57.1405 126.829C57.1769 126.736 57.1964 126.665 57.1972 126.618C57.1997 126.589 57.1924 126.562 57.1746 126.53C57.159 126.501 57.1241 126.464 57.0675 126.42L56.6652 126.192" fill="#100F0D"/>
<path d="M61.2896 128.38L61.459 128.008C61.519 128.038 61.7177 128.137 62.0616 128.309C62.2285 128.397 62.471 128.511 62.7857 128.656C63.0541 128.781 63.2859 128.878 63.4838 128.953C63.8082 129.084 64.0733 129.194 64.28 129.289C64.6815 129.474 64.9669 129.644 65.1355 129.804C65.3017 129.964 65.4072 130.184 65.451 130.462C65.494 130.738 65.4429 131.033 65.3017 131.338C65.1355 131.703 64.8849 131.99 64.5598 132.199C64.229 132.409 63.8261 132.511 63.3467 132.503C63.3501 132.664 63.359 132.835 63.3775 133.013C63.3922 133.192 63.4034 133.3 63.4034 133.333C63.4034 133.37 63.4042 133.408 63.4084 133.439L63.5236 134.755C63.5535 135.108 63.5689 135.295 63.573 135.319C63.6288 135.708 63.6637 135.936 63.6824 136.013C63.7019 136.083 63.727 136.141 63.7586 136.181C63.7912 136.22 63.8632 136.268 63.984 136.328L63.8024 136.725C63.4148 136.532 63.1294 136.395 62.9542 136.312C62.7516 136.218 62.544 136.131 62.3373 136.05C62.356 135.98 62.3641 135.88 62.3641 135.753L62.2765 133.785C62.2513 133.221 62.2156 132.768 62.1718 132.432C62.1532 132.262 62.1183 132.129 62.0705 132.027L62.1824 131.894C62.484 132.048 62.7329 132.114 62.9252 132.106C63.1205 132.092 63.325 131.996 63.5325 131.826C63.7416 131.654 63.9078 131.431 64.0359 131.153C64.1617 130.877 64.2136 130.622 64.186 130.385C64.1567 130.151 64.0766 129.96 63.9427 129.81C63.8568 129.717 63.6776 129.607 63.3995 129.48C63.277 129.424 63.1506 129.378 63.0208 129.347C62.9623 129.451 62.8432 129.696 62.6607 130.068C62.2536 130.912 61.9861 131.477 61.8547 131.764C61.6471 132.214 61.43 132.696 61.2053 133.202C60.9303 133.827 60.7763 134.182 60.7431 134.271C60.6725 134.441 60.6368 134.556 60.6337 134.618C60.6337 134.647 60.6393 134.676 60.6546 134.707C60.6677 134.736 60.6959 134.769 60.7431 134.805C60.7885 134.84 60.9311 134.917 61.1744 135.035L60.9928 135.434C60.5656 135.211 60.1301 134.996 59.6817 134.794C59.2844 134.609 58.9097 134.45 58.5593 134.315L58.7426 133.92C59.0395 134.039 59.2194 134.103 59.2836 134.105C59.3168 134.111 59.3475 134.105 59.3695 134.091C59.393 134.078 59.4245 134.041 59.4594 133.981C59.5325 133.87 59.6257 133.698 59.7456 133.466L60.379 132.164L61.1485 130.489L61.567 129.528C61.7338 129.152 61.8248 128.918 61.832 128.828C61.8354 128.791 61.8287 128.756 61.8111 128.729C61.7656 128.662 61.5921 128.546 61.2896 128.38" fill="#100F0D"/>
<path d="M69.3665 131.568L69.1938 131.969C68.9279 131.863 68.7673 131.807 68.7131 131.799C68.6554 131.791 68.6157 131.793 68.5856 131.803C68.5557 131.813 68.5306 131.834 68.5103 131.861C68.4706 131.905 68.4121 131.996 68.3415 132.139C68.301 132.214 68.2354 132.361 68.1381 132.579C67.8016 133.323 67.6208 133.721 67.5965 133.777L66.7969 135.61L66.4473 136.447C66.3112 136.76 66.2342 136.968 66.2205 137.076C66.2132 137.121 66.2163 137.161 66.2302 137.194C66.2447 137.227 66.2771 137.264 66.3234 137.302C66.368 137.337 66.5179 137.414 66.7718 137.532L66.5974 137.931C66.1856 137.727 65.742 137.522 65.2643 137.312C64.85 137.132 64.477 136.982 64.1405 136.862L64.3157 136.461C64.5889 136.565 64.7487 136.625 64.7942 136.631C64.8533 136.644 64.898 136.642 64.9262 136.629C64.9555 136.617 64.9773 136.598 64.9937 136.573C65.0163 136.54 65.09 136.401 65.2116 136.16C65.3893 135.803 65.5475 135.471 65.6828 135.162L66.5098 133.262C66.7726 132.658 66.9397 132.27 67.0109 132.094C67.1627 131.703 67.2542 131.454 67.2785 131.351C67.2874 131.309 67.2874 131.272 67.2793 131.243C67.2721 131.216 67.2503 131.182 67.2112 131.151C67.1732 131.116 67.0126 131.035 66.7394 130.9L66.9129 130.499C67.2283 130.661 67.5965 130.836 68.0164 131.016C68.4885 131.224 68.9377 131.407 69.3665 131.568" fill="#100F0D"/>
<path d="M67.1934 138.246L67.3468 137.85C67.6515 137.941 67.8373 137.985 67.902 137.981C67.9377 137.981 67.971 137.968 68.0011 137.945C68.0384 137.914 68.0781 137.862 68.1154 137.788C68.2022 137.619 68.3668 137.24 68.6099 136.654C68.7292 136.37 68.9246 135.88 69.1971 135.178C69.4371 134.553 69.6478 133.995 69.8288 133.511C70.0071 133.026 70.1003 132.733 70.1101 132.629C70.1157 132.581 70.1134 132.542 70.0987 132.509C70.0883 132.478 70.0509 132.444 69.994 132.407C69.8327 132.305 69.6843 132.224 69.5465 132.164L69.6997 131.772C70.2317 132.004 70.6006 132.158 70.8051 132.237C71.0726 132.343 71.35 132.436 71.6312 132.521L71.6223 133.572L71.6287 134.371L71.7018 137.889C72.2054 137.387 72.5888 136.99 72.8533 136.706L73.8708 135.627C74.4344 135.025 74.7806 134.651 74.9095 134.512C75.0385 134.371 75.1916 134.19 75.3702 133.968C75.705 134.124 75.924 134.221 76.0189 134.259L77.2068 134.682L77.0543 135.072L76.9999 135.052C76.7323 134.946 76.5476 134.915 76.4461 134.965C76.3456 135.012 76.254 135.145 76.1704 135.359C76.0699 135.614 75.9954 135.807 75.9418 135.938L75.4212 137.233L74.7921 138.859C74.6395 139.253 74.5513 139.484 74.5284 139.554C74.397 139.955 74.3217 140.2 74.303 140.293C74.2949 140.343 74.2966 140.384 74.3063 140.418C74.3177 140.451 74.3412 140.484 74.3736 140.513C74.4076 140.542 74.5675 140.623 74.8512 140.76L74.6995 141.152L73.4548 140.634L72.2166 140.187L72.3675 139.797C72.6984 139.909 72.8906 139.959 72.9506 139.944C73.0081 139.928 73.0681 139.872 73.1331 139.764C73.1962 139.658 73.3552 139.28 73.6074 138.626L74.9104 135.259L73.159 137.076L72.3034 137.985C72.0796 138.224 71.7578 138.572 71.3385 139.031C71.0832 139.305 70.8804 139.531 70.7295 139.706L70.4611 139.6C70.4686 139.305 70.4692 138.896 70.4661 138.379C70.4605 137.489 70.4507 136.824 70.4418 136.386L70.3712 133.499L69.489 135.772C69.3431 136.15 69.1712 136.602 68.9781 137.132C68.7867 137.655 68.6805 137.954 68.6651 138.028C68.6464 138.103 68.6448 138.159 68.6553 138.199C68.6651 138.24 68.6952 138.277 68.7438 138.323C68.7901 138.367 68.9441 138.45 69.2036 138.57L69.0504 138.965C68.7633 138.828 68.4681 138.701 68.1615 138.581C67.7619 138.427 67.4375 138.313 67.1934 138.246Z" fill="#100F0D"/>
<path d="M77.399 135.164L77.5175 134.769L78.8221 135.195L79.3693 135.346L79.9209 135.494L80.0699 135.531L79.9532 135.928C79.6614 135.838 79.4692 135.816 79.3735 135.851C79.3249 135.867 79.2803 135.917 79.2429 135.99C79.1455 136.179 78.9973 136.606 78.7978 137.273L78.4686 138.375L78.3063 138.935C78.1336 139.515 78.0314 139.874 78.0024 140.013C77.9358 140.32 77.9268 140.577 77.9756 140.789C78.0258 141.003 78.1394 141.196 78.3144 141.372C78.4921 141.551 78.7443 141.686 79.0702 141.783C79.4449 141.896 79.766 141.908 80.0344 141.823C80.3003 141.74 80.516 141.592 80.6839 141.377C80.8492 141.167 81.0333 140.723 81.2344 140.048L81.523 139.077C81.7737 138.242 81.9269 137.732 81.9796 137.547C82.0874 137.144 82.1418 136.897 82.1376 136.806C82.1345 136.75 82.1125 136.702 82.0793 136.665C82.0056 136.584 81.8215 136.496 81.5246 136.397L81.6423 135.998C82.1247 136.168 82.4093 136.266 82.5003 136.293C82.5262 136.301 82.5609 136.312 82.6121 136.322L83.517 136.561L83.4001 136.957C83.1489 136.88 82.9843 136.86 82.9071 136.889C82.8641 136.901 82.8245 136.941 82.7857 137.009C82.7419 137.071 82.625 137.387 82.4353 137.952C82.2472 138.516 82.1027 138.965 82.0056 139.295L81.673 140.409C81.5879 140.696 81.48 140.986 81.3561 141.281C81.2303 141.574 81.0804 141.81 80.91 141.995C80.7389 142.18 80.5305 142.329 80.2849 142.446C80.0408 142.562 79.7699 142.626 79.4764 142.632C79.1837 142.643 78.8618 142.597 78.5099 142.493C78.1004 142.369 77.7388 142.188 77.4218 141.954C77.1914 141.779 77.0178 141.588 76.9028 141.379C76.786 141.173 76.7139 140.955 76.6886 140.731C76.6604 140.509 76.6635 140.301 76.7009 140.11C76.722 139.994 76.8071 139.683 76.9562 139.185L77.2335 138.271L77.5928 137.063C77.7265 136.621 77.8401 136.22 77.9302 135.859C77.9634 135.718 77.9787 135.614 77.9731 135.544C77.969 135.502 77.9497 135.452 77.909 135.388L77.399 135.164" fill="#100F0D"/>
<path d="M82.3451 143.471L82.4206 143.058C82.7376 143.089 82.9282 143.1 82.9923 143.083C83.0264 143.077 83.0554 143.058 83.0839 143.031C83.1146 142.994 83.143 142.934 83.1665 142.853C83.2209 142.67 83.3126 142.269 83.4407 141.649C83.5046 141.348 83.6061 140.827 83.7423 140.09C83.8656 139.432 83.9694 138.844 84.0562 138.334C84.1421 137.823 84.1793 137.516 84.1703 137.414C84.1681 137.366 84.1583 137.327 84.1371 137.3C84.1176 137.271 84.0788 137.242 84.0147 137.221C83.8372 137.148 83.6782 137.096 83.5322 137.063L83.6084 136.648C84.1737 136.777 84.5637 136.862 84.781 136.901C85.0648 136.955 85.3536 136.997 85.6446 137.028L85.8302 138.062L85.9844 138.844L86.7101 142.29C87.1099 141.703 87.4146 141.242 87.6222 140.916L88.421 139.664C88.8629 138.967 89.133 138.537 89.2343 138.375C89.3356 138.213 89.4524 138.006 89.5869 137.756C89.9471 137.848 90.1773 137.904 90.2786 137.923L91.5241 138.116L91.4496 138.531L91.3887 138.518C91.1064 138.464 90.92 138.471 90.8299 138.535C90.7409 138.601 90.6728 138.749 90.6313 138.975C90.581 139.245 90.5414 139.45 90.5146 139.589L90.2429 140.957L89.9234 142.67C89.8489 143.085 89.8043 143.33 89.7937 143.401C89.7387 143.818 89.7111 144.075 89.7111 144.173C89.7111 144.22 89.72 144.26 89.7354 144.291C89.7549 144.324 89.7808 144.349 89.8213 144.372C89.8603 144.397 90.0322 144.447 90.3355 144.526L90.2591 144.941L88.9407 144.661L87.6384 144.455L87.7156 144.04C88.0585 144.092 88.2611 144.104 88.3163 144.079C88.3707 144.05 88.421 143.982 88.4631 143.866C88.5044 143.749 88.5895 143.349 88.7178 142.664L89.3754 139.112L87.9896 141.219L87.3166 142.271C87.1414 142.549 86.8901 142.95 86.5642 143.477C86.3638 143.797 86.2073 144.057 86.0896 144.252L85.8067 144.202C85.7581 143.909 85.6851 143.511 85.5838 143C85.4144 142.126 85.283 141.474 85.1912 141.045L84.5872 138.224L84.1421 140.617C84.069 141.02 83.9864 141.495 83.893 142.049C83.8006 142.599 83.7521 142.915 83.7504 142.992C83.7471 143.064 83.7544 143.122 83.773 143.158C83.7901 143.193 83.8249 143.23 83.8818 143.264C83.9368 143.297 84.1023 143.353 84.3788 143.421L84.3001 143.836C83.9962 143.756 83.6823 143.687 83.3579 143.627C82.9338 143.55 82.5973 143.498 82.3451 143.471" fill="#100F0D"/>
<path d="M99.2704 144.368L99.0684 144.864C98.7132 145.078 98.3971 145.223 98.1156 145.298C97.8352 145.375 97.4839 145.412 97.0655 145.404C96.4703 145.393 95.9441 145.277 95.4901 145.047C95.1325 144.862 94.8317 144.621 94.5859 144.324C94.3387 144.025 94.1529 143.704 94.0232 143.359C93.8262 142.836 93.7321 142.269 93.7419 141.663C93.7581 140.619 94.0742 139.774 94.6905 139.122C95.306 138.475 96.1656 138.157 97.2691 138.174C97.6477 138.178 97.9908 138.217 98.2916 138.288C98.5916 138.36 98.9403 138.483 99.3368 138.657L99.3578 138.722C99.3084 138.875 99.2727 139.07 99.2419 139.305C99.1956 139.679 99.1624 140.023 99.1471 140.341L98.8178 140.335C98.8178 139.973 98.8089 139.681 98.7902 139.465C98.6038 139.228 98.3971 139.052 98.1636 138.935C97.93 138.817 97.6299 138.755 97.2643 138.749C96.6042 138.74 96.073 138.975 95.6684 139.463C95.2647 139.946 95.058 140.629 95.0432 141.509C95.0351 142.041 95.0943 142.508 95.2226 142.904C95.3498 143.303 95.5209 143.635 95.7399 143.899C95.958 144.16 96.176 144.353 96.4014 144.476C96.7047 144.64 97.0744 144.725 97.5115 144.733C97.7995 144.735 98.0701 144.702 98.3265 144.629C98.5827 144.559 98.8633 144.43 99.1672 144.252L99.2704 144.368" fill="#100F0D"/>
<path d="M101.048 141.416C101.136 142.184 101.297 142.809 101.531 143.286C101.769 143.77 102.039 144.098 102.341 144.272C102.644 144.449 102.985 144.513 103.364 144.472C103.716 144.428 104.021 144.297 104.277 144.069C104.531 143.836 104.711 143.477 104.815 142.992C104.919 142.502 104.934 141.923 104.858 141.252C104.803 140.791 104.714 140.376 104.585 140.002C104.457 139.631 104.298 139.32 104.107 139.072C103.917 138.821 103.707 138.639 103.473 138.522C103.242 138.406 102.947 138.367 102.587 138.406C102.182 138.454 101.846 138.608 101.587 138.867C101.327 139.12 101.156 139.479 101.076 139.934C100.996 140.391 100.987 140.883 101.048 141.416ZM99.7916 141.858C99.721 141.256 99.7397 140.723 99.8443 140.258C99.9473 139.795 100.127 139.388 100.378 139.046C100.63 138.701 100.917 138.441 101.238 138.263C101.652 138.039 102.114 137.898 102.626 137.837C103.134 137.781 103.605 137.815 104.037 137.933C104.36 138.024 104.651 138.182 104.915 138.394C105.177 138.608 105.386 138.836 105.538 139.075C105.69 139.313 105.813 139.581 105.912 139.876C106.009 140.173 106.079 140.501 106.119 140.866C106.192 141.482 106.165 142.066 106.043 142.618C105.953 143.027 105.799 143.398 105.576 143.735C105.352 144.069 105.084 144.337 104.773 144.54C104.347 144.812 103.84 144.982 103.261 145.047C102.633 145.117 102.077 145.047 101.596 144.829C101.115 144.613 100.715 144.26 100.398 143.766C100.082 143.272 99.8792 142.637 99.7916 141.858" fill="#100F0D"/>
<path d="M111.949 138.147L111.62 138.228C111.595 138.126 111.553 137.972 111.492 137.775C111.449 137.634 111.406 137.518 111.362 137.422C111.273 137.343 111.178 137.283 111.085 137.24C110.871 137.144 110.639 137.082 110.39 137.059C110.137 137.036 109.866 137.059 109.573 137.132C108.892 137.3 108.406 137.68 108.118 138.277C107.83 138.879 107.791 139.612 108.006 140.482C108.236 141.433 108.64 142.136 109.209 142.589C109.779 143.046 110.376 143.195 111.003 143.041C111.186 142.996 111.361 142.929 111.522 142.844C111.684 142.759 111.837 142.649 111.983 142.52C111.969 142.433 111.935 142.263 111.878 142.014C111.825 141.765 111.791 141.617 111.778 141.563C111.701 141.256 111.648 141.078 111.61 141.024C111.586 140.988 111.543 140.97 111.48 140.97C111.378 140.959 111.11 140.995 110.681 141.067L110.584 140.677L111.813 140.397L113.042 140.075L113.118 140.395C112.971 140.472 112.881 140.55 112.846 140.629C112.83 140.667 112.837 140.76 112.866 140.905C112.944 141.279 113.002 141.543 113.04 141.707C113.1 141.95 113.174 142.197 113.262 142.448C112.808 142.79 112.403 143.052 112.048 143.237C111.69 143.419 111.324 143.556 110.947 143.648C110.334 143.799 109.761 143.81 109.226 143.683C108.855 143.589 108.519 143.436 108.216 143.22C107.912 143.004 107.664 142.753 107.46 142.471C107.15 142.028 106.922 141.51 106.773 140.912C106.65 140.407 106.605 139.951 106.641 139.546C106.674 139.139 106.771 138.767 106.93 138.429C107.088 138.093 107.288 137.802 107.532 137.555C107.78 137.31 108.05 137.113 108.346 136.961C108.642 136.806 108.982 136.683 109.358 136.592C109.822 136.478 110.266 136.424 110.69 136.424C111.114 136.426 111.453 136.457 111.706 136.521L111.762 136.606C111.766 136.903 111.827 137.418 111.949 138.147" fill="#100F0D"/>
<path d="M114.494 142.103C114.799 141.972 114.972 141.891 115.011 141.86C115.035 141.837 115.054 141.806 115.064 141.773C115.072 141.736 115.068 141.673 115.051 141.58C115.024 141.458 114.937 141.165 114.797 140.702C114.714 140.44 114.598 140.102 114.447 139.689L113.909 138.19L113.4 136.841C113.313 136.613 113.254 136.467 113.215 136.407C113.178 136.343 113.14 136.297 113.104 136.274C113.067 136.249 113.016 136.241 112.95 136.243C112.887 136.245 112.713 136.285 112.426 136.366L112.285 135.969C112.628 135.872 112.877 135.793 113.036 135.737L113.605 135.512L113.966 135.367C114.812 136.007 115.821 136.731 116.988 137.547C117.829 138.132 118.515 138.581 119.043 138.892L118.654 137.815C118.051 136.141 117.678 135.162 117.543 134.879C117.491 134.767 117.438 134.701 117.39 134.68C117.31 134.645 117.091 134.688 116.737 134.809L116.595 134.416C116.924 134.321 117.228 134.228 117.497 134.13C117.757 134.035 118.092 133.904 118.494 133.734L118.638 134.124C118.318 134.25 118.136 134.346 118.092 134.416C118.077 134.437 118.07 134.468 118.075 134.504C118.09 134.67 118.193 135.035 118.383 135.593C118.569 136.154 118.712 136.567 118.806 136.831C119.552 138.9 120.021 140.15 120.217 140.58L120.181 140.64C119.942 140.677 119.701 140.719 119.457 140.764C118.2 139.948 116.379 138.701 114.001 137.015L114.839 139.336C115.011 139.82 115.201 140.32 115.408 140.835C115.549 141.194 115.644 141.406 115.694 141.476C115.717 141.509 115.748 141.536 115.78 141.547C115.814 141.561 115.863 141.561 115.931 141.551C116.11 141.514 116.242 141.478 116.322 141.447C116.337 141.445 116.361 141.433 116.397 141.416L116.534 141.796C116.028 141.966 115.741 142.066 115.672 142.089C115.415 142.184 115.07 142.321 114.637 142.5L114.494 142.103" fill="#100F0D"/>
<path d="M120.854 136.216C121.165 136.922 121.509 137.47 121.879 137.858C122.248 138.246 122.6 138.479 122.943 138.553C123.285 138.632 123.63 138.593 123.98 138.437C124.303 138.294 124.553 138.074 124.729 137.781C124.903 137.484 124.967 137.088 124.922 136.594C124.875 136.098 124.715 135.537 124.441 134.921C124.254 134.497 124.041 134.126 123.808 133.81C123.576 133.495 123.329 133.244 123.073 133.065C122.818 132.882 122.561 132.77 122.304 132.729C122.048 132.685 121.755 132.737 121.425 132.884C121.051 133.051 120.777 133.295 120.605 133.619C120.432 133.941 120.379 134.333 120.439 134.794C120.497 135.251 120.638 135.726 120.854 136.216V136.216ZM119.786 137.011C119.543 136.459 119.398 135.946 119.359 135.471C119.319 134.996 119.367 134.555 119.506 134.153C119.642 133.748 119.839 133.412 120.095 133.148C120.42 132.81 120.82 132.54 121.29 132.33C121.757 132.123 122.216 132.013 122.664 131.998C123.001 131.992 123.325 132.05 123.642 132.177C123.958 132.303 124.224 132.457 124.439 132.639C124.655 132.822 124.854 133.04 125.035 133.293C125.216 133.545 125.383 133.841 125.528 134.174C125.782 134.744 125.93 135.309 125.981 135.867C126.017 136.285 125.981 136.689 125.868 137.073C125.755 137.46 125.581 137.796 125.343 138.082C125.018 138.47 124.587 138.778 124.052 139.021C123.474 139.276 122.921 139.371 122.398 139.309C121.874 139.247 121.385 139.029 120.937 138.651C120.488 138.273 120.104 137.729 119.786 137.011" fill="#100F0D"/>
<path d="M128.839 130.886L128.52 131.039C128.346 130.699 128.215 130.464 128.125 130.329C127.984 130.238 127.791 130.19 127.547 130.184C127.305 130.176 127.064 130.232 126.827 130.346C126.484 130.514 126.267 130.746 126.179 131.043C126.092 131.338 126.115 131.622 126.249 131.899C126.351 132.094 126.455 132.239 126.566 132.334C126.68 132.432 126.803 132.49 126.935 132.513C127.068 132.538 127.246 132.532 127.466 132.496C127.63 132.461 127.856 132.405 128.144 132.33C128.433 132.256 128.618 132.21 128.707 132.191C128.941 132.154 129.143 132.15 129.312 132.175C129.483 132.2 129.631 132.251 129.764 132.33C129.89 132.407 130.025 132.521 130.156 132.673C130.291 132.822 130.41 133.005 130.517 133.225C130.703 133.601 130.8 133.97 130.806 134.323C130.813 134.591 130.77 134.857 130.678 135.126C130.587 135.392 130.469 135.616 130.325 135.799C130.09 136.09 129.764 136.339 129.339 136.546C129.029 136.7 128.735 136.804 128.459 136.851C128.184 136.901 127.86 136.914 127.489 136.891C127.4 136.515 127.188 135.98 126.85 135.286L127.166 135.131C127.268 135.346 127.414 135.606 127.603 135.909C127.789 136.048 128.033 136.129 128.334 136.154C128.636 136.181 128.923 136.127 129.197 135.99C129.437 135.874 129.627 135.72 129.765 135.527C129.906 135.336 129.972 135.131 129.972 134.913C129.97 134.699 129.915 134.477 129.806 134.255C129.714 134.068 129.605 133.922 129.483 133.817C129.357 133.711 129.21 133.651 129.046 133.632C128.88 133.613 128.616 133.638 128.255 133.709C127.744 133.821 127.404 133.885 127.234 133.906C126.979 133.937 126.75 133.91 126.548 133.829C126.343 133.748 126.158 133.619 125.989 133.445C125.824 133.273 125.682 133.069 125.566 132.829C125.402 132.496 125.311 132.16 125.292 131.822C125.271 131.483 125.321 131.189 125.442 130.94C125.559 130.688 125.723 130.472 125.937 130.282C126.15 130.097 126.383 129.943 126.64 129.812C126.907 129.684 127.182 129.584 127.461 129.518C127.738 129.449 127.996 129.426 128.234 129.441L128.316 129.534C128.376 129.744 128.442 129.945 128.517 130.134C128.589 130.329 128.697 130.578 128.839 130.886" fill="#100F0D"/>
<path d="M136.659 131.668L136.71 132.202C136.497 132.554 136.283 132.833 136.07 133.032C135.856 133.229 135.563 133.426 135.19 133.613C134.659 133.883 134.139 134.022 133.631 134.034C133.228 134.034 132.85 133.96 132.492 133.814C132.135 133.663 131.822 133.468 131.547 133.221C131.127 132.851 130.779 132.393 130.503 131.853C130.034 130.921 129.918 130.026 130.161 129.165C130.402 128.299 131.016 127.62 131.999 127.12C132.339 126.948 132.657 126.825 132.958 126.746C133.256 126.667 133.624 126.616 134.055 126.582L134.104 126.632C134.135 126.79 134.189 126.981 134.274 127.203C134.406 127.554 134.536 127.876 134.672 128.164L134.379 128.314C134.207 127.99 134.063 127.737 133.945 127.552C133.673 127.433 133.406 127.373 133.146 127.375C132.885 127.384 132.59 127.467 132.264 127.633C131.677 127.932 131.316 128.388 131.186 129.007C131.054 129.623 131.186 130.323 131.585 131.108C131.827 131.585 132.094 131.969 132.395 132.262C132.692 132.554 132.999 132.768 133.314 132.899C133.631 133.032 133.915 133.098 134.17 133.1C134.516 133.102 134.882 133.007 135.269 132.81C135.526 132.681 135.752 132.523 135.945 132.341C136.138 132.158 136.325 131.915 136.512 131.614L136.659 131.668Z" fill="#100F0D"/>
<path d="M137.484 132.247L137.364 132.009C137.475 131.853 137.554 131.706 137.606 131.569C137.559 131.436 137.472 131.228 137.346 130.946C137.111 130.425 136.939 130.049 136.824 129.819L135.833 127.82C135.791 127.741 135.645 127.454 135.388 126.958C135.216 126.628 135.097 126.431 135.031 126.371C135.003 126.348 134.976 126.335 134.943 126.335C134.859 126.329 134.663 126.396 134.359 126.522L134.189 126.18L135.062 125.738C135.237 125.648 135.4 125.569 135.559 125.491C135.905 125.316 136.287 125.123 136.704 124.903L137.462 124.502C137.552 124.455 137.739 124.372 138.02 124.245C138.047 124.233 138.093 124.222 138.16 124.212L138.213 124.253L138.461 124.93C138.48 124.976 138.573 125.196 138.741 125.588L138.444 125.736C138.269 125.387 138.149 125.179 138.091 125.109C138.06 125.071 138.032 125.048 138.002 125.042C137.956 125.03 137.845 125.057 137.667 125.119C137.4 125.212 137.149 125.316 136.909 125.435C136.686 125.545 136.464 125.669 136.239 125.804C136.372 126.161 136.567 126.597 136.824 127.116L137.28 128.038C137.459 127.965 137.641 127.884 137.828 127.791C137.884 127.766 138.091 127.656 138.443 127.465C138.578 127.396 138.653 127.344 138.668 127.313C138.684 127.284 138.685 127.247 138.676 127.193C138.651 127.066 138.573 126.869 138.446 126.603L138.754 126.452L139.221 127.44L139.721 128.403L139.415 128.557C139.248 128.212 139.125 128.006 139.044 127.946C138.983 127.903 138.91 127.892 138.822 127.917C138.632 127.971 138.399 128.067 138.123 128.204C137.877 128.326 137.678 128.436 137.529 128.538L138.454 130.402C138.558 130.61 138.651 130.786 138.732 130.931C138.946 130.85 139.191 130.74 139.47 130.601C139.743 130.47 139.988 130.335 140.207 130.198C140.427 130.064 140.554 129.964 140.588 129.9C140.601 129.879 140.602 129.844 140.597 129.794C140.573 129.63 140.485 129.337 140.339 128.916L140.65 128.762C140.884 129.376 141.097 129.871 141.283 130.252L141.263 130.336C141.113 130.437 140.889 130.558 140.593 130.707L139.977 130.994C139.373 131.28 138.956 131.479 138.728 131.593C138.669 131.62 138.254 131.838 137.484 132.247" fill="#100F0D"/>
<path d="M139.219 124.085L139.05 123.718C139.109 123.689 139.318 123.604 139.675 123.46C139.848 123.388 140.094 123.28 140.408 123.137C140.676 123.016 140.905 122.904 141.09 122.804C141.4 122.642 141.659 122.514 141.867 122.422C142.267 122.238 142.584 122.134 142.813 122.111C143.046 122.09 143.278 122.153 143.517 122.304C143.755 122.451 143.945 122.682 144.083 122.989C144.25 123.354 144.304 123.732 144.248 124.116C144.19 124.502 144.003 124.872 143.684 125.227C143.808 125.335 143.945 125.439 144.089 125.544C144.237 125.646 144.322 125.708 144.351 125.731C144.379 125.756 144.404 125.777 144.433 125.798L145.502 126.572C145.787 126.775 145.942 126.888 145.965 126.902C146.291 127.114 146.489 127.234 146.556 127.272C146.625 127.303 146.684 127.321 146.734 127.326C146.785 127.328 146.869 127.303 146.994 127.253L147.174 127.649C146.772 127.815 146.484 127.938 146.308 128.019C146.104 128.112 145.901 128.212 145.707 128.314C145.665 128.253 145.595 128.183 145.498 128.1L143.954 126.879C143.509 126.528 143.147 126.259 142.863 126.07C142.719 125.974 142.597 125.91 142.489 125.879L142.463 125.713C142.777 125.586 142.989 125.443 143.108 125.285C143.226 125.129 143.288 124.915 143.293 124.644C143.3 124.374 143.241 124.1 143.115 123.826C142.989 123.552 142.828 123.344 142.634 123.213C142.439 123.078 142.24 123.016 142.041 123.016C141.912 123.02 141.709 123.085 141.434 123.213C141.312 123.269 141.197 123.336 141.084 123.413C141.126 123.525 141.23 123.772 141.394 124.158C141.766 125.015 142.018 125.588 142.149 125.875C142.353 126.327 142.575 126.804 142.813 127.307C143.106 127.923 143.273 128.27 143.318 128.353C143.401 128.517 143.463 128.621 143.509 128.664C143.53 128.683 143.555 128.698 143.589 128.708C143.619 128.718 143.665 128.718 143.72 128.704C143.779 128.691 143.931 128.635 144.178 128.532L144.36 128.93C143.913 129.104 143.463 129.295 143.016 129.499C142.619 129.682 142.252 129.86 141.923 130.036L141.742 129.636C142.025 129.493 142.192 129.397 142.235 129.351C142.265 129.331 142.279 129.304 142.283 129.275C142.288 129.248 142.279 129.202 142.258 129.136C142.223 129.009 142.154 128.826 142.055 128.586L141.486 127.251L140.724 125.574L140.271 124.627C140.095 124.253 139.977 124.035 139.915 123.973C139.89 123.944 139.859 123.927 139.826 123.921C139.747 123.911 139.547 123.967 139.219 124.085" fill="#100F0D"/>
<path d="M147.332 127.595L147.234 127.348C147.36 127.199 147.453 127.062 147.517 126.931C147.483 126.794 147.413 126.58 147.314 126.285C147.128 125.746 146.99 125.36 146.899 125.117L146.092 123.035C146.062 122.954 145.944 122.655 145.731 122.136C145.589 121.789 145.489 121.584 145.43 121.517C145.405 121.495 145.377 121.478 145.344 121.474C145.258 121.465 145.06 121.507 144.746 121.607L144.61 121.254L145.518 120.89C145.699 120.82 145.871 120.751 146.037 120.689C146.395 120.55 146.795 120.39 147.23 120.212L148.022 119.882C148.116 119.842 148.309 119.776 148.603 119.678C148.628 119.666 148.674 119.66 148.742 119.655L148.794 119.705L148.978 120.399C148.994 120.448 149.065 120.675 149.195 121.081L148.888 121.2C148.742 120.839 148.643 120.619 148.593 120.542C148.565 120.502 148.538 120.477 148.511 120.469C148.463 120.452 148.352 120.469 148.168 120.515C147.894 120.581 147.634 120.662 147.387 120.76C147.152 120.849 146.92 120.953 146.684 121.065C146.783 121.434 146.937 121.885 147.147 122.429L147.516 123.384C147.7 123.33 147.889 123.267 148.082 123.193C148.142 123.168 148.357 123.078 148.726 122.921C148.866 122.86 148.945 122.821 148.962 122.792C148.981 122.765 148.986 122.723 148.983 122.674C148.968 122.543 148.91 122.341 148.811 122.065L149.13 121.941L149.501 122.966L149.912 123.973L149.595 124.093C149.46 123.736 149.355 123.525 149.28 123.458C149.224 123.408 149.152 123.392 149.065 123.408C148.868 123.446 148.628 123.518 148.342 123.628C148.084 123.728 147.877 123.819 147.717 123.907L148.467 125.848C148.552 126.063 148.628 126.25 148.697 126.398C148.916 126.339 149.17 126.252 149.463 126.142C149.743 126.032 150.001 125.92 150.233 125.808C150.464 125.692 150.599 125.605 150.638 125.544C150.653 125.524 150.658 125.49 150.655 125.443C150.647 125.275 150.589 124.974 150.481 124.54L150.802 124.417C150.983 125.048 151.148 125.563 151.3 125.958L151.272 126.038C151.113 126.126 150.879 126.227 150.568 126.346L149.93 126.576C149.301 126.807 148.868 126.966 148.633 127.058C148.569 127.081 148.135 127.261 147.332 127.595" fill="#100F0D"/>
<path d="M152.253 118.852L152.154 118.458C152.218 118.441 152.438 118.395 152.816 118.319C153 118.283 153.265 118.221 153.599 118.138C153.884 118.07 154.127 118.003 154.33 117.939C154.665 117.835 154.942 117.76 155.164 117.704C155.594 117.603 155.923 117.559 156.15 117.58C156.385 117.598 156.6 117.704 156.807 117.897C157.013 118.086 157.155 118.35 157.236 118.678C157.333 119.064 157.317 119.446 157.188 119.813C157.062 120.181 156.807 120.511 156.427 120.801C156.533 120.93 156.647 121.057 156.769 121.185C156.892 121.312 156.965 121.393 156.989 121.42C157.012 121.449 157.036 121.476 157.059 121.501L157.969 122.458C158.208 122.713 158.337 122.852 158.357 122.869C158.641 123.139 158.813 123.294 158.872 123.342C158.932 123.388 158.986 123.417 159.04 123.427C159.088 123.44 159.177 123.433 159.306 123.402L159.409 123.826C158.984 123.917 158.679 123.986 158.49 124.031C158.274 124.085 158.055 124.143 157.843 124.212C157.811 124.143 157.756 124.058 157.677 123.961L156.387 122.474C156.013 122.047 155.709 121.715 155.465 121.478C155.343 121.356 155.233 121.273 155.133 121.223L155.139 121.053C155.471 120.984 155.709 120.882 155.85 120.752C155.996 120.619 156.096 120.421 156.155 120.158C156.21 119.89 156.202 119.614 156.13 119.321C156.059 119.024 155.939 118.794 155.769 118.624C155.602 118.458 155.419 118.358 155.224 118.325C155.095 118.304 154.885 118.331 154.591 118.402C154.459 118.437 154.332 118.481 154.211 118.537C154.232 118.655 154.285 118.914 154.377 119.323C154.587 120.237 154.726 120.847 154.799 121.152C154.918 121.636 155.046 122.144 155.187 122.684C155.36 123.342 155.46 123.718 155.486 123.803C155.541 123.984 155.585 124.098 155.618 124.148C155.635 124.17 155.659 124.189 155.69 124.204C155.717 124.22 155.764 124.226 155.818 124.226C155.877 124.226 156.037 124.195 156.302 124.139L156.406 124.563C155.934 124.654 155.457 124.758 154.982 124.876C154.553 124.98 154.164 125.088 153.805 125.196L153.701 124.772C154.01 124.685 154.192 124.623 154.241 124.588C154.271 124.569 154.292 124.546 154.3 124.519C154.311 124.496 154.311 124.446 154.302 124.376C154.292 124.247 154.259 124.052 154.207 123.795L153.891 122.381L153.457 120.592L153.186 119.581C153.083 119.178 153.007 118.941 152.961 118.869C152.935 118.836 152.91 118.813 152.878 118.802C152.806 118.779 152.594 118.796 152.253 118.852" fill="#100F0D"/>
<path d="M159.601 123.838L159.568 123.57C159.725 123.46 159.85 123.348 159.943 123.234C159.943 123.097 159.93 122.869 159.904 122.562C159.858 121.995 159.821 121.582 159.79 121.324L159.524 119.11C159.513 119.024 159.469 118.705 159.393 118.15C159.34 117.779 159.294 117.557 159.254 117.478C159.236 117.445 159.214 117.424 159.182 117.411C159.101 117.382 158.897 117.376 158.569 117.397L158.522 117.015L159.494 116.89C159.686 116.866 159.869 116.845 160.046 116.824C160.428 116.778 160.853 116.72 161.32 116.654L162.167 116.527C162.271 116.515 162.474 116.496 162.781 116.471C162.81 116.469 162.856 116.475 162.921 116.486L162.958 116.548L162.965 117.264C162.967 117.316 162.982 117.555 163.009 117.98L162.682 118.02C162.631 117.632 162.589 117.397 162.559 117.308C162.541 117.264 162.524 117.235 162.497 117.216C162.458 117.194 162.342 117.179 162.152 117.177C161.875 117.175 161.6 117.189 161.338 117.223C161.088 117.25 160.837 117.295 160.581 117.347C160.587 117.727 160.623 118.202 160.692 118.779L160.815 119.797C161.008 119.79 161.206 119.776 161.411 119.751C161.476 119.743 161.707 119.709 162.101 119.647C162.255 119.626 162.341 119.604 162.364 119.581C162.389 119.558 162.402 119.523 162.411 119.471C162.432 119.34 162.426 119.132 162.394 118.84L162.734 118.798L162.842 119.882L162.996 120.959L162.657 121.001C162.613 120.619 162.56 120.386 162.508 120.303C162.467 120.243 162.398 120.208 162.312 120.201C162.113 120.189 161.86 120.201 161.555 120.239C161.283 120.27 161.058 120.309 160.882 120.355L161.132 122.418C161.16 122.651 161.189 122.848 161.214 123.012C161.444 123.008 161.713 122.987 162.02 122.95C162.324 122.912 162.599 122.869 162.851 122.815C163.107 122.761 163.257 122.707 163.31 122.661C163.327 122.645 163.343 122.613 163.353 122.566C163.387 122.402 163.402 122.094 163.404 121.65L163.747 121.607C163.765 122.265 163.799 122.804 163.85 123.224L163.804 123.294C163.627 123.34 163.374 123.384 163.043 123.421L162.368 123.483C161.704 123.554 161.245 123.604 160.994 123.635C160.927 123.643 160.462 123.712 159.601 123.838" fill="#100F0D"/>
<path d="M164.391 116.71L164.4 116.305C164.463 116.305 164.688 116.318 165.072 116.34C165.261 116.355 165.527 116.363 165.875 116.372C166.17 116.378 166.422 116.378 166.633 116.367C166.983 116.357 167.269 116.355 167.498 116.359C167.938 116.369 168.267 116.415 168.484 116.492C168.705 116.571 168.888 116.731 169.038 116.971C169.185 117.208 169.257 117.499 169.249 117.833C169.239 118.236 169.125 118.597 168.908 118.921C168.69 119.244 168.36 119.496 167.915 119.678C167.983 119.828 168.06 119.981 168.146 120.135C168.232 120.293 168.283 120.386 168.299 120.419C168.313 120.453 168.329 120.484 168.344 120.515L168.972 121.677C169.139 121.987 169.23 122.153 169.243 122.175C169.448 122.505 169.572 122.703 169.617 122.765C169.664 122.825 169.71 122.869 169.755 122.89C169.798 122.912 169.886 122.931 170.02 122.935L170.01 123.371C169.575 123.35 169.263 123.336 169.07 123.332C168.844 123.325 168.621 123.33 168.399 123.336C168.387 123.265 168.352 123.168 168.305 123.051L167.441 121.281C167.193 120.772 166.983 120.37 166.811 120.081C166.723 119.934 166.639 119.821 166.556 119.747L166.607 119.583C166.943 119.604 167.199 119.572 167.375 119.479C167.546 119.39 167.695 119.224 167.819 118.981C167.942 118.742 168.007 118.47 168.015 118.169C168.021 117.864 167.964 117.609 167.846 117.405C167.725 117.2 167.576 117.054 167.393 116.974C167.279 116.92 167.068 116.89 166.764 116.884C166.629 116.88 166.495 116.89 166.364 116.915C166.354 117.032 166.338 117.299 166.321 117.719C166.281 118.651 166.259 119.278 166.253 119.591C166.24 120.091 166.233 120.614 166.23 121.171C166.225 121.854 166.225 122.242 166.23 122.333C166.232 122.52 166.244 122.64 166.266 122.696C166.276 122.723 166.293 122.75 166.321 122.771C166.345 122.792 166.384 122.809 166.44 122.825C166.499 122.84 166.658 122.854 166.928 122.865L166.919 123.303C166.439 123.269 165.954 123.247 165.461 123.234C165.023 123.224 164.617 123.228 164.241 123.24L164.253 122.804C164.573 122.8 164.763 122.788 164.822 122.765C164.857 122.757 164.881 122.74 164.897 122.713C164.914 122.694 164.924 122.647 164.935 122.578C164.959 122.449 164.976 122.256 164.993 121.995L165.058 120.544L165.1 118.705L165.102 117.656C165.107 117.241 165.096 116.994 165.068 116.909C165.055 116.872 165.033 116.845 165.008 116.824C164.942 116.783 164.737 116.743 164.391 116.71" fill="#100F0D"/>
<path d="M170.696 116.901L170.791 116.5L172.12 116.834L172.676 116.949L173.235 117.055L173.388 117.084L173.299 117.486C173.002 117.42 172.807 117.409 172.716 117.451C172.668 117.472 172.627 117.519 172.593 117.603C172.512 117.794 172.392 118.229 172.239 118.91L171.987 120.033L171.863 120.602C171.733 121.192 171.656 121.559 171.634 121.698C171.593 122.009 171.601 122.265 171.665 122.474C171.728 122.686 171.852 122.869 172.043 123.033C172.232 123.197 172.493 123.313 172.824 123.388C173.207 123.473 173.529 123.467 173.788 123.365C174.05 123.263 174.253 123.099 174.406 122.873C174.559 122.651 174.707 122.196 174.864 121.507L175.083 120.521C175.276 119.67 175.391 119.147 175.431 118.96C175.514 118.551 175.551 118.304 175.54 118.211C175.532 118.157 175.51 118.113 175.468 118.076C175.394 118.001 175.201 117.924 174.898 117.845L174.99 117.443C175.481 117.576 175.773 117.656 175.866 117.675C175.89 117.683 175.93 117.688 175.98 117.696L176.899 117.872L176.81 118.275C176.555 118.217 176.388 118.207 176.312 118.238C176.274 118.256 176.233 118.3 176.198 118.368C176.161 118.437 176.067 118.759 175.919 119.336C175.769 119.911 175.656 120.367 175.579 120.704L175.326 121.839C175.258 122.13 175.176 122.429 175.068 122.728C174.963 123.031 174.832 123.28 174.676 123.473C174.516 123.668 174.32 123.832 174.084 123.967C173.845 124.1 173.58 124.179 173.291 124.212C172.998 124.239 172.674 124.214 172.315 124.135C171.899 124.042 171.526 123.888 171.192 123.674C170.953 123.519 170.765 123.34 170.634 123.139C170.503 122.939 170.417 122.726 170.375 122.506C170.332 122.286 170.324 122.078 170.343 121.887C170.356 121.767 170.42 121.453 170.538 120.945L170.746 120.015L171.024 118.786C171.125 118.335 171.211 117.926 171.278 117.561C171.301 117.416 171.305 117.312 171.296 117.241C171.291 117.202 171.265 117.152 171.22 117.09L170.696 116.901" fill="#100F0D"/>
<path d="M174.806 124.363L174.985 123.981C175.283 124.094 175.467 124.147 175.532 124.152C175.566 124.156 175.601 124.143 175.63 124.123C175.673 124.094 175.716 124.046 175.758 123.975C175.857 123.811 176.047 123.448 176.331 122.879C176.471 122.605 176.7 122.128 177.02 121.449C177.308 120.841 177.556 120.303 177.771 119.832C177.985 119.359 178.099 119.072 178.116 118.973C178.125 118.923 178.125 118.883 178.114 118.852C178.103 118.819 178.071 118.784 178.015 118.742C177.863 118.632 177.719 118.539 177.588 118.468L177.768 118.086C178.282 118.354 178.639 118.537 178.838 118.632C179.1 118.752 179.365 118.869 179.641 118.973L179.558 120.019L179.506 120.816L179.329 124.332C179.866 123.865 180.277 123.5 180.561 123.234L181.651 122.229C182.259 121.667 182.632 121.322 182.767 121.192C182.907 121.061 183.073 120.893 183.265 120.685C183.589 120.864 183.801 120.976 183.893 121.017L185.045 121.524L184.866 121.906L184.814 121.883C184.554 121.754 184.376 121.713 184.27 121.754C184.166 121.794 184.064 121.918 183.965 122.128C183.85 122.377 183.758 122.564 183.694 122.69L183.086 123.946L182.341 125.52C182.161 125.902 182.056 126.128 182.027 126.194C181.869 126.582 181.776 126.825 181.749 126.917C181.739 126.964 181.736 127.006 181.744 127.039C181.752 127.076 181.774 127.108 181.806 127.139C181.837 127.172 181.99 127.265 182.266 127.419L182.086 127.799L180.88 127.193L179.675 126.663L179.855 126.281C180.176 126.416 180.367 126.483 180.423 126.47C180.484 126.462 180.55 126.406 180.621 126.302C180.691 126.203 180.876 125.835 181.175 125.204L182.716 121.937L180.839 123.626L179.921 124.471C179.679 124.693 179.333 125.017 178.881 125.445C178.61 125.702 178.392 125.91 178.228 126.072L177.968 125.951C177.997 125.655 178.024 125.25 178.06 124.731C178.116 123.844 178.156 123.182 178.177 122.742L178.31 119.859L177.273 122.063C177.1 122.429 176.896 122.869 176.665 123.379C176.436 123.892 176.31 124.183 176.287 124.253C176.266 124.328 176.26 124.382 176.266 124.426C176.275 124.463 176.3 124.507 176.346 124.552C176.39 124.6 176.536 124.693 176.786 124.832L176.604 125.212C176.331 125.057 176.042 124.911 175.748 124.77C175.359 124.588 175.043 124.451 174.806 124.363" fill="#100F0D"/>
<path d="M45.6327 0.00416363C45.3456 0.00416363 45.061 0.0809744 44.8414 0.269872C44.6168 0.467074 44.4781 0.745227 44.4625 1.04414C44.4536 1.22681 43.4944 19.4565 43.4944 42.8425C43.4944 67.1771 45.1154 80.2111 49.4721 90.9409C53.8912 101.828 60.7138 107.207 74.3298 115.141C87.3652 122.732 92.8206 123.755 96.4574 123.755C100.098 123.755 105.551 122.732 118.585 115.141C132.205 107.207 139.026 101.828 143.448 90.9409C147.802 80.2111 149.421 67.1771 149.421 42.8425C149.421 19.4565 148.464 1.22681 148.455 1.04414C148.438 0.745227 148.304 0.467074 148.074 0.269872C147.854 0.0768228 147.565 0.00416363 147.267 0.00416363C147.267 0.00416363 45.9198 0.00416363 45.6327 0.00416363V0.00416363ZM146.131 2.39757C146.35 7.05775 147.033 23.1494 147.033 42.8425C147.033 66.8346 145.463 79.6299 141.237 90.0421C139.193 95.078 136.602 98.8892 132.838 102.401C129.453 105.563 124.975 108.654 117.383 113.077C111.575 116.461 106.939 118.738 103.211 120.042C99.8443 121.219 97.8335 121.37 96.4574 121.37C95.0831 121.37 93.0728 121.219 89.7061 120.042C85.9763 118.738 81.3398 116.461 75.5307 113.077C67.9403 108.654 63.4634 105.563 60.0815 102.403C56.3166 98.8891 53.7266 95.078 51.6832 90.0421C47.4546 79.6299 45.8816 66.8346 45.8816 42.8425C45.8816 23.1597 46.5651 7.08679 46.7858 2.41001L146.131 2.39757Z" fill="#100F0D"/>
<path d="M127.072 29.4535L125.929 26.2547L124.796 29.4016L121.414 29.5365L124.101 31.6124L123.141 34.8402L125.918 32.9242L128.718 34.8402L127.758 31.5771L130.442 29.5365L127.072 29.4535" fill="#100F0D"/>
<path d="M123.118 47.6023L125.684 49.9729L125.429 46.4897L128.884 45.9604L126.001 43.9842L127.741 40.9556L124.4 41.9811L123.118 38.7283L121.834 41.9811L118.493 40.9556L120.233 43.9842L117.351 45.9604L120.805 46.4897L120.55 49.9729L123.118 47.6023" fill="#100F0D"/>
<path d="M137.054 28.4302L139.62 30.8029L139.367 27.3155L142.821 26.7883L139.937 24.8142L141.679 21.7856L138.338 22.8069L137.054 19.5582L135.772 22.8069L132.43 21.7856L134.171 24.8142L131.288 26.7883L134.742 27.3155L134.488 30.8029L137.054 28.4302Z" fill="#100F0D"/>
<path d="M124.585 15.3609L127.152 17.7314L126.898 14.2462L130.351 13.7189L127.469 11.7427L129.21 8.71414L125.868 9.73753L124.585 6.48681L123.302 9.73753L119.961 8.71414L121.703 11.7427L118.818 13.7189L122.273 14.2462L122.019 17.7314L124.585 15.3609Z" fill="#100F0D"/>
<path d="M109.859 26.6886L112.426 29.0591L112.172 25.5739L115.626 25.0466L112.743 23.0705L114.484 20.0419L111.143 21.0652L109.859 17.8145L108.577 21.0652L105.235 20.0419L106.976 23.0705L104.093 25.0466L107.548 25.5739L107.294 29.0591L109.859 26.6886" fill="#100F0D"/>
<path d="M123.246 55.891C109.114 49.1343 99.6173 44.3412 96.1916 44.3412C92.7721 44.3412 83.8219 49.1343 69.6908 55.891C55.5592 62.6498 50.7346 64.0987 50.7346 67.0547C50.7346 70.0106 54.2043 68.6053 55.2584 68.2856C56.3133 67.9722 92.3723 56.3041 96.1916 56.3041C100.013 56.3041 136.621 67.9722 137.678 68.2856C138.733 68.6053 142.2 70.0106 142.2 67.0547C142.2 64.0987 137.375 62.6498 123.246 55.891Z" fill="#100F0D"/>
<path d="M131.369 77.9796C125.241 80.0388 120.375 84.5204 113.587 83.2438C107.636 82.1229 102.698 76.9832 96.4486 77.0621C89.6074 77.1492 84.4446 83.0404 77.7323 83.6029C71.1344 84.1509 66.0016 78.8223 59.8512 77.5603C57.0708 76.9915 54.6309 77.3755 52.3102 78.1726C52.7806 80.4601 53.3277 82.5691 53.9571 84.5536C55.7888 84.1135 57.7195 83.9869 59.8512 84.4249C66.0016 85.687 71.1344 91.0156 77.7323 90.4634C84.4446 89.905 89.6074 84.0139 96.4486 83.9267C102.698 83.8479 107.636 88.9854 113.587 90.1043C120.375 91.383 125.241 86.8993 131.369 84.8442C134.107 83.9247 136.555 84.0035 138.882 84.5827C139.51 82.6024 140.057 80.4975 140.528 78.2141C137.705 77.2364 134.76 76.842 131.369 77.9796Z" fill="#100F0D"/>
<path d="M131.369 91.7068C125.241 93.764 120.375 98.2456 113.587 96.969C107.636 95.8501 102.698 90.7104 96.4485 90.7893C89.6073 90.8765 84.4446 96.7676 77.7323 97.3281C71.1344 97.8782 66.0015 92.5496 59.8511 91.2896C58.6852 91.0488 57.5808 90.9782 56.5184 91.0343C57.9092 93.8304 59.6411 96.2507 61.7681 98.4324C61.8346 98.5009 61.901 98.5528 61.9878 98.5943C62.6794 98.9285 66.2504 100.66 68.0344 101.556C71.071 103.082 74.2422 104.481 77.7323 104.191C84.4446 103.63 89.6073 97.7391 96.4485 97.6519C102.698 97.573 107.636 102.715 113.587 103.834C117.742 104.612 121.239 103.209 124.684 101.552C126.474 100.691 130.299 98.7936 131.014 98.4366C131.101 98.393 131.165 98.3432 131.232 98.2747C133.252 96.1553 134.985 93.7307 136.327 91.0384C134.764 90.9388 133.126 91.1173 131.369 91.7068" fill="#100F0D"/>
<path d="M79.5956 110.761C82.3273 112.301 84.7502 113.553 86.9063 114.543C89.9358 112.963 92.9756 111.423 96.4486 111.379C99.9191 111.336 102.985 112.901 106.043 114.493C108.217 113.49 110.667 112.22 113.422 110.663C107.546 109.48 102.64 104.438 96.4486 104.517C90.2527 104.593 85.4346 109.432 79.5956 110.761" fill="#100F0D"/>
<path d="M118.557 69.4978C111.316 67.2871 106.364 65.8423 102.981 64.8999C99.7609 64.0032 98.2567 63.6627 97.2618 63.4095C96.9658 63.3348 96.4672 63.2414 96.3001 63.2102C96.078 63.2517 95.7739 63.314 95.3562 63.4095C94.5226 63.6005 93.2358 63.9222 91.2598 64.4681C87.9068 65.3919 82.5624 66.955 74.0589 69.5871C71.3296 70.4361 68.2743 71.393 64.8558 72.4724C69.0309 74.4611 73.0357 77.1347 77.8051 76.7382C84.5174 76.1757 89.6793 70.2846 96.5214 70.1995C102.77 70.1206 107.709 75.2602 113.66 76.3791C119.189 77.4191 123.443 74.6375 128.142 72.4579C124.569 71.3432 121.387 70.3614 118.557 69.4978" fill="#100F0D"/>
</g>
<defs>
<clipPath id="clip0_431:4336">
<rect width="264.789" height="356" fill="white"/>
</clipPath>
</defs>
</svg>
