<svg width="265" height="356" viewBox="0 0 265 356" fill="none" xmlns="http://www.w3.org/2000/svg">
<g clip-path="url(#clip0_431:4338)">
<path d="M11.0171 222.206H25.3685L18.2354 201.999L11.0171 222.206ZM0.000732422 238.618L15.1638 196.693H21.2225L36.3848 238.618H30.9067L26.7892 227.137H9.65402L5.45052 238.618H0.000732422Z" fill="white"/>
<path d="M52.0135 239.197C50.4469 239.176 48.9737 238.95 47.5912 238.516C46.2085 238.08 44.9859 237.439 43.9237 236.585C42.8598 235.737 42.0245 234.678 41.414 233.412C40.8075 232.148 40.5017 230.671 40.5017 228.99V208.639H45.8656V228.44C45.8656 230.393 46.4705 231.977 47.6794 233.195C48.8853 234.414 50.7072 235.022 53.1448 235.022C55.347 235.022 57.1204 234.446 58.464 233.298C59.8067 232.148 60.4774 230.43 60.4774 228.152V208.639H65.812V238.618H61.551L61.0011 232.876C60.6331 234.383 60.0095 235.601 59.1304 236.53C58.2507 237.457 57.1974 238.138 55.9689 238.574C54.7438 239.007 53.4219 239.215 52.0135 239.197" fill="white"/>
<path d="M84.2531 239.197C82.1642 239.197 80.2279 238.873 78.4383 238.225C76.6513 237.578 75.1673 236.563 73.9893 235.18C72.8102 233.799 72.0658 232.035 71.7561 229.889H76.6276C76.8993 231.067 77.3851 232.05 78.0912 232.832C78.7968 233.615 79.6821 234.207 80.7443 234.601C81.8067 234.997 82.9663 235.195 84.223 235.195C86.234 235.195 87.8564 234.819 89.0947 234.065C90.3312 233.31 90.9492 232.152 90.9492 230.586C90.9492 229.484 90.6247 228.6 89.9785 227.934C89.3307 227.265 88.3299 226.777 86.9784 226.467L80.7728 224.932C78.3565 224.353 76.4242 223.444 74.9744 222.207C73.5261 220.972 72.8013 219.24 72.8013 217.017C72.7809 215.258 73.1961 213.712 74.0468 212.377C74.8974 211.045 76.172 209.99 77.8747 209.218C79.5744 208.444 81.6924 208.058 84.223 208.058C87.4706 208.058 90.0952 208.788 92.0932 210.248C94.0953 211.707 95.1332 213.847 95.2102 216.668H90.4861C90.2916 215.239 89.6493 214.103 88.557 213.262C87.4664 212.421 86.0021 212.002 84.1663 212.002C82.2509 212.002 80.6958 212.384 79.4989 213.145C78.2988 213.911 77.7012 215.093 77.7012 216.698C77.7012 217.762 78.1245 218.596 78.9751 219.205C79.8258 219.815 81.0825 220.321 82.7456 220.728L88.7451 222.236C90.139 222.603 91.284 223.086 92.1833 223.686C93.0817 224.284 93.7945 224.951 94.328 225.685C94.8598 226.422 95.2345 227.188 95.4582 227.989C95.6789 228.793 95.7925 229.561 95.7925 230.296C95.7925 232.131 95.3318 233.713 94.4139 235.035C93.496 236.361 92.1833 237.384 90.4707 238.109C88.7615 238.833 86.688 239.197 84.2531 239.197" fill="white"/>
<path d="M117.276 212.551H110.518V231.195C110.518 232.26 110.632 233.036 110.853 233.528C111.076 234.022 111.453 234.335 111.983 234.47C112.516 234.605 113.245 234.674 114.172 234.674H117.448V238.269C117.082 238.403 116.525 238.52 115.783 238.618C115.038 238.713 114.115 238.761 113.013 238.761C110.945 238.761 109.342 238.483 108.199 237.92C107.06 237.361 106.262 236.53 105.81 235.427C105.354 234.327 105.127 232.973 105.127 231.367V212.551H100.256V208.639H105.272L106.576 199.911H110.518V208.607H117.276V212.551Z" fill="white"/>
<path d="M124.407 238.618V208.639H129.509V214.408C130.012 212.977 130.717 211.794 131.625 210.856C132.536 209.92 133.574 209.218 134.742 208.753C135.912 208.291 137.126 208.058 138.38 208.058C138.826 208.058 139.262 208.087 139.686 208.145C140.11 208.203 140.439 208.3 140.671 208.433V213.625C140.382 213.49 140.01 213.399 139.555 213.349C139.1 213.301 138.719 213.276 138.411 213.276C137.212 213.199 136.092 213.272 135.047 213.494C134.004 213.716 133.085 214.098 132.293 214.64C131.499 215.179 130.876 215.891 130.424 216.77C129.968 217.65 129.741 218.719 129.741 219.975V238.618H124.407Z" fill="white"/>
<path d="M155.457 235.34C156.463 235.34 157.463 235.158 158.458 234.789C159.454 234.422 160.366 233.924 161.198 233.298C162.03 232.668 162.693 231.963 163.185 231.18C163.678 230.398 163.934 229.59 163.954 228.76V223.628L159.487 223.713C157.207 223.753 155.299 223.985 153.762 224.409C152.226 224.834 151.075 225.503 150.311 226.412C149.546 227.319 149.167 228.508 149.167 229.976C149.167 231.657 149.75 232.973 150.921 233.92C152.09 234.866 153.603 235.34 155.457 235.34ZM153.834 239.197C151.902 239.197 150.19 238.852 148.703 238.168C147.214 237.482 146.05 236.49 145.208 235.195C144.369 233.902 143.947 232.337 143.947 230.499C143.947 227.174 145.107 224.699 147.426 223.076C149.745 221.452 153.468 220.583 158.587 220.466L163.954 220.321V217.974C163.954 216.136 163.401 214.683 162.301 213.611C161.198 212.537 159.487 212.002 157.168 212.002C155.447 212.021 153.936 212.425 152.631 213.22C151.328 214.011 150.481 215.306 150.095 217.104H145.368C145.485 215.153 146.034 213.504 147.022 212.161C148.007 210.816 149.383 209.797 151.153 209.101C152.922 208.406 155.014 208.058 157.428 208.058C160.039 208.058 162.208 208.427 163.938 209.16C165.668 209.894 166.962 210.978 167.823 212.409C168.683 213.837 169.114 215.597 169.114 217.684V238.618H164.532L164.157 232.993C162.997 235.33 161.522 236.95 159.735 237.847C157.945 238.746 155.98 239.197 153.834 239.197" fill="white"/>
<path d="M184.8 238.993C183.176 238.993 181.866 238.772 180.87 238.325C179.876 237.88 179.112 237.283 178.579 236.53C178.05 235.774 177.691 234.91 177.508 233.935C177.325 232.959 177.231 231.948 177.231 230.904V195.533H182.509V230.383C182.509 231.89 182.803 233.021 183.392 233.775C183.982 234.528 184.808 234.943 185.871 235.022L187.494 235.049V238.531C187.051 238.663 186.586 238.776 186.103 238.862C185.621 238.95 185.186 238.993 184.8 238.993" fill="white"/>
<path d="M199.411 208.639V238.618H194.223V208.639H199.411ZM199.529 196.721V202.288H194.049V196.721H199.529Z" fill="white"/>
<path d="M218.169 235.34C219.176 235.34 220.176 235.158 221.171 234.789C222.167 234.422 223.078 233.924 223.911 233.298C224.741 232.668 225.405 231.963 225.897 231.18C226.389 230.398 226.646 229.59 226.665 228.76V223.628L222.198 223.713C219.919 223.753 218.011 223.985 216.473 224.409C214.939 224.834 213.787 225.503 213.023 226.412C212.259 227.319 211.879 228.508 211.879 229.976C211.879 231.657 212.463 232.973 213.633 233.92C214.802 234.866 216.315 235.34 218.169 235.34V235.34ZM216.548 239.197C214.613 239.197 212.903 238.852 211.414 238.168C209.926 237.482 208.761 236.49 207.921 235.195C207.081 233.902 206.659 232.337 206.659 230.499C206.659 227.174 207.819 224.699 210.138 223.076C212.458 221.452 216.18 220.583 221.299 220.466L226.665 220.321V217.974C226.665 216.136 226.113 214.683 225.013 213.611C223.911 212.537 222.198 212.002 219.879 212.002C218.159 212.021 216.647 212.425 215.342 213.22C214.04 214.011 213.193 215.306 212.807 217.104H208.078C208.197 215.153 208.747 213.504 209.733 212.161C210.719 210.816 212.095 209.797 213.866 209.101C215.634 208.406 217.725 208.058 220.141 208.058C222.75 208.058 224.919 208.427 226.651 209.16C228.38 209.894 229.673 210.978 230.534 212.409C231.394 213.837 231.826 215.597 231.826 217.684V238.618H227.244L226.869 232.993C225.708 235.33 224.234 236.95 222.447 237.847C220.658 238.746 218.692 239.197 216.548 239.197Z" fill="white"/>
<path d="M239.709 238.618V208.639H244.901V212.988C245.383 212.155 246.053 211.373 246.915 210.638C247.774 209.905 248.818 209.315 250.045 208.869C251.274 208.427 252.689 208.203 254.292 208.203C256.187 208.203 257.931 208.581 259.525 209.334C261.121 210.087 262.396 211.262 263.353 212.857C264.31 214.451 264.787 216.506 264.787 219.018V238.618H259.423V219.539C259.423 217.202 258.809 215.466 257.584 214.335C256.355 213.206 254.765 212.639 252.814 212.639C251.461 212.639 250.196 212.857 249.015 213.291C247.838 213.726 246.879 214.383 246.147 215.263C245.41 216.143 245.044 217.249 245.044 218.582V238.618H239.709" fill="white"/>
<path d="M28.0929 250.601H33.4576V292.526H28.6735L6.17529 259.475V292.526H0.812256V250.601H5.94257L28.0929 283.191V250.601Z" fill="white"/>
<path d="M52.5654 289.251C53.5678 289.251 54.5717 289.066 55.5649 288.696C56.559 288.331 57.4728 287.833 58.304 287.206C59.1343 286.577 59.7975 285.873 60.2913 285.089C60.7827 284.306 61.0391 283.5 61.0608 282.668V277.537L56.5947 277.624C54.3145 277.664 52.4066 277.894 50.8684 278.32C49.3309 278.744 48.1828 279.411 47.4182 280.32C46.6543 281.23 46.2741 282.417 46.2741 283.887C46.2741 285.568 46.8569 286.882 48.0271 287.831C49.1939 288.777 50.7094 289.251 52.5654 289.251ZM50.9396 293.106C49.0091 293.106 47.2949 292.761 45.8103 292.078C44.3191 291.391 43.1554 290.401 42.313 289.103C41.4738 287.81 41.0544 286.242 41.0544 284.407C41.0544 281.085 42.214 278.61 44.5339 276.985C46.853 275.363 50.5724 274.492 55.693 274.377L61.0608 274.232V271.882C61.0608 270.047 60.5087 268.593 59.4083 267.519C58.304 266.448 56.5947 265.91 54.2757 265.91C52.5525 265.931 51.0411 266.336 49.7371 267.129C48.4341 267.92 47.5851 269.217 47.2017 271.012H42.4743C42.5895 269.061 43.1425 267.413 44.1268 266.07C45.112 264.727 46.4897 263.705 48.2575 263.011C50.0292 262.315 52.1195 261.969 54.536 261.969C57.1469 261.969 59.3159 262.336 61.043 263.068C62.775 263.804 64.0691 264.887 64.9312 266.317C65.7875 267.748 66.2213 269.505 66.2213 271.594V292.526H61.6398L61.2637 286.903C60.1024 289.242 58.6268 290.857 56.8411 291.758C55.0524 292.657 53.086 293.106 50.9396 293.106" fill="white"/>
<path d="M88.0521 266.462H81.2943V285.105C81.2943 286.165 81.4079 286.944 81.6283 287.439C81.8515 287.93 82.2284 288.246 82.7588 288.381C83.2923 288.514 84.0205 288.582 84.9479 288.582H88.224V292.177C87.8566 292.314 87.3005 292.429 86.5584 292.526C85.814 292.624 84.8904 292.672 83.7886 292.672C81.7209 292.672 80.1178 292.391 78.9752 291.831C77.836 291.268 77.0381 290.438 76.5848 289.336C76.1299 288.233 75.9029 286.882 75.9029 285.278V266.462H71.032V262.548H76.0488L77.3511 253.821H81.2943V262.518H88.0521V266.462" fill="white"/>
<path d="M100.981 262.548V292.526H95.7926V262.548H100.981ZM101.097 250.63V256.198H95.6174V250.63H101.097Z" fill="white"/>
<path d="M121.741 288.873C123.536 288.873 125.054 288.42 126.291 287.509C127.527 286.602 128.467 285.298 129.103 283.594C129.741 281.896 130.061 279.874 130.061 277.537C130.061 275.39 129.78 273.462 129.22 271.753C128.658 270.043 127.765 268.683 126.538 267.679C125.309 266.674 123.711 266.17 121.741 266.17C119.923 266.17 118.385 266.621 117.13 267.519C115.873 268.417 114.921 269.717 114.274 271.419C113.627 273.121 113.301 275.158 113.301 277.537C113.301 279.644 113.592 281.557 114.172 283.276C114.751 284.997 115.662 286.361 116.898 287.365C118.136 288.37 119.749 288.873 121.741 288.873V288.873ZM121.741 293.106C118.975 293.106 116.559 292.51 114.491 291.322C112.423 290.133 110.819 288.391 109.679 286.089C108.538 283.789 107.968 280.978 107.968 277.653C107.968 274.521 108.5 271.777 109.563 269.418C110.625 267.062 112.186 265.229 114.245 263.924C116.304 262.62 118.801 261.969 121.741 261.969C124.503 261.969 126.905 262.573 128.944 263.78C130.982 264.988 132.563 266.762 133.684 269.101C134.805 271.438 135.366 274.29 135.366 277.653C135.366 280.704 134.848 283.395 133.815 285.713C132.781 288.032 131.255 289.844 129.233 291.15C127.214 292.454 124.716 293.106 121.741 293.106" fill="white"/>
<path d="M141.831 292.526V262.548H147.022V266.896C147.503 266.066 148.175 265.283 149.037 264.546C149.896 263.813 150.941 263.224 152.167 262.779C153.395 262.336 154.811 262.111 156.414 262.111C158.31 262.111 160.052 262.489 161.647 263.242C163.241 263.998 164.519 265.171 165.475 266.767C166.432 268.36 166.909 270.414 166.909 272.927V292.526H161.546V273.447C161.546 271.11 160.932 269.375 159.705 268.243C158.478 267.114 156.887 266.549 154.937 266.549C153.583 266.549 152.317 266.767 151.137 267.201C149.96 267.635 149.001 268.293 148.268 269.171C147.533 270.051 147.165 271.158 147.165 272.493V292.526H141.831" fill="white"/>
<path d="M184.539 289.251C185.543 289.251 186.544 289.066 187.538 288.696C188.535 288.331 189.447 287.833 190.28 287.206C191.11 286.577 191.773 285.873 192.266 285.089C192.759 284.306 193.015 283.5 193.034 282.668V277.537L188.568 277.624C186.289 277.664 184.38 277.894 182.842 278.32C181.307 278.744 180.156 279.411 179.392 280.32C178.628 281.23 178.248 282.417 178.248 283.887C178.248 285.568 178.83 286.882 180.001 287.831C181.17 288.777 182.684 289.251 184.539 289.251V289.251ZM182.916 293.106C180.982 293.106 179.271 292.761 177.783 292.078C176.295 291.391 175.131 290.401 174.289 289.103C173.449 287.81 173.028 286.242 173.028 284.407C173.028 281.085 174.187 278.61 176.506 276.985C178.826 275.363 182.548 274.492 187.669 274.377L193.034 274.232V271.882C193.034 270.047 192.483 268.593 191.382 267.519C190.28 266.448 188.568 265.91 186.248 265.91C184.527 265.931 183.017 266.336 181.711 267.129C180.408 267.92 179.562 269.217 179.175 271.012H174.448C174.565 269.061 175.115 267.413 176.103 266.07C177.089 264.727 178.464 263.705 180.233 263.011C182.003 262.315 184.095 261.969 186.509 261.969C189.12 261.969 191.289 262.336 193.019 263.068C194.749 263.804 196.043 264.887 196.904 266.317C197.763 267.748 198.194 269.505 198.194 271.594V292.526H193.612L193.238 286.903C192.078 289.242 190.602 290.857 188.815 291.758C187.026 292.657 185.06 293.106 182.916 293.106" fill="white"/>
<path d="M213.88 292.904C212.257 292.904 210.947 292.68 209.951 292.237C208.957 291.794 208.193 291.191 207.659 290.438C207.129 289.686 206.772 288.819 206.589 287.843C206.405 286.869 206.313 285.857 206.313 284.814V249.443H211.589V284.292C211.589 285.798 211.883 286.93 212.473 287.683C213.062 288.437 213.889 288.854 214.951 288.929L216.575 288.96V292.439C216.13 292.574 215.668 292.684 215.184 292.773C214.702 292.858 214.266 292.904 213.88 292.904Z" fill="white"/>
<path d="M31.4563 331.935C31.4563 335.165 30.9245 337.899 29.8612 340.141C28.799 342.385 27.1409 344.089 24.8907 345.258C22.6383 346.429 19.7142 347.014 16.1189 347.014C12.4854 347.014 9.54199 346.414 7.29184 345.216C5.04009 344.016 3.39566 342.258 2.36181 339.939C1.32796 337.619 0.812256 334.767 0.812256 331.386V304.51H6.37882V332.199C6.37882 335.58 7.21885 338.112 8.90059 339.793C10.5823 341.476 12.9881 342.316 16.1189 342.316C18.2263 342.316 20.0191 341.949 21.4974 341.212C22.9764 340.479 24.1075 339.364 24.8907 337.866C25.6725 336.369 26.0642 334.478 26.0642 332.199V304.51H31.4563V331.935Z" fill="white"/>
<path d="M39.282 346.433V316.456H44.474V320.803C44.9572 319.973 45.6294 319.19 46.4898 318.455C47.3477 317.72 48.3945 317.131 49.618 316.686C50.8465 316.242 52.2638 316.02 53.8686 316.02C55.7636 316.02 57.5044 316.396 59.0986 317.152C60.6945 317.905 61.9699 319.077 62.9291 320.672C63.8844 322.266 64.3612 324.321 64.3612 326.832V346.433H58.9973V327.356C58.9973 325.016 58.3835 323.283 57.1598 322.152C55.9314 321.02 54.3413 320.456 52.388 320.456C51.037 320.456 49.7689 320.672 48.5891 321.108C47.4133 321.542 46.4557 322.202 45.722 323.08C44.9857 323.96 44.6168 325.064 44.6168 326.401V346.433H39.282Z" fill="white"/>
<path d="M77.7872 316.456V346.433H72.5977V316.456H77.7872ZM77.9041 304.539V310.104H72.4236V304.539H77.9041Z" fill="white"/>
<path d="M110.056 316.456L99.2428 346.433H94.3711L83.5283 316.456H88.5725L96.5459 339.707H97.0381L105.041 316.456H110.056Z" fill="white"/>
<path d="M117.999 329.067H134.292C134.292 327.346 134.002 325.795 133.421 324.412C132.842 323.032 131.959 321.938 130.769 321.135C129.579 320.334 128.087 319.935 126.291 319.935C124.416 319.935 122.865 320.383 121.636 321.282C120.408 322.181 119.492 323.329 118.882 324.732C118.273 326.134 117.979 327.576 117.999 329.067V329.067ZM117.97 332.691C117.97 334.584 118.283 336.301 118.911 337.834C119.539 339.373 120.497 340.595 121.782 341.505C123.066 342.412 124.676 342.868 126.609 342.868C128.522 342.868 130.17 342.422 131.552 341.534C132.933 340.643 133.819 339.358 134.206 337.677H139.28C138.911 339.707 138.1 341.415 136.843 342.808C135.586 344.199 134.069 345.25 132.293 345.954C130.513 346.661 128.657 347.014 126.724 347.014C123.923 347.014 121.458 346.404 119.333 345.187C117.205 343.967 115.542 342.221 114.345 339.939C113.146 337.658 112.547 334.923 112.547 331.734C112.547 328.582 113.088 325.82 114.171 323.443C115.253 321.062 116.823 319.209 118.882 317.876C120.941 316.541 123.419 315.875 126.319 315.875C129.14 315.875 131.528 316.485 133.481 317.702C135.432 318.918 136.916 320.634 137.93 322.847C138.947 325.063 139.453 327.687 139.453 330.719V332.691H117.97" fill="white"/>
<path d="M146.209 346.433V316.456H151.312V322.223C151.816 320.793 152.52 319.609 153.427 318.673C154.338 317.735 155.376 317.033 156.546 316.57C157.716 316.107 158.928 315.875 160.183 315.875C160.629 315.875 161.064 315.901 161.489 315.96C161.912 316.02 162.242 316.118 162.474 316.253V321.44C162.184 321.305 161.813 321.214 161.357 321.166C160.902 321.118 160.52 321.093 160.213 321.093C159.014 321.016 157.894 321.089 156.85 321.309C155.808 321.534 154.888 321.916 154.095 322.455C153.302 322.997 152.679 323.707 152.226 324.587C151.771 325.465 151.543 326.534 151.543 327.792V346.433H146.209" fill="white"/>
<path d="M178.534 347.014C176.448 347.014 174.51 346.688 172.72 346.043C170.934 345.395 169.449 344.38 168.272 342.997C167.092 341.615 166.348 339.853 166.038 337.706H170.91C171.181 338.885 171.666 339.865 172.374 340.65C173.078 341.432 173.964 342.022 175.027 342.416C176.09 342.815 177.249 343.012 178.506 343.012C180.516 343.012 182.14 342.636 183.377 341.881C184.614 341.127 185.232 339.967 185.232 338.401C185.232 337.302 184.908 336.415 184.26 335.749C183.613 335.082 182.612 334.594 181.26 334.285L175.056 332.749C172.639 332.168 170.705 331.258 169.257 330.023C167.808 328.784 167.083 327.055 167.083 324.834C167.064 323.076 167.478 321.527 168.329 320.195C169.179 318.862 170.454 317.808 172.157 317.033C173.856 316.261 175.974 315.875 178.506 315.875C181.753 315.875 184.377 316.604 186.377 318.062C188.377 319.524 189.416 321.664 189.493 324.485H184.768C184.574 323.055 183.93 321.92 182.84 321.079C181.749 320.236 180.284 319.817 178.448 319.817C176.534 319.817 174.978 320.199 173.781 320.963C172.582 321.727 171.983 322.91 171.983 324.514C171.983 325.579 172.407 326.413 173.258 327.021C174.109 327.63 175.365 328.139 177.028 328.545L183.028 330.05C184.421 330.42 185.565 330.902 186.464 331.503C187.364 332.102 188.077 332.767 188.609 333.5C189.142 334.237 189.517 335.005 189.74 335.809C189.962 336.61 190.074 337.378 190.074 338.112C190.074 339.948 189.615 341.529 188.696 342.852C187.78 344.176 186.464 345.199 184.753 345.924C183.043 346.648 180.971 347.014 178.534 347.014" fill="white"/>
<path d="M202.773 316.456V346.433H197.585V316.456H202.773ZM202.891 304.539V310.104H197.41V304.539H202.891Z" fill="white"/>
<path d="M226.663 320.367H219.906V339.012C219.906 340.072 220.018 340.851 220.238 341.345C220.463 341.839 220.84 342.152 221.37 342.288C221.903 342.422 222.632 342.491 223.56 342.491H226.835V346.084C226.468 346.221 225.912 346.335 225.171 346.433C224.425 346.53 223.502 346.578 222.399 346.578C220.332 346.578 218.729 346.298 217.588 345.737C216.446 345.175 215.649 344.346 215.196 343.242C214.742 342.142 214.513 340.788 214.513 339.186V320.367H209.644V316.456H214.659L215.962 307.727H219.906V316.425H226.663V320.367Z" fill="white"/>
<path d="M236.955 356C235.197 356 233.658 355.749 232.344 355.247V351.767L235.388 351.826C236.511 351.865 237.438 351.788 238.171 351.593C238.908 351.4 239.496 351.141 239.942 350.81C240.384 350.482 240.727 350.115 240.971 349.71C241.21 349.301 241.409 348.916 241.565 348.548L242.607 345.708L230.896 316.456H236.315L245.158 339.591L253.943 316.456H259.191L246.551 348.695C245.777 350.587 244.913 352.067 243.956 353.131C243.002 354.194 241.937 354.937 240.768 355.363C239.597 355.786 238.327 356 236.955 356Z" fill="white"/>
<path d="M185.433 137.341C181.951 133.364 174.735 129.096 164.866 129.096C152.128 129.096 121.647 151.076 96.8076 151.076C71.9677 151.076 41.4924 129.096 28.7522 129.096C18.8823 129.096 11.6697 133.364 8.18628 137.341C8.12546 129.8 6.75674 126.622 3.36166 120.749C7.63246 116.743 15.8092 109.544 26.8831 109.544C45.2685 109.544 81.4257 132.26 96.8076 132.26C112.188 132.26 148.35 109.544 166.734 109.544C177.811 109.544 185.984 116.743 190.254 120.749C186.861 126.622 185.494 129.8 185.433 137.341V137.341ZM174.85 147.662C166.202 147.689 163.774 141.462 163.774 139.095C163.774 136.43 164.667 133.188 165.249 131.299C179.709 131.691 185.577 140.117 185.577 142.143C185.564 144.756 180.123 147.646 174.85 147.662V147.662ZM161.883 141.111C159.427 139.307 156.096 137.08 152.08 134.913C156.438 133.034 160.135 131.855 162.921 131.454C161.929 134.825 161.129 138.572 161.883 141.111ZM31.7378 141.111C32.4886 138.572 31.6899 134.825 30.6974 131.454C33.4819 131.855 37.181 133.034 41.5385 134.913C37.5233 137.08 34.1889 139.307 31.7378 141.111ZM18.7696 147.662C13.4934 147.646 8.05492 144.756 8.04195 142.143C8.04195 140.117 13.9109 131.691 28.3669 131.299C28.9525 133.188 29.8451 136.43 29.8451 139.095C29.8451 141.462 27.415 147.689 18.7696 147.662V147.662ZM13.9199 87.7276C13.9199 85.2885 15.4329 83.8811 17.5979 83.8479C20.1002 83.8147 24.2064 86.3057 27.1457 89.6788L22.7865 92.3213C21.7495 94.6192 23.8741 100.699 28.4911 100.699C30.9812 100.699 32.2267 98.966 35.9193 96.9296L41.4372 110.042C36.1902 108.405 31.2448 107.354 26.8831 107.354C25.018 107.354 23.424 107.491 21.9166 107.753C21.2712 106.428 20.6233 105.117 19.9892 103.842C15.8959 95.6094 13.9199 91.0281 13.9199 87.7276V87.7276ZM29.4551 98.3681C27.7012 99.0864 24.4117 96.6701 24.7326 93.6997L28.5081 91.4121C30.6391 94.1543 30.9812 97.7433 29.4551 98.3681ZM27.4401 75.5779C29.3197 74.5255 31.4078 74.4632 33.6449 75.3932C38.0364 77.2199 41.996 82.536 42.7915 85.3902C43.8584 89.2221 42.3981 90.3223 42.3827 90.3327L32.5324 96.4584C33.2272 91.4682 24.0208 81.4047 17.4066 81.6787C19.707 79.8561 27.4401 75.5779 27.4401 75.5779V75.5779ZM157.702 96.9296C161.392 98.966 162.637 100.699 165.127 100.699C169.744 100.699 171.867 94.6192 170.829 92.3213L166.471 89.6788C169.412 86.3057 173.517 83.8147 176.021 83.8479C178.184 83.8811 179.698 85.2885 179.698 87.7276C179.698 91.0281 177.72 95.6094 173.631 103.842C172.998 105.117 172.349 106.428 171.701 107.753C170.197 107.491 168.6 107.354 166.734 107.354C162.375 107.354 157.429 108.405 152.18 110.042L157.702 96.9296ZM168.887 93.6997C169.207 96.6701 165.919 99.0864 164.164 98.3681C162.637 97.7433 162.977 94.1543 165.11 91.4121L168.887 93.6997ZM151.234 90.3327C151.219 90.3223 149.76 89.2221 150.829 85.3902C151.624 82.536 155.585 77.2199 159.977 75.3932C162.209 74.4632 164.297 74.5255 166.181 75.5779C166.181 75.5779 173.912 79.8561 176.214 81.6787C169.598 81.4047 160.391 91.4682 161.086 96.4584L151.234 90.3327ZM192.414 119.784C187.624 114.993 181.533 110.35 173.904 108.239C174.468 107.084 181.869 93.7391 181.869 87.7317C181.869 85.7057 181.005 83.1484 178.457 80.7155C176.337 78.6875 167.248 73.6682 167.248 73.6682C164.786 72.2898 161.98 72.1902 159.133 73.3755C153.87 75.5634 149.635 81.5209 148.719 84.8049C147.198 90.2621 149.771 92.0017 150.059 92.176L155.818 95.7568L149.429 110.941C139.622 114.011 107.684 130.072 96.8076 130.072C85.9316 130.072 53.995 114.011 44.1893 110.941L37.8006 95.7568L43.561 92.176C43.8487 92.0017 46.4233 90.2621 44.8988 84.8049C43.9834 81.5209 39.749 75.5634 34.4849 73.3755C31.6371 72.1902 28.8317 72.2898 26.3706 73.6682C26.3706 73.6682 17.2801 78.6875 15.1613 80.7155C12.612 83.1484 11.7508 85.7057 11.7508 87.7317C11.7508 93.7391 19.1507 107.084 19.7167 108.239C12.0873 110.35 5.99452 114.993 1.20639 119.784C0.848804 120.139 0.781505 120.693 1.04422 121.127C1.07584 121.177 4.24307 126.447 5.24447 130.08C6.33834 134.037 5.86317 142.234 5.86317 142.244C5.96615 145.985 11.9252 149.863 18.9707 149.863C28.8072 149.863 29.3197 143.268 44.0805 136.05C47.1619 137.536 77.1516 153.265 96.8076 153.265C116.462 153.265 146.457 137.536 149.54 136.05C164.297 143.268 164.812 149.863 174.649 149.863C181.695 149.863 187.652 145.985 187.756 142.244C187.758 142.234 187.279 134.037 188.372 130.08C189.377 126.447 192.542 121.177 192.576 121.127C192.84 120.693 192.772 120.139 192.414 119.784" fill="#B97D1C"/>
<path d="M11.4786 128.015C11.7672 127.851 11.9286 127.751 11.9651 127.714C11.9862 127.687 12.0016 127.658 12.0064 127.622C12.0113 127.587 12.0016 127.523 11.9708 127.436C11.931 127.313 11.8159 127.031 11.6213 126.589C11.5094 126.337 11.3577 126.014 11.1623 125.623L10.4569 124.193L9.80171 122.906C9.69061 122.692 9.61439 122.555 9.56735 122.495C9.52438 122.437 9.48222 122.398 9.44411 122.379C9.40438 122.358 9.35167 122.354 9.2868 122.364C9.22436 122.373 9.05408 122.433 8.77921 122.543L8.59351 122.169C8.92435 122.032 9.16599 121.926 9.31599 121.852L9.85765 121.565L10.1982 121.378C11.1104 121.92 12.1945 122.528 13.4457 123.207C14.3474 123.695 15.0796 124.062 15.6366 124.316L15.1315 123.286C14.3433 121.69 13.8665 120.76 13.6963 120.492C13.6322 120.388 13.573 120.328 13.5227 120.311C13.4392 120.289 13.2268 120.355 12.8903 120.515L12.7046 120.143C13.0232 120.01 13.3087 119.882 13.5681 119.755C13.8163 119.631 14.1325 119.462 14.5152 119.246L14.7001 119.622C14.3977 119.782 14.2282 119.9 14.1909 119.973C14.1787 119.996 14.1755 120.025 14.1828 120.058C14.2168 120.228 14.3612 120.577 14.6125 121.113C14.8606 121.646 15.0488 122.041 15.1728 122.294C16.145 124.266 16.7516 125.453 16.9932 125.86L16.9624 125.924C16.7305 125.987 16.4962 126.057 16.261 126.128C14.9174 125.455 12.9705 124.419 10.4171 123.014L11.5094 125.227C11.7356 125.69 11.9797 126.161 12.2448 126.653C12.4248 126.993 12.5416 127.195 12.6 127.257C12.6275 127.288 12.6584 127.309 12.6932 127.319C12.7281 127.33 12.7776 127.323 12.8424 127.303C13.0192 127.247 13.1432 127.201 13.2195 127.162C13.2349 127.155 13.2592 127.141 13.2933 127.12L13.4708 127.479C12.9884 127.705 12.7135 127.838 12.647 127.869C12.4013 127.99 12.0745 128.166 11.665 128.395L11.4786 128.015" fill="#B97D1C"/>
<path d="M18.3058 122.684C18.5637 122.62 18.8532 122.543 19.1759 122.449C19.4881 122.362 19.7654 122.279 20.007 122.198L18.4372 119.981L18.3058 122.684ZM17.2533 125.773L17.1406 125.378C17.3539 125.297 17.4796 125.241 17.5177 125.214C17.5566 125.19 17.5858 125.158 17.6053 125.121C17.6272 125.08 17.6434 125.023 17.6571 124.949C17.6701 124.874 17.692 124.606 17.7277 124.143C17.7423 123.925 17.7666 123.496 17.8007 122.858L17.9839 119.483L18.031 118.298L18.6067 118.134L21.8387 122.601L22.2765 123.18L22.5636 123.572C22.6058 123.624 22.6448 123.658 22.6755 123.676C22.7073 123.695 22.7396 123.707 22.7762 123.709C22.8102 123.714 22.892 123.703 23.0234 123.676C23.0639 123.67 23.1255 123.662 23.2084 123.649L23.3211 124.046L22.1842 124.332L20.771 124.77L20.6573 124.376C20.9808 124.266 21.1585 124.193 21.1934 124.152C21.2266 124.112 21.2355 124.062 21.2177 124C21.1942 123.921 21.1259 123.799 21.0126 123.637L20.3662 122.688L18.2758 123.286L18.2596 123.905C18.2507 124.382 18.2612 124.675 18.2912 124.781C18.3123 124.857 18.3504 124.907 18.4015 124.926C18.4785 124.951 18.6813 124.926 19.0056 124.847L19.1183 125.241L18.1745 125.476L17.2533 125.773" fill="#B97D1C"/>
<path d="M23.5304 123.915L23.481 123.508C23.8166 123.458 24.0122 123.408 24.0722 123.361C24.1297 123.313 24.1629 123.242 24.1751 123.149C24.1888 123.006 24.1539 122.578 24.0722 121.866L23.7267 118.914C23.6319 118.111 23.5742 117.663 23.5563 117.567L22.9573 117.64C22.6548 117.673 22.3895 117.715 22.1635 117.766C22.0734 117.787 22.0223 117.806 22.0092 117.825C21.993 117.845 21.9841 117.905 21.9818 118.001C21.9712 118.236 21.9818 118.495 22.0084 118.784L21.6607 118.823C21.5706 118.15 21.5196 117.773 21.5065 117.688C21.4805 117.542 21.4473 117.391 21.4102 117.225L21.4409 117.171C21.5748 117.171 21.7141 117.169 21.8625 117.156C22.1033 117.137 22.5672 117.088 23.2499 117.009L24.9413 116.812C25.6435 116.729 26.1147 116.668 26.3483 116.631C26.478 116.608 26.6061 116.581 26.7342 116.552L26.7836 116.594C26.7796 116.799 26.7852 116.976 26.7983 117.129C26.7983 117.154 26.834 117.515 26.9077 118.209L26.559 118.25C26.5249 117.995 26.478 117.752 26.4195 117.524C26.3888 117.405 26.3611 117.335 26.3402 117.316C26.3223 117.301 26.2752 117.297 26.2038 117.297C25.9703 117.297 25.6929 117.318 25.3727 117.353L24.7744 117.426C24.7783 117.54 24.8271 117.991 24.9203 118.777L25.2657 121.727C25.3492 122.437 25.415 122.86 25.4611 123.002C25.4912 123.087 25.5406 123.147 25.6103 123.18C25.6784 123.213 25.8812 123.215 26.2177 123.188L26.2646 123.595C25.7206 123.628 25.2641 123.666 24.8927 123.709C24.4954 123.755 24.0437 123.824 23.5304 123.915" fill="#B97D1C"/>
<path d="M27.343 116.957L27.3762 116.55L28.7392 116.699L29.3061 116.735L29.877 116.764L30.0318 116.772L29.9969 117.183C29.6945 117.158 29.5006 117.175 29.4122 117.231C29.3684 117.254 29.336 117.312 29.3142 117.395C29.2573 117.596 29.2007 118.043 29.1398 118.738L29.0441 119.886L28.9995 120.467C28.9468 121.065 28.9217 121.441 28.9208 121.582C28.9208 121.893 28.9663 122.151 29.0547 122.348C29.1479 122.547 29.2972 122.713 29.5056 122.85C29.7163 122.985 29.9911 123.068 30.3293 123.097C30.7185 123.128 31.0365 123.076 31.2804 122.941C31.5245 122.804 31.7062 122.613 31.8253 122.373C31.9447 122.128 32.0354 121.656 32.0923 120.957L32.1782 119.948C32.2519 119.076 32.2973 118.547 32.3079 118.356C32.3362 117.939 32.337 117.688 32.3152 117.598C32.2998 117.544 32.2697 117.501 32.2268 117.472C32.14 117.409 31.9413 117.358 31.6325 117.32L31.664 116.911C32.1715 116.978 32.47 117.015 32.5666 117.021C32.5909 117.023 32.6305 117.025 32.6801 117.027L33.6151 117.077L33.5802 117.486C33.3199 117.463 33.1544 117.476 33.0839 117.519C33.0482 117.544 33.0149 117.592 32.9882 117.663C32.9614 117.735 32.912 118.067 32.8422 118.657C32.7733 119.251 32.7214 119.718 32.693 120.058L32.5965 121.223C32.5713 121.517 32.5253 121.823 32.4636 122.136C32.4011 122.449 32.3029 122.713 32.1757 122.929C32.0435 123.143 31.8708 123.334 31.6543 123.498C31.4361 123.662 31.1847 123.778 30.9018 123.846C30.6147 123.915 30.2921 123.934 29.9272 123.903C29.5006 123.867 29.1089 123.766 28.7514 123.599C28.4911 123.479 28.2819 123.328 28.1229 123.147C27.968 122.966 27.8539 122.769 27.7816 122.553C27.7086 122.339 27.6714 122.138 27.6689 121.945C27.6641 121.825 27.6851 121.505 27.7289 120.984L27.8132 120.033L27.9195 118.779C27.9599 118.319 27.9859 117.901 28.0046 117.532C28.0062 117.387 27.9981 117.279 27.9803 117.212C27.968 117.175 27.9373 117.129 27.8863 117.073L27.343 116.957" fill="#B97D1C"/>
<path d="M34.134 117.596L34.2353 117.204C34.2984 117.216 34.5135 117.281 34.8824 117.393C35.064 117.447 35.3201 117.515 35.656 117.605C35.9398 117.677 36.1862 117.733 36.3962 117.773C36.7369 117.839 37.019 117.903 37.2403 117.962C37.6693 118.072 37.9782 118.188 38.1721 118.317C38.3649 118.443 38.5069 118.64 38.5993 118.906C38.691 119.172 38.6933 119.471 38.6082 119.797C38.5094 120.185 38.3147 120.511 38.0293 120.774C37.7447 121.04 37.3661 121.212 36.8926 121.287C36.9241 121.449 36.9623 121.613 37.0109 121.785C37.0595 121.96 37.0879 122.061 37.0943 122.099C37.1024 122.132 37.1097 122.167 37.1186 122.198L37.4649 123.473C37.5574 123.813 37.606 123.994 37.6166 124.023C37.7382 124.392 37.8136 124.61 37.846 124.683C37.8786 124.75 37.9126 124.799 37.9506 124.833C37.988 124.868 38.0714 124.903 38.1989 124.938L38.0884 125.364C37.6749 125.239 37.3717 125.156 37.1836 125.109C36.9654 125.05 36.7464 125.003 36.5299 124.959C36.5332 124.887 36.526 124.785 36.5017 124.66L36.0654 122.74C35.9398 122.188 35.827 121.752 35.7233 121.428C35.673 121.264 35.6161 121.138 35.5528 121.044L35.639 120.901C35.9616 120.996 36.2185 121.019 36.4085 120.972C36.5966 120.922 36.7798 120.795 36.954 120.588C37.1292 120.382 37.2558 120.133 37.3295 119.838C37.4049 119.545 37.4082 119.286 37.3418 119.058C37.2704 118.831 37.1585 118.655 36.9995 118.532C36.8973 118.458 36.7003 118.381 36.4085 118.304C36.2763 118.271 36.1432 118.25 36.0095 118.242C35.9697 118.356 35.896 118.613 35.7841 119.016C35.5344 119.919 35.3689 120.521 35.2902 120.826C35.1678 121.306 35.0397 121.818 34.9083 122.358C34.7493 123.02 34.6611 123.398 34.6416 123.489C34.6067 123.672 34.5905 123.795 34.5986 123.851C34.6025 123.882 34.6148 123.909 34.6335 123.938C34.6513 123.963 34.6901 123.99 34.7389 124.017C34.7883 124.044 34.9457 124.094 35.2043 124.17L35.0964 124.59C34.6366 124.449 34.1681 124.318 33.6921 124.193C33.2672 124.083 32.8713 123.994 32.5024 123.921L32.6118 123.5C32.924 123.566 33.1131 123.597 33.1779 123.589C33.2136 123.587 33.2404 123.577 33.2599 123.558C33.2809 123.541 33.3052 123.5 33.3296 123.431C33.3815 123.313 33.443 123.128 33.5152 122.877L33.9109 121.48L34.3707 119.697L34.6115 118.678C34.7105 118.275 34.7559 118.032 34.7493 117.943C34.7462 117.904 34.7314 117.872 34.7105 117.845C34.6553 117.791 34.463 117.706 34.134 117.596" fill="#B97D1C"/>
<path d="M40.9395 123.581C41.1842 123.682 41.4624 123.793 41.7771 123.911C42.082 124.025 42.3543 124.12 42.5968 124.201L42.6495 121.484L40.9395 123.581ZM38.2588 125.445L38.4031 125.061C38.6229 125.121 38.7566 125.15 38.802 125.154C38.8489 125.154 38.8905 125.144 38.9318 125.127C38.9706 125.109 39.0194 125.073 39.0704 125.021C39.1254 124.967 39.3048 124.766 39.6081 124.413C39.7467 124.247 40.0207 123.917 40.427 123.423L42.5756 120.816L43.3177 119.888L43.8788 120.1L43.8334 125.609L43.8398 126.337L43.8375 126.823C43.8423 126.892 43.8545 126.942 43.8666 126.975C43.8819 127.01 43.9031 127.035 43.9282 127.06C43.9525 127.083 44.0264 127.124 44.148 127.178C44.1844 127.201 44.2396 127.228 44.3127 127.267L44.169 127.651L43.0834 127.209L41.6847 126.726L41.8273 126.337C42.1532 126.443 42.3415 126.489 42.3901 126.479C42.4419 126.466 42.4785 126.431 42.5028 126.369C42.5304 126.292 42.5482 126.153 42.5522 125.956L42.5935 124.81L40.5575 124.048L40.1756 124.538C39.8868 124.916 39.7208 125.158 39.6818 125.262C39.6541 125.337 39.6541 125.399 39.6859 125.445C39.7336 125.511 39.9113 125.609 40.2194 125.738L40.0751 126.126L39.1759 125.75L38.2588 125.445" fill="#B97D1C"/>
<path d="M44.2593 127.695L44.432 127.309C44.7328 127.415 44.9127 127.469 44.9808 127.469C45.0157 127.473 45.0497 127.46 45.0832 127.44C45.122 127.411 45.1625 127.359 45.204 127.288C45.298 127.124 45.4828 126.753 45.7578 126.18C45.889 125.904 46.1088 125.424 46.416 124.737C46.6911 124.127 46.9302 123.581 47.133 123.105C47.3398 122.628 47.4475 122.339 47.4629 122.24C47.4712 122.192 47.4695 122.151 47.4589 122.119C47.4458 122.086 47.4135 122.051 47.3576 122.011C47.2028 121.903 47.0566 121.814 46.9254 121.748L47.0973 121.362C47.6154 121.619 47.9762 121.793 48.1757 121.885C48.4399 122.003 48.7108 122.111 48.9857 122.209L48.9242 123.257L48.8885 124.056L48.7822 127.575C49.3101 127.099 49.7122 126.724 49.9912 126.454L51.0607 125.426C51.6583 124.853 52.0215 124.5 52.1579 124.367C52.2933 124.233 52.457 124.062 52.6468 123.849C52.9735 124.021 53.1852 124.129 53.2793 124.172L54.4428 124.654L54.2709 125.038L54.2167 125.015C53.9572 124.895 53.7731 124.855 53.6693 124.899C53.568 124.94 53.4673 125.067 53.3733 125.279C53.2623 125.53 53.1747 125.719 53.1138 125.848L52.5285 127.112L51.8173 128.702C51.6421 129.088 51.5433 129.314 51.5165 129.383C51.3648 129.775 51.278 130.018 51.2529 130.111C51.2431 130.157 51.2417 130.196 51.2498 130.234C51.2595 130.267 51.2805 130.3 51.3129 130.331C51.3469 130.362 51.5011 130.454 51.7768 130.601L51.6064 130.989L50.3918 130.404L49.1731 129.897L49.3458 129.515C49.6692 129.642 49.859 129.702 49.919 129.69C49.9798 129.679 50.0423 129.621 50.1128 129.52C50.1801 129.416 50.3601 129.046 50.644 128.409L52.1231 125.115L50.2791 126.836L49.3774 127.701C49.1399 127.927 48.8001 128.258 48.3573 128.696C48.0881 128.959 47.8757 129.171 47.7142 129.337L47.4539 129.219C47.4751 128.926 47.4977 128.517 47.5197 128C47.5611 127.112 47.587 126.445 47.5992 126.005L47.6779 123.122L46.6797 125.345C46.5134 125.715 46.322 126.159 46.1007 126.674C45.8809 127.191 45.7601 127.483 45.74 127.558C45.7196 127.631 45.714 127.687 45.7229 127.724C45.7302 127.768 45.7578 127.807 45.8022 127.855C45.8485 127.901 45.9978 127.99 46.2483 128.125L46.0764 128.509C45.7983 128.361 45.5095 128.218 45.2079 128.081C44.8156 127.907 44.4992 127.778 44.2593 127.695" fill="#B97D1C"/>
<path d="M56.6652 126.192L56.8412 125.818L57.9561 126.385L59.6776 127.149C60.0124 127.307 60.2557 127.473 60.4099 127.643C60.5656 127.817 60.6619 128.04 60.6993 128.316C60.7383 128.596 60.6775 128.903 60.5168 129.241C60.3587 129.58 60.143 129.864 59.8731 130.088C59.6014 130.317 59.2811 130.456 58.9098 130.508C58.5376 130.562 58.1905 130.512 57.8677 130.36C57.7867 130.319 57.7081 130.277 57.6375 130.232C57.5646 130.184 57.4949 130.132 57.4266 130.076C57.443 129.978 57.4453 129.852 57.4422 129.69L57.5686 129.63C57.6132 129.679 57.6595 129.719 57.7048 129.752C57.7486 129.785 57.7907 129.812 57.8328 129.831C58.0769 129.949 58.3316 129.943 58.587 129.812C58.8448 129.686 59.0646 129.422 59.2504 129.03C59.4432 128.621 59.5066 128.274 59.436 127.988C59.3662 127.703 59.1798 127.489 58.8797 127.346C58.7379 127.28 58.57 127.224 58.3786 127.18C58.2764 127.361 58.1378 127.631 57.9692 127.988L57.5401 128.86L56.7374 130.562C56.5396 130.979 56.3409 131.415 56.1423 131.869C56.0254 132.133 55.9623 132.303 55.9509 132.382C55.947 132.417 55.9509 132.453 55.9646 132.486C55.9769 132.519 56.0134 132.556 56.0701 132.6L56.5639 132.88L56.3775 133.277C55.7361 132.949 55.2511 132.706 54.9252 132.552C54.5643 132.38 54.2132 132.229 53.8784 132.094L54.0623 131.699C54.3471 131.828 54.5369 131.888 54.6309 131.876C54.6616 131.869 54.6909 131.859 54.7177 131.834C54.7548 131.799 54.8198 131.697 54.9147 131.527C55.1692 131.06 55.4336 130.535 55.7118 129.949L56.4593 128.365L56.8381 127.514C57.0058 127.149 57.1063 126.921 57.1405 126.827C57.1769 126.736 57.1964 126.665 57.1972 126.618C57.1997 126.589 57.1924 126.562 57.1746 126.53C57.159 126.503 57.1241 126.464 57.0675 126.42L56.6652 126.192" fill="#B97D1C"/>
<path d="M61.2896 128.378L61.459 128.008C61.519 128.035 61.7177 128.137 62.0616 128.312C62.2285 128.397 62.471 128.511 62.7857 128.656C63.0541 128.781 63.2859 128.878 63.4838 128.953C63.8082 129.082 64.0733 129.194 64.28 129.289C64.6815 129.474 64.9669 129.644 65.1355 129.804C65.3017 129.966 65.4072 130.184 65.451 130.462C65.494 130.74 65.4429 131.033 65.3017 131.34C65.1355 131.701 64.8849 131.99 64.5599 132.199C64.229 132.409 63.8261 132.511 63.3468 132.503C63.3501 132.667 63.359 132.837 63.3775 133.013C63.3922 133.192 63.4034 133.3 63.4034 133.333C63.4034 133.37 63.4043 133.408 63.4084 133.441L63.5236 134.755C63.5535 135.108 63.5689 135.295 63.573 135.321C63.6289 135.708 63.6637 135.936 63.6824 136.011C63.7019 136.083 63.727 136.141 63.7586 136.181C63.7912 136.22 63.8632 136.27 63.984 136.328L63.8024 136.725C63.4148 136.532 63.1294 136.395 62.9542 136.312C62.7516 136.218 62.544 136.131 62.3373 136.05C62.356 135.98 62.3641 135.88 62.3641 135.751L62.2765 133.785C62.2513 133.221 62.2156 132.768 62.1718 132.432C62.1532 132.262 62.1183 132.127 62.0705 132.025L62.1824 131.894C62.484 132.048 62.7329 132.116 62.9252 132.106C63.1205 132.092 63.325 131.994 63.5325 131.826C63.7416 131.654 63.9078 131.431 64.0359 131.155C64.1617 130.877 64.2136 130.622 64.186 130.387C64.1567 130.153 64.0766 129.958 63.9427 129.812C63.8568 129.719 63.6776 129.607 63.3995 129.48C63.277 129.422 63.1506 129.378 63.0208 129.349C62.9623 129.451 62.8432 129.694 62.6607 130.068C62.2536 130.91 61.9861 131.475 61.8547 131.764C61.6471 132.214 61.43 132.696 61.2053 133.202C60.9303 133.827 60.7763 134.184 60.7431 134.269C60.6725 134.441 60.6368 134.556 60.6337 134.618C60.6337 134.647 60.6393 134.676 60.6546 134.705C60.6677 134.738 60.6959 134.769 60.7431 134.805C60.7885 134.84 60.9311 134.917 61.1744 135.035L60.9928 135.434C60.5656 135.211 60.1301 134.998 59.6817 134.794C59.2844 134.609 58.9097 134.45 58.5593 134.315L58.7426 133.918C59.0395 134.041 59.2194 134.101 59.2836 134.105C59.3168 134.111 59.3475 134.105 59.3695 134.091C59.393 134.078 59.4245 134.041 59.4594 133.981C59.5325 133.87 59.6257 133.698 59.7456 133.466L60.379 132.164L61.1485 130.489L61.567 129.528C61.7339 129.152 61.8248 128.92 61.832 128.83C61.8354 128.791 61.8287 128.758 61.8111 128.729C61.7656 128.662 61.5921 128.546 61.2896 128.378" fill="#B97D1C"/>
<path d="M69.3667 131.568L69.194 131.969C68.9281 131.863 68.7674 131.807 68.7132 131.799C68.6555 131.791 68.6159 131.793 68.5858 131.803C68.5559 131.813 68.5307 131.834 68.5104 131.859C68.4708 131.905 68.4122 131.994 68.3416 132.139C68.3012 132.214 68.2356 132.361 68.1382 132.579C67.8017 133.323 67.6209 133.721 67.5966 133.777L66.797 135.61L66.4475 136.449C66.3113 136.76 66.2343 136.97 66.2206 137.076C66.2133 137.121 66.2164 137.161 66.2303 137.194C66.2449 137.227 66.2773 137.264 66.3235 137.302C66.3682 137.337 66.518 137.414 66.7719 137.532L66.5976 137.931C66.1857 137.725 65.7421 137.522 65.2645 137.314C64.8501 137.134 64.4771 136.982 64.1406 136.862L64.3158 136.461C64.589 136.565 64.7488 136.625 64.7943 136.631C64.8535 136.644 64.8981 136.644 64.9263 136.629C64.9556 136.617 64.9774 136.598 64.9938 136.573C65.0164 136.54 65.0901 136.401 65.2117 136.16C65.3894 135.803 65.5476 135.473 65.6829 135.164L66.51 133.262C66.7727 132.658 66.9399 132.27 67.0111 132.094C67.1628 131.701 67.2543 131.454 67.2786 131.351C67.2875 131.309 67.2875 131.272 67.2795 131.243C67.2722 131.216 67.2504 131.182 67.2114 131.151C67.1734 131.116 67.0127 131.035 66.7395 130.9L66.9131 130.499C67.2284 130.661 67.5966 130.836 68.0166 131.016C68.4886 131.224 68.9378 131.407 69.3667 131.568" fill="#B97D1C"/>
<path d="M67.1936 138.244L67.347 137.852C67.6517 137.941 67.8375 137.985 67.9023 137.981C67.938 137.981 67.9712 137.968 68.0013 137.945C68.0387 137.916 68.0783 137.862 68.1157 137.788C68.2024 137.619 68.3671 137.24 68.6101 136.654C68.7295 136.37 68.9248 135.88 69.1974 135.178C69.4373 134.553 69.648 133.995 69.829 133.509C70.0074 133.024 70.1006 132.731 70.1103 132.627C70.1159 132.581 70.1136 132.542 70.0989 132.509C70.0885 132.478 70.0512 132.444 69.9943 132.407C69.833 132.305 69.6846 132.224 69.5467 132.164L69.6999 131.772C70.232 132.002 70.6008 132.158 70.8053 132.237C71.0729 132.343 71.3502 132.436 71.6315 132.521L71.6225 133.57L71.629 134.371L71.7021 137.889C72.2056 137.385 72.589 136.993 72.8535 136.706L73.8711 135.627C74.4346 135.025 74.7809 134.651 74.9098 134.512C75.0387 134.371 75.1919 134.19 75.3704 133.968C75.7052 134.124 75.9242 134.221 76.0191 134.259L77.2071 134.682L77.0545 135.075L77.0001 135.05C76.7326 134.946 76.5478 134.917 76.4463 134.965C76.3458 135.012 76.2543 135.143 76.1706 135.359C76.0702 135.614 75.9957 135.807 75.9421 135.938L75.4215 137.235L74.7923 138.857C74.6397 139.253 74.5515 139.484 74.5287 139.554C74.3973 139.955 74.3219 140.2 74.3032 140.293C74.2952 140.343 74.2968 140.384 74.3066 140.418C74.318 140.451 74.3414 140.484 74.3738 140.511C74.4079 140.542 74.5677 140.625 74.8515 140.758L74.6997 141.152L73.4551 140.634L72.2169 140.187L72.3678 139.797C72.6986 139.909 72.8909 139.959 72.9509 139.944C73.0084 139.928 73.0683 139.872 73.1333 139.764C73.1964 139.656 73.3554 139.278 73.6076 138.626L74.9106 135.261L73.1593 137.076L72.3036 137.985C72.0799 138.224 71.7581 138.572 71.3388 139.031C71.0835 139.307 70.8807 139.531 70.7297 139.706L70.4613 139.6C70.4688 139.305 70.4694 138.896 70.4663 138.379C70.4607 137.491 70.451 136.824 70.442 136.386L70.3715 133.501L69.4892 135.772C69.3433 136.15 69.1714 136.602 68.9784 137.13C68.787 137.655 68.6807 137.954 68.6654 138.028C68.6467 138.103 68.645 138.159 68.6556 138.199C68.6654 138.24 68.6954 138.277 68.744 138.323C68.7903 138.367 68.9443 138.45 69.2038 138.57L69.0506 138.965C68.7635 138.828 68.4684 138.701 68.1618 138.581C67.7622 138.427 67.4377 138.313 67.1936 138.244" fill="#B97D1C"/>
<path d="M77.3988 135.164L77.5174 134.769L78.822 135.195L79.3692 135.346L79.9207 135.494L80.0698 135.531L79.9531 135.926C79.6612 135.84 79.469 135.816 79.3733 135.853C79.3248 135.87 79.2801 135.917 79.2428 135.992C79.1454 136.177 78.9972 136.604 78.7977 137.273L78.4685 138.375L78.3062 138.933C78.1335 139.515 78.0313 139.874 78.0023 140.013C77.9356 140.32 77.9267 140.575 77.9755 140.791C78.0257 141.003 78.1393 141.196 78.3143 141.372C78.4919 141.549 78.7442 141.686 79.0701 141.783C79.4447 141.893 79.7659 141.908 80.0343 141.825C80.3002 141.74 80.5158 141.592 80.6838 141.379C80.849 141.167 81.0331 140.723 81.2343 140.046L81.5228 139.077C81.7736 138.242 81.9268 137.732 81.9795 137.547C82.0872 137.144 82.1416 136.899 82.1375 136.806C82.1344 136.75 82.1123 136.702 82.0791 136.665C82.0054 136.584 81.8213 136.496 81.5245 136.397L81.6422 136C82.1246 136.168 82.4092 136.266 82.5001 136.293C82.526 136.301 82.5607 136.312 82.612 136.322L83.5168 136.561L83.4 136.957C83.1488 136.88 82.9842 136.858 82.907 136.887C82.864 136.903 82.8243 136.941 82.7855 137.009C82.7417 137.073 82.6249 137.387 82.4351 137.952C82.2471 138.516 82.1026 138.965 82.0054 139.295L81.6729 140.409C81.5878 140.698 81.4798 140.986 81.3559 141.281C81.2301 141.574 81.0803 141.813 80.9098 141.995C80.7388 142.182 80.5304 142.329 80.2848 142.444C80.0407 142.562 79.7698 142.624 79.4763 142.632C79.1836 142.641 78.8616 142.595 78.5098 142.493C78.1002 142.369 77.7386 142.188 77.4217 141.954C77.1912 141.779 77.0177 141.588 76.9027 141.381C76.7858 141.171 76.7138 140.955 76.6885 140.731C76.6603 140.507 76.6634 140.301 76.7007 140.11C76.7219 139.994 76.807 139.683 76.9561 139.185L77.2334 138.271L77.5927 137.065C77.7264 136.621 77.8399 136.22 77.93 135.859C77.9632 135.718 77.9786 135.614 77.973 135.544C77.9688 135.504 77.9495 135.452 77.9089 135.388L77.3988 135.164" fill="#B97D1C"/>
<path d="M82.3452 143.471L82.4208 143.058C82.7377 143.091 82.9283 143.097 82.9924 143.083C83.0265 143.077 83.0556 143.058 83.084 143.031C83.1147 142.994 83.1432 142.934 83.1666 142.853C83.221 142.67 83.3127 142.269 83.4408 141.649C83.5048 141.348 83.6063 140.827 83.7424 140.09C83.8657 139.432 83.9695 138.844 84.0563 138.334C84.1422 137.823 84.1794 137.516 84.1705 137.414C84.1682 137.366 84.1584 137.329 84.1373 137.3C84.1177 137.271 84.0789 137.244 84.0148 137.219C83.8373 137.148 83.6783 137.096 83.5324 137.063L83.6085 136.648C84.1738 136.779 84.5638 136.862 84.7812 136.903C85.0649 136.955 85.3537 136.997 85.6447 137.028L85.8303 138.062L85.9845 138.844L86.7102 142.29C87.11 141.7 87.4147 141.242 87.6223 140.916L88.4211 139.664C88.863 138.967 89.1331 138.537 89.2344 138.375C89.3357 138.213 89.4526 138.008 89.5871 137.759C89.9472 137.848 90.1774 137.902 90.2787 137.92L91.5242 138.116L91.4497 138.531L91.3889 138.52C91.1066 138.464 90.9202 138.471 90.8301 138.533C90.741 138.601 90.6729 138.749 90.6314 138.975C90.5812 139.245 90.5415 139.45 90.5148 139.589L90.243 140.957L89.9236 142.668C89.849 143.085 89.8044 143.33 89.7938 143.401C89.7388 143.818 89.7112 144.075 89.7112 144.173C89.7112 144.22 89.7201 144.26 89.7355 144.291C89.755 144.322 89.781 144.349 89.8214 144.372C89.8605 144.395 90.0323 144.447 90.3356 144.526L90.2592 144.941L88.9409 144.661L87.6385 144.455L87.7157 144.04C88.0587 144.09 88.2613 144.104 88.3165 144.079C88.3709 144.052 88.4211 143.982 88.4632 143.863C88.5045 143.749 88.5896 143.349 88.7179 142.664L89.3755 139.11L87.9897 141.221L87.3168 142.271C87.1416 142.549 86.8902 142.952 86.5643 143.479C86.364 143.799 86.2075 144.054 86.0898 144.254L85.8068 144.202C85.7583 143.909 85.6852 143.511 85.5839 143C85.4145 142.126 85.2831 141.476 85.1914 141.045L84.5873 138.224L84.1422 140.617C84.0692 141.018 83.9866 141.495 83.8931 142.047C83.8008 142.599 83.7522 142.915 83.7505 142.992C83.7472 143.064 83.7545 143.122 83.7732 143.158C83.7902 143.195 83.8251 143.23 83.8819 143.264C83.9369 143.297 84.1024 143.351 84.3789 143.419L84.3002 143.836C83.9963 143.756 83.6824 143.687 83.358 143.625C82.9339 143.548 82.5974 143.498 82.3452 143.471" fill="#B97D1C"/>
<path d="M99.2704 144.368L99.0684 144.864C98.7132 145.076 98.3971 145.223 98.1156 145.298C97.8352 145.377 97.4839 145.412 97.0655 145.404C96.4703 145.393 95.9441 145.275 95.4901 145.047C95.1325 144.862 94.8317 144.621 94.5859 144.324C94.3387 144.025 94.1529 143.704 94.0232 143.359C93.8262 142.836 93.7321 142.269 93.7419 141.663C93.7581 140.621 94.0742 139.774 94.6905 139.124C95.306 138.475 96.1656 138.157 97.2691 138.176C97.6477 138.18 97.9909 138.217 98.2916 138.288C98.5916 138.36 98.9403 138.481 99.3368 138.657L99.3578 138.722C99.3084 138.877 99.2727 139.07 99.2419 139.305C99.1957 139.679 99.1624 140.023 99.1471 140.341L98.8179 140.337C98.8179 139.973 98.8089 139.681 98.7902 139.465C98.6038 139.226 98.3971 139.052 98.1636 138.933C97.93 138.817 97.6299 138.755 97.2643 138.749C96.6042 138.74 96.073 138.975 95.6685 139.461C95.2647 139.946 95.058 140.629 95.0432 141.509C95.0351 142.041 95.0943 142.506 95.2226 142.904C95.3498 143.305 95.5209 143.635 95.7399 143.899C95.958 144.16 96.176 144.353 96.4014 144.476C96.7047 144.64 97.0744 144.725 97.5116 144.731C97.7995 144.735 98.0702 144.7 98.3265 144.629C98.5827 144.557 98.8633 144.432 99.1672 144.252L99.2704 144.368" fill="#B97D1C"/>
<path d="M101.048 141.416C101.136 142.184 101.297 142.809 101.531 143.288C101.769 143.77 102.039 144.098 102.341 144.272C102.644 144.449 102.985 144.513 103.364 144.472C103.716 144.428 104.021 144.297 104.277 144.067C104.531 143.836 104.711 143.479 104.815 142.992C104.919 142.504 104.934 141.923 104.858 141.252C104.803 140.791 104.714 140.376 104.585 140.002C104.457 139.633 104.298 139.32 104.107 139.072C103.917 138.821 103.707 138.639 103.473 138.522C103.242 138.406 102.947 138.367 102.587 138.406C102.182 138.454 101.846 138.605 101.587 138.865C101.327 139.122 101.156 139.479 101.076 139.934C100.996 140.391 100.987 140.885 101.048 141.416ZM99.7916 141.858C99.721 141.256 99.7397 140.723 99.8443 140.258C99.9473 139.795 100.127 139.39 100.378 139.046C100.63 138.701 100.917 138.439 101.238 138.263C101.652 138.039 102.114 137.896 102.626 137.837C103.134 137.781 103.605 137.815 104.037 137.933C104.36 138.026 104.651 138.18 104.915 138.394C105.177 138.608 105.386 138.836 105.538 139.075C105.69 139.313 105.813 139.581 105.912 139.876C106.009 140.173 106.079 140.501 106.119 140.866C106.192 141.485 106.165 142.068 106.043 142.618C105.953 143.027 105.799 143.398 105.576 143.735C105.352 144.071 105.084 144.339 104.773 144.54C104.347 144.812 103.84 144.982 103.261 145.047C102.633 145.117 102.077 145.047 101.596 144.829C101.115 144.613 100.715 144.26 100.398 143.766C100.082 143.272 99.8792 142.637 99.7916 141.858" fill="#B97D1C"/>
<path d="M111.949 138.147L111.62 138.228C111.596 138.126 111.553 137.972 111.492 137.775C111.449 137.634 111.406 137.518 111.363 137.422C111.273 137.343 111.178 137.283 111.085 137.24C110.871 137.144 110.639 137.08 110.39 137.059C110.137 137.036 109.866 137.061 109.573 137.13C108.892 137.3 108.406 137.682 108.118 138.277C107.83 138.877 107.792 139.612 108.006 140.482C108.236 141.433 108.641 142.136 109.209 142.589C109.779 143.046 110.377 143.197 111.003 143.041C111.186 142.998 111.361 142.931 111.522 142.844C111.684 142.757 111.837 142.649 111.983 142.522C111.969 142.433 111.935 142.263 111.878 142.014C111.825 141.765 111.791 141.617 111.778 141.566C111.702 141.256 111.648 141.076 111.61 141.024C111.586 140.988 111.543 140.97 111.48 140.97C111.378 140.961 111.11 140.993 110.681 141.067L110.584 140.677L111.813 140.397L113.042 140.077L113.118 140.395C112.971 140.472 112.881 140.55 112.846 140.629C112.83 140.667 112.837 140.758 112.866 140.905C112.944 141.277 113.002 141.545 113.04 141.707C113.1 141.95 113.174 142.197 113.262 142.448C112.808 142.79 112.403 143.052 112.048 143.237C111.69 143.419 111.324 143.556 110.947 143.65C110.334 143.799 109.761 143.809 109.226 143.683C108.855 143.589 108.519 143.434 108.216 143.22C107.912 143.004 107.664 142.753 107.46 142.471C107.15 142.028 106.922 141.509 106.773 140.912C106.65 140.407 106.605 139.951 106.641 139.546C106.674 139.137 106.772 138.767 106.93 138.429C107.088 138.093 107.288 137.802 107.532 137.555C107.78 137.31 108.05 137.113 108.346 136.959C108.642 136.806 108.982 136.683 109.358 136.592C109.822 136.478 110.266 136.422 110.69 136.422C111.114 136.426 111.454 136.457 111.706 136.521L111.762 136.604C111.767 136.903 111.827 137.418 111.949 138.147" fill="#B97D1C"/>
<path d="M114.494 142.103C114.799 141.972 114.972 141.891 115.011 141.86C115.035 141.837 115.054 141.808 115.064 141.773C115.072 141.736 115.068 141.673 115.051 141.58C115.024 141.458 114.937 141.165 114.797 140.702C114.714 140.44 114.598 140.102 114.447 139.689L113.909 138.192L113.4 136.841C113.313 136.615 113.254 136.467 113.215 136.405C113.178 136.343 113.14 136.297 113.104 136.274C113.067 136.251 113.016 136.239 112.95 136.243C112.887 136.245 112.713 136.285 112.426 136.364L112.285 135.969C112.628 135.872 112.877 135.793 113.036 135.737L113.606 135.512L113.966 135.365C114.812 136.007 115.821 136.733 116.988 137.547C117.829 138.132 118.515 138.581 119.043 138.894L118.654 137.815C118.051 136.141 117.678 135.162 117.543 134.879C117.491 134.767 117.438 134.701 117.39 134.68C117.31 134.645 117.091 134.688 116.737 134.809L116.595 134.416C116.924 134.321 117.228 134.228 117.497 134.13C117.757 134.035 118.092 133.904 118.494 133.734L118.638 134.124C118.318 134.25 118.136 134.346 118.092 134.416C118.077 134.437 118.07 134.468 118.075 134.504C118.09 134.67 118.193 135.035 118.383 135.593C118.569 136.154 118.712 136.567 118.806 136.831C119.552 138.9 120.021 140.15 120.217 140.58L120.181 140.64C119.942 140.677 119.702 140.719 119.457 140.764C118.2 139.948 116.379 138.699 114.001 137.015L114.839 139.336C115.011 139.82 115.201 140.32 115.408 140.835C115.549 141.192 115.644 141.406 115.694 141.476C115.717 141.509 115.748 141.534 115.78 141.547C115.814 141.561 115.863 141.561 115.931 141.549C116.11 141.514 116.242 141.48 116.322 141.449C116.337 141.443 116.361 141.433 116.397 141.416L116.534 141.796C116.028 141.968 115.741 142.066 115.672 142.089C115.415 142.184 115.07 142.319 114.637 142.5L114.494 142.103" fill="#B97D1C"/>
<path d="M120.854 136.216C121.165 136.922 121.509 137.47 121.879 137.858C122.248 138.244 122.6 138.479 122.943 138.554C123.285 138.634 123.63 138.593 123.98 138.437C124.303 138.294 124.553 138.074 124.729 137.781C124.903 137.484 124.967 137.088 124.922 136.594C124.875 136.096 124.715 135.537 124.441 134.921C124.254 134.497 124.04 134.126 123.808 133.81C123.576 133.495 123.329 133.246 123.073 133.065C122.818 132.88 122.561 132.77 122.304 132.729C122.048 132.685 121.755 132.737 121.425 132.884C121.051 133.051 120.777 133.295 120.605 133.619C120.432 133.943 120.379 134.333 120.438 134.794C120.497 135.251 120.638 135.726 120.854 136.216V136.216ZM119.786 137.011C119.543 136.459 119.397 135.946 119.359 135.471C119.319 134.998 119.367 134.556 119.506 134.153C119.642 133.748 119.839 133.412 120.095 133.148C120.42 132.81 120.82 132.54 121.29 132.33C121.757 132.125 122.216 132.013 122.664 131.998C123.001 131.992 123.325 132.05 123.641 132.177C123.958 132.303 124.224 132.457 124.439 132.64C124.655 132.822 124.854 133.04 125.035 133.293C125.216 133.545 125.382 133.841 125.528 134.176C125.782 134.744 125.93 135.307 125.981 135.87C126.017 136.285 125.981 136.687 125.868 137.073C125.755 137.46 125.581 137.796 125.343 138.082C125.017 138.47 124.587 138.78 124.052 139.018C123.474 139.276 122.921 139.371 122.398 139.309C121.874 139.247 121.385 139.029 120.936 138.651C120.488 138.273 120.104 137.729 119.786 137.011" fill="#B97D1C"/>
<path d="M128.839 130.885L128.52 131.039C128.346 130.699 128.215 130.464 128.125 130.329C127.984 130.238 127.791 130.19 127.547 130.184C127.305 130.176 127.064 130.232 126.827 130.346C126.484 130.514 126.267 130.748 126.18 131.043C126.092 131.34 126.115 131.624 126.249 131.898C126.351 132.094 126.455 132.239 126.567 132.334C126.68 132.432 126.803 132.49 126.935 132.513C127.068 132.536 127.246 132.53 127.467 132.496C127.63 132.459 127.856 132.405 128.144 132.33C128.433 132.253 128.618 132.21 128.707 132.191C128.941 132.154 129.143 132.148 129.312 132.175C129.483 132.199 129.631 132.251 129.764 132.33C129.89 132.407 130.025 132.521 130.156 132.673C130.291 132.822 130.41 133.005 130.517 133.223C130.703 133.603 130.8 133.97 130.806 134.323C130.813 134.589 130.77 134.856 130.678 135.124C130.587 135.392 130.469 135.614 130.325 135.799C130.09 136.09 129.764 136.339 129.339 136.546C129.029 136.7 128.735 136.802 128.459 136.851C128.184 136.903 127.86 136.914 127.489 136.891C127.4 136.513 127.188 135.979 126.85 135.286L127.166 135.13C127.268 135.346 127.414 135.606 127.604 135.909C127.789 136.048 128.033 136.129 128.334 136.154C128.636 136.181 128.923 136.127 129.197 135.99C129.437 135.874 129.627 135.72 129.765 135.527C129.906 135.336 129.972 135.131 129.972 134.913C129.97 134.697 129.915 134.479 129.806 134.255C129.714 134.068 129.606 133.922 129.483 133.814C129.357 133.711 129.21 133.65 129.046 133.632C128.88 133.615 128.616 133.638 128.255 133.709C127.745 133.819 127.404 133.885 127.235 133.906C126.979 133.935 126.75 133.91 126.548 133.829C126.343 133.748 126.159 133.619 125.989 133.445C125.824 133.273 125.682 133.067 125.566 132.828C125.402 132.496 125.311 132.16 125.293 131.822C125.271 131.483 125.321 131.191 125.442 130.939C125.559 130.688 125.723 130.472 125.937 130.281C126.151 130.097 126.383 129.941 126.64 129.812C126.907 129.682 127.182 129.584 127.461 129.518C127.738 129.449 127.996 129.426 128.234 129.441L128.316 129.532C128.376 129.744 128.442 129.945 128.517 130.136C128.589 130.331 128.697 130.578 128.839 130.885" fill="#B97D1C"/>
<path d="M136.659 131.668L136.71 132.202C136.497 132.557 136.283 132.833 136.07 133.032C135.856 133.229 135.563 133.424 135.19 133.615C134.659 133.883 134.139 134.022 133.631 134.032C133.228 134.035 132.85 133.96 132.492 133.814C132.135 133.663 131.822 133.468 131.547 133.221C131.127 132.851 130.779 132.395 130.503 131.851C130.034 130.923 129.918 130.026 130.161 129.165C130.402 128.301 131.016 127.622 131.999 127.12C132.339 126.95 132.657 126.823 132.958 126.746C133.256 126.667 133.624 126.616 134.055 126.584L134.104 126.632C134.135 126.79 134.189 126.981 134.274 127.205C134.406 127.554 134.536 127.874 134.672 128.166L134.379 128.311C134.207 127.99 134.063 127.736 133.945 127.552C133.673 127.431 133.406 127.373 133.146 127.375C132.885 127.384 132.59 127.469 132.264 127.635C131.677 127.932 131.316 128.388 131.186 129.007C131.054 129.623 131.186 130.323 131.585 131.11C131.827 131.583 132.094 131.969 132.395 132.262C132.692 132.554 132.999 132.768 133.314 132.899C133.631 133.032 133.915 133.098 134.17 133.1C134.516 133.102 134.882 133.007 135.269 132.81C135.526 132.681 135.752 132.523 135.945 132.341C136.138 132.158 136.325 131.915 136.512 131.614L136.659 131.668" fill="#B97D1C"/>
<path d="M137.484 132.247L137.364 132.009C137.475 131.851 137.554 131.706 137.606 131.569C137.559 131.436 137.472 131.228 137.346 130.946C137.112 130.425 136.939 130.049 136.824 129.819L135.833 127.82C135.791 127.741 135.646 127.454 135.389 126.958C135.216 126.628 135.097 126.431 135.031 126.371C135.003 126.35 134.977 126.335 134.943 126.333C134.859 126.331 134.663 126.394 134.359 126.522L134.189 126.18L135.062 125.738C135.237 125.648 135.4 125.569 135.559 125.491C135.905 125.316 136.287 125.123 136.704 124.903L137.462 124.5C137.552 124.455 137.739 124.372 138.02 124.245C138.047 124.233 138.093 124.222 138.16 124.21L138.214 124.253L138.461 124.93C138.48 124.976 138.573 125.196 138.741 125.588L138.445 125.736C138.269 125.387 138.149 125.179 138.091 125.109C138.06 125.071 138.032 125.048 138.002 125.042C137.957 125.032 137.845 125.057 137.667 125.121C137.4 125.212 137.149 125.316 136.909 125.435C136.686 125.545 136.464 125.667 136.239 125.804C136.372 126.161 136.567 126.597 136.824 127.116L137.28 128.036C137.459 127.967 137.641 127.884 137.828 127.791C137.884 127.766 138.091 127.656 138.443 127.465C138.578 127.396 138.653 127.342 138.668 127.313C138.684 127.284 138.685 127.247 138.676 127.195C138.651 127.064 138.573 126.869 138.446 126.605L138.754 126.452L139.222 127.44L139.721 128.403L139.415 128.557C139.248 128.21 139.125 128.006 139.044 127.946C138.983 127.903 138.91 127.892 138.823 127.917C138.632 127.973 138.399 128.067 138.123 128.204C137.877 128.326 137.678 128.436 137.529 128.538L138.454 130.402C138.558 130.609 138.651 130.786 138.732 130.931C138.946 130.85 139.191 130.74 139.47 130.601C139.743 130.47 139.989 130.333 140.208 130.198C140.427 130.064 140.554 129.966 140.588 129.902C140.601 129.881 140.602 129.844 140.597 129.796C140.573 129.63 140.486 129.337 140.339 128.916L140.65 128.762C140.884 129.376 141.097 129.873 141.283 130.252L141.263 130.333C141.113 130.437 140.889 130.558 140.593 130.705L139.977 130.994C139.373 131.28 138.956 131.479 138.729 131.593C138.669 131.62 138.254 131.84 137.484 132.247" fill="#B97D1C"/>
<path d="M139.219 124.087L139.05 123.718C139.109 123.689 139.318 123.604 139.674 123.458C139.848 123.386 140.094 123.28 140.407 123.137C140.676 123.014 140.905 122.904 141.09 122.804C141.4 122.642 141.659 122.514 141.866 122.42C142.267 122.24 142.584 122.134 142.812 122.113C143.046 122.088 143.278 122.153 143.517 122.304C143.755 122.452 143.944 122.68 144.083 122.989C144.25 123.354 144.304 123.73 144.248 124.116C144.19 124.5 144.003 124.872 143.683 125.227C143.808 125.335 143.944 125.439 144.089 125.542C144.236 125.646 144.322 125.708 144.351 125.731C144.379 125.756 144.404 125.777 144.433 125.798L145.502 126.572C145.787 126.775 145.942 126.888 145.964 126.902C146.29 127.114 146.489 127.234 146.556 127.269C146.625 127.303 146.684 127.321 146.734 127.323C146.785 127.328 146.869 127.303 146.993 127.253L147.173 127.647C146.772 127.817 146.484 127.938 146.307 128.019C146.104 128.112 145.901 128.21 145.707 128.314C145.665 128.255 145.595 128.183 145.498 128.1L143.953 126.879C143.509 126.528 143.147 126.259 142.863 126.07C142.719 125.976 142.597 125.912 142.489 125.881L142.462 125.713C142.777 125.584 142.988 125.443 143.108 125.285C143.225 125.129 143.288 124.915 143.293 124.644C143.3 124.374 143.241 124.1 143.115 123.826C142.988 123.552 142.828 123.344 142.633 123.211C142.439 123.078 142.24 123.014 142.041 123.016C141.912 123.02 141.709 123.085 141.433 123.211C141.312 123.269 141.196 123.336 141.084 123.413C141.126 123.525 141.23 123.772 141.393 124.156C141.766 125.015 142.018 125.588 142.149 125.875C142.353 126.327 142.575 126.804 142.812 127.307C143.106 127.923 143.273 128.27 143.318 128.353C143.4 128.517 143.463 128.621 143.509 128.664C143.53 128.685 143.555 128.698 143.589 128.708C143.618 128.718 143.665 128.718 143.72 128.704C143.778 128.691 143.931 128.635 144.177 128.532L144.36 128.928C143.913 129.107 143.463 129.295 143.016 129.499C142.619 129.682 142.251 129.86 141.923 130.036L141.741 129.638C142.025 129.493 142.191 129.397 142.235 129.351C142.264 129.329 142.279 129.304 142.282 129.275C142.288 129.248 142.279 129.202 142.258 129.136C142.222 129.009 142.154 128.826 142.055 128.583L141.486 127.251L140.724 125.574L140.27 124.627C140.095 124.253 139.977 124.033 139.915 123.973C139.889 123.944 139.859 123.927 139.825 123.921C139.747 123.913 139.546 123.967 139.219 124.087" fill="#B97D1C"/>
<path d="M147.332 127.595L147.234 127.346C147.36 127.201 147.453 127.062 147.517 126.931C147.483 126.794 147.413 126.58 147.314 126.285C147.128 125.746 146.99 125.36 146.899 125.117L146.092 123.035C146.062 122.954 145.944 122.653 145.731 122.136C145.589 121.789 145.489 121.586 145.43 121.517C145.405 121.495 145.377 121.478 145.344 121.472C145.258 121.463 145.06 121.509 144.746 121.607L144.61 121.254L145.518 120.893C145.699 120.82 145.871 120.751 146.037 120.689C146.395 120.55 146.795 120.39 147.23 120.212L148.022 119.882C148.116 119.844 148.309 119.776 148.603 119.678C148.628 119.668 148.674 119.66 148.742 119.655L148.794 119.705L148.978 120.399C148.994 120.446 149.065 120.675 149.195 121.081L148.888 121.2C148.742 120.837 148.643 120.616 148.593 120.542C148.565 120.502 148.538 120.477 148.511 120.469C148.463 120.452 148.352 120.469 148.168 120.515C147.894 120.581 147.634 120.662 147.387 120.76C147.152 120.849 146.92 120.951 146.684 121.065C146.783 121.434 146.937 121.885 147.147 122.429L147.516 123.384C147.7 123.33 147.889 123.267 148.082 123.19C148.142 123.168 148.357 123.078 148.726 122.921C148.866 122.863 148.945 122.821 148.962 122.792C148.981 122.765 148.986 122.723 148.982 122.672C148.968 122.543 148.91 122.341 148.811 122.065L149.13 121.941L149.501 122.968L149.912 123.973L149.595 124.096C149.46 123.738 149.355 123.525 149.28 123.458C149.224 123.408 149.152 123.392 149.065 123.408C148.868 123.446 148.628 123.518 148.342 123.628C148.084 123.728 147.877 123.819 147.717 123.907L148.467 125.848C148.552 126.063 148.628 126.248 148.697 126.4C148.916 126.342 149.17 126.252 149.463 126.142C149.743 126.032 150.001 125.92 150.233 125.808C150.464 125.692 150.598 125.605 150.638 125.544C150.653 125.524 150.658 125.49 150.655 125.441C150.647 125.273 150.589 124.974 150.481 124.54L150.802 124.417C150.983 125.048 151.148 125.563 151.3 125.958L151.272 126.038C151.113 126.126 150.879 126.227 150.568 126.346L149.93 126.576C149.301 126.804 148.868 126.966 148.633 127.058C148.569 127.081 148.135 127.261 147.332 127.595" fill="#B97D1C"/>
<path d="M152.253 118.852L152.154 118.456C152.218 118.441 152.438 118.395 152.816 118.319C153 118.281 153.266 118.221 153.599 118.138C153.884 118.07 154.127 118.001 154.33 117.939C154.665 117.837 154.942 117.76 155.164 117.706C155.594 117.6 155.923 117.559 156.15 117.58C156.385 117.598 156.601 117.706 156.807 117.897C157.013 118.088 157.155 118.35 157.236 118.678C157.333 119.066 157.317 119.446 157.188 119.813C157.062 120.181 156.807 120.511 156.427 120.801C156.533 120.93 156.647 121.059 156.769 121.185C156.892 121.314 156.966 121.391 156.989 121.42C157.012 121.449 157.036 121.476 157.06 121.501L157.969 122.458C158.209 122.713 158.337 122.85 158.357 122.869C158.641 123.139 158.813 123.294 158.873 123.34C158.932 123.386 158.986 123.417 159.04 123.427C159.088 123.44 159.177 123.431 159.306 123.402L159.409 123.826C158.984 123.917 158.679 123.986 158.49 124.031C158.274 124.087 158.055 124.143 157.844 124.21C157.811 124.143 157.756 124.058 157.678 123.961L156.387 122.474C156.013 122.047 155.709 121.715 155.465 121.478C155.343 121.356 155.233 121.273 155.133 121.223L155.139 121.053C155.471 120.984 155.709 120.882 155.851 120.752C155.996 120.619 156.096 120.421 156.155 120.158C156.21 119.89 156.202 119.614 156.13 119.321C156.059 119.024 155.939 118.792 155.769 118.626C155.603 118.46 155.419 118.358 155.225 118.325C155.095 118.304 154.886 118.331 154.591 118.402C154.459 118.435 154.333 118.481 154.211 118.537C154.232 118.655 154.285 118.914 154.377 119.323C154.587 120.237 154.726 120.847 154.799 121.152C154.918 121.634 155.046 122.144 155.187 122.684C155.36 123.342 155.461 123.718 155.486 123.803C155.541 123.984 155.585 124.098 155.618 124.148C155.635 124.17 155.659 124.189 155.69 124.201C155.718 124.218 155.764 124.226 155.818 124.226C155.877 124.226 156.037 124.195 156.302 124.139L156.406 124.563C155.934 124.654 155.457 124.756 154.982 124.874C154.553 124.98 154.164 125.088 153.805 125.196L153.701 124.774C154.01 124.685 154.192 124.623 154.241 124.588C154.271 124.569 154.292 124.546 154.3 124.519C154.312 124.496 154.312 124.446 154.302 124.376C154.292 124.245 154.259 124.052 154.207 123.797L153.891 122.381L153.457 120.592L153.186 119.581C153.083 119.178 153.007 118.941 152.962 118.869C152.936 118.836 152.91 118.813 152.878 118.8C152.806 118.777 152.594 118.796 152.253 118.852" fill="#B97D1C"/>
<path d="M159.601 123.838L159.567 123.57C159.725 123.458 159.85 123.348 159.943 123.236C159.943 123.097 159.93 122.871 159.904 122.562C159.858 121.995 159.821 121.582 159.79 121.326L159.524 119.109C159.513 119.024 159.469 118.703 159.393 118.15C159.34 117.779 159.294 117.557 159.254 117.478C159.236 117.447 159.214 117.424 159.182 117.411C159.101 117.382 158.897 117.376 158.569 117.397L158.522 117.015L159.494 116.89C159.686 116.866 159.869 116.845 160.046 116.824C160.428 116.778 160.853 116.72 161.32 116.654L162.167 116.527C162.271 116.515 162.473 116.496 162.781 116.473C162.81 116.469 162.855 116.473 162.921 116.486L162.958 116.546L162.965 117.264C162.966 117.316 162.982 117.553 163.009 117.98L162.682 118.02C162.631 117.632 162.589 117.397 162.559 117.31C162.541 117.264 162.524 117.235 162.497 117.216C162.458 117.194 162.342 117.179 162.151 117.179C161.875 117.175 161.599 117.189 161.337 117.221C161.088 117.25 160.837 117.295 160.581 117.349C160.587 117.727 160.623 118.202 160.692 118.779L160.815 119.797C161.008 119.79 161.206 119.776 161.411 119.751C161.475 119.743 161.706 119.709 162.101 119.647C162.255 119.626 162.341 119.604 162.364 119.581C162.388 119.558 162.402 119.523 162.411 119.471C162.432 119.34 162.426 119.132 162.394 118.838L162.734 118.796L162.842 119.882L162.996 120.959L162.657 120.998C162.613 120.617 162.56 120.386 162.507 120.303C162.467 120.243 162.398 120.208 162.311 120.203C162.113 120.191 161.86 120.203 161.555 120.239C161.282 120.27 161.058 120.309 160.882 120.355L161.131 122.418C161.16 122.651 161.188 122.846 161.214 123.012C161.444 123.008 161.713 122.987 162.02 122.952C162.324 122.912 162.599 122.869 162.851 122.815C163.107 122.761 163.257 122.709 163.309 122.661C163.327 122.645 163.343 122.613 163.353 122.566C163.387 122.402 163.402 122.097 163.404 121.65L163.747 121.607C163.764 122.267 163.799 122.804 163.849 123.224L163.804 123.294C163.627 123.34 163.374 123.381 163.043 123.421L162.368 123.483C161.704 123.554 161.245 123.604 160.994 123.633C160.926 123.643 160.462 123.709 159.601 123.838" fill="#B97D1C"/>
<path d="M164.391 116.71L164.4 116.305C164.463 116.305 164.688 116.32 165.073 116.34C165.261 116.355 165.527 116.363 165.875 116.372C166.171 116.376 166.422 116.376 166.633 116.367C166.983 116.357 167.269 116.355 167.498 116.359C167.938 116.367 168.267 116.413 168.485 116.494C168.705 116.571 168.888 116.733 169.038 116.971C169.185 117.208 169.257 117.499 169.249 117.833C169.24 118.236 169.125 118.597 168.908 118.921C168.69 119.244 168.36 119.494 167.915 119.678C167.984 119.826 168.061 119.981 168.146 120.135C168.232 120.293 168.283 120.386 168.299 120.419C168.314 120.453 168.329 120.484 168.344 120.515L168.972 121.677C169.139 121.987 169.23 122.151 169.244 122.175C169.448 122.508 169.572 122.705 169.617 122.765C169.664 122.825 169.71 122.869 169.755 122.892C169.798 122.912 169.886 122.929 170.02 122.935L170.01 123.371C169.575 123.35 169.263 123.336 169.07 123.332C168.844 123.325 168.622 123.33 168.399 123.336C168.387 123.265 168.352 123.168 168.305 123.051L167.441 121.281C167.193 120.77 166.983 120.37 166.811 120.081C166.723 119.932 166.639 119.821 166.556 119.745L166.607 119.585C166.943 119.604 167.199 119.57 167.375 119.479C167.547 119.39 167.695 119.224 167.819 118.981C167.942 118.74 168.007 118.47 168.015 118.169C168.021 117.864 167.964 117.609 167.846 117.403C167.725 117.2 167.576 117.054 167.393 116.974C167.28 116.92 167.068 116.89 166.764 116.882C166.629 116.88 166.496 116.89 166.364 116.915C166.354 117.032 166.338 117.299 166.321 117.719C166.282 118.651 166.26 119.278 166.253 119.591C166.24 120.089 166.234 120.614 166.23 121.171C166.225 121.854 166.225 122.242 166.23 122.333C166.232 122.518 166.244 122.64 166.266 122.696C166.277 122.723 166.294 122.75 166.321 122.771C166.345 122.792 166.384 122.809 166.441 122.825C166.499 122.84 166.659 122.852 166.928 122.865L166.919 123.303C166.439 123.269 165.954 123.247 165.461 123.234C165.023 123.224 164.617 123.228 164.241 123.24L164.253 122.806C164.573 122.802 164.764 122.786 164.822 122.765C164.857 122.757 164.881 122.74 164.897 122.713C164.914 122.694 164.924 122.647 164.936 122.578C164.959 122.449 164.976 122.254 164.993 121.995L165.058 120.544L165.1 118.703L165.102 117.656C165.107 117.241 165.096 116.994 165.068 116.907C165.056 116.872 165.034 116.845 165.008 116.824C164.942 116.783 164.737 116.743 164.391 116.71" fill="#B97D1C"/>
<path d="M170.696 116.903L170.791 116.498L172.12 116.834L172.676 116.949L173.235 117.054L173.388 117.084L173.299 117.486C173.002 117.418 172.807 117.409 172.716 117.451C172.668 117.47 172.627 117.519 172.593 117.6C172.512 117.793 172.392 118.229 172.239 118.91L171.987 120.033L171.863 120.6C171.733 121.191 171.656 121.557 171.634 121.698C171.592 122.007 171.601 122.267 171.665 122.474C171.728 122.684 171.852 122.871 172.043 123.033C172.232 123.197 172.493 123.313 172.824 123.39C173.207 123.475 173.529 123.467 173.788 123.365C174.05 123.263 174.253 123.099 174.406 122.873C174.559 122.651 174.707 122.196 174.864 121.509L175.083 120.519C175.276 119.668 175.391 119.149 175.431 118.96C175.514 118.553 175.551 118.304 175.54 118.213C175.532 118.157 175.51 118.111 175.468 118.076C175.394 117.999 175.201 117.922 174.898 117.845L174.99 117.443C175.48 117.578 175.773 117.656 175.866 117.675C175.89 117.681 175.93 117.688 175.98 117.698L176.899 117.872L176.81 118.273C176.555 118.217 176.388 118.204 176.312 118.238C176.274 118.256 176.233 118.302 176.198 118.368C176.161 118.435 176.067 118.759 175.918 119.336C175.769 119.911 175.656 120.367 175.579 120.704L175.326 121.841C175.258 122.13 175.176 122.429 175.068 122.728C174.963 123.031 174.832 123.28 174.676 123.475C174.516 123.668 174.319 123.832 174.084 123.967C173.845 124.1 173.58 124.181 173.291 124.21C172.998 124.239 172.674 124.214 172.315 124.135C171.899 124.042 171.526 123.888 171.192 123.674C170.953 123.518 170.765 123.34 170.634 123.139C170.503 122.939 170.417 122.726 170.375 122.505C170.332 122.283 170.324 122.078 170.343 121.887C170.356 121.767 170.42 121.453 170.538 120.944L170.746 120.015L171.024 118.786C171.125 118.335 171.211 117.924 171.278 117.561C171.301 117.416 171.305 117.312 171.296 117.239C171.291 117.202 171.265 117.152 171.22 117.09L170.696 116.903" fill="#B97D1C"/>
<path d="M174.806 124.363L174.985 123.981C175.283 124.096 175.467 124.149 175.532 124.149C175.566 124.156 175.601 124.143 175.63 124.123C175.673 124.096 175.716 124.046 175.758 123.973C175.857 123.811 176.047 123.448 176.331 122.879C176.471 122.605 176.7 122.128 177.02 121.449C177.308 120.841 177.556 120.303 177.771 119.83C177.985 119.359 178.099 119.072 178.116 118.97C178.125 118.923 178.125 118.883 178.114 118.852C178.103 118.821 178.071 118.784 178.015 118.74C177.863 118.632 177.719 118.539 177.588 118.468L177.768 118.086C178.282 118.356 178.639 118.537 178.838 118.632C179.1 118.752 179.365 118.869 179.641 118.972L179.558 120.019L179.506 120.816L179.329 124.334C179.867 123.865 180.277 123.5 180.561 123.236L181.651 122.229C182.259 121.667 182.632 121.322 182.767 121.191C182.907 121.061 183.073 120.893 183.265 120.685C183.589 120.864 183.801 120.976 183.893 121.017L185.045 121.524L184.866 121.906L184.814 121.883C184.554 121.754 184.376 121.713 184.27 121.754C184.166 121.793 184.064 121.918 183.965 122.128C183.85 122.377 183.758 122.564 183.694 122.692L183.086 123.946L182.341 125.52C182.161 125.901 182.056 126.128 182.027 126.194C181.869 126.582 181.776 126.823 181.749 126.919C181.739 126.964 181.736 127.004 181.744 127.039C181.752 127.076 181.774 127.108 181.806 127.139C181.837 127.172 181.99 127.263 182.266 127.419L182.086 127.801L180.88 127.195L179.675 126.661L179.855 126.279C180.176 126.418 180.367 126.483 180.423 126.47C180.484 126.46 180.55 126.406 180.621 126.302C180.691 126.202 180.876 125.835 181.175 125.204L182.716 121.939L180.839 123.624L179.921 124.469C179.679 124.693 179.333 125.017 178.881 125.445C178.61 125.7 178.392 125.912 178.228 126.074L177.968 125.951C177.997 125.657 178.024 125.248 178.06 124.731C178.116 123.844 178.156 123.182 178.177 122.742L178.31 119.859L177.273 122.063C177.1 122.429 176.896 122.869 176.665 123.381C176.436 123.89 176.31 124.185 176.287 124.253C176.266 124.326 176.26 124.382 176.266 124.424C176.275 124.463 176.3 124.507 176.346 124.552C176.39 124.602 176.536 124.693 176.786 124.832L176.604 125.212C176.331 125.057 176.042 124.909 175.748 124.77C175.359 124.587 175.043 124.453 174.806 124.363" fill="#B97D1C"/>
<path d="M45.6327 0.00416363C45.3456 0.00416363 45.061 0.0809744 44.8414 0.269872C44.6168 0.467074 44.4781 0.745227 44.4625 1.04414C44.4536 1.22681 43.4944 19.4565 43.4944 42.8425C43.4944 67.1771 45.1154 80.2131 49.4721 90.9409C53.8912 101.828 60.7138 107.205 74.3298 115.141C87.3652 122.732 92.8206 123.755 96.4574 123.755C100.098 123.755 105.551 122.732 118.585 115.141C132.205 107.205 139.026 101.828 143.448 90.9409C147.802 80.2131 149.421 67.1771 149.421 42.8425C149.421 19.4565 148.464 1.22681 148.455 1.04414C148.438 0.745227 148.304 0.467074 148.073 0.269872C147.854 0.0768228 147.565 0.00416363 147.267 0.00416363C147.267 0.00416363 45.9197 0.00416363 45.6327 0.00416363V0.00416363ZM146.131 2.39757C146.35 7.05775 147.033 23.1494 147.033 42.8425C147.033 66.8346 145.463 79.6278 141.237 90.0421C139.193 95.0759 136.602 98.8892 132.837 102.401C129.453 105.563 124.975 108.654 117.383 113.077C111.575 116.461 106.939 118.738 103.211 120.042C99.8443 121.219 97.8335 121.37 96.4574 121.37C95.083 121.37 93.0728 121.219 89.7061 120.042C85.9763 118.738 81.3398 116.461 75.5306 113.077C67.9403 108.654 63.4634 105.563 60.0815 102.403C56.3166 98.8891 53.7266 95.0759 51.6832 90.0421C47.4546 79.6278 45.8816 66.8367 45.8816 42.8425C45.8816 23.1597 46.5651 7.08679 46.7858 2.41001L146.131 2.39757Z" fill="#B97D1C"/>
<path d="M127.072 29.4556L125.929 26.2547L124.796 29.4016L121.414 29.5365L124.1 31.6124L123.14 34.8402L125.917 32.9263L128.718 34.8402L127.757 31.5771L130.441 29.5365L127.072 29.4556" fill="#B97D1C"/>
<path d="M123.118 47.6023L125.684 49.9729L125.429 46.4876L128.884 45.9604L126.001 43.9863L127.741 40.9556L124.4 41.979L123.118 38.7283L121.834 41.979L118.493 40.9556L120.234 43.9863L117.351 45.9604L120.805 46.4876L120.55 49.9729L123.118 47.6023" fill="#B97D1C"/>
<path d="M137.054 28.4302L139.62 30.8029L139.367 27.3155L142.821 26.7883L139.937 24.8142L141.679 21.7856L138.337 22.8069L137.054 19.5582L135.772 22.8069L132.43 21.7856L134.171 24.8142L131.288 26.7883L134.742 27.3155L134.488 30.8029L137.054 28.4302Z" fill="#B97D1C"/>
<path d="M124.586 15.3588L127.152 17.7314L126.898 14.2462L130.352 13.7189L127.469 11.7427L129.21 8.71414L125.868 9.73753L124.586 6.48681L123.302 9.73753L119.961 8.71414L121.703 11.7427L118.819 13.7189L122.273 14.2462L122.019 17.7314L124.586 15.3588Z" fill="#B97D1C"/>
<path d="M109.859 26.6865L112.426 29.0591L112.172 25.5739L115.626 25.0466L112.743 23.0705L114.484 20.0419L111.143 21.0652L109.859 17.8145L108.577 21.0652L105.235 20.0419L106.976 23.0705L104.093 25.0466L107.548 25.5739L107.294 29.0591L109.859 26.6865" fill="#B97D1C"/>
<path d="M123.246 55.891C109.114 49.1343 99.6173 44.3413 96.1916 44.3413C92.7721 44.3413 83.8219 49.1343 69.6908 55.891C55.5592 62.6498 50.7346 64.0988 50.7346 67.0547C50.7346 70.0106 54.2043 68.6032 55.2584 68.2877C56.3133 67.9722 92.3723 56.3041 96.1916 56.3041C100.013 56.3041 136.621 67.9722 137.678 68.2877C138.733 68.6032 142.2 70.0106 142.2 67.0547C142.2 64.0988 137.375 62.6498 123.246 55.891Z" fill="#B97D1C"/>
<path d="M131.369 77.9795C125.24 80.0366 120.375 84.5183 113.587 83.2438C107.636 82.1228 102.698 76.9831 96.4485 77.062C89.6072 77.1492 84.4445 83.0403 77.7322 83.6008C71.1343 84.1509 66.0014 78.8223 59.851 77.5602C57.0707 76.9914 54.6308 77.3754 52.3101 78.1725C52.7804 80.4601 53.3276 82.5691 53.957 84.5536C55.7887 84.1135 57.7194 83.9869 59.851 84.4249C66.0014 85.687 71.1343 91.0135 77.7322 90.4634C84.4445 89.905 89.6072 84.0139 96.4485 83.9246C102.698 83.8478 107.636 88.9854 113.587 90.1043C120.375 91.383 125.24 86.9013 131.369 84.8442C134.107 83.9246 136.554 84.0035 138.882 84.5826C139.51 82.6023 140.057 80.4975 140.527 78.2141C137.705 77.2364 134.76 76.842 131.369 77.9795Z" fill="#B97D1C"/>
<path d="M131.369 91.7068C125.24 93.764 120.375 98.2456 113.587 96.969C107.636 95.8501 102.698 90.7104 96.4484 90.7893C89.6072 90.8765 84.4445 96.7656 77.7322 97.3281C71.1342 97.8782 66.0014 92.5496 59.851 91.2875C58.685 91.0488 57.5807 90.9782 56.5183 91.0343C57.9091 93.8304 59.6409 96.2507 61.768 98.4324C61.8344 98.5009 61.9009 98.5528 61.9876 98.5943C62.6793 98.9306 66.2503 100.66 68.0342 101.556C71.0709 103.082 74.2421 104.481 77.7322 104.191C84.4445 103.63 89.6072 97.7391 96.4484 97.6519C102.698 97.573 107.636 102.713 113.587 103.832C117.742 104.614 121.239 103.209 124.684 101.552C126.474 100.691 130.299 98.7936 131.014 98.4366C131.1 98.393 131.165 98.3432 131.232 98.2747C133.252 96.1574 134.985 93.7307 136.327 91.0384C134.764 90.9367 133.126 91.1173 131.369 91.7068" fill="#B97D1C"/>
<path d="M79.5955 110.763C82.3272 112.301 84.7501 113.553 86.9062 114.543C89.9357 112.963 92.9755 111.423 96.4485 111.379C99.919 111.336 102.985 112.901 106.043 114.493C108.217 113.49 110.667 112.22 113.422 110.663C107.546 109.48 102.64 104.438 96.4485 104.517C90.2526 104.593 85.4345 109.432 79.5955 110.763" fill="#B97D1C"/>
<path d="M118.557 69.4978C111.317 67.2871 106.365 65.8423 102.982 64.8999C99.761 64.0011 98.2569 63.6627 97.2619 63.4095C96.9659 63.3348 96.4673 63.2414 96.3002 63.2102C96.0781 63.2497 95.774 63.314 95.3564 63.4095C94.5227 63.6005 93.2359 63.9222 91.26 64.4681C87.9069 65.3919 82.5626 66.9529 74.059 69.5892C71.3298 70.4361 68.2744 71.393 64.856 72.4724C69.031 74.4611 73.0359 77.1347 77.8052 76.7382C84.5176 76.1778 89.6795 70.2866 96.5215 70.1995C102.77 70.1206 107.709 75.2602 113.66 76.3791C119.189 77.4191 123.443 74.6375 128.143 72.46C124.569 71.3453 121.387 70.3634 118.557 69.4978" fill="#B97D1C"/>
</g>
<defs>
<clipPath id="clip0_431:4338">
<rect width="264.789" height="356" fill="white"/>
</clipPath>
</defs>
</svg>
