<svg width="265" height="356" viewBox="0 0 265 356" fill="none" xmlns="http://www.w3.org/2000/svg">
<g clip-path="url(#clip0_431:4337)">
<path d="M11.0172 222.206H25.3686L18.2363 201.999L11.0172 222.206ZM0 238.618L15.1639 196.693H21.2226L36.3849 238.618H30.9068L26.7884 227.137H9.6541L5.4506 238.618H0Z" fill="#100F0D"/>
<path d="M52.0134 239.197C50.4462 239.176 48.9736 238.95 47.5911 238.516C46.2078 238.08 44.9866 237.439 43.9244 236.585C42.8589 235.737 42.0244 234.678 41.4148 233.412C40.8074 232.148 40.5024 230.671 40.5024 228.99V208.639H45.8647V228.44C45.8647 230.393 46.4712 231.977 47.6793 233.195C48.886 234.414 50.7079 235.022 53.1439 235.022C55.3461 235.022 57.1203 234.446 58.4631 233.298C59.8057 232.148 60.4781 230.43 60.4781 228.152V208.639H65.8127V238.618H61.5509L61.001 232.876C60.6321 234.383 60.0094 235.601 59.1296 236.53C58.2505 237.457 57.1981 238.138 55.9697 238.574C54.7429 239.007 53.4218 239.215 52.0134 239.197" fill="#100F0D"/>
<path d="M84.2526 239.197C82.1654 239.197 80.2283 238.873 78.4387 238.225C76.6516 237.578 75.1677 236.563 73.9896 235.18C72.8106 233.799 72.0662 232.035 71.7573 229.889H76.6274C76.8989 231.067 77.3854 232.05 78.0916 232.832C78.7964 233.615 79.6817 234.207 80.7455 234.601C81.8079 234.997 82.9675 235.195 84.2242 235.195C86.2344 235.195 87.8577 234.819 89.095 234.065C90.3316 233.31 90.9504 232.152 90.9504 230.586C90.9504 229.484 90.6259 228.6 89.9781 227.934C89.3311 227.265 88.3297 226.777 86.9788 226.467L80.774 224.932C78.3575 224.353 76.4246 223.444 74.9748 222.207C73.5257 220.972 72.8025 219.24 72.8025 217.017C72.7813 215.258 73.1973 213.712 74.048 212.377C74.8978 211.045 76.1723 209.99 77.876 209.218C79.574 208.444 81.6919 208.058 84.2242 208.058C87.4718 208.058 90.0956 208.788 92.0944 210.248C94.0965 211.707 95.1344 213.847 95.2114 216.668H90.4864C90.2919 215.239 89.6497 214.103 88.5582 213.262C87.4659 212.421 86.0017 212.002 84.1667 212.002C82.2513 212.002 80.697 212.384 79.4986 213.145C78.2992 213.911 77.7008 215.093 77.7008 216.698C77.7008 217.762 78.1248 218.596 78.9755 219.205C79.8262 219.815 81.0829 220.321 82.746 220.728L88.7455 222.236C90.1394 222.603 91.2836 223.086 92.1828 223.686C93.0812 224.284 93.7949 224.951 94.3275 225.685C94.8602 226.422 95.2357 227.188 95.4586 227.989C95.6793 228.793 95.792 229.561 95.792 230.296C95.792 232.131 95.333 233.713 94.4134 235.035C93.4972 236.361 92.1828 237.384 90.4711 238.109C88.761 238.833 86.6892 239.197 84.2526 239.197" fill="#100F0D"/>
<path d="M117.276 212.551H110.52V231.195C110.52 232.26 110.631 233.036 110.853 233.528C111.076 234.022 111.454 234.335 111.984 234.47C112.516 234.605 113.245 234.674 114.173 234.674H117.449V238.269C117.082 238.403 116.526 238.52 115.784 238.618C115.039 238.713 114.115 238.761 113.014 238.761C110.946 238.761 109.342 238.483 108.2 237.92C107.06 237.361 106.262 236.53 105.81 235.427C105.355 234.327 105.127 232.973 105.127 231.367V212.551H100.257V208.639H105.273L106.576 199.911H110.52V208.607H117.276V212.551Z" fill="#100F0D"/>
<path d="M124.407 238.618V208.639H129.509V214.408C130.013 212.977 130.717 211.794 131.625 210.856C132.536 209.92 133.574 209.218 134.742 208.753C135.913 208.291 137.126 208.058 138.381 208.058C138.827 208.058 139.262 208.087 139.686 208.145C140.11 208.203 140.439 208.3 140.671 208.433V213.625C140.382 213.49 140.011 213.399 139.556 213.349C139.101 213.301 138.719 213.276 138.411 213.276C137.213 213.199 136.092 213.272 135.047 213.494C134.004 213.716 133.086 214.098 132.293 214.64C131.5 215.179 130.877 215.891 130.424 216.77C129.969 217.65 129.742 218.719 129.742 219.975V238.618H124.407Z" fill="#100F0D"/>
<path d="M155.458 235.34C156.464 235.34 157.463 235.158 158.458 234.789C159.453 234.422 160.366 233.924 161.199 233.298C162.03 232.668 162.692 231.963 163.185 231.18C163.677 230.398 163.933 229.59 163.953 228.76V223.628L159.487 223.713C157.207 223.753 155.298 223.985 153.761 224.409C152.227 224.834 151.075 225.503 150.311 226.412C149.547 227.319 149.167 228.508 149.167 229.976C149.167 231.657 149.75 232.973 150.921 233.92C152.089 234.866 153.602 235.34 155.458 235.34ZM153.834 239.197C151.901 239.197 150.189 238.852 148.704 238.168C147.214 237.482 146.05 236.49 145.209 235.195C144.37 233.902 143.946 232.337 143.946 230.499C143.946 227.174 145.108 224.699 147.427 223.076C149.746 221.452 153.467 220.583 158.588 220.466L163.953 220.321V217.974C163.953 216.136 163.401 214.683 162.302 213.611C161.199 212.537 159.487 212.002 157.167 212.002C155.447 212.021 153.935 212.425 152.63 213.22C151.328 214.011 150.481 215.306 150.095 217.104H145.368C145.484 215.153 146.035 213.504 147.022 212.161C148.007 210.816 149.383 209.797 151.152 209.101C152.922 208.406 155.014 208.058 157.428 208.058C160.04 208.058 162.209 208.427 163.939 209.16C165.668 209.894 166.962 210.978 167.824 212.409C168.683 213.837 169.114 215.597 169.114 217.684V238.618H164.532L164.156 232.993C162.997 235.33 161.521 236.95 159.735 237.847C157.945 238.746 155.979 239.197 153.834 239.197" fill="#100F0D"/>
<path d="M184.799 238.993C183.176 238.993 181.865 238.772 180.869 238.325C179.876 237.88 179.112 237.283 178.578 236.53C178.049 235.774 177.691 234.91 177.507 233.935C177.325 232.959 177.231 231.948 177.231 230.904V195.533H182.509V230.383C182.509 231.89 182.802 233.021 183.392 233.775C183.982 234.528 184.808 234.943 185.87 235.022L187.494 235.049V238.531C187.05 238.663 186.587 238.776 186.102 238.862C185.621 238.95 185.186 238.993 184.799 238.993" fill="#100F0D"/>
<path d="M199.412 208.639V238.618H194.223V208.639H199.412ZM199.528 196.721V202.288H194.048V196.721H199.528Z" fill="#100F0D"/>
<path d="M218.169 235.34C219.176 235.34 220.176 235.158 221.171 234.789C222.167 234.422 223.078 233.924 223.911 233.298C224.741 232.668 225.403 231.963 225.897 231.18C226.389 230.398 226.644 229.59 226.665 228.76V223.628L222.198 223.713C219.919 223.753 218.011 223.985 216.473 224.409C214.939 224.834 213.787 225.503 213.023 226.412C212.259 227.319 211.879 228.508 211.879 229.976C211.879 231.657 212.463 232.973 213.633 233.92C214.802 234.866 216.313 235.34 218.169 235.34V235.34ZM216.546 239.197C214.613 239.197 212.901 238.852 211.416 238.168C209.926 237.482 208.761 236.49 207.921 235.195C207.082 233.902 206.658 232.337 206.658 230.499C206.658 227.174 207.819 224.699 210.138 223.076C212.456 221.452 216.178 220.583 221.299 220.466L226.665 220.321V217.974C226.665 216.136 226.113 214.683 225.013 213.611C223.911 212.537 222.198 212.002 219.879 212.002C218.159 212.021 216.647 212.425 215.342 213.22C214.04 214.011 213.193 215.306 212.807 217.104H208.081C208.197 215.153 208.747 213.504 209.733 212.161C210.719 210.816 212.095 209.797 213.864 209.101C215.634 208.406 217.727 208.058 220.141 208.058C222.75 208.058 224.919 208.427 226.651 209.16C228.38 209.894 229.673 210.978 230.535 212.409C231.396 213.837 231.826 215.597 231.826 217.684V238.618H227.244L226.869 232.993C225.708 235.33 224.232 236.95 222.445 237.847C220.658 238.746 218.69 239.197 216.546 239.197Z" fill="#100F0D"/>
<path d="M239.709 238.618V208.639H244.899V212.988C245.383 212.155 246.053 211.373 246.915 210.638C247.774 209.905 248.82 209.315 250.045 208.869C251.274 208.427 252.689 208.203 254.292 208.203C256.187 208.203 257.931 208.581 259.525 209.334C261.121 210.087 262.398 211.262 263.355 212.857C264.31 214.451 264.787 216.506 264.787 219.018V238.618H259.423V219.539C259.423 217.202 258.811 215.466 257.584 214.335C256.355 213.206 254.765 212.639 252.814 212.639C251.461 212.639 250.194 212.857 249.015 213.291C247.838 213.726 246.879 214.383 246.147 215.263C245.41 216.143 245.044 217.249 245.044 218.582V238.618H239.709" fill="#100F0D"/>
<path d="M28.0922 250.601H33.4577V292.526H28.6728L6.17548 259.475V292.526H0.811646V250.601H5.94358L28.0922 283.191V250.601Z" fill="#100F0D"/>
<path d="M52.565 289.251C53.568 289.251 54.5711 289.066 55.5652 288.696C56.5593 288.331 57.4739 287.833 58.3034 287.206C59.1353 286.577 59.7977 285.873 60.2924 285.089C60.7829 284.306 61.0384 283.5 61.0602 282.668V277.537L56.595 277.624C54.3139 277.664 52.4068 277.894 50.8695 278.32C49.3311 278.744 48.183 279.411 47.4193 280.32C46.6538 281.23 46.2751 282.417 46.2751 283.887C46.2751 285.568 46.8572 286.882 48.0281 287.831C49.1949 288.777 50.7097 289.251 52.565 289.251V289.251ZM50.9392 293.106C49.0094 293.106 47.2943 292.761 45.8106 292.078C44.3193 291.391 43.155 290.401 42.3141 289.103C41.4748 287.81 41.0547 286.242 41.0547 284.407C41.0547 281.085 42.2142 278.61 44.5333 276.985C46.8532 275.363 50.5735 274.492 55.6932 274.377L61.0602 274.232V271.882C61.0602 270.047 60.5081 268.593 59.4085 267.519C58.3034 266.448 56.595 265.91 54.2751 265.91C52.5519 265.931 51.0414 266.336 49.7382 267.129C48.4344 267.92 47.5862 269.217 47.202 271.012H42.4745C42.5897 269.061 43.1419 267.413 44.1271 266.07C45.1123 264.727 46.4908 263.705 48.2583 263.011C50.0302 262.315 52.1189 261.969 54.5354 261.969C57.1463 261.969 59.3161 262.336 61.0432 263.068C62.7744 263.804 64.0701 264.887 64.9306 266.317C65.7877 267.748 66.2207 269.505 66.2207 271.594V292.526H61.6392L61.2647 286.903C60.1018 289.242 58.627 290.857 56.8422 291.758C55.0527 292.657 53.0871 293.106 50.9392 293.106" fill="#100F0D"/>
<path d="M88.0524 266.462H81.2946V285.105C81.2946 286.165 81.4073 286.944 81.6278 287.439C81.8509 287.93 82.2295 288.246 82.7591 288.381C83.2917 288.514 84.0216 288.582 84.9482 288.582H88.2242V292.177C87.8576 292.314 87.3013 292.429 86.5594 292.526C85.8142 292.624 84.8907 292.672 83.7889 292.672C81.7212 292.672 80.118 292.391 78.9755 291.831C77.8355 291.268 77.0392 290.438 76.5858 289.336C76.131 288.233 75.9023 286.882 75.9023 285.278V266.462H71.0322V262.548H76.0482L77.3522 253.821H81.2946V262.518H88.0524V266.462Z" fill="#100F0D"/>
<path d="M100.981 262.548V292.526H95.7918V262.548H100.981ZM101.098 250.63V256.198H95.6174V250.63H101.098Z" fill="#100F0D"/>
<path d="M121.74 288.873C123.536 288.873 125.054 288.42 126.292 287.509C127.528 286.602 128.466 285.298 129.103 283.594C129.742 281.896 130.062 279.874 130.062 277.537C130.062 275.39 129.782 273.462 129.22 271.753C128.659 270.043 127.764 268.683 126.539 267.679C125.31 266.674 123.711 266.17 121.74 266.17C119.923 266.17 118.386 266.621 117.131 267.519C115.874 268.417 114.923 269.717 114.275 271.419C113.627 273.121 113.302 275.158 113.302 277.537C113.302 279.644 113.592 281.557 114.173 283.276C114.752 284.997 115.662 286.361 116.899 287.365C118.136 288.37 119.748 288.873 121.74 288.873V288.873ZM121.74 293.106C118.975 293.106 116.558 292.51 114.491 291.322C112.423 290.133 110.82 288.391 109.679 286.089C108.538 283.789 107.968 280.978 107.968 277.653C107.968 274.521 108.5 271.777 109.562 269.418C110.626 267.062 112.187 265.229 114.246 263.924C116.304 262.62 118.801 261.969 121.74 261.969C124.504 261.969 126.905 262.573 128.944 263.78C130.983 264.988 132.564 266.762 133.684 269.101C134.806 271.438 135.366 274.29 135.366 277.653C135.366 280.704 134.849 283.395 133.815 285.713C132.781 288.032 131.255 289.844 129.233 291.15C127.214 292.454 124.716 293.106 121.74 293.106" fill="#100F0D"/>
<path d="M141.832 292.526V262.548H147.022V266.896C147.503 266.066 148.175 265.283 149.037 264.546C149.895 263.813 150.94 263.224 152.167 262.779C153.394 262.336 154.81 262.111 156.415 262.111C158.31 262.111 160.052 262.489 161.647 263.242C163.242 263.998 164.519 265.171 165.475 266.767C166.431 268.36 166.909 270.414 166.909 272.927V292.526H161.545V273.447C161.545 271.11 160.931 269.375 159.705 268.243C158.477 267.114 156.887 266.549 154.937 266.549C153.582 266.549 152.317 266.767 151.137 267.201C149.96 267.635 149.001 268.293 148.267 269.171C147.532 270.051 147.166 271.158 147.166 272.493V292.526H141.832" fill="#100F0D"/>
<path d="M184.539 289.251C185.544 289.251 186.544 289.066 187.538 288.696C188.535 288.331 189.447 287.833 190.279 287.206C191.11 286.577 191.774 285.873 192.266 285.089C192.759 284.306 193.014 283.5 193.034 282.668V277.537L188.567 277.624C186.288 277.664 184.379 277.894 182.843 278.32C181.307 278.744 180.156 279.411 179.392 280.32C178.627 281.23 178.247 282.417 178.247 283.887C178.247 285.568 178.831 286.882 180.001 287.831C181.171 288.777 182.684 289.251 184.539 289.251V289.251ZM182.915 293.106C180.982 293.106 179.271 292.761 177.784 292.078C176.295 291.391 175.131 290.401 174.29 289.103C173.45 287.81 173.029 286.242 173.029 284.407C173.029 281.085 174.188 278.61 176.507 276.985C178.826 275.363 182.549 274.492 187.668 274.377L193.034 274.232V271.882C193.034 270.047 192.482 268.593 191.383 267.519C190.279 266.448 188.567 265.91 186.248 265.91C184.528 265.931 183.017 266.336 181.711 267.129C180.409 267.92 179.562 269.217 179.176 271.012H174.449C174.564 269.061 175.115 267.413 176.103 266.07C177.088 264.727 178.464 263.705 180.234 263.011C182.003 262.315 184.095 261.969 186.508 261.969C189.119 261.969 191.289 262.336 193.019 263.068C194.749 263.804 196.043 264.887 196.904 266.317C197.764 267.748 198.195 269.505 198.195 271.594V292.526H193.613L193.238 286.903C192.077 289.242 190.603 290.857 188.816 291.758C187.026 292.657 185.06 293.106 182.915 293.106" fill="#100F0D"/>
<path d="M213.88 292.904C212.257 292.904 210.947 292.68 209.951 292.237C208.956 291.794 208.192 291.191 207.659 290.438C207.13 289.686 206.772 288.819 206.589 287.843C206.405 286.869 206.312 285.857 206.312 284.814V249.443H211.591V284.292C211.591 285.798 211.883 286.93 212.473 287.683C213.062 288.437 213.888 288.854 214.951 288.929L216.575 288.96V292.439C216.13 292.574 215.667 292.684 215.184 292.773C214.702 292.858 214.266 292.904 213.88 292.904Z" fill="#100F0D"/>
<path d="M31.4556 331.935C31.4556 335.165 30.9238 337.899 29.8614 340.141C28.7992 342.385 27.1411 344.089 24.8901 345.258C22.6376 346.429 19.7144 347.014 16.1199 347.014C12.4856 347.014 9.54219 346.414 7.29123 345.216C5.04029 344.016 3.39586 342.258 2.36201 339.939C1.32816 337.619 0.811646 334.767 0.811646 331.386V304.51H6.37821V332.199C6.37821 335.58 7.21824 338.112 8.90078 339.793C10.5825 341.476 12.9883 342.316 16.1199 342.316C18.2257 342.316 20.0201 341.949 21.4976 341.212C22.9766 340.479 24.1077 339.364 24.8901 337.866C25.6727 336.369 26.065 334.478 26.065 332.199V304.51H31.4556V331.935Z" fill="#100F0D"/>
<path d="M39.2827 346.433V316.456H44.4731V320.803C44.958 319.973 45.6286 319.19 46.4905 318.455C47.3476 317.72 48.3944 317.131 49.6179 316.686C50.8464 316.242 52.2646 316.02 53.8685 316.02C55.7635 316.02 57.5037 316.396 59.0994 317.152C60.6936 317.905 61.9706 319.077 62.929 320.672C63.8835 322.266 64.3603 324.321 64.3603 326.832V346.433H58.9981V327.356C58.9981 325.016 58.3834 323.283 57.1597 322.152C55.9313 321.02 54.3412 320.456 52.3887 320.456C51.0361 320.456 49.768 320.672 48.589 321.108C47.4132 321.542 46.4548 322.202 45.7219 323.08C44.9864 323.96 44.6173 325.064 44.6173 326.401V346.433H39.2827" fill="#100F0D"/>
<path d="M77.7864 316.456V346.433H72.5977V316.456H77.7864ZM77.9041 304.539V310.104H72.4236V304.539H77.9041Z" fill="#100F0D"/>
<path d="M110.055 316.456L99.2419 346.433H94.3719L83.5283 316.456H88.5725L96.5451 339.707H97.0372L105.04 316.456H110.055" fill="#100F0D"/>
<path d="M117.998 329.067H134.292C134.292 327.346 134.003 325.795 133.422 324.412C132.843 323.032 131.959 321.938 130.768 321.135C129.58 320.334 128.088 319.935 126.291 319.935C124.415 319.935 122.866 320.383 121.637 321.282C120.409 322.181 119.493 323.329 118.882 324.732C118.273 326.134 117.979 327.576 117.998 329.067V329.067ZM117.97 332.691C117.97 334.584 118.284 336.301 118.911 337.834C119.538 339.373 120.496 340.595 121.783 341.505C123.066 342.412 124.676 342.868 126.609 342.868C128.522 342.868 130.171 342.422 131.552 341.533C132.933 340.643 133.819 339.358 134.205 337.677H139.279C138.91 339.707 138.1 341.415 136.843 342.808C135.586 344.199 134.068 345.25 132.293 345.953C130.513 346.661 128.657 347.014 126.724 347.014C123.922 347.014 121.457 346.403 119.334 345.187C117.206 343.967 115.542 342.221 114.345 339.939C113.145 337.658 112.548 334.923 112.548 331.734C112.548 328.582 113.088 325.82 114.171 323.443C115.253 321.062 116.823 319.209 118.882 317.876C120.941 316.541 123.42 315.875 126.32 315.875C129.14 315.875 131.529 316.485 133.481 317.702C135.432 318.918 136.915 320.634 137.931 322.847C138.946 325.062 139.452 327.687 139.452 330.719V332.691H117.97" fill="#100F0D"/>
<path d="M146.209 346.433V316.456H151.311V322.223C151.815 320.793 152.52 319.609 153.428 318.673C154.338 317.735 155.376 317.033 156.545 316.57C157.715 316.107 158.929 315.875 160.183 315.875C160.629 315.875 161.064 315.901 161.489 315.96C161.913 316.02 162.242 316.118 162.474 316.253V321.44C162.184 321.305 161.813 321.214 161.358 321.166C160.903 321.118 160.521 321.093 160.214 321.093C159.015 321.016 157.895 321.089 156.85 321.309C155.807 321.534 154.888 321.916 154.095 322.455C153.302 322.997 152.679 323.707 152.227 324.587C151.771 325.465 151.543 326.534 151.543 327.792V346.433H146.209" fill="#100F0D"/>
<path d="M178.535 347.014C176.447 347.014 174.51 346.688 172.721 346.043C170.934 345.395 169.45 344.38 168.271 342.997C167.092 341.615 166.348 339.853 166.039 337.706H170.91C171.181 338.885 171.667 339.865 172.374 340.65C173.079 341.432 173.964 342.022 175.027 342.416C176.09 342.815 177.249 343.012 178.505 343.012C180.517 343.012 182.14 342.636 183.377 341.881C184.613 341.127 185.233 339.967 185.233 338.401C185.233 337.302 184.907 336.414 184.261 335.749C183.613 335.082 182.612 334.594 181.26 334.285L175.055 332.749C172.639 332.168 170.706 331.258 169.257 330.023C167.808 328.784 167.083 327.055 167.083 324.834C167.063 323.076 167.479 321.527 168.329 320.195C169.18 318.862 170.455 317.808 172.158 317.033C173.857 316.261 175.974 315.875 178.505 315.875C181.753 315.875 184.378 316.604 186.377 318.062C188.377 319.524 189.415 321.664 189.494 324.485H184.768C184.574 323.055 183.931 321.92 182.839 321.079C181.749 320.236 180.284 319.817 178.448 319.817C176.533 319.817 174.978 320.199 173.781 320.963C172.581 321.727 171.984 322.91 171.984 324.514C171.984 325.579 172.407 326.413 173.257 327.021C174.108 327.63 175.365 328.139 177.028 328.545L183.028 330.05C184.422 330.42 185.566 330.902 186.465 331.503C187.364 332.102 188.078 332.767 188.61 333.5C189.142 334.237 189.518 335.005 189.741 335.809C189.962 336.61 190.075 337.378 190.075 338.112C190.075 339.948 189.614 341.529 188.696 342.852C187.779 344.176 186.465 345.199 184.753 345.924C183.044 346.648 180.972 347.014 178.535 347.014" fill="#100F0D"/>
<path d="M202.773 316.456V346.433H197.585V316.456H202.773ZM202.89 304.539V310.104H197.41V304.539H202.89Z" fill="#100F0D"/>
<path d="M226.663 320.367H219.906V339.012C219.906 340.072 220.018 340.851 220.24 341.345C220.463 341.839 220.84 342.152 221.37 342.288C221.903 342.422 222.632 342.491 223.56 342.491H226.835V346.084C226.468 346.221 225.912 346.335 225.171 346.433C224.425 346.53 223.502 346.578 222.401 346.578C220.332 346.578 218.727 346.298 217.588 345.737C216.446 345.175 215.649 344.346 215.196 343.242C214.742 342.142 214.513 340.788 214.513 339.186V320.367H209.644V316.456H214.661L215.962 307.727H219.906V316.425H226.663V320.367Z" fill="#100F0D"/>
<path d="M236.955 356C235.197 356 233.658 355.749 232.344 355.247V351.767L235.388 351.826C236.511 351.865 237.438 351.788 238.171 351.593C238.908 351.4 239.496 351.141 239.942 350.81C240.386 350.482 240.729 350.115 240.969 349.71C241.212 349.301 241.409 348.916 241.565 348.548L242.607 345.708L230.896 316.456H236.315L245.158 339.591L253.943 316.456H259.193L246.549 348.695C245.777 350.587 244.913 352.067 243.956 353.131C243 354.194 241.937 354.937 240.768 355.363C239.597 355.786 238.327 356 236.955 356Z" fill="#100F0D"/>
<path d="M185.433 137.341C181.951 133.364 174.736 129.096 164.866 129.096C152.127 129.096 121.646 151.076 96.807 151.076C71.9679 151.076 41.4926 129.096 28.7524 129.096C18.8825 129.096 11.6699 133.364 8.18567 137.341C8.12566 129.8 6.75694 126.622 3.36186 120.749C7.63266 116.743 15.8094 109.544 26.8842 109.544C45.2687 109.544 81.4267 132.26 96.807 132.26C112.188 132.26 148.349 109.544 166.734 109.544C177.81 109.544 185.984 116.743 190.255 120.749C186.861 126.622 185.494 129.8 185.433 137.341ZM174.851 147.662C166.203 147.689 163.774 141.462 163.774 139.095C163.774 136.43 164.666 133.188 165.25 131.299C179.708 131.691 185.578 140.117 185.578 142.143C185.564 144.756 180.124 147.646 174.851 147.662V147.662ZM161.884 141.111C159.428 139.307 156.096 137.08 152.08 134.913C156.439 133.034 160.135 131.855 162.922 131.454C161.93 134.825 161.13 138.572 161.884 141.111ZM31.7372 141.111C32.4888 138.572 31.6892 134.825 30.6968 131.454C33.4821 131.855 37.1804 133.034 41.5379 134.913C37.5235 137.08 34.19 139.307 31.7372 141.111ZM18.7698 147.662C13.4936 147.646 8.05431 144.756 8.04215 142.143C8.04215 140.117 13.9103 131.691 28.368 131.299C28.9519 133.188 29.8453 136.43 29.8453 139.095C29.8453 141.462 27.4152 147.689 18.7698 147.662ZM13.9201 87.7276C13.9201 85.2885 15.4331 83.8811 17.5981 83.8479C20.1013 83.8147 24.2066 86.3057 27.1459 89.6788L22.7867 92.3213C21.7497 94.6192 23.8734 100.699 28.4904 100.699C30.9806 100.699 32.2277 98.966 35.9195 96.9296L41.4366 110.042C36.1896 108.405 31.2442 107.354 26.8842 107.354C25.0191 107.354 23.4234 107.491 21.9176 107.753C21.2714 106.428 20.6227 105.117 19.9894 103.842C15.8969 95.6094 13.9201 91.0281 13.9201 87.7276V87.7276ZM29.4553 98.3681C27.7014 99.0864 24.4119 96.6701 24.7328 93.6997L28.5091 91.4121C30.6393 94.1543 30.9806 97.7433 29.4553 98.3681ZM27.4403 75.5779C29.3207 74.5255 31.4071 74.4632 33.6459 75.3932C38.0358 77.2199 41.9954 82.536 42.7908 85.3902C43.8595 89.2221 42.3991 90.3223 42.3838 90.3327L32.5318 96.4584C33.2274 91.4682 24.021 81.4047 17.406 81.6787C19.708 79.8561 27.4403 75.5779 27.4403 75.5779V75.5779ZM157.702 96.9296C161.392 98.966 162.637 100.699 165.128 100.699C169.744 100.699 171.868 94.6192 170.83 92.3213L166.471 89.6788C169.412 86.3057 173.518 83.8147 176.022 83.8479C178.184 83.8811 179.699 85.2885 179.699 87.7276C179.699 91.0281 177.721 95.6094 173.631 103.842C172.998 105.117 172.348 106.428 171.701 107.753C170.197 107.491 168.6 107.354 166.734 107.354C162.376 107.354 157.429 108.405 152.18 110.042L157.702 96.9296ZM168.886 93.6997C169.207 96.6701 165.918 99.0864 164.164 98.3681C162.637 97.7433 162.978 94.1543 165.11 91.4121L168.886 93.6997ZM151.235 90.3327C151.219 90.3223 149.761 89.2221 150.829 85.3902C151.625 82.536 155.585 77.2199 159.976 75.3932C162.209 74.4632 164.297 74.5255 166.18 75.5779C166.18 75.5779 173.913 79.8561 176.214 81.6787C169.598 81.4047 160.391 91.4682 161.086 96.4584L151.235 90.3327ZM192.414 119.784C187.623 114.993 181.533 110.35 173.904 108.239C174.469 107.084 181.868 93.7391 181.868 87.7317C181.868 85.7057 181.005 83.1484 178.458 80.7155C176.338 78.6875 167.249 73.6682 167.249 73.6682C164.787 72.2898 161.98 72.1902 159.133 73.3755C153.87 75.5634 149.635 81.5209 148.72 84.8049C147.197 90.2621 149.771 92.0017 150.059 92.176L155.819 95.7568L149.43 110.941C139.623 114.011 107.684 130.072 96.807 130.072C85.9318 130.072 53.996 114.011 44.1895 110.941L37.8008 95.7568L43.5612 92.176C43.848 92.0017 46.4235 90.2621 44.899 84.8049C43.9836 81.5209 39.7492 75.5634 34.486 73.3755C31.6373 72.1902 28.8319 72.2898 26.3708 73.6682C26.3708 73.6682 17.2803 78.6875 15.1607 80.7155C12.613 83.1484 11.7502 85.7057 11.7502 87.7317C11.7502 93.7391 19.1509 107.084 19.7161 108.239C12.0875 110.35 5.99472 114.993 1.20578 119.784C0.848195 120.139 0.780894 120.693 1.04361 121.127C1.07524 121.177 4.24246 126.447 5.24467 130.08C6.33773 134.037 5.86337 142.234 5.86337 142.244C5.96635 145.985 11.9254 149.863 18.9701 149.863C28.8074 149.863 29.3207 143.268 44.0807 136.05C47.1612 137.536 77.1526 153.265 96.807 153.265C116.463 153.265 146.458 137.536 149.54 136.05C164.297 143.268 164.811 149.863 174.65 149.863C181.695 149.863 187.653 145.985 187.756 142.244C187.758 142.234 187.279 134.037 188.372 130.08C189.377 126.447 192.541 121.177 192.576 121.127C192.84 120.693 192.772 120.139 192.414 119.784Z" fill="#B97D1C"/>
<path d="M11.4786 128.015C11.7664 127.851 11.9278 127.751 11.9643 127.714C11.9862 127.687 12.0016 127.658 12.0064 127.622C12.0105 127.587 12.0016 127.523 11.9708 127.436C11.9302 127.313 11.8151 127.031 11.6213 126.589C11.5102 126.337 11.3577 126.014 11.1623 125.623L10.4569 124.193L9.80088 122.906C9.69061 122.692 9.61438 122.555 9.56818 122.495C9.52438 122.437 9.48303 122.398 9.44411 122.379C9.40357 122.358 9.35167 122.354 9.2868 122.364C9.22355 122.373 9.05408 122.433 8.7784 122.543L8.59351 122.169C8.92435 122.032 9.1668 121.926 9.3168 121.852L9.85765 121.565L10.1974 121.378C11.1104 121.92 12.1937 122.528 13.4449 123.207C14.3482 123.695 15.0788 124.062 15.6374 124.316L15.1307 123.286C14.3441 121.69 13.8665 120.76 13.6955 120.492C13.6322 120.388 13.5738 120.328 13.5227 120.311C13.44 120.289 13.2268 120.355 12.8903 120.515L12.7038 120.143C13.0232 120.01 13.3087 119.882 13.5681 119.755C13.8171 119.631 14.1333 119.462 14.5152 119.246L14.6993 119.622C14.3977 119.782 14.2282 119.9 14.1901 119.973C14.1787 119.996 14.1747 120.025 14.1828 120.058C14.2168 120.228 14.3612 120.577 14.6125 121.113C14.8606 121.646 15.0496 122.041 15.1728 122.294C16.145 124.266 16.7524 125.453 16.9924 125.86L16.9616 125.924C16.7297 125.987 16.4953 126.057 16.2618 126.128C14.9166 125.455 12.9697 124.419 10.4171 123.014L11.5102 125.227C11.7356 125.69 11.9788 126.161 12.244 126.653C12.424 126.993 12.5408 127.195 12.6008 127.257C12.6275 127.288 12.6584 127.309 12.694 127.319C12.7281 127.33 12.7776 127.323 12.8424 127.303C13.0184 127.247 13.1441 127.201 13.2195 127.162C13.2341 127.155 13.2592 127.141 13.2941 127.12L13.4708 127.479C12.9884 127.705 12.7143 127.838 12.647 127.869C12.4021 127.99 12.0745 128.166 11.6642 128.395L11.4786 128.015" fill="#B97D1C"/>
<path d="M18.306 122.684C18.5647 122.62 18.8534 122.543 19.1769 122.449C19.4891 122.362 19.7656 122.279 20.008 122.198L18.4374 119.981L18.306 122.684ZM17.2535 125.773L17.14 125.378C17.3541 125.297 17.4798 125.241 17.5171 125.214C17.5568 125.19 17.586 125.158 17.6055 125.121C17.6282 125.08 17.6444 125.023 17.6565 124.949C17.6695 124.874 17.6914 124.606 17.7271 124.143C17.7417 123.925 17.766 123.496 17.8001 122.858L17.9833 119.483L18.0303 118.298L18.6069 118.134L21.8398 122.601L22.2767 123.18L22.5638 123.572C22.6051 123.624 22.6442 123.658 22.6765 123.676C22.7083 123.695 22.7407 123.707 22.7772 123.709C22.8104 123.714 22.8922 123.703 23.0228 123.676C23.0649 123.67 23.1266 123.662 23.2086 123.649L23.3213 124.046L22.1835 124.332L20.7712 124.77L20.6575 124.376C20.9819 124.266 21.1595 124.193 21.1928 124.152C21.2276 124.112 21.2357 124.062 21.2179 124C21.1944 123.921 21.1255 123.799 21.0119 123.637L20.3664 122.688L18.2768 123.286L18.2606 123.905C18.2509 124.382 18.2606 124.675 18.2914 124.781C18.3133 124.857 18.3498 124.907 18.4025 124.926C18.4796 124.951 18.6807 124.926 19.0066 124.847L19.1185 125.241L18.1755 125.476L17.2535 125.773" fill="#B97D1C"/>
<path d="M23.5311 123.915L23.4809 123.508C23.8165 123.458 24.0112 123.408 24.0721 123.361C24.1296 123.313 24.1619 123.242 24.175 123.149C24.1887 123.006 24.1539 122.578 24.0721 121.866L23.7267 118.914C23.6318 118.111 23.5741 117.663 23.5562 117.567L22.9563 117.64C22.6555 117.673 22.3894 117.715 22.1625 117.766C22.0733 117.787 22.023 117.806 22.0091 117.825C21.9929 117.845 21.9832 117.905 21.9809 118.001C21.9711 118.236 21.9809 118.495 22.0083 118.784L21.6606 118.823C21.5697 118.15 21.5186 117.773 21.5058 117.688C21.4804 117.542 21.448 117.391 21.4109 117.225L21.44 117.171C21.5747 117.171 21.7148 117.169 21.8624 117.156C22.104 117.137 22.5671 117.088 23.2507 117.009L24.942 116.812C25.6434 116.729 26.1147 116.668 26.349 116.631C26.4787 116.608 26.606 116.581 26.7341 116.552L26.7826 116.594C26.7795 116.799 26.7843 116.976 26.7974 117.129C26.7974 117.154 26.8331 117.515 26.9084 118.209L26.5597 118.25C26.5248 117.995 26.4787 117.752 26.4188 117.524C26.3878 117.405 26.3619 117.335 26.3409 117.316C26.3214 117.301 26.2759 117.297 26.2029 117.297C25.9702 117.297 25.6922 117.318 25.3726 117.353L24.7743 117.426C24.7783 117.54 24.827 117.991 24.9194 118.777L25.2656 121.727C25.3483 122.437 25.4141 122.86 25.461 123.002C25.4911 123.087 25.5405 123.147 25.6094 123.18C25.6775 123.213 25.8811 123.215 26.2176 123.188L26.2645 123.595C25.7213 123.628 25.2632 123.666 24.8935 123.709C24.4962 123.755 24.0428 123.824 23.5311 123.915" fill="#B97D1C"/>
<path d="M27.343 116.957L27.3762 116.55L28.7392 116.699L29.3061 116.735L29.8761 116.764L30.0318 116.772L29.9978 117.183C29.6937 117.158 29.5006 117.175 29.4116 117.231C29.3692 117.254 29.3368 117.312 29.3134 117.395C29.2573 117.596 29.1998 118.043 29.1398 118.738L29.045 119.886L28.9987 120.467C28.9476 121.065 28.9217 121.441 28.92 121.582C28.92 121.893 28.9655 122.151 29.0547 122.348C29.1471 122.547 29.2963 122.713 29.5056 122.85C29.7163 122.985 29.9905 123.068 30.3301 123.097C30.7176 123.128 31.0365 123.076 31.2804 122.941C31.5237 122.804 31.7053 122.613 31.8261 122.373C31.9447 122.128 32.0345 121.656 32.0922 120.957L32.179 119.948C32.2519 119.076 32.2965 118.547 32.3087 118.356C32.337 117.939 32.3378 117.688 32.3143 117.598C32.299 117.544 32.2689 117.501 32.2276 117.472C32.14 117.409 31.9413 117.358 31.6324 117.32L31.6648 116.911C32.1715 116.978 32.4709 117.015 32.5666 117.021C32.5917 117.023 32.6297 117.025 32.6801 117.027L33.615 117.077L33.5802 117.486C33.3199 117.463 33.1544 117.476 33.0838 117.519C33.0481 117.544 33.0149 117.592 32.989 117.663C32.9614 117.735 32.9128 118.067 32.8431 118.657C32.7741 119.251 32.7222 119.718 32.6938 120.058L32.5965 121.223C32.5722 121.517 32.5253 121.823 32.4628 122.136C32.4011 122.449 32.3029 122.713 32.1757 122.929C32.0435 123.143 31.8708 123.334 31.6542 123.498C31.4369 123.662 31.1855 123.778 30.9026 123.846C30.6147 123.915 30.2913 123.934 29.928 123.903C29.5006 123.867 29.1097 123.766 28.7506 123.599C28.4903 123.479 28.2827 123.328 28.1229 123.147C27.968 122.966 27.8539 122.769 27.7808 122.553C27.7086 122.339 27.6714 122.138 27.6697 121.945C27.6633 121.825 27.6851 121.505 27.7281 120.984L27.8124 120.033L27.9195 118.779C27.9591 118.319 27.9867 117.901 28.0046 117.532C28.0071 117.387 27.999 117.279 27.9795 117.212C27.968 117.175 27.9381 117.129 27.8863 117.073L27.343 116.957" fill="#B97D1C"/>
<path d="M34.1342 117.596L34.2355 117.204C34.2979 117.216 34.5128 117.281 34.8833 117.393C35.065 117.447 35.3195 117.515 35.6561 117.605C35.9399 117.677 36.1863 117.733 36.3964 117.773C36.7362 117.839 37.0199 117.903 37.2404 117.962C37.6695 118.072 37.9783 118.188 38.1714 118.317C38.3659 118.443 38.5079 118.64 38.5986 118.906C38.6912 119.172 38.6943 119.471 38.6092 119.797C38.5095 120.185 38.3148 120.511 38.0302 120.774C37.744 121.04 37.3654 121.212 36.8927 121.287C36.9243 121.449 36.9631 121.613 37.0119 121.785C37.0604 121.96 37.0889 122.061 37.0945 122.099C37.1026 122.132 37.1098 122.167 37.1181 122.198L37.4642 123.473C37.5576 123.813 37.6062 123.994 37.6167 124.023C37.7384 124.392 37.8129 124.61 37.847 124.683C37.8793 124.75 37.9128 124.799 37.9507 124.833C37.9889 124.868 38.0715 124.903 38.1996 124.938L38.0886 125.364C37.6742 125.239 37.3726 125.156 37.1829 125.109C36.9656 125.05 36.7466 125.003 36.5301 124.959C36.5342 124.887 36.5253 124.785 36.5018 124.66L36.0655 122.74C35.9399 122.188 35.828 121.752 35.7234 121.428C35.6738 121.264 35.6155 121.138 35.5524 121.044L35.6391 120.901C35.9617 120.996 36.2187 121.019 36.4078 120.972C36.5967 120.922 36.7808 120.795 36.955 120.588C37.1302 120.382 37.256 120.133 37.3297 119.838C37.4058 119.545 37.4092 119.286 37.3419 119.058C37.2713 118.831 37.1586 118.655 36.9996 118.532C36.8983 118.458 36.7005 118.381 36.4078 118.304C36.2756 118.271 36.1425 118.25 36.0088 118.242C35.9706 118.356 35.8961 118.613 35.7842 119.016C35.5337 119.919 35.3691 120.521 35.2904 120.826C35.1679 121.306 35.039 121.818 34.9076 122.358C34.7503 123.02 34.6604 123.398 34.6417 123.489C34.6068 123.672 34.5915 123.795 34.5996 123.851C34.6035 123.882 34.6158 123.909 34.6336 123.938C34.6523 123.963 34.6894 123.99 34.7391 124.017C34.7893 124.044 34.9458 124.094 35.2036 124.17L35.0965 124.59C34.6367 124.449 34.1682 124.318 33.6922 124.193C33.2673 124.083 32.8723 123.994 32.5034 123.921L32.6114 123.5C32.925 123.566 33.1133 123.597 33.1781 123.589C33.2138 123.587 33.2405 123.577 33.2592 123.558C33.2818 123.541 33.3045 123.5 33.3304 123.431C33.3817 123.313 33.444 123.128 33.5162 122.877L33.911 121.48L34.3708 119.697L34.6124 118.678C34.7098 118.275 34.7552 118.032 34.7503 117.943C34.7463 117.904 34.7316 117.872 34.7098 117.845C34.6546 117.791 34.4632 117.706 34.1342 117.596" fill="#B97D1C"/>
<path d="M40.9386 123.581C41.1842 123.682 41.4632 123.793 41.7771 123.911C42.0812 124.025 42.3552 124.12 42.5976 124.201L42.6504 121.484L40.9386 123.581ZM38.2588 125.445L38.4022 125.061C38.6229 125.121 38.7566 125.15 38.802 125.154C38.8489 125.154 38.8905 125.144 38.9309 125.127C38.9706 125.109 39.0194 125.073 39.0713 125.021C39.1254 124.967 39.3048 124.766 39.6081 124.413C39.7467 124.247 40.0199 123.917 40.427 123.423L42.575 120.816L43.3169 119.888L43.8788 120.1L43.8334 125.609L43.8398 126.337L43.8375 126.823C43.8431 126.892 43.8554 126.942 43.8674 126.975C43.8819 127.01 43.9039 127.035 43.9282 127.06C43.9533 127.083 44.0256 127.124 44.148 127.178C44.1844 127.201 44.2388 127.228 44.3135 127.267L44.169 127.651L43.0825 127.209L41.6839 126.726L41.8281 126.337C42.1532 126.443 42.3406 126.489 42.3909 126.479C42.4411 126.466 42.4785 126.431 42.5028 126.369C42.5304 126.292 42.5482 126.153 42.5522 125.956L42.5929 124.81L40.5584 124.048L40.1756 124.538C39.886 124.916 39.7208 125.158 39.6818 125.262C39.6533 125.337 39.655 125.399 39.6859 125.445C39.7336 125.511 39.9113 125.609 40.2186 125.738L40.0751 126.126L39.1765 125.75L38.2588 125.445" fill="#B97D1C"/>
<path d="M44.2585 127.695L44.4321 127.309C44.7329 127.415 44.9137 127.469 44.9803 127.469C45.015 127.473 45.0492 127.46 45.0824 127.44C45.1221 127.411 45.1626 127.359 45.2041 127.288C45.2989 127.124 45.4829 126.753 45.7571 126.18C45.8891 125.904 46.1097 125.424 46.4161 124.737C46.6912 124.127 46.9295 123.581 47.1331 123.105C47.339 122.628 47.4484 122.339 47.4638 122.24C47.4719 122.192 47.4696 122.151 47.4598 122.119C47.4459 122.086 47.4136 122.051 47.3569 122.011C47.2029 121.903 47.0567 121.814 46.9255 121.748L47.0966 121.362C47.6155 121.619 47.9763 121.793 48.1766 121.885C48.4409 122.003 48.7101 122.111 48.9858 122.209L48.9243 123.257L48.8886 124.056L48.7823 127.575C49.3102 127.099 49.7123 126.724 49.9913 126.454L51.0607 125.426C51.6584 124.853 52.0216 124.5 52.1572 124.367C52.2925 124.233 52.458 124.062 52.6469 123.849C52.9744 124.021 53.1853 124.129 53.2785 124.172L54.4429 124.654L54.271 125.038L54.2168 125.015C53.9573 124.895 53.7732 124.855 53.6702 124.899C53.5681 124.94 53.4683 125.067 53.3734 125.279C53.2615 125.53 53.1756 125.719 53.1131 125.848L52.5285 127.112L51.8182 128.702C51.6422 129.088 51.5434 129.314 51.5158 129.383C51.3649 129.775 51.2789 130.018 51.2521 130.111C51.2432 130.157 51.2424 130.196 51.249 130.234C51.2596 130.267 51.2806 130.3 51.313 130.331C51.3462 130.362 51.5019 130.454 51.7761 130.601L51.6073 130.989L50.3911 130.404L49.1724 129.897L49.3459 129.515C49.6693 129.642 49.8599 129.702 49.9191 129.69C49.9793 129.679 50.0432 129.621 50.1121 129.52C50.1802 129.416 50.3595 129.046 50.6433 128.409L52.1223 125.115L50.2784 126.836L49.3783 127.701C49.1392 127.927 48.801 128.258 48.3574 128.696C48.089 128.959 47.8758 129.171 47.7152 129.337L47.4534 129.219C47.4744 128.926 47.4978 128.517 47.5198 128C47.562 127.112 47.5871 126.445 47.5993 126.005L47.6788 123.122L46.6806 125.345C46.5135 125.715 46.3213 126.159 46.1017 126.674C45.881 127.191 45.7594 127.483 45.7392 127.558C45.7205 127.631 45.7141 127.687 45.723 127.724C45.7303 127.768 45.7571 127.807 45.8023 127.855C45.8486 127.901 45.9979 127.99 46.2484 128.125L46.0774 128.509C45.7984 128.361 45.5096 128.218 45.208 128.081C44.8163 127.907 44.5002 127.778 44.2585 127.695" fill="#B97D1C"/>
<path d="M56.6654 126.192L56.8415 125.818L57.9572 126.385L59.6778 127.149C60.012 127.307 60.2551 127.473 60.4102 127.643C60.5659 127.817 60.6622 128.04 60.7004 128.316C60.7386 128.596 60.6778 128.903 60.5171 129.241C60.3583 129.58 60.1424 129.864 59.8742 130.088C59.6025 130.317 59.2805 130.456 58.91 130.508C58.5378 130.562 58.1916 130.512 57.8679 130.36C57.787 130.319 57.7091 130.277 57.6369 130.232C57.5649 130.184 57.4951 130.132 57.4268 130.076C57.4432 129.978 57.4463 129.852 57.4424 129.69L57.568 129.63C57.6135 129.679 57.6604 129.719 57.7058 129.752C57.748 129.785 57.7909 129.812 57.8324 129.831C58.078 129.949 58.3327 129.943 58.5872 129.812C58.845 129.686 59.0649 129.422 59.2498 129.03C59.4443 128.621 59.5068 128.274 59.437 127.988C59.3656 127.703 59.1809 127.489 58.8807 127.346C58.7381 127.28 58.5702 127.224 58.378 127.18C58.2767 127.361 58.1388 127.631 57.9694 127.988L57.5404 128.86L56.7377 130.562C56.5407 130.979 56.342 131.415 56.1434 131.869C56.0265 132.133 55.9626 132.303 55.9503 132.382C55.9472 132.417 55.9503 132.453 55.9657 132.486C55.9779 132.519 56.0145 132.556 56.0711 132.6L56.5633 132.88L56.3777 133.277C55.7363 132.949 55.2522 132.706 54.9247 132.552C54.5637 132.38 54.2143 132.229 53.8787 132.094L54.0626 131.699C54.348 131.828 54.5363 131.888 54.632 131.876C54.6619 131.869 54.6911 131.859 54.7171 131.834C54.7551 131.799 54.82 131.697 54.9149 131.527C55.1694 131.06 55.4347 130.535 55.712 129.949L56.4587 128.365L56.8383 127.514C57.0052 127.149 57.1059 126.921 57.14 126.827C57.1779 126.736 57.1975 126.665 57.1983 126.618C57.1999 126.589 57.1919 126.562 57.1748 126.53C57.1584 126.503 57.1238 126.464 57.0686 126.42L56.6654 126.192" fill="#B97D1C"/>
<path d="M61.2898 128.378L61.4592 128.008C61.52 128.035 61.7186 128.137 62.0618 128.312C62.2295 128.397 62.4711 128.511 62.7858 128.656C63.0542 128.781 63.2869 128.878 63.4839 128.953C63.8084 129.082 64.0743 129.194 64.281 129.289C64.6808 129.474 64.9671 129.644 65.1348 129.804C65.3027 129.966 65.4082 130.184 65.4503 130.462C65.4941 130.74 65.4431 131.033 65.3019 131.34C65.1348 131.701 64.8859 131.99 64.56 132.199C64.2291 132.409 63.8268 132.511 63.3477 132.503C63.3502 132.667 63.3583 132.837 63.3776 133.013C63.3924 133.192 63.4029 133.3 63.4029 133.333C63.4036 133.37 63.4052 133.408 63.4086 133.441L63.5238 134.755C63.5545 135.108 63.569 135.295 63.5723 135.321C63.629 135.708 63.6647 135.936 63.6826 136.011C63.7012 136.083 63.7272 136.141 63.7587 136.181C63.7905 136.22 63.8642 136.27 63.9833 136.328L63.8025 136.725C63.415 136.532 63.1296 136.395 62.9552 136.312C62.7526 136.218 62.5442 136.131 62.3366 136.05C62.3561 135.98 62.3642 135.88 62.3642 135.751L62.2766 133.785C62.2507 133.221 62.2158 132.768 62.1728 132.432C62.1525 132.262 62.1176 132.127 62.0699 132.025L62.1826 131.894C62.4842 132.048 62.7323 132.116 62.9253 132.106C63.1215 132.092 63.3243 131.994 63.5327 131.826C63.7425 131.654 63.9088 131.431 64.0352 131.155C64.1619 130.877 64.2129 130.622 64.187 130.387C64.1569 130.153 64.0768 129.958 63.9437 129.812C63.8569 129.719 63.6778 129.607 63.4005 129.48C63.2772 129.422 63.1507 129.378 63.021 129.349C62.9618 129.451 62.8433 129.694 62.6608 130.068C62.2538 130.91 61.9862 131.475 61.8542 131.764C61.6472 132.214 61.4293 132.696 61.2055 133.202C60.9296 133.827 60.7764 134.184 60.7432 134.269C60.6735 134.441 60.6361 134.556 60.633 134.618C60.633 134.647 60.6386 134.676 60.6548 134.705C60.6687 134.738 60.6969 134.769 60.7432 134.805C60.7878 134.84 60.9321 134.917 61.1754 135.035L60.9938 135.434C60.5657 135.211 60.1302 134.998 59.6819 134.794C59.2837 134.609 58.9099 134.45 58.5603 134.315L58.7436 133.918C59.0388 134.041 59.2187 134.101 59.2829 134.105C59.3161 134.111 59.3468 134.105 59.3705 134.091C59.3931 134.078 59.4247 134.041 59.4604 133.981C59.5334 133.87 59.6266 133.698 59.745 133.466L60.3791 132.164L61.1478 130.489L61.5671 129.528C61.7348 129.152 61.8241 128.92 61.833 128.83C61.8363 128.791 61.8289 128.758 61.8118 128.729C61.7658 128.662 61.5922 128.546 61.2898 128.378" fill="#B97D1C"/>
<path d="M69.3667 131.568L69.194 131.969C68.9281 131.863 68.7666 131.807 68.7132 131.799C68.6563 131.791 68.6159 131.793 68.5849 131.803C68.5559 131.813 68.5307 131.834 68.5104 131.859C68.4699 131.905 68.413 131.994 68.3416 132.139C68.3012 132.214 68.2356 132.361 68.1374 132.579C67.8017 133.323 67.6217 133.721 67.5958 133.777L66.7979 135.61L66.4475 136.449C66.3105 136.76 66.2351 136.97 66.2206 137.076C66.2125 137.121 66.2164 137.161 66.2295 137.194C66.244 137.227 66.2764 137.264 66.3235 137.302C66.369 137.337 66.5189 137.414 66.7711 137.532L66.5975 137.931C66.1865 137.725 65.7421 137.522 65.2645 137.314C64.8501 137.134 64.4763 136.982 64.1406 136.862L64.315 136.461C64.5898 136.565 64.7488 136.625 64.7943 136.631C64.8535 136.644 64.8981 136.644 64.9255 136.629C64.9548 136.617 64.9782 136.598 64.9929 136.573C65.0164 136.54 65.0895 136.401 65.2117 136.16C65.3894 135.803 65.5476 135.473 65.6829 135.164L66.5091 133.262C66.7719 132.658 66.939 132.27 67.011 132.094C67.1636 131.701 67.2543 131.454 67.2786 131.351C67.2875 131.309 67.2875 131.272 67.2794 131.243C67.273 131.216 67.2496 131.182 67.2122 131.151C67.1734 131.116 67.0135 131.035 66.7387 130.9L66.9131 130.499C67.2292 130.661 67.5958 130.836 68.0166 131.016C68.4878 131.224 68.937 131.407 69.3667 131.568" fill="#B97D1C"/>
<path d="M67.1936 138.244L67.347 137.852C67.6517 137.941 67.8375 137.985 67.9023 137.981C67.9388 137.981 67.9712 137.968 68.0021 137.945C68.0393 137.916 68.0791 137.862 68.1165 137.788C68.2024 137.619 68.3677 137.24 68.611 136.654C68.7295 136.37 68.9248 135.88 69.1965 135.178C69.4382 134.553 69.6489 133.995 69.829 133.509C70.0065 133.024 70.1006 132.731 70.1111 132.627C70.1159 132.581 70.1136 132.542 70.0997 132.509C70.0877 132.478 70.0512 132.444 69.9943 132.407C69.833 132.305 69.6854 132.224 69.5476 132.164L69.6999 131.772C70.2328 132.002 70.6 132.158 70.8053 132.237C71.0729 132.343 71.3502 132.436 71.6323 132.521L71.6217 133.57L71.629 134.371L71.702 137.889C72.2056 137.385 72.589 136.993 72.8535 136.706L73.871 135.627C74.4346 135.025 74.7817 134.651 74.9098 134.512C75.0379 134.371 75.1919 134.19 75.3696 133.968C75.7061 134.124 75.9242 134.221 76.0191 134.259L77.2071 134.682L77.0545 135.075L77.0001 135.05C76.7325 134.946 76.5478 134.917 76.4463 134.965C76.3466 135.012 76.2543 135.143 76.1706 135.359C76.071 135.614 75.9956 135.807 75.9412 135.938L75.4223 137.235L74.7923 138.857C74.6397 139.253 74.5515 139.484 74.5278 139.554C74.3973 139.955 74.3227 140.2 74.3041 140.293C74.296 140.343 74.296 140.384 74.3074 140.418C74.318 140.451 74.3406 140.484 74.3738 140.511C74.407 140.542 74.5677 140.625 74.8514 140.758L74.7005 141.152L73.4542 140.634L72.2168 140.187L72.3686 139.797C72.6986 139.909 72.89 139.959 72.9508 139.944C73.0075 139.928 73.0683 139.872 73.1333 139.764C73.1972 139.656 73.3546 139.278 73.6076 138.626L74.9114 135.261L73.1599 137.076L72.3044 137.985C72.0798 138.224 71.7573 138.572 71.3396 139.031C71.0841 139.307 70.8806 139.531 70.7289 139.706L70.4613 139.6C70.468 139.305 70.4688 138.896 70.4655 138.379C70.4607 137.491 70.4501 136.824 70.442 136.386L70.3706 133.501L69.4901 135.772C69.3425 136.15 69.1714 136.602 68.9792 137.13C68.7862 137.655 68.6807 137.954 68.6653 138.028C68.6475 138.103 68.645 138.159 68.6564 138.199C68.6653 138.24 68.6963 138.277 68.7448 138.323C68.7903 138.367 68.9443 138.45 69.2038 138.57L69.0498 138.965C68.7635 138.828 68.4692 138.701 68.1618 138.581C67.7613 138.427 67.4385 138.313 67.1936 138.244" fill="#B97D1C"/>
<path d="M77.3989 135.164L77.5183 134.769L78.8221 135.195L79.3693 135.346L79.92 135.494L80.0692 135.531L79.9523 135.926C79.6613 135.84 79.4691 135.816 79.3726 135.853C79.324 135.87 79.2802 135.917 79.242 135.992C79.1446 136.177 78.9979 136.604 78.7978 137.273L78.4686 138.375L78.3062 138.933C78.1344 139.515 78.0314 139.874 78.0015 140.013C77.9357 140.32 77.9276 140.575 77.9764 140.791C78.0258 141.003 78.1393 141.196 78.3143 141.372C78.492 141.549 78.7442 141.686 79.071 141.783C79.4448 141.893 79.7651 141.908 80.0335 141.825C80.3002 141.74 80.5159 141.592 80.6845 141.379C80.8491 141.167 81.034 140.723 81.2352 140.046L81.5237 139.077C81.7737 138.242 81.9268 137.732 81.9787 137.547C82.0881 137.144 82.1417 136.899 82.1375 136.806C82.1344 136.75 82.1116 136.702 82.0792 136.665C82.0063 136.584 81.8214 136.496 81.5246 136.397L81.6423 136C82.1238 136.168 82.4084 136.266 82.5008 136.293C82.5253 136.301 82.5616 136.312 82.6121 136.322L83.5177 136.561L83.4009 136.957C83.148 136.88 82.9843 136.858 82.9064 136.887C82.8641 136.903 82.8252 136.941 82.7848 137.009C82.7418 137.073 82.6258 137.387 82.436 137.952C82.2471 138.516 82.1035 138.965 82.0063 139.295L81.6738 140.409C81.5887 140.698 81.4799 140.986 81.356 141.281C81.2302 141.574 81.0803 141.813 80.9099 141.995C80.7389 142.182 80.5305 142.329 80.2841 142.444C80.0408 142.562 79.769 142.624 79.4772 142.632C79.1845 142.641 78.8609 142.595 78.5107 142.493C78.1003 142.369 77.7379 142.188 77.4217 141.954C77.1913 141.779 77.0178 141.588 76.9028 141.381C76.7851 141.171 76.7139 140.955 76.6886 140.731C76.6603 140.507 76.6634 140.301 76.7 140.11C76.722 139.994 76.8071 139.683 76.9561 139.185L77.2343 138.271L77.5919 137.065C77.7265 136.621 77.8392 136.22 77.9309 135.859C77.9641 135.718 77.9787 135.614 77.9722 135.544C77.9689 135.504 77.9496 135.452 77.9081 135.388L77.3989 135.164" fill="#B97D1C"/>
<path d="M82.3447 143.471L82.4209 143.058C82.7379 143.091 82.9284 143.097 82.9926 143.083C83.0266 143.077 83.0549 143.058 83.0833 143.031C83.1142 142.994 83.1433 142.934 83.1661 142.853C83.2211 142.67 83.3129 142.269 83.4418 141.649C83.5049 141.348 83.6064 140.827 83.7426 140.09C83.8659 139.432 83.9697 138.844 84.0556 138.334C84.1432 137.823 84.1804 137.516 84.1714 137.414C84.1683 137.366 84.1594 137.329 84.1374 137.3C84.1187 137.271 84.0791 137.244 84.0149 137.219C83.8383 137.148 83.6776 137.096 83.5325 137.063L83.6087 136.648C84.1731 136.779 84.5648 136.862 84.7813 136.903C85.0642 136.955 85.3538 136.997 85.6448 137.028L85.8304 138.062L85.9846 138.844L86.7103 142.29C87.1108 141.7 87.4157 141.242 87.6216 140.916L88.4212 139.664C88.8632 138.967 89.1341 138.537 89.2354 138.375C89.335 138.213 89.4519 138.008 89.588 137.759C89.9465 137.848 90.1767 137.902 90.2789 137.92L91.5243 138.116L91.4498 138.531L91.389 138.52C91.1067 138.464 90.9195 138.471 90.8302 138.533C90.7411 138.601 90.6722 138.749 90.6315 138.975C90.5821 139.245 90.5408 139.45 90.5157 139.589L90.2423 140.957L89.9245 142.668C89.8483 143.085 89.8045 143.33 89.7948 143.401C89.7389 143.818 89.7113 144.075 89.7113 144.173C89.7113 144.22 89.7203 144.26 89.7356 144.291C89.7551 144.322 89.7803 144.349 89.8224 144.372C89.8606 144.395 90.0325 144.447 90.3357 144.526L90.2587 144.941L88.9402 144.661L87.638 144.455L87.7159 144.04C88.0596 144.09 88.2608 144.104 88.3158 144.079C88.3718 144.052 88.4212 143.982 88.4625 143.863C88.5055 143.749 88.5906 143.349 88.7181 142.664L89.3757 139.11L87.9907 141.221L87.3177 142.271C87.1409 142.549 86.8912 142.952 86.5636 143.479C86.3641 143.799 86.2068 144.054 86.0893 144.254L85.8061 144.202C85.7576 143.909 85.6853 143.511 85.584 143C85.4146 142.126 85.2824 141.476 85.1915 141.045L84.5866 138.224L84.1432 140.617C84.0701 141.018 83.9867 141.495 83.8927 142.047C83.8009 142.599 83.7523 142.915 83.7507 142.992C83.7465 143.064 83.7546 143.122 83.7741 143.158C83.7911 143.195 83.8252 143.23 83.8821 143.264C83.9371 143.297 84.1034 143.351 84.379 143.419L84.3012 143.836C83.9971 143.756 83.6818 143.687 83.3581 143.625C82.9332 143.548 82.5984 143.498 82.3447 143.471" fill="#B97D1C"/>
<path d="M99.2706 144.368L99.0678 144.864C98.7143 145.076 98.398 145.223 98.1159 145.298C97.8346 145.377 97.4834 145.412 97.0657 145.404C96.4706 145.393 95.9452 145.275 95.4896 145.047C95.1336 144.862 94.8311 144.621 94.587 144.324C94.3398 144.025 94.1532 143.704 94.0242 143.359C93.8264 142.836 93.7324 142.269 93.7421 141.663C93.7575 140.621 94.0745 139.774 94.6916 139.124C95.3054 138.475 96.165 138.157 97.2685 138.176C97.648 138.18 97.9911 138.217 98.2919 138.288C98.5927 138.36 98.9414 138.481 99.3379 138.657L99.3589 138.722C99.3086 138.877 99.2737 139.07 99.2422 139.305C99.1967 139.679 99.1635 140.023 99.1482 140.341L98.8173 140.337C98.8173 139.973 98.8092 139.681 98.7897 139.465C98.6049 139.226 98.398 139.052 98.163 138.933C97.9295 138.817 97.6301 138.755 97.2646 138.749C96.6053 138.74 96.0733 138.975 95.6679 139.461C95.265 139.946 95.0574 140.629 95.0426 141.509C95.0354 142.041 95.0937 142.506 95.222 142.904C95.3501 143.305 95.5203 143.635 95.7401 143.899C95.9583 144.16 96.1771 144.353 96.4017 144.476C96.7049 144.64 97.0746 144.725 97.5118 144.731C97.7989 144.735 98.0704 144.7 98.3259 144.629C98.5837 144.557 98.8644 144.432 99.1668 144.252L99.2706 144.368" fill="#B97D1C"/>
<path d="M101.049 141.416C101.136 142.184 101.297 142.809 101.532 143.288C101.769 143.77 102.039 144.098 102.341 144.272C102.644 144.449 102.985 144.513 103.365 144.472C103.717 144.428 104.022 144.297 104.277 144.067C104.532 143.836 104.711 143.479 104.816 142.992C104.919 142.504 104.934 141.923 104.857 141.252C104.804 140.791 104.715 140.376 104.586 140.002C104.457 139.633 104.297 139.32 104.107 139.072C103.917 138.821 103.707 138.639 103.472 138.522C103.241 138.406 102.947 138.367 102.588 138.406C102.182 138.454 101.846 138.605 101.587 138.865C101.326 139.122 101.156 139.479 101.076 139.934C100.995 140.391 100.987 140.885 101.049 141.416V141.416ZM99.7909 141.858C99.7211 141.256 99.7398 140.723 99.8453 140.258C99.9474 139.795 100.127 139.39 100.378 139.046C100.63 138.701 100.916 138.439 101.239 138.263C101.652 138.039 102.114 137.896 102.627 137.837C103.134 137.781 103.604 137.815 104.037 137.933C104.359 138.026 104.651 138.18 104.916 138.394C105.178 138.608 105.385 138.836 105.538 139.075C105.69 139.313 105.813 139.581 105.911 139.876C106.009 140.173 106.079 140.501 106.119 140.866C106.191 141.485 106.166 142.068 106.044 142.618C105.954 143.027 105.798 143.398 105.576 143.735C105.352 144.071 105.083 144.339 104.773 144.54C104.346 144.812 103.84 144.982 103.261 145.047C102.633 145.117 102.078 145.047 101.597 144.829C101.114 144.613 100.715 144.26 100.398 143.766C100.082 143.272 99.8793 142.637 99.7909 141.858" fill="#B97D1C"/>
<path d="M111.948 138.147L111.619 138.228C111.596 138.126 111.553 137.972 111.492 137.775C111.449 137.634 111.407 137.518 111.364 137.422C111.272 137.343 111.178 137.283 111.085 137.24C110.871 137.144 110.64 137.08 110.391 137.059C110.137 137.036 109.866 137.061 109.573 137.13C108.892 137.3 108.406 137.682 108.118 138.277C107.83 138.877 107.792 139.612 108.005 140.482C108.237 141.433 108.641 142.136 109.208 142.589C109.779 143.046 110.377 143.197 111.004 143.041C111.186 142.998 111.361 142.931 111.522 142.844C111.684 142.757 111.836 142.649 111.983 142.522C111.968 142.433 111.936 142.263 111.879 142.014C111.826 141.765 111.791 141.617 111.778 141.566C111.701 141.256 111.648 141.076 111.611 141.024C111.585 140.988 111.543 140.97 111.481 140.97C111.378 140.961 111.109 140.993 110.68 141.067L110.585 140.677L111.814 140.397L113.043 140.077L113.118 140.395C112.971 140.472 112.882 140.55 112.847 140.629C112.831 140.667 112.837 140.758 112.866 140.905C112.945 141.277 113.002 141.545 113.04 141.707C113.1 141.95 113.175 142.197 113.262 142.448C112.808 142.79 112.403 143.052 112.047 143.237C111.69 143.419 111.324 143.556 110.947 143.65C110.334 143.799 109.762 143.809 109.225 143.683C108.855 143.589 108.518 143.434 108.216 143.22C107.913 143.004 107.664 142.753 107.46 142.471C107.15 142.028 106.922 141.509 106.772 140.912C106.65 140.407 106.605 139.951 106.641 139.546C106.674 139.137 106.771 138.767 106.93 138.429C107.088 138.093 107.289 137.802 107.532 137.555C107.78 137.31 108.051 137.113 108.347 136.959C108.643 136.806 108.982 136.683 109.358 136.592C109.821 136.478 110.266 136.422 110.691 136.422C111.114 136.426 111.454 136.457 111.706 136.521L111.763 136.604C111.766 136.903 111.828 137.418 111.948 138.147" fill="#B97D1C"/>
<path d="M114.494 142.103C114.799 141.972 114.973 141.891 115.011 141.86C115.035 141.837 115.054 141.808 115.064 141.773C115.073 141.736 115.068 141.673 115.051 141.58C115.025 141.458 114.936 141.165 114.798 140.702C114.714 140.44 114.599 140.102 114.448 139.689L113.91 138.192L113.399 136.841C113.314 136.615 113.253 136.467 113.215 136.405C113.179 136.343 113.14 136.297 113.104 136.274C113.067 136.251 113.016 136.239 112.951 136.243C112.888 136.245 112.714 136.285 112.426 136.364L112.285 135.969C112.627 135.872 112.878 135.793 113.036 135.737L113.607 135.512L113.967 135.365C114.812 136.007 115.821 136.733 116.989 137.547C117.83 138.132 118.514 138.581 119.043 138.894L118.654 137.815C118.05 136.141 117.679 135.162 117.543 134.879C117.491 134.767 117.439 134.701 117.389 134.68C117.309 134.645 117.091 134.688 116.737 134.809L116.596 134.416C116.925 134.321 117.227 134.228 117.498 134.13C117.757 134.035 118.092 133.904 118.495 133.734L118.638 134.124C118.318 134.25 118.135 134.346 118.092 134.416C118.078 134.437 118.07 134.468 118.075 134.504C118.091 134.67 118.193 135.035 118.383 135.593C118.569 136.154 118.711 136.567 118.807 136.831C119.551 138.9 120.021 140.15 120.218 140.58L120.181 140.64C119.943 140.677 119.701 140.719 119.457 140.764C118.199 139.948 116.38 138.699 114.001 137.015L114.839 139.336C115.011 139.82 115.201 140.32 115.408 140.835C115.549 141.192 115.644 141.406 115.694 141.476C115.718 141.509 115.747 141.534 115.781 141.547C115.815 141.561 115.864 141.561 115.931 141.549C116.111 141.514 116.242 141.48 116.322 141.449C116.337 141.443 116.361 141.433 116.398 141.416L116.534 141.796C116.029 141.968 115.741 142.066 115.672 142.089C115.415 142.184 115.069 142.319 114.637 142.5L114.494 142.103" fill="#B97D1C"/>
<path d="M120.855 136.216C121.165 136.922 121.509 137.47 121.878 137.858C122.249 138.244 122.6 138.479 122.944 138.554C123.284 138.634 123.63 138.593 123.981 138.437C124.302 138.294 124.552 138.074 124.729 137.781C124.904 137.484 124.967 137.088 124.922 136.594C124.875 136.096 124.714 135.537 124.441 134.921C124.253 134.497 124.04 134.126 123.807 133.81C123.575 133.495 123.329 133.246 123.073 133.065C122.818 132.88 122.562 132.77 122.304 132.729C122.047 132.685 121.756 132.737 121.426 132.884C121.05 133.051 120.776 133.295 120.605 133.619C120.433 133.943 120.38 134.333 120.439 134.794C120.498 135.251 120.639 135.726 120.855 136.216V136.216ZM119.785 137.011C119.543 136.459 119.398 135.946 119.36 135.471C119.319 134.998 119.368 134.556 119.505 134.153C119.643 133.748 119.839 133.412 120.094 133.148C120.421 132.81 120.82 132.54 121.29 132.33C121.757 132.125 122.217 132.013 122.665 131.998C123 131.992 123.325 132.05 123.641 132.177C123.957 132.303 124.225 132.457 124.44 132.64C124.655 132.822 124.854 133.04 125.036 133.293C125.217 133.545 125.383 133.841 125.529 134.176C125.782 134.744 125.931 135.307 125.981 135.87C126.017 136.285 125.981 136.687 125.867 137.073C125.754 137.46 125.582 137.796 125.343 138.082C125.019 138.47 124.586 138.78 124.052 139.018C123.475 139.276 122.922 139.371 122.398 139.309C121.874 139.247 121.385 139.029 120.937 138.651C120.488 138.273 120.105 137.729 119.785 137.011" fill="#B97D1C"/>
<path d="M128.839 130.885L128.521 131.039C128.347 130.699 128.215 130.464 128.125 130.329C127.984 130.238 127.792 130.19 127.547 130.184C127.305 130.176 127.064 130.232 126.827 130.346C126.483 130.514 126.267 130.748 126.18 131.043C126.093 131.34 126.114 131.624 126.249 131.898C126.35 132.094 126.455 132.239 126.567 132.334C126.679 132.432 126.803 132.49 126.936 132.513C127.068 132.536 127.246 132.53 127.467 132.496C127.63 132.459 127.857 132.405 128.145 132.33C128.433 132.253 128.619 132.21 128.706 132.191C128.942 132.154 129.143 132.148 129.313 132.175C129.482 132.199 129.631 132.251 129.764 132.33C129.89 132.407 130.025 132.521 130.156 132.673C130.29 132.822 130.411 133.005 130.517 133.223C130.703 133.603 130.801 133.97 130.806 134.323C130.813 134.589 130.769 134.856 130.679 135.124C130.587 135.392 130.469 135.614 130.324 135.799C130.09 136.09 129.764 136.339 129.339 136.546C129.029 136.7 128.736 136.802 128.458 136.851C128.185 136.903 127.861 136.914 127.488 136.891C127.4 136.513 127.188 135.979 126.851 135.286L127.167 135.13C127.269 135.346 127.415 135.606 127.603 135.909C127.789 136.048 128.032 136.129 128.335 136.154C128.636 136.181 128.923 136.127 129.197 135.99C129.438 135.874 129.628 135.72 129.765 135.527C129.906 135.336 129.973 135.131 129.973 134.913C129.97 134.697 129.916 134.479 129.807 134.255C129.713 134.068 129.606 133.922 129.482 133.814C129.357 133.711 129.211 133.65 129.046 133.632C128.88 133.615 128.616 133.638 128.255 133.709C127.745 133.819 127.403 133.885 127.235 133.906C126.98 133.935 126.75 133.91 126.547 133.829C126.344 133.748 126.159 133.619 125.989 133.445C125.825 133.273 125.683 133.067 125.567 132.828C125.402 132.496 125.31 132.16 125.292 131.822C125.271 131.483 125.321 131.191 125.441 130.939C125.559 130.688 125.722 130.472 125.937 130.281C126.15 130.097 126.382 129.941 126.641 129.812C126.908 129.682 127.182 129.584 127.461 129.518C127.737 129.449 127.996 129.426 128.234 129.441L128.316 129.532C128.376 129.744 128.441 129.945 128.518 130.136C128.59 130.331 128.697 130.578 128.839 130.885" fill="#B97D1C"/>
<path d="M136.658 131.668L136.711 132.202C136.497 132.557 136.283 132.833 136.07 133.032C135.856 133.229 135.563 133.424 135.189 133.615C134.659 133.883 134.139 134.022 133.63 134.032C133.227 134.035 132.85 133.96 132.492 133.814C132.135 133.663 131.821 133.468 131.546 133.221C131.128 132.851 130.78 132.395 130.504 131.851C130.034 130.923 129.918 130.026 130.16 129.165C130.402 128.301 131.015 127.622 132 127.12C132.338 126.95 132.657 126.823 132.958 126.746C133.257 126.667 133.623 126.616 134.055 126.584L134.104 126.632C134.134 126.79 134.19 126.981 134.274 127.205C134.406 127.554 134.536 127.874 134.672 128.166L134.38 128.311C134.207 127.99 134.064 127.736 133.946 127.552C133.674 127.431 133.407 127.373 133.145 127.375C132.885 127.384 132.59 127.469 132.264 127.635C131.676 127.932 131.316 128.388 131.186 129.007C131.054 129.623 131.186 130.323 131.585 131.11C131.827 131.583 132.094 131.969 132.395 132.262C132.693 132.554 132.998 132.768 133.314 132.899C133.63 133.032 133.915 133.098 134.169 133.1C134.515 133.102 134.882 133.007 135.269 132.81C135.527 132.681 135.752 132.523 135.945 132.341C136.138 132.158 136.326 131.915 136.511 131.614L136.658 131.668" fill="#B97D1C"/>
<path d="M137.483 132.247L137.364 132.009C137.475 131.851 137.555 131.706 137.607 131.569C137.559 131.436 137.473 131.228 137.346 130.946C137.112 130.425 136.938 130.049 136.824 129.819L135.832 127.82C135.791 127.741 135.646 127.454 135.388 126.958C135.216 126.628 135.098 126.431 135.032 126.371C135.004 126.35 134.976 126.335 134.943 126.333C134.858 126.331 134.662 126.394 134.36 126.522L134.19 126.18L135.062 125.738C135.236 125.648 135.4 125.569 135.56 125.491C135.905 125.316 136.287 125.123 136.704 124.903L137.462 124.5C137.552 124.455 137.74 124.372 138.021 124.245C138.047 124.233 138.093 124.222 138.159 124.21L138.214 124.253L138.461 124.93C138.48 124.976 138.572 125.196 138.742 125.588L138.445 125.736C138.269 125.387 138.149 125.179 138.09 125.109C138.06 125.071 138.033 125.048 138.002 125.042C137.957 125.032 137.844 125.057 137.668 125.121C137.4 125.212 137.149 125.316 136.91 125.435C136.687 125.545 136.464 125.667 136.239 125.804C136.372 126.161 136.567 126.597 136.824 127.116L137.28 128.036C137.459 127.967 137.641 127.884 137.827 127.791C137.884 127.766 138.09 127.656 138.443 127.465C138.579 127.396 138.653 127.342 138.668 127.313C138.683 127.284 138.684 127.247 138.676 127.195C138.651 127.064 138.572 126.869 138.447 126.605L138.753 126.452L139.222 127.44L139.721 128.403L139.416 128.557C139.247 128.21 139.125 128.006 139.044 127.946C138.982 127.903 138.91 127.892 138.823 127.917C138.633 127.973 138.399 128.067 138.123 128.204C137.876 128.326 137.678 128.436 137.528 128.538L138.454 130.402C138.558 130.609 138.651 130.786 138.733 130.931C138.946 130.85 139.192 130.74 139.47 130.601C139.742 130.47 139.988 130.333 140.207 130.198C140.428 130.064 140.553 129.966 140.588 129.902C140.601 129.881 140.602 129.844 140.597 129.796C140.573 129.63 140.486 129.337 140.338 128.916L140.649 128.762C140.883 129.376 141.096 129.873 141.283 130.252L141.264 130.333C141.114 130.437 140.889 130.558 140.593 130.705L139.977 130.994C139.374 131.28 138.957 131.479 138.729 131.593C138.669 131.62 138.254 131.84 137.483 132.247" fill="#B97D1C"/>
<path d="M139.219 124.087L139.05 123.718C139.109 123.689 139.319 123.604 139.675 123.458C139.849 123.386 140.094 123.28 140.408 123.137C140.677 123.014 140.905 122.904 141.09 122.804C141.4 122.642 141.658 122.514 141.867 122.42C142.266 122.24 142.584 122.134 142.814 122.113C143.046 122.088 143.279 122.153 143.517 122.304C143.755 122.452 143.945 122.68 144.082 122.989C144.251 123.354 144.305 123.73 144.249 124.116C144.191 124.5 144.003 124.872 143.683 125.227C143.808 125.335 143.945 125.439 144.09 125.542C144.237 125.646 144.322 125.708 144.351 125.731C144.379 125.756 144.404 125.777 144.434 125.798L145.502 126.572C145.787 126.775 145.941 126.888 145.965 126.902C146.29 127.114 146.488 127.234 146.556 127.269C146.625 127.303 146.684 127.321 146.734 127.323C146.785 127.328 146.869 127.303 146.994 127.253L147.174 127.647C146.772 127.817 146.484 127.938 146.308 128.019C146.105 128.112 145.902 128.21 145.708 128.314C145.665 128.255 145.595 128.183 145.498 128.1L143.954 126.879C143.51 126.528 143.147 126.259 142.863 126.07C142.72 125.976 142.596 125.912 142.489 125.881L142.463 125.713C142.776 125.584 142.989 125.443 143.109 125.285C143.226 125.129 143.287 124.915 143.293 124.644C143.3 124.374 143.24 124.1 143.115 123.826C142.989 123.552 142.827 123.344 142.634 123.211C142.44 123.078 142.241 123.014 142.041 123.016C141.913 123.02 141.71 123.085 141.434 123.211C141.312 123.269 141.197 123.336 141.084 123.413C141.126 123.525 141.23 123.772 141.394 124.156C141.767 125.015 142.018 125.588 142.149 125.875C142.353 126.327 142.575 126.804 142.814 127.307C143.105 127.923 143.272 128.27 143.317 128.353C143.401 128.517 143.463 128.621 143.51 128.664C143.531 128.685 143.555 128.698 143.589 128.708C143.618 128.718 143.665 128.718 143.721 128.704C143.779 128.691 143.931 128.635 144.178 128.532L144.359 128.928C143.912 129.107 143.463 129.295 143.016 129.499C142.619 129.682 142.251 129.86 141.923 130.036L141.741 129.638C142.026 129.493 142.192 129.397 142.236 129.351C142.264 129.329 142.279 129.304 142.282 129.275C142.289 129.248 142.279 129.202 142.258 129.136C142.223 129.009 142.154 128.826 142.055 128.583L141.487 127.251L140.725 125.574L140.271 124.627C140.095 124.253 139.977 124.033 139.915 123.973C139.89 123.944 139.858 123.927 139.825 123.921C139.748 123.913 139.546 123.967 139.219 124.087" fill="#B97D1C"/>
<path d="M147.331 127.595L147.235 127.346C147.359 127.201 147.453 127.062 147.517 126.931C147.484 126.794 147.414 126.58 147.313 126.285C147.128 125.746 146.99 125.36 146.899 125.117L146.091 123.035C146.061 122.954 145.943 122.653 145.731 122.136C145.59 121.789 145.489 121.586 145.429 121.517C145.405 121.495 145.378 121.478 145.344 121.472C145.258 121.463 145.06 121.509 144.747 121.607L144.609 121.254L145.517 120.893C145.7 120.82 145.871 120.751 146.037 120.689C146.396 120.55 146.795 120.39 147.23 120.212L148.021 119.882C148.117 119.844 148.31 119.776 148.602 119.678C148.628 119.668 148.674 119.66 148.742 119.655L148.795 119.705L148.978 120.399C148.993 120.446 149.065 120.675 149.194 121.081L148.889 121.2C148.742 120.837 148.644 120.616 148.594 120.542C148.564 120.502 148.538 120.477 148.511 120.469C148.464 120.452 148.351 120.469 148.168 120.515C147.894 120.581 147.634 120.662 147.387 120.76C147.153 120.849 146.92 120.951 146.684 121.065C146.783 121.434 146.938 121.885 147.147 122.429L147.516 123.384C147.701 123.33 147.889 123.267 148.083 123.19C148.143 123.168 148.357 123.078 148.726 122.921C148.866 122.863 148.944 122.821 148.961 122.792C148.98 122.765 148.987 122.723 148.983 122.672C148.968 122.543 148.91 122.341 148.81 122.065L149.129 121.941L149.502 122.968L149.913 123.973L149.596 124.096C149.46 123.738 149.354 123.525 149.28 123.458C149.224 123.408 149.152 123.392 149.065 123.408C148.868 123.446 148.628 123.518 148.343 123.628C148.084 123.728 147.877 123.819 147.717 123.907L148.466 125.848C148.551 126.063 148.628 126.248 148.696 126.4C148.916 126.342 149.171 126.252 149.463 126.142C149.743 126.032 150.001 125.92 150.232 125.808C150.463 125.692 150.598 125.605 150.638 125.544C150.654 125.524 150.659 125.49 150.655 125.441C150.647 125.273 150.59 124.974 150.48 124.54L150.802 124.417C150.983 125.048 151.148 125.563 151.3 125.958L151.272 126.038C151.113 126.126 150.879 126.227 150.569 126.346L149.93 126.576C149.301 126.804 148.868 126.966 148.632 127.058C148.57 127.081 148.136 127.261 147.331 127.595" fill="#B97D1C"/>
<path d="M152.253 118.852L152.155 118.456C152.219 118.441 152.438 118.395 152.816 118.319C153 118.281 153.265 118.221 153.598 118.138C153.885 118.07 154.127 118.001 154.331 117.939C154.665 117.837 154.943 117.76 155.163 117.706C155.593 117.6 155.923 117.559 156.15 117.58C156.384 117.598 156.6 117.706 156.808 117.897C157.013 118.088 157.156 118.35 157.236 118.678C157.333 119.066 157.317 119.446 157.188 119.813C157.061 120.181 156.808 120.511 156.428 120.801C156.532 120.93 156.647 121.059 156.769 121.185C156.893 121.314 156.966 121.391 156.989 121.42C157.011 121.449 157.036 121.476 157.059 121.501L157.968 122.458C158.208 122.713 158.337 122.85 158.358 122.869C158.641 123.139 158.812 123.294 158.872 123.34C158.933 123.386 158.986 123.417 159.039 123.427C159.087 123.44 159.177 123.431 159.305 123.402L159.409 123.826C158.984 123.917 158.678 123.986 158.491 124.031C158.274 124.087 158.056 124.143 157.843 124.21C157.811 124.143 157.755 124.058 157.677 123.961L156.387 122.474C156.013 122.047 155.709 121.715 155.464 121.478C155.342 121.356 155.233 121.273 155.134 121.223L155.139 121.053C155.471 120.984 155.709 120.882 155.851 120.752C155.996 120.619 156.096 120.421 156.155 120.158C156.21 119.89 156.202 119.614 156.131 119.321C156.059 119.024 155.938 118.792 155.77 118.626C155.602 118.46 155.419 118.358 155.224 118.325C155.095 118.304 154.885 118.331 154.59 118.402C154.459 118.435 154.332 118.481 154.21 118.537C154.233 118.655 154.286 118.914 154.377 119.323C154.586 120.237 154.726 120.847 154.798 121.152C154.917 121.634 155.045 122.144 155.187 122.684C155.359 123.342 155.46 123.718 155.486 123.803C155.541 123.984 155.585 124.098 155.618 124.148C155.636 124.17 155.658 124.189 155.689 124.201C155.718 124.218 155.764 124.226 155.819 124.226C155.877 124.226 156.036 124.195 156.301 124.139L156.407 124.563C155.934 124.654 155.458 124.756 154.981 124.874C154.553 124.98 154.165 125.088 153.805 125.196L153.701 124.774C154.009 124.685 154.191 124.623 154.241 124.588C154.271 124.569 154.292 124.546 154.3 124.519C154.312 124.496 154.312 124.446 154.303 124.376C154.292 124.245 154.258 124.052 154.206 123.797L153.891 122.381L153.457 120.592L153.185 119.581C153.083 119.178 153.007 118.941 152.961 118.869C152.936 118.836 152.911 118.813 152.878 118.8C152.807 118.777 152.594 118.796 152.253 118.852" fill="#B97D1C"/>
<path d="M159.6 123.838L159.567 123.57C159.725 123.458 159.849 123.348 159.943 123.236C159.943 123.097 159.93 122.871 159.904 122.562C159.858 121.995 159.821 121.582 159.79 121.326L159.525 119.109C159.513 119.024 159.469 118.703 159.393 118.15C159.34 117.779 159.294 117.557 159.253 117.478C159.235 117.447 159.214 117.424 159.182 117.411C159.102 117.382 158.897 117.376 158.569 117.397L158.523 117.015L159.494 116.89C159.685 116.866 159.87 116.845 160.045 116.824C160.427 116.778 160.852 116.72 161.321 116.654L162.168 116.527C162.27 116.515 162.474 116.496 162.781 116.473C162.81 116.469 162.856 116.473 162.922 116.486L162.959 116.546L162.964 117.264C162.967 117.316 162.981 117.553 163.009 117.98L162.683 118.02C162.631 117.632 162.589 117.397 162.559 117.31C162.542 117.264 162.525 117.235 162.497 117.216C162.459 117.194 162.342 117.179 162.153 117.179C161.874 117.175 161.6 117.189 161.338 117.221C161.087 117.25 160.836 117.295 160.582 117.349C160.588 117.727 160.623 118.202 160.693 118.779L160.816 119.797C161.009 119.79 161.207 119.776 161.411 119.751C161.476 119.743 161.707 119.709 162.101 119.647C162.255 119.626 162.341 119.604 162.364 119.581C162.388 119.558 162.403 119.523 162.412 119.471C162.432 119.34 162.425 119.132 162.395 118.838L162.733 118.796L162.843 119.882L162.996 120.959L162.658 120.998C162.614 120.617 162.561 120.386 162.509 120.303C162.467 120.243 162.399 120.208 162.312 120.203C162.113 120.191 161.86 120.203 161.556 120.239C161.282 120.27 161.058 120.309 160.883 120.355L161.132 122.418C161.16 122.651 161.189 122.846 161.215 123.012C161.444 123.008 161.712 122.987 162.021 122.952C162.324 122.912 162.599 122.869 162.851 122.815C163.108 122.761 163.257 122.709 163.31 122.661C163.327 122.645 163.342 122.613 163.353 122.566C163.387 122.402 163.402 122.097 163.405 121.65L163.747 121.607C163.765 122.267 163.799 122.804 163.851 123.224L163.803 123.294C163.627 123.34 163.374 123.381 163.044 123.421L162.368 123.483C161.705 123.554 161.245 123.604 160.994 123.633C160.927 123.643 160.461 123.709 159.6 123.838" fill="#B97D1C"/>
<path d="M164.391 116.71L164.399 116.305C164.464 116.305 164.689 116.32 165.073 116.34C165.262 116.355 165.528 116.363 165.875 116.372C166.17 116.376 166.422 116.376 166.633 116.367C166.983 116.357 167.269 116.355 167.498 116.359C167.938 116.367 168.267 116.413 168.485 116.494C168.704 116.571 168.888 116.733 169.038 116.971C169.186 117.208 169.258 117.499 169.248 117.833C169.24 118.236 169.126 118.597 168.908 118.921C168.689 119.244 168.359 119.494 167.915 119.678C167.983 119.826 168.06 119.981 168.145 120.135C168.233 120.293 168.283 120.386 168.299 120.419C168.314 120.453 168.329 120.484 168.344 120.515L168.971 121.677C169.139 121.987 169.231 122.151 169.243 122.175C169.447 122.508 169.572 122.705 169.617 122.765C169.664 122.825 169.709 122.869 169.755 122.892C169.799 122.912 169.886 122.929 170.02 122.935L170.009 123.371C169.576 123.35 169.264 123.336 169.069 123.332C168.844 123.325 168.621 123.33 168.399 123.336C168.387 123.265 168.352 123.168 168.305 123.051L167.442 121.281C167.193 120.77 166.983 120.37 166.81 120.081C166.723 119.932 166.64 119.821 166.556 119.745L166.607 119.585C166.944 119.604 167.199 119.57 167.375 119.479C167.547 119.39 167.695 119.224 167.82 118.981C167.942 118.74 168.007 118.47 168.015 118.169C168.021 117.864 167.963 117.609 167.846 117.403C167.726 117.2 167.577 117.054 167.394 116.974C167.28 116.92 167.069 116.89 166.765 116.882C166.629 116.88 166.495 116.89 166.364 116.915C166.354 117.032 166.338 117.299 166.321 117.719C166.281 118.651 166.26 119.278 166.253 119.591C166.24 120.089 166.234 120.614 166.23 121.171C166.225 121.854 166.225 122.242 166.23 122.333C166.231 122.518 166.244 122.64 166.267 122.696C166.277 122.723 166.294 122.75 166.321 122.771C166.345 122.792 166.385 122.809 166.441 122.825C166.498 122.84 166.659 122.852 166.929 122.865L166.92 123.303C166.439 123.269 165.955 123.247 165.461 123.234C165.023 123.224 164.617 123.228 164.241 123.24L164.252 122.806C164.573 122.802 164.763 122.786 164.822 122.765C164.857 122.757 164.88 122.74 164.897 122.713C164.914 122.694 164.925 122.647 164.936 122.578C164.959 122.449 164.977 122.254 164.993 121.995L165.057 120.544L165.1 118.703L165.102 117.656C165.107 117.241 165.096 116.994 165.068 116.907C165.056 116.872 165.034 116.845 165.008 116.824C164.942 116.783 164.737 116.743 164.391 116.71" fill="#B97D1C"/>
<path d="M170.697 116.903L170.791 116.498L172.119 116.834L172.677 116.949L173.236 117.054L173.388 117.084L173.299 117.486C173.002 117.418 172.807 117.409 172.715 117.451C172.669 117.47 172.628 117.519 172.593 117.6C172.512 117.793 172.393 118.229 172.24 118.91L171.987 120.033L171.864 120.6C171.733 121.191 171.656 121.557 171.635 121.698C171.593 122.007 171.602 122.267 171.665 122.474C171.729 122.684 171.853 122.871 172.043 123.033C172.232 123.197 172.493 123.313 172.824 123.39C173.206 123.475 173.529 123.467 173.788 123.365C174.05 123.263 174.254 123.099 174.406 122.873C174.558 122.651 174.708 122.196 174.864 121.509L175.083 120.519C175.276 119.668 175.392 119.149 175.431 118.96C175.515 118.553 175.551 118.304 175.541 118.213C175.532 118.157 175.511 118.111 175.468 118.076C175.394 117.999 175.201 117.922 174.899 117.845L174.989 117.443C175.481 117.578 175.774 117.656 175.866 117.675C175.891 117.681 175.929 117.688 175.979 117.698L176.899 117.872L176.81 118.273C176.554 118.217 176.388 118.204 176.311 118.238C176.273 118.256 176.233 118.302 176.198 118.368C176.16 118.435 176.067 118.759 175.919 119.336C175.77 119.911 175.657 120.367 175.58 120.704L175.327 121.841C175.259 122.13 175.176 122.429 175.069 122.728C174.964 123.031 174.832 123.28 174.675 123.475C174.517 123.668 174.32 123.832 174.084 123.967C173.845 124.1 173.581 124.181 173.29 124.21C172.998 124.239 172.674 124.214 172.316 124.135C171.899 124.042 171.525 123.888 171.193 123.674C170.953 123.518 170.765 123.34 170.633 123.139C170.503 122.939 170.417 122.726 170.376 122.505C170.332 122.283 170.323 122.078 170.343 121.887C170.355 121.767 170.419 121.453 170.537 120.944L170.747 120.015L171.024 118.786C171.125 118.335 171.21 117.924 171.278 117.561C171.302 117.416 171.306 117.312 171.295 117.239C171.291 117.202 171.264 117.152 171.221 117.09L170.697 116.903Z" fill="#B97D1C"/>
<path d="M174.806 124.363L174.986 123.981C175.282 124.096 175.466 124.149 175.532 124.149C175.566 124.156 175.6 124.143 175.63 124.123C175.674 124.096 175.715 124.046 175.759 123.973C175.857 123.811 176.047 123.448 176.331 122.879C176.472 122.605 176.7 122.128 177.021 121.449C177.309 120.841 177.557 120.303 177.771 119.83C177.986 119.359 178.099 119.072 178.116 118.97C178.124 118.923 178.124 118.883 178.115 118.852C178.103 118.821 178.071 118.784 178.016 118.74C177.862 118.632 177.719 118.539 177.588 118.468L177.769 118.086C178.282 118.356 178.638 118.537 178.838 118.632C179.101 118.752 179.366 118.869 179.64 118.972L179.558 120.019L179.506 120.816L179.328 124.334C179.867 123.865 180.277 123.5 180.562 123.236L181.651 122.229C182.259 121.667 182.633 121.322 182.768 121.191C182.906 121.061 183.073 120.893 183.265 120.685C183.589 120.864 183.802 120.976 183.893 121.017L185.046 121.524L184.867 121.906L184.815 121.883C184.554 121.754 184.375 121.713 184.271 121.754C184.167 121.793 184.063 121.918 183.965 122.128C183.851 122.377 183.758 122.564 183.694 122.692L183.085 123.946L182.342 125.52C182.161 125.901 182.056 126.128 182.027 126.194C181.868 126.582 181.776 126.823 181.749 126.919C181.738 126.964 181.736 127.004 181.746 127.039C181.751 127.076 181.775 127.108 181.807 127.139C181.837 127.172 181.99 127.263 182.265 127.419L182.087 127.801L180.88 127.195L179.675 126.661L179.855 126.279C180.177 126.418 180.366 126.483 180.424 126.47C180.485 126.46 180.55 126.406 180.621 126.302C180.692 126.202 180.876 125.835 181.175 125.204L182.716 121.939L180.839 123.624L179.921 124.469C179.68 124.693 179.334 125.017 178.881 125.445C178.61 125.7 178.392 125.912 178.228 126.074L177.969 125.951C177.997 125.657 178.024 125.248 178.059 124.731C178.116 123.844 178.156 123.182 178.177 122.742L178.312 119.859L177.274 122.063C177.1 122.429 176.898 122.869 176.666 123.381C176.436 123.89 176.309 124.185 176.288 124.253C176.266 124.326 176.259 124.382 176.266 124.424C176.275 124.463 176.301 124.507 176.347 124.552C176.391 124.602 176.537 124.693 176.785 124.832L176.604 125.212C176.331 125.057 176.043 124.909 175.748 124.77C175.359 124.587 175.044 124.453 174.806 124.363" fill="#B97D1C"/>
<path d="M45.6328 0.00416363C45.3457 0.00416363 45.0611 0.0809744 44.8415 0.269872C44.6175 0.467074 44.4774 0.745227 44.4619 1.04414C44.4538 1.22681 43.4954 19.4565 43.4954 42.8425C43.4954 67.1771 45.1155 80.2131 49.4722 90.9409C53.8914 101.828 60.7131 107.205 74.3291 115.141C87.3662 122.732 92.8208 123.755 96.4576 123.755C100.098 123.755 105.551 122.732 118.585 115.141C132.205 107.205 139.027 101.828 143.449 90.9409C147.802 80.2131 149.421 67.1771 149.421 42.8425C149.421 19.4565 148.464 1.22681 148.456 1.04414C148.439 0.745227 148.304 0.467074 148.075 0.269872C147.854 0.0768228 147.565 0.00416363 147.268 0.00416363C147.268 0.00416363 45.9191 0.00416363 45.6328 0.00416363V0.00416363ZM146.131 2.39757C146.351 7.05775 147.034 23.1494 147.034 42.8425C147.034 66.8346 145.464 79.6278 141.237 90.0421C139.192 95.0759 136.602 98.8892 132.837 102.401C129.453 105.563 124.976 108.654 117.384 113.077C111.575 116.461 106.94 118.738 103.211 120.042C99.8436 121.219 97.8328 121.37 96.4576 121.37C95.0832 121.37 93.0722 121.219 89.7063 120.042C85.9765 118.738 81.3391 116.461 75.5316 113.077C67.9396 108.654 63.4635 105.563 60.0808 102.403C56.3168 98.8891 53.7276 95.0759 51.6842 90.0421C47.4539 79.6278 45.8825 66.8367 45.8825 42.8425C45.8825 23.1597 46.5653 7.08679 46.7859 2.41001L146.131 2.39757Z" fill="#B97D1C"/>
<path d="M127.072 29.4556L125.928 26.2547L124.795 29.4016L121.415 29.5365L124.101 31.6124L123.141 34.8402L125.919 32.9263L128.719 34.8402L127.758 31.5771L130.442 29.5365L127.072 29.4556" fill="#B97D1C"/>
<path d="M123.118 47.6023L125.684 49.9729L125.43 46.4876L128.884 45.9604L126 43.9863L127.742 40.9556L124.401 41.979L123.118 38.7283L121.834 41.979L118.493 40.9556L120.234 43.9863L117.35 45.9604L120.805 46.4876L120.551 49.9729L123.118 47.6023" fill="#B97D1C"/>
<path d="M137.055 28.4302L139.62 30.8029L139.367 27.3155L142.821 26.7883L139.938 24.8142L141.679 21.7856L138.338 22.8069L137.055 19.5582L135.771 22.8069L132.431 21.7856L134.171 24.8142L131.288 26.7883L134.742 27.3155L134.489 30.8029L137.055 28.4302" fill="#B97D1C"/>
<path d="M124.585 15.3588L127.152 17.7314L126.897 14.2462L130.351 13.7189L127.469 11.7427L129.209 8.71414L125.868 9.73753L124.585 6.48681L123.302 9.73753L119.961 8.71414L121.702 11.7427L118.819 13.7189L122.274 14.2462L122.019 17.7314L124.585 15.3588" fill="#B97D1C"/>
<path d="M109.859 26.6865L112.426 29.0591L112.172 25.5739L115.626 25.0466L112.743 23.0705L114.484 20.0419L111.142 21.0652L109.859 17.8145L108.576 21.0652L105.235 20.0419L106.977 23.0705L104.094 25.0466L107.547 25.5739L107.294 29.0591L109.859 26.6865" fill="#B97D1C"/>
<path d="M123.245 55.891C109.114 49.1343 99.6168 44.3413 96.1923 44.3413C92.7714 44.3413 83.8228 49.1343 69.691 55.891C55.5602 62.6498 50.7356 64.0988 50.7356 67.0547C50.7356 70.0106 54.2053 68.6032 55.2577 68.2877C56.3127 67.9722 92.3733 56.3041 96.1923 56.3041C100.013 56.3041 136.622 67.9722 137.678 68.2877C138.734 68.6032 142.201 70.0106 142.201 67.0547C142.201 64.0988 137.376 62.6498 123.245 55.891Z" fill="#B97D1C"/>
<path d="M131.369 77.9795C125.241 80.0366 120.374 84.5183 113.587 83.2438C107.636 82.1228 102.697 76.9831 96.4486 77.062C89.6082 77.1492 84.4446 83.0403 77.7331 83.6008C71.1344 84.1509 66.0015 78.8223 59.8511 77.5602C57.07 76.9914 54.6317 77.3754 52.3093 78.1725C52.7805 80.4601 53.3269 82.5691 53.9563 84.5536C55.788 84.1135 57.7187 83.9869 59.8511 84.4249C66.0015 85.687 71.1344 91.0135 77.7331 90.4634C84.4446 89.905 89.6082 84.0139 96.4486 83.9246C102.697 83.8478 107.636 88.9854 113.587 90.1043C120.374 91.383 125.241 86.9013 131.369 84.8442C134.107 83.9246 136.555 84.0035 138.881 84.5826C139.51 82.6023 140.057 80.4975 140.528 78.2141C137.705 77.2364 134.761 76.842 131.369 77.9795" fill="#B97D1C"/>
<path d="M131.369 91.7068C125.241 93.764 120.374 98.2456 113.587 96.969C107.636 95.8501 102.697 90.7104 96.4486 90.7893C89.6082 90.8765 84.4446 96.7656 77.7331 97.3281C71.1344 97.8782 66.0015 92.5496 59.8511 91.2875C58.686 91.0488 57.58 90.9782 56.5178 91.0343C57.9092 93.8304 59.6411 96.2507 61.7673 98.4324C61.8354 98.5009 61.901 98.5528 61.9878 98.5943C62.6803 98.9306 66.2496 100.66 68.0335 101.556C71.0719 103.082 74.2431 104.481 77.7331 104.191C84.4446 103.63 89.6082 97.7391 96.4486 97.6519C102.697 97.573 107.636 102.713 113.587 103.832C117.741 104.614 121.24 103.209 124.684 101.552C126.475 100.691 130.298 98.7936 131.015 98.4366C131.101 98.393 131.166 98.3432 131.231 98.2747C133.251 96.1574 134.985 93.7307 136.327 91.0384C134.764 90.9367 133.127 91.1173 131.369 91.7068" fill="#B97D1C"/>
<path d="M79.5955 110.763C82.3266 112.301 84.7509 113.553 86.9071 114.543C89.9365 112.963 92.9755 111.423 96.4485 111.379C99.9182 111.336 102.984 112.901 106.044 114.493C108.218 113.49 110.666 112.22 113.423 110.663C107.546 109.48 102.64 104.438 96.4485 104.517C90.2535 104.593 85.4345 109.432 79.5955 110.763" fill="#B97D1C"/>
<path d="M118.556 69.4978C111.316 67.2871 106.365 65.8423 102.982 64.8999C99.7611 64.0011 98.257 63.6627 97.262 63.4095C96.9669 63.3348 96.4682 63.2414 96.3011 63.2102C96.079 63.2497 95.7741 63.314 95.3573 63.4095C94.5228 63.6005 93.2352 63.9222 91.2601 64.4681C87.9062 65.3919 82.5627 66.9529 74.0585 69.5892C71.3307 70.4361 68.2745 71.393 64.8552 72.4724C69.0311 74.4611 73.036 77.1347 77.8062 76.7382C84.5168 76.1778 89.6795 70.2866 96.5216 70.1995C102.77 70.1206 107.71 75.2602 113.659 76.3791C119.189 77.4191 123.443 74.6375 128.143 72.46C124.569 71.3453 121.387 70.3634 118.556 69.4978" fill="#B97D1C"/>
</g>
<defs>
<clipPath id="clip0_431:4337">
<rect width="264.789" height="356" fill="white"/>
</clipPath>
</defs>
</svg>
