<svg width="146" height="188" viewBox="0 0 146 188" fill="none" xmlns="http://www.w3.org/2000/svg">
<g clip-path="url(#clip0_431:4335)">
<path d="M6.06338 114.361H13.9628L10.0367 103.238L6.06338 114.361ZM0.000488281 123.392L8.34617 100.318H11.6813L20.0265 123.392H17.011L14.7452 117.073H5.3136L2.99958 123.392H0.000488281Z" fill="white"/>
<path d="M28.628 123.711C27.7658 123.701 26.9545 123.576 26.1935 123.336C25.4326 123.096 24.76 122.744 24.1754 122.276C23.5907 121.808 23.1297 121.225 22.7963 120.528C22.4603 119.831 22.292 119.02 22.292 118.095V106.892H25.2442V117.791C25.2442 118.866 25.5776 119.739 26.2426 120.408C26.9067 121.079 27.9095 121.414 29.2507 121.414C30.4623 121.414 31.4388 121.097 32.1784 120.465C32.9169 119.831 33.2865 118.887 33.2865 117.632V106.892H36.2231V123.392H33.8778L33.5752 120.233C33.3722 121.063 33.0285 121.733 32.5456 122.243C32.0614 122.755 31.4812 123.13 30.8046 123.369C30.1312 123.608 29.4037 123.721 28.628 123.711" fill="white"/>
<path d="M46.3726 123.711C45.2234 123.711 44.1567 123.533 43.1727 123.177C42.1887 122.82 41.3719 122.262 40.7238 121.502C40.0746 120.741 39.6648 119.769 39.4944 118.589H42.1753C42.3247 119.238 42.5925 119.777 42.9808 120.209C43.3691 120.64 43.8568 120.965 44.4415 121.183C45.0262 121.401 45.6644 121.509 46.3561 121.509C47.4629 121.509 48.3564 121.302 49.037 120.888C49.7176 120.473 50.059 119.835 50.059 118.973C50.059 118.366 49.8796 117.88 49.5235 117.513C49.1678 117.145 48.6165 116.877 47.8722 116.706L44.4571 115.859C43.1272 115.541 42.0637 115.042 41.2662 114.361C40.4681 113.68 40.0701 112.727 40.0701 111.504C40.0589 110.536 40.2874 109.685 40.7551 108.95C41.2237 108.217 41.9253 107.637 42.8625 107.212C43.7975 106.786 44.9637 106.573 46.3561 106.573C48.1435 106.573 49.5881 106.976 50.6883 107.778C51.7897 108.582 52.361 109.759 52.4043 111.312H49.8033C49.6967 110.526 49.3427 109.9 48.7415 109.438C48.1413 108.975 47.3358 108.744 46.3249 108.744C45.2702 108.744 44.4147 108.954 43.7564 109.374C43.0959 109.795 42.7665 110.445 42.7665 111.329C42.7665 111.914 43 112.373 43.4672 112.71C43.9359 113.044 44.6276 113.323 45.5425 113.547L48.845 114.378C49.6127 114.578 50.242 114.845 50.7374 115.174C51.2314 115.504 51.6247 115.871 51.9178 116.275C52.2102 116.68 52.4168 117.103 52.5404 117.544C52.6623 117.986 52.7234 118.409 52.7234 118.812C52.7234 119.823 52.4703 120.694 51.9647 121.423C51.4604 122.15 50.7374 122.714 49.7948 123.113C48.8541 123.512 47.7137 123.711 46.3726 123.711" fill="white"/>
<path d="M64.5478 109.046H60.8293V119.308C60.8293 119.893 60.8918 120.321 61.0131 120.592C61.136 120.863 61.3434 121.036 61.6349 121.111C61.9281 121.186 62.3298 121.223 62.8399 121.223H64.6429V123.2C64.4407 123.275 64.1351 123.34 63.7266 123.392C63.3161 123.445 62.8086 123.472 62.2017 123.472C61.0636 123.472 60.1808 123.319 59.5529 123.009C58.9259 122.702 58.4863 122.243 58.2372 121.637C57.9864 121.031 57.8614 120.286 57.8614 119.403V109.046H55.1802V106.892H57.9419L58.659 102.09H60.8293V106.876H64.5478V109.046" fill="white"/>
<path d="M68.4731 123.392V106.892H71.2817V110.068C71.5584 109.281 71.9467 108.629 72.4466 108.114C72.9472 107.597 73.5185 107.212 74.1611 106.956C74.8061 106.701 75.4733 106.573 76.1642 106.573C76.4096 106.573 76.6493 106.589 76.8827 106.621C77.1157 106.653 77.2978 106.707 77.4249 106.78V109.636C77.2651 109.563 77.0612 109.513 76.8113 109.486C76.5601 109.459 76.3503 109.446 76.1806 109.446C75.5215 109.403 74.9042 109.444 74.3294 109.565C73.7551 109.688 73.2499 109.897 72.8134 110.196C72.3773 110.493 72.0337 110.884 71.7847 111.368C71.5347 111.853 71.4089 112.44 71.4089 113.132V123.392H68.4731Z" fill="white"/>
<path d="M85.5629 121.589C86.1163 121.589 86.6675 121.489 87.2142 121.285C87.7631 121.084 88.2653 120.81 88.7235 120.465C89.1802 120.119 89.5448 119.731 89.8161 119.3C90.087 118.868 90.2289 118.426 90.2387 117.966V115.142L87.781 115.19C86.5256 115.212 85.4759 115.34 84.6301 115.573C83.7845 115.807 83.1516 116.175 82.7298 116.674C82.3095 117.175 82.1006 117.829 82.1006 118.637C82.1006 119.564 82.4219 120.286 83.0659 120.807C83.7095 121.329 84.5418 121.589 85.5629 121.589V121.589ZM84.6704 123.711C83.6059 123.711 82.6642 123.522 81.8453 123.144C81.0263 122.767 80.3846 122.222 79.9217 121.509C79.4598 120.798 79.2278 119.936 79.2278 118.924C79.2278 117.095 79.8655 115.733 81.1424 114.839C82.4197 113.945 84.4681 113.467 87.2865 113.403L90.2387 113.323V112.031C90.2387 111.02 89.9353 110.219 89.3296 109.629C88.7235 109.038 87.781 108.744 86.5047 108.744C85.5572 108.754 84.7261 108.977 84.0071 109.413C83.29 109.85 82.8236 110.563 82.6116 111.552H80.0097C80.0744 110.478 80.377 109.571 80.9202 108.832C81.4624 108.091 82.2203 107.531 83.194 107.147C84.167 106.765 85.3184 106.573 86.6475 106.573C88.0845 106.573 89.2783 106.776 90.2312 107.179C91.1827 107.585 91.8945 108.179 92.3689 108.967C92.8419 109.755 93.0794 110.722 93.0794 111.871V123.392H90.5578L90.3516 120.296C89.7134 121.584 88.9012 122.475 87.9171 122.969C86.9317 123.464 85.8508 123.711 84.6704 123.711" fill="white"/>
<path d="M101.713 123.6C100.82 123.6 100.099 123.477 99.5498 123.234C99.0027 122.989 98.5822 122.659 98.2886 122.243C97.9976 121.828 97.8004 121.353 97.7 120.815C97.5982 120.279 97.5469 119.721 97.5469 119.147V99.68H100.452V118.86C100.452 119.69 100.614 120.313 100.939 120.727C101.262 121.143 101.717 121.371 102.302 121.414L103.196 121.429V123.344C102.952 123.418 102.696 123.48 102.43 123.528C102.165 123.576 101.925 123.6 101.713 123.6" fill="white"/>
<path d="M109.755 106.892V123.392H106.899V106.892H109.755ZM109.82 100.333V103.397H106.803V100.333H109.82" fill="white"/>
<path d="M120.079 121.589C120.632 121.589 121.184 121.489 121.73 121.285C122.279 121.084 122.781 120.81 123.24 120.465C123.696 120.119 124.06 119.731 124.332 119.3C124.603 118.868 124.745 118.426 124.755 117.966V115.142L122.296 115.19C121.042 115.212 119.992 115.34 119.146 115.573C118.3 115.807 117.668 116.175 117.246 116.674C116.825 117.175 116.617 117.829 116.617 118.637C116.617 119.564 116.938 120.286 117.581 120.807C118.226 121.329 119.057 121.589 120.079 121.589V121.589ZM119.186 123.711C118.122 123.711 117.18 123.522 116.361 123.144C115.542 122.767 114.901 122.222 114.438 121.509C113.976 120.798 113.744 119.936 113.744 118.924C113.744 117.095 114.382 115.733 115.658 114.839C116.936 113.945 118.984 113.467 121.803 113.403L124.755 113.323V112.031C124.755 111.02 124.451 110.219 123.846 109.629C123.24 109.038 122.296 108.744 121.02 108.744C120.073 108.754 119.242 108.977 118.524 109.413C117.806 109.85 117.34 110.563 117.128 111.552H114.526C114.59 110.478 114.893 109.571 115.437 108.832C115.978 108.091 116.736 107.531 117.71 107.147C118.683 106.765 119.834 106.573 121.163 106.573C122.6 106.573 123.795 106.776 124.747 107.179C125.699 107.585 126.411 108.179 126.885 108.967C127.358 109.755 127.595 110.722 127.595 111.871V123.392H125.074L124.867 120.296C124.23 121.584 123.417 122.475 122.433 122.969C121.448 123.464 120.367 123.711 119.186 123.711Z" fill="white"/>
<path d="M131.935 123.392V106.892H134.792V109.286C135.056 108.829 135.426 108.398 135.9 107.993C136.373 107.589 136.949 107.265 137.623 107.02C138.299 106.776 139.079 106.653 139.961 106.653C141.004 106.653 141.964 106.86 142.841 107.275C143.719 107.69 144.422 108.337 144.949 109.215C145.476 110.092 145.737 111.222 145.737 112.606V123.392H142.785V112.892C142.785 111.606 142.447 110.651 141.773 110.028C141.097 109.406 140.221 109.094 139.147 109.094C138.403 109.094 137.707 109.215 137.057 109.454C136.409 109.693 135.881 110.055 135.478 110.538C135.072 111.023 134.87 111.631 134.87 112.365V123.392H131.935" fill="white"/>
<path d="M15.4623 129.99H18.4146V153.064H15.7814L3.399 134.872V153.064H0.446777V129.99H3.27092L15.4623 147.926V129.99Z" fill="white"/>
<path d="M28.9314 151.262C29.4839 151.262 30.036 151.161 30.5827 150.958C31.1294 150.756 31.6328 150.482 32.0898 150.136C32.5477 149.791 32.9122 149.403 33.1845 148.971C33.4545 148.541 33.5951 148.096 33.6076 147.639V144.814L31.1495 144.861C29.8944 144.884 28.8443 145.011 27.9977 145.244C27.1519 145.478 26.5191 145.846 26.0988 146.347C25.6779 146.847 25.4695 147.502 25.4695 148.31C25.4695 149.235 25.7895 149.958 26.4343 150.48C27.0761 151.001 27.9102 151.262 28.9314 151.262V151.262ZM28.0366 153.384C26.9744 153.384 26.0305 153.194 25.2138 152.817C24.3939 152.439 23.7534 151.894 23.2903 151.18C22.8274 150.469 22.5962 149.607 22.5962 148.597C22.5962 146.767 23.2344 145.405 24.5108 144.511C25.7872 143.617 27.8348 143.138 30.6532 143.074L33.6076 142.994V141.703C33.6076 140.692 33.3037 139.891 32.698 139.301C32.0898 138.71 31.1495 138.415 29.8731 138.415C28.9247 138.425 28.0923 138.649 27.3751 139.086C26.6575 139.521 26.1911 140.234 25.9792 141.223H23.3772C23.442 140.149 23.7454 139.242 24.2877 138.503C24.8299 137.763 25.5887 137.202 26.5607 136.819C27.5358 136.436 28.6859 136.244 30.0159 136.244C31.4529 136.244 32.6467 136.448 33.5973 136.851C34.5515 137.256 35.2633 137.851 35.7373 138.639C36.2095 139.425 36.4483 140.394 36.4483 141.542V153.064H33.9267L33.7192 149.969C33.0796 151.257 32.2674 152.147 31.2855 152.642C30.3006 153.137 29.2183 153.384 28.0366 153.384" fill="white"/>
<path d="M48.4635 138.718H44.745V148.98C44.745 149.563 44.8061 149.992 44.9279 150.265C45.0507 150.536 45.2582 150.707 45.5505 150.783C45.8437 150.856 46.2445 150.893 46.7554 150.893H48.5585V152.872C48.3563 152.948 48.0498 153.011 47.6413 153.064C47.2316 153.118 46.7242 153.144 46.1172 153.144C44.9793 153.144 44.0965 152.99 43.4672 152.682C42.8402 152.372 42.4019 151.915 42.1519 151.309C41.902 150.702 41.7771 149.958 41.7771 149.076V138.718H39.0957V136.563H41.8574L42.5737 131.76H44.745V136.548H48.4635V138.718" fill="white"/>
<path d="M55.5797 136.563V153.064H52.7234V136.563H55.5797ZM55.6434 130.005V133.069H52.6274V130.005H55.6434Z" fill="white"/>
<path d="M67.0059 151.054C67.9931 151.054 68.8291 150.805 69.5097 150.304C70.1911 149.804 70.708 149.086 71.057 148.149C71.4087 147.215 71.585 146.101 71.585 144.814C71.585 143.633 71.431 142.571 71.1217 141.63C70.8129 140.688 70.3205 139.943 69.6458 139.388C68.9696 138.836 68.0905 138.559 67.0059 138.559C66.0049 138.559 65.1583 138.805 64.4675 139.301C63.7757 139.795 63.2526 140.512 62.8956 141.447C62.5395 142.383 62.3609 143.506 62.3609 144.814C62.3609 145.974 62.5207 147.027 62.8399 147.975C63.159 148.922 63.6596 149.671 64.3402 150.225C65.0208 150.778 65.909 151.054 67.0059 151.054ZM67.0059 153.384C65.4827 153.384 64.1528 153.056 63.0148 152.402C61.8767 151.748 60.9944 150.789 60.3669 149.522C59.739 148.257 59.4243 146.707 59.4243 144.878C59.4243 143.154 59.7179 141.644 60.3027 140.346C60.8873 139.048 61.7473 138.039 62.88 137.323C64.0131 136.604 65.3868 136.244 67.0059 136.244C68.5265 136.244 69.8476 136.577 70.97 137.242C72.0924 137.907 72.9626 138.884 73.5785 140.171C74.1966 141.457 74.5045 143.027 74.5045 144.878C74.5045 146.559 74.2203 148.038 73.6513 149.316C73.0818 150.592 72.2419 151.588 71.1297 152.307C70.0185 153.024 68.6425 153.384 67.0059 153.384Z" fill="white"/>
<path d="M78.0627 153.064V136.563H80.9199V138.958C81.1841 138.499 81.5549 138.07 82.029 137.664C82.502 137.261 83.0769 136.937 83.7516 136.692C84.4278 136.448 85.2065 136.324 86.0893 136.324C87.1323 136.324 88.0918 136.532 88.9702 136.946C89.847 137.362 90.55 138.008 91.0762 138.886C91.6032 139.763 91.8652 140.894 91.8652 142.277V153.064H88.9143V142.563C88.9143 141.276 88.576 140.322 87.9012 139.699C87.2251 139.078 86.349 138.766 85.2758 138.766C84.5304 138.766 83.8341 138.886 83.1848 139.126C82.5368 139.364 82.0089 139.725 81.6062 140.21C81.2011 140.694 80.9993 141.303 80.9993 142.038V153.064H78.0627" fill="white"/>
<path d="M101.569 151.262C102.123 151.262 102.672 151.161 103.221 150.958C103.768 150.756 104.27 150.482 104.729 150.136C105.186 149.791 105.551 149.403 105.822 148.971C106.093 148.541 106.234 148.096 106.245 147.639V144.814L103.787 144.861C102.532 144.884 101.482 145.011 100.635 145.244C99.7908 145.478 99.1571 145.846 98.7362 146.347C98.3157 146.847 98.1069 147.502 98.1069 148.31C98.1069 149.235 98.4273 149.958 99.0723 150.48C99.7149 151.001 100.548 151.262 101.569 151.262V151.262ZM100.675 153.384C99.6122 153.384 98.6692 153.194 97.8516 152.817C97.0313 152.439 96.3909 151.894 95.9281 151.18C95.4657 150.469 95.2341 149.607 95.2341 148.597C95.2341 146.767 95.8723 145.405 97.1487 144.511C98.425 143.617 100.474 143.138 103.292 143.074L106.245 142.994V141.703C106.245 140.692 105.942 139.891 105.336 139.301C104.729 138.71 103.787 138.415 102.51 138.415C101.563 138.425 100.731 138.649 100.013 139.086C99.2954 139.521 98.8298 140.234 98.617 141.223H96.0152C96.0798 140.149 96.382 139.242 96.9264 138.503C97.4686 137.763 98.2251 137.202 99.1994 136.819C100.173 136.436 101.325 136.244 102.654 136.244C104.091 136.244 105.285 136.448 106.236 136.851C107.189 137.256 107.901 137.851 108.375 138.639C108.848 139.425 109.085 140.394 109.085 141.542V153.064H106.563L106.357 149.969C105.718 151.257 104.906 152.147 103.923 152.642C102.938 153.137 101.856 153.384 100.675 153.384" fill="white"/>
<path d="M117.719 153.272C116.824 153.272 116.104 153.15 115.556 152.904C115.009 152.66 114.587 152.33 114.296 151.915C114.003 151.501 113.807 151.025 113.705 150.487C113.605 149.951 113.553 149.395 113.553 148.82V129.352H116.457V148.532C116.457 149.363 116.62 149.985 116.944 150.4C117.269 150.814 117.723 151.043 118.308 151.084L119.202 151.103V153.017C118.958 153.09 118.702 153.152 118.436 153.2C118.171 153.248 117.931 153.272 117.719 153.272Z" fill="white"/>
<path d="M17.3131 174.755C17.3131 176.533 17.0212 178.037 16.4365 179.271C15.8505 180.505 14.9379 181.445 13.6994 182.088C12.4601 182.733 10.8512 183.054 8.87279 183.054C6.8725 183.054 5.25246 182.724 4.014 182.065C2.7742 181.406 1.86956 180.437 1.30053 179.16C0.731511 177.884 0.446777 176.313 0.446777 174.453V159.66H3.51058V174.9C3.51058 176.761 3.97384 178.155 4.89855 179.079C5.82461 180.007 7.1492 180.468 8.87279 180.468C10.0323 180.468 11.0186 180.266 11.8318 179.862C12.6463 179.458 13.2688 178.844 13.6994 178.02C14.1301 177.195 14.3457 176.154 14.3457 174.9V159.66H17.3131V174.755Z" fill="white"/>
<path d="M21.6226 182.735V166.235H24.4788V168.628C24.7444 168.172 25.1148 167.741 25.5888 167.335C26.0596 166.932 26.6367 166.607 27.3101 166.363C27.9853 166.117 28.7663 165.995 29.6491 165.995C30.6921 165.995 31.6507 166.202 32.5277 166.618C33.4056 167.033 34.1085 167.678 34.6364 168.556C35.1618 169.434 35.4242 170.564 35.4242 171.946V182.735H32.4719V172.235C32.4719 170.947 32.1337 169.993 31.4611 169.37C30.7849 168.747 29.9088 168.437 28.8347 168.437C28.0902 168.437 27.3931 168.556 26.7437 168.796C26.0962 169.034 25.5687 169.398 25.1648 169.882C24.76 170.364 24.5587 170.974 24.5587 171.708V182.735H21.6226" fill="white"/>
<path d="M42.8135 166.235V182.735H39.9572V166.235H42.8135ZM42.8782 159.676V162.74H39.8613V159.676H42.8782Z" fill="white"/>
<path d="M60.5736 166.235L54.6223 182.735H51.9409L45.9731 166.235H48.7504L53.1384 179.033H53.4097L57.8146 166.235H60.5736" fill="white"/>
<path d="M64.9463 173.176H73.9133C73.9133 172.229 73.7539 171.375 73.4348 170.614C73.1153 169.855 72.6292 169.253 71.9741 168.812C71.3203 168.369 70.4982 168.15 69.5097 168.15C68.4774 168.15 67.6241 168.397 66.948 168.892C66.2719 169.386 65.7676 170.019 65.4328 170.79C65.0968 171.562 64.9351 172.357 64.9463 173.176V173.176ZM64.9294 175.171C64.9294 176.214 65.1025 177.158 65.4485 178.003C65.7929 178.848 66.3209 179.523 67.0283 180.023C67.7343 180.522 68.6216 180.772 69.6847 180.772C70.7379 180.772 71.6452 180.527 72.4061 180.038C73.1658 179.549 73.653 178.84 73.8664 177.915H76.6593C76.4562 179.033 76.0095 179.974 75.3181 180.741C74.6265 181.505 73.7905 182.083 72.8132 182.47C71.8335 182.86 70.8115 183.054 69.7484 183.054C68.2065 183.054 66.8497 182.719 65.6805 182.049C64.5085 181.378 63.594 180.416 62.9345 179.16C62.2753 177.906 61.9451 176.399 61.9451 174.645C61.9451 172.91 62.2427 171.389 62.8385 170.08C63.4343 168.771 64.2988 167.749 65.4328 167.017C66.565 166.282 67.9298 165.915 69.5253 165.915C71.0779 165.915 72.3927 166.251 73.4669 166.921C74.5403 167.591 75.3584 168.535 75.9162 169.753C76.4749 170.972 76.7539 172.416 76.7539 174.086V175.171H64.9294" fill="white"/>
<path d="M80.4729 182.735V166.235H83.281V169.41C83.5589 168.623 83.9459 167.972 84.4458 167.457C84.947 166.939 85.5182 166.554 86.1618 166.298C86.8057 166.043 87.4729 165.915 88.1634 165.915C88.4089 165.915 88.6485 165.931 88.8819 165.963C89.1153 165.995 89.297 166.049 89.4241 166.123V168.98C89.2658 168.905 89.0605 168.854 88.8105 168.828C88.5597 168.801 88.3499 168.789 88.1812 168.789C87.5207 168.745 86.904 168.786 86.3291 168.908C85.7556 169.03 85.2491 169.24 84.8131 169.537C84.3766 169.836 84.0342 170.226 83.7844 170.71C83.5344 171.195 83.4095 171.783 83.4095 172.474V182.735H80.4729Z" fill="white"/>
<path d="M98.2643 183.054C97.116 183.054 96.0494 182.876 95.0644 182.52C94.0812 182.164 93.2636 181.603 92.6165 180.843C91.9667 180.082 91.5574 179.113 91.387 177.931H94.0679C94.2173 178.58 94.4851 179.121 94.8734 179.551C95.2617 179.982 95.7495 180.307 96.3341 180.525C96.9188 180.743 97.557 180.851 98.2488 180.851C99.3555 180.851 100.249 180.645 100.93 180.229C101.61 179.814 101.951 179.175 101.951 178.314C101.951 177.708 101.772 177.22 101.416 176.854C101.059 176.487 100.509 176.218 99.7647 176.049L96.3497 175.203C95.0198 174.884 93.9553 174.384 93.1588 173.703C92.3607 173.021 91.9613 172.07 91.9613 170.846C91.9515 169.88 92.1792 169.028 92.6473 168.294C93.1164 167.558 93.817 166.98 94.7543 166.554C95.6892 166.128 96.8549 165.915 98.2488 165.915C100.036 165.915 101.481 166.316 102.581 167.121C103.682 167.924 104.254 169.102 104.296 170.654H101.695C101.589 169.868 101.234 169.243 100.634 168.78C100.034 168.316 99.227 168.085 98.217 168.085C97.1629 168.085 96.3073 168.296 95.6477 168.717C94.9885 169.136 94.6583 169.789 94.6583 170.67C94.6583 171.256 94.8926 171.716 95.3598 172.052C95.8285 172.385 96.5202 172.665 97.4351 172.889L100.738 173.719C101.504 173.922 102.135 174.186 102.629 174.517C103.124 174.846 103.517 175.214 103.809 175.618C104.103 176.023 104.309 176.446 104.432 176.886C104.553 177.328 104.616 177.75 104.616 178.155C104.616 179.165 104.363 180.035 103.857 180.763C103.353 181.492 102.629 182.057 101.687 182.454C100.746 182.854 99.6055 183.054 98.2643 183.054" fill="white"/>
<path d="M111.605 166.235V182.735H108.75V166.235H111.605ZM111.67 159.676V162.74H108.654V159.676H111.67Z" fill="white"/>
<path d="M124.754 168.389H121.035V178.648C121.035 179.235 121.098 179.662 121.218 179.934C121.341 180.206 121.549 180.378 121.841 180.453C122.134 180.527 122.535 180.564 123.046 180.564H124.849V182.543C124.647 182.618 124.341 182.682 123.933 182.735C123.523 182.788 123.014 182.815 122.407 182.815C121.27 182.815 120.387 182.66 119.759 182.353C119.131 182.043 118.692 181.586 118.443 180.978C118.193 180.372 118.067 179.629 118.067 178.746V168.389H115.387V166.235H118.148L118.866 161.431H121.035V166.218H124.754V168.389Z" fill="white"/>
<path d="M130.419 188C129.451 188 128.604 187.862 127.881 187.586V185.67L129.556 185.702C130.174 185.724 130.685 185.682 131.088 185.574C131.493 185.468 131.816 185.325 132.062 185.145C132.306 184.963 132.495 184.761 132.628 184.538C132.762 184.313 132.871 184.102 132.956 183.899L133.53 182.336L127.084 166.235H130.067L134.934 178.968L139.769 166.235H142.658L135.701 183.979C135.274 185.021 134.799 185.836 134.272 186.421C133.747 187.006 133.16 187.415 132.518 187.649C131.872 187.884 131.174 188 130.419 188Z" fill="white"/>
<path d="M1.67631 -0.00111462C1.48574 -0.00111462 1.29473 0.0491625 1.14879 0.177124C0.999284 0.30737 0.905563 0.493588 0.895298 0.69467C0.889942 0.814633 0.249512 12.9881 0.249512 28.6039C0.249512 44.8538 1.33178 53.5575 4.24027 60.7221C7.1916 67.9919 11.7469 71.5828 20.8392 76.8806C29.5442 81.9496 33.1869 82.6347 35.6147 82.6347C38.0461 82.6347 41.6878 81.9496 50.3905 76.8806C59.486 71.5828 64.0403 67.9919 66.9935 60.7221C69.9003 53.5575 70.9811 44.8538 70.9811 28.6039C70.9811 12.9881 70.3421 0.814633 70.3363 0.69467C70.3251 0.493588 70.2358 0.30737 70.0818 0.177124C69.9346 0.0468775 69.7418 -0.00111462 69.544 -0.00111462C69.544 -0.00111462 1.86822 -0.00111462 1.67631 -0.00111462V-0.00111462ZM68.7845 1.5984C68.9318 4.70831 69.3879 15.4548 69.3879 28.6039C69.3879 44.6253 68.3382 53.1679 65.5162 60.1212C64.1515 63.4836 62.4213 66.0291 59.9078 68.3758C57.6481 70.4849 54.6579 72.5494 49.5881 75.503C45.7098 77.7621 42.6147 79.283 40.1244 80.1542C37.8765 80.9396 36.5341 81.0401 35.6147 81.0401C34.6975 81.0401 33.3555 80.9396 31.1072 80.1542C28.6159 79.283 25.5195 77.7621 21.6412 75.5038C16.5727 72.5494 13.5834 70.4849 11.3243 68.3758C8.81164 66.0291 7.08226 63.4836 5.7175 60.1212C2.8938 53.1679 1.84367 44.6265 1.84367 28.6039C1.84367 15.4616 2.30023 4.72888 2.44617 1.60526L68.7845 1.5984" fill="white"/>
<path d="M56.0583 19.6649L55.2939 17.5273L54.5374 19.6284L52.2805 19.7186L54.0732 21.1056L53.4329 23.2627L55.2871 21.9819L57.1571 23.2627L56.5153 21.0816L58.3077 19.7186L56.0583 19.6649" fill="white"/>
<path d="M53.4175 31.7823L55.1313 33.3647L54.9617 31.0385L57.2681 30.6866L55.3424 29.3671L56.5049 27.3448L54.2744 28.028L53.4175 25.8573L52.5606 28.028L50.3292 27.3448L51.4918 29.3671L49.5674 30.6866L51.8733 31.0385L51.7038 33.3647L53.4175 31.7823Z" fill="white"/>
<path d="M62.7232 18.9794L64.437 20.564L64.2679 18.2367L66.5738 17.8848L64.6494 16.5664L65.812 14.543L63.5801 15.2262L62.7232 13.0566L61.8663 15.2262L59.6362 14.543L60.7987 16.5664L58.873 17.8848L61.1794 18.2367L61.0094 20.564L62.7232 18.9794" fill="white"/>
<path d="M54.397 10.2529L56.1108 11.8364L55.9412 9.50913L58.2485 9.15725L56.3228 7.83879L57.4853 5.81541L55.2539 6.49862L54.397 4.32786L53.5415 6.49862L51.3101 5.81541L52.4726 7.83879L50.5469 9.15725L52.8542 9.50913L52.6846 11.8364L54.397 10.2529Z" fill="white"/>
<path d="M44.5642 17.8163L46.278 19.401L46.1083 17.0737L48.4144 16.7206L46.4899 15.4033L47.6525 13.3788L45.4211 14.0632L44.5642 11.8924L43.7073 14.0632L41.4767 13.3788L42.6393 15.4033L40.7136 16.7206L43.0196 17.0737L42.8505 19.401L44.5642 17.8163" fill="white"/>
<path d="M53.5034 37.3178C44.0665 32.806 37.7247 29.6047 35.4384 29.6047C33.1534 29.6047 27.1775 32.806 17.7415 37.3178C8.30597 41.8319 5.08374 42.7973 5.08374 44.7715C5.08374 46.7458 7.4 45.8066 8.10425 45.5941C8.8094 45.3851 32.8877 37.5932 35.4384 37.5932C37.9889 37.5932 62.4346 45.3851 63.1398 45.5941C63.845 45.8066 66.1603 46.7458 66.1603 44.7715C66.1603 42.7973 62.9376 41.8319 53.5034 37.3178" fill="white"/>
<path d="M58.927 52.0676C54.8354 53.442 51.5855 56.4343 47.0534 55.5808C43.0804 54.8336 39.7823 51.4015 35.6096 51.4541C31.0417 51.5123 27.5942 55.446 23.112 55.8196C18.7062 56.1886 15.2787 52.6309 11.1714 51.7877C9.31484 51.4072 7.68588 51.6631 6.13501 52.1956C6.44965 53.7242 6.81471 55.1318 7.23512 56.4571C8.45796 56.1624 9.74775 56.079 11.1714 56.3703C15.2787 57.2135 18.7062 60.7712 23.112 60.4033C27.5942 60.0297 31.0417 56.0961 35.6096 56.0378C39.7823 55.9853 43.0804 59.4174 47.0534 60.1634C51.5855 61.018 54.8354 58.0235 58.927 56.6502C60.7559 56.0367 62.3902 56.0892 63.9433 56.4765C64.3641 55.1524 64.7288 53.7482 65.0435 52.223C63.1579 51.5706 61.192 51.3067 58.927 52.0676Z" fill="white"/>
<path d="M58.9268 61.234C54.8352 62.6073 51.5853 65.5995 47.0532 64.7472C43.0802 64 39.7821 60.5679 35.6094 60.6204C31.0415 60.6787 27.594 64.6124 23.1118 64.986C18.706 65.3539 15.2785 61.7961 11.1712 60.9541C10.3924 60.7941 9.65516 60.7461 8.94556 60.7838C9.87474 62.6507 11.0306 64.2685 12.4511 65.7252C12.4958 65.7697 12.5405 65.8052 12.5971 65.8326C13.0604 66.0554 15.4445 67.2116 16.6352 67.8114C18.6635 68.8294 20.7813 69.764 23.1118 69.5697C27.594 69.1961 31.0415 65.2613 35.6094 65.2031C39.7821 65.1516 43.0802 68.5837 47.0532 69.331C49.8269 69.8519 52.1632 68.9139 54.4639 67.8068C55.6586 67.2322 58.2128 65.964 58.6902 65.7275C58.7483 65.6989 58.792 65.6646 58.8353 65.6189C60.1844 64.2045 61.3426 62.5856 62.2383 60.7861C61.1939 60.7198 60.1005 60.8398 58.9268 61.234" fill="white"/>
<path d="M24.3562 73.9574C26.1793 74.9843 27.798 75.8212 29.2372 76.4812C31.2603 75.427 33.291 74.3992 35.6095 74.3694C37.9266 74.3404 39.9728 75.3856 42.0155 76.4491C43.4687 75.7796 45.103 74.9308 46.944 73.8905C43.0197 73.1001 39.7443 69.7343 35.6095 69.7868C31.4723 69.8394 28.2546 73.0692 24.3562 73.9574" fill="white"/>
<path d="M50.3715 46.4031C45.5372 44.9269 42.2312 43.9627 39.972 43.3331C37.8208 42.7345 36.8167 42.5059 36.1527 42.338C35.9553 42.2877 35.6215 42.2249 35.51 42.2055C35.3618 42.2317 35.1587 42.2729 34.8807 42.3369C34.3228 42.4648 33.4638 42.6808 32.145 43.0441C29.9059 43.661 26.3364 44.7041 20.6586 46.4636C18.8364 47.0292 16.796 47.6678 14.5132 48.3899C17.3013 49.7186 19.9759 51.5032 23.1602 51.2382C27.6419 50.8634 31.0894 46.9309 35.6573 46.8726C39.8301 46.8189 43.1281 50.2499 47.1016 50.9982C50.7946 51.6929 53.6352 49.8352 56.7736 48.3807C54.386 47.637 52.2616 46.98 50.3715 46.4031" fill="white"/>
</g>
<defs>
<clipPath id="clip0_431:4335">
<rect width="145.739" height="188" fill="white"/>
</clipPath>
</defs>
</svg>
