<svg width="100" height="117" viewBox="0 0 100 117" fill="none" xmlns="http://www.w3.org/2000/svg">
<g clip-path="url(#clip0_428:3813)">
<path d="M2.0186 0.0120495C1.74759 0.0120495 1.47841 0.0828424 1.27171 0.261817C1.06041 0.44573 0.927202 0.710309 0.91342 0.992294C0.904234 1.16492 -0.000671387 18.3766 -0.000671387 40.4525C-0.000671387 63.4262 1.52894 75.7329 5.64282 85.8587C9.81365 96.1387 16.2555 101.214 29.1106 108.704C41.4165 115.872 46.5647 116.839 49.9988 116.839C53.4346 116.839 58.584 115.872 70.8869 108.704C83.7467 101.214 90.1868 96.1387 94.3622 85.8587C98.4713 75.7329 99.9981 63.4262 99.9981 40.4525C99.9981 18.3766 99.096 1.16492 99.0868 0.992294C99.0732 0.710309 98.9445 0.44573 98.7277 0.261817C98.5191 0.0781388 98.2453 0.0120495 97.968 0.0120495C97.968 0.0120495 2.28961 0.0120495 2.0186 0.0120495V0.0120495ZM96.893 2.27193C97.0997 6.66986 97.7456 21.8629 97.7456 40.4525C97.7456 63.1028 96.262 75.1788 92.2749 85.0106C90.3429 89.7658 87.8972 93.3624 84.3439 96.6807C81.1496 99.6618 76.9208 102.581 69.7552 106.757C64.2705 109.951 59.8958 112.101 56.3744 113.332C53.1959 114.443 51.2987 114.586 49.9988 114.586C48.7006 114.586 46.8046 114.443 43.6249 113.332C40.1044 112.101 35.727 109.951 30.2453 106.759C23.0767 102.581 18.8507 99.6618 15.6583 96.6807C12.1058 93.3624 9.6593 89.7658 7.73007 85.0106C3.73837 75.1807 2.2547 63.1028 2.2547 40.4525C2.2547 21.8721 2.89778 6.69738 3.10723 2.28298L96.893 2.27193" fill="#100F0D"/>
<path d="M78.9003 27.814L77.821 24.7933L76.7507 27.7625L73.5609 27.8893L76.0967 29.8507L75.1889 32.8989L77.8116 31.0908L80.4558 32.8989L79.548 29.8159L82.0818 27.8893L78.9003 27.814" fill="#100F0D"/>
<path d="M75.1658 44.9448L77.5884 47.1835L77.3507 43.8956L80.6119 43.3968L77.8899 41.5318L79.5325 38.6729L76.3786 39.6364L75.1658 36.568L73.956 39.6364L70.8022 38.6729L72.4438 41.5318L69.7227 43.3968L72.984 43.8956L72.7453 47.1835L75.1658 44.9448" fill="#100F0D"/>
<path d="M88.3243 26.8467L90.7467 29.0854L90.508 25.7948L93.7674 25.2969L91.0454 23.4338L92.6898 20.5739L89.5369 21.5384L88.3243 18.47L87.1134 21.5384L83.9577 20.5739L85.6021 23.4338L82.8801 25.2969L86.1423 25.7948L85.9008 29.0854L88.3243 26.8467Z" fill="#100F0D"/>
<path d="M76.5532 14.506L78.9767 16.7456L78.735 13.4568L81.9963 12.958L79.2743 11.093L80.9196 8.23408L77.7639 9.20045L76.5532 6.13201L75.3406 9.20045L72.1875 8.23408L73.8321 11.093L71.1099 12.958L74.3695 13.4568L74.1296 16.7456L76.5532 14.506Z" fill="#100F0D"/>
<path d="M62.6517 25.2021L65.0741 27.442L64.8335 24.1503L68.0939 23.6515L65.3728 21.7893L67.0172 18.9276L63.8615 19.894L62.6517 16.8255L61.4408 19.894L58.2851 18.9276L59.9295 21.7893L57.2075 23.6515L60.4687 24.1503L60.2282 27.442L62.6517 25.2021" fill="#100F0D"/>
<path d="M75.2872 52.772C61.9462 46.3917 52.9824 41.8672 49.7486 41.8672C46.5195 41.8672 38.0694 46.3917 24.73 52.772C11.389 59.1523 6.83411 60.5182 6.83411 63.3094C6.83411 66.1003 10.1092 64.7718 11.1041 64.4742C12.1009 64.1746 46.1428 53.1596 49.7486 53.1596C53.3563 53.1596 87.9153 64.1746 88.9123 64.4742C89.9081 64.7718 93.1842 66.1003 93.1842 63.3094C93.1842 60.5182 88.6275 59.1523 75.2872 52.772" fill="#100F0D"/>
<path d="M82.9563 73.6233C77.1715 75.5673 72.5781 79.7968 66.1701 78.5915C60.5525 77.5351 55.8902 72.6844 49.9894 72.7578C43.5311 72.8406 38.6574 78.4005 32.3213 78.9314C26.0925 79.4504 21.2465 74.4189 15.4404 73.2282C12.8148 72.6908 10.5135 73.0518 8.32056 73.8053C8.76611 75.9669 9.28243 77.9577 9.87498 79.83C11.6049 79.4137 13.4285 79.2942 15.4404 79.7077C21.2465 80.8994 26.0925 85.929 32.3213 85.4099C38.6574 84.8798 43.5311 79.3201 49.9894 79.2364C55.8902 79.163 60.5525 84.0137 66.1701 85.071C72.5781 86.2764 77.1715 82.0459 82.9563 80.1028C85.5426 79.2345 87.853 79.31 90.0487 79.8575C90.643 77.9871 91.1583 76.0007 91.603 73.8439C88.9398 72.9215 86.1581 72.5485 82.9563 73.6233" fill="#100F0D"/>
<path d="M82.9563 86.5814C77.1715 88.5243 72.5781 92.755 66.1701 91.5497C60.5525 90.4932 55.8902 85.6426 49.9895 85.7159C43.5311 85.7987 38.6574 91.3585 32.3213 91.8895C26.0925 92.4085 21.2465 87.3787 15.4404 86.1863C14.3398 85.9622 13.2971 85.8951 12.2939 85.9474C13.6076 88.5868 15.2429 90.8744 17.2502 92.9323C17.3145 92.9993 17.3761 93.0442 17.4569 93.0866C18.111 93.4007 21.4826 95.036 23.1665 95.8812C26.0327 97.3217 29.0278 98.6446 32.3213 98.369C38.6574 97.8407 43.5311 92.2771 49.9895 92.1955C55.8902 92.1209 60.5525 96.9717 66.1701 98.0309C70.092 98.7677 73.3947 97.4402 76.6477 95.8766C78.3354 95.0636 81.9459 93.2721 82.6237 92.9368C82.7037 92.8954 82.7663 92.8467 82.8279 92.7834C84.734 90.7853 86.3721 88.4949 87.6371 85.953C86.1625 85.8566 84.6165 86.0254 82.9563 86.5814Z" fill="#100F0D"/>
<path d="M34.0795 104.572C36.6593 106.024 38.9469 107.206 40.9817 108.139C43.8434 106.65 46.7115 105.197 49.9894 105.155C53.2663 105.114 56.1611 106.591 59.0475 108.092C61.1009 107.149 63.4142 105.947 66.0158 104.477C60.4669 103.361 55.834 98.6006 49.9894 98.6759C44.1418 98.7503 39.5927 103.315 34.0795 104.572Z" fill="#100F0D"/>
<path d="M70.862 65.617C64.0268 63.5297 59.3507 62.1654 56.1583 61.2762C53.1174 60.4293 51.698 60.1075 50.7583 59.8688C50.4791 59.798 50.0078 59.708 49.8516 59.6805C49.6402 59.72 49.3537 59.7769 48.9605 59.8688C48.1722 60.0478 46.9577 60.3528 45.0927 60.8684C41.9262 61.7402 36.8824 63.2146 28.8533 65.7023C26.278 66.5017 23.3934 67.4039 20.1642 68.4236C24.1082 70.3032 27.8876 72.8267 32.3902 72.4502C38.7263 71.922 43.6 66.3611 50.0583 66.2785C55.9591 66.203 60.6214 71.0556 66.239 72.112C71.4591 73.096 75.4737 70.4676 79.9109 68.4126C76.5376 67.3606 73.5325 66.4328 70.862 65.617" fill="#100F0D"/>
</g>
<defs>
<clipPath id="clip0_428:3813">
<rect width="100" height="116.839" fill="white"/>
</clipPath>
</defs>
</svg>
