<svg width="100" height="117" viewBox="0 0 100 117" fill="none" xmlns="http://www.w3.org/2000/svg">
<g clip-path="url(#clip0_428:3814)">
<path d="M2.0186 0.0107935C1.74759 0.0107935 1.47841 0.0834674 1.27171 0.261501C1.06041 0.446356 0.927202 0.710933 0.91342 0.992918C0.904234 1.16554 -0.000671387 18.3744 -0.000671387 40.4532C-0.000671387 63.4268 1.52894 75.7326 5.64282 85.8591C9.81365 96.1393 16.2555 101.215 29.1106 108.704C41.4165 115.873 46.5647 116.839 49.9988 116.839C53.4346 116.839 58.584 115.873 70.8869 108.704C83.7467 101.215 90.1868 96.1393 94.3622 85.8591C98.4713 75.7326 99.9981 63.4268 99.9981 40.4532C99.9981 18.3744 99.096 1.16554 99.0868 0.992918C99.0732 0.710933 98.9445 0.446356 98.7277 0.261501C98.5191 0.0787638 98.2453 0.0107935 97.968 0.0107935C97.968 0.0107935 2.28961 0.0107935 2.0186 0.0107935V0.0107935ZM96.893 2.27067C97.0997 6.67025 97.7456 21.8607 97.7456 40.4532C97.7456 63.1035 96.262 75.1794 92.2749 85.0113C90.3429 89.7636 87.8972 93.3621 84.3439 96.6813C81.1496 99.6624 76.9208 102.581 69.7552 106.757C64.2705 109.952 59.8958 112.101 56.3744 113.332C53.1959 114.444 51.2987 114.586 49.9988 114.586C48.7006 114.586 46.8046 114.444 43.6249 113.332C40.1044 112.101 35.727 109.952 30.2453 106.757C23.0767 102.581 18.8507 99.6624 15.6583 96.6813C12.1058 93.3621 9.6593 89.7636 7.73007 85.0113C3.73837 75.1794 2.2547 63.1035 2.2547 40.4532C2.2547 21.8727 2.89778 6.698 3.10723 2.28361L96.893 2.27067" fill="white"/>
<path d="M78.9003 27.814L77.821 24.7914L76.7507 27.7634L73.5609 27.8902L76.0967 29.8516L75.1889 32.8989L77.8116 31.0917L80.4558 32.8989L79.548 29.8166L82.0818 27.8902L78.9003 27.814" fill="white"/>
<path d="M75.1658 44.9456L77.5884 47.1843L77.3507 43.8936L80.6119 43.3948L77.8899 41.5326L79.5325 38.6728L76.3786 39.6373L75.1658 36.5689L73.956 39.6373L70.8022 38.6728L72.4438 41.5326L69.7227 43.3948L72.984 43.8936L72.7453 47.1843L75.1658 44.9456" fill="white"/>
<path d="M88.3243 26.8474L90.7467 29.0863L90.508 25.7956L93.7674 25.2968L91.0454 23.4346L92.6898 20.5729L89.5369 21.5393L88.3243 18.4708L87.1134 21.5393L83.9577 20.5729L85.6021 23.4346L82.8801 25.2968L86.1423 25.7956L85.9008 29.0863L88.3243 26.8474Z" fill="white"/>
<path d="M76.5532 14.5068L78.9767 16.7465L78.735 13.4548L81.9963 12.9588L79.2743 11.0938L80.9196 8.23493L77.7639 9.19942L76.5532 6.13122L75.3406 9.19942L72.1875 8.23493L73.8321 11.0938L71.1099 12.9588L74.3695 13.4548L74.1296 16.7465L76.5532 14.5068Z" fill="white"/>
<path d="M62.6517 25.2003L65.0741 27.44L64.8335 24.1512L68.0939 23.6524L65.3728 21.7874L67.0172 18.9285L63.8615 19.8948L62.6517 16.8264L61.4408 19.8948L58.2851 18.9285L59.9295 21.7874L57.2075 23.6524L60.4687 24.1512L60.2282 27.44L62.6517 25.2003" fill="white"/>
<path d="M75.2872 52.77C61.9462 46.3925 52.9824 41.8681 49.7486 41.8681C46.5195 41.8681 38.0694 46.3925 24.73 52.77C11.389 59.1531 6.83411 60.5191 6.83411 63.3102C6.83411 66.1002 10.1092 64.7726 11.1041 64.4741C12.1009 64.1755 46.1428 53.1604 49.7486 53.1604C53.3563 53.1604 87.9153 64.1755 88.9123 64.4741C89.9081 64.7726 93.1842 66.1002 93.1842 63.3102C93.1842 60.5191 88.6275 59.1531 75.2872 52.77" fill="white"/>
<path d="M82.9563 73.6242C77.1715 75.5673 72.5781 79.7977 66.1701 78.5924C60.5525 77.536 55.8902 72.6825 49.9894 72.7587C43.5311 72.8387 38.6574 78.4012 32.3213 78.9297C26.0925 79.4513 21.2465 74.4189 15.4404 73.2291C12.8148 72.6898 10.5135 73.0527 8.32056 73.806C8.76611 75.9649 9.28243 77.9558 9.87498 79.8299C11.6049 79.4146 13.4285 79.2951 15.4404 79.7086C21.2465 80.8984 26.0925 85.9299 32.3213 85.409C38.6574 84.8807 43.5311 79.3182 49.9894 79.2373C55.8902 79.162 60.5525 84.0146 66.1701 85.071C72.5781 86.2773 77.1715 82.0466 82.9563 80.1037C85.5426 79.2354 87.853 79.3109 90.0487 79.8575C90.643 77.988 91.1583 76.0016 91.603 73.8445C88.9398 72.9214 86.1581 72.5494 82.9563 73.6242" fill="white"/>
<path d="M82.9562 86.5823C77.1714 88.5251 72.5781 92.7558 66.17 91.5505C60.5524 90.4938 55.8901 85.6432 49.9894 85.7168C43.531 85.7996 38.6573 91.3593 32.3212 91.8875C26.0924 92.4094 21.2464 87.377 15.4403 86.1872C14.3398 85.9621 13.297 85.896 12.2938 85.9482C13.6076 88.5877 15.2428 90.8725 17.2501 92.9332C17.3144 92.9974 17.376 93.0451 17.4569 93.0846C18.1109 93.4016 21.4825 95.0341 23.1665 95.882C26.0327 97.3216 29.0277 98.6427 32.3212 98.3689C38.6573 97.8388 43.531 92.2779 49.9894 92.1954C55.8901 92.1218 60.5524 96.9725 66.17 98.029C70.0919 98.7667 73.3946 97.441 76.6477 95.8774C78.3353 95.0644 81.9459 93.273 82.6237 92.9348C82.7036 92.8962 82.7662 92.8476 82.8278 92.7815C84.734 90.7834 86.372 88.4931 87.6371 85.951C86.1625 85.8565 84.6164 86.0263 82.9562 86.5823" fill="white"/>
<path d="M34.0795 104.573C36.6592 106.024 38.9468 107.207 40.9816 108.139C43.8433 106.649 46.7114 105.195 49.9894 105.153C53.2662 105.112 56.1611 106.591 59.0475 108.093C61.1009 107.147 63.4141 105.948 66.0157 104.476C60.4668 103.362 55.8339 98.6014 49.9894 98.6749C44.1418 98.7484 39.5926 103.316 34.0795 104.573Z" fill="white"/>
<path d="M70.862 65.6159C64.0268 63.5306 59.3507 62.1663 56.1583 61.2752C53.1174 60.4273 51.698 60.1058 50.7582 59.8697C50.4791 59.798 50.0078 59.7088 49.8516 59.6813C49.6402 59.718 49.3537 59.7778 48.9605 59.8669C48.1722 60.0487 46.9577 60.3537 45.0927 60.8683C41.9262 61.7411 36.8824 63.2154 28.8533 65.7032C26.278 66.4998 23.3934 67.4048 20.1642 68.4245C24.1082 70.3032 27.8876 72.8276 32.3902 72.4511C38.7263 71.9229 43.6 66.3601 50.0583 66.2794C55.9591 66.2039 60.6214 71.0564 66.239 72.1129C71.4591 73.0941 75.4737 70.4685 79.9109 68.4135C76.5376 67.3587 73.5325 66.4337 70.862 65.6159" fill="white"/>
</g>
<defs>
<clipPath id="clip0_428:3814">
<rect width="100" height="116.839" fill="white"/>
</clipPath>
</defs>
</svg>
