<svg width="50" height="59" viewBox="0 0 50 59" fill="none" xmlns="http://www.w3.org/2000/svg">
<g clip-path="url(#clip0_428:3810)">
<path d="M1.00918 0.00531103C0.87367 0.00531103 0.739541 0.0411776 0.634812 0.130665C0.529163 0.223562 0.463936 0.355381 0.457046 0.496844C0.452453 0.582215 0 9.18805 0 20.226C0 31.7129 0.764806 37.8657 2.82128 42.9295C4.9067 48.0691 8.12669 50.607 14.5543 54.3524C20.7081 57.9358 23.2827 58.4199 24.9998 58.4199C26.7177 58.4199 29.2923 57.9358 35.4438 54.3524C41.8737 50.607 45.0923 48.0691 47.18 42.9295C49.2355 37.8657 49.9994 31.7129 49.9994 20.226C49.9994 9.18805 49.5479 0.582215 49.5433 0.496844C49.5355 0.355381 49.4721 0.223562 49.3632 0.130665C49.2599 0.0397665 49.123 0.00578114 48.9829 0.00578114C48.9829 0.00578114 1.14376 0.0057814 1.00918 0.00531103V0.00531103ZM48.4468 1.13572C48.5502 3.33469 48.8726 10.9308 48.8726 20.226C48.8726 31.5512 48.1309 37.5896 46.1364 42.5051C45.1718 44.8817 43.9485 46.6814 42.1709 48.3401C40.5737 49.8311 38.4607 51.2909 34.8765 53.3786C32.1356 54.9753 29.9468 56.0506 28.1876 56.6657C26.5982 57.2215 25.6483 57.2927 24.9998 57.2927C24.3507 57.2927 23.4022 57.2215 21.8128 56.6657C20.0526 56.0506 17.8638 54.9753 15.1216 53.3786C11.5387 51.2909 9.42572 49.8307 7.82812 48.3401C6.05183 46.6814 4.82999 44.8817 3.86537 42.506C1.86952 37.5901 1.12631 31.5516 1.12631 20.226C1.12631 10.9363 1.44922 3.34844 1.55349 1.14125L48.4468 1.13572" fill="#B97D1C"/>
<path d="M37.644 26.386C30.9734 23.1963 26.4912 20.9336 24.8743 20.9336C23.2597 20.9336 19.0351 23.1963 12.3654 26.386C5.69444 29.5761 3.41748 30.2591 3.41748 31.6547C3.41748 33.0506 5.05504 32.3859 5.55204 32.2366C6.05043 32.0882 23.0713 26.5807 24.8743 26.5807C26.6772 26.5807 43.9576 32.0882 44.4561 32.2366C44.9545 32.3859 46.5911 33.0506 46.5911 31.6547C46.5911 30.2591 44.3137 29.5761 37.644 26.386Z" fill="#B97D1C"/>
<path d="M41.4786 36.8125C38.5857 37.7832 36.2891 39.8984 33.085 39.2962C30.2762 38.7675 27.9451 36.3412 24.9952 36.3789C21.766 36.4198 19.3292 39.2011 16.1606 39.4652C13.0462 39.7252 10.6232 37.2099 7.72018 36.6141C6.40784 36.3449 5.25581 36.5263 4.16028 36.9026C4.38306 37.9829 4.64029 38.9784 4.93795 39.9145C5.80243 39.7068 6.71423 39.6476 7.72018 39.8538C10.6232 40.4492 13.0462 42.9645 16.1606 42.7045C19.3292 42.4404 21.766 39.6596 24.9952 39.6182C27.9451 39.581 30.2762 42.0078 33.085 42.536C36.2891 43.1382 38.5857 41.0229 41.4786 40.0518C42.7716 39.6177 43.9256 39.655 45.0248 39.9283C45.321 38.9935 45.5791 38.0003 45.801 36.9219C44.469 36.4602 43.0795 36.2752 41.4786 36.8125Z" fill="#B97D1C"/>
<path d="M41.4786 43.2916C38.5857 44.2621 36.289 46.3784 33.085 45.7753C30.2762 45.247 27.9451 42.8213 24.9952 42.8584C21.766 42.8993 19.3291 45.6802 16.1606 45.9447C13.0462 46.2043 10.6232 43.6889 7.72016 43.0941C7.17034 42.9806 6.64898 42.9476 6.14691 42.9737C6.80378 44.2939 7.62141 45.4367 8.62508 46.4666C8.65631 46.4987 8.68846 46.5226 8.72843 46.5423C9.05593 46.7008 10.7403 47.5175 11.5832 47.9406C13.0163 48.6613 14.5139 49.3214 16.1606 49.184C19.3291 48.9194 21.766 46.1385 24.9952 46.0982C27.9451 46.0605 30.2762 48.4867 33.085 49.015C35.0455 49.3839 36.6968 48.7201 38.3229 47.9383C39.1681 47.5322 40.9734 46.6361 41.311 46.4679C41.3523 46.4477 41.3822 46.4243 41.413 46.3912C42.3675 45.3917 43.186 44.2471 43.819 42.9755C43.0803 42.9287 42.3077 43.0127 41.4786 43.2916Z" fill="#B97D1C"/>
<path d="M17.0402 52.286C18.3287 53.0117 19.4738 53.6029 20.4913 54.0701C21.9207 53.3246 23.3562 52.5979 24.9952 52.5772C26.6326 52.5565 28.0806 53.2952 29.5242 54.0471C30.5509 53.5735 31.7061 52.9736 33.0069 52.2382C30.2339 51.6806 27.9175 49.3007 24.9952 49.3375C22.0714 49.3747 19.7963 51.6585 17.0402 52.286Z" fill="#B97D1C"/>
<path d="M35.43 32.8084C32.0125 31.7648 29.6758 31.0826 28.0782 30.6376C26.5592 30.2146 25.8482 30.0537 25.3787 29.9344C25.2395 29.8985 25.0044 29.8544 24.9249 29.8402C24.8206 29.8594 24.6769 29.8888 24.4807 29.9339C24.0856 30.0238 23.4793 30.1764 22.5455 30.4336C20.9631 30.87 18.4403 31.6072 14.4266 32.8511C13.1382 33.2508 11.6958 33.7019 10.0826 34.2127C12.0541 35.1511 13.9433 36.4133 16.1951 36.2255C19.3636 35.9609 21.8005 33.18 25.0296 33.1392C27.9795 33.1019 30.3107 35.5277 33.1195 36.0559C35.7286 36.547 37.7373 35.2347 39.9559 34.2062C38.2688 33.6798 36.7667 33.2163 35.43 32.8084" fill="#B97D1C"/>
<path d="M33.0107 11.3144C33.0107 12.2345 32.2642 12.981 31.3442 12.981C30.4232 12.981 29.6768 12.2345 29.6768 11.3144C29.6768 10.3935 30.4232 9.647 31.3442 9.647C32.2642 9.647 33.0107 10.3935 33.0107 11.3144Z" fill="#B97D1C"/>
<path d="M39.9614 5.93692C39.9614 6.85755 39.2149 7.60437 38.2954 7.60437C37.3744 7.60437 36.6279 6.85755 36.6279 5.93692C36.6279 5.01594 37.3744 4.26959 38.2954 4.26959C39.2149 4.26959 39.9614 5.01594 39.9614 5.93692Z" fill="#B97D1C"/>
<path d="M45.848 12.1027C45.848 13.0232 45.1015 13.7701 44.1805 13.7701C43.2595 13.7701 42.5131 13.0232 42.5131 12.1027C42.5131 11.1817 43.2595 10.4352 44.1805 10.4352C45.1015 10.4352 45.848 11.1817 45.848 12.1027Z" fill="#B97D1C"/>
<path d="M39.2692 21.1471C39.2692 22.0681 38.5228 22.8146 37.6018 22.8146C36.6809 22.8146 35.9344 22.0681 35.9344 21.1471C35.9344 20.2266 36.6809 19.4797 37.6018 19.4797C38.5228 19.4797 39.2692 20.2266 39.2692 21.1471Z" fill="#B97D1C"/>
<path d="M40.1566 14.5923C40.1566 15.2707 39.6068 15.821 38.9279 15.821C38.2504 15.821 37.7005 15.2707 37.7005 14.5923C37.7005 13.9143 38.2504 13.3641 38.9279 13.3641C39.6068 13.3641 40.1566 13.9143 40.1566 14.5923Z" fill="#B97D1C"/>
</g>
<defs>
<clipPath id="clip0_428:3810">
<rect width="50" height="58.4196" fill="white"/>
</clipPath>
</defs>
</svg>
