<svg width="50" height="59" viewBox="0 0 50 59" fill="none" xmlns="http://www.w3.org/2000/svg">
<g clip-path="url(#clip0_428:3812)">
<path d="M1.00918 0.00539676C0.87367 0.00539676 0.739541 0.0417337 0.634812 0.130751C0.529163 0.223178 0.463936 0.355467 0.457046 0.496459C0.452453 0.582772 0 9.18719 0 20.2266C0 31.7134 0.764806 37.8663 2.82128 42.9296C4.9067 48.0696 8.12669 50.6075 14.5543 54.3521C20.7081 57.9363 23.2827 58.4196 24.9998 58.4196C26.7177 58.4196 29.2923 57.9363 35.4438 54.3521C41.8737 50.6075 45.0923 48.0696 47.18 42.9296C49.2355 37.8663 49.9994 31.7134 49.9994 20.2266C49.9994 9.18719 49.5479 0.582772 49.5433 0.496459C49.5355 0.355467 49.4721 0.223178 49.3632 0.130751C49.2599 0.0393819 49.123 0.00539676 48.9829 0.00539676C48.9829 0.00539676 1.14376 0.00539676 1.00918 0.00539676V0.00539676ZM48.4468 1.13534C48.5502 3.33513 48.8726 10.9304 48.8726 20.2266C48.8726 31.5517 48.1309 37.5897 46.1364 42.5056C45.1718 44.8818 43.9485 46.6811 42.1709 48.3407C40.5737 49.8312 38.4607 51.2906 34.8765 53.3783C32.1356 54.9759 29.9468 56.0507 28.1876 56.6662C26.5982 57.222 25.6483 57.2932 24.9998 57.2932C24.3507 57.2932 23.4022 57.222 21.8128 56.6662C20.0526 56.0507 17.8638 54.9759 15.1216 53.3783C11.5387 51.2906 9.42572 49.8312 7.82812 48.3407C6.05183 46.6811 4.82999 44.8818 3.86537 42.5056C1.86952 37.5897 1.12631 31.5517 1.12631 20.2266C1.12631 10.9364 1.44922 3.349 1.55349 1.1418L48.4468 1.13534" fill="white"/>
<path d="M37.644 26.3849C30.9734 23.1962 26.4912 20.934 24.8743 20.934C23.2597 20.934 19.0351 23.1962 12.3654 26.3849C5.69444 29.5765 3.41748 30.2595 3.41748 31.6551C3.41748 33.05 5.05504 32.3862 5.55204 32.237C6.05043 32.0877 23.0713 26.5801 24.8743 26.5801C26.6772 26.5801 43.9576 32.0877 44.4561 32.237C44.9545 32.3862 46.5911 33.05 46.5911 31.6551C46.5911 30.2595 44.3137 29.5765 37.644 26.3849Z" fill="white"/>
<path d="M41.4786 36.8121C38.5857 37.7837 36.2891 39.8989 33.085 39.2963C30.2762 38.768 27.9451 36.3413 24.9952 36.3794C21.766 36.4194 19.3292 39.2007 16.1606 39.4649C13.0462 39.7257 10.6232 37.2095 7.72018 36.6146C6.40784 36.3449 5.25581 36.5264 4.16028 36.903C4.38306 37.9825 4.64029 38.9779 4.93795 39.915C5.80243 39.7074 6.71423 39.6476 7.72018 39.8544C10.6232 40.4493 13.0462 42.965 16.1606 42.7045C19.3292 42.4404 21.766 39.6592 24.9952 39.6187C27.9451 39.5811 30.2762 42.0073 33.085 42.5356C36.2891 43.1387 38.5857 41.0233 41.4786 40.0519C42.7716 39.6178 43.9256 39.6555 45.0248 39.9288C45.321 38.9941 45.5791 38.0009 45.801 36.9223C44.469 36.4608 43.0795 36.2747 41.4786 36.8121Z" fill="white"/>
<path d="M41.4786 43.2912C38.5857 44.2626 36.289 46.378 33.085 45.7753C30.2762 45.247 27.9451 42.8217 24.9952 42.8585C21.766 42.8999 19.3291 45.6797 16.1606 45.9438C13.0462 46.2048 10.6232 43.6885 7.72016 43.0936C7.17034 42.9811 6.64898 42.9481 6.14691 42.9742C6.80378 44.2939 7.62141 45.4363 8.62508 46.4666C8.65631 46.4987 8.68846 46.5226 8.72843 46.5424C9.05593 46.7008 10.7403 47.5171 11.5832 47.9411C13.0163 48.6609 14.5139 49.3214 16.1606 49.1845C19.3291 48.9195 21.766 46.139 24.9952 46.0978C27.9451 46.061 30.2762 48.4863 33.085 49.0146C35.0455 49.3834 36.6968 48.7206 38.3229 47.9388C39.1681 47.5323 40.9734 46.6366 41.311 46.4675C41.3523 46.4482 41.3822 46.4238 41.413 46.3908C42.3675 45.3917 43.186 44.2466 43.819 42.9756C43.0803 42.9283 42.3077 43.0132 41.4786 43.2912" fill="white"/>
<path d="M17.0402 52.2864C18.3287 53.0122 19.4738 53.6034 20.4913 54.0696C21.9207 53.3245 23.3562 52.5974 24.9952 52.5767C26.6326 52.556 28.0806 53.2956 29.5242 54.0466C30.5509 53.5735 31.7061 52.974 33.0069 52.2382C30.2339 51.681 27.9175 49.3007 24.9952 49.3374C22.0714 49.3742 19.7963 51.658 17.0402 52.2864Z" fill="white"/>
<path d="M35.43 32.808C32.0125 31.7653 29.6758 31.0831 28.0782 30.6376C26.5592 30.2137 25.8482 30.0529 25.3787 29.9349C25.2395 29.899 25.0044 29.8544 24.9249 29.8407C24.8206 29.859 24.6769 29.8889 24.4807 29.9334C24.0856 30.0243 23.4793 30.1769 22.5455 30.4341C20.9631 30.8705 18.4403 31.6077 14.4266 32.8516C13.1382 33.2499 11.6958 33.7024 10.0826 34.2123C12.0541 35.1516 13.9433 36.4138 16.1951 36.2255C19.3636 35.9614 21.8005 33.18 25.0296 33.1397C27.9795 33.102 30.3107 35.5282 33.1195 36.0564C35.7286 36.547 37.7373 35.2342 39.9559 34.2067C38.2688 33.6793 36.7667 33.2168 35.43 32.808" fill="white"/>
<path d="M33.0107 11.314C33.0107 12.235 32.2642 12.9814 31.3442 12.9814C30.4232 12.9814 29.6768 12.235 29.6768 11.314C29.6768 10.393 30.4232 9.64655 31.3442 9.64655C32.2642 9.64655 33.0107 10.393 33.0107 11.314Z" fill="white"/>
<path d="M39.9614 5.93737C39.9614 6.85753 39.2149 7.60388 38.2954 7.60388C37.3744 7.60388 36.6279 6.85753 36.6279 5.93737C36.6279 5.01639 37.3744 4.27004 38.2954 4.27004C39.2149 4.27004 39.9614 5.01639 39.9614 5.93737Z" fill="white"/>
<path d="M45.848 12.1031C45.848 13.0227 45.1015 13.7692 44.1805 13.7692C43.2595 13.7692 42.5131 13.0227 42.5131 12.1031C42.5131 11.1821 43.2595 10.4357 44.1805 10.4357C45.1015 10.4357 45.848 11.1821 45.848 12.1031Z" fill="white"/>
<path d="M39.2692 21.1476C39.2692 22.0686 38.5228 22.8151 37.6018 22.8151C36.6809 22.8151 35.9344 22.0686 35.9344 21.1476C35.9344 20.2266 36.6809 19.4802 37.6018 19.4802C38.5228 19.4802 39.2692 20.2266 39.2692 21.1476Z" fill="white"/>
<path d="M40.1566 14.5928C40.1566 15.2711 39.6068 15.8201 38.9279 15.8201C38.2504 15.8201 37.7005 15.2711 37.7005 14.5928C37.7005 13.9138 38.2504 13.364 38.9279 13.364C39.6068 13.364 40.1566 13.9138 40.1566 14.5928Z" fill="white"/>
</g>
<defs>
<clipPath id="clip0_428:3812">
<rect width="50" height="58.4196" fill="white"/>
</clipPath>
</defs>
</svg>
