<svg width="146" height="188" viewBox="0 0 146 188" fill="none" xmlns="http://www.w3.org/2000/svg">
<g clip-path="url(#clip0_431:4333)">
<path d="M6.06374 114.361H13.9631L10.0366 103.238L6.06374 114.361ZM-0.000488281 123.392L8.34519 100.318H11.6803L20.0269 123.392H17.0114L14.7442 117.073H5.31397L2.99994 123.392H-0.000488281Z" fill="#100F0D"/>
<path d="M28.6271 123.711C27.7656 123.701 26.9548 123.576 26.1939 123.336C25.4329 123.096 24.7599 122.744 24.1753 122.276C23.5906 121.808 23.13 121.225 22.7954 120.528C22.4592 119.831 22.2919 119.02 22.2919 118.095V106.892H25.2441V117.791C25.2441 118.866 25.5766 119.739 26.2416 120.408C26.9057 121.079 27.9085 121.414 29.2496 121.414C30.4626 121.414 31.4387 121.097 32.1773 120.465C32.9172 119.831 33.2864 118.887 33.2864 117.632V106.892H36.223V123.392H33.8777L33.5742 120.233C33.3711 121.063 33.0288 121.733 32.5446 122.243C32.0612 122.755 31.4811 123.13 30.8049 123.369C30.1302 123.608 29.4035 123.721 28.6271 123.711" fill="#100F0D"/>
<path d="M46.3716 123.711C45.2237 123.711 44.1571 123.533 43.1717 123.177C42.189 122.82 41.3708 122.262 40.7237 121.502C40.0744 120.741 39.6652 119.769 39.4943 118.589H42.1755C42.3251 119.238 42.5915 119.777 42.9811 120.209C43.3694 120.64 43.8567 120.965 44.4413 121.183C45.0261 121.401 45.6643 121.509 46.356 121.509C47.4628 121.509 48.3567 121.302 49.0373 120.888C49.7179 120.473 50.058 119.835 50.058 118.973C50.058 118.366 49.8795 117.88 49.5238 117.513C49.1668 117.145 48.6164 116.877 47.8725 116.706L44.457 115.859C43.1271 115.541 42.0626 115.042 41.2661 114.361C40.4685 113.68 40.0691 112.727 40.0691 111.504C40.0588 110.536 40.2864 109.685 40.755 108.95C41.2236 108.217 41.9243 107.637 42.8615 107.212C43.7965 106.786 44.9627 106.573 46.356 106.573C48.1434 106.573 49.5885 106.976 50.6886 107.778C51.7896 108.582 52.3609 109.759 52.4033 111.312H49.8027C49.6956 110.526 49.3417 109.9 48.7414 109.438C48.1411 108.975 47.3347 108.744 46.3248 108.744C45.2706 108.744 44.4146 108.954 43.7555 109.374C43.0958 109.795 42.7656 110.445 42.7656 111.329C42.7656 111.914 42.9998 112.373 43.4676 112.71C43.9362 113.044 44.6279 113.323 45.5428 113.547L48.8454 114.378C49.6116 114.578 50.2423 114.845 50.7363 115.174C51.2317 115.504 51.6245 115.871 51.9168 116.275C52.2104 116.68 52.4166 117.103 52.5393 117.544C52.6612 117.986 52.7237 118.409 52.7237 118.812C52.7237 119.823 52.4702 120.694 51.965 121.423C51.4607 122.15 50.7363 122.714 49.7947 123.113C48.853 123.512 47.7127 123.711 46.3716 123.711" fill="#100F0D"/>
<path d="M64.5482 109.046H60.8292V119.308C60.8292 119.893 60.8908 120.321 61.0123 120.592C61.135 120.863 61.3438 121.036 61.6348 121.111C61.9284 121.186 62.3288 121.223 62.8398 121.223H64.6428V123.2C64.441 123.275 64.1353 123.34 63.7257 123.392C63.3165 123.445 62.8085 123.472 62.2016 123.472C61.0636 123.472 60.1812 123.319 59.5528 123.009C58.9249 122.702 58.4862 122.243 58.2363 121.637C57.9863 121.031 57.8613 120.286 57.8613 119.403V109.046H55.1805V106.892H57.9418L58.6594 102.09H60.8292V106.876H64.5482V109.046" fill="#100F0D"/>
<path d="M68.4734 123.392V106.892H71.2814V110.068C71.5582 109.281 71.9465 108.629 72.4464 108.114C72.9475 107.597 73.5187 107.212 74.1614 106.956C74.8063 106.701 75.4736 106.573 76.164 106.573C76.4094 106.573 76.6495 106.589 76.8825 106.621C77.1159 106.653 77.2967 106.707 77.4247 106.78V109.636C77.2653 109.563 77.061 109.513 76.8111 109.486C76.5602 109.459 76.3505 109.446 76.1809 109.446C75.5204 109.403 74.9045 109.444 74.3288 109.565C73.7553 109.688 73.2497 109.897 72.8137 110.196C72.3762 110.493 72.0335 110.884 71.785 111.368C71.5336 111.853 71.4087 112.44 71.4087 113.132V123.392H68.4734Z" fill="#100F0D"/>
<path d="M85.5628 121.589C86.1162 121.589 86.6673 121.489 87.214 121.285C87.7621 121.084 88.2642 120.81 88.7226 120.465C89.1801 120.119 89.5451 119.731 89.816 119.3C90.0873 118.868 90.2279 118.426 90.2391 117.966V115.142L87.7808 115.19C86.5259 115.212 85.4758 115.34 84.6291 115.573C83.7843 115.807 83.1506 116.175 82.7301 116.674C82.3094 117.175 82.101 117.829 82.101 118.637C82.101 119.564 82.4209 120.286 83.0658 120.807C83.7085 121.329 84.5422 121.589 85.5628 121.589V121.589ZM84.6693 123.711C83.6058 123.711 82.6632 123.522 81.8451 123.144C81.0254 122.767 80.3849 122.222 79.9216 121.509C79.4597 120.798 79.2277 119.936 79.2277 118.924C79.2277 117.095 79.8659 115.733 81.1423 114.839C82.4187 113.945 84.4672 113.467 87.2854 113.403L90.2391 113.323V112.031C90.2391 111.02 89.9356 110.219 89.3295 109.629C88.7226 109.038 87.7808 108.744 86.5045 108.744C85.5574 108.754 84.7251 108.977 84.0066 109.413C83.2889 109.85 82.8239 110.563 82.6106 111.552H80.0087C80.0733 110.478 80.3769 109.571 80.9205 108.832C81.4628 108.091 82.2201 107.531 83.193 107.147C84.1673 106.765 85.3187 106.573 86.6474 106.573C88.0844 106.573 89.2782 106.776 90.2301 107.179C91.183 107.585 91.8948 108.179 92.3688 108.967C92.8418 109.755 93.0797 110.722 93.0797 111.871V123.392H90.5582L90.3507 120.296C89.7125 121.584 88.9002 122.475 87.917 122.969C86.9321 123.464 85.8498 123.711 84.6693 123.711" fill="#100F0D"/>
<path d="M101.712 123.6C100.818 123.6 100.098 123.477 99.5496 123.234C99.002 122.989 98.5812 122.659 98.2888 122.243C97.9965 121.828 97.8002 121.353 97.6988 120.815C97.5984 120.279 97.5471 119.721 97.5471 119.147V99.68H100.451V118.86C100.451 119.69 100.613 120.313 100.938 120.727C101.262 121.143 101.718 121.371 102.302 121.414L103.196 121.429V123.344C102.952 123.418 102.696 123.48 102.43 123.528C102.165 123.576 101.925 123.6 101.712 123.6" fill="#100F0D"/>
<path d="M109.755 106.892V123.392H106.899V106.892H109.755ZM109.819 100.333V103.397H106.803V100.333H109.819" fill="#100F0D"/>
<path d="M120.079 121.589C120.633 121.589 121.184 121.489 121.731 121.285C122.278 121.084 122.781 120.81 123.239 120.465C123.696 120.119 124.062 119.731 124.332 119.3C124.603 118.868 124.744 118.426 124.755 117.966V115.142L122.298 115.19C121.042 115.212 119.992 115.34 119.145 115.573C118.301 115.807 117.667 116.175 117.247 116.674C116.826 117.175 116.617 117.829 116.617 118.637C116.617 119.564 116.937 120.286 117.583 120.807C118.225 121.329 119.059 121.589 120.079 121.589V121.589ZM119.185 123.711C118.122 123.711 117.179 123.522 116.361 123.144C115.542 122.767 114.901 122.222 114.438 121.509C113.976 120.798 113.744 119.936 113.744 118.924C113.744 117.095 114.382 115.733 115.659 114.839C116.935 113.945 118.983 113.467 121.802 113.403L124.755 113.323V112.031C124.755 111.02 124.451 110.219 123.846 109.629C123.239 109.038 122.298 108.744 121.02 108.744C120.073 108.754 119.241 108.977 118.523 109.413C117.805 109.85 117.34 110.563 117.127 111.552H114.525C114.59 110.478 114.893 109.571 115.437 108.832C115.978 108.091 116.736 107.531 117.709 107.147C118.684 106.765 119.834 106.573 121.163 106.573C122.6 106.573 123.794 106.776 124.746 107.179C125.699 107.585 126.411 108.179 126.885 108.967C127.358 109.755 127.595 110.722 127.595 111.871V123.392H125.074L124.867 120.296C124.228 121.584 123.416 122.475 122.434 122.969C121.448 123.464 120.366 123.711 119.185 123.711Z" fill="#100F0D"/>
<path d="M131.935 123.392V106.892H134.791V109.286C135.057 108.829 135.426 108.398 135.9 107.993C136.373 107.589 136.948 107.265 137.623 107.02C138.3 106.776 139.079 106.653 139.962 106.653C141.005 106.653 141.964 106.86 142.841 107.275C143.72 107.69 144.422 108.337 144.949 109.215C145.475 110.092 145.737 111.222 145.737 112.606V123.392H142.785V112.892C142.785 111.606 142.447 110.651 141.773 110.028C141.096 109.406 140.221 109.094 139.149 109.094C138.402 109.094 137.706 109.215 137.057 109.454C136.409 109.693 135.881 110.055 135.478 110.538C135.072 111.023 134.871 111.631 134.871 112.365V123.392H131.935" fill="#100F0D"/>
<path d="M15.4627 129.99H18.4149V153.064H15.7818L3.39803 134.872V153.064H0.447144V129.99H3.27084L15.4627 147.926V129.99Z" fill="#100F0D"/>
<path d="M28.9317 151.262C29.4838 151.262 30.035 151.161 30.583 150.958C31.1297 150.756 31.6327 150.482 32.0901 150.136C32.5476 149.791 32.9114 149.403 33.1849 148.971C33.4536 148.541 33.5955 148.096 33.6075 147.639V144.814L31.1485 144.861C29.8943 144.884 28.8433 145.011 27.9977 145.244C27.1519 145.478 26.5195 145.846 26.0987 146.347C25.6783 146.847 25.4685 147.502 25.4685 148.31C25.4685 149.235 25.7898 149.958 26.4347 150.48C27.076 151.001 27.9106 151.262 28.9317 151.262V151.262ZM28.0368 153.384C26.9734 153.384 26.0308 153.194 25.214 152.817C24.3938 152.439 23.7533 151.894 23.2905 151.18C22.8273 150.469 22.5966 149.607 22.5966 148.597C22.5966 146.767 23.2348 145.405 24.5112 144.511C25.7876 143.617 27.8347 143.138 30.6531 143.074L33.6075 142.994V141.703C33.6075 140.692 33.3031 139.891 32.6984 139.301C32.0901 138.71 31.1485 138.415 29.8721 138.415C28.9237 138.425 28.0927 138.649 27.375 139.086C26.6578 139.521 26.1915 140.234 25.9795 141.223H23.3776C23.4424 140.149 23.7444 139.242 24.2867 138.503C24.8289 137.763 25.5876 137.202 26.5606 136.819C27.5357 136.436 28.6863 136.244 30.0162 136.244C31.4533 136.244 32.6471 136.448 33.5977 136.851C34.5505 137.256 35.2632 137.851 35.7377 138.639C36.2095 139.425 36.4473 140.394 36.4473 141.542V153.064H33.9257L33.7191 149.969C33.08 151.257 32.2678 152.147 31.2845 152.642C30.3005 153.137 29.2182 153.384 28.0368 153.384" fill="#100F0D"/>
<path d="M48.4637 138.718H44.7438V148.98C44.7438 149.563 44.8063 149.992 44.9277 150.265C45.0505 150.536 45.258 150.707 45.5503 150.783C45.8426 150.856 46.2443 150.893 46.7552 150.893H48.5583V152.872C48.3566 152.948 48.0496 153.011 47.6411 153.064C47.2319 153.118 46.7231 153.144 46.1162 153.144C44.9791 153.144 44.0953 152.99 43.4674 152.682C42.8404 152.372 42.4008 151.915 42.1517 151.309C41.9018 150.702 41.7759 149.958 41.7759 149.076V138.718H39.0959V136.563H41.8563L42.5735 131.76H44.7438V136.548H48.4637V138.718" fill="#100F0D"/>
<path d="M55.5787 136.563V153.064H52.7238V136.563H55.5787ZM55.6433 130.005V133.069H52.6278V130.005H55.6433Z" fill="#100F0D"/>
<path d="M67.005 151.054C67.9935 151.054 68.829 150.805 69.5096 150.304C70.1902 149.804 70.707 149.086 71.0572 148.149C71.4086 147.215 71.5849 146.101 71.5849 144.814C71.5849 143.633 71.4309 142.571 71.122 141.63C70.8128 140.688 70.3209 139.943 69.6457 139.388C68.9695 138.836 68.0895 138.559 67.005 138.559C66.0039 138.559 65.1582 138.805 64.4678 139.301C63.776 139.795 63.2516 140.512 62.8955 141.447C62.5399 142.383 62.3613 143.506 62.3613 144.814C62.3613 145.974 62.5197 147.027 62.8398 147.975C63.1589 148.922 63.6587 149.671 64.3406 150.225C65.0211 150.778 65.908 151.054 67.005 151.054V151.054ZM67.005 153.384C65.4831 153.384 64.1532 153.056 63.0151 152.402C61.8771 151.748 60.9943 150.789 60.3673 149.522C59.738 148.257 59.4247 146.707 59.4247 144.878C59.4247 143.154 59.7179 141.644 60.3026 140.346C60.8872 139.048 61.7463 138.039 62.8799 137.323C64.0135 136.604 65.3872 136.244 67.005 136.244C68.5255 136.244 69.8478 136.577 70.9703 137.242C72.0913 137.907 72.963 138.884 73.5789 140.171C74.197 141.457 74.5035 143.027 74.5035 144.878C74.5035 146.559 74.2193 148.038 73.6503 149.316C73.0812 150.592 72.2423 151.588 71.1287 152.307C70.0175 153.024 68.6429 153.384 67.005 153.384" fill="#100F0D"/>
<path d="M78.0629 153.064V136.563H80.9205V138.958C81.1847 138.499 81.5542 138.07 82.0282 137.664C82.5012 137.261 83.077 136.937 83.7522 136.692C84.427 136.448 85.2071 136.324 86.0895 136.324C87.1329 136.324 88.0924 136.532 88.9694 136.946C89.8472 137.362 90.5502 138.008 91.0767 138.886C91.6033 139.763 91.8658 140.894 91.8658 142.277V153.064H88.9135V142.563C88.9135 141.276 88.5753 140.322 87.9014 139.699C87.2252 139.078 86.3496 138.766 85.2763 138.766C84.531 138.766 83.8347 138.886 83.1854 139.126C82.5369 139.364 82.0094 139.725 81.6056 140.21C81.2003 140.694 80.9985 141.303 80.9985 142.038V153.064H78.0629" fill="#100F0D"/>
<path d="M101.569 151.262C102.122 151.262 102.673 151.161 103.22 150.958C103.768 150.756 104.271 150.482 104.729 150.136C105.186 149.791 105.55 149.403 105.821 148.971C106.092 148.541 106.234 148.096 106.245 147.639V144.814L103.786 144.861C102.532 144.884 101.481 145.011 100.635 145.244C99.7906 145.478 99.1569 145.846 98.7364 146.347C98.3155 146.847 98.1059 147.502 98.1059 148.31C98.1059 149.235 98.4272 149.958 99.0721 150.48C99.7148 151.001 100.547 151.262 101.569 151.262V151.262ZM100.676 153.384C99.6111 153.384 98.6695 153.194 97.8514 152.817C97.0316 152.439 96.3912 151.894 95.9279 151.18C95.466 150.469 95.233 149.607 95.233 148.597C95.233 146.767 95.8722 145.405 97.1486 144.511C98.4249 143.617 100.473 143.138 103.292 143.074L106.245 142.994V141.703C106.245 140.692 105.941 139.891 105.336 139.301C104.729 138.71 103.786 138.415 102.51 138.415C101.562 138.425 100.731 138.649 100.013 139.086C99.2952 139.521 98.8301 140.234 98.6168 141.223H96.015C96.0796 140.149 96.3823 139.242 96.9253 138.503C97.4677 137.763 98.2254 137.202 99.1993 136.819C100.173 136.436 101.325 136.244 102.654 136.244C104.091 136.244 105.285 136.448 106.236 136.851C107.188 137.256 107.901 137.851 108.375 138.639C108.848 139.425 109.085 140.394 109.085 141.542V153.064H106.563L106.357 149.969C105.719 151.257 104.906 152.147 103.922 152.642C102.938 153.137 101.856 153.384 100.676 153.384" fill="#100F0D"/>
<path d="M117.718 153.272C116.825 153.272 116.104 153.15 115.555 152.904C115.008 152.66 114.588 152.33 114.294 151.915C114.003 151.501 113.806 151.025 113.705 150.487C113.605 149.951 113.553 149.395 113.553 148.82V129.352H116.457V148.532C116.457 149.363 116.619 149.985 116.944 150.4C117.268 150.814 117.723 151.043 118.307 151.084L119.201 151.103V153.017C118.957 153.09 118.702 153.152 118.436 153.2C118.17 153.248 117.931 153.272 117.718 153.272" fill="#100F0D"/>
<path d="M17.3134 174.755C17.3134 176.533 17.0211 178.037 16.4365 179.271C15.8509 180.505 14.9383 181.445 13.6998 182.088C12.4601 182.733 10.8511 183.054 8.87181 183.054C6.87242 183.054 5.25239 182.724 4.01302 182.065C2.77322 181.406 1.86948 180.437 1.30045 179.16C0.731432 177.884 0.447144 176.313 0.447144 174.453V159.66H3.51095V174.9C3.51095 176.761 3.97285 178.155 4.89892 179.079C5.82364 180.007 7.14912 180.468 8.87181 180.468C10.0313 180.468 11.0185 180.266 11.8321 179.862C12.6465 179.458 13.2692 178.844 13.6998 178.02C14.1305 177.195 14.3457 176.154 14.3457 174.9V159.66H17.3134V174.755Z" fill="#100F0D"/>
<path d="M21.6224 182.735V166.235H24.4778V168.628C24.7442 168.172 25.1138 167.741 25.5877 167.335C26.0599 166.932 26.6366 166.607 27.3095 166.363C27.9856 166.117 28.7667 165.995 29.649 165.995C30.6925 165.995 31.6498 166.202 32.5276 166.618C33.4059 167.033 34.1088 167.678 34.6363 168.556C35.1607 169.434 35.4241 170.564 35.4241 171.946V182.735H32.4718V172.235C32.4718 170.947 32.134 169.993 31.46 169.37C30.7848 168.747 29.9092 168.437 28.8345 168.437C28.0905 168.437 27.3921 168.556 26.7427 168.796C26.0965 169.034 25.569 169.398 25.1651 169.882C24.7599 170.364 24.5581 170.974 24.5581 171.708V182.735H21.6224" fill="#100F0D"/>
<path d="M42.8137 166.235V182.735H39.9574V166.235H42.8137ZM42.8785 159.676V162.74H39.8616V159.676H42.8785Z" fill="#100F0D"/>
<path d="M60.574 166.235L54.6226 182.735H51.9413L45.9735 166.235H48.7503L53.1374 179.033H53.4087L57.8136 166.235H60.574Z" fill="#100F0D"/>
<path d="M64.9454 173.176H73.9137C73.9137 172.229 73.7539 171.375 73.4339 170.614C73.1157 169.855 72.6292 169.253 71.9746 168.812C71.3207 168.369 70.4982 168.15 69.5097 168.15C68.4778 168.15 67.6241 168.397 66.948 168.892C66.2719 169.386 65.7676 170.019 65.4319 170.79C65.0959 171.562 64.9351 172.357 64.9454 173.176V173.176ZM64.9299 175.171C64.9299 176.214 65.1025 177.158 65.4475 178.003C65.7934 178.848 66.3209 179.523 67.0283 180.023C67.7347 180.522 68.6206 180.772 69.6851 180.772C70.7383 180.772 71.6443 180.527 72.4061 180.038C73.1661 179.549 73.6535 178.84 73.8656 177.915H76.6584C76.4554 179.033 76.009 179.974 75.3173 180.741C74.6256 181.505 73.7909 182.083 72.8136 182.47C71.8327 182.86 70.812 183.054 69.7484 183.054C68.2065 183.054 66.8497 182.719 65.6805 182.049C64.509 181.378 63.5941 180.416 62.9349 179.16C62.2743 177.906 61.9451 176.399 61.9451 174.645C61.9451 172.91 62.2431 171.389 62.839 170.08C63.4348 168.771 64.2992 167.749 65.4319 167.017C66.5655 166.282 67.929 165.915 69.5253 165.915C71.0784 165.915 72.3927 166.251 73.4674 166.921C74.5408 167.591 75.3574 168.535 75.9162 169.753C76.4754 170.972 76.753 172.416 76.753 174.086V175.171H64.9299" fill="#100F0D"/>
<path d="M80.4729 182.735V166.235H83.2814V169.41C83.558 168.623 83.9464 167.972 84.4462 167.457C84.947 166.939 85.5182 166.554 86.1609 166.298C86.8057 166.043 87.473 165.915 88.1638 165.915C88.4092 165.915 88.6489 165.931 88.8823 165.963C89.1153 165.995 89.2974 166.049 89.4246 166.123V168.98C89.2649 168.905 89.0609 168.854 88.8109 168.828C88.5597 168.801 88.3499 168.789 88.1804 168.789C87.5212 168.745 86.904 168.786 86.3295 168.908C85.7547 169.03 85.2495 169.24 84.8131 169.537C84.377 169.836 84.0334 170.226 83.7844 170.71C83.5336 171.195 83.4086 171.783 83.4086 172.474V182.735H80.4729" fill="#100F0D"/>
<path d="M98.2643 183.054C97.1152 183.054 96.0498 182.876 95.0644 182.52C94.0803 182.164 93.2636 181.603 92.6156 180.843C91.9662 180.082 91.5565 179.113 91.387 177.931H94.0669C94.2165 178.58 94.4842 179.121 94.8738 179.551C95.2621 179.982 95.7486 180.307 96.3341 180.525C96.9188 180.743 97.557 180.851 98.2488 180.851C99.3546 180.851 100.248 180.645 100.93 180.229C101.611 179.814 101.951 179.175 101.951 178.314C101.951 177.708 101.772 177.22 101.415 176.854C101.059 176.487 100.509 176.218 99.7652 176.049L96.3497 175.203C95.0198 174.884 93.9553 174.384 93.1579 173.703C92.3612 173.021 91.9618 172.07 91.9618 170.846C91.9507 169.88 92.1792 169.028 92.6477 168.294C93.1155 167.558 93.817 166.98 94.7543 166.554C95.6892 166.128 96.8554 165.915 98.2488 165.915C100.036 165.915 101.48 166.316 102.58 167.121C103.682 167.924 104.254 169.102 104.296 170.654H101.695C101.588 169.868 101.234 169.243 100.634 168.78C100.034 168.316 99.2274 168.085 98.2175 168.085C97.1634 168.085 96.3073 168.296 95.6482 168.717C94.9877 169.136 94.6583 169.789 94.6583 170.67C94.6583 171.256 94.8917 171.716 95.3603 172.052C95.8276 172.385 96.5193 172.665 97.4355 172.889L100.737 173.719C101.504 173.922 102.134 174.186 102.629 174.517C103.124 174.846 103.516 175.214 103.809 175.618C104.103 176.023 104.309 176.446 104.432 176.886C104.554 177.328 104.616 177.75 104.616 178.155C104.616 179.165 104.363 180.035 103.858 180.763C103.352 181.492 102.629 182.057 101.686 182.454C100.746 182.854 99.6055 183.054 98.2643 183.054" fill="#100F0D"/>
<path d="M111.605 166.235V182.735H108.749V166.235H111.605ZM111.67 159.676V162.74H108.653V159.676H111.67Z" fill="#100F0D"/>
<path d="M124.754 168.389H121.035V178.648C121.035 179.235 121.097 179.662 121.218 179.934C121.341 180.206 121.549 180.378 121.841 180.453C122.134 180.527 122.535 180.564 123.046 180.564H124.849V182.543C124.647 182.618 124.34 182.682 123.931 182.735C123.522 182.788 123.015 182.815 122.407 182.815C121.269 182.815 120.387 182.66 119.758 182.353C119.131 182.043 118.692 181.586 118.443 180.978C118.193 180.372 118.068 179.629 118.068 178.746V168.389H115.387V166.235H118.148L118.866 161.431H121.035V166.218H124.754V168.389Z" fill="#100F0D"/>
<path d="M130.419 188C129.45 188 128.604 187.862 127.881 187.586V185.67L129.556 185.702C130.174 185.724 130.684 185.682 131.088 185.574C131.493 185.468 131.817 185.325 132.063 185.145C132.306 184.963 132.495 184.761 132.629 184.538C132.762 184.313 132.872 184.102 132.956 183.899L133.53 182.336L127.084 166.235H130.067L134.934 178.968L139.77 166.235H142.658L135.699 183.979C135.274 185.021 134.799 185.836 134.272 186.421C133.746 187.006 133.159 187.415 132.517 187.649C131.873 187.884 131.173 188 130.419 188Z" fill="#100F0D"/>
<path d="M1.67664 -0.00111462C1.48473 -0.00111462 1.29505 0.0491625 1.14778 0.177124C0.99827 0.30737 0.905441 0.493588 0.895622 0.69467C0.88982 0.814633 0.24939 12.9881 0.24939 28.6039C0.24939 44.8538 1.33075 53.5575 4.24059 60.7221C7.19148 67.9919 11.7472 71.5828 20.8391 76.8806C29.5432 81.9496 33.1858 82.6347 35.615 82.6347C38.046 82.6347 41.6868 81.9496 50.3904 76.8806C59.4858 71.5828 64.0402 67.9919 66.9938 60.7221C69.9002 53.5575 70.9814 44.8538 70.9814 28.6039C70.9814 12.9881 70.342 0.814633 70.3366 0.69467C70.3254 0.493588 70.2348 0.30737 70.0822 0.177124C69.9349 0.0468775 69.7417 -0.00111462 69.5444 -0.00111462C69.5444 -0.00111462 1.86854 -0.00111462 1.67664 -0.00111462V-0.00111462ZM68.7844 1.5984C68.9307 4.70831 69.3868 15.4548 69.3868 28.6039C69.3868 44.6253 68.3381 53.1679 65.5166 60.1212C64.1509 63.4836 62.4215 66.0291 59.9077 68.3758C57.6471 70.4849 54.6583 72.5494 49.5884 75.503C45.7101 77.7621 42.6137 79.283 40.1248 80.1542C37.8764 80.9396 36.533 81.0401 35.615 81.0401C34.6966 81.0401 33.3545 80.9396 31.1061 80.1542C28.6158 79.283 25.5198 77.7621 21.6416 75.5038C16.5726 72.5494 13.5838 70.4849 11.3242 68.3758C8.81063 66.0291 7.08125 63.4836 5.71648 60.1212C2.89278 53.1679 1.84266 44.6265 1.84266 28.6039C1.84266 15.4616 2.29921 4.72888 2.44649 1.60526L68.7844 1.5984" fill="#100F0D"/>
<path d="M56.0583 19.6649L55.2943 17.5273L54.5379 19.6284L52.2805 19.7186L54.0737 21.1056L53.4333 23.2627L55.2876 21.9819L57.1575 23.2627L56.5158 21.0816L58.3077 19.7186L56.0583 19.6649" fill="#100F0D"/>
<path d="M53.4177 31.7823L55.1301 33.3647L54.9605 31.0385L57.2678 30.6866L55.3421 29.3671L56.5046 27.3448L54.2746 28.028L53.4177 25.8573L52.5608 28.028L50.3294 27.3448L51.4919 29.3671L49.5662 30.6866L51.8735 31.0385L51.7039 33.3647L53.4177 31.7823Z" fill="#100F0D"/>
<path d="M62.7237 18.9794L64.4374 20.564L64.2679 18.2367L66.5743 17.8848L64.6486 16.5664L65.8111 14.543L63.5806 15.2262L62.7237 13.0566L61.8668 15.2262L59.6354 14.543L60.798 16.5664L58.8735 17.8848L61.1795 18.2367L61.0099 20.564L62.7237 18.9794" fill="#100F0D"/>
<path d="M54.3972 10.2529L56.111 11.8364L55.9415 9.50913L58.2474 9.15725L56.3231 7.83879L57.4856 5.81541L55.2541 6.49862L54.3972 4.32786L53.5404 6.49862L51.3098 5.81541L52.4723 7.83879L50.5466 9.15725L52.853 9.50913L52.6835 11.8364L54.3972 10.2529Z" fill="#100F0D"/>
<path d="M44.5641 17.8163L46.2779 19.401L46.1082 17.0737L48.4147 16.7206L46.4898 15.4033L47.6524 13.3788L45.421 14.0632L44.5641 11.8924L43.7072 14.0632L41.4757 13.3788L42.6383 15.4033L40.7139 16.7206L43.0199 17.0737L42.8504 19.401L44.5641 17.8163Z" fill="#100F0D"/>
<path d="M53.5024 37.3178C44.0664 32.806 37.7246 29.6047 35.4374 29.6047C33.1537 29.6047 27.1778 32.806 17.7409 37.3178C8.305 41.8319 5.08411 42.7973 5.08411 44.7715C5.08411 46.7458 7.40036 45.8066 8.10417 45.5941C8.80843 45.3851 32.8869 37.5932 35.4374 37.5932C37.9893 37.5932 62.4336 45.3851 63.1402 45.5941C63.8452 45.8066 66.1602 46.7458 66.1602 44.7715C66.1602 42.7973 62.938 41.8319 53.5024 37.3178" fill="#100F0D"/>
<path d="M58.9273 52.0676C54.8347 53.442 51.5858 56.4343 47.0537 55.5808C43.0794 54.8336 39.7821 51.4015 35.6094 51.4541C31.0407 51.5123 27.5931 55.446 23.1109 55.8196C18.7051 56.1886 15.2776 52.6309 11.1717 51.7877C9.31375 51.4072 7.68612 51.6631 6.13525 52.1956C6.44989 53.7242 6.81451 55.1318 7.23537 56.4571C8.45822 56.1624 9.748 56.079 11.1717 56.3703C15.2776 57.2135 18.7051 60.7712 23.1109 60.4033C27.5931 60.0297 31.0407 56.0961 35.6094 56.0378C39.7821 55.9853 43.0794 59.4174 47.0537 60.1634C51.5858 61.018 54.8347 58.0235 58.9273 56.6502C60.7557 56.0367 62.3891 56.0892 63.9436 56.4765C64.3631 55.1524 64.7291 53.7482 65.0424 52.223C63.1581 51.5706 61.1922 51.3067 58.9273 52.0676" fill="#100F0D"/>
<path d="M58.9272 61.234C54.8346 62.6073 51.5856 65.5995 47.0535 64.7472C43.0793 64 39.782 60.5679 35.6092 60.6204C31.0406 60.6787 27.5929 64.6124 23.1107 64.986C18.705 65.3539 15.2775 61.7961 11.1715 60.9541C10.3928 60.7941 9.65414 60.7461 8.94543 60.7838C9.87372 62.6507 11.031 64.2685 12.451 65.7252C12.4957 65.7697 12.5394 65.8052 12.5975 65.8326C13.0603 66.0554 15.4448 67.2116 16.6351 67.8114C18.6634 68.8294 20.7812 69.764 23.1107 69.5697C27.5929 69.1961 31.0406 65.2613 35.6092 65.2031C39.782 65.1516 43.0793 68.5837 47.0535 69.331C49.8272 69.8519 52.1635 68.9139 54.4628 67.8068C55.6589 67.2322 58.2117 65.964 58.6906 65.7275C58.7472 65.6989 58.791 65.6646 58.8357 65.6189C60.1843 64.2045 61.3424 62.5856 62.2373 60.7861C61.1943 60.7198 60.1009 60.8398 58.9272 61.234" fill="#100F0D"/>
<path d="M24.3551 73.9574C26.1791 74.9843 27.7983 75.8212 29.2375 76.4812C31.2601 75.427 33.2899 74.3992 35.6093 74.3694C37.9255 74.3404 39.9731 75.3856 42.0158 76.4491C43.4685 75.7796 45.1032 74.9308 46.9442 73.8905C43.019 73.1001 39.7432 69.7343 35.6093 69.7868C31.4721 69.8394 28.2544 73.0692 24.3551 73.9574" fill="#100F0D"/>
<path d="M50.3718 46.4031C45.537 44.9269 42.23 43.9627 39.9717 43.3331C37.8206 42.7345 36.8164 42.5059 36.1515 42.338C35.9542 42.2877 35.6217 42.2249 35.5102 42.2055C35.3616 42.2317 35.1584 42.2729 34.8795 42.3369C34.323 42.4648 33.4639 42.6808 32.1438 43.0441C29.9047 43.661 26.3367 44.7041 20.6584 46.4636C18.8367 47.0292 16.7958 47.6678 14.5129 48.3899C17.3015 49.7186 19.9747 51.5032 23.1599 51.2382C27.642 50.8634 31.0896 46.9309 35.6575 46.8726C39.8303 46.8189 43.1284 50.2499 47.1013 50.9982C50.7935 51.6929 53.6341 49.8352 56.7724 48.3807C54.3861 47.637 52.2618 46.98 50.3718 46.4031" fill="#100F0D"/>
</g>
<defs>
<clipPath id="clip0_431:4333">
<rect width="145.739" height="188" fill="white"/>
</clipPath>
</defs>
</svg>
