<svg width="146" height="188" viewBox="0 0 146 188" fill="none" xmlns="http://www.w3.org/2000/svg">
<g clip-path="url(#clip0_431:4334)">
<path d="M6.06374 114.361H13.9631L10.0366 103.238L6.06374 114.361ZM-0.000488281 123.392L8.34519 100.318H11.6803L20.0269 123.392H17.0114L14.7442 117.073H5.31397L2.99994 123.392H-0.000488281Z" fill="white"/>
<path d="M28.6271 123.712C27.7656 123.701 26.9548 123.576 26.1939 123.336C25.4329 123.096 24.7599 122.743 24.1753 122.275C23.5906 121.808 23.13 121.225 22.7954 120.528C22.4592 119.832 22.2919 119.02 22.2919 118.095V106.893H25.2441V117.791C25.2441 118.866 25.5766 119.739 26.2416 120.408C26.9057 121.079 27.9085 121.413 29.2496 121.413C30.4626 121.413 31.4387 121.097 32.1773 120.464C32.9172 119.832 33.2864 118.887 33.2864 117.632V106.893H36.223V123.392H33.8777L33.5742 120.233C33.3711 121.063 33.0288 121.733 32.5446 122.244C32.0612 122.755 31.4811 123.13 30.8049 123.369C30.1302 123.608 29.4035 123.722 28.6271 123.712" fill="white"/>
<path d="M46.3716 123.712C45.2237 123.712 44.1571 123.534 43.1717 123.177C42.189 122.821 41.3708 122.262 40.7237 121.501C40.0744 120.741 39.6652 119.77 39.4943 118.589H42.1755C42.3251 119.238 42.5915 119.778 42.9811 120.209C43.3694 120.64 43.8567 120.965 44.4413 121.183C45.0261 121.401 45.6643 121.509 46.356 121.509C47.4628 121.509 48.3567 121.302 49.0373 120.886C49.7179 120.472 50.058 119.833 50.058 118.973C50.058 118.365 49.8795 117.88 49.5238 117.513C49.1668 117.145 48.6164 116.876 47.8725 116.706L44.457 115.861C43.1271 115.542 42.0626 115.042 41.2661 114.361C40.4685 113.68 40.0691 112.728 40.0691 111.504C40.0588 110.536 40.2864 109.685 40.755 108.95C41.2236 108.217 41.9243 107.637 42.8615 107.212C43.7965 106.786 44.9627 106.573 46.356 106.573C48.1434 106.573 49.5885 106.975 50.6886 107.778C51.7896 108.582 52.3609 109.76 52.4033 111.313H49.8027C49.6956 110.526 49.3417 109.901 48.7414 109.437C48.1411 108.975 47.3347 108.743 46.3248 108.743C45.2706 108.743 44.4146 108.954 43.7555 109.374C43.0958 109.794 42.7656 110.445 42.7656 111.329C42.7656 111.914 42.9998 112.373 43.4676 112.709C43.9362 113.044 44.6279 113.324 45.5428 113.547L48.8454 114.377C49.6117 114.579 50.2423 114.845 50.7363 115.174C51.2317 115.504 51.6245 115.871 51.9168 116.275C52.2104 116.68 52.4166 117.103 52.5393 117.544C52.6612 117.986 52.7237 118.409 52.7237 118.812C52.7237 119.823 52.4702 120.694 51.965 121.422C51.4607 122.15 50.7363 122.714 49.7947 123.113C48.853 123.512 47.7127 123.712 46.3716 123.712" fill="white"/>
<path d="M64.5483 109.047H60.8294V119.308C60.8294 119.893 60.8909 120.321 61.0124 120.592C61.1351 120.863 61.3439 121.036 61.6349 121.111C61.9286 121.185 62.3289 121.223 62.8399 121.223H64.6429V123.201C64.4412 123.275 64.1354 123.34 63.7258 123.392C63.3166 123.446 62.8086 123.472 62.2017 123.472C61.0637 123.472 60.1813 123.318 59.5529 123.009C58.925 122.701 58.4863 122.244 58.2364 121.637C57.9864 121.031 57.8615 120.286 57.8615 119.403V109.047H55.1807V106.893H57.9419L58.6595 102.089H60.8294V106.876H64.5483V109.047" fill="white"/>
<path d="M68.4734 123.392V106.893H71.2814V110.068C71.5582 109.281 71.9465 108.629 72.4464 108.113C72.9475 107.598 73.5187 107.212 74.1614 106.956C74.8063 106.701 75.4736 106.573 76.164 106.573C76.4094 106.573 76.6495 106.589 76.8825 106.621C77.1159 106.652 77.2967 106.706 77.4247 106.78V109.637C77.2653 109.563 77.061 109.512 76.8111 109.485C76.5602 109.459 76.3505 109.445 76.1809 109.445C75.5204 109.403 74.9045 109.443 74.3288 109.565C73.7553 109.687 73.2497 109.898 72.8137 110.196C72.3762 110.494 72.0335 110.885 71.785 111.368C71.5336 111.853 71.4087 112.44 71.4087 113.132V123.392H68.4734Z" fill="white"/>
<path d="M85.5626 121.589C86.1161 121.589 86.6672 121.489 87.2139 121.285C87.762 121.084 88.2641 120.81 88.7225 120.464C89.18 120.119 89.545 119.731 89.8159 119.3C90.0872 118.869 90.2277 118.425 90.2389 117.968V115.143L87.7807 115.19C86.5258 115.212 85.4757 115.34 84.629 115.573C83.7842 115.807 83.1505 116.174 82.73 116.674C82.3092 117.175 82.1008 117.829 82.1008 118.637C82.1008 119.562 82.4207 120.286 83.0657 120.808C83.7084 121.329 84.542 121.589 85.5626 121.589V121.589ZM84.6692 123.712C83.6056 123.712 82.6631 123.522 81.845 123.146C81.0253 122.767 80.3848 122.222 79.9215 121.509C79.4596 120.796 79.2275 119.935 79.2275 118.925C79.2275 117.095 79.8657 115.733 81.1422 114.839C82.4186 113.946 84.4671 113.467 87.2853 113.403L90.2389 113.324V112.031C90.2389 111.02 89.9355 110.22 89.3294 109.629C88.7225 109.039 87.7807 108.743 86.5044 108.743C85.5573 108.754 84.725 108.977 84.0064 109.414C83.2888 109.85 82.8238 110.563 82.6105 111.552H80.0086C80.0732 110.478 80.3768 109.571 80.9204 108.832C81.4626 108.092 82.22 107.531 83.1928 107.147C84.1672 106.765 85.3186 106.573 86.6472 106.573C88.0843 106.573 89.2781 106.776 90.23 107.18C91.1829 107.584 91.8947 108.18 92.3687 108.967C92.8417 109.754 93.0796 110.722 93.0796 111.871V123.392H90.558L90.3506 120.296C89.7124 121.584 88.9 122.476 87.9169 122.969C86.9319 123.464 85.8496 123.712 84.6692 123.712" fill="white"/>
<path d="M101.712 123.6C100.818 123.6 100.098 123.478 99.5496 123.232C99.002 122.988 98.5812 122.659 98.2888 122.244C97.9965 121.828 97.8002 121.353 97.6988 120.816C97.5984 120.279 97.5471 119.723 97.5471 119.148V99.68H100.451V118.86C100.451 119.69 100.613 120.313 100.938 120.728C101.262 121.143 101.718 121.371 102.302 121.413L103.196 121.429V123.344C102.952 123.418 102.696 123.48 102.43 123.528C102.165 123.576 101.925 123.6 101.712 123.6" fill="white"/>
<path d="M109.756 106.893V123.392H106.899V106.893H109.756ZM109.819 100.334V103.398H106.803V100.334H109.819Z" fill="white"/>
<path d="M120.079 121.589C120.633 121.589 121.184 121.489 121.731 121.285C122.278 121.084 122.781 120.81 123.239 120.464C123.696 120.119 124.062 119.731 124.332 119.3C124.603 118.869 124.744 118.425 124.755 117.968V115.143L122.298 115.19C121.042 115.212 119.992 115.34 119.145 115.573C118.301 115.807 117.667 116.174 117.246 116.674C116.826 117.175 116.617 117.829 116.617 118.637C116.617 119.562 116.937 120.286 117.582 120.808C118.224 121.329 119.059 121.589 120.079 121.589V121.589ZM119.185 123.712C118.122 123.712 117.179 123.522 116.361 123.146C115.542 122.767 114.901 122.222 114.438 121.509C113.976 120.796 113.744 119.935 113.744 118.925C113.744 117.095 114.382 115.733 115.658 114.839C116.935 113.946 118.983 113.467 121.802 113.403L124.755 113.324V112.031C124.755 111.02 124.451 110.22 123.846 109.629C123.239 109.039 122.298 108.743 121.02 108.743C120.073 108.754 119.241 108.977 118.523 109.414C117.805 109.85 117.34 110.563 117.127 111.552H114.525C114.59 110.478 114.893 109.571 115.437 108.832C115.978 108.092 116.736 107.531 117.709 107.147C118.684 106.765 119.834 106.573 121.163 106.573C122.6 106.573 123.794 106.776 124.746 107.18C125.699 107.584 126.411 108.18 126.885 108.967C127.358 109.754 127.595 110.722 127.595 111.871V123.392H125.074L124.867 120.296C124.228 121.584 123.416 122.476 122.433 122.969C121.448 123.464 120.366 123.712 119.185 123.712Z" fill="white"/>
<path d="M131.935 123.392V106.893H134.791V109.286C135.057 108.828 135.426 108.398 135.9 107.993C136.373 107.59 136.948 107.265 137.623 107.02C138.299 106.776 139.079 106.652 139.962 106.652C141.005 106.652 141.964 106.861 142.841 107.275C143.72 107.691 144.422 108.337 144.949 109.214C145.474 110.092 145.737 111.222 145.737 112.606V123.392H142.785V112.892C142.785 111.605 142.447 110.65 141.773 110.028C141.096 109.406 140.221 109.095 139.148 109.095C138.402 109.095 137.705 109.214 137.056 109.454C136.409 109.693 135.881 110.055 135.477 110.539C135.072 111.023 134.871 111.632 134.871 112.366V123.392H131.935" fill="white"/>
<path d="M15.4627 129.989H18.4149V153.064H15.7818L3.39803 134.873V153.064H0.447144V129.989H3.27084L15.4627 147.926V129.989Z" fill="white"/>
<path d="M28.9317 151.262C29.4838 151.262 30.035 151.16 30.583 150.958C31.1297 150.756 31.6327 150.482 32.0901 150.136C32.5476 149.79 32.9114 149.403 33.1849 148.971C33.4536 148.54 33.5955 148.096 33.6075 147.639V144.814L31.1485 144.861C29.8943 144.883 28.8433 145.011 27.9977 145.245C27.1519 145.478 26.5195 145.846 26.0987 146.347C25.6783 146.847 25.4685 147.502 25.4685 148.309C25.4685 149.235 25.7898 149.958 26.4347 150.48C27.076 151.001 27.9106 151.262 28.9317 151.262V151.262ZM28.0368 153.384C26.9734 153.384 26.0308 153.194 25.214 152.817C24.3938 152.439 23.7533 151.894 23.2905 151.181C22.8273 150.469 22.5966 149.607 22.5966 148.596C22.5966 146.767 23.2348 145.404 24.5112 144.511C25.7876 143.617 27.8347 143.138 30.6531 143.074L33.6075 142.994V141.702C33.6075 140.691 33.3031 139.891 32.6984 139.301C32.0901 138.71 31.1485 138.415 29.8721 138.415C28.9237 138.425 28.0927 138.649 27.375 139.086C26.6578 139.521 26.1915 140.234 25.9795 141.223H23.3776C23.4424 140.149 23.7444 139.242 24.2867 138.503C24.8289 137.763 25.5876 137.202 26.5606 136.819C27.5357 136.436 28.6863 136.244 30.0162 136.244C31.4533 136.244 32.6471 136.448 33.5977 136.852C34.5505 137.256 35.2632 137.852 35.7377 138.638C36.2095 139.425 36.4473 140.394 36.4473 141.542V153.064H33.9257L33.7191 149.969C33.08 151.257 32.2678 152.147 31.2845 152.642C30.3005 153.137 29.2182 153.384 28.0368 153.384" fill="white"/>
<path d="M48.464 138.718H44.7441V148.98C44.7441 149.563 44.8066 149.992 44.9279 150.264C45.0507 150.536 45.2582 150.709 45.5506 150.783C45.8428 150.857 46.2445 150.895 46.7555 150.895H48.5586V152.872C48.3568 152.948 48.0498 153.011 47.6414 153.064C47.2321 153.118 46.7233 153.144 46.1164 153.144C44.9793 153.144 44.0956 152.99 43.4677 152.682C42.8406 152.372 42.401 151.916 42.1519 151.309C41.9021 150.703 41.7762 149.958 41.7762 149.076V138.718H39.0962V136.564H41.8565L42.5738 131.761H44.7441V136.548H48.464V138.718Z" fill="white"/>
<path d="M55.5786 136.564V153.064H52.7237V136.564H55.5786ZM55.6432 130.005V133.069H52.6277V130.005H55.6432Z" fill="white"/>
<path d="M67.0051 151.054C67.9936 151.054 68.8292 150.805 69.5097 150.303C70.1903 149.804 70.7071 149.086 71.0574 148.149C71.4087 147.214 71.585 146.101 71.585 144.814C71.585 143.633 71.431 142.571 71.1222 141.631C70.8129 140.688 70.321 139.941 69.6458 139.388C68.9697 138.836 68.0896 138.558 67.0051 138.558C66.0041 138.558 65.1584 138.806 64.468 139.301C63.7762 139.795 63.2518 140.51 62.8956 141.446C62.54 142.383 62.3614 143.505 62.3614 144.814C62.3614 145.973 62.5199 147.027 62.8399 147.973C63.159 148.92 63.6588 149.671 64.3407 150.224C65.0213 150.777 65.9081 151.054 67.0051 151.054V151.054ZM67.0051 153.384C65.4832 153.384 64.1533 153.056 63.0153 152.402C61.8772 151.748 60.9944 150.789 60.3674 149.522C59.7381 148.255 59.4248 146.709 59.4248 144.878C59.4248 143.154 59.718 141.644 60.3027 140.346C60.8873 139.048 61.7464 138.04 62.88 137.322C64.0136 136.604 65.3873 136.244 67.0051 136.244C68.5256 136.244 69.8479 136.577 70.9704 137.242C72.0915 137.907 72.9631 138.882 73.579 140.17C74.1971 141.457 74.5037 143.027 74.5037 144.878C74.5037 146.559 74.2194 148.038 73.6504 149.314C73.0813 150.592 72.2424 151.588 71.1288 152.307C70.0176 153.024 68.643 153.384 67.0051 153.384" fill="white"/>
<path d="M78.0627 153.064V136.564H80.9204V138.958C81.1845 138.499 81.554 138.069 82.0281 137.664C82.5011 137.261 83.0769 136.937 83.7521 136.691C84.4269 136.448 85.207 136.324 86.0893 136.324C87.1328 136.324 88.0923 136.532 88.9693 136.947C89.8471 137.362 90.55 138.008 91.0766 138.886C91.6032 139.763 91.8656 140.894 91.8656 142.277V153.064H88.9134V142.563C88.9134 141.277 88.5752 140.322 87.9012 139.699C87.2251 139.078 86.3495 138.766 85.2762 138.766C84.5308 138.766 83.8346 138.886 83.1853 139.125C82.5368 139.364 82.0093 139.727 81.6054 140.21C81.2002 140.694 80.9984 141.303 80.9984 142.038V153.064H78.0627" fill="white"/>
<path d="M101.569 151.262C102.122 151.262 102.673 151.16 103.22 150.958C103.768 150.756 104.27 150.482 104.729 150.136C105.186 149.79 105.55 149.403 105.821 148.971C106.092 148.54 106.234 148.096 106.245 147.639V144.814L103.786 144.861C102.532 144.883 101.481 145.011 100.635 145.245C99.7905 145.478 99.1567 145.846 98.7363 146.347C98.3154 146.847 98.1057 147.502 98.1057 148.309C98.1057 149.235 98.427 149.958 99.072 150.48C99.7146 151.001 100.547 151.262 101.569 151.262ZM100.675 153.384C99.611 153.384 98.6693 153.194 97.8513 152.817C97.0314 152.439 96.3911 151.894 95.9278 151.181C95.4659 150.469 95.2329 149.607 95.2329 148.596C95.2329 146.767 95.872 145.404 97.1484 144.511C98.4247 143.617 100.473 143.138 103.292 143.074L106.245 142.994V141.702C106.245 140.691 105.94 139.891 105.336 139.301C104.729 138.71 103.786 138.415 102.51 138.415C101.562 138.425 100.731 138.649 100.013 139.086C99.2951 139.521 98.83 140.234 98.6167 141.223H96.0148C96.0795 140.149 96.3822 139.242 96.9252 138.503C97.4675 137.763 98.2253 137.202 99.1991 136.819C100.173 136.436 101.325 136.244 102.653 136.244C104.09 136.244 105.284 136.448 106.236 136.852C107.188 137.256 107.901 137.852 108.375 138.638C108.848 139.425 109.084 140.394 109.084 141.542V153.064H106.563L106.357 149.969C105.719 151.257 104.906 152.147 103.922 152.642C102.938 153.137 101.856 153.384 100.675 153.384" fill="white"/>
<path d="M117.718 153.272C116.825 153.272 116.104 153.15 115.554 152.905C115.008 152.661 114.588 152.33 114.294 151.916C114.003 151.501 113.805 151.024 113.705 150.487C113.605 149.951 113.553 149.395 113.553 148.82V129.352H116.457V148.532C116.457 149.363 116.619 149.985 116.944 150.399C117.268 150.814 117.723 151.043 118.307 151.085L119.201 151.103V153.016C118.957 153.09 118.702 153.152 118.436 153.2C118.17 153.248 117.931 153.272 117.718 153.272" fill="white"/>
<path d="M17.3134 174.755C17.3134 176.533 17.0211 178.038 16.4365 179.272C15.8509 180.506 14.9383 181.444 13.6998 182.088C12.4601 182.732 10.8511 183.054 8.87181 183.054C6.87242 183.054 5.25239 182.724 4.01302 182.065C2.77322 181.404 1.86948 180.437 1.30045 179.16C0.731432 177.884 0.447144 176.314 0.447144 174.453V159.66H3.51095V174.9C3.51095 176.761 3.97285 178.155 4.89892 179.079C5.82364 180.006 7.14912 180.468 8.87181 180.468C10.0313 180.468 11.0185 180.266 11.8321 179.862C12.6465 179.458 13.2692 178.844 13.6998 178.02C14.1305 177.195 14.3457 176.154 14.3457 174.9V159.66H17.3134V174.755Z" fill="white"/>
<path d="M21.6224 182.734V166.235H24.4778V168.628C24.7442 168.171 25.1138 167.74 25.5877 167.335C26.0599 166.932 26.6366 166.607 27.3095 166.363C27.9856 166.117 28.7667 165.995 29.649 165.995C30.6925 165.995 31.6498 166.202 32.5276 166.618C33.4059 167.033 34.1088 167.678 34.6363 168.557C35.1607 169.434 35.4241 170.564 35.4241 171.946V182.734H32.4718V172.236C32.4718 170.948 32.134 169.993 31.46 169.37C30.7848 168.747 29.9092 168.437 28.8345 168.437C28.0905 168.437 27.3921 168.557 26.7427 168.796C26.0965 169.034 25.569 169.398 25.1651 169.881C24.7599 170.365 24.5581 170.974 24.5581 171.709V182.734H21.6224" fill="white"/>
<path d="M42.8136 166.235V182.734H39.9573V166.235H42.8136ZM42.8784 159.676V162.74H39.8615V159.676H42.8784Z" fill="white"/>
<path d="M60.5741 166.235L54.6228 182.734H51.9414L45.9736 166.235H48.7504L53.1375 179.033H53.4089L57.8137 166.235H60.5741Z" fill="white"/>
<path d="M64.9452 173.176H73.9134C73.9134 172.229 73.7537 171.375 73.4337 170.614C73.1155 169.855 72.629 169.253 71.9743 168.812C71.3205 168.369 70.498 168.15 69.5095 168.15C68.4776 168.15 67.6239 168.397 66.9478 168.892C66.2716 169.386 65.7673 170.019 65.4316 170.79C65.0956 171.562 64.9349 172.357 64.9452 173.176V173.176ZM64.9296 175.172C64.9296 176.213 65.1023 177.158 65.4473 178.003C65.7931 178.848 66.3206 179.523 67.0281 180.022C67.7345 180.522 68.6204 180.772 69.6849 180.772C70.738 180.772 71.644 180.527 72.4059 180.038C73.1659 179.548 73.6533 178.84 73.8653 177.915H76.6582C76.4552 179.033 76.0088 179.974 75.3171 180.739C74.6253 181.505 73.7907 182.083 72.8134 182.471C71.8324 182.86 70.8117 183.054 69.7482 183.054C68.2062 183.054 66.8495 182.718 65.6803 182.049C64.5087 181.378 63.5938 180.416 62.9347 179.16C62.2741 177.906 61.9448 176.399 61.9448 174.645C61.9448 172.91 62.2429 171.389 62.8387 170.081C63.4345 168.771 64.299 167.75 65.4316 167.017C66.5652 166.282 67.9287 165.915 69.525 165.915C71.0782 165.915 72.3925 166.251 73.4671 166.921C74.5405 167.59 75.3572 168.535 75.916 169.753C76.4751 170.972 76.7528 172.416 76.7528 174.086V175.172H64.9296" fill="white"/>
<path d="M80.4729 182.734V166.235H83.2814V169.41C83.558 168.623 83.9464 167.971 84.4462 167.455C84.947 166.939 85.5182 166.554 86.1609 166.298C86.8057 166.043 87.4729 165.915 88.1638 165.915C88.4092 165.915 88.6489 165.931 88.8823 165.962C89.1153 165.995 89.2974 166.049 89.4246 166.123V168.98C89.2649 168.905 89.0609 168.854 88.8109 168.828C88.5597 168.801 88.3499 168.789 88.1804 168.789C87.5212 168.746 86.904 168.786 86.3295 168.908C85.7547 169.031 85.2495 169.241 84.8131 169.537C84.377 169.836 84.0334 170.226 83.7844 170.71C83.5336 171.195 83.4086 171.783 83.4086 172.474V182.734H80.4729" fill="white"/>
<path d="M98.2643 183.054C97.1152 183.054 96.0498 182.876 95.0644 182.52C94.0803 182.163 93.2636 181.604 92.6156 180.845C91.9662 180.082 91.5565 179.113 91.387 177.931H94.0669C94.2165 178.58 94.4842 179.121 94.8738 179.552C95.2621 179.982 95.7486 180.306 96.3341 180.525C96.9188 180.743 97.557 180.851 98.2488 180.851C99.3546 180.851 100.248 180.645 100.93 180.229C101.611 179.815 101.951 179.175 101.951 178.314C101.951 177.708 101.772 177.22 101.415 176.854C101.059 176.487 100.509 176.22 99.7652 176.049L96.3497 175.203C95.0198 174.883 93.9553 174.384 93.1579 173.703C92.3612 173.021 91.9618 172.07 91.9618 170.846C91.9507 169.879 92.1792 169.026 92.6477 168.294C93.1155 167.559 93.817 166.979 94.7543 166.554C95.6892 166.129 96.8554 165.915 98.2488 165.915C100.036 165.915 101.48 166.316 102.58 167.121C103.682 167.924 104.254 169.102 104.296 170.654H101.695C101.588 169.867 101.234 169.243 100.634 168.78C100.034 168.317 99.2274 168.085 98.2175 168.085C97.1634 168.085 96.3073 168.295 95.6482 168.717C94.9877 169.136 94.6583 169.787 94.6583 170.67C94.6583 171.256 94.8917 171.716 95.3603 172.052C95.8276 172.386 96.5193 172.665 97.4355 172.889L100.737 173.719C101.504 173.921 102.134 174.186 102.629 174.517C103.124 174.846 103.516 175.214 103.809 175.618C104.103 176.022 104.309 176.446 104.432 176.887C104.554 177.328 104.616 177.75 104.616 178.155C104.616 179.165 104.363 180.035 103.858 180.765C103.352 181.492 102.629 182.055 101.686 182.455C100.746 182.854 99.6055 183.054 98.2643 183.054" fill="white"/>
<path d="M111.605 166.235V182.734H108.749V166.235H111.605ZM111.67 159.676V162.74H108.653V159.676H111.67Z" fill="white"/>
<path d="M124.754 168.389H121.035V178.65C121.035 179.235 121.097 179.662 121.218 179.934C121.341 180.206 121.549 180.378 121.841 180.453C122.134 180.527 122.535 180.564 123.046 180.564H124.849V182.542C124.647 182.618 124.34 182.682 123.931 182.734C123.522 182.788 123.015 182.814 122.407 182.814C121.269 182.814 120.387 182.661 119.758 182.351C119.13 182.043 118.692 181.586 118.443 180.979C118.192 180.372 118.068 179.628 118.068 178.746V168.389H115.386V166.235H118.148L118.865 161.432H121.035V166.218H124.754V168.389Z" fill="white"/>
<path d="M130.419 188C129.45 188 128.604 187.862 127.881 187.585V185.67L129.556 185.702C130.174 185.724 130.684 185.682 131.088 185.574C131.493 185.47 131.817 185.325 132.063 185.145C132.306 184.963 132.495 184.761 132.629 184.537C132.762 184.313 132.872 184.101 132.956 183.899L133.53 182.337L127.084 166.235H130.067L134.934 178.968L139.77 166.235H142.658L135.699 183.979C135.274 185.021 134.799 185.836 134.272 186.421C133.746 187.006 133.16 187.415 132.518 187.651C131.873 187.884 131.173 188 130.419 188Z" fill="white"/>
<path d="M1.67664 -0.00111462C1.48473 -0.00111462 1.29505 0.050305 1.14778 0.177124C0.99827 0.30737 0.905441 0.493587 0.895622 0.693526C0.88982 0.815775 0.24939 12.9881 0.24939 28.6039C0.24939 44.8538 1.33075 53.5586 4.24059 60.7221C7.19148 67.9919 11.7472 71.5828 20.8391 76.8811C29.5432 81.9501 33.1858 82.6347 35.615 82.6347C38.046 82.6347 41.6868 81.9501 50.3904 76.8811C59.4858 71.5828 64.0402 67.9919 66.9938 60.7221C69.9002 53.5586 70.9814 44.8538 70.9814 28.6039C70.9814 12.9881 70.342 0.815775 70.3366 0.693526C70.3254 0.493587 70.2348 0.30737 70.0822 0.177124C69.9349 0.0468775 69.7417 -0.00111462 69.5444 -0.00111462C69.5444 -0.00111462 1.86854 -0.00111462 1.67664 -0.00111462V-0.00111462ZM68.7844 1.59726C68.9307 4.70831 69.3868 15.4548 69.3868 28.6039C69.3868 44.6253 68.3381 53.1679 65.5166 60.1212C64.1509 63.4836 62.4215 66.0291 59.9077 68.3758C57.6471 70.4849 54.6583 72.5505 49.5884 75.5034C45.7101 77.7626 42.6137 79.2835 40.1248 80.1538C37.8764 80.9401 36.533 81.0405 35.615 81.0405C34.6966 81.0405 33.3545 80.9401 31.1061 80.1538C28.6158 79.283 25.5198 77.7626 21.6416 75.5034C16.5726 72.5494 13.5838 70.4849 11.3242 68.3758C8.81063 66.0291 7.08125 63.4836 5.71648 60.1223C2.89278 53.1679 1.84266 44.6253 1.84266 28.6039C1.84266 15.4628 2.29921 4.72888 2.44649 1.6064L68.7844 1.59726" fill="#B97D1C"/>
<path d="M56.0583 19.6649L55.2943 17.5273L54.5379 19.6284L52.2805 19.7186L54.0737 21.1045L53.4333 23.2615L55.2876 21.9831L57.1575 23.2615L56.5158 21.0816L58.3077 19.7186L56.0583 19.6649" fill="#B97D1C"/>
<path d="M53.4177 31.7824L55.1301 33.3659L54.9605 31.0386L57.2678 30.6867L55.3421 29.3683L56.5046 27.3449L54.2746 28.0281L53.4177 25.8573L52.5608 28.0281L50.3294 27.3449L51.4919 29.3683L49.5662 30.6867L51.8735 31.0386L51.7039 33.3659L53.4177 31.7824Z" fill="#B97D1C"/>
<path d="M62.7237 18.9805L64.4374 20.564L64.2679 18.2367L66.5743 17.8848L64.6486 16.5664L65.8111 14.543L63.5806 15.2262L62.7237 13.0555L61.8668 15.2262L59.6354 14.543L60.798 16.5664L58.8735 17.8848L61.1795 18.2367L61.0099 20.564L62.7237 18.9805" fill="#B97D1C"/>
<path d="M54.3972 10.2518L56.111 11.8364L55.9414 9.50913L58.2474 9.1561L56.323 7.83879L57.4855 5.81426L55.2541 6.49862L54.3972 4.32786L53.5403 6.49862L51.3098 5.81426L52.4723 7.83879L50.5466 9.1561L52.853 9.50913L52.6835 11.8364L54.3972 10.2518Z" fill="#B97D1C"/>
<path d="M44.5641 17.8175L46.2779 19.3998L46.1082 17.0737L48.4147 16.7206L46.4898 15.4022L47.6524 13.38L45.421 14.0632L44.5641 11.8924L43.7072 14.0632L41.4757 13.38L42.6383 15.4022L40.7139 16.7206L43.0199 17.0737L42.8504 19.3998L44.5641 17.8175Z" fill="#B97D1C"/>
<path d="M53.5024 37.3179C44.0664 32.8061 37.7246 29.6048 35.4374 29.6048C33.1537 29.6048 27.1778 32.8061 17.7409 37.3179C8.305 41.8308 5.08411 42.7985 5.08411 44.7716C5.08411 46.7458 7.40036 45.8067 8.10417 45.5953C8.80843 45.384 32.8869 37.5932 35.4374 37.5932C37.9893 37.5932 62.4336 45.384 63.1402 45.5953C63.8452 45.8067 66.1602 46.7458 66.1602 44.7716C66.1602 42.7985 62.938 41.8308 53.5024 37.3179" fill="#B97D1C"/>
<path d="M58.9273 52.0676C54.8347 53.4409 51.5858 56.4343 47.0537 55.5808C43.0794 54.8347 39.7821 51.4026 35.6094 51.4541C31.0407 51.5123 27.5931 55.446 23.1109 55.8207C18.7051 56.1886 15.2776 52.6297 11.1717 51.7877C9.31375 51.4072 7.68612 51.6631 6.13525 52.1955C6.44989 53.7242 6.81451 55.1318 7.23537 56.4571C8.45822 56.1624 9.748 56.0789 11.1717 56.3703C15.2776 57.2135 18.7051 60.7712 23.1109 60.4045C27.5931 60.0297 31.0407 56.0949 35.6094 56.0378C39.7821 55.9853 43.0794 59.4162 47.0537 60.1646C51.5858 61.0169 54.8347 58.0246 58.9273 56.6502C60.7557 56.0367 62.3891 56.0892 63.9436 56.4765C64.3631 55.1535 64.7291 53.7482 65.0424 52.223C63.1581 51.5706 61.1922 51.3067 58.9273 52.0676" fill="#B97D1C"/>
<path d="M58.9272 61.2328C54.8346 62.6073 51.5856 65.5995 47.0535 64.7472C43.0793 64 39.782 60.5679 35.6092 60.6204C31.0406 60.6787 27.5929 64.6124 23.1107 64.986C18.705 65.3539 15.2775 61.7949 11.1715 60.9541C10.3928 60.7941 9.65414 60.7473 8.94543 60.7838C9.87372 62.6518 11.031 64.2685 12.451 65.7252C12.4957 65.7709 12.5394 65.804 12.5975 65.8326C13.0603 66.0565 15.4448 67.2127 16.6351 67.8103C18.6634 68.8305 20.7812 69.7639 23.1107 69.5697C27.5929 69.195 31.0406 65.2613 35.6092 65.2042C39.782 65.1505 43.0793 68.5826 47.0535 69.3298C49.8272 69.8519 52.1635 68.9128 54.4628 67.8068C55.6589 67.2321 58.2117 65.9651 58.6906 65.7275C58.7472 65.6989 58.791 65.6646 58.8357 65.6189C60.1843 64.2045 61.3424 62.5856 62.2373 60.7872C61.1943 60.7198 60.1009 60.8398 58.9272 61.2328" fill="#B97D1C"/>
<path d="M24.3551 73.957C26.1791 74.9848 27.7983 75.8212 29.2375 76.4808C31.2601 75.427 33.2899 74.3988 35.6093 74.3694C37.9255 74.3404 39.9731 75.3851 42.0158 76.4487C43.4685 75.7796 45.1032 74.9308 46.9442 73.89C43.019 73.1012 39.7432 69.7342 35.6093 69.7868C31.4721 69.8394 28.2544 73.0692 24.3551 73.957" fill="#B97D1C"/>
<path d="M50.3718 46.4042C45.537 44.927 42.23 43.9627 39.9717 43.3332C37.8206 42.7345 36.8164 42.506 36.1515 42.338C35.9542 42.2878 35.6217 42.2249 35.5102 42.2044C35.3616 42.2318 35.1584 42.2741 34.8795 42.3369C34.323 42.4649 33.4639 42.6808 32.1438 43.0453C29.9047 43.6622 26.3367 44.7042 20.6584 46.4648C18.8367 47.0292 16.7958 47.6678 14.5129 48.3899C17.3015 49.7175 19.9747 51.5032 23.1599 51.237C27.642 50.8634 31.0896 46.9298 35.6575 46.8715C39.8303 46.819 43.1284 50.2511 47.1013 50.9983C50.7935 51.6929 53.6341 49.8363 56.7724 48.3808C54.3861 47.637 52.2618 46.9812 50.3718 46.4042" fill="#B97D1C"/>
</g>
<defs>
<clipPath id="clip0_431:4334">
<rect width="145.739" height="188" fill="white"/>
</clipPath>
</defs>
</svg>
