<svg width="250" height="88" viewBox="0 0 250 88" fill="none" xmlns="http://www.w3.org/2000/svg">
<g clip-path="url(#clip0_428:3770)">
<path d="M111.035 14.6889H118.886L114.984 3.6333L111.035 14.6889ZM105.007 23.6677L113.303 0.730167H116.618L124.915 23.6677H121.917L119.664 17.3858H110.289L107.989 23.6677H105.007" fill="#100F0D"/>
<path d="M133.464 23.9851C132.607 23.9741 131.8 23.8505 131.044 23.6121C130.288 23.3736 129.62 23.0232 129.038 22.557C128.457 22.0926 127.998 21.5129 127.667 20.8206C127.333 20.128 127.166 19.3213 127.166 18.4013V7.26637H130.101V18.1C130.101 19.1689 130.431 20.0357 131.092 20.7017C131.752 21.3678 132.749 21.7008 134.083 21.7008C135.287 21.7008 136.258 21.3861 136.993 20.7568C137.728 20.128 138.095 19.189 138.095 17.9415V7.26637H141.013V23.6676H138.683L138.382 20.5266C138.18 21.3517 137.838 22.0182 137.358 22.5257C136.877 23.0333 136.3 23.4063 135.628 23.6442C134.957 23.8818 134.234 23.9952 133.464 23.9851" fill="#100F0D"/>
<path d="M151.102 23.9851C149.96 23.9851 148.9 23.8083 147.921 23.4536C146.944 23.0989 146.132 22.5441 145.488 21.7879C144.842 21.0318 144.435 20.0662 144.266 18.8935H146.931C147.079 19.5379 147.345 20.0745 147.732 20.5026C148.117 20.9312 148.602 21.2542 149.183 21.4705C149.764 21.6874 150.399 21.7952 151.086 21.7952C152.186 21.7952 153.075 21.5899 153.751 21.1775C154.428 20.7649 154.766 20.13 154.766 19.2738C154.766 18.6706 154.59 18.1879 154.234 17.8222C153.88 17.4575 153.334 17.1901 152.594 17.0211L149.199 16.1809C147.876 15.863 146.819 15.366 146.026 14.6889C145.234 14.0132 144.836 13.0664 144.836 11.8495C144.827 10.8876 145.054 10.0414 145.52 9.31147C145.984 8.58248 146.681 8.00555 147.613 7.58243C148.542 7.15931 149.702 6.94811 151.086 6.94811C152.863 6.94811 154.299 7.3477 155.393 8.14561C156.487 8.94445 157.055 10.1158 157.098 11.6593H154.512C154.407 10.8775 154.054 10.2556 153.457 9.79563C152.861 9.33535 152.06 9.1052 151.055 9.1052C150.007 9.1052 149.157 9.31429 148.502 9.73177C147.846 10.1503 147.518 10.7976 147.518 11.6754C147.518 12.2565 147.749 12.7145 148.215 13.0476C148.681 13.3811 149.367 13.658 150.279 13.8804L153.561 14.7053C154.323 14.9061 154.949 15.1707 155.441 15.4983C155.932 15.8268 156.324 16.1905 156.614 16.5924C156.906 16.9949 157.111 17.4152 157.233 17.8539C157.353 18.293 157.415 18.713 157.415 19.1149C157.415 20.1199 157.164 20.9845 156.661 21.7084C156.161 22.4333 155.441 22.9933 154.505 23.3907C153.569 23.7866 152.435 23.9851 151.102 23.9851" fill="#100F0D"/>
<path d="M169.17 9.40716H165.473V19.6069C165.473 20.1889 165.535 20.6144 165.655 20.8836C165.778 21.1536 165.984 21.3259 166.273 21.3993C166.565 21.4733 166.964 21.5106 167.472 21.5106H169.264V23.4771C169.063 23.552 168.759 23.6149 168.352 23.6677C167.946 23.7201 167.441 23.7472 166.838 23.7472C165.705 23.7472 164.828 23.5937 164.204 23.2874C163.579 22.9806 163.143 22.5257 162.896 21.9227C162.647 21.32 162.522 20.5799 162.522 19.7021V9.40716H159.858V7.26558H162.602L163.316 2.49132H165.473V7.24946H169.17V9.40716" fill="#100F0D"/>
<path d="M173.071 23.6677V7.26641H175.863V10.423C176.138 9.64023 176.523 8.99254 177.02 8.47996C177.519 7.9669 178.086 7.58332 178.725 7.32979C179.366 7.07579 180.03 6.94903 180.716 6.94903C180.961 6.94903 181.198 6.96455 181.43 6.99677C181.662 7.02793 181.843 7.08167 181.97 7.15517V9.99442C181.811 9.92092 181.608 9.87037 181.359 9.84379C181.11 9.81757 180.901 9.80428 180.733 9.80428C180.078 9.76195 179.464 9.80145 178.892 9.92328C178.322 10.0445 177.82 10.2539 177.386 10.5498C176.951 10.846 176.61 11.2347 176.363 11.7151C176.115 12.1969 175.989 12.7812 175.989 13.468V23.6677H173.071" fill="#100F0D"/>
<path d="M190.059 21.8752C190.609 21.8752 191.157 21.7756 191.699 21.5739C192.245 21.3736 192.745 21.1007 193.2 20.7566C193.655 20.4139 194.017 20.0271 194.288 19.5991C194.556 19.1704 194.696 18.7294 194.707 18.2742V15.467L192.264 15.5138C191.016 15.5359 189.973 15.6627 189.131 15.8947C188.292 16.1271 187.661 16.4928 187.243 16.9898C186.825 17.4864 186.617 18.1369 186.617 18.9403C186.617 19.8608 186.937 20.5798 187.578 21.098C188.216 21.6161 189.044 21.8752 190.059 21.8752V21.8752ZM189.171 23.9851C188.114 23.9851 187.177 23.7972 186.363 23.4215C185.549 23.0466 184.912 22.5046 184.451 21.7952C183.992 21.0874 183.762 20.2312 183.762 19.2265C183.762 17.4074 184.397 16.0536 185.666 15.1656C186.935 14.2773 188.97 13.8004 191.772 13.7375L194.707 13.658V12.3731C194.707 11.3685 194.405 10.5725 193.804 9.9859C193.2 9.3992 192.264 9.1052 190.995 9.1052C190.053 9.11626 189.226 9.33817 188.513 9.77222C187.799 10.205 187.337 10.9142 187.125 11.8973H184.539C184.603 10.8297 184.904 9.92757 185.443 9.1934C185.983 8.45759 186.736 7.9003 187.704 7.51952C188.671 7.13873 189.817 6.94811 191.137 6.94811C192.566 6.94811 193.753 7.14967 194.698 7.55115C195.645 7.95275 196.354 8.5458 196.825 9.32759C197.294 10.1103 197.53 11.0727 197.53 12.2147V23.6676H195.025L194.819 20.5898C194.184 21.8701 193.376 22.7558 192.399 23.2469C191.42 23.7394 190.345 23.9851 189.171 23.9851" fill="#100F0D"/>
<path d="M206.112 23.8739C205.224 23.8739 204.508 23.7522 203.962 23.5088C203.417 23.2657 203 22.9372 202.71 22.5256C202.419 22.1132 202.224 21.6395 202.123 21.1062C202.023 20.5715 201.972 20.0189 201.972 19.448V0.0956723H204.859V19.1627C204.859 19.9876 205.02 20.606 205.342 21.0185C205.665 21.4315 206.116 21.6588 206.698 21.7007L207.586 21.7168V23.6204C207.344 23.6939 207.09 23.7545 206.825 23.8023C206.562 23.8505 206.323 23.8739 206.112 23.8739" fill="#100F0D"/>
<path d="M214.107 7.26554V23.6677H211.268V7.26554H214.107ZM214.171 0.745663V3.79134H211.173V0.745663H214.171Z" fill="#100F0D"/>
<path d="M224.37 21.8752C224.919 21.8752 225.466 21.7756 226.01 21.5739C226.556 21.3736 227.055 21.1007 227.511 20.7566C227.965 20.4139 228.327 20.0271 228.596 19.5991C228.867 19.1704 229.007 18.7294 229.017 18.2742V15.467L226.574 15.5138C225.326 15.5359 224.282 15.6627 223.442 15.8947C222.601 16.1271 221.972 16.4928 221.554 16.9898C221.136 17.4864 220.928 18.1369 220.928 18.9403C220.928 19.8608 221.246 20.5798 221.887 21.098C222.526 21.6161 223.354 21.8752 224.37 21.8752V21.8752ZM223.481 23.9851C222.423 23.9851 221.488 23.7972 220.674 23.4215C219.859 23.0466 219.223 22.5046 218.762 21.7952C218.303 21.0874 218.072 20.2312 218.072 19.2265C218.072 17.4074 218.706 16.0536 219.974 15.1656C221.244 14.2773 223.281 13.8004 226.082 13.7375L229.017 13.658V12.3731C229.017 11.3685 228.715 10.5725 228.113 9.9859C227.511 9.3992 226.574 9.1052 225.305 9.1052C224.364 9.11626 223.537 9.33817 222.823 9.77222C222.11 10.205 221.647 10.9142 221.436 11.8973H218.848C218.913 10.8297 219.214 9.92757 219.755 9.1934C220.293 8.45759 221.047 7.9003 222.015 7.51952C222.982 7.13873 224.127 6.94811 225.448 6.94811C226.876 6.94811 228.062 7.14967 229.009 7.55115C229.956 7.95275 230.664 8.5458 231.135 9.32759C231.604 10.1103 231.841 11.0727 231.841 12.2147V23.6676H229.334L229.129 20.5898C228.495 21.8701 227.687 22.7558 226.709 23.2469C225.731 23.7394 224.655 23.9851 223.481 23.9851" fill="#100F0D"/>
<path d="M236.154 23.6677V7.26641H238.994V9.64576C239.257 9.19056 239.624 8.76288 240.097 8.36048C240.566 7.95949 241.137 7.63706 241.809 7.39364C242.48 7.15058 243.255 7.02793 244.132 7.02793C245.17 7.02793 246.123 7.23465 246.996 7.64717C247.868 8.05968 248.567 8.70185 249.09 9.57462C249.613 10.4464 249.874 11.5704 249.874 12.9453V23.6677H246.939V13.2306C246.939 11.9513 246.604 11.0017 245.934 10.3831C245.261 9.76477 244.391 9.45514 243.325 9.45514C242.583 9.45514 241.89 9.57462 241.244 9.81204C240.6 10.05 240.077 10.4096 239.675 10.8906C239.274 11.3725 239.072 11.9769 239.072 12.7068V23.6677H236.154" fill="#100F0D"/>
<path d="M120.377 30.2251H123.312V53.1641H120.695L108.386 35.0796V53.1641H105.451V30.2251H108.259L120.377 48.0563V30.2251Z" fill="#100F0D"/>
<path d="M133.766 51.3716C134.314 51.3716 134.863 51.2716 135.407 51.0699C135.951 50.8687 136.451 50.5971 136.906 50.254C137.36 49.9095 137.723 49.524 137.994 49.0946C138.262 48.6664 138.402 48.2254 138.415 47.7697V44.9625L135.97 45.0094C134.722 45.0314 133.679 45.1582 132.837 45.3902C131.997 45.6227 131.369 45.9879 130.95 46.4859C130.531 46.9829 130.324 47.6338 130.324 48.4367C130.324 49.3569 130.643 50.0758 131.284 50.5944C131.922 51.1126 132.75 51.3716 133.766 51.3716V51.3716ZM132.876 53.4821C131.82 53.4821 130.882 53.2932 130.07 52.9189C129.255 52.5426 128.618 52.001 128.158 51.2923C127.697 50.5834 127.468 49.7267 127.468 48.7225C127.468 46.9034 128.102 45.5492 129.372 44.6612C130.641 43.7728 132.676 43.2964 135.477 43.233L138.415 43.1536V41.8692C138.415 40.8646 138.111 40.0684 137.509 39.4819C136.906 38.8948 135.97 38.6008 134.701 38.6008C133.759 38.6117 132.931 38.8337 132.219 39.2674C131.506 39.7009 131.042 40.4098 130.831 41.3933H128.245C128.309 40.3253 128.61 39.4235 129.15 38.6885C129.688 37.9531 130.442 37.3954 131.409 37.0145C132.379 36.6342 133.522 36.4436 134.843 36.4436C136.272 36.4436 137.46 36.6453 138.404 37.0472C139.352 37.4492 140.06 38.0408 140.531 38.8235C141.001 39.6064 141.237 40.5678 141.237 41.7102V53.1642H138.731L138.525 50.0869C137.889 51.3666 137.082 52.2514 136.105 52.7433C135.127 53.2349 134.051 53.4821 132.876 53.4821" fill="#100F0D"/>
<path d="M153.181 38.9026H149.484V49.1028C149.484 49.6844 149.546 50.1098 149.666 50.3808C149.788 50.65 149.995 50.8218 150.286 50.8953C150.577 50.9693 150.976 51.0065 151.483 51.0065H153.276V52.9734C153.075 53.0478 152.77 53.1108 152.363 53.1641C151.957 53.2174 151.451 53.2435 150.848 53.2435C149.716 53.2435 148.839 53.0907 148.215 52.7833C147.592 52.4764 147.155 52.0217 146.907 51.419C146.658 50.8158 146.534 50.0758 146.534 49.1984V38.9026H143.87V36.761H146.614L147.327 31.9864H149.484V36.7454H153.181V38.9026" fill="#100F0D"/>
<path d="M160.254 36.761V53.1642H157.415V36.761H160.254ZM160.319 30.2417V33.2868H157.32V30.2417H160.319Z" fill="#100F0D"/>
<path d="M171.612 51.165C172.594 51.165 173.424 50.9169 174.102 50.4194C174.779 49.9224 175.292 49.2095 175.64 48.2774C175.989 47.3485 176.165 46.2419 176.165 44.9625C176.165 43.788 176.011 42.7332 175.704 41.798C175.397 40.8618 174.907 40.119 174.237 39.5682C173.565 39.0192 172.689 38.7437 171.612 38.7437C170.617 38.7437 169.776 38.9894 169.09 39.4819C168.402 39.9734 167.882 40.6844 167.527 41.6156C167.173 42.5464 166.995 43.6612 166.995 44.9625C166.995 46.1146 167.153 47.1621 167.472 48.1032C167.789 49.045 168.285 49.791 168.964 50.3404C169.64 50.8908 170.522 51.165 171.612 51.165ZM171.612 53.4821C170.099 53.4821 168.777 53.1554 167.646 52.5054C166.514 51.8554 165.637 50.9012 165.013 49.6421C164.388 48.3839 164.077 46.845 164.077 45.0259C164.077 43.3125 164.367 41.8114 164.949 40.5205C165.531 39.2306 166.385 38.2283 167.512 37.5143C168.638 36.8005 170.003 36.4436 171.612 36.4436C173.124 36.4436 174.438 36.7743 175.553 37.4354C176.669 38.0969 177.534 39.0666 178.147 40.3463C178.761 41.6257 179.066 43.1857 179.066 45.0259C179.066 46.6966 178.783 48.1676 178.218 49.4368C177.652 50.7056 176.817 51.6969 175.711 52.4112C174.606 53.1242 173.24 53.4821 171.612 53.4821" fill="#100F0D"/>
<path d="M182.603 53.1641V36.7618H185.443V39.1413C185.708 38.6864 186.075 38.2589 186.546 37.8565C187.016 37.455 187.587 37.1321 188.259 36.8886C188.93 36.6461 189.705 36.5234 190.582 36.5234C191.619 36.5234 192.573 36.7302 193.446 37.1426C194.318 37.5551 195.017 38.1972 195.54 39.07C196.063 39.9423 196.324 41.0659 196.324 42.4402V53.1641H193.39V42.7259C193.39 41.4466 193.054 40.4977 192.384 39.8784C191.711 39.2606 190.841 38.951 189.774 38.951C189.033 38.951 188.341 39.07 187.695 39.308C187.051 39.5454 186.526 39.9056 186.125 40.3861C185.722 40.8679 185.523 41.4724 185.523 42.2028V53.1641H182.603" fill="#100F0D"/>
<path d="M205.969 51.3716C206.52 51.3716 207.068 51.2716 207.611 51.0699C208.156 50.8687 208.654 50.5971 209.11 50.254C209.565 49.9095 209.927 49.524 210.197 49.0946C210.466 48.6664 210.607 48.2254 210.618 47.7697V44.9625L208.174 45.0094C206.928 45.0314 205.882 45.1582 205.041 45.3902C204.201 45.6227 203.572 45.9879 203.154 46.4859C202.736 46.9829 202.527 47.6338 202.527 48.4367C202.527 49.3569 202.847 50.0758 203.487 50.5944C204.127 51.1126 204.954 51.3716 205.969 51.3716V51.3716ZM205.081 53.4821C204.024 53.4821 203.087 53.2932 202.275 52.9189C201.46 52.5426 200.822 52.001 200.363 51.2923C199.903 50.5834 199.672 49.7267 199.672 48.7225C199.672 46.9034 200.307 45.5492 201.576 44.6612C202.845 43.7728 204.88 43.2964 207.681 43.233L210.618 43.1536V41.8692C210.618 40.8646 210.315 40.0684 209.713 39.4819C209.11 38.8948 208.174 38.6008 206.905 38.6008C205.963 38.6117 205.137 38.8337 204.423 39.2674C203.709 39.7009 203.247 40.4098 203.035 41.3933H200.45C200.514 40.3253 200.814 39.4235 201.354 38.6885C201.892 37.9531 202.646 37.3954 203.614 37.0145C204.583 36.6342 205.727 36.4436 207.048 36.4436C208.476 36.4436 209.663 36.6453 210.609 37.0472C211.555 37.4492 212.264 38.0408 212.734 38.8235C213.206 39.6064 213.441 40.5678 213.441 41.7102V53.1642H210.934L210.728 50.0869C210.094 51.3666 209.288 52.2514 208.309 52.7433C207.33 53.2349 206.254 53.4821 205.081 53.4821" fill="#100F0D"/>
<path d="M222.023 53.3703C221.135 53.3703 220.417 53.2481 219.872 53.0056C219.329 52.7627 218.91 52.4342 218.619 52.0217C218.329 51.6096 218.133 51.1359 218.033 50.6018C217.933 50.0688 217.883 49.5153 217.883 48.9448V29.5908H220.77V48.6586C220.77 49.4837 220.931 50.1028 221.253 50.5144C221.576 50.9265 222.028 51.1553 222.609 51.1966L223.498 51.2132V53.1168C223.253 53.1903 223 53.2514 222.736 53.2996C222.472 53.3464 222.234 53.3703 222.023 53.3703" fill="#100F0D"/>
<path d="M122.218 74.7269C122.218 76.4936 121.927 77.9898 121.345 79.2163C120.763 80.4428 119.856 81.3762 118.625 82.0157C117.393 82.656 115.793 82.9762 113.827 82.9762C111.838 82.9762 110.228 82.6473 108.997 81.9927C107.764 81.3363 106.865 80.3739 106.3 79.1051C105.734 77.8359 105.451 76.2759 105.451 74.4255V59.7206H108.497V74.8702C108.497 76.721 108.956 78.106 109.877 79.0252C110.797 79.9462 112.113 80.4056 113.827 80.4056C114.979 80.4056 115.96 80.2053 116.769 79.8024C117.578 79.4014 118.197 78.7909 118.625 77.9714C119.053 77.1519 119.267 76.1174 119.267 74.8702V59.7206H122.218V74.7269Z" fill="#100F0D"/>
<path d="M126.5 82.6583V66.2575H129.339V68.6359C129.603 68.1816 129.97 67.7535 130.442 67.3511C130.911 66.9496 131.484 66.6272 132.154 66.3842C132.825 66.1403 133.602 66.0195 134.479 66.0195C135.516 66.0195 136.468 66.2252 137.34 66.6382C138.214 67.0503 138.912 67.6924 139.437 68.5643C139.959 69.437 140.22 70.5605 140.22 71.9354V82.6583H137.286V72.221C137.286 70.9422 136.949 69.9928 136.279 69.3745C135.608 68.7558 134.738 68.4462 133.669 68.4462C132.929 68.4462 132.236 68.5643 131.591 68.8026C130.948 69.041 130.423 69.4007 130.022 69.8821C129.62 70.3626 129.419 70.9684 129.419 71.6983V82.6583H126.5Z" fill="#100F0D"/>
<path d="M147.565 66.2566V82.6583H144.726V66.2566H147.565ZM147.629 59.7363V62.782H144.631V59.7363H147.629Z" fill="#100F0D"/>
<path d="M165.219 66.2575L159.304 82.6583H156.638L150.705 66.2575H153.467L157.828 78.9781H158.097L162.475 66.2575H165.219" fill="#100F0D"/>
<path d="M169.565 73.1567H178.478C178.478 72.215 178.321 71.3666 178.003 70.6099C177.686 69.8543 177.203 69.2562 176.552 68.8175C175.901 68.3788 175.085 68.1597 174.102 68.1597C173.076 68.1597 172.227 68.4059 171.556 68.8975C170.883 69.3894 170.382 70.0174 170.048 70.7849C169.714 71.5512 169.553 72.3418 169.565 73.1567V73.1567ZM169.55 75.1403C169.55 76.1752 169.721 77.1146 170.063 77.9548C170.407 78.7959 170.931 79.4656 171.636 79.9622C172.338 80.4588 173.218 80.7073 174.276 80.7073C175.322 80.7073 176.223 80.4634 176.98 79.9778C177.735 79.4909 178.221 78.7872 178.431 77.8675H181.209C181.007 78.9778 180.563 79.9135 179.875 80.6747C179.187 81.4363 178.357 82.0105 177.386 82.3964C176.412 82.7827 175.396 82.9761 174.339 82.9761C172.806 82.9761 171.458 82.6426 170.294 81.9766C169.131 81.3095 168.222 80.3541 167.566 79.105C166.91 77.8579 166.582 76.3603 166.582 74.6165C166.582 72.8921 166.878 71.3803 167.471 70.0793C168.063 68.7775 168.922 67.7623 170.048 67.0338C171.175 66.3034 172.531 65.9386 174.117 65.9386C175.661 65.9386 176.967 66.2726 178.035 66.9382C179.103 67.6044 179.914 68.5437 180.47 69.7547C181.025 70.9656 181.303 72.4011 181.303 74.0607V75.1403H169.55" fill="#100F0D"/>
<path d="M184.999 82.6583V66.2575H187.791V69.4132C188.067 68.6308 188.453 67.9831 188.949 67.471C189.446 66.9575 190.014 66.5744 190.654 66.3204C191.295 66.0669 191.958 65.9395 192.644 65.9395C192.888 65.9395 193.126 65.9551 193.359 65.9869C193.59 66.0195 193.77 66.0723 193.898 66.1462V68.9855C193.74 68.9111 193.536 68.8605 193.287 68.8344C193.038 68.8091 192.828 68.7953 192.661 68.7953C192.005 68.753 191.392 68.793 190.82 68.9138C190.251 69.0361 189.747 69.245 189.313 69.5399C188.879 69.8376 188.538 70.2248 188.291 70.7062C188.042 71.1871 187.918 71.7718 187.918 72.4595V82.6583H184.999" fill="#100F0D"/>
<path d="M202.685 82.9761C201.543 82.9761 200.482 82.7988 199.504 82.4447C198.526 82.09 197.714 81.5346 197.07 80.779C196.424 80.0224 196.017 79.0577 195.848 77.8831H198.513C198.661 78.5285 198.928 79.0655 199.315 79.4941C199.699 79.9223 200.184 80.2447 200.765 80.4611C201.348 80.6788 201.982 80.7863 202.67 80.7863C203.769 80.7863 204.657 80.5805 205.334 80.1671C206.01 79.7555 206.349 79.1211 206.349 78.2635C206.349 77.6622 206.171 77.1775 205.816 76.8128C205.464 76.4476 204.916 76.1816 204.176 76.0122L200.781 75.171C199.459 74.8536 198.402 74.3566 197.61 73.68C196.816 73.0028 196.419 72.0565 196.419 70.841C196.409 69.8786 196.636 69.0315 197.102 68.303C197.567 67.5726 198.264 66.9962 199.196 66.5735C200.126 66.1499 201.284 65.9386 202.67 65.9386C204.445 65.9386 205.881 66.3374 206.976 67.1367C208.069 67.9355 208.639 69.106 208.681 70.6495H206.096C205.989 69.8677 205.638 69.247 205.04 68.7862C204.443 68.326 203.642 68.0963 202.638 68.0963C201.59 68.0963 200.739 68.3053 200.084 68.7233C199.427 69.14 199.099 69.7886 199.099 70.666C199.099 71.248 199.332 71.7051 199.797 72.0386C200.264 72.3707 200.95 72.6491 201.86 72.8715L205.143 73.6951C205.906 73.8972 206.531 74.1608 207.024 74.4893C207.516 74.8173 207.906 75.182 208.198 75.5831C208.488 75.9859 208.694 76.4063 208.815 76.845C208.937 77.2837 208.997 77.7044 208.997 78.1059C208.997 79.1101 208.747 79.9756 208.245 80.6995C207.742 81.423 207.024 81.9839 206.087 82.3803C205.152 82.7768 204.017 82.9761 202.685 82.9761" fill="#100F0D"/>
<path d="M215.947 66.2566V82.6583H213.108V66.2566H215.947ZM216.009 59.7363V62.782H213.012V59.7363H216.009Z" fill="#100F0D"/>
<path d="M229.016 68.3972H225.319V78.5974C225.319 79.179 225.381 79.6044 225.503 79.8749C225.624 80.1441 225.831 80.3159 226.121 80.3899C226.412 80.4634 226.811 80.5011 227.319 80.5011H229.11V82.4676C228.91 82.542 228.605 82.6054 228.2 82.6583C227.792 82.7115 227.286 82.7377 226.683 82.7377C225.553 82.7377 224.675 82.5848 224.05 82.2774C223.427 81.971 222.991 81.5158 222.743 80.9131C222.493 80.31 222.37 79.5704 222.37 78.693V68.3972H219.705V66.2566H222.45L223.161 61.4814H225.319V66.2395H229.016V68.3972" fill="#100F0D"/>
<path d="M234.646 87.8927C233.686 87.8927 232.844 87.7549 232.124 87.4806V85.5775L233.789 85.6083C234.404 85.6303 234.912 85.5876 235.312 85.4815C235.715 85.3763 236.038 85.2339 236.281 85.0538C236.524 84.8737 236.711 84.673 236.844 84.4507C236.975 84.2288 237.084 84.0166 237.169 83.8163L237.739 82.2618L231.333 66.2565H234.297L239.135 78.9143L243.941 66.2565H246.814L239.897 83.8962C239.474 84.9321 239.001 85.7415 238.478 86.3226C237.954 86.9046 237.372 87.3116 236.733 87.5445C236.092 87.7765 235.398 87.8927 234.646 87.8927Z" fill="#100F0D"/>
<path d="M1.5567 0.867546C1.36607 0.867546 1.17774 0.917999 1.03121 1.04348C0.882381 1.17342 0.790053 1.35899 0.779947 1.55797C0.773976 1.67874 0.137787 13.7798 0.137787 29.3028C0.137787 45.4565 1.21311 54.1092 4.10468 61.2298C7.03804 68.4574 11.5662 72.0268 20.6043 77.2934C29.2574 82.3327 32.8779 83.013 35.2927 83.013C37.7088 83.013 41.328 82.3327 49.9792 77.2934C59.0195 72.0268 63.5477 68.4574 66.4829 61.2298C69.3722 54.1092 70.4471 45.4565 70.4471 29.3028C70.4471 13.7798 69.8114 1.67874 69.8059 1.55797C69.7953 1.35899 69.7052 1.17342 69.5532 1.04348C69.4066 0.914824 69.2151 0.867546 69.0186 0.867546C69.0186 0.867546 1.74641 0.867546 1.5567 0.867546V0.867546ZM68.2634 2.45595C68.4085 5.54889 68.8628 16.2315 68.8628 29.3028C68.8628 45.2291 67.8196 53.721 65.0154 60.634C63.658 63.9759 61.9383 66.5066 59.4394 68.8388C57.1932 70.9358 54.2213 72.9887 49.1818 75.9245C45.327 78.1694 42.2499 79.6821 39.7745 80.5476C37.5402 81.3285 36.2054 81.4286 35.2927 81.4286C34.3795 81.4286 33.0456 81.3285 30.8104 80.5476C28.335 79.6821 25.2574 78.1694 21.4022 75.9245C16.3636 72.9882 13.3922 70.9353 11.1464 68.8388C8.64803 66.5066 6.92917 63.9759 5.57319 60.634C2.76568 53.7214 1.72251 45.2296 1.72251 29.3028C1.72251 16.2388 2.17543 5.56912 2.32196 2.46477L68.2634 2.45595Z" fill="#B97D1C"/>
<path d="M55.613 20.4165L54.8541 18.292L54.1017 20.3806L51.8574 20.4697L53.6401 21.8483L53.0034 23.9915L54.8468 22.7206L56.7058 23.9915L56.0678 21.8247L57.8495 20.4697L55.613 20.4165" fill="#B97D1C"/>
<path d="M52.9879 32.4619L54.6912 34.0355L54.5221 31.7227L56.8157 31.3727L54.9021 30.0617L56.0573 28.0512L53.8396 28.7301L52.9879 26.573L52.1358 28.7301L49.9186 28.0512L51.0743 30.0617L49.1608 31.3727L51.4533 31.7227L51.2842 34.0355L52.9879 32.4619" fill="#B97D1C"/>
<path d="M62.2385 19.7366L63.9423 21.3102L63.7733 18.9971L66.0658 18.6465L64.1523 17.3365L65.3084 15.3255L63.0906 16.0048L62.2385 13.8474L61.3869 16.0048L59.1697 15.3255L60.325 17.3365L58.4113 18.6465L60.704 18.9971L60.5358 21.3102L62.2385 19.7366Z" fill="#B97D1C"/>
<path d="M53.9622 11.0592L55.6654 12.633L55.4973 10.3197L57.7899 9.96974L55.8763 8.65918L57.0315 6.64871L54.8138 7.32804L53.9622 5.16999L53.1101 7.32804L50.8929 6.64871L52.0486 8.65918L50.135 9.96974L52.4276 10.3197L52.2589 12.633L53.9622 11.0592" fill="#B97D1C"/>
<path d="M44.1875 18.5794L45.8911 20.1536L45.7225 17.8403L48.0151 17.4903L46.1015 16.1793L47.2572 14.1683L45.04 14.8476L44.1875 12.6906L43.3362 14.8476L41.1186 14.1683L42.2738 16.1793L40.3602 17.4903L42.6537 17.8403L42.4846 20.1536L44.1875 18.5794" fill="#B97D1C"/>
<path d="M53.0729 37.9651C43.6927 33.48 37.3896 30.2985 35.1163 30.2985C32.8452 30.2985 26.9051 33.48 17.5248 37.9651C8.14598 42.451 4.94345 43.4129 4.94345 45.3742C4.94345 47.337 7.24613 46.4031 7.94571 46.1927C8.6462 45.9833 32.5807 38.2388 35.1163 38.2388C37.6518 38.2388 61.9511 45.9833 62.652 46.1927C63.353 46.4031 65.6547 47.337 65.6547 45.3742C65.6547 43.4129 62.4518 42.451 53.0729 37.9651" fill="#B97D1C"/>
<path d="M58.4647 52.6276C54.3972 53.9931 51.1676 56.9674 46.6619 56.1199C42.712 55.3777 39.4341 51.9661 35.2862 52.0189C30.7457 52.0764 27.3181 55.9863 22.8634 56.3584C18.4835 56.7235 15.077 53.1866 10.9944 52.3497C9.14828 51.9712 7.52956 52.2261 5.98846 52.7548C6.30127 54.2743 6.6637 55.6735 7.0817 56.9909C8.29758 56.6982 9.57914 56.6151 10.9944 56.9049C15.077 57.7423 18.4835 61.2792 22.8634 60.9141C27.3181 60.5421 30.7457 56.6317 35.2862 56.5743C39.4341 56.5214 42.712 59.9334 46.6619 60.6761C51.1676 61.5237 54.3972 58.549 58.4647 57.1828C60.2823 56.5733 61.9065 56.6252 63.4513 57.0102C63.8689 55.695 64.2318 54.2982 64.5441 52.7824C62.6704 52.1328 60.7159 51.8719 58.4647 52.6276" fill="#B97D1C"/>
<path d="M58.4647 61.7396C54.3972 63.1052 51.1675 66.0799 46.6619 65.2324C42.712 64.4891 39.4341 61.0777 35.2862 61.1305C30.7456 61.1879 27.318 65.0978 22.8633 65.4699C18.4835 65.8359 15.077 62.2982 10.9943 61.4612C10.2203 61.3028 9.48723 61.2554 8.78214 61.2931C9.70542 63.1488 10.8547 64.7556 12.2663 66.2039C12.3108 66.2499 12.3549 66.2829 12.4119 66.3114C12.8721 66.5332 15.2418 67.6817 16.4261 68.2769C18.4421 69.2902 20.5468 70.2191 22.8633 70.0256C27.318 69.6536 30.7456 65.7431 35.2862 65.6858C39.4341 65.633 42.712 69.045 46.6619 69.7877C49.4188 70.3063 51.7417 69.3735 54.0278 68.2737C55.2157 67.7024 57.7545 66.4424 58.23 66.2062C58.2864 66.1782 58.3296 66.1443 58.3737 66.0983C59.7146 64.6932 60.8657 63.0831 61.7558 61.2958C60.7182 61.2288 59.6313 61.3473 58.4647 61.7396Z" fill="#B97D1C"/>
<path d="M24.0998 74.3874C25.9124 75.4081 27.5215 76.24 28.9524 76.8964C30.9634 75.8486 32.9813 74.8266 35.2862 74.7972C37.5889 74.7683 39.6243 75.8072 41.655 76.8637C43.0983 76.1991 44.7234 75.3548 46.5535 74.3209C42.6523 73.5363 39.3959 70.1895 35.2862 70.2419C31.1741 70.2943 27.9758 73.5045 24.0998 74.3874" fill="#B97D1C"/>
<path d="M49.9604 46.9968C45.1543 45.5298 41.8682 44.5706 39.6224 43.9445C37.4847 43.3493 36.486 43.1232 35.826 42.9556C35.6294 42.9055 35.2987 42.8435 35.1879 42.8233C35.0405 42.8504 34.8384 42.8917 34.5614 42.9546C34.0074 43.0819 33.1536 43.2965 31.8421 43.6579C29.6161 44.2715 26.0695 45.3083 20.4246 47.0575C18.6135 47.6188 16.585 48.2537 14.3159 48.9711C17.0876 50.2918 19.7453 52.0667 22.9116 51.8025C27.3668 51.4304 30.7939 47.52 35.3344 47.4621C39.4824 47.4098 42.7602 50.8214 46.7101 51.5641C50.3803 52.2549 53.2038 50.4089 56.3237 48.9624C53.9512 48.2224 51.8396 47.5706 49.9604 46.9968" fill="#B97D1C"/>
</g>
<defs>
<clipPath id="clip0_428:3770">
<rect width="250" height="87.8882" fill="white"/>
</clipPath>
</defs>
</svg>
